%TF.GenerationSoftware,KiCad,Pcbnew,9.0.3-9.0.3-0~ubuntu22.04.1*%
%TF.CreationDate,2025-09-08T10:32:46+08:00*%
%TF.ProjectId,pdtrigger,70647472-6967-4676-9572-2e6b69636164,rev?*%
%TF.SameCoordinates,Original*%
%TF.FileFunction,Copper,L3,Inr*%
%TF.FilePolarity,Positive*%
%FSLAX46Y46*%
G04 Gerber Fmt 4.6, Leading zero omitted, Abs format (unit mm)*
G04 Created by KiCad (PCBNEW 9.0.3-9.0.3-0~ubuntu22.04.1) date 2025-09-08 10:32:46*
%MOMM*%
%LPD*%
G01*
G04 APERTURE LIST*
%TA.AperFunction,ComponentPad*%
%ADD10C,2.200000*%
%TD*%
%TA.AperFunction,ComponentPad*%
%ADD11O,1.800000X1.200000*%
%TD*%
%TA.AperFunction,ComponentPad*%
%ADD12O,2.000000X1.100000*%
%TD*%
%TA.AperFunction,ComponentPad*%
%ADD13C,1.500000*%
%TD*%
%TA.AperFunction,ComponentPad*%
%ADD14R,2.000000X2.000000*%
%TD*%
%TA.AperFunction,ComponentPad*%
%ADD15C,2.000000*%
%TD*%
%TA.AperFunction,ComponentPad*%
%ADD16R,1.700000X1.700000*%
%TD*%
%TA.AperFunction,ComponentPad*%
%ADD17C,1.700000*%
%TD*%
%TA.AperFunction,ViaPad*%
%ADD18C,0.500000*%
%TD*%
%TA.AperFunction,ViaPad*%
%ADD19C,0.600000*%
%TD*%
%TA.AperFunction,ViaPad*%
%ADD20C,1.000000*%
%TD*%
G04 APERTURE END LIST*
D10*
%TO.N,/V_BUS_OUT*%
%TO.C,U3*%
X30000000Y-19500000D03*
%TO.N,GND*%
X30000000Y-14500000D03*
%TD*%
D11*
%TO.N,GND*%
%TO.C,J2*%
X-19680000Y-21320000D03*
D12*
X-15470000Y-21320000D03*
D11*
X-19680000Y-12680000D03*
D12*
X-15470000Y-12680000D03*
%TD*%
D13*
%TO.N,/VBUS*%
%TO.C,TP3*%
X-14500000Y-35500000D03*
%TD*%
%TO.N,GND*%
%TO.C,TP3*%
X26500000Y-35500000D03*
%TD*%
%TO.N,/V_BUS_OUT*%
%TO.C,TP3*%
X31500000Y-30250000D03*
%TD*%
D14*
%TO.N,/UART_TX*%
%TO.C,J3*%
X-17790000Y8000000D03*
D15*
%TO.N,/UART_RX*%
X-15250000Y8000000D03*
%TD*%
D16*
%TO.N,GND*%
%TO.C,J1*%
X7940000Y13250000D03*
D17*
%TO.N,/SWCLK*%
X10480000Y13250000D03*
%TO.N,/SWDIO*%
X13020000Y13250000D03*
%TO.N,+3V3_MCU*%
X15560000Y13250000D03*
%TD*%
D18*
%TO.N,/VBUS*%
X-10250000Y-14750000D03*
%TO.N,/USB_D-*%
X-9524997Y-16125000D03*
%TO.N,/USB_D+*%
X-9524997Y-16875000D03*
%TO.N,GND*%
X-10500000Y-16500000D03*
X-14500000Y-11000000D03*
%TO.N,/VBUS*%
X-10750000Y-11000000D03*
D19*
%TO.N,GND*%
X750000Y-17750000D03*
X0Y-17750000D03*
X-750000Y-17750000D03*
X-750000Y-17000000D03*
X-750000Y-16250000D03*
X0Y-16250000D03*
X750000Y-16250000D03*
X750000Y-17000000D03*
X0Y-17000000D03*
%TO.N,/UART_TX*%
X-5750000Y5500000D03*
%TO.N,/UART_RX*%
X-6000000Y4500000D03*
%TO.N,GND*%
X22000000Y-34750000D03*
X22000000Y-36500000D03*
X12750000Y-36500000D03*
X3750000Y-36500000D03*
X17250000Y-34750000D03*
X19000000Y-22500000D03*
X19000000Y-19750000D03*
X19000000Y-14250000D03*
X15750000Y-10500000D03*
X22250000Y-5500000D03*
X22250000Y-10000000D03*
X11250000Y-22500000D03*
X13250000Y-26000000D03*
X20250000Y-26000000D03*
X19000000Y-11500000D03*
%TO.N,+3V3_MCU*%
X14250000Y-4750000D03*
%TO.N,GND*%
X-16750000Y-31750000D03*
X-16750000Y-29250000D03*
X-16750000Y-30500000D03*
X-18000000Y-31750000D03*
X-18000000Y-29250000D03*
X-18000000Y-30500000D03*
X-19250000Y-31750000D03*
X-19250000Y-29250000D03*
X-9500000Y1250000D03*
X8750000Y2500000D03*
X6500000Y5500000D03*
X11750000Y1500000D03*
X11750000Y4250000D03*
X1800000Y-24900000D03*
X7750000Y-8750000D03*
X-13500000Y-21750000D03*
X-13500000Y-20750000D03*
X-11250000Y-13000000D03*
X-12000000Y-13000000D03*
X-12750000Y-13000000D03*
X-13500000Y-13000000D03*
X-19250000Y-30500000D03*
X-500000Y-36500000D03*
X-500000Y-34750000D03*
X8000000Y-36500000D03*
X17250000Y-36500000D03*
X32750000Y-15500000D03*
X32750000Y-13250000D03*
X27000000Y-15500000D03*
X27000000Y-13250000D03*
X32000000Y-5000000D03*
X23500000Y-12250000D03*
X26250000Y-5750000D03*
X19000000Y-3250000D03*
X19500000Y-2000000D03*
X20500000Y10000000D03*
X9250000Y6250000D03*
X17000000Y6250000D03*
X17000000Y9250000D03*
X9250000Y9210000D03*
X3500000Y13500000D03*
X500000Y13500000D03*
X-1250000Y12000000D03*
X4500000Y10250000D03*
X-3683058Y-3183058D03*
X-816942Y-8933058D03*
X-2250000Y10250000D03*
X-3000000Y9500000D03*
X-19250000Y-19750000D03*
X-20500000Y-19750000D03*
X-19250000Y-18750000D03*
X-20500000Y-18750000D03*
X-19250000Y-14750000D03*
X-20500000Y-14750000D03*
X-19250000Y-15750000D03*
X-20500000Y-15750000D03*
X-19250000Y-17750000D03*
X-20500000Y-17750000D03*
X-20500000Y-16750000D03*
X-19250000Y-16750000D03*
%TO.N,/V_BUS_OUT*%
X4500000Y-25000000D03*
X-1000000Y-13250000D03*
%TO.N,GND*%
X2933058Y-8433058D03*
X-7250000Y4500000D03*
%TO.N,+3V3_MCU*%
X-8750000Y-6000000D03*
X-2000000Y-9250000D03*
X-5250000Y-9250000D03*
X4058058Y-9558058D03*
X8500000Y-13750000D03*
X8500000Y-12750000D03*
X8250000Y-22250000D03*
X8250000Y-19750000D03*
%TO.N,Net-(C18-Pad2)*%
X-4500000Y-33550000D03*
X11250000Y-26750000D03*
%TO.N,/VBUS*%
X-7750000Y-35500000D03*
%TO.N,+3V3_MCU*%
X25250000Y4750000D03*
X25250000Y6250000D03*
X31250000Y4750000D03*
X31250000Y6250000D03*
X31250000Y7750000D03*
X-10500000Y9250000D03*
X-10500000Y10250000D03*
%TO.N,/PD_FAULT*%
X-8500000Y3750000D03*
X1250000Y-4250000D03*
X1324000Y-11825000D03*
%TO.N,/SWDIO*%
X2800000Y-4200000D03*
%TO.N,/SWCLK*%
X7750000Y-3750000D03*
%TO.N,/BOOT0*%
X-5000000Y6500000D03*
X7250000Y2200000D03*
%TO.N,/NRST*%
X4750000Y7750000D03*
X750000Y4250000D03*
%TO.N,/I2C3_SCL*%
X250000Y-8500000D03*
X-4360000Y-13360000D03*
%TO.N,+3V3_MCU*%
X25250000Y12250000D03*
X26750000Y12250000D03*
X28250000Y12250000D03*
X28250000Y10750000D03*
X26750000Y10750000D03*
X25250000Y10750000D03*
X25250000Y9250000D03*
X26750000Y9250000D03*
X28250000Y9250000D03*
X29750000Y9250000D03*
X29750000Y7750000D03*
X28250000Y7750000D03*
X26750000Y7750000D03*
X25250000Y7750000D03*
%TO.N,GND*%
X20500000Y6250000D03*
X20500000Y7250000D03*
X20500000Y5000000D03*
X20500000Y4000000D03*
%TO.N,/VBUS*%
X23750000Y1250000D03*
%TO.N,+3V3_MCU*%
X18000000Y4250000D03*
X16500000Y4250000D03*
X15250000Y4250000D03*
%TO.N,GND*%
X13750000Y0D03*
X13750000Y-1750000D03*
D20*
%TO.N,/VBUS*%
X23750000Y-3250000D03*
X-3750000Y-24750000D03*
D19*
%TO.N,GND*%
X5750000Y7750000D03*
X-1500000Y8250000D03*
%TO.N,+3V3_MCU*%
X-3250000Y7250000D03*
X5250000Y5750000D03*
X8500000Y4250000D03*
X5000000Y-6500000D03*
X-7500000Y-5500000D03*
X-7500000Y1500000D03*
X-10000000Y3500000D03*
%TO.N,GND*%
X-7250000Y7000000D03*
X-13750000Y-3500000D03*
X-12000000Y-4500000D03*
X0Y-2000000D03*
X1000000Y-2000000D03*
X2000000Y-2000000D03*
X-1000000Y-2000000D03*
X-2000000Y-2000000D03*
X0Y-1000000D03*
X1000000Y-1000000D03*
X2000000Y-1000000D03*
X-1000000Y-1000000D03*
X-2000000Y-1000000D03*
X0Y2000000D03*
X1000000Y2000000D03*
X2000000Y2000000D03*
X-1000000Y2000000D03*
X-2000000Y2000000D03*
X0Y1000000D03*
X1000000Y1000000D03*
X2000000Y1000000D03*
X-1000000Y1000000D03*
X-2000000Y1000000D03*
X-2000000Y0D03*
X-1000000Y0D03*
X2000000Y0D03*
X1000000Y0D03*
X0Y0D03*
X24200000Y-14900000D03*
X24900000Y-14900000D03*
X8250000Y-10250000D03*
X8250000Y-14750000D03*
X8250000Y-20750000D03*
X8250000Y-23750000D03*
X3750000Y-22750000D03*
X2250000Y-24000000D03*
X-1200000Y-20000000D03*
X-1200000Y-21000000D03*
X-1450000Y-23950000D03*
%TO.N,/USB_D-*%
X1575000Y-7400000D03*
%TO.N,/USB_D+*%
X2425000Y-7400000D03*
%TD*%
%TA.AperFunction,Conductor*%
%TO.N,+3V3_MCU*%
G36*
X6842292Y14580593D02*
G01*
X6878256Y14531093D01*
X6878256Y14469907D01*
X6854105Y14430496D01*
X6851659Y14428052D01*
X6851658Y14428050D01*
X6788880Y14365272D01*
X6761949Y14338341D01*
X6704354Y14225305D01*
X6689500Y14131522D01*
X6689500Y12368479D01*
X6689501Y12368477D01*
X6704352Y12274701D01*
X6704354Y12274696D01*
X6761950Y12161658D01*
X6851658Y12071950D01*
X6964696Y12014354D01*
X7058481Y11999500D01*
X8821518Y11999501D01*
X8821521Y11999501D01*
X8821522Y11999502D01*
X8868411Y12006928D01*
X8915299Y12014353D01*
X8915299Y12014354D01*
X8915304Y12014354D01*
X9028342Y12071950D01*
X9118050Y12161658D01*
X9175646Y12274696D01*
X9190500Y12368481D01*
X9190499Y12613961D01*
X9209406Y12672148D01*
X9258906Y12708112D01*
X9320091Y12708113D01*
X9369591Y12672149D01*
X9377708Y12658903D01*
X9410469Y12594606D01*
X9410473Y12594599D01*
X9410474Y12594598D01*
X9410476Y12594595D01*
X9526172Y12435354D01*
X9665354Y12296172D01*
X9824595Y12180476D01*
X9999975Y12091116D01*
X10187174Y12030291D01*
X10187175Y12030291D01*
X10187178Y12030290D01*
X10381580Y11999500D01*
X10381583Y11999500D01*
X10578420Y11999500D01*
X10772821Y12030290D01*
X10772822Y12030291D01*
X10772826Y12030291D01*
X10960025Y12091116D01*
X11135405Y12180476D01*
X11294646Y12296172D01*
X11433828Y12435354D01*
X11549524Y12594595D01*
X11638884Y12769975D01*
X11655845Y12822177D01*
X11691809Y12871676D01*
X11750000Y12890583D01*
X11808191Y12871676D01*
X11844155Y12822176D01*
X11861116Y12769975D01*
X11950473Y12594599D01*
X11950476Y12594595D01*
X12066172Y12435354D01*
X12205354Y12296172D01*
X12364595Y12180476D01*
X12539975Y12091116D01*
X12727174Y12030291D01*
X12727175Y12030291D01*
X12727178Y12030290D01*
X12921580Y11999500D01*
X12921583Y11999500D01*
X13118420Y11999500D01*
X13312821Y12030290D01*
X13312822Y12030291D01*
X13312826Y12030291D01*
X13500025Y12091116D01*
X13675405Y12180476D01*
X13834646Y12296172D01*
X13973828Y12435354D01*
X14089524Y12594595D01*
X14091472Y12598417D01*
X14124321Y12662889D01*
X14145955Y12705349D01*
X14189218Y12748612D01*
X14249650Y12758184D01*
X14304167Y12730407D01*
X14322374Y12705348D01*
X14405376Y12542447D01*
X14405380Y12542441D01*
X14444728Y12488284D01*
X14444729Y12488284D01*
X15036201Y13079757D01*
X15047470Y13037703D01*
X15119881Y12912285D01*
X15222285Y12809881D01*
X15347703Y12737470D01*
X15389754Y12726203D01*
X14798282Y12134731D01*
X14798282Y12134730D01*
X14852440Y12095381D01*
X14852446Y12095377D01*
X15041784Y11998905D01*
X15243878Y11933241D01*
X15453750Y11900000D01*
X15666250Y11900000D01*
X15876121Y11933241D01*
X16078215Y11998905D01*
X16267556Y12095380D01*
X16321716Y12134730D01*
X15730243Y12726203D01*
X15772297Y12737470D01*
X15897715Y12809881D01*
X16000119Y12912285D01*
X16072530Y13037703D01*
X16083797Y13079757D01*
X16675270Y12488284D01*
X16714624Y12542449D01*
X16743143Y12598421D01*
X30249500Y12598421D01*
X30249500Y12401580D01*
X30280289Y12207179D01*
X30341116Y12019975D01*
X30343979Y12014355D01*
X30430476Y11844595D01*
X30546172Y11685354D01*
X30685354Y11546172D01*
X30844595Y11430476D01*
X31019975Y11341116D01*
X31207174Y11280291D01*
X31207175Y11280291D01*
X31207178Y11280290D01*
X31401580Y11249500D01*
X31401583Y11249500D01*
X31598420Y11249500D01*
X31792821Y11280290D01*
X31792822Y11280291D01*
X31792826Y11280291D01*
X31980025Y11341116D01*
X32155405Y11430476D01*
X32314646Y11546172D01*
X32453828Y11685354D01*
X32569524Y11844595D01*
X32658884Y12019975D01*
X32719709Y12207174D01*
X32726897Y12252556D01*
X32750500Y12401580D01*
X32750500Y12598421D01*
X32719710Y12792822D01*
X32714167Y12809881D01*
X32658884Y12980025D01*
X32569524Y13155405D01*
X32453828Y13314646D01*
X32314646Y13453828D01*
X32155405Y13569524D01*
X32155404Y13569525D01*
X32155402Y13569526D01*
X31980025Y13658884D01*
X31792821Y13719711D01*
X31598420Y13750500D01*
X31598417Y13750500D01*
X31401583Y13750500D01*
X31401580Y13750500D01*
X31207178Y13719711D01*
X31019974Y13658884D01*
X30844597Y13569526D01*
X30685355Y13453829D01*
X30546171Y13314645D01*
X30430474Y13155403D01*
X30341116Y12980026D01*
X30280289Y12792822D01*
X30249500Y12598421D01*
X16743143Y12598421D01*
X16768019Y12647242D01*
X16768024Y12647252D01*
X16811095Y12731785D01*
X16876759Y12933879D01*
X16910000Y13143750D01*
X16910000Y13356251D01*
X16876759Y13566122D01*
X16811095Y13768216D01*
X16714623Y13957554D01*
X16714619Y13957560D01*
X16675270Y14011718D01*
X16675269Y14011718D01*
X16083797Y13420246D01*
X16072530Y13462297D01*
X16000119Y13587715D01*
X15897715Y13690119D01*
X15772297Y13762530D01*
X15730243Y13773799D01*
X16321716Y14365271D01*
X16321716Y14365272D01*
X16267559Y14404620D01*
X16267548Y14404627D01*
X16252506Y14412291D01*
X16209242Y14455556D01*
X16199671Y14515988D01*
X16227449Y14570504D01*
X16281966Y14598281D01*
X16297452Y14599500D01*
X31442417Y14599500D01*
X31496759Y14599500D01*
X31503234Y14599288D01*
X31767568Y14581963D01*
X31780396Y14580274D01*
X32037040Y14529225D01*
X32049529Y14525878D01*
X32297307Y14441769D01*
X32309255Y14436820D01*
X32508947Y14338342D01*
X32543928Y14321091D01*
X32555142Y14314617D01*
X32772707Y14169245D01*
X32782971Y14161369D01*
X32893263Y14064646D01*
X32979692Y13988850D01*
X32988848Y13979694D01*
X33151123Y13794654D01*
X33161364Y13782977D01*
X33169248Y13772703D01*
X33314616Y13555143D01*
X33321090Y13543929D01*
X33436815Y13309264D01*
X33441771Y13297299D01*
X33525874Y13049539D01*
X33529226Y13037031D01*
X33580272Y12780402D01*
X33581962Y12767563D01*
X33599288Y12503235D01*
X33599500Y12496760D01*
X33599500Y-10901000D01*
X33580593Y-10959191D01*
X33531093Y-10995155D01*
X33500500Y-11000000D01*
X21500000Y-11000000D01*
X21500000Y-11000001D01*
X21500000Y-24401000D01*
X21481093Y-24459191D01*
X21431593Y-24495155D01*
X21401000Y-24500000D01*
X8714771Y-24500000D01*
X8656580Y-24481093D01*
X8620616Y-24431593D01*
X8620616Y-24370407D01*
X8656580Y-24320907D01*
X8659769Y-24318685D01*
X8688481Y-24299500D01*
X8696542Y-24294114D01*
X8794114Y-24196542D01*
X8870775Y-24081811D01*
X8923580Y-23954328D01*
X8950500Y-23818993D01*
X8950500Y-23681007D01*
X8923580Y-23545672D01*
X8870775Y-23418189D01*
X8870774Y-23418187D01*
X8870771Y-23418182D01*
X8794114Y-23303458D01*
X8696541Y-23205885D01*
X8581817Y-23129228D01*
X8581806Y-23129222D01*
X8454328Y-23076420D01*
X8318995Y-23049500D01*
X8318993Y-23049500D01*
X8181007Y-23049500D01*
X8181004Y-23049500D01*
X8045672Y-23076420D01*
X8045670Y-23076420D01*
X7918193Y-23129222D01*
X7918182Y-23129228D01*
X7803458Y-23205885D01*
X7705885Y-23303458D01*
X7629228Y-23418182D01*
X7629222Y-23418193D01*
X7576420Y-23545670D01*
X7576420Y-23545672D01*
X7549500Y-23681004D01*
X7549500Y-23681007D01*
X7549500Y-23818993D01*
X7575954Y-23951987D01*
X7576420Y-23954327D01*
X7576420Y-23954329D01*
X7629222Y-24081806D01*
X7629228Y-24081817D01*
X7705885Y-24196541D01*
X7803458Y-24294114D01*
X7840231Y-24318685D01*
X7878110Y-24366735D01*
X7880512Y-24427874D01*
X7846518Y-24478747D01*
X7789115Y-24499924D01*
X7785229Y-24500000D01*
X5031664Y-24500000D01*
X4973473Y-24481093D01*
X4961660Y-24471004D01*
X4946541Y-24455885D01*
X4831817Y-24379228D01*
X4831806Y-24379222D01*
X4704328Y-24326420D01*
X4568995Y-24299500D01*
X4568993Y-24299500D01*
X4431007Y-24299500D01*
X4431004Y-24299500D01*
X4295672Y-24326420D01*
X4295670Y-24326420D01*
X4168193Y-24379222D01*
X4168182Y-24379228D01*
X4053458Y-24455885D01*
X4053454Y-24455889D01*
X4038340Y-24471004D01*
X3983823Y-24498781D01*
X3968336Y-24500000D01*
X2943611Y-24500000D01*
X2885420Y-24481093D01*
X2849456Y-24431593D01*
X2849456Y-24370407D01*
X2861296Y-24345997D01*
X2870774Y-24331812D01*
X2870775Y-24331811D01*
X2923580Y-24204328D01*
X2950500Y-24068993D01*
X2950500Y-23931007D01*
X2923580Y-23795672D01*
X2876085Y-23681008D01*
X2870777Y-23668193D01*
X2870771Y-23668182D01*
X2794114Y-23553458D01*
X2696541Y-23455885D01*
X2581817Y-23379228D01*
X2581806Y-23379222D01*
X2454328Y-23326420D01*
X2318995Y-23299500D01*
X2318993Y-23299500D01*
X2181007Y-23299500D01*
X2181004Y-23299500D01*
X2045672Y-23326420D01*
X2045670Y-23326420D01*
X1918193Y-23379222D01*
X1918182Y-23379228D01*
X1803458Y-23455885D01*
X1705885Y-23553458D01*
X1629228Y-23668182D01*
X1629222Y-23668193D01*
X1576420Y-23795670D01*
X1576420Y-23795672D01*
X1549500Y-23931004D01*
X1549500Y-24068996D01*
X1566094Y-24152419D01*
X1558902Y-24213181D01*
X1517369Y-24258110D01*
X1506883Y-24263196D01*
X1468193Y-24279222D01*
X1468190Y-24279223D01*
X1353458Y-24355886D01*
X1353449Y-24355893D01*
X1255885Y-24453458D01*
X1254188Y-24455999D01*
X1253089Y-24456865D01*
X1252798Y-24457220D01*
X1252720Y-24457156D01*
X1206139Y-24493880D01*
X1171871Y-24500000D01*
X-789798Y-24500000D01*
X-847989Y-24481093D01*
X-883953Y-24431593D01*
X-883953Y-24370407D01*
X-872113Y-24345998D01*
X-829229Y-24281818D01*
X-829223Y-24281806D01*
X-828153Y-24279222D01*
X-776420Y-24154328D01*
X-749500Y-24018993D01*
X-749500Y-23881007D01*
X-776420Y-23745672D01*
X-829225Y-23618189D01*
X-829226Y-23618187D01*
X-829229Y-23618182D01*
X-905886Y-23503458D01*
X-1003459Y-23405885D01*
X-1118183Y-23329228D01*
X-1118194Y-23329222D01*
X-1245672Y-23276420D01*
X-1381005Y-23249500D01*
X-1381007Y-23249500D01*
X-1518993Y-23249500D01*
X-1518996Y-23249500D01*
X-1654328Y-23276420D01*
X-1654330Y-23276420D01*
X-1781807Y-23329222D01*
X-1781818Y-23329228D01*
X-1896542Y-23405885D01*
X-1994115Y-23503458D01*
X-2070772Y-23618182D01*
X-2070778Y-23618193D01*
X-2123580Y-23745670D01*
X-2123580Y-23745672D01*
X-2150500Y-23881004D01*
X-2150500Y-24018995D01*
X-2123580Y-24154327D01*
X-2123580Y-24154329D01*
X-2070778Y-24281806D01*
X-2070772Y-24281818D01*
X-2027887Y-24345998D01*
X-2011278Y-24404886D01*
X-2032455Y-24462290D01*
X-2083329Y-24496283D01*
X-2110202Y-24500000D01*
X-2448129Y-24500000D01*
X-2506320Y-24481093D01*
X-2529526Y-24457352D01*
X-2529617Y-24457220D01*
X-3759305Y-22681004D01*
X3049500Y-22681004D01*
X3049500Y-22818995D01*
X3076420Y-22954327D01*
X3076420Y-22954329D01*
X3129222Y-23081806D01*
X3129228Y-23081817D01*
X3205885Y-23196541D01*
X3303458Y-23294114D01*
X3418182Y-23370771D01*
X3418193Y-23370777D01*
X3438589Y-23379225D01*
X3545672Y-23423580D01*
X3681007Y-23450500D01*
X3681008Y-23450500D01*
X3818992Y-23450500D01*
X3818993Y-23450500D01*
X3954328Y-23423580D01*
X4081811Y-23370775D01*
X4196542Y-23294114D01*
X4294114Y-23196542D01*
X4370775Y-23081811D01*
X4423580Y-22954328D01*
X4450500Y-22818993D01*
X4450500Y-22681007D01*
X4423580Y-22545672D01*
X4376083Y-22431004D01*
X10549500Y-22431004D01*
X10549500Y-22568995D01*
X10576420Y-22704327D01*
X10576420Y-22704329D01*
X10629222Y-22831806D01*
X10629228Y-22831817D01*
X10705885Y-22946541D01*
X10803458Y-23044114D01*
X10918182Y-23120771D01*
X10918193Y-23120777D01*
X10938589Y-23129225D01*
X11045672Y-23173580D01*
X11181007Y-23200500D01*
X11181008Y-23200500D01*
X11318992Y-23200500D01*
X11318993Y-23200500D01*
X11454328Y-23173580D01*
X11581811Y-23120775D01*
X11696542Y-23044114D01*
X11794114Y-22946542D01*
X11870775Y-22831811D01*
X11923580Y-22704328D01*
X11950500Y-22568993D01*
X11950500Y-22431007D01*
X11950499Y-22431004D01*
X18299500Y-22431004D01*
X18299500Y-22568995D01*
X18326420Y-22704327D01*
X18326420Y-22704329D01*
X18379222Y-22831806D01*
X18379228Y-22831817D01*
X18455885Y-22946541D01*
X18553458Y-23044114D01*
X18668182Y-23120771D01*
X18668193Y-23120777D01*
X18688589Y-23129225D01*
X18795672Y-23173580D01*
X18931007Y-23200500D01*
X18931008Y-23200500D01*
X19068992Y-23200500D01*
X19068993Y-23200500D01*
X19204328Y-23173580D01*
X19331811Y-23120775D01*
X19446542Y-23044114D01*
X19544114Y-22946542D01*
X19620775Y-22831811D01*
X19673580Y-22704328D01*
X19700500Y-22568993D01*
X19700500Y-22431007D01*
X19673580Y-22295672D01*
X19620775Y-22168189D01*
X19620774Y-22168187D01*
X19620771Y-22168182D01*
X19544114Y-22053458D01*
X19446541Y-21955885D01*
X19331817Y-21879228D01*
X19331806Y-21879222D01*
X19204328Y-21826420D01*
X19068995Y-21799500D01*
X19068993Y-21799500D01*
X18931007Y-21799500D01*
X18931004Y-21799500D01*
X18795672Y-21826420D01*
X18795670Y-21826420D01*
X18668193Y-21879222D01*
X18668182Y-21879228D01*
X18553458Y-21955885D01*
X18455885Y-22053458D01*
X18379228Y-22168182D01*
X18379222Y-22168193D01*
X18326420Y-22295670D01*
X18326420Y-22295672D01*
X18299500Y-22431004D01*
X11950499Y-22431004D01*
X11923580Y-22295672D01*
X11870775Y-22168189D01*
X11870774Y-22168187D01*
X11870771Y-22168182D01*
X11794114Y-22053458D01*
X11696541Y-21955885D01*
X11581817Y-21879228D01*
X11581806Y-21879222D01*
X11454328Y-21826420D01*
X11318995Y-21799500D01*
X11318993Y-21799500D01*
X11181007Y-21799500D01*
X11181004Y-21799500D01*
X11045672Y-21826420D01*
X11045670Y-21826420D01*
X10918193Y-21879222D01*
X10918182Y-21879228D01*
X10803458Y-21955885D01*
X10705885Y-22053458D01*
X10629228Y-22168182D01*
X10629222Y-22168193D01*
X10576420Y-22295670D01*
X10576420Y-22295672D01*
X10549500Y-22431004D01*
X4376083Y-22431004D01*
X4370775Y-22418189D01*
X4370774Y-22418187D01*
X4370771Y-22418182D01*
X4294114Y-22303458D01*
X4196541Y-22205885D01*
X4081817Y-22129228D01*
X4081806Y-22129222D01*
X3954328Y-22076420D01*
X3818995Y-22049500D01*
X3818993Y-22049500D01*
X3681007Y-22049500D01*
X3681004Y-22049500D01*
X3545672Y-22076420D01*
X3545670Y-22076420D01*
X3418193Y-22129222D01*
X3418182Y-22129228D01*
X3303458Y-22205885D01*
X3205885Y-22303458D01*
X3129228Y-22418182D01*
X3129222Y-22418193D01*
X3076420Y-22545670D01*
X3076420Y-22545672D01*
X3049500Y-22681004D01*
X-3759305Y-22681004D01*
X-5663151Y-19931004D01*
X-1900500Y-19931004D01*
X-1900500Y-20068995D01*
X-1873580Y-20204327D01*
X-1873580Y-20204329D01*
X-1820778Y-20331806D01*
X-1820772Y-20331818D01*
X-1745146Y-20444998D01*
X-1728537Y-20503886D01*
X-1745146Y-20555002D01*
X-1820772Y-20668181D01*
X-1820778Y-20668193D01*
X-1873580Y-20795670D01*
X-1873580Y-20795672D01*
X-1900500Y-20931004D01*
X-1900500Y-21068995D01*
X-1873580Y-21204327D01*
X-1873580Y-21204329D01*
X-1820778Y-21331806D01*
X-1820772Y-21331817D01*
X-1744115Y-21446541D01*
X-1646542Y-21544114D01*
X-1531818Y-21620771D01*
X-1531807Y-21620777D01*
X-1484717Y-21640282D01*
X-1404328Y-21673580D01*
X-1268993Y-21700500D01*
X-1268992Y-21700500D01*
X-1131008Y-21700500D01*
X-1131007Y-21700500D01*
X-995672Y-21673580D01*
X-868189Y-21620775D01*
X-753458Y-21544114D01*
X-655886Y-21446542D01*
X-579225Y-21331811D01*
X-526420Y-21204328D01*
X-499500Y-21068993D01*
X-499500Y-20931007D01*
X-526420Y-20795672D01*
X-573917Y-20681004D01*
X7549500Y-20681004D01*
X7549500Y-20818995D01*
X7576420Y-20954327D01*
X7576420Y-20954329D01*
X7629222Y-21081806D01*
X7629228Y-21081817D01*
X7705885Y-21196541D01*
X7803458Y-21294114D01*
X7918182Y-21370771D01*
X7918193Y-21370777D01*
X7965283Y-21390282D01*
X8045672Y-21423580D01*
X8181007Y-21450500D01*
X8181008Y-21450500D01*
X8318992Y-21450500D01*
X8318993Y-21450500D01*
X8454328Y-21423580D01*
X8581811Y-21370775D01*
X8696542Y-21294114D01*
X8794114Y-21196542D01*
X8870775Y-21081811D01*
X8923580Y-20954328D01*
X8950500Y-20818993D01*
X8950500Y-20681007D01*
X8923580Y-20545672D01*
X8904662Y-20500000D01*
X8870777Y-20418193D01*
X8870771Y-20418182D01*
X8794114Y-20303458D01*
X8696541Y-20205885D01*
X8581817Y-20129228D01*
X8581806Y-20129222D01*
X8454328Y-20076420D01*
X8318995Y-20049500D01*
X8318993Y-20049500D01*
X8181007Y-20049500D01*
X8181004Y-20049500D01*
X8045672Y-20076420D01*
X8045670Y-20076420D01*
X7918193Y-20129222D01*
X7918182Y-20129228D01*
X7803458Y-20205885D01*
X7705885Y-20303458D01*
X7629228Y-20418182D01*
X7629222Y-20418193D01*
X7576420Y-20545670D01*
X7576420Y-20545672D01*
X7549500Y-20681004D01*
X-573917Y-20681004D01*
X-579225Y-20668189D01*
X-579226Y-20668187D01*
X-579229Y-20668182D01*
X-637017Y-20581698D01*
X-654856Y-20555000D01*
X-671464Y-20496114D01*
X-654856Y-20444999D01*
X-579225Y-20331811D01*
X-526420Y-20204328D01*
X-499500Y-20068993D01*
X-499500Y-19931007D01*
X-526420Y-19795672D01*
X-573917Y-19681004D01*
X18299500Y-19681004D01*
X18299500Y-19818995D01*
X18326420Y-19954327D01*
X18326420Y-19954329D01*
X18379222Y-20081806D01*
X18379228Y-20081817D01*
X18455885Y-20196541D01*
X18553458Y-20294114D01*
X18668182Y-20370771D01*
X18668193Y-20370777D01*
X18701119Y-20384415D01*
X18795672Y-20423580D01*
X18931007Y-20450500D01*
X18931008Y-20450500D01*
X19068992Y-20450500D01*
X19068993Y-20450500D01*
X19204328Y-20423580D01*
X19331811Y-20370775D01*
X19446542Y-20294114D01*
X19544114Y-20196542D01*
X19620775Y-20081811D01*
X19673580Y-19954328D01*
X19700500Y-19818993D01*
X19700500Y-19681007D01*
X19673580Y-19545672D01*
X19620775Y-19418189D01*
X19620774Y-19418187D01*
X19620771Y-19418182D01*
X19544114Y-19303458D01*
X19446541Y-19205885D01*
X19331817Y-19129228D01*
X19331806Y-19129222D01*
X19204328Y-19076420D01*
X19068995Y-19049500D01*
X19068993Y-19049500D01*
X18931007Y-19049500D01*
X18931004Y-19049500D01*
X18795672Y-19076420D01*
X18795670Y-19076420D01*
X18668193Y-19129222D01*
X18668182Y-19129228D01*
X18553458Y-19205885D01*
X18455885Y-19303458D01*
X18379228Y-19418182D01*
X18379222Y-19418193D01*
X18326420Y-19545670D01*
X18326420Y-19545672D01*
X18299500Y-19681004D01*
X-573917Y-19681004D01*
X-579225Y-19668189D01*
X-579226Y-19668187D01*
X-579229Y-19668182D01*
X-655886Y-19553458D01*
X-753459Y-19455885D01*
X-868183Y-19379228D01*
X-868194Y-19379222D01*
X-995672Y-19326420D01*
X-1131005Y-19299500D01*
X-1131007Y-19299500D01*
X-1268993Y-19299500D01*
X-1268996Y-19299500D01*
X-1404328Y-19326420D01*
X-1404330Y-19326420D01*
X-1531807Y-19379222D01*
X-1531818Y-19379228D01*
X-1646542Y-19455885D01*
X-1744115Y-19553458D01*
X-1820772Y-19668182D01*
X-1820778Y-19668193D01*
X-1873580Y-19795670D01*
X-1873580Y-19795672D01*
X-1900500Y-19931004D01*
X-5663151Y-19931004D01*
X-8259305Y-16181004D01*
X-1450500Y-16181004D01*
X-1450500Y-16318995D01*
X-1423580Y-16454327D01*
X-1423580Y-16454329D01*
X-1368914Y-16586305D01*
X-1371035Y-16587183D01*
X-1361892Y-16638654D01*
X-1369897Y-16663288D01*
X-1368914Y-16663695D01*
X-1423580Y-16795670D01*
X-1423580Y-16795672D01*
X-1450500Y-16931004D01*
X-1450500Y-17068995D01*
X-1423580Y-17204327D01*
X-1423580Y-17204329D01*
X-1368914Y-17336305D01*
X-1371035Y-17337183D01*
X-1361892Y-17388654D01*
X-1369897Y-17413288D01*
X-1368914Y-17413695D01*
X-1423580Y-17545670D01*
X-1423580Y-17545672D01*
X-1450500Y-17681004D01*
X-1450500Y-17818995D01*
X-1423580Y-17954327D01*
X-1423580Y-17954329D01*
X-1370778Y-18081806D01*
X-1370772Y-18081817D01*
X-1294115Y-18196541D01*
X-1196542Y-18294114D01*
X-1081818Y-18370771D01*
X-1081807Y-18370777D01*
X-1034717Y-18390282D01*
X-954328Y-18423580D01*
X-818993Y-18450500D01*
X-818992Y-18450500D01*
X-681008Y-18450500D01*
X-681007Y-18450500D01*
X-545672Y-18423580D01*
X-472387Y-18393224D01*
X-413695Y-18368914D01*
X-412809Y-18371053D01*
X-361440Y-18361878D01*
X-336718Y-18369910D01*
X-336305Y-18368914D01*
X-277614Y-18393224D01*
X-204328Y-18423580D01*
X-68993Y-18450500D01*
X-68992Y-18450500D01*
X68992Y-18450500D01*
X68993Y-18450500D01*
X204328Y-18423580D01*
X277613Y-18393224D01*
X336305Y-18368914D01*
X337191Y-18371053D01*
X388560Y-18361878D01*
X413282Y-18369910D01*
X413695Y-18368914D01*
X472386Y-18393224D01*
X545672Y-18423580D01*
X681007Y-18450500D01*
X681008Y-18450500D01*
X818992Y-18450500D01*
X818993Y-18450500D01*
X954328Y-18423580D01*
X1081811Y-18370775D01*
X1196542Y-18294114D01*
X1294114Y-18196542D01*
X1370775Y-18081811D01*
X1423580Y-17954328D01*
X1450500Y-17818993D01*
X1450500Y-17681007D01*
X1423580Y-17545672D01*
X1404870Y-17500501D01*
X1368914Y-17413695D01*
X1371053Y-17412808D01*
X1361878Y-17361440D01*
X1369910Y-17336717D01*
X1368914Y-17336305D01*
X1404662Y-17250000D01*
X1423580Y-17204328D01*
X1450500Y-17068993D01*
X1450500Y-16931007D01*
X1423580Y-16795672D01*
X1408940Y-16760328D01*
X1368914Y-16663695D01*
X1371053Y-16662808D01*
X1361878Y-16611440D01*
X1369910Y-16586717D01*
X1368914Y-16586305D01*
X1404662Y-16500000D01*
X1423580Y-16454328D01*
X1450500Y-16318993D01*
X1450500Y-16181007D01*
X1423580Y-16045672D01*
X1382519Y-15946542D01*
X1370777Y-15918193D01*
X1370771Y-15918182D01*
X1294114Y-15803458D01*
X1196541Y-15705885D01*
X1081817Y-15629228D01*
X1081806Y-15629222D01*
X954328Y-15576420D01*
X818995Y-15549500D01*
X818993Y-15549500D01*
X681007Y-15549500D01*
X681004Y-15549500D01*
X545672Y-15576420D01*
X545670Y-15576420D01*
X413695Y-15631086D01*
X412816Y-15628965D01*
X361346Y-15638108D01*
X336711Y-15630103D01*
X336305Y-15631086D01*
X204328Y-15576420D01*
X68995Y-15549500D01*
X68993Y-15549500D01*
X-68993Y-15549500D01*
X-68996Y-15549500D01*
X-204328Y-15576420D01*
X-204330Y-15576420D01*
X-336305Y-15631086D01*
X-337184Y-15628965D01*
X-388654Y-15638108D01*
X-413289Y-15630103D01*
X-413695Y-15631086D01*
X-545672Y-15576420D01*
X-681005Y-15549500D01*
X-681007Y-15549500D01*
X-818993Y-15549500D01*
X-818996Y-15549500D01*
X-954328Y-15576420D01*
X-954330Y-15576420D01*
X-1081807Y-15629222D01*
X-1081818Y-15629228D01*
X-1196542Y-15705885D01*
X-1294115Y-15803458D01*
X-1370772Y-15918182D01*
X-1370778Y-15918193D01*
X-1423580Y-16045670D01*
X-1423580Y-16045672D01*
X-1450500Y-16181004D01*
X-8259305Y-16181004D01*
X-9297767Y-14681004D01*
X7549500Y-14681004D01*
X7549500Y-14818995D01*
X7561481Y-14879225D01*
X7575658Y-14950499D01*
X7576420Y-14954327D01*
X7576420Y-14954329D01*
X7629222Y-15081806D01*
X7629228Y-15081817D01*
X7705885Y-15196541D01*
X7803458Y-15294114D01*
X7918182Y-15370771D01*
X7918193Y-15370777D01*
X7965283Y-15390282D01*
X8045672Y-15423580D01*
X8181007Y-15450500D01*
X8181008Y-15450500D01*
X8318992Y-15450500D01*
X8318993Y-15450500D01*
X8454328Y-15423580D01*
X8581811Y-15370775D01*
X8696542Y-15294114D01*
X8794114Y-15196542D01*
X8870775Y-15081811D01*
X8923580Y-14954328D01*
X8950500Y-14818993D01*
X8950500Y-14681007D01*
X8923580Y-14545672D01*
X8870775Y-14418189D01*
X8870774Y-14418187D01*
X8870771Y-14418182D01*
X8794114Y-14303458D01*
X8696541Y-14205885D01*
X8659304Y-14181004D01*
X18299500Y-14181004D01*
X18299500Y-14318995D01*
X18326420Y-14454327D01*
X18326420Y-14454329D01*
X18379222Y-14581806D01*
X18379228Y-14581817D01*
X18455885Y-14696541D01*
X18553458Y-14794114D01*
X18668182Y-14870771D01*
X18668193Y-14870777D01*
X18688589Y-14879225D01*
X18795672Y-14923580D01*
X18931007Y-14950500D01*
X18931008Y-14950500D01*
X19068992Y-14950500D01*
X19068993Y-14950500D01*
X19204328Y-14923580D01*
X19331811Y-14870775D01*
X19446542Y-14794114D01*
X19544114Y-14696542D01*
X19620775Y-14581811D01*
X19673580Y-14454328D01*
X19700500Y-14318993D01*
X19700500Y-14181007D01*
X19673580Y-14045672D01*
X19634158Y-13950499D01*
X19620777Y-13918193D01*
X19620771Y-13918182D01*
X19544114Y-13803458D01*
X19446541Y-13705885D01*
X19331817Y-13629228D01*
X19331806Y-13629222D01*
X19204328Y-13576420D01*
X19068995Y-13549500D01*
X19068993Y-13549500D01*
X18931007Y-13549500D01*
X18931004Y-13549500D01*
X18795672Y-13576420D01*
X18795670Y-13576420D01*
X18668193Y-13629222D01*
X18668182Y-13629228D01*
X18553458Y-13705885D01*
X18455885Y-13803458D01*
X18379228Y-13918182D01*
X18379222Y-13918193D01*
X18326420Y-14045670D01*
X18326420Y-14045672D01*
X18299500Y-14181004D01*
X8659304Y-14181004D01*
X8581817Y-14129228D01*
X8581806Y-14129222D01*
X8454328Y-14076420D01*
X8318995Y-14049500D01*
X8318993Y-14049500D01*
X8181007Y-14049500D01*
X8181004Y-14049500D01*
X8045672Y-14076420D01*
X8045670Y-14076420D01*
X7918193Y-14129222D01*
X7918182Y-14129228D01*
X7803458Y-14205885D01*
X7705885Y-14303458D01*
X7629228Y-14418182D01*
X7629222Y-14418193D01*
X7576420Y-14545670D01*
X7576420Y-14545672D01*
X7549500Y-14681004D01*
X-9297767Y-14681004D01*
X-10260075Y-13291004D01*
X-5060500Y-13291004D01*
X-5060500Y-13428995D01*
X-5033580Y-13564327D01*
X-5033580Y-13564329D01*
X-4980778Y-13691806D01*
X-4980772Y-13691817D01*
X-4904115Y-13806541D01*
X-4806542Y-13904114D01*
X-4691818Y-13980771D01*
X-4691807Y-13980777D01*
X-4644717Y-14000282D01*
X-4564328Y-14033580D01*
X-4428993Y-14060500D01*
X-4428992Y-14060500D01*
X-4291008Y-14060500D01*
X-4291007Y-14060500D01*
X-4155672Y-14033580D01*
X-4028189Y-13980775D01*
X-3913458Y-13904114D01*
X-3815886Y-13806542D01*
X-3739225Y-13691811D01*
X-3686420Y-13564328D01*
X-3659500Y-13428993D01*
X-3659500Y-13291007D01*
X-3674289Y-13216657D01*
X-3678506Y-13195457D01*
X-3681381Y-13181004D01*
X-1700500Y-13181004D01*
X-1700500Y-13318995D01*
X-1673580Y-13454327D01*
X-1673580Y-13454329D01*
X-1620778Y-13581806D01*
X-1620772Y-13581817D01*
X-1544115Y-13696541D01*
X-1446542Y-13794114D01*
X-1331818Y-13870771D01*
X-1331807Y-13870777D01*
X-1284717Y-13890282D01*
X-1204328Y-13923580D01*
X-1068993Y-13950500D01*
X-1068992Y-13950500D01*
X-931008Y-13950500D01*
X-931007Y-13950500D01*
X-795672Y-13923580D01*
X-668189Y-13870775D01*
X-553458Y-13794114D01*
X-455886Y-13696542D01*
X-379225Y-13581811D01*
X-326420Y-13454328D01*
X-299500Y-13318993D01*
X-299500Y-13181007D01*
X-326420Y-13045672D01*
X-365841Y-12950500D01*
X-379223Y-12918193D01*
X-379229Y-12918182D01*
X-455886Y-12803458D01*
X-553459Y-12705885D01*
X-668183Y-12629228D01*
X-668194Y-12629222D01*
X-795672Y-12576420D01*
X-931005Y-12549500D01*
X-931007Y-12549500D01*
X-1068993Y-12549500D01*
X-1068996Y-12549500D01*
X-1204328Y-12576420D01*
X-1204330Y-12576420D01*
X-1331807Y-12629222D01*
X-1331818Y-12629228D01*
X-1446542Y-12705885D01*
X-1544115Y-12803458D01*
X-1620772Y-12918182D01*
X-1620778Y-12918193D01*
X-1673580Y-13045670D01*
X-1673580Y-13045672D01*
X-1700500Y-13181004D01*
X-3681381Y-13181004D01*
X-3686420Y-13155672D01*
X-3739225Y-13028189D01*
X-3739226Y-13028187D01*
X-3739229Y-13028182D01*
X-3815886Y-12913458D01*
X-3913459Y-12815885D01*
X-4028183Y-12739228D01*
X-4028194Y-12739222D01*
X-4155672Y-12686420D01*
X-4291005Y-12659500D01*
X-4291007Y-12659500D01*
X-4428993Y-12659500D01*
X-4428996Y-12659500D01*
X-4564328Y-12686420D01*
X-4564330Y-12686420D01*
X-4691807Y-12739222D01*
X-4691818Y-12739228D01*
X-4806542Y-12815885D01*
X-4904115Y-12913458D01*
X-4980772Y-13028182D01*
X-4980778Y-13028193D01*
X-5033580Y-13155670D01*
X-5033580Y-13155672D01*
X-5060500Y-13291004D01*
X-10260075Y-13291004D01*
X-10554014Y-12866425D01*
X-10569714Y-12829387D01*
X-10572400Y-12815885D01*
X-10576420Y-12795672D01*
X-10629225Y-12668189D01*
X-10629226Y-12668187D01*
X-10629229Y-12668182D01*
X-10705886Y-12553458D01*
X-10803459Y-12455885D01*
X-10852498Y-12423118D01*
X-10878893Y-12397155D01*
X-10965857Y-12271541D01*
X-11322767Y-11756004D01*
X623500Y-11756004D01*
X623500Y-11893995D01*
X650420Y-12029327D01*
X650420Y-12029329D01*
X703222Y-12156806D01*
X703228Y-12156817D01*
X779885Y-12271541D01*
X877458Y-12369114D01*
X992182Y-12445771D01*
X992193Y-12445777D01*
X1016599Y-12455886D01*
X1119672Y-12498580D01*
X1255007Y-12525500D01*
X1255008Y-12525500D01*
X1392992Y-12525500D01*
X1392993Y-12525500D01*
X1528328Y-12498580D01*
X1655811Y-12445775D01*
X1770542Y-12369114D01*
X1868114Y-12271542D01*
X1944775Y-12156811D01*
X1997580Y-12029328D01*
X2024500Y-11893993D01*
X2024500Y-11756007D01*
X1997580Y-11620672D01*
X1949780Y-11505272D01*
X1944777Y-11493193D01*
X1944774Y-11493187D01*
X1936728Y-11481146D01*
X1936727Y-11481144D01*
X1923790Y-11461783D01*
X1903224Y-11431004D01*
X18299500Y-11431004D01*
X18299500Y-11568995D01*
X18326420Y-11704327D01*
X18326420Y-11704329D01*
X18379222Y-11831806D01*
X18379228Y-11831817D01*
X18455885Y-11946541D01*
X18553458Y-12044114D01*
X18668182Y-12120771D01*
X18668193Y-12120777D01*
X18715283Y-12140282D01*
X18795672Y-12173580D01*
X18931007Y-12200500D01*
X18931008Y-12200500D01*
X19068992Y-12200500D01*
X19068993Y-12200500D01*
X19204328Y-12173580D01*
X19331811Y-12120775D01*
X19446542Y-12044114D01*
X19544114Y-11946542D01*
X19620775Y-11831811D01*
X19673580Y-11704328D01*
X19700500Y-11568993D01*
X19700500Y-11431007D01*
X19673580Y-11295672D01*
X19635702Y-11204225D01*
X19620777Y-11168193D01*
X19620771Y-11168182D01*
X19544114Y-11053458D01*
X19446541Y-10955885D01*
X19331817Y-10879228D01*
X19331806Y-10879222D01*
X19204328Y-10826420D01*
X19068995Y-10799500D01*
X19068993Y-10799500D01*
X18931007Y-10799500D01*
X18931004Y-10799500D01*
X18795672Y-10826420D01*
X18795670Y-10826420D01*
X18668193Y-10879222D01*
X18668182Y-10879228D01*
X18553458Y-10955885D01*
X18455885Y-11053458D01*
X18379228Y-11168182D01*
X18379222Y-11168193D01*
X18326420Y-11295670D01*
X18326420Y-11295672D01*
X18299500Y-11431004D01*
X1903224Y-11431004D01*
X1868114Y-11378458D01*
X1770542Y-11280886D01*
X1770541Y-11280885D01*
X1655817Y-11204228D01*
X1655806Y-11204222D01*
X1528328Y-11151420D01*
X1392995Y-11124500D01*
X1392993Y-11124500D01*
X1255007Y-11124500D01*
X1255004Y-11124500D01*
X1119672Y-11151420D01*
X1119670Y-11151420D01*
X992193Y-11204222D01*
X992182Y-11204228D01*
X877458Y-11280885D01*
X779885Y-11378458D01*
X703228Y-11493182D01*
X703222Y-11493193D01*
X650420Y-11620670D01*
X650420Y-11620672D01*
X623500Y-11756004D01*
X-11322767Y-11756004D01*
X-11500000Y-11500000D01*
X-11500001Y-11500000D01*
X-13866524Y-11500000D01*
X-13924715Y-11481093D01*
X-13960679Y-11431593D01*
X-13960679Y-11370407D01*
X-13948839Y-11345998D01*
X-13923539Y-11308134D01*
X-13923538Y-11308130D01*
X-13923535Y-11308127D01*
X-13874499Y-11189744D01*
X-13849500Y-11064069D01*
X-13849500Y-10935931D01*
X-11400500Y-10935931D01*
X-11400500Y-11064069D01*
X-11378717Y-11173579D01*
X-11375501Y-11189742D01*
X-11375500Y-11189747D01*
X-11326466Y-11308125D01*
X-11326462Y-11308133D01*
X-11284851Y-11370407D01*
X-11255276Y-11414669D01*
X-11164669Y-11505276D01*
X-11101152Y-11547717D01*
X-11058134Y-11576461D01*
X-11058130Y-11576463D01*
X-11058127Y-11576465D01*
X-10939744Y-11625501D01*
X-10814069Y-11650500D01*
X-10814068Y-11650500D01*
X-10685932Y-11650500D01*
X-10685931Y-11650500D01*
X-10560256Y-11625501D01*
X-10441873Y-11576465D01*
X-10335331Y-11505276D01*
X-10244724Y-11414669D01*
X-10173535Y-11308127D01*
X-10124499Y-11189744D01*
X-10099500Y-11064069D01*
X-10099500Y-10935931D01*
X-10124499Y-10810256D01*
X-10173535Y-10691873D01*
X-10173537Y-10691870D01*
X-10173539Y-10691866D01*
X-10221040Y-10620777D01*
X-10244724Y-10585331D01*
X-10335331Y-10494724D01*
X-10395789Y-10454327D01*
X-10441867Y-10423538D01*
X-10441875Y-10423534D01*
X-10560253Y-10374500D01*
X-10560255Y-10374499D01*
X-10560256Y-10374499D01*
X-10685931Y-10349500D01*
X-10814069Y-10349500D01*
X-10814070Y-10349500D01*
X-10876907Y-10361999D01*
X-10939744Y-10374499D01*
X-10939745Y-10374499D01*
X-10939748Y-10374500D01*
X-11058126Y-10423534D01*
X-11058134Y-10423538D01*
X-11164669Y-10494724D01*
X-11164673Y-10494727D01*
X-11255273Y-10585327D01*
X-11255276Y-10585331D01*
X-11326462Y-10691866D01*
X-11326466Y-10691874D01*
X-11375500Y-10810252D01*
X-11375501Y-10810255D01*
X-11375501Y-10810256D01*
X-11400500Y-10935931D01*
X-13849500Y-10935931D01*
X-13874499Y-10810256D01*
X-13923535Y-10691873D01*
X-13923537Y-10691870D01*
X-13923539Y-10691866D01*
X-13971040Y-10620777D01*
X-13994724Y-10585331D01*
X-14085331Y-10494724D01*
X-14145789Y-10454327D01*
X-14191867Y-10423538D01*
X-14191875Y-10423534D01*
X-14310253Y-10374500D01*
X-14310255Y-10374499D01*
X-14310256Y-10374499D01*
X-14435931Y-10349500D01*
X-14564069Y-10349500D01*
X-14564070Y-10349500D01*
X-14626907Y-10361999D01*
X-14689744Y-10374499D01*
X-14689745Y-10374499D01*
X-14689748Y-10374500D01*
X-14808126Y-10423534D01*
X-14808134Y-10423538D01*
X-14914669Y-10494724D01*
X-14914673Y-10494727D01*
X-15005273Y-10585327D01*
X-15005276Y-10585331D01*
X-15076462Y-10691866D01*
X-15076466Y-10691874D01*
X-15125500Y-10810252D01*
X-15125501Y-10810255D01*
X-15125501Y-10810256D01*
X-15150500Y-10935931D01*
X-15150500Y-11064069D01*
X-15128717Y-11173579D01*
X-15125501Y-11189742D01*
X-15125500Y-11189747D01*
X-15076466Y-11308125D01*
X-15076462Y-11308134D01*
X-15051161Y-11345998D01*
X-15034552Y-11404886D01*
X-15055729Y-11462290D01*
X-15106603Y-11496283D01*
X-15133476Y-11500000D01*
X-21500500Y-11500000D01*
X-21558691Y-11481093D01*
X-21594655Y-11431593D01*
X-21599500Y-11401000D01*
X-21599500Y-8864062D01*
X-1517442Y-8864062D01*
X-1517442Y-9002053D01*
X-1501578Y-9081806D01*
X-1491284Y-9133557D01*
X-1490522Y-9137385D01*
X-1490522Y-9137387D01*
X-1437720Y-9264864D01*
X-1437714Y-9264875D01*
X-1361057Y-9379599D01*
X-1263484Y-9477172D01*
X-1148760Y-9553829D01*
X-1148749Y-9553835D01*
X-1101659Y-9573340D01*
X-1021270Y-9606638D01*
X-885935Y-9633558D01*
X-885934Y-9633558D01*
X-747950Y-9633558D01*
X-747949Y-9633558D01*
X-612614Y-9606638D01*
X-485131Y-9553833D01*
X-370400Y-9477172D01*
X-272828Y-9379600D01*
X-196167Y-9264869D01*
X-166361Y-9192909D01*
X-126625Y-9146384D01*
X-67131Y-9132100D01*
X-37016Y-9139330D01*
X45672Y-9173580D01*
X181007Y-9200500D01*
X181008Y-9200500D01*
X318992Y-9200500D01*
X318993Y-9200500D01*
X454328Y-9173580D01*
X581811Y-9120775D01*
X696542Y-9044114D01*
X794114Y-8946542D01*
X870775Y-8831811D01*
X923580Y-8704328D01*
X950500Y-8568993D01*
X950500Y-8431007D01*
X923580Y-8295672D01*
X900581Y-8240148D01*
X870777Y-8168193D01*
X870771Y-8168182D01*
X794114Y-8053458D01*
X696541Y-7955885D01*
X581817Y-7879228D01*
X581806Y-7879222D01*
X454328Y-7826420D01*
X318995Y-7799500D01*
X318993Y-7799500D01*
X181007Y-7799500D01*
X181004Y-7799500D01*
X45672Y-7826420D01*
X45670Y-7826420D01*
X-81807Y-7879222D01*
X-81818Y-7879228D01*
X-196542Y-7955885D01*
X-294115Y-8053458D01*
X-370772Y-8168182D01*
X-370776Y-8168190D01*
X-400582Y-8240148D01*
X-440319Y-8286674D01*
X-499814Y-8300957D01*
X-529931Y-8293726D01*
X-612614Y-8259478D01*
X-747947Y-8232558D01*
X-747949Y-8232558D01*
X-885935Y-8232558D01*
X-885938Y-8232558D01*
X-1021270Y-8259478D01*
X-1021272Y-8259478D01*
X-1148749Y-8312280D01*
X-1148760Y-8312286D01*
X-1263484Y-8388943D01*
X-1361057Y-8486516D01*
X-1437714Y-8601240D01*
X-1437720Y-8601251D01*
X-1490522Y-8728728D01*
X-1490522Y-8728730D01*
X-1517442Y-8864062D01*
X-21599500Y-8864062D01*
X-21599500Y-7331004D01*
X874500Y-7331004D01*
X874500Y-7468995D01*
X901420Y-7604327D01*
X901420Y-7604329D01*
X954222Y-7731806D01*
X954228Y-7731817D01*
X1030885Y-7846541D01*
X1128458Y-7944114D01*
X1243182Y-8020771D01*
X1243193Y-8020777D01*
X1290283Y-8040282D01*
X1370672Y-8073580D01*
X1506007Y-8100500D01*
X1506008Y-8100500D01*
X1643992Y-8100500D01*
X1643993Y-8100500D01*
X1779328Y-8073580D01*
X1906811Y-8020775D01*
X1944998Y-7995258D01*
X2003885Y-7978649D01*
X2042825Y-7988315D01*
X2049155Y-7991352D01*
X2093189Y-8020775D01*
X2219690Y-8073173D01*
X2222124Y-8074341D01*
X2242403Y-8093673D01*
X2263710Y-8111871D01*
X2264368Y-8114613D01*
X2266410Y-8116560D01*
X2271452Y-8144119D01*
X2277994Y-8171366D01*
X2277110Y-8175045D01*
X2277422Y-8176746D01*
X2275981Y-8179747D01*
X2270764Y-8201483D01*
X2259477Y-8228731D01*
X2232558Y-8364062D01*
X2232558Y-8364065D01*
X2232558Y-8502051D01*
X2259477Y-8637383D01*
X2259478Y-8637385D01*
X2259478Y-8637387D01*
X2312280Y-8764864D01*
X2312286Y-8764875D01*
X2388943Y-8879599D01*
X2486516Y-8977172D01*
X2601240Y-9053829D01*
X2601251Y-9053835D01*
X2648341Y-9073340D01*
X2728730Y-9106638D01*
X2864065Y-9133558D01*
X2864066Y-9133558D01*
X3002050Y-9133558D01*
X3002051Y-9133558D01*
X3137386Y-9106638D01*
X3264869Y-9053833D01*
X3379600Y-8977172D01*
X3477172Y-8879600D01*
X3553833Y-8764869D01*
X3588571Y-8681004D01*
X7049500Y-8681004D01*
X7049500Y-8818995D01*
X7076420Y-8954327D01*
X7076420Y-8954329D01*
X7129222Y-9081806D01*
X7129228Y-9081817D01*
X7205885Y-9196541D01*
X7303458Y-9294114D01*
X7418182Y-9370771D01*
X7418193Y-9370777D01*
X7465283Y-9390282D01*
X7545672Y-9423580D01*
X7681007Y-9450500D01*
X7681008Y-9450500D01*
X7818992Y-9450500D01*
X7818993Y-9450500D01*
X7854957Y-9443346D01*
X7915717Y-9450537D01*
X7960648Y-9492069D01*
X7972585Y-9552079D01*
X7946970Y-9607644D01*
X7920940Y-9627754D01*
X7918186Y-9629225D01*
X7803458Y-9705885D01*
X7705885Y-9803458D01*
X7629228Y-9918182D01*
X7629222Y-9918193D01*
X7576420Y-10045670D01*
X7576420Y-10045672D01*
X7549500Y-10181004D01*
X7549500Y-10318995D01*
X7552051Y-10331817D01*
X7570295Y-10423538D01*
X7576420Y-10454327D01*
X7576420Y-10454329D01*
X7629222Y-10581806D01*
X7629228Y-10581817D01*
X7705885Y-10696541D01*
X7803458Y-10794114D01*
X7918182Y-10870771D01*
X7918193Y-10870777D01*
X7938589Y-10879225D01*
X8045672Y-10923580D01*
X8181007Y-10950500D01*
X8181008Y-10950500D01*
X8318992Y-10950500D01*
X8318993Y-10950500D01*
X8454328Y-10923580D01*
X8581811Y-10870775D01*
X8696542Y-10794114D01*
X8794114Y-10696542D01*
X8870775Y-10581811D01*
X8923580Y-10454328D01*
X8928219Y-10431004D01*
X15049500Y-10431004D01*
X15049500Y-10568995D01*
X15067446Y-10659216D01*
X15075658Y-10700499D01*
X15076420Y-10704327D01*
X15076420Y-10704329D01*
X15129222Y-10831806D01*
X15129228Y-10831817D01*
X15205885Y-10946541D01*
X15303458Y-11044114D01*
X15418182Y-11120771D01*
X15418193Y-11120777D01*
X15465283Y-11140282D01*
X15545672Y-11173580D01*
X15681007Y-11200500D01*
X15681008Y-11200500D01*
X15818992Y-11200500D01*
X15818993Y-11200500D01*
X15954328Y-11173580D01*
X16081811Y-11120775D01*
X16196542Y-11044114D01*
X16294114Y-10946542D01*
X16370775Y-10831811D01*
X16423580Y-10704328D01*
X16450500Y-10568993D01*
X16450500Y-10431007D01*
X16423580Y-10295672D01*
X16376085Y-10181008D01*
X16370777Y-10168193D01*
X16370771Y-10168182D01*
X16294114Y-10053458D01*
X16196541Y-9955885D01*
X16159304Y-9931004D01*
X21549500Y-9931004D01*
X21549500Y-10068995D01*
X21576420Y-10204327D01*
X21576420Y-10204329D01*
X21629222Y-10331806D01*
X21629228Y-10331817D01*
X21705885Y-10446541D01*
X21803458Y-10544114D01*
X21918182Y-10620771D01*
X21918193Y-10620777D01*
X21965283Y-10640282D01*
X22045672Y-10673580D01*
X22181007Y-10700500D01*
X22181008Y-10700500D01*
X22318992Y-10700500D01*
X22318993Y-10700500D01*
X22454328Y-10673580D01*
X22581811Y-10620775D01*
X22696542Y-10544114D01*
X22794114Y-10446542D01*
X22870775Y-10331811D01*
X22923580Y-10204328D01*
X22950500Y-10068993D01*
X22950500Y-9931007D01*
X22923580Y-9795672D01*
X22870775Y-9668189D01*
X22870774Y-9668187D01*
X22870771Y-9668182D01*
X22794114Y-9553458D01*
X22696541Y-9455885D01*
X22581817Y-9379228D01*
X22581806Y-9379222D01*
X22454328Y-9326420D01*
X22318995Y-9299500D01*
X22318993Y-9299500D01*
X22181007Y-9299500D01*
X22181004Y-9299500D01*
X22045672Y-9326420D01*
X22045670Y-9326420D01*
X21918193Y-9379222D01*
X21918182Y-9379228D01*
X21803458Y-9455885D01*
X21705885Y-9553458D01*
X21629228Y-9668182D01*
X21629222Y-9668193D01*
X21576420Y-9795670D01*
X21576420Y-9795672D01*
X21549500Y-9931004D01*
X16159304Y-9931004D01*
X16081817Y-9879228D01*
X16081806Y-9879222D01*
X15954328Y-9826420D01*
X15818995Y-9799500D01*
X15818993Y-9799500D01*
X15681007Y-9799500D01*
X15681004Y-9799500D01*
X15545672Y-9826420D01*
X15545670Y-9826420D01*
X15418193Y-9879222D01*
X15418182Y-9879228D01*
X15303458Y-9955885D01*
X15205885Y-10053458D01*
X15129228Y-10168182D01*
X15129222Y-10168193D01*
X15076420Y-10295670D01*
X15076420Y-10295672D01*
X15049500Y-10431004D01*
X8928219Y-10431004D01*
X8950500Y-10318993D01*
X8950500Y-10181007D01*
X8923580Y-10045672D01*
X8876085Y-9931008D01*
X8870777Y-9918193D01*
X8870771Y-9918182D01*
X8794114Y-9803458D01*
X8696541Y-9705885D01*
X8581817Y-9629228D01*
X8581806Y-9629222D01*
X8454328Y-9576420D01*
X8318995Y-9549500D01*
X8318993Y-9549500D01*
X8181007Y-9549500D01*
X8180999Y-9549500D01*
X8145040Y-9556653D01*
X8084279Y-9549460D01*
X8039350Y-9507927D01*
X8027414Y-9447917D01*
X8053031Y-9392353D01*
X8079074Y-9372237D01*
X8081801Y-9370779D01*
X8081811Y-9370775D01*
X8196542Y-9294114D01*
X8294114Y-9196542D01*
X8370775Y-9081811D01*
X8423580Y-8954328D01*
X8450500Y-8818993D01*
X8450500Y-8681007D01*
X8423580Y-8545672D01*
X8376085Y-8431008D01*
X8370777Y-8418193D01*
X8370771Y-8418182D01*
X8294114Y-8303458D01*
X8196541Y-8205885D01*
X8081817Y-8129228D01*
X8081806Y-8129222D01*
X7954328Y-8076420D01*
X7818995Y-8049500D01*
X7818993Y-8049500D01*
X7681007Y-8049500D01*
X7681004Y-8049500D01*
X7545672Y-8076420D01*
X7545670Y-8076420D01*
X7418193Y-8129222D01*
X7418182Y-8129228D01*
X7303458Y-8205885D01*
X7205885Y-8303458D01*
X7129228Y-8418182D01*
X7129222Y-8418193D01*
X7076420Y-8545670D01*
X7076420Y-8545672D01*
X7049500Y-8681004D01*
X3588571Y-8681004D01*
X3606638Y-8637386D01*
X3633558Y-8502051D01*
X3633558Y-8364065D01*
X3606638Y-8228730D01*
X3560176Y-8116560D01*
X3553835Y-8101251D01*
X3553829Y-8101240D01*
X3477172Y-7986516D01*
X3379599Y-7888943D01*
X3264875Y-7812286D01*
X3264864Y-7812280D01*
X3140873Y-7760922D01*
X3094347Y-7721186D01*
X3080063Y-7661691D01*
X3087294Y-7631574D01*
X3098580Y-7604328D01*
X3125500Y-7468993D01*
X3125500Y-7331007D01*
X3098580Y-7195672D01*
X3045775Y-7068189D01*
X3045774Y-7068187D01*
X3045771Y-7068182D01*
X2969114Y-6953458D01*
X2871541Y-6855885D01*
X2756817Y-6779228D01*
X2756806Y-6779222D01*
X2629328Y-6726420D01*
X2493995Y-6699500D01*
X2493993Y-6699500D01*
X2356007Y-6699500D01*
X2356004Y-6699500D01*
X2220672Y-6726420D01*
X2220670Y-6726420D01*
X2093193Y-6779222D01*
X2093181Y-6779228D01*
X2055002Y-6804740D01*
X1996114Y-6821349D01*
X1944998Y-6804740D01*
X1906818Y-6779228D01*
X1906806Y-6779222D01*
X1779328Y-6726420D01*
X1643995Y-6699500D01*
X1643993Y-6699500D01*
X1506007Y-6699500D01*
X1506004Y-6699500D01*
X1370672Y-6726420D01*
X1370670Y-6726420D01*
X1243193Y-6779222D01*
X1243182Y-6779228D01*
X1128458Y-6855885D01*
X1030885Y-6953458D01*
X954228Y-7068182D01*
X954222Y-7068193D01*
X901420Y-7195670D01*
X901420Y-7195672D01*
X874500Y-7331004D01*
X-21599500Y-7331004D01*
X-21599500Y-5431004D01*
X21549500Y-5431004D01*
X21549500Y-5568995D01*
X21566972Y-5656829D01*
X21575658Y-5700499D01*
X21576420Y-5704327D01*
X21576420Y-5704329D01*
X21629222Y-5831806D01*
X21629228Y-5831817D01*
X21705885Y-5946541D01*
X21803458Y-6044114D01*
X21918182Y-6120771D01*
X21918193Y-6120777D01*
X21965283Y-6140282D01*
X22045672Y-6173580D01*
X22181007Y-6200500D01*
X22181008Y-6200500D01*
X22318992Y-6200500D01*
X22318993Y-6200500D01*
X22454328Y-6173580D01*
X22581811Y-6120775D01*
X22696542Y-6044114D01*
X22794114Y-5946542D01*
X22870775Y-5831811D01*
X22923580Y-5704328D01*
X22928219Y-5681004D01*
X25549500Y-5681004D01*
X25549500Y-5818995D01*
X25576420Y-5954327D01*
X25576420Y-5954329D01*
X25629222Y-6081806D01*
X25629228Y-6081817D01*
X25705885Y-6196541D01*
X25803458Y-6294114D01*
X25918182Y-6370771D01*
X25918193Y-6370777D01*
X25965283Y-6390282D01*
X26045672Y-6423580D01*
X26181007Y-6450500D01*
X26181008Y-6450500D01*
X26318992Y-6450500D01*
X26318993Y-6450500D01*
X26454328Y-6423580D01*
X26581811Y-6370775D01*
X26696542Y-6294114D01*
X26794114Y-6196542D01*
X26870775Y-6081811D01*
X26923580Y-5954328D01*
X26950500Y-5818993D01*
X26950500Y-5681007D01*
X26923580Y-5545672D01*
X26876085Y-5431008D01*
X26870777Y-5418193D01*
X26870771Y-5418182D01*
X26794114Y-5303458D01*
X26696541Y-5205885D01*
X26581817Y-5129228D01*
X26581806Y-5129222D01*
X26454328Y-5076420D01*
X26318995Y-5049500D01*
X26318993Y-5049500D01*
X26181007Y-5049500D01*
X26181004Y-5049500D01*
X26045672Y-5076420D01*
X26045670Y-5076420D01*
X25918193Y-5129222D01*
X25918182Y-5129228D01*
X25803458Y-5205885D01*
X25705885Y-5303458D01*
X25629228Y-5418182D01*
X25629222Y-5418193D01*
X25576420Y-5545670D01*
X25576420Y-5545672D01*
X25549500Y-5681004D01*
X22928219Y-5681004D01*
X22950500Y-5568993D01*
X22950500Y-5431007D01*
X22923580Y-5295672D01*
X22870775Y-5168189D01*
X22870774Y-5168187D01*
X22870771Y-5168182D01*
X22794114Y-5053458D01*
X22696541Y-4955885D01*
X22659304Y-4931004D01*
X31299500Y-4931004D01*
X31299500Y-5068995D01*
X31317446Y-5159216D01*
X31325658Y-5200499D01*
X31326420Y-5204327D01*
X31326420Y-5204329D01*
X31379222Y-5331806D01*
X31379228Y-5331817D01*
X31455885Y-5446541D01*
X31553458Y-5544114D01*
X31668182Y-5620771D01*
X31668193Y-5620777D01*
X31715283Y-5640282D01*
X31795672Y-5673580D01*
X31931007Y-5700500D01*
X31931008Y-5700500D01*
X32068992Y-5700500D01*
X32068993Y-5700500D01*
X32204328Y-5673580D01*
X32331811Y-5620775D01*
X32446542Y-5544114D01*
X32544114Y-5446542D01*
X32620775Y-5331811D01*
X32673580Y-5204328D01*
X32700500Y-5068993D01*
X32700500Y-4931007D01*
X32673580Y-4795672D01*
X32620775Y-4668189D01*
X32620774Y-4668187D01*
X32620771Y-4668182D01*
X32544114Y-4553458D01*
X32446541Y-4455885D01*
X32331817Y-4379228D01*
X32331806Y-4379222D01*
X32204328Y-4326420D01*
X32068995Y-4299500D01*
X32068993Y-4299500D01*
X31931007Y-4299500D01*
X31931004Y-4299500D01*
X31795672Y-4326420D01*
X31795670Y-4326420D01*
X31668193Y-4379222D01*
X31668182Y-4379228D01*
X31553458Y-4455885D01*
X31455885Y-4553458D01*
X31379228Y-4668182D01*
X31379222Y-4668193D01*
X31326420Y-4795670D01*
X31326420Y-4795672D01*
X31299500Y-4931004D01*
X22659304Y-4931004D01*
X22581817Y-4879228D01*
X22581806Y-4879222D01*
X22454328Y-4826420D01*
X22318995Y-4799500D01*
X22318993Y-4799500D01*
X22181007Y-4799500D01*
X22181004Y-4799500D01*
X22045672Y-4826420D01*
X22045670Y-4826420D01*
X21918193Y-4879222D01*
X21918182Y-4879228D01*
X21803458Y-4955885D01*
X21705885Y-5053458D01*
X21629228Y-5168182D01*
X21629222Y-5168193D01*
X21576420Y-5295670D01*
X21576420Y-5295672D01*
X21549500Y-5431004D01*
X-21599500Y-5431004D01*
X-21599500Y-4431004D01*
X-12700500Y-4431004D01*
X-12700500Y-4568995D01*
X-12673580Y-4704327D01*
X-12673580Y-4704329D01*
X-12620778Y-4831806D01*
X-12620772Y-4831817D01*
X-12544115Y-4946541D01*
X-12446542Y-5044114D01*
X-12331818Y-5120771D01*
X-12331807Y-5120777D01*
X-12311411Y-5129225D01*
X-12204328Y-5173580D01*
X-12068993Y-5200500D01*
X-12068992Y-5200500D01*
X-11931008Y-5200500D01*
X-11931007Y-5200500D01*
X-11795672Y-5173580D01*
X-11668189Y-5120775D01*
X-11553458Y-5044114D01*
X-11455886Y-4946542D01*
X-11379225Y-4831811D01*
X-11326420Y-4704328D01*
X-11299500Y-4568993D01*
X-11299500Y-4431007D01*
X-11326420Y-4295672D01*
X-11373917Y-4181004D01*
X549500Y-4181004D01*
X549500Y-4318995D01*
X567125Y-4407600D01*
X575658Y-4450499D01*
X576420Y-4454327D01*
X576420Y-4454329D01*
X629222Y-4581806D01*
X629228Y-4581817D01*
X705885Y-4696541D01*
X803458Y-4794114D01*
X918182Y-4870771D01*
X918193Y-4870777D01*
X938589Y-4879225D01*
X1045672Y-4923580D01*
X1181007Y-4950500D01*
X1181008Y-4950500D01*
X1318992Y-4950500D01*
X1318993Y-4950500D01*
X1454328Y-4923580D01*
X1581811Y-4870775D01*
X1696542Y-4794114D01*
X1794114Y-4696542D01*
X1870775Y-4581811D01*
X1923580Y-4454328D01*
X1932875Y-4407597D01*
X1962770Y-4354216D01*
X2018334Y-4328599D01*
X2078344Y-4340535D01*
X2119878Y-4385464D01*
X2124543Y-4399810D01*
X2125007Y-4399670D01*
X2126420Y-4404329D01*
X2179222Y-4531806D01*
X2179228Y-4531817D01*
X2255885Y-4646541D01*
X2353458Y-4744114D01*
X2468182Y-4820771D01*
X2468193Y-4820777D01*
X2515283Y-4840282D01*
X2595672Y-4873580D01*
X2731007Y-4900500D01*
X2731008Y-4900500D01*
X2868992Y-4900500D01*
X2868993Y-4900500D01*
X3004328Y-4873580D01*
X3131811Y-4820775D01*
X3246542Y-4744114D01*
X3344114Y-4646542D01*
X3420775Y-4531811D01*
X3473580Y-4404328D01*
X3500500Y-4268993D01*
X3500500Y-4131007D01*
X3473580Y-3995672D01*
X3427141Y-3883557D01*
X3420777Y-3868193D01*
X3420771Y-3868182D01*
X3344114Y-3753458D01*
X3271660Y-3681004D01*
X7049500Y-3681004D01*
X7049500Y-3818995D01*
X7062343Y-3883557D01*
X7075658Y-3950499D01*
X7076420Y-3954327D01*
X7076420Y-3954329D01*
X7129222Y-4081806D01*
X7129228Y-4081817D01*
X7205885Y-4196541D01*
X7303458Y-4294114D01*
X7418182Y-4370771D01*
X7418193Y-4370777D01*
X7465283Y-4390282D01*
X7545672Y-4423580D01*
X7681007Y-4450500D01*
X7681008Y-4450500D01*
X7818992Y-4450500D01*
X7818993Y-4450500D01*
X7954328Y-4423580D01*
X8081811Y-4370775D01*
X8196542Y-4294114D01*
X8294114Y-4196542D01*
X8370775Y-4081811D01*
X8423580Y-3954328D01*
X8450500Y-3818993D01*
X8450500Y-3681007D01*
X8423580Y-3545672D01*
X8376085Y-3431008D01*
X8370777Y-3418193D01*
X8370771Y-3418182D01*
X8294114Y-3303458D01*
X8196541Y-3205885D01*
X8159304Y-3181004D01*
X18299500Y-3181004D01*
X18299500Y-3318995D01*
X18326420Y-3454327D01*
X18326420Y-3454329D01*
X18379222Y-3581806D01*
X18379228Y-3581817D01*
X18455885Y-3696541D01*
X18553458Y-3794114D01*
X18668182Y-3870771D01*
X18668193Y-3870777D01*
X18699050Y-3883558D01*
X18795672Y-3923580D01*
X18931007Y-3950500D01*
X18931008Y-3950500D01*
X19068992Y-3950500D01*
X19068993Y-3950500D01*
X19204328Y-3923580D01*
X19331811Y-3870775D01*
X19446542Y-3794114D01*
X19544114Y-3696542D01*
X19620775Y-3581811D01*
X19673580Y-3454328D01*
X19700500Y-3318993D01*
X19700500Y-3181007D01*
X19696581Y-3161306D01*
X22849500Y-3161306D01*
X22849500Y-3338693D01*
X22884106Y-3512665D01*
X22884106Y-3512667D01*
X22951985Y-3676544D01*
X22951985Y-3676545D01*
X23047167Y-3818993D01*
X23050536Y-3824035D01*
X23175965Y-3949464D01*
X23323453Y-4048013D01*
X23323454Y-4048013D01*
X23323455Y-4048014D01*
X23360581Y-4063391D01*
X23487334Y-4115894D01*
X23661309Y-4150500D01*
X23661310Y-4150500D01*
X23838690Y-4150500D01*
X23838691Y-4150500D01*
X24012666Y-4115894D01*
X24176547Y-4048013D01*
X24324035Y-3949464D01*
X24449464Y-3824035D01*
X24548013Y-3676547D01*
X24615894Y-3512666D01*
X24650500Y-3338691D01*
X24650500Y-3161309D01*
X24615894Y-2987334D01*
X24548014Y-2823455D01*
X24548014Y-2823454D01*
X24449464Y-2675965D01*
X24324034Y-2550535D01*
X24176544Y-2451985D01*
X24012666Y-2384106D01*
X23838693Y-2349500D01*
X23838691Y-2349500D01*
X23661309Y-2349500D01*
X23661306Y-2349500D01*
X23487334Y-2384106D01*
X23487332Y-2384106D01*
X23323455Y-2451985D01*
X23323454Y-2451985D01*
X23175965Y-2550535D01*
X23050535Y-2675965D01*
X22951985Y-2823454D01*
X22951985Y-2823455D01*
X22884106Y-2987332D01*
X22884106Y-2987334D01*
X22849500Y-3161306D01*
X19696581Y-3161306D01*
X19673580Y-3045672D01*
X19620775Y-2918189D01*
X19620771Y-2918181D01*
X19568625Y-2840141D01*
X19552016Y-2781253D01*
X19573193Y-2723849D01*
X19624067Y-2689856D01*
X19631615Y-2688043D01*
X19704328Y-2673580D01*
X19831811Y-2620775D01*
X19946542Y-2544114D01*
X20044114Y-2446542D01*
X20120775Y-2331811D01*
X20173580Y-2204328D01*
X20200500Y-2068993D01*
X20200500Y-1931007D01*
X20173580Y-1795672D01*
X20155978Y-1753177D01*
X20120777Y-1668193D01*
X20120771Y-1668182D01*
X20044114Y-1553458D01*
X19946541Y-1455885D01*
X19831817Y-1379228D01*
X19831806Y-1379222D01*
X19704328Y-1326420D01*
X19568995Y-1299500D01*
X19568993Y-1299500D01*
X19431007Y-1299500D01*
X19431004Y-1299500D01*
X19295672Y-1326420D01*
X19295670Y-1326420D01*
X19168193Y-1379222D01*
X19168182Y-1379228D01*
X19053458Y-1455885D01*
X18955885Y-1553458D01*
X18879228Y-1668182D01*
X18879222Y-1668193D01*
X18826420Y-1795670D01*
X18826420Y-1795672D01*
X18799500Y-1931004D01*
X18799500Y-2068995D01*
X18826420Y-2204327D01*
X18826420Y-2204329D01*
X18879222Y-2331806D01*
X18879228Y-2331818D01*
X18931374Y-2409858D01*
X18947983Y-2468746D01*
X18926806Y-2526150D01*
X18875932Y-2560143D01*
X18868374Y-2561957D01*
X18795680Y-2576417D01*
X18795670Y-2576420D01*
X18668193Y-2629222D01*
X18668182Y-2629228D01*
X18553458Y-2705885D01*
X18455885Y-2803458D01*
X18379228Y-2918182D01*
X18379222Y-2918193D01*
X18326420Y-3045670D01*
X18326420Y-3045672D01*
X18299500Y-3181004D01*
X8159304Y-3181004D01*
X8081817Y-3129228D01*
X8081806Y-3129222D01*
X7954328Y-3076420D01*
X7818995Y-3049500D01*
X7818993Y-3049500D01*
X7681007Y-3049500D01*
X7681004Y-3049500D01*
X7545672Y-3076420D01*
X7545670Y-3076420D01*
X7418193Y-3129222D01*
X7418182Y-3129228D01*
X7303458Y-3205885D01*
X7205885Y-3303458D01*
X7129228Y-3418182D01*
X7129222Y-3418193D01*
X7076420Y-3545670D01*
X7076420Y-3545672D01*
X7049500Y-3681004D01*
X3271660Y-3681004D01*
X3246541Y-3655885D01*
X3131817Y-3579228D01*
X3131806Y-3579222D01*
X3004328Y-3526420D01*
X2868995Y-3499500D01*
X2868993Y-3499500D01*
X2731007Y-3499500D01*
X2731004Y-3499500D01*
X2595672Y-3526420D01*
X2595670Y-3526420D01*
X2468193Y-3579222D01*
X2468182Y-3579228D01*
X2353458Y-3655885D01*
X2255885Y-3753458D01*
X2179228Y-3868182D01*
X2179222Y-3868193D01*
X2126420Y-3995670D01*
X2117125Y-4042401D01*
X2087228Y-4095784D01*
X2031662Y-4121400D01*
X1971653Y-4109463D01*
X1930121Y-4064533D01*
X1925459Y-4050188D01*
X1924993Y-4050330D01*
X1923579Y-4045670D01*
X1922934Y-4044114D01*
X1884158Y-3950499D01*
X1870777Y-3918193D01*
X1870771Y-3918182D01*
X1794114Y-3803458D01*
X1696541Y-3705885D01*
X1581817Y-3629228D01*
X1581806Y-3629222D01*
X1454328Y-3576420D01*
X1318995Y-3549500D01*
X1318993Y-3549500D01*
X1181007Y-3549500D01*
X1181004Y-3549500D01*
X1045672Y-3576420D01*
X1045670Y-3576420D01*
X918193Y-3629222D01*
X918182Y-3629228D01*
X803458Y-3705885D01*
X705885Y-3803458D01*
X629228Y-3918182D01*
X629222Y-3918193D01*
X576420Y-4045670D01*
X576420Y-4045672D01*
X549500Y-4181004D01*
X-11373917Y-4181004D01*
X-11379225Y-4168189D01*
X-11379226Y-4168187D01*
X-11379229Y-4168182D01*
X-11455886Y-4053458D01*
X-11553459Y-3955885D01*
X-11668183Y-3879228D01*
X-11668194Y-3879222D01*
X-11795672Y-3826420D01*
X-11931005Y-3799500D01*
X-11931007Y-3799500D01*
X-12068993Y-3799500D01*
X-12068996Y-3799500D01*
X-12204328Y-3826420D01*
X-12204330Y-3826420D01*
X-12331807Y-3879222D01*
X-12331818Y-3879228D01*
X-12446542Y-3955885D01*
X-12544115Y-4053458D01*
X-12620772Y-4168182D01*
X-12620778Y-4168193D01*
X-12673580Y-4295670D01*
X-12673580Y-4295672D01*
X-12700500Y-4431004D01*
X-21599500Y-4431004D01*
X-21599500Y-3431004D01*
X-14450500Y-3431004D01*
X-14450500Y-3568995D01*
X-14423580Y-3704327D01*
X-14423580Y-3704329D01*
X-14370778Y-3831806D01*
X-14370772Y-3831817D01*
X-14294115Y-3946541D01*
X-14196542Y-4044114D01*
X-14081818Y-4120771D01*
X-14081807Y-4120777D01*
X-14034717Y-4140282D01*
X-13954328Y-4173580D01*
X-13818993Y-4200500D01*
X-13818992Y-4200500D01*
X-13681008Y-4200500D01*
X-13681007Y-4200500D01*
X-13545672Y-4173580D01*
X-13418189Y-4120775D01*
X-13303458Y-4044114D01*
X-13205886Y-3946542D01*
X-13129225Y-3831811D01*
X-13076420Y-3704328D01*
X-13049500Y-3568993D01*
X-13049500Y-3431007D01*
X-13076420Y-3295672D01*
X-13123915Y-3181008D01*
X-13129223Y-3168193D01*
X-13129228Y-3168183D01*
X-13131886Y-3164206D01*
X-13131887Y-3164204D01*
X-13131888Y-3164203D01*
X-13165392Y-3114062D01*
X-4383558Y-3114062D01*
X-4383558Y-3252053D01*
X-4356638Y-3387385D01*
X-4356638Y-3387387D01*
X-4303836Y-3514864D01*
X-4303830Y-3514875D01*
X-4227173Y-3629599D01*
X-4129600Y-3727172D01*
X-4014876Y-3803829D01*
X-4014865Y-3803835D01*
X-3978265Y-3818995D01*
X-3887386Y-3856638D01*
X-3752051Y-3883558D01*
X-3752050Y-3883558D01*
X-3614066Y-3883558D01*
X-3614065Y-3883558D01*
X-3478730Y-3856638D01*
X-3351247Y-3803833D01*
X-3236516Y-3727172D01*
X-3138944Y-3629600D01*
X-3062283Y-3514869D01*
X-3009478Y-3387386D01*
X-2982558Y-3252051D01*
X-2982558Y-3114065D01*
X-3009478Y-2978730D01*
X-3062283Y-2851247D01*
X-3062284Y-2851245D01*
X-3062287Y-2851240D01*
X-3138944Y-2736516D01*
X-3236517Y-2638943D01*
X-3351241Y-2562286D01*
X-3351252Y-2562280D01*
X-3478730Y-2509478D01*
X-3614063Y-2482558D01*
X-3614065Y-2482558D01*
X-3752051Y-2482558D01*
X-3752054Y-2482558D01*
X-3887386Y-2509478D01*
X-3887388Y-2509478D01*
X-4014865Y-2562280D01*
X-4014876Y-2562286D01*
X-4129600Y-2638943D01*
X-4227173Y-2736516D01*
X-4303830Y-2851240D01*
X-4303836Y-2851251D01*
X-4356638Y-2978728D01*
X-4356638Y-2978730D01*
X-4383558Y-3114062D01*
X-13165392Y-3114062D01*
X-13205886Y-3053458D01*
X-13303458Y-2955886D01*
X-13303459Y-2955885D01*
X-13418183Y-2879228D01*
X-13418194Y-2879222D01*
X-13545672Y-2826420D01*
X-13681005Y-2799500D01*
X-13681007Y-2799500D01*
X-13818993Y-2799500D01*
X-13818996Y-2799500D01*
X-13954328Y-2826420D01*
X-13954330Y-2826420D01*
X-14081807Y-2879222D01*
X-14081818Y-2879228D01*
X-14196542Y-2955885D01*
X-14294115Y-3053458D01*
X-14370772Y-3168182D01*
X-14370778Y-3168193D01*
X-14423580Y-3295670D01*
X-14423580Y-3295672D01*
X-14450500Y-3431004D01*
X-21599500Y-3431004D01*
X-21599500Y1318996D01*
X-10200500Y1318996D01*
X-10200500Y1181005D01*
X-10173580Y1045673D01*
X-10173580Y1045671D01*
X-10120778Y918194D01*
X-10120772Y918183D01*
X-10044115Y803459D01*
X-9946542Y705886D01*
X-9831818Y629229D01*
X-9831807Y629223D01*
X-9811411Y620775D01*
X-9704328Y576420D01*
X-9568993Y549500D01*
X-9568992Y549500D01*
X-9431008Y549500D01*
X-9431007Y549500D01*
X-9295672Y576420D01*
X-9168189Y629225D01*
X-9053458Y705886D01*
X-8955886Y803458D01*
X-8879225Y918189D01*
X-8826420Y1045672D01*
X-8799500Y1181007D01*
X-8799500Y1318993D01*
X-8826420Y1454328D01*
X-8845338Y1500000D01*
X-8879223Y1581807D01*
X-8879229Y1581818D01*
X-8955886Y1696542D01*
X-9053459Y1794115D01*
X-9168183Y1870772D01*
X-9168194Y1870778D01*
X-9295672Y1923580D01*
X-9431005Y1950500D01*
X-9431007Y1950500D01*
X-9568993Y1950500D01*
X-9568996Y1950500D01*
X-9704328Y1923580D01*
X-9704330Y1923580D01*
X-9831807Y1870778D01*
X-9831818Y1870772D01*
X-9946542Y1794115D01*
X-10044115Y1696542D01*
X-10120772Y1581818D01*
X-10120778Y1581807D01*
X-10173580Y1454330D01*
X-10173580Y1454328D01*
X-10200500Y1318996D01*
X-21599500Y1318996D01*
X-21599500Y2068996D01*
X-2700500Y2068996D01*
X-2700500Y1931005D01*
X-2682554Y1840784D01*
X-2674342Y1799501D01*
X-2673580Y1795673D01*
X-2673580Y1795671D01*
X-2620778Y1668194D01*
X-2620772Y1668182D01*
X-2545146Y1555002D01*
X-2528537Y1496114D01*
X-2545146Y1444998D01*
X-2620772Y1331819D01*
X-2620778Y1331807D01*
X-2673580Y1204330D01*
X-2673580Y1204328D01*
X-2700500Y1068996D01*
X-2700500Y931005D01*
X-2682554Y840784D01*
X-2674342Y799501D01*
X-2673580Y795673D01*
X-2673580Y795671D01*
X-2620778Y668194D01*
X-2620772Y668182D01*
X-2545146Y555002D01*
X-2528537Y496114D01*
X-2545146Y444998D01*
X-2620772Y331819D01*
X-2620778Y331807D01*
X-2673580Y204330D01*
X-2673580Y204328D01*
X-2700500Y68996D01*
X-2700500Y-68995D01*
X-2673580Y-204327D01*
X-2673580Y-204329D01*
X-2620778Y-331806D01*
X-2620772Y-331818D01*
X-2545146Y-444998D01*
X-2528537Y-503886D01*
X-2545146Y-555002D01*
X-2620772Y-668181D01*
X-2620778Y-668193D01*
X-2673580Y-795670D01*
X-2673580Y-795672D01*
X-2700500Y-931004D01*
X-2700500Y-1068995D01*
X-2673580Y-1204327D01*
X-2673580Y-1204329D01*
X-2620778Y-1331806D01*
X-2620772Y-1331818D01*
X-2545146Y-1444998D01*
X-2528537Y-1503886D01*
X-2545146Y-1555002D01*
X-2620772Y-1668181D01*
X-2620778Y-1668193D01*
X-2673580Y-1795670D01*
X-2673580Y-1795672D01*
X-2700500Y-1931004D01*
X-2700500Y-2068995D01*
X-2673580Y-2204327D01*
X-2673580Y-2204329D01*
X-2620778Y-2331806D01*
X-2620772Y-2331817D01*
X-2544115Y-2446541D01*
X-2446542Y-2544114D01*
X-2331818Y-2620771D01*
X-2331807Y-2620777D01*
X-2311411Y-2629225D01*
X-2204328Y-2673580D01*
X-2068993Y-2700500D01*
X-2068992Y-2700500D01*
X-1931008Y-2700500D01*
X-1931007Y-2700500D01*
X-1795672Y-2673580D01*
X-1668189Y-2620775D01*
X-1555001Y-2545144D01*
X-1496114Y-2528536D01*
X-1445000Y-2545144D01*
X-1398197Y-2576417D01*
X-1331818Y-2620771D01*
X-1331807Y-2620777D01*
X-1311411Y-2629225D01*
X-1204328Y-2673580D01*
X-1068993Y-2700500D01*
X-1068992Y-2700500D01*
X-931008Y-2700500D01*
X-931007Y-2700500D01*
X-795672Y-2673580D01*
X-668189Y-2620775D01*
X-555001Y-2545144D01*
X-496114Y-2528536D01*
X-445000Y-2545144D01*
X-398197Y-2576417D01*
X-331818Y-2620771D01*
X-331807Y-2620777D01*
X-311411Y-2629225D01*
X-204328Y-2673580D01*
X-68993Y-2700500D01*
X-68992Y-2700500D01*
X68992Y-2700500D01*
X68993Y-2700500D01*
X204328Y-2673580D01*
X331811Y-2620775D01*
X444999Y-2545144D01*
X503886Y-2528536D01*
X555000Y-2545144D01*
X601803Y-2576417D01*
X668182Y-2620771D01*
X668193Y-2620777D01*
X688589Y-2629225D01*
X795672Y-2673580D01*
X931007Y-2700500D01*
X931008Y-2700500D01*
X1068992Y-2700500D01*
X1068993Y-2700500D01*
X1204328Y-2673580D01*
X1331811Y-2620775D01*
X1444999Y-2545144D01*
X1503886Y-2528536D01*
X1555000Y-2545144D01*
X1601803Y-2576417D01*
X1668182Y-2620771D01*
X1668193Y-2620777D01*
X1688589Y-2629225D01*
X1795672Y-2673580D01*
X1931007Y-2700500D01*
X1931008Y-2700500D01*
X2068992Y-2700500D01*
X2068993Y-2700500D01*
X2204328Y-2673580D01*
X2331811Y-2620775D01*
X2446542Y-2544114D01*
X2544114Y-2446542D01*
X2620775Y-2331811D01*
X2673580Y-2204328D01*
X2700500Y-2068993D01*
X2700500Y-1931007D01*
X2673580Y-1795672D01*
X2626083Y-1681004D01*
X13049500Y-1681004D01*
X13049500Y-1818995D01*
X13076420Y-1954327D01*
X13076420Y-1954329D01*
X13129222Y-2081806D01*
X13129228Y-2081817D01*
X13205885Y-2196541D01*
X13303458Y-2294114D01*
X13418182Y-2370771D01*
X13418193Y-2370777D01*
X13450373Y-2384106D01*
X13545672Y-2423580D01*
X13681007Y-2450500D01*
X13681008Y-2450500D01*
X13818992Y-2450500D01*
X13818993Y-2450500D01*
X13954328Y-2423580D01*
X14081811Y-2370775D01*
X14196542Y-2294114D01*
X14294114Y-2196542D01*
X14370775Y-2081811D01*
X14423580Y-1954328D01*
X14450500Y-1818993D01*
X14450500Y-1681007D01*
X14423580Y-1545672D01*
X14404662Y-1500000D01*
X14370777Y-1418193D01*
X14370771Y-1418182D01*
X14294114Y-1303458D01*
X14196541Y-1205885D01*
X14081817Y-1129228D01*
X14081806Y-1129222D01*
X13954328Y-1076420D01*
X13818995Y-1049500D01*
X13818993Y-1049500D01*
X13681007Y-1049500D01*
X13681004Y-1049500D01*
X13545672Y-1076420D01*
X13545670Y-1076420D01*
X13418193Y-1129222D01*
X13418182Y-1129228D01*
X13303458Y-1205885D01*
X13205885Y-1303458D01*
X13129228Y-1418182D01*
X13129222Y-1418193D01*
X13076420Y-1545670D01*
X13076420Y-1545672D01*
X13049500Y-1681004D01*
X2626083Y-1681004D01*
X2620775Y-1668189D01*
X2620774Y-1668187D01*
X2620771Y-1668182D01*
X2582767Y-1611306D01*
X2545144Y-1555000D01*
X2528536Y-1496114D01*
X2545144Y-1444999D01*
X2620775Y-1331811D01*
X2673580Y-1204328D01*
X2700500Y-1068993D01*
X2700500Y-931007D01*
X2673580Y-795672D01*
X2620775Y-668189D01*
X2620774Y-668187D01*
X2620771Y-668182D01*
X2582767Y-611306D01*
X2545144Y-555000D01*
X2528536Y-496114D01*
X2545144Y-444999D01*
X2620775Y-331811D01*
X2673580Y-204328D01*
X2700500Y-68993D01*
X2700500Y68993D01*
X2700499Y68996D01*
X13049500Y68996D01*
X13049500Y-68995D01*
X13076420Y-204327D01*
X13076420Y-204329D01*
X13129222Y-331806D01*
X13129228Y-331817D01*
X13205885Y-446541D01*
X13303458Y-544114D01*
X13418182Y-620771D01*
X13418193Y-620777D01*
X13465283Y-640282D01*
X13545672Y-673580D01*
X13681007Y-700500D01*
X13681008Y-700500D01*
X13818992Y-700500D01*
X13818993Y-700500D01*
X13954328Y-673580D01*
X14081811Y-620775D01*
X14196542Y-544114D01*
X14294114Y-446542D01*
X14370775Y-331811D01*
X14423580Y-204328D01*
X14450500Y-68993D01*
X14450500Y68993D01*
X14423580Y204328D01*
X14370775Y331811D01*
X14370774Y331813D01*
X14370771Y331818D01*
X14294114Y446542D01*
X14196541Y544115D01*
X14081817Y620772D01*
X14081806Y620778D01*
X13954328Y673580D01*
X13818995Y700500D01*
X13818993Y700500D01*
X13681007Y700500D01*
X13681004Y700500D01*
X13545672Y673580D01*
X13545670Y673580D01*
X13418193Y620778D01*
X13418182Y620772D01*
X13303458Y544115D01*
X13205885Y446542D01*
X13129228Y331818D01*
X13129222Y331807D01*
X13076420Y204330D01*
X13076420Y204328D01*
X13049500Y68996D01*
X2700499Y68996D01*
X2673580Y204328D01*
X2620775Y331811D01*
X2620774Y331813D01*
X2620771Y331818D01*
X2582767Y388694D01*
X2545144Y445000D01*
X2528536Y503886D01*
X2545144Y555001D01*
X2620775Y668189D01*
X2673580Y795672D01*
X2700500Y931007D01*
X2700500Y1068993D01*
X2673580Y1204328D01*
X2626085Y1318992D01*
X2620777Y1331807D01*
X2620771Y1331818D01*
X2582767Y1388694D01*
X2545144Y1445000D01*
X2528536Y1503886D01*
X2545144Y1555001D01*
X2620775Y1668189D01*
X2673580Y1795672D01*
X2700500Y1931007D01*
X2700500Y2068993D01*
X2673580Y2204328D01*
X2646794Y2268996D01*
X6549500Y2268996D01*
X6549500Y2131005D01*
X6576420Y1995673D01*
X6576420Y1995671D01*
X6629222Y1868194D01*
X6629228Y1868183D01*
X6705885Y1753459D01*
X6803458Y1655886D01*
X6918182Y1579229D01*
X6918193Y1579223D01*
X6965283Y1559718D01*
X7045672Y1526420D01*
X7181007Y1499500D01*
X7181008Y1499500D01*
X7318992Y1499500D01*
X7318993Y1499500D01*
X7454328Y1526420D01*
X7557116Y1568996D01*
X11049500Y1568996D01*
X11049500Y1431005D01*
X11076420Y1295673D01*
X11076420Y1295671D01*
X11129222Y1168194D01*
X11129228Y1168183D01*
X11205885Y1053459D01*
X11303458Y955886D01*
X11418182Y879229D01*
X11418193Y879223D01*
X11465283Y859718D01*
X11545672Y826420D01*
X11681007Y799500D01*
X11681008Y799500D01*
X11818992Y799500D01*
X11818993Y799500D01*
X11954328Y826420D01*
X12081811Y879225D01*
X12196542Y955886D01*
X12294114Y1053458D01*
X12370775Y1168189D01*
X12423580Y1295672D01*
X12428219Y1318996D01*
X23049500Y1318996D01*
X23049500Y1181005D01*
X23076420Y1045673D01*
X23076420Y1045671D01*
X23129222Y918194D01*
X23129228Y918183D01*
X23205885Y803459D01*
X23303458Y705886D01*
X23418182Y629229D01*
X23418193Y629223D01*
X23438589Y620775D01*
X23545672Y576420D01*
X23681007Y549500D01*
X23681008Y549500D01*
X23818992Y549500D01*
X23818993Y549500D01*
X23954328Y576420D01*
X24081811Y629225D01*
X24196542Y705886D01*
X24294114Y803458D01*
X24370775Y918189D01*
X24423580Y1045672D01*
X24450500Y1181007D01*
X24450500Y1318993D01*
X24423580Y1454328D01*
X24404662Y1500000D01*
X24370777Y1581807D01*
X24370771Y1581818D01*
X24294114Y1696542D01*
X24196541Y1794115D01*
X24081817Y1870772D01*
X24081806Y1870778D01*
X23954328Y1923580D01*
X23818995Y1950500D01*
X23818993Y1950500D01*
X23681007Y1950500D01*
X23681004Y1950500D01*
X23545672Y1923580D01*
X23545670Y1923580D01*
X23418193Y1870778D01*
X23418182Y1870772D01*
X23303458Y1794115D01*
X23205885Y1696542D01*
X23129228Y1581818D01*
X23129222Y1581807D01*
X23076420Y1454330D01*
X23076420Y1454328D01*
X23049500Y1318996D01*
X12428219Y1318996D01*
X12450500Y1431007D01*
X12450500Y1568993D01*
X12423580Y1704328D01*
X12370775Y1831811D01*
X12370774Y1831813D01*
X12370771Y1831818D01*
X12294114Y1946542D01*
X12196541Y2044115D01*
X12081817Y2120772D01*
X12081806Y2120778D01*
X11954328Y2173580D01*
X11818995Y2200500D01*
X11818993Y2200500D01*
X11681007Y2200500D01*
X11681004Y2200500D01*
X11545672Y2173580D01*
X11545670Y2173580D01*
X11418193Y2120778D01*
X11418182Y2120772D01*
X11303458Y2044115D01*
X11205885Y1946542D01*
X11129228Y1831818D01*
X11129222Y1831807D01*
X11076420Y1704330D01*
X11076420Y1704328D01*
X11049500Y1568996D01*
X7557116Y1568996D01*
X7581811Y1579225D01*
X7696542Y1655886D01*
X7794114Y1753458D01*
X7870775Y1868189D01*
X7923580Y1995672D01*
X7950500Y2131007D01*
X7950500Y2131008D01*
X7950571Y2131364D01*
X7980468Y2184748D01*
X8036033Y2210364D01*
X8096043Y2198427D01*
X8129984Y2167052D01*
X8160904Y2120778D01*
X8205886Y2053458D01*
X8205889Y2053455D01*
X8303458Y1955886D01*
X8418182Y1879229D01*
X8418193Y1879223D01*
X8465283Y1859718D01*
X8545672Y1826420D01*
X8681007Y1799500D01*
X8681008Y1799500D01*
X8818992Y1799500D01*
X8818993Y1799500D01*
X8954328Y1826420D01*
X9081811Y1879225D01*
X9196542Y1955886D01*
X9294114Y2053458D01*
X9370775Y2168189D01*
X9423580Y2295672D01*
X9450500Y2431007D01*
X9450500Y2568993D01*
X9423580Y2704328D01*
X9405978Y2746823D01*
X9370777Y2831807D01*
X9370771Y2831818D01*
X9294114Y2946542D01*
X9196541Y3044115D01*
X9081817Y3120772D01*
X9081806Y3120778D01*
X8954328Y3173580D01*
X8818995Y3200500D01*
X8818993Y3200500D01*
X8681007Y3200500D01*
X8681004Y3200500D01*
X8545672Y3173580D01*
X8545670Y3173580D01*
X8418193Y3120778D01*
X8418182Y3120772D01*
X8303458Y3044115D01*
X8205885Y2946542D01*
X8129228Y2831818D01*
X8129222Y2831807D01*
X8076420Y2704330D01*
X8049428Y2568636D01*
X8019530Y2515252D01*
X7963965Y2489637D01*
X7903956Y2501574D01*
X7870015Y2532949D01*
X7845929Y2568996D01*
X7794114Y2646542D01*
X7696542Y2744114D01*
X7696541Y2744115D01*
X7581817Y2820772D01*
X7581806Y2820778D01*
X7454328Y2873580D01*
X7318995Y2900500D01*
X7318993Y2900500D01*
X7181007Y2900500D01*
X7181004Y2900500D01*
X7045672Y2873580D01*
X7045670Y2873580D01*
X6918193Y2820778D01*
X6918182Y2820772D01*
X6803458Y2744115D01*
X6705885Y2646542D01*
X6629228Y2531818D01*
X6629222Y2531807D01*
X6576420Y2404330D01*
X6576420Y2404328D01*
X6549500Y2268996D01*
X2646794Y2268996D01*
X2635745Y2295671D01*
X2620777Y2331807D01*
X2620771Y2331818D01*
X2544114Y2446542D01*
X2446541Y2544115D01*
X2331817Y2620772D01*
X2331806Y2620778D01*
X2204328Y2673580D01*
X2068995Y2700500D01*
X2068993Y2700500D01*
X1931007Y2700500D01*
X1931004Y2700500D01*
X1795672Y2673580D01*
X1795670Y2673580D01*
X1668193Y2620778D01*
X1668181Y2620772D01*
X1555002Y2545146D01*
X1496114Y2528537D01*
X1444998Y2545146D01*
X1331818Y2620772D01*
X1331806Y2620778D01*
X1204328Y2673580D01*
X1068995Y2700500D01*
X1068993Y2700500D01*
X931007Y2700500D01*
X931004Y2700500D01*
X795672Y2673580D01*
X795670Y2673580D01*
X668193Y2620778D01*
X668181Y2620772D01*
X555002Y2545146D01*
X496114Y2528537D01*
X444998Y2545146D01*
X331818Y2620772D01*
X331806Y2620778D01*
X204328Y2673580D01*
X68995Y2700500D01*
X68993Y2700500D01*
X-68993Y2700500D01*
X-68996Y2700500D01*
X-204328Y2673580D01*
X-204330Y2673580D01*
X-331807Y2620778D01*
X-331819Y2620772D01*
X-444998Y2545146D01*
X-503886Y2528537D01*
X-555002Y2545146D01*
X-668182Y2620772D01*
X-668194Y2620778D01*
X-795672Y2673580D01*
X-931005Y2700500D01*
X-931007Y2700500D01*
X-1068993Y2700500D01*
X-1068996Y2700500D01*
X-1204328Y2673580D01*
X-1204330Y2673580D01*
X-1331807Y2620778D01*
X-1331819Y2620772D01*
X-1444998Y2545146D01*
X-1503886Y2528537D01*
X-1555002Y2545146D01*
X-1668182Y2620772D01*
X-1668194Y2620778D01*
X-1795672Y2673580D01*
X-1931005Y2700500D01*
X-1931007Y2700500D01*
X-2068993Y2700500D01*
X-2068996Y2700500D01*
X-2204328Y2673580D01*
X-2204330Y2673580D01*
X-2331807Y2620778D01*
X-2331818Y2620772D01*
X-2446542Y2544115D01*
X-2544115Y2446542D01*
X-2620772Y2331818D01*
X-2620778Y2331807D01*
X-2673580Y2204330D01*
X-2673580Y2204328D01*
X-2700500Y2068996D01*
X-21599500Y2068996D01*
X-21599500Y3818996D01*
X-9200500Y3818996D01*
X-9200500Y3681005D01*
X-9182554Y3590784D01*
X-9174342Y3549501D01*
X-9173580Y3545673D01*
X-9173580Y3545671D01*
X-9120778Y3418194D01*
X-9120772Y3418183D01*
X-9044115Y3303459D01*
X-8946542Y3205886D01*
X-8831818Y3129229D01*
X-8831807Y3129223D01*
X-8811411Y3120775D01*
X-8704328Y3076420D01*
X-8568993Y3049500D01*
X-8568992Y3049500D01*
X-8431008Y3049500D01*
X-8431007Y3049500D01*
X-8295672Y3076420D01*
X-8168189Y3129225D01*
X-8053458Y3205886D01*
X-7955886Y3303458D01*
X-7879225Y3418189D01*
X-7826420Y3545672D01*
X-7799500Y3681007D01*
X-7799500Y3818993D01*
X-7800057Y3821794D01*
X-7799904Y3823091D01*
X-7799977Y3823837D01*
X-7799814Y3823854D01*
X-7792865Y3882555D01*
X-7751333Y3927485D01*
X-7691323Y3939422D01*
X-7647961Y3923425D01*
X-7596195Y3888836D01*
X-7581813Y3879226D01*
X-7581807Y3879223D01*
X-7534717Y3859718D01*
X-7454328Y3826420D01*
X-7318993Y3799500D01*
X-7318992Y3799500D01*
X-7181008Y3799500D01*
X-7181007Y3799500D01*
X-7045672Y3826420D01*
X-6918189Y3879225D01*
X-6803458Y3955886D01*
X-6705886Y4053458D01*
X-6705880Y4053469D01*
X-6702809Y4057209D01*
X-6701354Y4056015D01*
X-6659284Y4089193D01*
X-6598146Y4091607D01*
X-6547266Y4057625D01*
X-6545209Y4054793D01*
X-6544117Y4053462D01*
X-6544114Y4053458D01*
X-6544111Y4053455D01*
X-6446542Y3955886D01*
X-6331818Y3879229D01*
X-6331807Y3879223D01*
X-6284717Y3859718D01*
X-6204328Y3826420D01*
X-6068993Y3799500D01*
X-6068992Y3799500D01*
X-5931008Y3799500D01*
X-5931007Y3799500D01*
X-5795672Y3826420D01*
X-5668189Y3879225D01*
X-5553458Y3955886D01*
X-5455886Y4053458D01*
X-5379225Y4168189D01*
X-5326420Y4295672D01*
X-5321781Y4318996D01*
X49500Y4318996D01*
X49500Y4181005D01*
X52051Y4168183D01*
X74042Y4057625D01*
X76420Y4045673D01*
X76420Y4045671D01*
X129222Y3918194D01*
X129228Y3918183D01*
X205885Y3803459D01*
X303458Y3705886D01*
X418182Y3629229D01*
X418193Y3629223D01*
X465283Y3609718D01*
X545672Y3576420D01*
X681007Y3549500D01*
X681008Y3549500D01*
X818992Y3549500D01*
X818993Y3549500D01*
X954328Y3576420D01*
X1081811Y3629225D01*
X1196542Y3705886D01*
X1294114Y3803458D01*
X1370775Y3918189D01*
X1423580Y4045672D01*
X1450500Y4181007D01*
X1450500Y4318993D01*
X1450499Y4318996D01*
X11049500Y4318996D01*
X11049500Y4181005D01*
X11052051Y4168183D01*
X11074042Y4057625D01*
X11076420Y4045673D01*
X11076420Y4045671D01*
X11129222Y3918194D01*
X11129228Y3918183D01*
X11205885Y3803459D01*
X11303458Y3705886D01*
X11418182Y3629229D01*
X11418193Y3629223D01*
X11465283Y3609718D01*
X11545672Y3576420D01*
X11681007Y3549500D01*
X11681008Y3549500D01*
X11818992Y3549500D01*
X11818993Y3549500D01*
X11954328Y3576420D01*
X12081811Y3629225D01*
X12196542Y3705886D01*
X12294114Y3803458D01*
X12370775Y3918189D01*
X12423580Y4045672D01*
X12450500Y4181007D01*
X12450500Y4318993D01*
X12423580Y4454328D01*
X12404662Y4500000D01*
X12370777Y4581807D01*
X12370771Y4581818D01*
X12294114Y4696542D01*
X12196541Y4794115D01*
X12081817Y4870772D01*
X12081806Y4870778D01*
X11954328Y4923580D01*
X11818995Y4950500D01*
X11818993Y4950500D01*
X11681007Y4950500D01*
X11681004Y4950500D01*
X11545672Y4923580D01*
X11545670Y4923580D01*
X11418193Y4870778D01*
X11418182Y4870772D01*
X11303458Y4794115D01*
X11205885Y4696542D01*
X11129228Y4581818D01*
X11129222Y4581807D01*
X11076420Y4454330D01*
X11076420Y4454328D01*
X11049500Y4318996D01*
X1450499Y4318996D01*
X1423580Y4454328D01*
X1404662Y4500000D01*
X1370777Y4581807D01*
X1370771Y4581818D01*
X1294114Y4696542D01*
X1196541Y4794115D01*
X1081817Y4870772D01*
X1081806Y4870778D01*
X954328Y4923580D01*
X818995Y4950500D01*
X818993Y4950500D01*
X681007Y4950500D01*
X681004Y4950500D01*
X545672Y4923580D01*
X545670Y4923580D01*
X418193Y4870778D01*
X418182Y4870772D01*
X303458Y4794115D01*
X205885Y4696542D01*
X129228Y4581818D01*
X129222Y4581807D01*
X76420Y4454330D01*
X76420Y4454328D01*
X49500Y4318996D01*
X-5321781Y4318996D01*
X-5299500Y4431007D01*
X-5299500Y4568993D01*
X-5326420Y4704328D01*
X-5371962Y4814277D01*
X-5376763Y4875273D01*
X-5344793Y4927442D01*
X-5335511Y4934470D01*
X-5303458Y4955886D01*
X-5205886Y5053458D01*
X-5129225Y5168189D01*
X-5076420Y5295672D01*
X-5049500Y5431007D01*
X-5049500Y5568993D01*
X-5049501Y5568996D01*
X5799500Y5568996D01*
X5799500Y5431005D01*
X5826420Y5295673D01*
X5826420Y5295671D01*
X5879222Y5168194D01*
X5879228Y5168183D01*
X5955885Y5053459D01*
X6053458Y4955886D01*
X6168182Y4879229D01*
X6168193Y4879223D01*
X6188589Y4870775D01*
X6295672Y4826420D01*
X6431007Y4799500D01*
X6431008Y4799500D01*
X6568992Y4799500D01*
X6568993Y4799500D01*
X6704328Y4826420D01*
X6831811Y4879225D01*
X6946542Y4955886D01*
X7044114Y5053458D01*
X7120775Y5168189D01*
X7173580Y5295672D01*
X7200500Y5431007D01*
X7200500Y5568993D01*
X7173580Y5704328D01*
X7139240Y5787232D01*
X7120777Y5831807D01*
X7120771Y5831818D01*
X7044114Y5946542D01*
X6946541Y6044115D01*
X6831817Y6120772D01*
X6831806Y6120778D01*
X6704328Y6173580D01*
X6568995Y6200500D01*
X6568993Y6200500D01*
X6431007Y6200500D01*
X6431004Y6200500D01*
X6295672Y6173580D01*
X6295670Y6173580D01*
X6168193Y6120778D01*
X6168182Y6120772D01*
X6053458Y6044115D01*
X5955885Y5946542D01*
X5879228Y5831818D01*
X5879222Y5831807D01*
X5826420Y5704330D01*
X5826420Y5704328D01*
X5799500Y5568996D01*
X-5049501Y5568996D01*
X-5071894Y5681571D01*
X-5071957Y5681904D01*
X-5068182Y5711897D01*
X-5064625Y5741947D01*
X-5064365Y5742230D01*
X-5064316Y5742611D01*
X-5043625Y5764666D01*
X-5023093Y5786877D01*
X-5022687Y5786984D01*
X-5022453Y5787232D01*
X-5019757Y5787748D01*
X-4974719Y5799500D01*
X-4931008Y5799500D01*
X-4931007Y5799500D01*
X-4795672Y5826420D01*
X-4668189Y5879225D01*
X-4553458Y5955886D01*
X-4455886Y6053458D01*
X-4379225Y6168189D01*
X-4326420Y6295672D01*
X-4321781Y6318996D01*
X8549500Y6318996D01*
X8549500Y6181005D01*
X8576420Y6045673D01*
X8576420Y6045671D01*
X8629222Y5918194D01*
X8629228Y5918183D01*
X8705885Y5803459D01*
X8803458Y5705886D01*
X8918182Y5629229D01*
X8918193Y5629223D01*
X8938589Y5620775D01*
X9045672Y5576420D01*
X9181007Y5549500D01*
X9181008Y5549500D01*
X9318992Y5549500D01*
X9318993Y5549500D01*
X9454328Y5576420D01*
X9581811Y5629225D01*
X9696542Y5705886D01*
X9794114Y5803458D01*
X9870775Y5918189D01*
X9923580Y6045672D01*
X9950500Y6181007D01*
X9950500Y6318993D01*
X9950499Y6318996D01*
X16299500Y6318996D01*
X16299500Y6181005D01*
X16326420Y6045673D01*
X16326420Y6045671D01*
X16379222Y5918194D01*
X16379228Y5918183D01*
X16455885Y5803459D01*
X16553458Y5705886D01*
X16668182Y5629229D01*
X16668193Y5629223D01*
X16688589Y5620775D01*
X16795672Y5576420D01*
X16931007Y5549500D01*
X16931008Y5549500D01*
X17068992Y5549500D01*
X17068993Y5549500D01*
X17204328Y5576420D01*
X17331811Y5629225D01*
X17446542Y5705886D01*
X17544114Y5803458D01*
X17620775Y5918189D01*
X17673580Y6045672D01*
X17700500Y6181007D01*
X17700500Y6318993D01*
X17673580Y6454328D01*
X17626085Y6568992D01*
X17620777Y6581807D01*
X17620771Y6581818D01*
X17544114Y6696542D01*
X17446541Y6794115D01*
X17331817Y6870772D01*
X17331806Y6870778D01*
X17204328Y6923580D01*
X17068995Y6950500D01*
X17068993Y6950500D01*
X16931007Y6950500D01*
X16931004Y6950500D01*
X16795672Y6923580D01*
X16795670Y6923580D01*
X16668193Y6870778D01*
X16668182Y6870772D01*
X16553458Y6794115D01*
X16455885Y6696542D01*
X16379228Y6581818D01*
X16379222Y6581807D01*
X16326420Y6454330D01*
X16326420Y6454328D01*
X16299500Y6318996D01*
X9950499Y6318996D01*
X9923580Y6454328D01*
X9876085Y6568992D01*
X9870777Y6581807D01*
X9870771Y6581818D01*
X9794114Y6696542D01*
X9696541Y6794115D01*
X9581817Y6870772D01*
X9581806Y6870778D01*
X9454328Y6923580D01*
X9318995Y6950500D01*
X9318993Y6950500D01*
X9181007Y6950500D01*
X9181004Y6950500D01*
X9045672Y6923580D01*
X9045670Y6923580D01*
X8918193Y6870778D01*
X8918182Y6870772D01*
X8803458Y6794115D01*
X8705885Y6696542D01*
X8629228Y6581818D01*
X8629222Y6581807D01*
X8576420Y6454330D01*
X8576420Y6454328D01*
X8549500Y6318996D01*
X-4321781Y6318996D01*
X-4299500Y6431007D01*
X-4299500Y6568993D01*
X-4326420Y6704328D01*
X-4345338Y6750000D01*
X-4379223Y6831807D01*
X-4379229Y6831818D01*
X-4455886Y6946542D01*
X-4553459Y7044115D01*
X-4668183Y7120772D01*
X-4668194Y7120778D01*
X-4795672Y7173580D01*
X-4931005Y7200500D01*
X-4931007Y7200500D01*
X-5068993Y7200500D01*
X-5068996Y7200500D01*
X-5204328Y7173580D01*
X-5204330Y7173580D01*
X-5331807Y7120778D01*
X-5331818Y7120772D01*
X-5446542Y7044115D01*
X-5544115Y6946542D01*
X-5620772Y6831818D01*
X-5620778Y6831807D01*
X-5673580Y6704330D01*
X-5673580Y6704328D01*
X-5700500Y6568996D01*
X-5700500Y6431005D01*
X-5687072Y6363497D01*
X-5678219Y6318992D01*
X-5678183Y6318814D01*
X-5685375Y6258053D01*
X-5726907Y6213123D01*
X-5775281Y6200500D01*
X-5818996Y6200500D01*
X-5954328Y6173580D01*
X-5954330Y6173580D01*
X-6081807Y6120778D01*
X-6081818Y6120772D01*
X-6196542Y6044115D01*
X-6294115Y5946542D01*
X-6370772Y5831818D01*
X-6370778Y5831807D01*
X-6423580Y5704330D01*
X-6423580Y5704328D01*
X-6450500Y5568996D01*
X-6450500Y5431005D01*
X-6423580Y5295673D01*
X-6423580Y5295671D01*
X-6378039Y5185724D01*
X-6373239Y5124727D01*
X-6405208Y5072558D01*
X-6414500Y5065524D01*
X-6446544Y5044113D01*
X-6544111Y4946546D01*
X-6547191Y4942791D01*
X-6548643Y4943983D01*
X-6590738Y4910800D01*
X-6651877Y4908400D01*
X-6702749Y4942395D01*
X-6704798Y4945215D01*
X-6705883Y4946538D01*
X-6705886Y4946542D01*
X-6803458Y5044114D01*
X-6817442Y5053458D01*
X-6918183Y5120772D01*
X-6918194Y5120778D01*
X-7045672Y5173580D01*
X-7181005Y5200500D01*
X-7181007Y5200500D01*
X-7318993Y5200500D01*
X-7318996Y5200500D01*
X-7454328Y5173580D01*
X-7454330Y5173580D01*
X-7581807Y5120778D01*
X-7581818Y5120772D01*
X-7696542Y5044115D01*
X-7794115Y4946542D01*
X-7870772Y4831818D01*
X-7870778Y4831807D01*
X-7923580Y4704330D01*
X-7923580Y4704328D01*
X-7950500Y4568996D01*
X-7950500Y4431000D01*
X-7949942Y4428197D01*
X-7950096Y4426901D01*
X-7950023Y4426163D01*
X-7950185Y4426148D01*
X-7957140Y4367437D01*
X-7998677Y4322511D01*
X-8058688Y4310580D01*
X-8102044Y4326578D01*
X-8109870Y4331807D01*
X-8113464Y4334209D01*
X-8168183Y4370772D01*
X-8168194Y4370778D01*
X-8295672Y4423580D01*
X-8431005Y4450500D01*
X-8431007Y4450500D01*
X-8568993Y4450500D01*
X-8568996Y4450500D01*
X-8704328Y4423580D01*
X-8704330Y4423580D01*
X-8831807Y4370778D01*
X-8831818Y4370772D01*
X-8946542Y4294115D01*
X-9044115Y4196542D01*
X-9120772Y4081818D01*
X-9120778Y4081807D01*
X-9173580Y3954330D01*
X-9173580Y3954328D01*
X-9200500Y3818996D01*
X-21599500Y3818996D01*
X-21599500Y9031522D01*
X-19190500Y9031522D01*
X-19190500Y6968479D01*
X-19190499Y6968477D01*
X-19175648Y6874701D01*
X-19175646Y6874696D01*
X-19118050Y6761658D01*
X-19028342Y6671950D01*
X-18915304Y6614354D01*
X-18821519Y6599500D01*
X-16758482Y6599501D01*
X-16758479Y6599501D01*
X-16758478Y6599502D01*
X-16711589Y6606928D01*
X-16664701Y6614353D01*
X-16664701Y6614354D01*
X-16664696Y6614354D01*
X-16551658Y6671950D01*
X-16461950Y6761658D01*
X-16404354Y6874696D01*
X-16393860Y6940952D01*
X-16366082Y6995469D01*
X-16311566Y7023246D01*
X-16251134Y7013675D01*
X-16226079Y6995472D01*
X-16162365Y6931758D01*
X-15984022Y6802185D01*
X-15787606Y6702105D01*
X-15577951Y6633985D01*
X-15490860Y6620191D01*
X-15360225Y6599500D01*
X-15360222Y6599500D01*
X-15139775Y6599500D01*
X-15030914Y6616743D01*
X-14922049Y6633985D01*
X-14712394Y6702105D01*
X-14515978Y6802185D01*
X-14337635Y6931758D01*
X-14200397Y7068996D01*
X-7950500Y7068996D01*
X-7950500Y6931005D01*
X-7932554Y6840784D01*
X-7924876Y6802185D01*
X-7923580Y6795673D01*
X-7923580Y6795671D01*
X-7870778Y6668194D01*
X-7870772Y6668183D01*
X-7794115Y6553459D01*
X-7696542Y6455886D01*
X-7581818Y6379229D01*
X-7581807Y6379223D01*
X-7534717Y6359718D01*
X-7454328Y6326420D01*
X-7318993Y6299500D01*
X-7318992Y6299500D01*
X-7181008Y6299500D01*
X-7181007Y6299500D01*
X-7045672Y6326420D01*
X-6918189Y6379225D01*
X-6803458Y6455886D01*
X-6705886Y6553458D01*
X-6629225Y6668189D01*
X-6576420Y6795672D01*
X-6549500Y6931007D01*
X-6549500Y7068993D01*
X-6576420Y7204328D01*
X-6623915Y7318992D01*
X-6629223Y7331807D01*
X-6629229Y7331818D01*
X-6705886Y7446542D01*
X-6803459Y7544115D01*
X-6918183Y7620772D01*
X-6918194Y7620778D01*
X-7045672Y7673580D01*
X-7181005Y7700500D01*
X-7181007Y7700500D01*
X-7318993Y7700500D01*
X-7318996Y7700500D01*
X-7454328Y7673580D01*
X-7454330Y7673580D01*
X-7581807Y7620778D01*
X-7581818Y7620772D01*
X-7696542Y7544115D01*
X-7794115Y7446542D01*
X-7870772Y7331818D01*
X-7870778Y7331807D01*
X-7923580Y7204330D01*
X-7923580Y7204328D01*
X-7950500Y7068996D01*
X-14200397Y7068996D01*
X-14181758Y7087635D01*
X-14052185Y7265978D01*
X-13952105Y7462394D01*
X-13883985Y7672049D01*
X-13852510Y7870772D01*
X-13849500Y7889775D01*
X-13849500Y8110226D01*
X-13880883Y8308370D01*
X-13882566Y8318996D01*
X-2200500Y8318996D01*
X-2200500Y8181005D01*
X-2173580Y8045673D01*
X-2173580Y8045671D01*
X-2120778Y7918194D01*
X-2120772Y7918183D01*
X-2044115Y7803459D01*
X-1946542Y7705886D01*
X-1831818Y7629229D01*
X-1831807Y7629223D01*
X-1811411Y7620775D01*
X-1704328Y7576420D01*
X-1568993Y7549500D01*
X-1568992Y7549500D01*
X-1431008Y7549500D01*
X-1431007Y7549500D01*
X-1295672Y7576420D01*
X-1168189Y7629225D01*
X-1053458Y7705886D01*
X-955886Y7803458D01*
X-945504Y7818996D01*
X4049500Y7818996D01*
X4049500Y7681005D01*
X4067446Y7590784D01*
X4075658Y7549501D01*
X4076420Y7545673D01*
X4076420Y7545671D01*
X4129222Y7418194D01*
X4129228Y7418183D01*
X4205885Y7303459D01*
X4303458Y7205886D01*
X4418182Y7129229D01*
X4418193Y7129223D01*
X4438589Y7120775D01*
X4545672Y7076420D01*
X4681007Y7049500D01*
X4681008Y7049500D01*
X4818992Y7049500D01*
X4818993Y7049500D01*
X4954328Y7076420D01*
X5081811Y7129225D01*
X5194999Y7204856D01*
X5253886Y7221464D01*
X5305000Y7204856D01*
X5340689Y7181009D01*
X5418182Y7129229D01*
X5418193Y7129223D01*
X5438589Y7120775D01*
X5545672Y7076420D01*
X5681007Y7049500D01*
X5681008Y7049500D01*
X5818992Y7049500D01*
X5818993Y7049500D01*
X5954328Y7076420D01*
X6081811Y7129225D01*
X6196542Y7205886D01*
X6294114Y7303458D01*
X6304496Y7318996D01*
X19799500Y7318996D01*
X19799500Y7181005D01*
X19817446Y7090784D01*
X19825658Y7049501D01*
X19826420Y7045673D01*
X19826420Y7045671D01*
X19879222Y6918194D01*
X19879228Y6918182D01*
X19954854Y6805002D01*
X19971463Y6746114D01*
X19954854Y6694998D01*
X19879228Y6581819D01*
X19879222Y6581807D01*
X19826420Y6454330D01*
X19826420Y6454328D01*
X19799500Y6318996D01*
X19799500Y6181005D01*
X19826420Y6045673D01*
X19826420Y6045671D01*
X19879222Y5918194D01*
X19879228Y5918183D01*
X19955885Y5803459D01*
X19955886Y5803458D01*
X20053458Y5705886D01*
X20053462Y5705883D01*
X20057209Y5702809D01*
X20056017Y5701358D01*
X20089200Y5659262D01*
X20091600Y5598123D01*
X20057605Y5547251D01*
X20054785Y5545203D01*
X20053454Y5544111D01*
X19955885Y5446542D01*
X19879228Y5331818D01*
X19879222Y5331807D01*
X19826420Y5204330D01*
X19826420Y5204328D01*
X19799500Y5068996D01*
X19799500Y4931005D01*
X19817446Y4840784D01*
X19825658Y4799501D01*
X19826420Y4795673D01*
X19826420Y4795671D01*
X19879222Y4668194D01*
X19879228Y4668182D01*
X19954854Y4555002D01*
X19971463Y4496114D01*
X19954854Y4444998D01*
X19879228Y4331819D01*
X19879222Y4331807D01*
X19826420Y4204330D01*
X19826420Y4204328D01*
X19799500Y4068996D01*
X19799500Y3931005D01*
X19817446Y3840784D01*
X19825658Y3799501D01*
X19826420Y3795673D01*
X19826420Y3795671D01*
X19879222Y3668194D01*
X19879228Y3668183D01*
X19955885Y3553459D01*
X20053458Y3455886D01*
X20168182Y3379229D01*
X20168193Y3379223D01*
X20215283Y3359718D01*
X20295672Y3326420D01*
X20431007Y3299500D01*
X20431008Y3299500D01*
X20568992Y3299500D01*
X20568993Y3299500D01*
X20704328Y3326420D01*
X20831811Y3379225D01*
X20946542Y3455886D01*
X21044114Y3553458D01*
X21120775Y3668189D01*
X21173580Y3795672D01*
X21200500Y3931007D01*
X21200500Y4068993D01*
X21173580Y4204328D01*
X21126085Y4318992D01*
X21120777Y4331807D01*
X21120771Y4331818D01*
X21082767Y4388694D01*
X21045144Y4445000D01*
X21028536Y4503886D01*
X21045144Y4555001D01*
X21120775Y4668189D01*
X21173580Y4795672D01*
X21200500Y4931007D01*
X21200500Y5068993D01*
X21173580Y5204328D01*
X21120775Y5331811D01*
X21120774Y5331813D01*
X21120771Y5331818D01*
X21044114Y5446542D01*
X20946545Y5544111D01*
X20946542Y5544114D01*
X20946538Y5544117D01*
X20942791Y5547191D01*
X20943985Y5548647D01*
X20910807Y5590716D01*
X20908393Y5651854D01*
X20942375Y5702734D01*
X20945207Y5704792D01*
X20946531Y5705880D01*
X20946542Y5705886D01*
X21044114Y5803458D01*
X21120775Y5918189D01*
X21173580Y6045672D01*
X21200500Y6181007D01*
X21200500Y6318993D01*
X21173580Y6454328D01*
X21126085Y6568992D01*
X21120777Y6581807D01*
X21120771Y6581818D01*
X21063059Y6668189D01*
X21045144Y6695000D01*
X21028536Y6753886D01*
X21045144Y6805001D01*
X21120775Y6918189D01*
X21173580Y7045672D01*
X21200500Y7181007D01*
X21200500Y7318993D01*
X21173580Y7454328D01*
X21120775Y7581811D01*
X21120774Y7581813D01*
X21120771Y7581818D01*
X21044114Y7696542D01*
X20946541Y7794115D01*
X20831817Y7870772D01*
X20831806Y7870778D01*
X20704328Y7923580D01*
X20568995Y7950500D01*
X20568993Y7950500D01*
X20431007Y7950500D01*
X20431004Y7950500D01*
X20295672Y7923580D01*
X20295670Y7923580D01*
X20168193Y7870778D01*
X20168182Y7870772D01*
X20053458Y7794115D01*
X19955885Y7696542D01*
X19879228Y7581818D01*
X19879222Y7581807D01*
X19826420Y7454330D01*
X19826420Y7454328D01*
X19799500Y7318996D01*
X6304496Y7318996D01*
X6322134Y7345393D01*
X6344496Y7378859D01*
X6370771Y7418182D01*
X6370777Y7418194D01*
X6389088Y7462401D01*
X6423580Y7545672D01*
X6450500Y7681007D01*
X6450500Y7818993D01*
X6423580Y7954328D01*
X6370775Y8081811D01*
X6370774Y8081813D01*
X6370771Y8081818D01*
X6294114Y8196542D01*
X6196541Y8294115D01*
X6081817Y8370772D01*
X6081806Y8370778D01*
X5954328Y8423580D01*
X5818995Y8450500D01*
X5818993Y8450500D01*
X5681007Y8450500D01*
X5681004Y8450500D01*
X5545672Y8423580D01*
X5545670Y8423580D01*
X5418193Y8370778D01*
X5418181Y8370772D01*
X5305002Y8295146D01*
X5246114Y8278537D01*
X5194998Y8295146D01*
X5081818Y8370772D01*
X5081806Y8370778D01*
X4954328Y8423580D01*
X4818995Y8450500D01*
X4818993Y8450500D01*
X4681007Y8450500D01*
X4681004Y8450500D01*
X4545672Y8423580D01*
X4545670Y8423580D01*
X4418193Y8370778D01*
X4418182Y8370772D01*
X4303458Y8294115D01*
X4205885Y8196542D01*
X4129228Y8081818D01*
X4129222Y8081807D01*
X4076420Y7954330D01*
X4076420Y7954328D01*
X4049500Y7818996D01*
X-945504Y7818996D01*
X-910904Y7870778D01*
X-905504Y7878859D01*
X-879229Y7918182D01*
X-879223Y7918194D01*
X-876992Y7923580D01*
X-826420Y8045672D01*
X-799500Y8181007D01*
X-799500Y8318993D01*
X-826420Y8454328D01*
X-879225Y8581811D01*
X-879226Y8581813D01*
X-879229Y8581818D01*
X-955886Y8696542D01*
X-1053459Y8794115D01*
X-1168183Y8870772D01*
X-1168194Y8870778D01*
X-1295672Y8923580D01*
X-1431005Y8950500D01*
X-1431007Y8950500D01*
X-1568993Y8950500D01*
X-1568996Y8950500D01*
X-1704328Y8923580D01*
X-1704330Y8923580D01*
X-1831807Y8870778D01*
X-1831818Y8870772D01*
X-1946542Y8794115D01*
X-2044115Y8696542D01*
X-2120772Y8581818D01*
X-2120778Y8581807D01*
X-2173580Y8454330D01*
X-2173580Y8454328D01*
X-2200500Y8318996D01*
X-13882566Y8318996D01*
X-13883985Y8327950D01*
X-13952103Y8537600D01*
X-13952104Y8537601D01*
X-13952105Y8537606D01*
X-14052185Y8734022D01*
X-14181758Y8912365D01*
X-14337635Y9068242D01*
X-14515978Y9197815D01*
X-14515979Y9197816D01*
X-14515981Y9197817D01*
X-14605175Y9243264D01*
X-14712394Y9297895D01*
X-14712398Y9297896D01*
X-14712401Y9297898D01*
X-14922052Y9366016D01*
X-15139775Y9400500D01*
X-15139778Y9400500D01*
X-15360222Y9400500D01*
X-15360225Y9400500D01*
X-15577949Y9366016D01*
X-15787600Y9297898D01*
X-15984020Y9197817D01*
X-16062209Y9141009D01*
X-16162365Y9068242D01*
X-16162367Y9068241D01*
X-16162370Y9068238D01*
X-16226077Y9004531D01*
X-16280594Y8976754D01*
X-16341026Y8986326D01*
X-16384290Y9029591D01*
X-16393861Y9059050D01*
X-16404353Y9125300D01*
X-16404354Y9125302D01*
X-16404354Y9125304D01*
X-16461950Y9238342D01*
X-16551658Y9328050D01*
X-16664696Y9385646D01*
X-16664695Y9385646D01*
X-16758479Y9400500D01*
X-18821522Y9400500D01*
X-18821524Y9400499D01*
X-18915300Y9385648D01*
X-18915305Y9385646D01*
X-19028341Y9328051D01*
X-19118051Y9238341D01*
X-19175646Y9125305D01*
X-19190500Y9031522D01*
X-21599500Y9031522D01*
X-21599500Y9568996D01*
X-3700500Y9568996D01*
X-3700500Y9431005D01*
X-3687572Y9366015D01*
X-3674342Y9299501D01*
X-3673580Y9295673D01*
X-3673580Y9295671D01*
X-3620778Y9168194D01*
X-3620772Y9168183D01*
X-3544115Y9053459D01*
X-3446542Y8955886D01*
X-3331818Y8879229D01*
X-3331807Y8879223D01*
X-3311411Y8870775D01*
X-3204328Y8826420D01*
X-3068993Y8799500D01*
X-3068992Y8799500D01*
X-2931008Y8799500D01*
X-2931007Y8799500D01*
X-2795672Y8826420D01*
X-2668189Y8879225D01*
X-2553458Y8955886D01*
X-2455886Y9053458D01*
X-2379225Y9168189D01*
X-2333327Y9278996D01*
X8549500Y9278996D01*
X8549500Y9141005D01*
X8576420Y9005673D01*
X8576420Y9005671D01*
X8629222Y8878194D01*
X8629228Y8878183D01*
X8705885Y8763459D01*
X8803458Y8665886D01*
X8918182Y8589229D01*
X8918193Y8589223D01*
X8949103Y8576420D01*
X9045672Y8536420D01*
X9181007Y8509500D01*
X9181008Y8509500D01*
X9318992Y8509500D01*
X9318993Y8509500D01*
X9454328Y8536420D01*
X9581811Y8589225D01*
X9696542Y8665886D01*
X9794114Y8763458D01*
X9870775Y8878189D01*
X9923580Y9005672D01*
X9950500Y9141007D01*
X9950500Y9278993D01*
X9942543Y9318993D01*
X9942542Y9318996D01*
X16299500Y9318996D01*
X16299500Y9181005D01*
X16326420Y9045673D01*
X16326420Y9045671D01*
X16379222Y8918194D01*
X16379228Y8918183D01*
X16455885Y8803459D01*
X16553458Y8705886D01*
X16668182Y8629229D01*
X16668193Y8629223D01*
X16715283Y8609718D01*
X16795672Y8576420D01*
X16931007Y8549500D01*
X16931008Y8549500D01*
X17068992Y8549500D01*
X17068993Y8549500D01*
X17204328Y8576420D01*
X17331811Y8629225D01*
X17446542Y8705886D01*
X17544114Y8803458D01*
X17620775Y8918189D01*
X17673580Y9045672D01*
X17700500Y9181007D01*
X17700500Y9318993D01*
X17673580Y9454328D01*
X17646011Y9520886D01*
X17620777Y9581807D01*
X17620771Y9581818D01*
X17544114Y9696542D01*
X17446541Y9794115D01*
X17331817Y9870772D01*
X17331806Y9870778D01*
X17204328Y9923580D01*
X17068995Y9950500D01*
X17068993Y9950500D01*
X16931007Y9950500D01*
X16931004Y9950500D01*
X16795672Y9923580D01*
X16795670Y9923580D01*
X16668193Y9870778D01*
X16668182Y9870772D01*
X16553458Y9794115D01*
X16455885Y9696542D01*
X16379228Y9581818D01*
X16379222Y9581807D01*
X16326420Y9454330D01*
X16326420Y9454328D01*
X16299500Y9318996D01*
X9942542Y9318996D01*
X9933190Y9366015D01*
X9923580Y9414328D01*
X9882482Y9513548D01*
X9870777Y9541807D01*
X9870771Y9541818D01*
X9794114Y9656542D01*
X9696541Y9754115D01*
X9581817Y9830772D01*
X9581806Y9830778D01*
X9454328Y9883580D01*
X9318995Y9910500D01*
X9318993Y9910500D01*
X9181007Y9910500D01*
X9181004Y9910500D01*
X9045672Y9883580D01*
X9045670Y9883580D01*
X8918193Y9830778D01*
X8918182Y9830772D01*
X8803458Y9754115D01*
X8705885Y9656542D01*
X8629228Y9541818D01*
X8629222Y9541807D01*
X8576420Y9414330D01*
X8576420Y9414328D01*
X8549500Y9278996D01*
X-2333327Y9278996D01*
X-2326420Y9295672D01*
X-2325977Y9297898D01*
X-2325254Y9301532D01*
X-2325253Y9301543D01*
X-2299500Y9431007D01*
X-2299500Y9458565D01*
X-2298195Y9466522D01*
X-2287675Y9486893D01*
X-2280593Y9508691D01*
X-2273910Y9513548D01*
X-2270119Y9520886D01*
X-2249642Y9531179D01*
X-2231093Y9544655D01*
X-2219030Y9546566D01*
X-2215451Y9548364D01*
X-2211630Y9547738D01*
X-2200500Y9549500D01*
X-2181008Y9549500D01*
X-2181007Y9549500D01*
X-2045672Y9576420D01*
X-1918189Y9629225D01*
X-1803458Y9705886D01*
X-1705886Y9803458D01*
X-1629225Y9918189D01*
X-1576420Y10045672D01*
X-1549500Y10181007D01*
X-1549500Y10318993D01*
X-1549501Y10318996D01*
X3799500Y10318996D01*
X3799500Y10181005D01*
X3826420Y10045673D01*
X3826420Y10045671D01*
X3879222Y9918194D01*
X3879228Y9918183D01*
X3955885Y9803459D01*
X4053458Y9705886D01*
X4168182Y9629229D01*
X4168193Y9629223D01*
X4215283Y9609718D01*
X4295672Y9576420D01*
X4431007Y9549500D01*
X4431008Y9549500D01*
X4568992Y9549500D01*
X4568993Y9549500D01*
X4704328Y9576420D01*
X4831811Y9629225D01*
X4946542Y9705886D01*
X5044114Y9803458D01*
X5120775Y9918189D01*
X5173580Y10045672D01*
X5178219Y10068996D01*
X19799500Y10068996D01*
X19799500Y9931005D01*
X19826420Y9795673D01*
X19826420Y9795671D01*
X19879222Y9668194D01*
X19879228Y9668183D01*
X19955885Y9553459D01*
X20053458Y9455886D01*
X20168182Y9379229D01*
X20168193Y9379223D01*
X20200078Y9366016D01*
X20295672Y9326420D01*
X20431007Y9299500D01*
X20431008Y9299500D01*
X20568992Y9299500D01*
X20568993Y9299500D01*
X20704328Y9326420D01*
X20831811Y9379225D01*
X20946542Y9455886D01*
X21044114Y9553458D01*
X21120775Y9668189D01*
X21173580Y9795672D01*
X21200500Y9931007D01*
X21200500Y10068993D01*
X21173580Y10204328D01*
X21126085Y10318992D01*
X21120777Y10331807D01*
X21120771Y10331818D01*
X21044114Y10446542D01*
X20946541Y10544115D01*
X20831817Y10620772D01*
X20831806Y10620778D01*
X20704328Y10673580D01*
X20568995Y10700500D01*
X20568993Y10700500D01*
X20431007Y10700500D01*
X20431004Y10700500D01*
X20295672Y10673580D01*
X20295670Y10673580D01*
X20168193Y10620778D01*
X20168182Y10620772D01*
X20053458Y10544115D01*
X19955885Y10446542D01*
X19879228Y10331818D01*
X19879222Y10331807D01*
X19826420Y10204330D01*
X19826420Y10204328D01*
X19799500Y10068996D01*
X5178219Y10068996D01*
X5200500Y10181007D01*
X5200500Y10318993D01*
X5173580Y10454328D01*
X5120775Y10581811D01*
X5120774Y10581813D01*
X5120771Y10581818D01*
X5044114Y10696542D01*
X4946541Y10794115D01*
X4831817Y10870772D01*
X4831806Y10870778D01*
X4704328Y10923580D01*
X4568995Y10950500D01*
X4568993Y10950500D01*
X4431007Y10950500D01*
X4431004Y10950500D01*
X4295672Y10923580D01*
X4295670Y10923580D01*
X4168193Y10870778D01*
X4168182Y10870772D01*
X4053458Y10794115D01*
X3955885Y10696542D01*
X3879228Y10581818D01*
X3879222Y10581807D01*
X3826420Y10454330D01*
X3826420Y10454328D01*
X3799500Y10318996D01*
X-1549501Y10318996D01*
X-1576420Y10454328D01*
X-1629225Y10581811D01*
X-1629226Y10581813D01*
X-1629229Y10581818D01*
X-1705886Y10696542D01*
X-1803459Y10794115D01*
X-1918183Y10870772D01*
X-1918194Y10870778D01*
X-2045672Y10923580D01*
X-2181005Y10950500D01*
X-2181007Y10950500D01*
X-2318993Y10950500D01*
X-2318996Y10950500D01*
X-2454328Y10923580D01*
X-2454330Y10923580D01*
X-2581807Y10870778D01*
X-2581818Y10870772D01*
X-2696542Y10794115D01*
X-2794115Y10696542D01*
X-2870772Y10581818D01*
X-2870778Y10581807D01*
X-2923580Y10454330D01*
X-2923580Y10454328D01*
X-2950500Y10318996D01*
X-2950500Y10299500D01*
X-2969407Y10241309D01*
X-3018907Y10205345D01*
X-3049500Y10200500D01*
X-3068996Y10200500D01*
X-3204328Y10173580D01*
X-3204330Y10173580D01*
X-3331807Y10120778D01*
X-3331818Y10120772D01*
X-3446542Y10044115D01*
X-3544115Y9946542D01*
X-3620772Y9831818D01*
X-3620778Y9831807D01*
X-3673580Y9704330D01*
X-3673580Y9704328D01*
X-3700500Y9568996D01*
X-21599500Y9568996D01*
X-21599500Y12496760D01*
X-21599288Y12503235D01*
X-21596609Y12544114D01*
X-21593050Y12598421D01*
X-20750500Y12598421D01*
X-20750500Y12401580D01*
X-20719711Y12207179D01*
X-20658884Y12019975D01*
X-20656021Y12014355D01*
X-20569524Y11844595D01*
X-20453828Y11685354D01*
X-20314646Y11546172D01*
X-20155405Y11430476D01*
X-19980025Y11341116D01*
X-19792826Y11280291D01*
X-19792825Y11280291D01*
X-19792822Y11280290D01*
X-19598420Y11249500D01*
X-19598417Y11249500D01*
X-19401580Y11249500D01*
X-19207179Y11280290D01*
X-19207178Y11280291D01*
X-19207174Y11280291D01*
X-19019975Y11341116D01*
X-18844595Y11430476D01*
X-18685354Y11546172D01*
X-18546172Y11685354D01*
X-18430476Y11844595D01*
X-18341116Y12019975D01*
X-18341115Y12019980D01*
X-18341113Y12019982D01*
X-18325187Y12068996D01*
X-1950500Y12068996D01*
X-1950500Y11931005D01*
X-1923580Y11795673D01*
X-1923580Y11795671D01*
X-1870778Y11668194D01*
X-1870772Y11668183D01*
X-1794115Y11553459D01*
X-1696542Y11455886D01*
X-1581818Y11379229D01*
X-1581807Y11379223D01*
X-1534717Y11359718D01*
X-1454328Y11326420D01*
X-1318993Y11299500D01*
X-1318992Y11299500D01*
X-1181008Y11299500D01*
X-1181007Y11299500D01*
X-1045672Y11326420D01*
X-918189Y11379225D01*
X-803458Y11455886D01*
X-705886Y11553458D01*
X-629225Y11668189D01*
X-576420Y11795672D01*
X-549500Y11931007D01*
X-549500Y12068993D01*
X-576420Y12204328D01*
X-629225Y12331811D01*
X-629226Y12331813D01*
X-629229Y12331818D01*
X-705886Y12446542D01*
X-803459Y12544115D01*
X-918183Y12620772D01*
X-918194Y12620778D01*
X-1045672Y12673580D01*
X-1181005Y12700500D01*
X-1181007Y12700500D01*
X-1318993Y12700500D01*
X-1318996Y12700500D01*
X-1454328Y12673580D01*
X-1454330Y12673580D01*
X-1581807Y12620778D01*
X-1581818Y12620772D01*
X-1696542Y12544115D01*
X-1794115Y12446542D01*
X-1870772Y12331818D01*
X-1870778Y12331807D01*
X-1923580Y12204330D01*
X-1923580Y12204328D01*
X-1950500Y12068996D01*
X-18325187Y12068996D01*
X-18313668Y12104447D01*
X-18313668Y12104449D01*
X-18295080Y12161658D01*
X-18280291Y12207174D01*
X-18260551Y12331811D01*
X-18249500Y12401580D01*
X-18249500Y12598421D01*
X-18280290Y12792822D01*
X-18285833Y12809881D01*
X-18341116Y12980025D01*
X-18430476Y13155405D01*
X-18479709Y13223168D01*
X-18479709Y13223169D01*
X-18518454Y13276496D01*
X-10850500Y13276496D01*
X-10850500Y13138505D01*
X-10823580Y13003173D01*
X-10823580Y13003171D01*
X-10770778Y12875694D01*
X-10770772Y12875683D01*
X-10694115Y12760959D01*
X-10596542Y12663386D01*
X-10481818Y12586729D01*
X-10481807Y12586723D01*
X-10434717Y12567218D01*
X-10354328Y12533920D01*
X-10218993Y12507000D01*
X-10218992Y12507000D01*
X-10081008Y12507000D01*
X-10081007Y12507000D01*
X-9945672Y12533920D01*
X-9818189Y12586725D01*
X-9703458Y12663386D01*
X-9605886Y12760958D01*
X-9529225Y12875689D01*
X-9476420Y13003172D01*
X-9449500Y13138507D01*
X-9449500Y13276493D01*
X-9449501Y13276496D01*
X-4050500Y13276496D01*
X-4050500Y13138505D01*
X-4023580Y13003173D01*
X-4023580Y13003171D01*
X-3970778Y12875694D01*
X-3970772Y12875683D01*
X-3894115Y12760959D01*
X-3796542Y12663386D01*
X-3681818Y12586729D01*
X-3681807Y12586723D01*
X-3634717Y12567218D01*
X-3554328Y12533920D01*
X-3418993Y12507000D01*
X-3418992Y12507000D01*
X-3281008Y12507000D01*
X-3281007Y12507000D01*
X-3145672Y12533920D01*
X-3018189Y12586725D01*
X-2903458Y12663386D01*
X-2805886Y12760958D01*
X-2729225Y12875689D01*
X-2676420Y13003172D01*
X-2649500Y13138507D01*
X-2649500Y13276493D01*
X-2676420Y13411828D01*
X-2729225Y13539311D01*
X-2729226Y13539312D01*
X-2729229Y13539318D01*
X-2749059Y13568996D01*
X-200500Y13568996D01*
X-200500Y13431005D01*
X-196685Y13411828D01*
X-173904Y13297299D01*
X-173580Y13295673D01*
X-173580Y13295671D01*
X-120778Y13168194D01*
X-120772Y13168183D01*
X-44115Y13053459D01*
X53458Y12955886D01*
X168182Y12879229D01*
X168193Y12879223D01*
X215283Y12859718D01*
X295672Y12826420D01*
X431007Y12799500D01*
X431008Y12799500D01*
X568992Y12799500D01*
X568993Y12799500D01*
X704328Y12826420D01*
X831811Y12879225D01*
X946542Y12955886D01*
X1044114Y13053458D01*
X1120775Y13168189D01*
X1173580Y13295672D01*
X1200500Y13431007D01*
X1200500Y13568993D01*
X1200499Y13568996D01*
X2799500Y13568996D01*
X2799500Y13431005D01*
X2803315Y13411828D01*
X2826096Y13297299D01*
X2826420Y13295673D01*
X2826420Y13295671D01*
X2879222Y13168194D01*
X2879228Y13168183D01*
X2955885Y13053459D01*
X3053458Y12955886D01*
X3168182Y12879229D01*
X3168193Y12879223D01*
X3215283Y12859718D01*
X3295672Y12826420D01*
X3431007Y12799500D01*
X3431008Y12799500D01*
X3568992Y12799500D01*
X3568993Y12799500D01*
X3704328Y12826420D01*
X3831811Y12879225D01*
X3946542Y12955886D01*
X4044114Y13053458D01*
X4120775Y13168189D01*
X4173580Y13295672D01*
X4200500Y13431007D01*
X4200500Y13568993D01*
X4173580Y13704328D01*
X4122240Y13828275D01*
X4120777Y13831807D01*
X4120771Y13831818D01*
X4044114Y13946542D01*
X3946541Y14044115D01*
X3831817Y14120772D01*
X3831806Y14120778D01*
X3704328Y14173580D01*
X3568995Y14200500D01*
X3568993Y14200500D01*
X3431007Y14200500D01*
X3431004Y14200500D01*
X3295672Y14173580D01*
X3295670Y14173580D01*
X3168193Y14120778D01*
X3168182Y14120772D01*
X3053458Y14044115D01*
X2955885Y13946542D01*
X2879228Y13831818D01*
X2879222Y13831807D01*
X2826420Y13704330D01*
X2826420Y13704328D01*
X2799500Y13568996D01*
X1200499Y13568996D01*
X1173580Y13704328D01*
X1122240Y13828275D01*
X1120777Y13831807D01*
X1120771Y13831818D01*
X1044114Y13946542D01*
X946541Y14044115D01*
X831817Y14120772D01*
X831806Y14120778D01*
X704328Y14173580D01*
X568995Y14200500D01*
X568993Y14200500D01*
X431007Y14200500D01*
X431004Y14200500D01*
X295672Y14173580D01*
X295670Y14173580D01*
X168193Y14120778D01*
X168182Y14120772D01*
X53458Y14044115D01*
X-44115Y13946542D01*
X-120772Y13831818D01*
X-120778Y13831807D01*
X-173580Y13704330D01*
X-173580Y13704328D01*
X-200500Y13568996D01*
X-2749059Y13568996D01*
X-2805886Y13654042D01*
X-2903459Y13751615D01*
X-3018183Y13828272D01*
X-3018194Y13828278D01*
X-3145672Y13881080D01*
X-3281005Y13908000D01*
X-3281007Y13908000D01*
X-3418993Y13908000D01*
X-3418996Y13908000D01*
X-3554328Y13881080D01*
X-3554330Y13881080D01*
X-3681807Y13828278D01*
X-3681818Y13828272D01*
X-3796542Y13751615D01*
X-3894115Y13654042D01*
X-3970772Y13539318D01*
X-3970778Y13539307D01*
X-4023580Y13411830D01*
X-4023580Y13411828D01*
X-4050500Y13276496D01*
X-9449501Y13276496D01*
X-9476420Y13411828D01*
X-9497325Y13462297D01*
X-9529223Y13539307D01*
X-9529229Y13539318D01*
X-9605886Y13654042D01*
X-9703459Y13751615D01*
X-9818183Y13828272D01*
X-9818194Y13828278D01*
X-9945672Y13881080D01*
X-10081005Y13908000D01*
X-10081007Y13908000D01*
X-10218993Y13908000D01*
X-10218996Y13908000D01*
X-10354328Y13881080D01*
X-10354330Y13881080D01*
X-10481807Y13828278D01*
X-10481818Y13828272D01*
X-10596542Y13751615D01*
X-10694115Y13654042D01*
X-10770772Y13539318D01*
X-10770778Y13539307D01*
X-10823580Y13411830D01*
X-10823580Y13411828D01*
X-10850500Y13276496D01*
X-18518454Y13276496D01*
X-18546168Y13314641D01*
X-18546170Y13314643D01*
X-18546172Y13314646D01*
X-18685354Y13453828D01*
X-18844595Y13569524D01*
X-18844596Y13569525D01*
X-18844598Y13569526D01*
X-19019975Y13658884D01*
X-19207179Y13719711D01*
X-19401580Y13750500D01*
X-19401583Y13750500D01*
X-19598417Y13750500D01*
X-19598420Y13750500D01*
X-19792822Y13719711D01*
X-19980026Y13658884D01*
X-20155403Y13569526D01*
X-20314645Y13453829D01*
X-20453829Y13314645D01*
X-20569526Y13155403D01*
X-20658884Y12980026D01*
X-20719711Y12792822D01*
X-20750500Y12598421D01*
X-21593050Y12598421D01*
X-21581963Y12767571D01*
X-21580273Y12780402D01*
X-21529224Y13037045D01*
X-21525879Y13049526D01*
X-21441767Y13297314D01*
X-21436822Y13309250D01*
X-21321089Y13543934D01*
X-21314617Y13555143D01*
X-21305363Y13568992D01*
X-21169240Y13772715D01*
X-21161375Y13782965D01*
X-20988841Y13979703D01*
X-20979703Y13988841D01*
X-20782965Y14161375D01*
X-20772715Y14169240D01*
X-20555138Y14314621D01*
X-20543934Y14321089D01*
X-20309250Y14436822D01*
X-20297314Y14441767D01*
X-20049526Y14525879D01*
X-20037045Y14529224D01*
X-19780395Y14580274D01*
X-19767571Y14581963D01*
X-19503234Y14599288D01*
X-19496759Y14599500D01*
X-19442417Y14599500D01*
X6784101Y14599500D01*
X6842292Y14580593D01*
G37*
%TD.AperFunction*%
%TA.AperFunction,Conductor*%
G36*
X14880739Y14580593D02*
G01*
X14916703Y14531093D01*
X14916703Y14469907D01*
X14880739Y14420407D01*
X14867494Y14412291D01*
X14852451Y14404627D01*
X14852442Y14404622D01*
X14798282Y14365272D01*
X15389756Y13773799D01*
X15347703Y13762530D01*
X15222285Y13690119D01*
X15119881Y13587715D01*
X15047470Y13462297D01*
X15036201Y13420244D01*
X14444728Y14011718D01*
X14405378Y13957558D01*
X14405370Y13957544D01*
X14322373Y13794653D01*
X14279109Y13751388D01*
X14218677Y13741817D01*
X14164160Y13769595D01*
X14145954Y13794654D01*
X14089527Y13905400D01*
X14089526Y13905402D01*
X14089524Y13905405D01*
X13973828Y14064646D01*
X13834646Y14203828D01*
X13675405Y14319524D01*
X13675404Y14319525D01*
X13675402Y14319526D01*
X13500019Y14408887D01*
X13499657Y14409037D01*
X13499556Y14409123D01*
X13496559Y14410650D01*
X13496925Y14411370D01*
X13453132Y14448775D01*
X13438850Y14508270D01*
X13462267Y14564797D01*
X13514437Y14596765D01*
X13537545Y14599500D01*
X14822548Y14599500D01*
X14880739Y14580593D01*
G37*
%TD.AperFunction*%
%TD*%
M02*
