%TF.GenerationSoftware,KiCad,Pcbnew,9.0.3-9.0.3-0~ubuntu22.04.1*%
%TF.CreationDate,2025-09-08T10:32:46+08:00*%
%TF.ProjectId,pdtrigger,70647472-6967-4676-9572-2e6b69636164,rev?*%
%TF.SameCoordinates,Original*%
%TF.FileFunction,Copper,L1,Top*%
%TF.FilePolarity,Positive*%
%FSLAX46Y46*%
G04 Gerber Fmt 4.6, Leading zero omitted, Abs format (unit mm)*
G04 Created by KiCad (PCBNEW 9.0.3-9.0.3-0~ubuntu22.04.1) date 2025-09-08 10:32:46*
%MOMM*%
%LPD*%
G01*
G04 APERTURE LIST*
G04 Aperture macros list*
%AMRoundRect*
0 Rectangle with rounded corners*
0 $1 Rounding radius*
0 $2 $3 $4 $5 $6 $7 $8 $9 X,Y pos of 4 corners*
0 Add a 4 corners polygon primitive as box body*
4,1,4,$2,$3,$4,$5,$6,$7,$8,$9,$2,$3,0*
0 Add four circle primitives for the rounded corners*
1,1,$1+$1,$2,$3*
1,1,$1+$1,$4,$5*
1,1,$1+$1,$6,$7*
1,1,$1+$1,$8,$9*
0 Add four rect primitives between the rounded corners*
20,1,$1+$1,$2,$3,$4,$5,0*
20,1,$1+$1,$4,$5,$6,$7,0*
20,1,$1+$1,$6,$7,$8,$9,0*
20,1,$1+$1,$8,$9,$2,$3,0*%
G04 Aperture macros list end*
%TA.AperFunction,ComponentPad*%
%ADD10C,2.200000*%
%TD*%
%TA.AperFunction,SMDPad,CuDef*%
%ADD11RoundRect,0.075000X-0.350000X0.075000X-0.350000X-0.075000X0.350000X-0.075000X0.350000X0.075000X0*%
%TD*%
%TA.AperFunction,SMDPad,CuDef*%
%ADD12RoundRect,0.075000X0.350000X-0.075000X0.350000X0.075000X-0.350000X0.075000X-0.350000X-0.075000X0*%
%TD*%
%TA.AperFunction,ComponentPad*%
%ADD13O,1.800000X1.200000*%
%TD*%
%TA.AperFunction,ComponentPad*%
%ADD14O,2.000000X1.100000*%
%TD*%
%TA.AperFunction,SMDPad,CuDef*%
%ADD15R,1.100000X0.550000*%
%TD*%
%TA.AperFunction,SMDPad,CuDef*%
%ADD16R,1.100000X0.300000*%
%TD*%
%TA.AperFunction,SMDPad,CuDef*%
%ADD17RoundRect,0.250000X0.350000X-1.100000X0.350000X1.100000X-0.350000X1.100000X-0.350000X-1.100000X0*%
%TD*%
%TA.AperFunction,ComponentPad*%
%ADD18C,1.500000*%
%TD*%
%TA.AperFunction,ComponentPad*%
%ADD19R,2.000000X2.000000*%
%TD*%
%TA.AperFunction,ComponentPad*%
%ADD20C,2.000000*%
%TD*%
%TA.AperFunction,SMDPad,CuDef*%
%ADD21RoundRect,0.250000X1.000000X-0.900000X1.000000X0.900000X-1.000000X0.900000X-1.000000X-0.900000X0*%
%TD*%
%TA.AperFunction,SMDPad,CuDef*%
%ADD22R,1.230000X1.360000*%
%TD*%
%TA.AperFunction,SMDPad,CuDef*%
%ADD23RoundRect,0.135000X-0.185000X0.135000X-0.185000X-0.135000X0.185000X-0.135000X0.185000X0.135000X0*%
%TD*%
%TA.AperFunction,SMDPad,CuDef*%
%ADD24RoundRect,0.200000X-0.275000X0.200000X-0.275000X-0.200000X0.275000X-0.200000X0.275000X0.200000X0*%
%TD*%
%TA.AperFunction,SMDPad,CuDef*%
%ADD25RoundRect,0.243750X0.243750X0.456250X-0.243750X0.456250X-0.243750X-0.456250X0.243750X-0.456250X0*%
%TD*%
%TA.AperFunction,SMDPad,CuDef*%
%ADD26RoundRect,0.140000X-0.170000X0.140000X-0.170000X-0.140000X0.170000X-0.140000X0.170000X0.140000X0*%
%TD*%
%TA.AperFunction,ComponentPad*%
%ADD27R,1.700000X1.700000*%
%TD*%
%TA.AperFunction,ComponentPad*%
%ADD28C,1.700000*%
%TD*%
%TA.AperFunction,SMDPad,CuDef*%
%ADD29O,1.890000X0.570000*%
%TD*%
%TA.AperFunction,SMDPad,CuDef*%
%ADD30RoundRect,0.200000X0.275000X-0.200000X0.275000X0.200000X-0.275000X0.200000X-0.275000X-0.200000X0*%
%TD*%
%TA.AperFunction,SMDPad,CuDef*%
%ADD31RoundRect,0.175000X-0.450000X-0.175000X0.450000X-0.175000X0.450000X0.175000X-0.450000X0.175000X0*%
%TD*%
%TA.AperFunction,SMDPad,CuDef*%
%ADD32RoundRect,0.070000X0.260000X0.070000X-0.260000X0.070000X-0.260000X-0.070000X0.260000X-0.070000X0*%
%TD*%
%TA.AperFunction,SMDPad,CuDef*%
%ADD33RoundRect,0.070000X0.070000X0.260000X-0.070000X0.260000X-0.070000X-0.260000X0.070000X-0.260000X0*%
%TD*%
%TA.AperFunction,SMDPad,CuDef*%
%ADD34R,2.800000X2.800000*%
%TD*%
%TA.AperFunction,SMDPad,CuDef*%
%ADD35RoundRect,0.140000X-0.140000X-0.170000X0.140000X-0.170000X0.140000X0.170000X-0.140000X0.170000X0*%
%TD*%
%TA.AperFunction,SMDPad,CuDef*%
%ADD36O,1.220000X0.360000*%
%TD*%
%TA.AperFunction,SMDPad,CuDef*%
%ADD37RoundRect,0.075000X-0.700000X0.075000X-0.700000X-0.075000X0.700000X-0.075000X0.700000X0.075000X0*%
%TD*%
%TA.AperFunction,SMDPad,CuDef*%
%ADD38RoundRect,0.075000X-0.075000X0.700000X-0.075000X-0.700000X0.075000X-0.700000X0.075000X0.700000X0*%
%TD*%
%TA.AperFunction,SMDPad,CuDef*%
%ADD39RoundRect,0.243750X0.456250X-0.243750X0.456250X0.243750X-0.456250X0.243750X-0.456250X-0.243750X0*%
%TD*%
%TA.AperFunction,SMDPad,CuDef*%
%ADD40RoundRect,0.250000X0.475000X-0.250000X0.475000X0.250000X-0.475000X0.250000X-0.475000X-0.250000X0*%
%TD*%
%TA.AperFunction,SMDPad,CuDef*%
%ADD41RoundRect,0.140000X0.170000X-0.140000X0.170000X0.140000X-0.170000X0.140000X-0.170000X-0.140000X0*%
%TD*%
%TA.AperFunction,SMDPad,CuDef*%
%ADD42RoundRect,0.250000X0.250000X0.475000X-0.250000X0.475000X-0.250000X-0.475000X0.250000X-0.475000X0*%
%TD*%
%TA.AperFunction,SMDPad,CuDef*%
%ADD43RoundRect,0.200000X0.200000X0.275000X-0.200000X0.275000X-0.200000X-0.275000X0.200000X-0.275000X0*%
%TD*%
%TA.AperFunction,SMDPad,CuDef*%
%ADD44RoundRect,0.200000X-0.200000X-0.275000X0.200000X-0.275000X0.200000X0.275000X-0.200000X0.275000X0*%
%TD*%
%TA.AperFunction,SMDPad,CuDef*%
%ADD45RoundRect,0.250000X-0.475000X0.250000X-0.475000X-0.250000X0.475000X-0.250000X0.475000X0.250000X0*%
%TD*%
%TA.AperFunction,SMDPad,CuDef*%
%ADD46RoundRect,0.140000X0.140000X0.170000X-0.140000X0.170000X-0.140000X-0.170000X0.140000X-0.170000X0*%
%TD*%
%TA.AperFunction,SMDPad,CuDef*%
%ADD47RoundRect,0.243750X-0.456250X0.243750X-0.456250X-0.243750X0.456250X-0.243750X0.456250X0.243750X0*%
%TD*%
%TA.AperFunction,SMDPad,CuDef*%
%ADD48R,1.400000X1.200000*%
%TD*%
%TA.AperFunction,ViaPad*%
%ADD49C,0.500000*%
%TD*%
%TA.AperFunction,ViaPad*%
%ADD50C,0.600000*%
%TD*%
%TA.AperFunction,ViaPad*%
%ADD51C,1.000000*%
%TD*%
%TA.AperFunction,Conductor*%
%ADD52C,0.250000*%
%TD*%
%TA.AperFunction,Conductor*%
%ADD53C,0.200000*%
%TD*%
%TA.AperFunction,Conductor*%
%ADD54C,0.500000*%
%TD*%
%TA.AperFunction,Conductor*%
%ADD55C,0.400000*%
%TD*%
G04 APERTURE END LIST*
D10*
%TO.P,U3,1,1*%
%TO.N,/V_BUS_OUT*%
X30000000Y-19500000D03*
%TO.P,U3,2,2*%
%TO.N,GND*%
X30000000Y-14500000D03*
%TD*%
D11*
%TO.P,D9,1,I/O1*%
%TO.N,/CC2*%
X-12940000Y-10500000D03*
%TO.P,D9,2,GND*%
%TO.N,GND*%
X-12940000Y-11000000D03*
%TO.P,D9,3,I/O2*%
%TO.N,/CC1*%
X-12940000Y-11500000D03*
%TO.P,D9,4,I/O2*%
X-11500000Y-11500000D03*
%TO.P,D9,5,VBUS*%
%TO.N,/VBUS*%
X-11500000Y-11000000D03*
%TO.P,D9,6,I/O1*%
%TO.N,/CC2*%
X-11500000Y-10500000D03*
%TD*%
D12*
%TO.P,D8,6,I/O1*%
%TO.N,/USB_D+*%
X-12720000Y-17000000D03*
%TO.P,D8,5,VBUS*%
%TO.N,unconnected-(D8-VBUS-Pad5)*%
X-12720000Y-16500000D03*
%TO.P,D8,4,I/O2*%
%TO.N,/USB_D-*%
X-12720000Y-16000000D03*
%TO.P,D8,3,I/O2*%
X-11280000Y-16000000D03*
%TO.P,D8,2,GND*%
%TO.N,GND*%
X-11280000Y-16500000D03*
%TO.P,D8,1,I/O1*%
%TO.N,/USB_D+*%
X-11280000Y-17000000D03*
%TD*%
D13*
%TO.P,J2,S1,SHIELD*%
%TO.N,GND*%
X-19680000Y-21320000D03*
D14*
X-15470000Y-21320000D03*
D13*
X-19680000Y-12680000D03*
D14*
X-15470000Y-12680000D03*
D15*
%TO.P,J2,B12,GND*%
X-14920000Y-20200000D03*
%TO.P,J2,B9,VBUS*%
%TO.N,/VBUS*%
X-14920000Y-19400000D03*
D16*
%TO.P,J2,B8,SBU2*%
%TO.N,unconnected-(J2-SBU2-PadB8)*%
X-14920000Y-15250000D03*
%TO.P,J2,B7,D-*%
%TO.N,/USB_D-*%
X-14920000Y-17250000D03*
%TO.P,J2,B6,D+*%
%TO.N,/USB_D+*%
X-14920000Y-17750000D03*
%TO.P,J2,B5,CC2*%
%TO.N,/CC2*%
X-14920000Y-18750000D03*
D15*
%TO.P,J2,B4,VBUS*%
%TO.N,/VBUS*%
X-14920000Y-19400000D03*
%TO.P,J2,B1,GND*%
%TO.N,GND*%
X-14920000Y-20200000D03*
%TO.P,J2,A12,GND*%
X-14920000Y-13800000D03*
%TO.P,J2,A9,VBUS*%
%TO.N,/VBUS*%
X-14920000Y-14600000D03*
D16*
%TO.P,J2,A8,SBU1*%
%TO.N,unconnected-(J2-SBU1-PadA8)*%
X-14920000Y-18250000D03*
%TO.P,J2,A7,D-*%
%TO.N,/USB_D-*%
X-14920000Y-16250000D03*
%TO.P,J2,A6,D+*%
%TO.N,/USB_D+*%
X-14920000Y-16750000D03*
%TO.P,J2,A5,CC1*%
%TO.N,/CC1*%
X-14920000Y-15750000D03*
D15*
%TO.P,J2,A4,VBUS*%
%TO.N,/VBUS*%
X-14920000Y-14600000D03*
%TO.P,J2,A1,GND*%
%TO.N,GND*%
X-14920000Y-13800000D03*
%TD*%
D17*
%TO.P,SW1,3,C*%
%TO.N,GND*%
X-4250000Y9797500D03*
%TO.P,SW1,2,B*%
%TO.N,/SW_BOOT0*%
X-6750000Y9797500D03*
%TO.P,SW1,1,A*%
%TO.N,+3V3_MCU*%
X-9250000Y9797500D03*
%TD*%
D18*
%TO.P,TP3,1,1*%
%TO.N,/VBUS*%
X-14500000Y-35500000D03*
%TD*%
%TO.P,TP3,1,1*%
%TO.N,GND*%
X26500000Y-35500000D03*
%TD*%
%TO.P,TP3,1,1*%
%TO.N,/V_BUS_OUT*%
X31500000Y-30250000D03*
%TD*%
D19*
%TO.P,J3,1,Pin_1*%
%TO.N,/UART_TX*%
X-17790000Y8000000D03*
D20*
%TO.P,J3,2,Pin_2*%
%TO.N,/UART_RX*%
X-15250000Y8000000D03*
%TD*%
D21*
%TO.P,L1,1,1*%
%TO.N,/LX*%
X28500000Y-1200000D03*
%TO.P,L1,2,2*%
%TO.N,+3V3_MCU*%
X28500000Y5700000D03*
%TD*%
D22*
%TO.P,SW2,1,1*%
%TO.N,GND*%
X20180000Y-7750000D03*
%TO.P,SW2,2,2*%
%TO.N,/MODE_BTN*%
X15820000Y-7750000D03*
%TD*%
D23*
%TO.P,R32,1*%
%TO.N,/LED_PDO5*%
X14500000Y-23250000D03*
%TO.P,R32,2*%
%TO.N,Net-(D7-A)*%
X14500000Y-24270000D03*
%TD*%
%TO.P,R31,1*%
%TO.N,/LED_PDO4*%
X14500000Y-20490000D03*
%TO.P,R31,2*%
%TO.N,Net-(D6-A)*%
X14500000Y-21510000D03*
%TD*%
%TO.P,R30,1*%
%TO.N,/LED_PDO3*%
X14500000Y-17750000D03*
%TO.P,R30,2*%
%TO.N,Net-(D5-A)*%
X14500000Y-18770000D03*
%TD*%
%TO.P,R29,1*%
%TO.N,/LED_PDO2*%
X14500000Y-14990000D03*
%TO.P,R29,2*%
%TO.N,Net-(D4-A)*%
X14500000Y-16010000D03*
%TD*%
%TO.P,R28,1*%
%TO.N,/LED_PDO1*%
X14500000Y-12230000D03*
%TO.P,R28,2*%
%TO.N,Net-(D3-A)*%
X14500000Y-13250000D03*
%TD*%
D24*
%TO.P,R27,1*%
%TO.N,+3V3_MCU*%
X14250000Y-6100000D03*
%TO.P,R27,2*%
%TO.N,/MODE_BTN*%
X14250000Y-7750000D03*
%TD*%
D25*
%TO.P,D7,1,K*%
%TO.N,GND*%
X17687500Y-23750000D03*
%TO.P,D7,2,A*%
%TO.N,Net-(D7-A)*%
X15812500Y-23750000D03*
%TD*%
%TO.P,D6,1,K*%
%TO.N,GND*%
X17687500Y-21000000D03*
%TO.P,D6,2,A*%
%TO.N,Net-(D6-A)*%
X15812500Y-21000000D03*
%TD*%
%TO.P,D5,1,K*%
%TO.N,GND*%
X17687500Y-18250000D03*
%TO.P,D5,2,A*%
%TO.N,Net-(D5-A)*%
X15812500Y-18250000D03*
%TD*%
%TO.P,D4,1,K*%
%TO.N,GND*%
X17687500Y-15500000D03*
%TO.P,D4,2,A*%
%TO.N,Net-(D4-A)*%
X15812500Y-15500000D03*
%TD*%
%TO.P,D3,1,K*%
%TO.N,GND*%
X17687500Y-12750000D03*
%TO.P,D3,2,A*%
%TO.N,Net-(D3-A)*%
X15812500Y-12750000D03*
%TD*%
D26*
%TO.P,C26,1*%
%TO.N,/MODE_BTN*%
X14500000Y-9040000D03*
%TO.P,C26,2*%
%TO.N,GND*%
X14500000Y-10000000D03*
%TD*%
D27*
%TO.P,J1,1,Pin_1*%
%TO.N,GND*%
X7940000Y13250000D03*
D28*
%TO.P,J1,2,Pin_2*%
%TO.N,/SWCLK*%
X10480000Y13250000D03*
%TO.P,J1,3,Pin_3*%
%TO.N,/SWDIO*%
X13020000Y13250000D03*
%TO.P,J1,4,Pin_4*%
%TO.N,+3V3_MCU*%
X15560000Y13250000D03*
%TD*%
D24*
%TO.P,R13,2*%
%TO.N,/I2C3_SCL*%
X-5250000Y-11825000D03*
%TO.P,R13,1*%
%TO.N,+3V3_MCU*%
X-5250000Y-10175000D03*
%TD*%
D29*
%TO.P,Q1,8,D1*%
%TO.N,/VBUS*%
X-6550000Y-23840000D03*
%TO.P,Q1,7,D1*%
X-6550000Y-25120000D03*
%TO.P,Q1,6,D2*%
%TO.N,/V_BUS_OUT*%
X-6550000Y-26380000D03*
%TO.P,Q1,5,D2*%
X-6550000Y-27650000D03*
%TO.P,Q1,4,G2*%
%TO.N,Net-(Q1-G1)*%
X-11950000Y-27650000D03*
%TO.P,Q1,3,S2*%
%TO.N,/LOAD_SOURCE*%
X-11950000Y-26380000D03*
%TO.P,Q1,2,G1*%
%TO.N,Net-(Q1-G1)*%
X-11950000Y-25120000D03*
%TO.P,Q1,1,S1*%
%TO.N,/LOAD_SOURCE*%
X-11950000Y-23840000D03*
%TD*%
D30*
%TO.P,R1,2*%
%TO.N,Net-(D1-A)*%
X-11250000Y75000D03*
%TO.P,R1,1*%
%TO.N,/STATUS_LED*%
X-11250000Y-1575000D03*
%TD*%
D24*
%TO.P,R12,2*%
%TO.N,Net-(D2-A)*%
X-11250000Y2862500D03*
%TO.P,R12,1*%
%TO.N,+3V3_MCU*%
X-11250000Y4512500D03*
%TD*%
D31*
%TO.P,Q3,1,D*%
%TO.N,Net-(D2-K)*%
X-10500000Y6000000D03*
%TO.P,Q3,2,G*%
%TO.N,/PD_FAULT*%
X-8500000Y5050000D03*
%TO.P,Q3,3,S*%
%TO.N,GND*%
X-8500000Y6950000D03*
%TD*%
D24*
%TO.P,R19,2*%
%TO.N,/PD_FLIP*%
X-1500000Y-11825000D03*
%TO.P,R19,1*%
%TO.N,+3V3_MCU*%
X-1500000Y-10175000D03*
%TD*%
%TO.P,R14,2*%
%TO.N,/I2C3_SDA*%
X-3000000Y-11825000D03*
%TO.P,R14,1*%
%TO.N,+3V3_MCU*%
X-3000000Y-10175000D03*
%TD*%
D23*
%TO.P,R2,1*%
%TO.N,/SW_BOOT0*%
X-6000000Y7510000D03*
%TO.P,R2,2*%
%TO.N,/BOOT0*%
X-6000000Y6490000D03*
%TD*%
D32*
%TO.P,U2,1,VBUS_MIN*%
%TO.N,/VBUS_MIN*%
X1970000Y-18250000D03*
%TO.P,U2,2,VBUS_MAX*%
%TO.N,/VBUS_MAX*%
X1970000Y-17750000D03*
%TO.P,U2,3,VBUS_FET_EN*%
%TO.N,/VBUS_FET_EN*%
X1970000Y-17250000D03*
%TO.P,U2,4,SAFE_PWR_EN*%
%TO.N,/SAFE_PWR_EN*%
X1970000Y-16750000D03*
%TO.P,U2,5,ISNK_COARSE*%
%TO.N,/ISINK_COAR*%
X1970000Y-16250000D03*
%TO.P,U2,6,ISNK_FINE*%
%TO.N,/ISINK_FINE*%
X1970000Y-15750000D03*
D33*
%TO.P,U2,7,HPI_INT*%
%TO.N,/PD_INT*%
X1250000Y-15030000D03*
%TO.P,U2,8,GPIO_1*%
%TO.N,/PD_GPIO*%
X750000Y-15030000D03*
%TO.P,U2,9,FAULT*%
%TO.N,/PD_FAULT*%
X250000Y-15030000D03*
%TO.P,U2,10,FLIP*%
%TO.N,/PD_FLIP*%
X-250000Y-15030000D03*
%TO.P,U2,11,VDC_OUT*%
%TO.N,/V_BUS_OUT*%
X-750000Y-15030000D03*
%TO.P,U2,12,HPI_SDA*%
%TO.N,/I2C3_SDA*%
X-1250000Y-15030000D03*
D32*
%TO.P,U2,13,HPI_SCL*%
%TO.N,/I2C3_SCL*%
X-1970000Y-15750000D03*
%TO.P,U2,14,CC2*%
%TO.N,/CC2*%
X-1970000Y-16250000D03*
%TO.P,U2,15,CC1*%
%TO.N,/CC1*%
X-1970000Y-16750000D03*
%TO.P,U2,16,D-*%
%TO.N,unconnected-(U2-D--Pad16)*%
X-1970000Y-17250000D03*
%TO.P,U2,17,D+*%
%TO.N,unconnected-(U2-D+-Pad17)*%
X-1970000Y-17750000D03*
%TO.P,U2,18,VBUS_IN*%
%TO.N,/VBUS*%
X-1970000Y-18250000D03*
D33*
%TO.P,U2,19,GND*%
%TO.N,GND*%
X-1250000Y-18970000D03*
%TO.P,U2,20,DNU1*%
%TO.N,unconnected-(U2-DNU1-Pad20)*%
X-750000Y-18970000D03*
%TO.P,U2,21,DNU2*%
%TO.N,unconnected-(U2-DNU2-Pad21)*%
X-250000Y-18970000D03*
%TO.P,U2,22,GND*%
%TO.N,GND*%
X250000Y-18970000D03*
%TO.P,U2,23,VDDD*%
%TO.N,+3V3*%
X750000Y-18970000D03*
%TO.P,U2,24,VCCD*%
%TO.N,/PDC_VCCD*%
X1250000Y-18970000D03*
D34*
%TO.P,U2,25,EPAD*%
%TO.N,GND*%
X0Y-17000000D03*
%TD*%
D35*
%TO.P,C3,2*%
%TO.N,GND*%
X-1520000Y7400000D03*
%TO.P,C3,1*%
%TO.N,+3V3_MCU*%
X-2480000Y7400000D03*
%TD*%
%TO.P,C10,2*%
%TO.N,GND*%
X3230000Y7400000D03*
%TO.P,C10,1*%
%TO.N,/HSE_IN*%
X2270000Y7400000D03*
%TD*%
D36*
%TO.P,U4,1,FB*%
%TO.N,/BUCK_FB*%
X19790000Y980000D03*
%TO.P,U4,2,FS*%
%TO.N,/BUCK_FS*%
X19790000Y330000D03*
%TO.P,U4,3,GND*%
%TO.N,GND*%
X19790000Y-320000D03*
%TO.P,U4,4,GND*%
X19790000Y-980000D03*
%TO.P,U4,5,IN*%
%TO.N,/VBUS*%
X22210000Y-980000D03*
%TO.P,U4,6,LX*%
%TO.N,/LX*%
X22210000Y-320000D03*
%TO.P,U4,7,BS*%
%TO.N,Net-(U4-BS)*%
X22210000Y330000D03*
%TO.P,U4,8,EN*%
%TO.N,Net-(U4-EN)*%
X22210000Y980000D03*
%TD*%
D37*
%TO.P,U1,64,VDD*%
%TO.N,+3V3_MCU*%
X5675000Y3750000D03*
%TO.P,U1,63,VSS*%
%TO.N,GND*%
X5675000Y3250000D03*
%TO.P,U1,62,PB9*%
%TO.N,unconnected-(U1-PB9-Pad62)*%
X5675000Y2750000D03*
%TO.P,U1,61,PB8*%
%TO.N,unconnected-(U1-PB8-Pad61)*%
X5675000Y2250000D03*
%TO.P,U1,60,BOOT0*%
%TO.N,/BOOT0*%
X5675000Y1750000D03*
%TO.P,U1,59,PB7*%
%TO.N,/MODE_BTN*%
X5675000Y1250000D03*
%TO.P,U1,58,PB6*%
%TO.N,/LED_PDO1*%
X5675000Y750000D03*
%TO.P,U1,57,PB5*%
%TO.N,/LED_PDO2*%
X5675000Y250000D03*
%TO.P,U1,56,PB4*%
%TO.N,/LED_PDO3*%
X5675000Y-250000D03*
%TO.P,U1,55,PB3*%
%TO.N,/LED_PDO4*%
X5675000Y-750000D03*
%TO.P,U1,54,PD2*%
%TO.N,/LED_PDO5*%
X5675000Y-1250000D03*
%TO.P,U1,53,PC12*%
%TO.N,/PD_SAFE*%
X5675000Y-1750000D03*
%TO.P,U1,52,PC11*%
%TO.N,/PD_INT*%
X5675000Y-2250000D03*
%TO.P,U1,51,PC10*%
%TO.N,unconnected-(U1-PC10-Pad51)*%
X5675000Y-2750000D03*
%TO.P,U1,50,PA15*%
%TO.N,/PD_GPIO*%
X5675000Y-3250000D03*
%TO.P,U1,49,PA14*%
%TO.N,/SWCLK*%
X5675000Y-3750000D03*
D38*
%TO.P,U1,48,VDD*%
%TO.N,+3V3_MCU*%
X3750000Y-5675000D03*
%TO.P,U1,47,VSS*%
%TO.N,GND*%
X3250000Y-5675000D03*
%TO.P,U1,46,PA13*%
%TO.N,/SWDIO*%
X2750000Y-5675000D03*
%TO.P,U1,45,PA12*%
%TO.N,/USB_D+*%
X2250000Y-5675000D03*
%TO.P,U1,44,PA11*%
%TO.N,/USB_D-*%
X1750000Y-5675000D03*
%TO.P,U1,43,PA10*%
%TO.N,/PD_FAULT*%
X1250000Y-5675000D03*
%TO.P,U1,42,PA9*%
%TO.N,/PD_FLIP*%
X750000Y-5675000D03*
%TO.P,U1,41,PA8*%
%TO.N,/I2C3_SCL*%
X250000Y-5675000D03*
%TO.P,U1,40,PC9*%
%TO.N,/I2C3_SDA*%
X-250000Y-5675000D03*
%TO.P,U1,39,PC8*%
%TO.N,unconnected-(U1-PC8-Pad39)*%
X-750000Y-5675000D03*
%TO.P,U1,38,PC7*%
%TO.N,unconnected-(U1-PC7-Pad38)*%
X-1250000Y-5675000D03*
%TO.P,U1,37,PC6*%
%TO.N,unconnected-(U1-PC6-Pad37)*%
X-1750000Y-5675000D03*
%TO.P,U1,36,PB15*%
%TO.N,unconnected-(U1-PB15-Pad36)*%
X-2250000Y-5675000D03*
%TO.P,U1,35,PB14*%
%TO.N,unconnected-(U1-PB14-Pad35)*%
X-2750000Y-5675000D03*
%TO.P,U1,34,PB13*%
%TO.N,unconnected-(U1-PB13-Pad34)*%
X-3250000Y-5675000D03*
%TO.P,U1,33,PB12*%
%TO.N,unconnected-(U1-PB12-Pad33)*%
X-3750000Y-5675000D03*
D37*
%TO.P,U1,32,VDD*%
%TO.N,+3V3_MCU*%
X-5675000Y-3750000D03*
%TO.P,U1,31,VSS*%
%TO.N,GND*%
X-5675000Y-3250000D03*
%TO.P,U1,30,VCAP1*%
%TO.N,/VCAP1*%
X-5675000Y-2750000D03*
%TO.P,U1,29,PB10*%
%TO.N,unconnected-(U1-PB10-Pad29)*%
X-5675000Y-2250000D03*
%TO.P,U1,28,PB2*%
%TO.N,unconnected-(U1-PB2-Pad28)*%
X-5675000Y-1750000D03*
%TO.P,U1,27,PB1*%
%TO.N,unconnected-(U1-PB1-Pad27)*%
X-5675000Y-1250000D03*
%TO.P,U1,26,PB0*%
%TO.N,/STATUS_LED*%
X-5675000Y-750000D03*
%TO.P,U1,25,PC5*%
%TO.N,unconnected-(U1-PC5-Pad25)*%
X-5675000Y-250000D03*
%TO.P,U1,24,PC4*%
%TO.N,unconnected-(U1-PC4-Pad24)*%
X-5675000Y250000D03*
%TO.P,U1,23,PA7*%
%TO.N,unconnected-(U1-PA7-Pad23)*%
X-5675000Y750000D03*
%TO.P,U1,22,PA6*%
%TO.N,unconnected-(U1-PA6-Pad22)*%
X-5675000Y1250000D03*
%TO.P,U1,21,PA5*%
%TO.N,unconnected-(U1-PA5-Pad21)*%
X-5675000Y1750000D03*
%TO.P,U1,20,PA4*%
%TO.N,unconnected-(U1-PA4-Pad20)*%
X-5675000Y2250000D03*
%TO.P,U1,19,VDD*%
%TO.N,+3V3_MCU*%
X-5675000Y2750000D03*
%TO.P,U1,18,VSS*%
%TO.N,GND*%
X-5675000Y3250000D03*
%TO.P,U1,17,PA3*%
%TO.N,/UART_RX*%
X-5675000Y3750000D03*
D38*
%TO.P,U1,16,PA2*%
%TO.N,/UART_TX*%
X-3750000Y5675000D03*
%TO.P,U1,15,PA1*%
%TO.N,unconnected-(U1-PA1-Pad15)*%
X-3250000Y5675000D03*
%TO.P,U1,14,PA0*%
%TO.N,unconnected-(U1-PA0-Pad14)*%
X-2750000Y5675000D03*
%TO.P,U1,13,VREF+*%
%TO.N,+3V3_MCU*%
X-2250000Y5675000D03*
%TO.P,U1,12,VSSA*%
%TO.N,GND*%
X-1750000Y5675000D03*
%TO.P,U1,11,PC3*%
%TO.N,unconnected-(U1-PC3-Pad11)*%
X-1250000Y5675000D03*
%TO.P,U1,10,PC2*%
%TO.N,unconnected-(U1-PC2-Pad10)*%
X-750000Y5675000D03*
%TO.P,U1,9,PC1*%
%TO.N,unconnected-(U1-PC1-Pad9)*%
X-250000Y5675000D03*
%TO.P,U1,8,PC0*%
%TO.N,unconnected-(U1-PC0-Pad8)*%
X250000Y5675000D03*
%TO.P,U1,7,NRST*%
%TO.N,/NRST*%
X750000Y5675000D03*
%TO.P,U1,6,PH1*%
%TO.N,/HSE_OUT*%
X1250000Y5675000D03*
%TO.P,U1,5,PH0*%
%TO.N,/HSE_IN*%
X1750000Y5675000D03*
%TO.P,U1,4,PC15*%
%TO.N,unconnected-(U1-PC15-Pad4)*%
X2250000Y5675000D03*
%TO.P,U1,3,PC14*%
%TO.N,unconnected-(U1-PC14-Pad3)*%
X2750000Y5675000D03*
%TO.P,U1,2,PC13*%
%TO.N,unconnected-(U1-PC13-Pad2)*%
X3250000Y5675000D03*
%TO.P,U1,1,VBAT*%
%TO.N,+3V3_MCU*%
X3750000Y5675000D03*
%TD*%
D30*
%TO.P,R17,1*%
%TO.N,/VBUS*%
X-11250000Y-35075000D03*
%TO.P,R17,2*%
%TO.N,Net-(C18-Pad2)*%
X-11250000Y-33425000D03*
%TD*%
D39*
%TO.P,D1,1,K*%
%TO.N,GND*%
X-13750000Y-1687500D03*
%TO.P,D1,2,A*%
%TO.N,Net-(D1-A)*%
X-13750000Y187500D03*
%TD*%
D40*
%TO.P,C2,1*%
%TO.N,/VCAP1*%
X-8000000Y-2150000D03*
%TO.P,C2,2*%
%TO.N,GND*%
X-8000000Y-250000D03*
%TD*%
D35*
%TO.P,C13,1*%
%TO.N,/VBUS*%
X-3380000Y-20000000D03*
%TO.P,C13,2*%
%TO.N,GND*%
X-2420000Y-20000000D03*
%TD*%
D41*
%TO.P,C7,1*%
%TO.N,+3V3_MCU*%
X-7500000Y2520000D03*
%TO.P,C7,2*%
%TO.N,GND*%
X-7500000Y3480000D03*
%TD*%
D35*
%TO.P,C8,1*%
%TO.N,+3V3_MCU*%
X4790000Y6750000D03*
%TO.P,C8,2*%
%TO.N,GND*%
X5750000Y6750000D03*
%TD*%
D42*
%TO.P,C21,1*%
%TO.N,/VBUS*%
X22450000Y-3000000D03*
%TO.P,C21,2*%
%TO.N,GND*%
X20550000Y-3000000D03*
%TD*%
D40*
%TO.P,C20,1*%
%TO.N,/V_BUS_OUT*%
X24500000Y-17950000D03*
%TO.P,C20,2*%
%TO.N,GND*%
X24500000Y-16050000D03*
%TD*%
D43*
%TO.P,R3,1*%
%TO.N,+3V3_MCU*%
X7150000Y-19250000D03*
%TO.P,R3,2*%
%TO.N,/VBUS_MAX*%
X5500000Y-19250000D03*
%TD*%
%TO.P,R21,1*%
%TO.N,/VBUS*%
X23575000Y2250000D03*
%TO.P,R21,2*%
%TO.N,Net-(U4-EN)*%
X21925000Y2250000D03*
%TD*%
D40*
%TO.P,C19,1*%
%TO.N,/VBUS*%
X-9250000Y-35450000D03*
%TO.P,C19,2*%
%TO.N,Net-(C18-Pad2)*%
X-9250000Y-33550000D03*
%TD*%
D44*
%TO.P,R6,1*%
%TO.N,/VBUS_MIN*%
X5500000Y-23750000D03*
%TO.P,R6,2*%
%TO.N,GND*%
X7150000Y-23750000D03*
%TD*%
D42*
%TO.P,C12,1*%
%TO.N,/VBUS*%
X-10300000Y-21400000D03*
%TO.P,C12,2*%
%TO.N,GND*%
X-12200000Y-21400000D03*
%TD*%
D24*
%TO.P,R18,1*%
%TO.N,+3V3_MCU*%
X3250000Y-10175000D03*
%TO.P,R18,2*%
%TO.N,/PD_INT*%
X3250000Y-11825000D03*
%TD*%
D26*
%TO.P,C25,1*%
%TO.N,+3V3_MCU*%
X15250000Y2730000D03*
%TO.P,C25,2*%
%TO.N,/BUCK_FB*%
X15250000Y1770000D03*
%TD*%
D43*
%TO.P,R7,1*%
%TO.N,+3V3_MCU*%
X7150000Y-13250000D03*
%TO.P,R7,2*%
%TO.N,/ISINK_COAR*%
X5500000Y-13250000D03*
%TD*%
D42*
%TO.P,C23,1*%
%TO.N,+3V3_MCU*%
X23700000Y4790000D03*
%TO.P,C23,2*%
%TO.N,GND*%
X21800000Y4790000D03*
%TD*%
D24*
%TO.P,R22,1*%
%TO.N,/BUCK_FS*%
X18000000Y75000D03*
%TO.P,R22,2*%
%TO.N,Net-(R22-Pad2)*%
X18000000Y-1575000D03*
%TD*%
D30*
%TO.P,R11,1*%
%TO.N,/PD_FAULT*%
X0Y-11825000D03*
%TO.P,R11,2*%
%TO.N,GND*%
X0Y-10175000D03*
%TD*%
D45*
%TO.P,C17,1*%
%TO.N,/PDC_VCCD*%
X2250000Y-20800000D03*
%TO.P,C17,2*%
%TO.N,GND*%
X2250000Y-22700000D03*
%TD*%
D44*
%TO.P,R9,1*%
%TO.N,/ISINK_FINE*%
X5500000Y-10250000D03*
%TO.P,R9,2*%
%TO.N,GND*%
X7150000Y-10250000D03*
%TD*%
D46*
%TO.P,C15,1*%
%TO.N,+3V3*%
X580000Y-20000000D03*
%TO.P,C15,2*%
%TO.N,GND*%
X-380000Y-20000000D03*
%TD*%
D24*
%TO.P,R25,1*%
%TO.N,+3V3_MCU*%
X18000000Y3075000D03*
%TO.P,R25,2*%
%TO.N,/BUCK_FB*%
X18000000Y1425000D03*
%TD*%
D42*
%TO.P,C9,1*%
%TO.N,+3V3_MCU*%
X-8800000Y-4500000D03*
%TO.P,C9,2*%
%TO.N,GND*%
X-10700000Y-4500000D03*
%TD*%
D44*
%TO.P,R8,1*%
%TO.N,/ISINK_COAR*%
X5500000Y-14750000D03*
%TO.P,R8,2*%
%TO.N,GND*%
X7150000Y-14750000D03*
%TD*%
D42*
%TO.P,C14,1*%
%TO.N,+3V3*%
X450000Y-22500000D03*
%TO.P,C14,2*%
%TO.N,GND*%
X-1450000Y-22500000D03*
%TD*%
D44*
%TO.P,R4,1*%
%TO.N,/VBUS_MAX*%
X5500000Y-20750000D03*
%TO.P,R4,2*%
%TO.N,GND*%
X7150000Y-20750000D03*
%TD*%
D43*
%TO.P,R10,1*%
%TO.N,+3V3_MCU*%
X7150000Y-11750000D03*
%TO.P,R10,2*%
%TO.N,/ISINK_FINE*%
X5500000Y-11750000D03*
%TD*%
D35*
%TO.P,C1,1*%
%TO.N,/NRST*%
X4790000Y8750000D03*
%TO.P,C1,2*%
%TO.N,GND*%
X5750000Y8750000D03*
%TD*%
D46*
%TO.P,C5,1*%
%TO.N,+3V3_MCU*%
X4230000Y-7500000D03*
%TO.P,C5,2*%
%TO.N,GND*%
X3270000Y-7500000D03*
%TD*%
D43*
%TO.P,R20,1*%
%TO.N,/PD_SAFE*%
X7150000Y-16250000D03*
%TO.P,R20,2*%
%TO.N,/SAFE_PWR_EN*%
X5500000Y-16250000D03*
%TD*%
%TO.P,R16,1*%
%TO.N,Net-(C18-Pad2)*%
X7150000Y-17750000D03*
%TO.P,R16,2*%
%TO.N,/VBUS_FET_EN*%
X5500000Y-17750000D03*
%TD*%
D47*
%TO.P,D2,1,K*%
%TO.N,Net-(D2-K)*%
X-13750000Y4687500D03*
%TO.P,D2,2,A*%
%TO.N,Net-(D2-A)*%
X-13750000Y2812500D03*
%TD*%
D43*
%TO.P,R5,1*%
%TO.N,+3V3_MCU*%
X7150000Y-22250000D03*
%TO.P,R5,2*%
%TO.N,/VBUS_MIN*%
X5500000Y-22250000D03*
%TD*%
D24*
%TO.P,R15,1*%
%TO.N,Net-(Q1-G1)*%
X-11250000Y-30175000D03*
%TO.P,R15,2*%
%TO.N,Net-(C18-Pad2)*%
X-11250000Y-31825000D03*
%TD*%
D48*
%TO.P,Y1,1,1*%
%TO.N,/HSE_IN*%
X2600000Y10630000D03*
%TO.P,Y1,2,2*%
%TO.N,GND*%
X400000Y10630000D03*
%TO.P,Y1,3,3*%
%TO.N,/HSE_OUT*%
X400000Y8870000D03*
%TO.P,Y1,4,4*%
%TO.N,GND*%
X2600000Y8870000D03*
%TD*%
D35*
%TO.P,C18,1*%
%TO.N,/V_BUS_OUT*%
X5520000Y-25000000D03*
%TO.P,C18,2*%
%TO.N,Net-(C18-Pad2)*%
X6480000Y-25000000D03*
%TD*%
D41*
%TO.P,C4,1*%
%TO.N,+3V3_MCU*%
X-7500000Y-4480000D03*
%TO.P,C4,2*%
%TO.N,GND*%
X-7500000Y-3520000D03*
%TD*%
D46*
%TO.P,C16,1*%
%TO.N,+3V3*%
X580000Y-21000000D03*
%TO.P,C16,2*%
%TO.N,GND*%
X-380000Y-21000000D03*
%TD*%
D43*
%TO.P,R26,1*%
%TO.N,/BUCK_FB*%
X16575000Y0D03*
%TO.P,R26,2*%
%TO.N,GND*%
X14925000Y0D03*
%TD*%
D24*
%TO.P,R24,1*%
%TO.N,+3V3_MCU*%
X16500000Y3075000D03*
%TO.P,R24,2*%
%TO.N,/BUCK_FB*%
X16500000Y1425000D03*
%TD*%
D43*
%TO.P,R23,1*%
%TO.N,Net-(R22-Pad2)*%
X16575000Y-1750000D03*
%TO.P,R23,2*%
%TO.N,GND*%
X14925000Y-1750000D03*
%TD*%
D46*
%TO.P,C11,1*%
%TO.N,/HSE_OUT*%
X710000Y7400000D03*
%TO.P,C11,2*%
%TO.N,GND*%
X-250000Y7400000D03*
%TD*%
D26*
%TO.P,C22,1*%
%TO.N,Net-(U4-BS)*%
X24000000Y230000D03*
%TO.P,C22,2*%
%TO.N,/LX*%
X24000000Y-730000D03*
%TD*%
D42*
%TO.P,C24,1*%
%TO.N,+3V3_MCU*%
X23700000Y7040000D03*
%TO.P,C24,2*%
%TO.N,GND*%
X21800000Y7040000D03*
%TD*%
D26*
%TO.P,C6,1*%
%TO.N,+3V3_MCU*%
X7500000Y4230000D03*
%TO.P,C6,2*%
%TO.N,GND*%
X7500000Y3270000D03*
%TD*%
D49*
%TO.N,/VBUS*%
X-10250000Y-14750000D03*
%TO.N,/USB_D-*%
X-9524997Y-16125000D03*
%TO.N,/USB_D+*%
X-9524997Y-16875000D03*
%TO.N,GND*%
X-10500000Y-16500000D03*
X-14500000Y-11000000D03*
%TO.N,/VBUS*%
X-10750000Y-11000000D03*
D50*
%TO.N,GND*%
X750000Y-17750000D03*
X0Y-17750000D03*
X-750000Y-17750000D03*
X-750000Y-17000000D03*
X-750000Y-16250000D03*
X0Y-16250000D03*
X750000Y-16250000D03*
X750000Y-17000000D03*
X0Y-17000000D03*
%TO.N,/UART_TX*%
X-5750000Y5500000D03*
%TO.N,/UART_RX*%
X-6000000Y4500000D03*
%TO.N,GND*%
X22000000Y-34750000D03*
X22000000Y-36500000D03*
X12750000Y-36500000D03*
X3750000Y-36500000D03*
X17250000Y-34750000D03*
X19000000Y-22500000D03*
X19000000Y-19750000D03*
X19000000Y-14250000D03*
X15750000Y-10500000D03*
X22250000Y-5500000D03*
X22250000Y-10000000D03*
X11250000Y-22500000D03*
X13250000Y-26000000D03*
X20250000Y-26000000D03*
X19000000Y-11500000D03*
%TO.N,+3V3_MCU*%
X14250000Y-4750000D03*
%TO.N,GND*%
X-16750000Y-31750000D03*
X-16750000Y-29250000D03*
X-16750000Y-30500000D03*
X-18000000Y-31750000D03*
X-18000000Y-29250000D03*
X-18000000Y-30500000D03*
X-19250000Y-31750000D03*
X-19250000Y-29250000D03*
X-9500000Y1250000D03*
X8750000Y2500000D03*
X6500000Y5500000D03*
X11750000Y1500000D03*
X11750000Y4250000D03*
X1800000Y-24900000D03*
X7750000Y-8750000D03*
X-13500000Y-21750000D03*
X-13500000Y-20750000D03*
X-11250000Y-13000000D03*
X-12000000Y-13000000D03*
X-12750000Y-13000000D03*
X-13500000Y-13000000D03*
X-19250000Y-30500000D03*
X-500000Y-36500000D03*
X-500000Y-34750000D03*
X8000000Y-36500000D03*
X17250000Y-36500000D03*
X32750000Y-15500000D03*
X32750000Y-13250000D03*
X27000000Y-15500000D03*
X27000000Y-13250000D03*
X32000000Y-5000000D03*
X23500000Y-12250000D03*
X26250000Y-5750000D03*
X19000000Y-3250000D03*
X19500000Y-2000000D03*
X20500000Y10000000D03*
X9250000Y6250000D03*
X17000000Y6250000D03*
X17000000Y9250000D03*
X9250000Y9210000D03*
X3500000Y13500000D03*
X500000Y13500000D03*
X-1250000Y12000000D03*
X4500000Y10250000D03*
X-3683058Y-3183058D03*
X-816942Y-8933058D03*
X-2250000Y10250000D03*
X-3000000Y9500000D03*
X-19250000Y-19750000D03*
X-20500000Y-19750000D03*
X-19250000Y-18750000D03*
X-20500000Y-18750000D03*
X-19250000Y-14750000D03*
X-20500000Y-14750000D03*
X-19250000Y-15750000D03*
X-20500000Y-15750000D03*
X-19250000Y-17750000D03*
X-20500000Y-17750000D03*
X-20500000Y-16750000D03*
X-19250000Y-16750000D03*
%TO.N,/V_BUS_OUT*%
X4500000Y-25000000D03*
X-1000000Y-13250000D03*
%TO.N,GND*%
X2933058Y-8433058D03*
X-7250000Y4500000D03*
%TO.N,+3V3_MCU*%
X-8750000Y-6000000D03*
X-2000000Y-9250000D03*
X-5250000Y-9250000D03*
X4058058Y-9558058D03*
X8500000Y-13750000D03*
X8500000Y-12750000D03*
X8250000Y-22250000D03*
X8250000Y-19750000D03*
%TO.N,Net-(C18-Pad2)*%
X-4500000Y-33550000D03*
X11250000Y-26750000D03*
%TO.N,/VBUS*%
X-7750000Y-35500000D03*
%TO.N,+3V3_MCU*%
X25250000Y4750000D03*
X25250000Y6250000D03*
X31250000Y4750000D03*
X31250000Y6250000D03*
X31250000Y7750000D03*
X-10500000Y9250000D03*
X-10500000Y10250000D03*
%TO.N,/PD_FAULT*%
X-8500000Y3750000D03*
X1250000Y-4250000D03*
X1324000Y-11825000D03*
%TO.N,/SWDIO*%
X2800000Y-4200000D03*
%TO.N,/SWCLK*%
X7750000Y-3750000D03*
%TO.N,/BOOT0*%
X-5000000Y6500000D03*
X7250000Y2200000D03*
%TO.N,/NRST*%
X4750000Y7750000D03*
X750000Y4250000D03*
%TO.N,/I2C3_SCL*%
X250000Y-8500000D03*
X-4360000Y-13360000D03*
%TO.N,+3V3_MCU*%
X25250000Y12250000D03*
X26750000Y12250000D03*
X28250000Y12250000D03*
X28250000Y10750000D03*
X26750000Y10750000D03*
X25250000Y10750000D03*
X25250000Y9250000D03*
X26750000Y9250000D03*
X28250000Y9250000D03*
X29750000Y9250000D03*
X29750000Y7750000D03*
X28250000Y7750000D03*
X26750000Y7750000D03*
X25250000Y7750000D03*
%TO.N,GND*%
X20500000Y6250000D03*
X20500000Y7250000D03*
X20500000Y5000000D03*
X20500000Y4000000D03*
%TO.N,/VBUS*%
X23750000Y1250000D03*
%TO.N,+3V3_MCU*%
X18000000Y4250000D03*
X16500000Y4250000D03*
X15250000Y4250000D03*
%TO.N,GND*%
X13750000Y0D03*
X13750000Y-1750000D03*
D51*
%TO.N,/VBUS*%
X23750000Y-3250000D03*
X-3750000Y-24750000D03*
D50*
%TO.N,GND*%
X5750000Y7750000D03*
X-1500000Y8250000D03*
%TO.N,+3V3_MCU*%
X-3250000Y7250000D03*
X5250000Y5750000D03*
X8500000Y4250000D03*
X5000000Y-6500000D03*
X-7500000Y-5500000D03*
X-7500000Y1500000D03*
X-10000000Y3500000D03*
%TO.N,GND*%
X-7250000Y7000000D03*
X-13750000Y-3500000D03*
X-12000000Y-4500000D03*
X0Y-2000000D03*
X1000000Y-2000000D03*
X2000000Y-2000000D03*
X-1000000Y-2000000D03*
X-2000000Y-2000000D03*
X0Y-1000000D03*
X1000000Y-1000000D03*
X2000000Y-1000000D03*
X-1000000Y-1000000D03*
X-2000000Y-1000000D03*
X0Y2000000D03*
X1000000Y2000000D03*
X2000000Y2000000D03*
X-1000000Y2000000D03*
X-2000000Y2000000D03*
X0Y1000000D03*
X1000000Y1000000D03*
X2000000Y1000000D03*
X-1000000Y1000000D03*
X-2000000Y1000000D03*
X-2000000Y0D03*
X-1000000Y0D03*
X2000000Y0D03*
X1000000Y0D03*
X0Y0D03*
X24200000Y-14900000D03*
X24900000Y-14900000D03*
X8250000Y-10250000D03*
X8250000Y-14750000D03*
X8250000Y-20750000D03*
X8250000Y-23750000D03*
X3750000Y-22750000D03*
X2250000Y-24000000D03*
X-1200000Y-20000000D03*
X-1200000Y-21000000D03*
X-1450000Y-23950000D03*
%TO.N,/USB_D-*%
X1575000Y-7400000D03*
%TO.N,/USB_D+*%
X2425000Y-7400000D03*
%TD*%
D52*
%TO.N,/CC2*%
X-12940000Y-10500000D02*
X-11500000Y-10500000D01*
%TO.N,/CC1*%
X-12940000Y-11500000D02*
X-11500000Y-11500000D01*
D53*
%TO.N,/USB_D-*%
X-11231000Y-16049000D02*
X-10828232Y-16049000D01*
X-11280000Y-16000000D02*
X-11231000Y-16049000D01*
%TO.N,/USB_D+*%
X-9945769Y-16725001D02*
X-9674996Y-16725001D01*
%TO.N,/USB_D-*%
X-9945769Y-16274999D02*
X-9674996Y-16274999D01*
%TO.N,/USB_D+*%
X-9674996Y-16725001D02*
X-9524997Y-16875000D01*
%TO.N,/USB_D-*%
X-10728232Y-15949000D02*
X-10271768Y-15949000D01*
%TO.N,/USB_D+*%
X-10828232Y-16951000D02*
X-10728232Y-17051000D01*
X-10271768Y-17051000D02*
X-9945769Y-16725001D01*
X-11280000Y-17000000D02*
X-11231000Y-16951000D01*
X-10728232Y-17051000D02*
X-10271768Y-17051000D01*
X-11231000Y-16951000D02*
X-10828232Y-16951000D01*
%TO.N,/USB_D-*%
X-10828232Y-16049000D02*
X-10728232Y-15949000D01*
X-10271768Y-15949000D02*
X-9945769Y-16274999D01*
X-9674996Y-16274999D02*
X-9524997Y-16125000D01*
D52*
%TO.N,GND*%
X-11280000Y-16500000D02*
X-10500000Y-16500000D01*
%TO.N,/CC1*%
X-14920000Y-15750000D02*
X-15772000Y-15750000D01*
X-15772000Y-15750000D02*
X-17000000Y-14522000D01*
X-17000000Y-14522000D02*
X-17000000Y-12250000D01*
X-17000000Y-12250000D02*
X-16500000Y-11750000D01*
X-13190000Y-11750000D02*
X-12940000Y-11500000D01*
X-16500000Y-11750000D02*
X-13190000Y-11750000D01*
%TO.N,GND*%
X-12940000Y-11000000D02*
X-14500000Y-11000000D01*
%TO.N,/CC1*%
X-10500000Y-11750001D02*
X-10500000Y-11750000D01*
X-5500001Y-16750000D02*
X-10500000Y-11750001D01*
X-10500000Y-11750000D02*
X-11250000Y-11750000D01*
X-11250000Y-11750000D02*
X-11500000Y-11500000D01*
%TO.N,/CC2*%
X-11500000Y-10500000D02*
X-11424000Y-10424000D01*
X-11424000Y-10424000D02*
X-10076000Y-10424000D01*
X-10076000Y-10424000D02*
X-4250000Y-16250000D01*
%TO.N,/VBUS*%
X-11500000Y-11000000D02*
X-10750000Y-11000000D01*
D53*
%TO.N,/USB_D+*%
X-11280000Y-17000000D02*
X-11279000Y-17001000D01*
%TO.N,/USB_D-*%
X-11280000Y-16000000D02*
X-11281000Y-15999000D01*
X-12720000Y-16000000D02*
X-11280000Y-16000000D01*
%TO.N,/USB_D+*%
X-12720000Y-17000000D02*
X-11280000Y-17000000D01*
D52*
%TO.N,/CC1*%
X-5500001Y-16750000D02*
X-1970000Y-16750000D01*
%TO.N,/USB_D+*%
X-14920000Y-16750000D02*
X-13607501Y-16750000D01*
X-13607501Y-16750000D02*
X-13357501Y-17000000D01*
X-13357501Y-17000000D02*
X-12720000Y-17000000D01*
%TO.N,/USB_D-*%
X-14920000Y-16250000D02*
X-13607501Y-16250000D01*
X-13607501Y-16250000D02*
X-13357501Y-16000000D01*
X-13357501Y-16000000D02*
X-12720000Y-16000000D01*
%TO.N,/UART_TX*%
X-3750000Y5675000D02*
X-5575000Y5675000D01*
X-5575000Y5675000D02*
X-5750000Y5500000D01*
%TO.N,/UART_RX*%
X-5675000Y4175000D02*
X-6000000Y4500000D01*
X-5675000Y3750000D02*
X-5675000Y4175000D01*
%TO.N,/VBUS*%
X-14500000Y-35500000D02*
X-11675000Y-35500000D01*
X-11675000Y-35500000D02*
X-11250000Y-35075000D01*
%TO.N,/LED_PDO5*%
X14500000Y-23250000D02*
X10000000Y-18750000D01*
X10000000Y-18750000D02*
X10000000Y-2974380D01*
X10000000Y-2974380D02*
X8275620Y-1250000D01*
X8275620Y-1250000D02*
X5675000Y-1250000D01*
%TO.N,+3V3_MCU*%
X14250000Y-6100000D02*
X14250000Y-4750000D01*
%TO.N,/MODE_BTN*%
X14250000Y-7750000D02*
X12255000Y-5755000D01*
X12255000Y-5755000D02*
X12255000Y-2040330D01*
X12255000Y-2040330D02*
X8964670Y1250000D01*
X8964670Y1250000D02*
X5675000Y1250000D01*
%TO.N,/BOOT0*%
X5675000Y1750000D02*
X6800000Y1750000D01*
X6800000Y1750000D02*
X7250000Y2200000D01*
%TO.N,/MODE_BTN*%
X14250000Y-7750000D02*
X15820000Y-7750000D01*
X14500000Y-9040000D02*
X14500000Y-8000000D01*
X14500000Y-8000000D02*
X14250000Y-7750000D01*
%TO.N,/LED_PDO1*%
X14500000Y-12230000D02*
X11804000Y-9534000D01*
X11804000Y-9534000D02*
X11804000Y-2227140D01*
X11804000Y-2227140D02*
X8826860Y750000D01*
X8826860Y750000D02*
X5675000Y750000D01*
%TO.N,/LED_PDO2*%
X14500000Y-14990000D02*
X11353000Y-11843000D01*
X11353000Y-11843000D02*
X11353000Y-2413950D01*
X11353000Y-2413950D02*
X8689050Y250000D01*
X8689050Y250000D02*
X5675000Y250000D01*
%TO.N,/LED_PDO3*%
X14500000Y-17750000D02*
X10902000Y-14152000D01*
X10902000Y-14152000D02*
X10902000Y-2600760D01*
X10902000Y-2600760D02*
X8551240Y-250000D01*
X8551240Y-250000D02*
X5675000Y-250000D01*
%TO.N,/LED_PDO4*%
X14500000Y-20490000D02*
X10451000Y-16441000D01*
X10451000Y-16441000D02*
X10451000Y-2787570D01*
X10451000Y-2787570D02*
X8413430Y-750000D01*
X8413430Y-750000D02*
X5675000Y-750000D01*
%TO.N,Net-(D7-A)*%
X14500000Y-24270000D02*
X15292500Y-24270000D01*
X15292500Y-24270000D02*
X15812500Y-23750000D01*
%TO.N,Net-(D6-A)*%
X14500000Y-21510000D02*
X15302500Y-21510000D01*
X15302500Y-21510000D02*
X15812500Y-21000000D01*
%TO.N,Net-(D5-A)*%
X14500000Y-18770000D02*
X15292500Y-18770000D01*
X15292500Y-18770000D02*
X15812500Y-18250000D01*
%TO.N,Net-(D4-A)*%
X14500000Y-16010000D02*
X15302500Y-16010000D01*
X15302500Y-16010000D02*
X15812500Y-15500000D01*
%TO.N,Net-(D3-A)*%
X14500000Y-13250000D02*
X15312500Y-13250000D01*
X15312500Y-13250000D02*
X15812500Y-12750000D01*
D54*
%TO.N,GND*%
X-14920000Y-13800000D02*
X-14300000Y-13800000D01*
X-14300000Y-13800000D02*
X-13500000Y-13000000D01*
X-14920000Y-20200000D02*
X-14050000Y-20200000D01*
X-14050000Y-20200000D02*
X-13500000Y-20750000D01*
X-1520000Y7400000D02*
X-1520000Y8230000D01*
X-1520000Y8230000D02*
X-1500000Y8250000D01*
D52*
X-7500000Y3480000D02*
X-7500000Y4250000D01*
X-7500000Y4250000D02*
X-7250000Y4500000D01*
X3120000Y8870000D02*
X4500000Y10250000D01*
X2600000Y8870000D02*
X3120000Y8870000D01*
X3230000Y7400000D02*
X3230000Y8240000D01*
X3230000Y8240000D02*
X2600000Y8870000D01*
X-3750000Y-3250000D02*
X-3683058Y-3183058D01*
X-5675000Y-3250000D02*
X-3750000Y-3250000D01*
X0Y-9750000D02*
X-816942Y-8933058D01*
X0Y-10175000D02*
X0Y-9750000D01*
%TO.N,+3V3_MCU*%
X-1500000Y-10175000D02*
X-1500000Y-9750000D01*
X-1500000Y-9750000D02*
X-2000000Y-9250000D01*
%TO.N,/CC2*%
X-1970000Y-16250000D02*
X-4250000Y-16250000D01*
%TO.N,/V_BUS_OUT*%
X-750000Y-14472977D02*
X-750000Y-15030000D01*
X-1000000Y-13250000D02*
X-1000000Y-14222977D01*
X-1000000Y-14222977D02*
X-750000Y-14472977D01*
X4500000Y-25000000D02*
X5520000Y-25000000D01*
%TO.N,/I2C3_SDA*%
X-1250000Y-15030000D02*
X-1750000Y-14530000D01*
X-1750000Y-14530000D02*
X-1750000Y-13075000D01*
X-1750000Y-13075000D02*
X-3000000Y-11825000D01*
%TO.N,/PD_GPIO*%
X5626000Y-5045178D02*
X4574000Y-3993178D01*
X5626000Y-7225452D02*
X5626000Y-5045178D01*
X4601452Y-8250000D02*
X5626000Y-7225452D01*
X4250000Y-8250000D02*
X4601452Y-8250000D01*
X3440942Y-9059058D02*
X4250000Y-8250000D01*
X3141524Y-9059058D02*
X3440942Y-9059058D01*
X1949000Y-10251582D02*
X3141524Y-9059058D01*
X1949000Y-12488190D02*
X1949000Y-10251582D01*
X799000Y-13638190D02*
X1949000Y-12488190D01*
X799000Y-13701000D02*
X799000Y-13638190D01*
X750000Y-13750000D02*
X799000Y-13701000D01*
X4574000Y-3993178D02*
X4574000Y-3506822D01*
X750000Y-15030000D02*
X750000Y-13750000D01*
X4574000Y-3506822D02*
X4830822Y-3250000D01*
X4830822Y-3250000D02*
X5675000Y-3250000D01*
%TO.N,+3V3_MCU*%
X4058058Y-9558058D02*
X3691942Y-9558058D01*
X3691942Y-9558058D02*
X3250000Y-10000000D01*
X3250000Y-10000000D02*
X3250000Y-10175000D01*
%TO.N,GND*%
X3270000Y-8096116D02*
X2933058Y-8433058D01*
X3270000Y-7500000D02*
X3270000Y-8096116D01*
%TO.N,+3V3_MCU*%
X-8800000Y-5950000D02*
X-8750000Y-6000000D01*
X-8800000Y-4500000D02*
X-8800000Y-5950000D01*
X-3000000Y-10175000D02*
X-1500000Y-10175000D01*
X-5250000Y-10175000D02*
X-5250000Y-9250000D01*
X8000000Y-13250000D02*
X8500000Y-13750000D01*
X7150000Y-13250000D02*
X8000000Y-13250000D01*
X7500000Y-11750000D02*
X8500000Y-12750000D01*
X7150000Y-11750000D02*
X7500000Y-11750000D01*
X7150000Y-22250000D02*
X8250000Y-22250000D01*
X7750000Y-19250000D02*
X8250000Y-19750000D01*
X7150000Y-19250000D02*
X7750000Y-19250000D01*
%TO.N,Net-(C18-Pad2)*%
X-4500000Y-33550000D02*
X-9250000Y-33550000D01*
X9500000Y-25000000D02*
X9500000Y-19500000D01*
X9500000Y-19500000D02*
X7750000Y-17750000D01*
X7750000Y-17750000D02*
X7150000Y-17750000D01*
X9500000Y-25000000D02*
X11250000Y-26750000D01*
X6480000Y-25000000D02*
X9500000Y-25000000D01*
%TO.N,Net-(Q1-G1)*%
X-11250000Y-30175000D02*
X-11250000Y-28350000D01*
X-11250000Y-28350000D02*
X-11950000Y-27650000D01*
%TO.N,/VBUS*%
X-11250000Y-35075000D02*
X-9625000Y-35075000D01*
X-9625000Y-35075000D02*
X-9250000Y-35450000D01*
X-7750000Y-35500000D02*
X-9200000Y-35500000D01*
X-9200000Y-35500000D02*
X-9250000Y-35450000D01*
%TO.N,Net-(C18-Pad2)*%
X-11250000Y-33425000D02*
X-9375000Y-33425000D01*
X-9375000Y-33425000D02*
X-9250000Y-33550000D01*
X-11250000Y-33425000D02*
X-11250000Y-31825000D01*
%TO.N,+3V3_MCU*%
X-9250000Y9297500D02*
X-10452500Y9297500D01*
X-10452500Y9297500D02*
X-10500000Y9250000D01*
X-9250000Y10297500D02*
X-10452500Y10297500D01*
X-10452500Y10297500D02*
X-10500000Y10250000D01*
%TO.N,/PD_FAULT*%
X-8500000Y3750000D02*
X-8500000Y5050000D01*
%TO.N,/SWDIO*%
X2750000Y-4250000D02*
X2800000Y-4200000D01*
X2750000Y-5675000D02*
X2750000Y-4250000D01*
%TO.N,/I2C3_SCL*%
X-4360000Y-13360000D02*
X-3985000Y-13735000D01*
%TO.N,/PD_FAULT*%
X1324000Y-11825000D02*
X0Y-11825000D01*
X1250000Y-4250000D02*
X1250000Y-5675000D01*
%TO.N,/PD_FLIP*%
X750000Y-5675000D02*
X750000Y-8114702D01*
X750000Y-8114702D02*
X876000Y-8240702D01*
X876000Y-8240702D02*
X876000Y-10523418D01*
X876000Y-10523418D02*
X300418Y-11099000D01*
X300418Y-11099000D02*
X-774000Y-11099000D01*
X-774000Y-11099000D02*
X-1500000Y-11825000D01*
%TO.N,/PD_INT*%
X3250000Y-11825000D02*
X4051000Y-11024000D01*
X4051000Y-11024000D02*
X4051000Y-10449000D01*
X4051000Y-10449000D02*
X8376000Y-6124000D01*
X8376000Y-6124000D02*
X8376000Y-3490702D01*
X8376000Y-3490702D02*
X7135298Y-2250000D01*
X7135298Y-2250000D02*
X5675000Y-2250000D01*
X1250000Y-15030000D02*
X1250000Y-13825000D01*
X1250000Y-13825000D02*
X3250000Y-11825000D01*
%TO.N,/PD_SAFE*%
X7150000Y-16250000D02*
X7635298Y-16250000D01*
X7635298Y-16250000D02*
X9201000Y-14684298D01*
X9201000Y-14684298D02*
X9201000Y-2813190D01*
X9201000Y-2813190D02*
X8137810Y-1750000D01*
X8137810Y-1750000D02*
X5675000Y-1750000D01*
%TO.N,/SWCLK*%
X5675000Y-3750000D02*
X7750000Y-3750000D01*
%TO.N,/BOOT0*%
X-5000000Y6500000D02*
X-5990000Y6500000D01*
X-5990000Y6500000D02*
X-6000000Y6490000D01*
%TO.N,/NRST*%
X4750000Y7750000D02*
X4750000Y8710000D01*
X4750000Y8710000D02*
X4790000Y8750000D01*
X750000Y5675000D02*
X750000Y4250000D01*
%TO.N,/I2C3_SCL*%
X-3985000Y-13735000D02*
X-5250000Y-12470000D01*
X250000Y-8500000D02*
X250000Y-5675000D01*
X-1970000Y-15750000D02*
X-3985000Y-13735000D01*
X-5250000Y-12470000D02*
X-5250000Y-11825000D01*
%TO.N,/I2C3_SDA*%
X-3000000Y-11825000D02*
X-3801000Y-11024000D01*
X-3801000Y-11024000D02*
X-3801000Y-9751582D01*
X-2299418Y-8250000D02*
X-1500000Y-8250000D01*
X-3801000Y-9751582D02*
X-2299418Y-8250000D01*
X-250000Y-7000000D02*
X-250000Y-5675000D01*
X-1500000Y-8250000D02*
X-250000Y-7000000D01*
%TO.N,Net-(U4-BS)*%
X22210000Y330000D02*
X23900000Y330000D01*
X23900000Y330000D02*
X24000000Y230000D01*
D55*
%TO.N,/LX*%
X22210000Y-320000D02*
X23471030Y-320000D01*
X23471030Y-320000D02*
X23881030Y-730000D01*
X23881030Y-730000D02*
X24000000Y-730000D01*
D52*
%TO.N,GND*%
X7150000Y-14750000D02*
X8250000Y-14750000D01*
X7150000Y-20750000D02*
X8250000Y-20750000D01*
X7150000Y-23750000D02*
X8250000Y-23750000D01*
%TO.N,Net-(U4-EN)*%
X22210000Y980000D02*
X22210000Y1965000D01*
X22210000Y1965000D02*
X21925000Y2250000D01*
%TO.N,/VBUS*%
X23750000Y1250000D02*
X23750000Y2075000D01*
X23750000Y2075000D02*
X23575000Y2250000D01*
%TO.N,+3V3_MCU*%
X18000000Y3075000D02*
X18000000Y4250000D01*
X16500000Y3075000D02*
X16500000Y4250000D01*
X15250000Y2730000D02*
X15250000Y4250000D01*
%TO.N,/BUCK_FB*%
X16500000Y1425000D02*
X15595000Y1425000D01*
X15595000Y1425000D02*
X15250000Y1770000D01*
X18000000Y1425000D02*
X16500000Y1425000D01*
X19790000Y980000D02*
X18445000Y980000D01*
X18445000Y980000D02*
X18000000Y1425000D01*
X16575000Y0D02*
X16575000Y1350000D01*
X16575000Y1350000D02*
X16500000Y1425000D01*
%TO.N,GND*%
X14925000Y0D02*
X13750000Y0D01*
X14925000Y-1750000D02*
X13750000Y-1750000D01*
%TO.N,Net-(R22-Pad2)*%
X18000000Y-1575000D02*
X16750000Y-1575000D01*
X16750000Y-1575000D02*
X16575000Y-1750000D01*
%TO.N,/BUCK_FS*%
X18000000Y75000D02*
X18255000Y330000D01*
X18255000Y330000D02*
X19790000Y330000D01*
%TO.N,GND*%
X-1750000Y5675000D02*
X-1750000Y7170000D01*
X-1750000Y7170000D02*
X-1520000Y7400000D01*
%TO.N,+3V3_MCU*%
X-2250000Y5675000D02*
X-2250000Y7170000D01*
X-2250000Y7170000D02*
X-2480000Y7400000D01*
X-3100000Y7400000D02*
X-3250000Y7250000D01*
X-2480000Y7400000D02*
X-3100000Y7400000D01*
X4790000Y6210000D02*
X5250000Y5750000D01*
X4790000Y6750000D02*
X4790000Y6210000D01*
X8480000Y4230000D02*
X8500000Y4250000D01*
X7500000Y4230000D02*
X8480000Y4230000D01*
X4230000Y-7270000D02*
X5000000Y-6500000D01*
X4230000Y-7500000D02*
X4230000Y-7270000D01*
X-7500000Y-4480000D02*
X-7500000Y-5500000D01*
X-7500000Y2520000D02*
X-7500000Y1500000D01*
%TO.N,GND*%
X-7500000Y3480000D02*
X-7270000Y3250000D01*
X-7270000Y3250000D02*
X-5675000Y3250000D01*
%TO.N,+3V3_MCU*%
X-7500000Y2520000D02*
X-7270000Y2750000D01*
X-7270000Y2750000D02*
X-5675000Y2750000D01*
X-11012500Y4512500D02*
X-10000000Y3500000D01*
X-11250000Y4512500D02*
X-11012500Y4512500D01*
%TO.N,Net-(D2-K)*%
X-10500000Y6000000D02*
X-12437500Y6000000D01*
X-12437500Y6000000D02*
X-13750000Y4687500D01*
%TO.N,+3V3_MCU*%
X-7500000Y-4480000D02*
X-8780000Y-4480000D01*
X-8780000Y-4480000D02*
X-8800000Y-4500000D01*
X-7500000Y-4480000D02*
X-6405000Y-4480000D01*
X-6405000Y-4480000D02*
X-5675000Y-3750000D01*
%TO.N,GND*%
X-7500000Y-3520000D02*
X-7230000Y-3250000D01*
X-7230000Y-3250000D02*
X-5675000Y-3250000D01*
%TO.N,/VCAP1*%
X-8000000Y-2150000D02*
X-7400000Y-2750000D01*
X-7400000Y-2750000D02*
X-5675000Y-2750000D01*
%TO.N,/STATUS_LED*%
X-11250000Y-1575000D02*
X-10999000Y-1324000D01*
X-10999000Y-1324000D02*
X-7093178Y-1324000D01*
X-7093178Y-1324000D02*
X-6519178Y-750000D01*
X-6519178Y-750000D02*
X-5675000Y-750000D01*
%TO.N,Net-(D1-A)*%
X-13750000Y187500D02*
X-11362500Y187500D01*
X-11362500Y187500D02*
X-11250000Y75000D01*
%TO.N,Net-(D2-A)*%
X-13750000Y2812500D02*
X-11300000Y2812500D01*
X-11300000Y2812500D02*
X-11250000Y2862500D01*
%TO.N,/SW_BOOT0*%
X-6000000Y7510000D02*
X-6000000Y9047500D01*
X-6000000Y9047500D02*
X-6750000Y9797500D01*
%TO.N,/HSE_IN*%
X2270000Y7400000D02*
X1574000Y8096000D01*
X1574000Y8096000D02*
X1574000Y9604000D01*
X1574000Y9604000D02*
X2600000Y10630000D01*
%TO.N,/HSE_OUT*%
X710000Y7400000D02*
X710000Y8560000D01*
X710000Y8560000D02*
X400000Y8870000D01*
X1250000Y5675000D02*
X1250000Y6860000D01*
X1250000Y6860000D02*
X710000Y7400000D01*
%TO.N,/HSE_IN*%
X1750000Y5675000D02*
X1750000Y6880000D01*
X1750000Y6880000D02*
X2270000Y7400000D01*
%TO.N,+3V3_MCU*%
X3750000Y5675000D02*
X3750000Y5710000D01*
X3750000Y5710000D02*
X4790000Y6750000D01*
X7500000Y4230000D02*
X6155000Y4230000D01*
X6155000Y4230000D02*
X5675000Y3750000D01*
%TO.N,GND*%
X5675000Y3250000D02*
X7480000Y3250000D01*
X7480000Y3250000D02*
X7500000Y3270000D01*
%TO.N,+3V3_MCU*%
X3750000Y-5675000D02*
X4230000Y-6155000D01*
X4230000Y-6155000D02*
X4230000Y-7500000D01*
%TO.N,GND*%
X3270000Y-7500000D02*
X3270000Y-5695000D01*
X3270000Y-5695000D02*
X3250000Y-5675000D01*
%TO.N,Net-(Q1-G1)*%
X-13870000Y-25120000D02*
X-14500000Y-25750000D01*
X-11950000Y-25120000D02*
X-13870000Y-25120000D01*
X-14500000Y-25750000D02*
X-14500000Y-27000000D01*
X-13850000Y-27650000D02*
X-14500000Y-27000000D01*
X-11950000Y-27650000D02*
X-13850000Y-27650000D01*
D53*
%TO.N,GND*%
X3700000Y-22700000D02*
X3750000Y-22750000D01*
X-380000Y-20000000D02*
X250000Y-19370000D01*
X250000Y-19370000D02*
X250000Y-18970000D01*
D52*
X-1250000Y-18970000D02*
X-1250000Y-18250000D01*
X-1250000Y-18250000D02*
X0Y-17000000D01*
X250000Y-18970000D02*
X250000Y-17250000D01*
X250000Y-17250000D02*
X0Y-17000000D01*
X-1200000Y-20000000D02*
X-1250000Y-19950000D01*
X-1250000Y-19950000D02*
X-1250000Y-18970000D01*
%TO.N,+3V3*%
X580000Y-21000000D02*
X580000Y-22370000D01*
X580000Y-22370000D02*
X450000Y-22500000D01*
X580000Y-20000000D02*
X580000Y-21000000D01*
X580000Y-20000000D02*
X750000Y-19830000D01*
X750000Y-19830000D02*
X750000Y-18970000D01*
%TO.N,/VBUS_MIN*%
X5500000Y-22250000D02*
X5500000Y-23750000D01*
X1970000Y-18250000D02*
X1970000Y-18720000D01*
X1970000Y-18720000D02*
X5500000Y-22250000D01*
%TO.N,/PDC_VCCD*%
X1250000Y-18970000D02*
X1250000Y-19800000D01*
X1250000Y-19800000D02*
X2250000Y-20800000D01*
%TO.N,/VBUS_MAX*%
X5500000Y-19250000D02*
X5500000Y-20750000D01*
X1970000Y-17750000D02*
X4000000Y-17750000D01*
X4000000Y-17750000D02*
X5500000Y-19250000D01*
%TO.N,/VBUS_FET_EN*%
X1970000Y-17250000D02*
X5000000Y-17250000D01*
X5000000Y-17250000D02*
X5500000Y-17750000D01*
%TO.N,/SAFE_PWR_EN*%
X1970000Y-16750000D02*
X5000000Y-16750000D01*
X5000000Y-16750000D02*
X5500000Y-16250000D01*
%TO.N,/ISINK_COAR*%
X5500000Y-14750000D02*
X5500000Y-13250000D01*
X1970000Y-16250000D02*
X4000000Y-16250000D01*
X4000000Y-16250000D02*
X5500000Y-14750000D01*
%TO.N,/ISINK_FINE*%
X5500000Y-11750000D02*
X5500000Y-10250000D01*
X1970000Y-15750000D02*
X1970000Y-15280000D01*
X1970000Y-15280000D02*
X5500000Y-11750000D01*
%TO.N,/PD_FAULT*%
X250000Y-15030000D02*
X250000Y-12075000D01*
X250000Y-12075000D02*
X0Y-11825000D01*
%TO.N,/PD_FLIP*%
X-250000Y-15030000D02*
X-250000Y-13075000D01*
X-250000Y-13075000D02*
X-1500000Y-11825000D01*
%TO.N,/USB_D-*%
X-15750000Y-16250000D02*
X-14920000Y-16250000D01*
X-14920000Y-17250000D02*
X-15772000Y-17250000D01*
X-16000000Y-16500000D02*
X-15750000Y-16250000D01*
X-16000000Y-17022000D02*
X-16000000Y-16500000D01*
X-15772000Y-17250000D02*
X-16000000Y-17022000D01*
%TO.N,/USB_D+*%
X-14000000Y-17750000D02*
X-13750000Y-17500000D01*
X-14000000Y-16750000D02*
X-14920000Y-16750000D01*
X-13750000Y-17500000D02*
X-13750000Y-17000000D01*
X-14920000Y-17750000D02*
X-14000000Y-17750000D01*
X-13750000Y-17000000D02*
X-14000000Y-16750000D01*
D53*
%TO.N,/USB_D-*%
X1750000Y-6837501D02*
X1750000Y-5675000D01*
X1775000Y-6862501D02*
X1750000Y-6837501D01*
X1775000Y-7200000D02*
X1775000Y-6862501D01*
%TO.N,/USB_D+*%
X2225000Y-6862501D02*
X2250000Y-6837501D01*
X2225000Y-7200000D02*
X2225000Y-6862501D01*
%TO.N,/USB_D-*%
X1575000Y-7400000D02*
X1775000Y-7200000D01*
%TO.N,/USB_D+*%
X2250000Y-6837501D02*
X2250000Y-5675000D01*
X2425000Y-7400000D02*
X2225000Y-7200000D01*
D52*
%TO.N,/V_BUS_OUT*%
X4500000Y-25000000D02*
X4500000Y-27750000D01*
%TO.N,/CC2*%
X-14920000Y-18750000D02*
X-15750000Y-18750000D01*
X-15750000Y-18750000D02*
X-17800000Y-16700000D01*
X-17800000Y-16700000D02*
X-17800000Y-11550000D01*
X-17800000Y-11550000D02*
X-16600001Y-10350001D01*
X-16600001Y-10350001D02*
X-13089999Y-10350001D01*
X-13089999Y-10350001D02*
X-12940000Y-10500000D01*
%TD*%
%TA.AperFunction,Conductor*%
%TO.N,GND*%
G36*
X6658662Y14579815D02*
G01*
X6704417Y14527011D01*
X6714361Y14457853D01*
X6690889Y14401188D01*
X6646647Y14342090D01*
X6646645Y14342087D01*
X6596403Y14207380D01*
X6596401Y14207373D01*
X6590000Y14147845D01*
X6590000Y13500000D01*
X7449238Y13500000D01*
X7427470Y13462297D01*
X7389988Y13322410D01*
X7389988Y13177590D01*
X7427470Y13037703D01*
X7449238Y13000000D01*
X6590000Y13000000D01*
X6590000Y12352156D01*
X6596401Y12292628D01*
X6596403Y12292621D01*
X6646645Y12157914D01*
X6646649Y12157907D01*
X6732809Y12042813D01*
X6732812Y12042810D01*
X6847906Y11956650D01*
X6847913Y11956646D01*
X6982620Y11906404D01*
X6982627Y11906402D01*
X7042155Y11900001D01*
X7042172Y11900000D01*
X7690000Y11900000D01*
X7690000Y12759239D01*
X7727703Y12737470D01*
X7867590Y12699988D01*
X8012410Y12699988D01*
X8152297Y12737470D01*
X8190000Y12759239D01*
X8190000Y11900000D01*
X8837828Y11900000D01*
X8837844Y11900001D01*
X8897372Y11906402D01*
X8897379Y11906404D01*
X9032086Y11956646D01*
X9032093Y11956650D01*
X9147187Y12042810D01*
X9147190Y12042813D01*
X9233350Y12157907D01*
X9233354Y12157914D01*
X9283596Y12292621D01*
X9283598Y12292628D01*
X9289999Y12352156D01*
X9290000Y12352173D01*
X9290000Y12378785D01*
X9309685Y12445824D01*
X9362489Y12491579D01*
X9431647Y12501523D01*
X9495203Y12472498D01*
X9514316Y12451673D01*
X9526172Y12435354D01*
X9665354Y12296172D01*
X9824595Y12180476D01*
X9907455Y12138257D01*
X9999970Y12091118D01*
X9999972Y12091118D01*
X9999975Y12091116D01*
X10100317Y12058513D01*
X10187173Y12030291D01*
X10381578Y11999500D01*
X10381583Y11999500D01*
X10578422Y11999500D01*
X10772826Y12030291D01*
X10811355Y12042810D01*
X10960025Y12091116D01*
X11135405Y12180476D01*
X11294646Y12296172D01*
X11433828Y12435354D01*
X11549524Y12594595D01*
X11638884Y12769975D01*
X11639515Y12771213D01*
X11687489Y12822010D01*
X11755310Y12838805D01*
X11821445Y12816268D01*
X11860485Y12771213D01*
X11950474Y12594597D01*
X11956196Y12586722D01*
X12066172Y12435354D01*
X12205354Y12296172D01*
X12364595Y12180476D01*
X12447455Y12138257D01*
X12539970Y12091118D01*
X12539972Y12091118D01*
X12539975Y12091116D01*
X12640317Y12058513D01*
X12727173Y12030291D01*
X12921578Y11999500D01*
X12921583Y11999500D01*
X13118422Y11999500D01*
X13312826Y12030291D01*
X13351355Y12042810D01*
X13500025Y12091116D01*
X13675405Y12180476D01*
X13834646Y12296172D01*
X13973828Y12435354D01*
X14089524Y12594595D01*
X14178884Y12769975D01*
X14179515Y12771213D01*
X14227489Y12822010D01*
X14295310Y12838805D01*
X14361445Y12816268D01*
X14400485Y12771213D01*
X14490474Y12594597D01*
X14496196Y12586722D01*
X14606172Y12435354D01*
X14745354Y12296172D01*
X14904595Y12180476D01*
X14987455Y12138257D01*
X15079970Y12091118D01*
X15079972Y12091118D01*
X15079975Y12091116D01*
X15180317Y12058513D01*
X15267173Y12030291D01*
X15461578Y11999500D01*
X15461583Y11999500D01*
X15658422Y11999500D01*
X15852826Y12030291D01*
X15891355Y12042810D01*
X16040025Y12091116D01*
X16215405Y12180476D01*
X16374646Y12296172D01*
X16513828Y12435354D01*
X16629524Y12594595D01*
X16718884Y12769975D01*
X16779709Y12957174D01*
X16792102Y13035421D01*
X16810500Y13151578D01*
X16810500Y13348423D01*
X16779709Y13542827D01*
X16751487Y13629683D01*
X16718884Y13730025D01*
X16718882Y13730028D01*
X16718882Y13730030D01*
X16668821Y13828279D01*
X16629524Y13905405D01*
X16513828Y14064646D01*
X16374646Y14203828D01*
X16215405Y14319524D01*
X16126122Y14365016D01*
X16075327Y14412989D01*
X16058532Y14480810D01*
X16081069Y14546945D01*
X16135784Y14590397D01*
X16182418Y14599500D01*
X22470500Y14599500D01*
X22537539Y14579815D01*
X22583294Y14527011D01*
X22594500Y14475500D01*
X22594500Y3598991D01*
X22599490Y3535575D01*
X22599491Y3535568D01*
X22604335Y3504983D01*
X22619190Y3443105D01*
X22619192Y3443100D01*
X22676791Y3330055D01*
X22703471Y3293334D01*
X22712753Y3280559D01*
X22712754Y3280558D01*
X22802464Y3190849D01*
X22802466Y3190848D01*
X22802467Y3190847D01*
X22904381Y3138921D01*
X22919124Y3124997D01*
X22936806Y3115067D01*
X22944007Y3101497D01*
X22955177Y3090948D01*
X22960052Y3071263D01*
X22969558Y3053350D01*
X22968279Y3038040D01*
X22971973Y3023127D01*
X22965432Y3003934D01*
X22963745Y2983723D01*
X22950520Y2960174D01*
X22949436Y2956992D01*
X22946474Y2952966D01*
X22886718Y2875088D01*
X22848376Y2825120D01*
X22791948Y2783918D01*
X22722202Y2779763D01*
X22661281Y2813976D01*
X22651624Y2825120D01*
X22641957Y2837718D01*
X22553282Y2953282D01*
X22427841Y3049536D01*
X22418633Y3053350D01*
X22281762Y3110044D01*
X22281760Y3110045D01*
X22164361Y3125500D01*
X21685636Y3125500D01*
X21568246Y3110047D01*
X21568237Y3110044D01*
X21422160Y3049537D01*
X21296718Y2953282D01*
X21200463Y2827840D01*
X21139956Y2681763D01*
X21139955Y2681761D01*
X21124500Y2564362D01*
X21124500Y1935637D01*
X21139953Y1818247D01*
X21139956Y1818238D01*
X21172492Y1739688D01*
X21200464Y1672159D01*
X21296718Y1546718D01*
X21314145Y1533346D01*
X21355347Y1476917D01*
X21359501Y1407171D01*
X21326341Y1347292D01*
X21315484Y1336435D01*
X21315482Y1336432D01*
X21239061Y1204068D01*
X21239060Y1204065D01*
X21199500Y1056424D01*
X21199500Y903576D01*
X21228133Y796718D01*
X21239060Y755936D01*
X21239062Y755931D01*
X21261539Y716998D01*
X21278010Y649098D01*
X21261539Y593002D01*
X21239062Y554070D01*
X21239060Y554065D01*
X21199500Y406424D01*
X21199500Y253576D01*
X21232741Y129520D01*
X21239060Y105936D01*
X21239062Y105931D01*
X21261539Y66998D01*
X21278010Y-902D01*
X21261539Y-56998D01*
X21239062Y-95930D01*
X21239060Y-95935D01*
X21199500Y-243576D01*
X21199500Y-396424D01*
X21220191Y-473645D01*
X21237284Y-537435D01*
X21235621Y-607284D01*
X21227998Y-625815D01*
X21219193Y-643098D01*
X21219192Y-643100D01*
X21214736Y-671233D01*
X21214735Y-671232D01*
X21194500Y-798995D01*
X21194500Y-4001009D01*
X21199490Y-4064425D01*
X21199491Y-4064432D01*
X21204335Y-4095017D01*
X21219190Y-4156895D01*
X21219191Y-4156898D01*
X21219192Y-4156900D01*
X21266629Y-4250000D01*
X21276791Y-4269945D01*
X21308515Y-4313608D01*
X21312753Y-4319441D01*
X21312754Y-4319442D01*
X21402464Y-4409151D01*
X21402466Y-4409152D01*
X21402467Y-4409153D01*
X21515505Y-4466747D01*
X21515509Y-4466749D01*
X21573693Y-4485653D01*
X21573696Y-4485654D01*
X21613333Y-4491931D01*
X21698995Y-4505500D01*
X21699000Y-4505500D01*
X24450991Y-4505500D01*
X24451000Y-4505500D01*
X24514428Y-4500509D01*
X24545021Y-4495664D01*
X24606900Y-4480808D01*
X24719941Y-4423211D01*
X24769441Y-4387247D01*
X24769442Y-4387246D01*
X24859151Y-4297536D01*
X24916747Y-4184495D01*
X24917881Y-4181007D01*
X24935653Y-4126307D01*
X24935652Y-4126307D01*
X24935654Y-4126304D01*
X24945298Y-4065414D01*
X24955500Y-4001005D01*
X24955500Y-2920214D01*
X24975185Y-2853175D01*
X25027989Y-2807420D01*
X25097147Y-2797476D01*
X25145568Y-2815280D01*
X25959766Y-3327924D01*
X25959768Y-3327925D01*
X25959770Y-3327926D01*
X25992503Y-3342600D01*
X26063386Y-3374377D01*
X26116135Y-3389600D01*
X26228571Y-3405500D01*
X26228577Y-3405500D01*
X33475500Y-3405500D01*
X33542539Y-3425185D01*
X33588294Y-3477989D01*
X33599500Y-3529500D01*
X33599500Y-16670500D01*
X33579815Y-16737539D01*
X33527011Y-16783294D01*
X33475500Y-16794500D01*
X23098990Y-16794500D01*
X23035574Y-16799490D01*
X23035567Y-16799491D01*
X23004982Y-16804335D01*
X22943104Y-16819190D01*
X22943099Y-16819192D01*
X22830054Y-16876791D01*
X22780565Y-16912748D01*
X22780558Y-16912753D01*
X22780558Y-16912754D01*
X22720474Y-16972839D01*
X22690846Y-17002467D01*
X22633252Y-17115505D01*
X22633250Y-17115509D01*
X22614346Y-17173692D01*
X22594500Y-17298994D01*
X22594500Y-26770500D01*
X22574815Y-26837539D01*
X22522011Y-26883294D01*
X22470500Y-26894500D01*
X12074500Y-26894500D01*
X12007461Y-26874815D01*
X11961706Y-26822011D01*
X11950500Y-26770500D01*
X11950500Y-26681004D01*
X11923581Y-26545677D01*
X11923580Y-26545676D01*
X11923580Y-26545672D01*
X11923578Y-26545667D01*
X11870778Y-26418195D01*
X11870771Y-26418182D01*
X11794114Y-26303458D01*
X11794111Y-26303454D01*
X11696545Y-26205888D01*
X11696541Y-26205885D01*
X11581817Y-26129228D01*
X11581804Y-26129221D01*
X11454332Y-26076421D01*
X11454322Y-26076418D01*
X11323024Y-26050301D01*
X11261113Y-26017916D01*
X11259535Y-26016365D01*
X10061819Y-24818649D01*
X10028334Y-24757326D01*
X10025500Y-24730968D01*
X10025500Y-19818031D01*
X10045185Y-19750992D01*
X10097989Y-19705237D01*
X10167147Y-19695293D01*
X10230703Y-19724318D01*
X10237181Y-19730350D01*
X13743181Y-23236350D01*
X13776666Y-23297673D01*
X13779500Y-23324030D01*
X13779500Y-23426919D01*
X13789833Y-23512977D01*
X13843837Y-23649922D01*
X13843838Y-23649923D01*
X13870494Y-23685076D01*
X13895316Y-23750388D01*
X13880887Y-23818752D01*
X13870494Y-23834924D01*
X13843838Y-23870075D01*
X13789833Y-24007022D01*
X13779500Y-24093072D01*
X13779500Y-24446919D01*
X13789833Y-24532977D01*
X13843837Y-24669922D01*
X13843838Y-24669924D01*
X13932783Y-24787216D01*
X14016236Y-24850500D01*
X14050078Y-24876163D01*
X14187021Y-24930166D01*
X14273073Y-24940500D01*
X14726926Y-24940499D01*
X14812979Y-24930166D01*
X14949922Y-24876163D01*
X15023067Y-24820695D01*
X15044114Y-24812695D01*
X15063056Y-24800523D01*
X15084105Y-24797496D01*
X15088377Y-24795873D01*
X15097991Y-24795500D01*
X15215705Y-24795500D01*
X15215721Y-24795501D01*
X15223317Y-24795501D01*
X15270107Y-24795501D01*
X15304702Y-24800425D01*
X15467161Y-24847624D01*
X15467164Y-24847624D01*
X15467166Y-24847625D01*
X15503696Y-24850500D01*
X15503704Y-24850500D01*
X16121296Y-24850500D01*
X16121304Y-24850500D01*
X16157834Y-24847625D01*
X16157836Y-24847624D01*
X16157838Y-24847624D01*
X16199055Y-24835648D01*
X16314146Y-24802212D01*
X16454253Y-24719353D01*
X16569353Y-24604253D01*
X16585284Y-24577314D01*
X16636351Y-24529632D01*
X16705092Y-24517126D01*
X16769682Y-24543771D01*
X16797554Y-24575338D01*
X16856366Y-24670686D01*
X16856369Y-24670690D01*
X16979308Y-24793629D01*
X17127285Y-24884903D01*
X17127290Y-24884905D01*
X17292326Y-24939592D01*
X17394184Y-24949999D01*
X17394197Y-24950000D01*
X17437500Y-24950000D01*
X17937500Y-24950000D01*
X17980803Y-24950000D01*
X17980815Y-24949999D01*
X18082673Y-24939592D01*
X18247709Y-24884905D01*
X18247714Y-24884903D01*
X18395691Y-24793629D01*
X18518629Y-24670691D01*
X18609903Y-24522714D01*
X18609905Y-24522709D01*
X18664592Y-24357673D01*
X18674999Y-24255815D01*
X18675000Y-24255802D01*
X18675000Y-24000000D01*
X17937500Y-24000000D01*
X17937500Y-24950000D01*
X17437500Y-24950000D01*
X17437500Y-23500000D01*
X17937500Y-23500000D01*
X18675000Y-23500000D01*
X18675000Y-23244197D01*
X18674999Y-23244184D01*
X18664592Y-23142326D01*
X18609905Y-22977290D01*
X18609903Y-22977285D01*
X18518629Y-22829308D01*
X18395691Y-22706370D01*
X18247714Y-22615096D01*
X18247709Y-22615094D01*
X18082673Y-22560407D01*
X17980815Y-22550000D01*
X17937500Y-22550000D01*
X17937500Y-23500000D01*
X17437500Y-23500000D01*
X17437500Y-22550000D01*
X17394184Y-22550000D01*
X17292326Y-22560407D01*
X17127290Y-22615094D01*
X17127285Y-22615096D01*
X16979308Y-22706370D01*
X16856368Y-22829310D01*
X16797554Y-22924662D01*
X16745606Y-22971386D01*
X16676643Y-22982607D01*
X16612561Y-22954763D01*
X16585284Y-22922684D01*
X16569357Y-22895752D01*
X16569348Y-22895741D01*
X16454258Y-22780651D01*
X16454255Y-22780649D01*
X16454253Y-22780647D01*
X16314146Y-22697788D01*
X16314145Y-22697787D01*
X16314144Y-22697787D01*
X16314141Y-22697786D01*
X16157838Y-22652375D01*
X16157832Y-22652374D01*
X16121309Y-22649500D01*
X16121304Y-22649500D01*
X15503696Y-22649500D01*
X15503690Y-22649500D01*
X15467167Y-22652374D01*
X15467161Y-22652375D01*
X15310858Y-22697786D01*
X15310857Y-22697786D01*
X15218555Y-22752373D01*
X15150831Y-22769555D01*
X15084569Y-22747394D01*
X15067754Y-22733321D01*
X15067218Y-22732785D01*
X14949924Y-22643838D01*
X14949922Y-22643837D01*
X14812979Y-22589834D01*
X14812978Y-22589833D01*
X14726928Y-22579500D01*
X14726927Y-22579500D01*
X14624031Y-22579500D01*
X14594590Y-22570855D01*
X14564604Y-22564332D01*
X14559588Y-22560577D01*
X14556992Y-22559815D01*
X14536350Y-22543181D01*
X14385349Y-22392180D01*
X14351864Y-22330857D01*
X14356848Y-22261165D01*
X14398720Y-22205232D01*
X14464184Y-22180815D01*
X14473014Y-22180499D01*
X14726926Y-22180499D01*
X14812979Y-22170166D01*
X14949922Y-22116163D01*
X15023067Y-22060695D01*
X15044114Y-22052695D01*
X15063056Y-22040523D01*
X15084105Y-22037496D01*
X15088377Y-22035873D01*
X15097991Y-22035500D01*
X15225705Y-22035500D01*
X15225721Y-22035501D01*
X15233317Y-22035501D01*
X15248675Y-22035501D01*
X15303141Y-22050400D01*
X15303698Y-22049115D01*
X15310849Y-22052209D01*
X15310854Y-22052212D01*
X15340056Y-22060696D01*
X15467161Y-22097624D01*
X15467164Y-22097624D01*
X15467166Y-22097625D01*
X15503696Y-22100500D01*
X15503704Y-22100500D01*
X16121296Y-22100500D01*
X16121304Y-22100500D01*
X16157834Y-22097625D01*
X16157836Y-22097624D01*
X16157838Y-22097624D01*
X16199055Y-22085648D01*
X16314146Y-22052212D01*
X16454253Y-21969353D01*
X16569353Y-21854253D01*
X16585284Y-21827314D01*
X16636351Y-21779632D01*
X16705092Y-21767126D01*
X16769682Y-21793771D01*
X16797554Y-21825338D01*
X16856366Y-21920686D01*
X16856369Y-21920690D01*
X16979308Y-22043629D01*
X17127285Y-22134903D01*
X17127290Y-22134905D01*
X17292326Y-22189592D01*
X17394184Y-22199999D01*
X17394197Y-22200000D01*
X17437500Y-22200000D01*
X17937500Y-22200000D01*
X17980803Y-22200000D01*
X17980815Y-22199999D01*
X18082673Y-22189592D01*
X18247709Y-22134905D01*
X18247714Y-22134903D01*
X18395691Y-22043629D01*
X18518629Y-21920691D01*
X18609903Y-21772714D01*
X18609905Y-21772709D01*
X18664592Y-21607673D01*
X18674999Y-21505815D01*
X18675000Y-21505802D01*
X18675000Y-21250000D01*
X17937500Y-21250000D01*
X17937500Y-22200000D01*
X17437500Y-22200000D01*
X17437500Y-20750000D01*
X17937500Y-20750000D01*
X18675000Y-20750000D01*
X18675000Y-20494197D01*
X18674999Y-20494184D01*
X18664592Y-20392326D01*
X18609905Y-20227290D01*
X18609903Y-20227285D01*
X18518629Y-20079308D01*
X18395691Y-19956370D01*
X18247714Y-19865096D01*
X18247709Y-19865094D01*
X18082673Y-19810407D01*
X17980815Y-19800000D01*
X17937500Y-19800000D01*
X17937500Y-20750000D01*
X17437500Y-20750000D01*
X17437500Y-19800000D01*
X17394184Y-19800000D01*
X17292326Y-19810407D01*
X17127290Y-19865094D01*
X17127285Y-19865096D01*
X16979308Y-19956370D01*
X16856368Y-20079310D01*
X16797554Y-20174662D01*
X16745606Y-20221386D01*
X16676643Y-20232607D01*
X16612561Y-20204763D01*
X16585284Y-20172684D01*
X16569357Y-20145752D01*
X16569348Y-20145741D01*
X16454258Y-20030651D01*
X16454255Y-20030649D01*
X16454253Y-20030647D01*
X16314146Y-19947788D01*
X16314145Y-19947787D01*
X16314144Y-19947787D01*
X16314141Y-19947786D01*
X16157838Y-19902375D01*
X16157832Y-19902374D01*
X16121309Y-19899500D01*
X16121304Y-19899500D01*
X15503696Y-19899500D01*
X15503690Y-19899500D01*
X15467167Y-19902374D01*
X15467161Y-19902375D01*
X15310858Y-19947786D01*
X15310857Y-19947786D01*
X15224701Y-19998738D01*
X15156977Y-20015919D01*
X15090714Y-19993759D01*
X15074147Y-19977847D01*
X15073214Y-19978781D01*
X15067218Y-19972785D01*
X14949924Y-19883838D01*
X14949922Y-19883837D01*
X14812979Y-19829834D01*
X14812978Y-19829833D01*
X14726928Y-19819500D01*
X14726927Y-19819500D01*
X14624032Y-19819500D01*
X14594591Y-19810855D01*
X14564605Y-19804332D01*
X14559589Y-19800577D01*
X14556993Y-19799815D01*
X14536351Y-19783181D01*
X14405350Y-19652180D01*
X14371865Y-19590857D01*
X14376849Y-19521165D01*
X14418721Y-19465232D01*
X14484185Y-19440815D01*
X14493016Y-19440499D01*
X14726926Y-19440499D01*
X14812979Y-19430166D01*
X14949922Y-19376163D01*
X15023067Y-19320695D01*
X15044114Y-19312695D01*
X15063056Y-19300523D01*
X15084105Y-19297496D01*
X15088377Y-19295873D01*
X15097991Y-19295500D01*
X15215705Y-19295500D01*
X15215721Y-19295501D01*
X15223317Y-19295501D01*
X15270107Y-19295501D01*
X15304702Y-19300425D01*
X15467161Y-19347624D01*
X15467164Y-19347624D01*
X15467166Y-19347625D01*
X15503696Y-19350500D01*
X15503704Y-19350500D01*
X16121296Y-19350500D01*
X16121304Y-19350500D01*
X16157834Y-19347625D01*
X16157836Y-19347624D01*
X16157838Y-19347624D01*
X16214920Y-19331040D01*
X16314146Y-19302212D01*
X16454253Y-19219353D01*
X16569353Y-19104253D01*
X16585284Y-19077314D01*
X16636351Y-19029632D01*
X16705092Y-19017126D01*
X16769682Y-19043771D01*
X16797554Y-19075338D01*
X16856366Y-19170686D01*
X16856369Y-19170690D01*
X16979308Y-19293629D01*
X17127285Y-19384903D01*
X17127290Y-19384905D01*
X17292326Y-19439592D01*
X17394184Y-19449999D01*
X17394197Y-19450000D01*
X17437500Y-19450000D01*
X17937500Y-19450000D01*
X17980803Y-19450000D01*
X17980815Y-19449999D01*
X18082673Y-19439592D01*
X18247709Y-19384905D01*
X18247714Y-19384903D01*
X18395691Y-19293629D01*
X18518629Y-19170691D01*
X18609903Y-19022714D01*
X18609905Y-19022709D01*
X18664592Y-18857673D01*
X18674999Y-18755815D01*
X18675000Y-18755802D01*
X18675000Y-18500000D01*
X17937500Y-18500000D01*
X17937500Y-19450000D01*
X17437500Y-19450000D01*
X17437500Y-18000000D01*
X17937500Y-18000000D01*
X18675000Y-18000000D01*
X18675000Y-17744197D01*
X18674999Y-17744184D01*
X18664592Y-17642326D01*
X18609905Y-17477290D01*
X18609903Y-17477285D01*
X18518629Y-17329308D01*
X18395691Y-17206370D01*
X18247714Y-17115096D01*
X18247709Y-17115094D01*
X18082673Y-17060407D01*
X17980815Y-17050000D01*
X17937500Y-17050000D01*
X17937500Y-18000000D01*
X17437500Y-18000000D01*
X17437500Y-17050000D01*
X17394184Y-17050000D01*
X17292326Y-17060407D01*
X17127290Y-17115094D01*
X17127285Y-17115096D01*
X16979308Y-17206370D01*
X16856368Y-17329310D01*
X16797554Y-17424662D01*
X16745606Y-17471386D01*
X16676643Y-17482607D01*
X16612561Y-17454763D01*
X16585284Y-17422684D01*
X16569357Y-17395752D01*
X16569348Y-17395741D01*
X16454258Y-17280651D01*
X16454255Y-17280649D01*
X16454253Y-17280647D01*
X16314146Y-17197788D01*
X16314145Y-17197787D01*
X16314144Y-17197787D01*
X16314141Y-17197786D01*
X16157838Y-17152375D01*
X16157832Y-17152374D01*
X16121309Y-17149500D01*
X16121304Y-17149500D01*
X15503696Y-17149500D01*
X15503690Y-17149500D01*
X15467167Y-17152374D01*
X15467161Y-17152375D01*
X15310858Y-17197786D01*
X15310857Y-17197786D01*
X15218555Y-17252373D01*
X15150831Y-17269555D01*
X15084569Y-17247394D01*
X15067754Y-17233321D01*
X15067218Y-17232785D01*
X14949924Y-17143838D01*
X14949922Y-17143837D01*
X14812979Y-17089834D01*
X14812978Y-17089833D01*
X14726928Y-17079500D01*
X14726927Y-17079500D01*
X14624031Y-17079500D01*
X14594590Y-17070855D01*
X14564604Y-17064332D01*
X14559588Y-17060577D01*
X14556992Y-17059815D01*
X14536350Y-17043181D01*
X14385349Y-16892180D01*
X14351864Y-16830857D01*
X14356848Y-16761165D01*
X14398720Y-16705232D01*
X14464184Y-16680815D01*
X14473014Y-16680499D01*
X14726926Y-16680499D01*
X14812979Y-16670166D01*
X14949922Y-16616163D01*
X15023067Y-16560695D01*
X15044114Y-16552695D01*
X15063056Y-16540523D01*
X15084105Y-16537496D01*
X15088377Y-16535873D01*
X15097991Y-16535500D01*
X15225705Y-16535500D01*
X15225721Y-16535501D01*
X15233317Y-16535501D01*
X15248675Y-16535501D01*
X15303141Y-16550400D01*
X15303698Y-16549115D01*
X15310849Y-16552209D01*
X15310854Y-16552212D01*
X15340056Y-16560696D01*
X15467161Y-16597624D01*
X15467164Y-16597624D01*
X15467166Y-16597625D01*
X15503696Y-16600500D01*
X15503704Y-16600500D01*
X16121296Y-16600500D01*
X16121304Y-16600500D01*
X16157834Y-16597625D01*
X16157836Y-16597624D01*
X16157838Y-16597624D01*
X16199055Y-16585648D01*
X16314146Y-16552212D01*
X16454253Y-16469353D01*
X16569353Y-16354253D01*
X16585284Y-16327314D01*
X16636351Y-16279632D01*
X16705092Y-16267126D01*
X16769682Y-16293771D01*
X16797554Y-16325338D01*
X16856366Y-16420686D01*
X16856369Y-16420690D01*
X16979308Y-16543629D01*
X17127285Y-16634903D01*
X17127290Y-16634905D01*
X17292326Y-16689592D01*
X17394184Y-16699999D01*
X17394197Y-16700000D01*
X17437500Y-16700000D01*
X17937500Y-16700000D01*
X17980803Y-16700000D01*
X17980815Y-16699999D01*
X18082673Y-16689592D01*
X18247709Y-16634905D01*
X18247714Y-16634903D01*
X18395691Y-16543629D01*
X18518629Y-16420691D01*
X18609903Y-16272714D01*
X18609905Y-16272709D01*
X18664592Y-16107673D01*
X18674999Y-16005815D01*
X18675000Y-16005802D01*
X18675000Y-15750000D01*
X17937500Y-15750000D01*
X17937500Y-16700000D01*
X17437500Y-16700000D01*
X17437500Y-15250000D01*
X17937500Y-15250000D01*
X18675000Y-15250000D01*
X18675000Y-14994197D01*
X18674999Y-14994184D01*
X18664592Y-14892326D01*
X18609905Y-14727290D01*
X18609903Y-14727285D01*
X18518629Y-14579308D01*
X18395691Y-14456370D01*
X18247714Y-14365096D01*
X18247709Y-14365094D01*
X18082673Y-14310407D01*
X17980815Y-14300000D01*
X17937500Y-14300000D01*
X17937500Y-15250000D01*
X17437500Y-15250000D01*
X17437500Y-14300000D01*
X17394184Y-14300000D01*
X17292326Y-14310407D01*
X17127290Y-14365094D01*
X17127285Y-14365096D01*
X16979308Y-14456370D01*
X16856368Y-14579310D01*
X16797554Y-14674662D01*
X16745606Y-14721386D01*
X16676643Y-14732607D01*
X16612561Y-14704763D01*
X16585284Y-14672684D01*
X16569357Y-14645752D01*
X16569348Y-14645741D01*
X16454258Y-14530651D01*
X16454255Y-14530649D01*
X16454253Y-14530647D01*
X16314146Y-14447788D01*
X16314145Y-14447787D01*
X16314144Y-14447787D01*
X16314141Y-14447786D01*
X16157838Y-14402375D01*
X16157832Y-14402374D01*
X16121309Y-14399500D01*
X16121304Y-14399500D01*
X15503696Y-14399500D01*
X15503690Y-14399500D01*
X15467167Y-14402374D01*
X15467161Y-14402375D01*
X15310858Y-14447786D01*
X15310857Y-14447786D01*
X15224701Y-14498738D01*
X15156977Y-14515919D01*
X15090714Y-14493759D01*
X15074147Y-14477847D01*
X15073214Y-14478781D01*
X15067218Y-14472785D01*
X14949924Y-14383838D01*
X14949922Y-14383837D01*
X14812979Y-14329834D01*
X14812978Y-14329833D01*
X14726928Y-14319500D01*
X14726927Y-14319500D01*
X14624031Y-14319500D01*
X14594590Y-14310855D01*
X14564604Y-14304332D01*
X14559588Y-14300577D01*
X14556992Y-14299815D01*
X14536350Y-14283181D01*
X14385349Y-14132180D01*
X14351864Y-14070857D01*
X14356848Y-14001165D01*
X14398720Y-13945232D01*
X14464184Y-13920815D01*
X14473014Y-13920499D01*
X14726926Y-13920499D01*
X14812979Y-13910166D01*
X14949922Y-13856163D01*
X15023067Y-13800695D01*
X15044114Y-13792695D01*
X15063056Y-13780523D01*
X15084105Y-13777496D01*
X15088377Y-13775873D01*
X15097991Y-13775500D01*
X15231764Y-13775500D01*
X15294882Y-13792766D01*
X15310854Y-13802212D01*
X15310856Y-13802212D01*
X15310857Y-13802213D01*
X15467161Y-13847624D01*
X15467164Y-13847624D01*
X15467166Y-13847625D01*
X15503696Y-13850500D01*
X15503704Y-13850500D01*
X16121296Y-13850500D01*
X16121304Y-13850500D01*
X16157834Y-13847625D01*
X16157836Y-13847624D01*
X16157838Y-13847624D01*
X16225927Y-13827842D01*
X16314146Y-13802212D01*
X16454253Y-13719353D01*
X16569353Y-13604253D01*
X16585284Y-13577314D01*
X16636351Y-13529632D01*
X16705092Y-13517126D01*
X16769682Y-13543771D01*
X16797554Y-13575338D01*
X16856366Y-13670686D01*
X16856369Y-13670690D01*
X16979308Y-13793629D01*
X17127285Y-13884903D01*
X17127290Y-13884905D01*
X17292326Y-13939592D01*
X17394184Y-13949999D01*
X17394197Y-13950000D01*
X17437500Y-13950000D01*
X17937500Y-13950000D01*
X17980803Y-13950000D01*
X17980815Y-13949999D01*
X18082673Y-13939592D01*
X18247709Y-13884905D01*
X18247714Y-13884903D01*
X18395691Y-13793629D01*
X18518629Y-13670691D01*
X18609903Y-13522714D01*
X18609905Y-13522709D01*
X18664592Y-13357673D01*
X18674999Y-13255815D01*
X18675000Y-13255802D01*
X18675000Y-13000000D01*
X17937500Y-13000000D01*
X17937500Y-13950000D01*
X17437500Y-13950000D01*
X17437500Y-12500000D01*
X17937500Y-12500000D01*
X18675000Y-12500000D01*
X18675000Y-12244197D01*
X18674999Y-12244184D01*
X18664592Y-12142326D01*
X18609905Y-11977290D01*
X18609903Y-11977285D01*
X18518629Y-11829308D01*
X18395691Y-11706370D01*
X18247714Y-11615096D01*
X18247709Y-11615094D01*
X18082673Y-11560407D01*
X17980815Y-11550000D01*
X17937500Y-11550000D01*
X17937500Y-12500000D01*
X17437500Y-12500000D01*
X17437500Y-11550000D01*
X17394184Y-11550000D01*
X17292326Y-11560407D01*
X17127290Y-11615094D01*
X17127285Y-11615096D01*
X16979308Y-11706370D01*
X16856368Y-11829310D01*
X16797554Y-11924662D01*
X16745606Y-11971386D01*
X16676643Y-11982607D01*
X16612561Y-11954763D01*
X16585284Y-11922684D01*
X16569357Y-11895752D01*
X16569348Y-11895741D01*
X16454258Y-11780651D01*
X16454255Y-11780649D01*
X16454253Y-11780647D01*
X16314146Y-11697788D01*
X16314145Y-11697787D01*
X16314144Y-11697787D01*
X16314141Y-11697786D01*
X16157838Y-11652375D01*
X16157832Y-11652374D01*
X16121309Y-11649500D01*
X16121304Y-11649500D01*
X15503696Y-11649500D01*
X15503690Y-11649500D01*
X15467167Y-11652374D01*
X15467161Y-11652375D01*
X15310858Y-11697786D01*
X15310851Y-11697789D01*
X15229937Y-11745641D01*
X15162213Y-11762824D01*
X15095951Y-11740664D01*
X15068015Y-11713836D01*
X15067217Y-11712784D01*
X14949924Y-11623838D01*
X14949922Y-11623837D01*
X14812979Y-11569834D01*
X14812978Y-11569833D01*
X14726928Y-11559500D01*
X14726927Y-11559500D01*
X14624032Y-11559500D01*
X14556993Y-11539815D01*
X14536351Y-11523181D01*
X12365819Y-9352649D01*
X12332334Y-9291326D01*
X12329500Y-9264968D01*
X12329500Y-6872031D01*
X12349185Y-6804992D01*
X12401989Y-6759237D01*
X12471147Y-6749293D01*
X12534703Y-6778318D01*
X12541181Y-6784350D01*
X13338181Y-7581350D01*
X13371666Y-7642673D01*
X13374500Y-7669031D01*
X13374500Y-7989363D01*
X13389953Y-8106753D01*
X13389956Y-8106762D01*
X13395682Y-8120587D01*
X13450464Y-8252841D01*
X13546718Y-8378282D01*
X13672159Y-8474536D01*
X13758941Y-8510482D01*
X13769804Y-8514982D01*
X13824207Y-8558823D01*
X13846272Y-8625117D01*
X13837706Y-8675032D01*
X13810484Y-8744062D01*
X13799930Y-8770826D01*
X13789500Y-8857680D01*
X13789500Y-9222320D01*
X13795826Y-9275000D01*
X13799930Y-9309175D01*
X13854436Y-9447392D01*
X13854437Y-9447394D01*
X13854438Y-9447395D01*
X13944215Y-9565785D01*
X14046510Y-9643357D01*
X14062605Y-9655562D01*
X14062607Y-9655563D01*
X14104694Y-9672160D01*
X14200826Y-9710070D01*
X14287680Y-9720500D01*
X14287686Y-9720500D01*
X14712314Y-9720500D01*
X14712320Y-9720500D01*
X14799174Y-9710070D01*
X14937395Y-9655562D01*
X15055785Y-9565785D01*
X15145562Y-9447395D01*
X15200070Y-9309174D01*
X15210500Y-9222320D01*
X15210500Y-8954499D01*
X15230185Y-8887460D01*
X15282989Y-8841705D01*
X15334500Y-8830499D01*
X16466517Y-8830499D01*
X16466518Y-8830499D01*
X16560304Y-8815646D01*
X16673342Y-8758050D01*
X16763050Y-8668342D01*
X16820646Y-8555304D01*
X16820646Y-8555302D01*
X16820647Y-8555301D01*
X16832915Y-8477844D01*
X19065000Y-8477844D01*
X19071401Y-8537372D01*
X19071403Y-8537379D01*
X19121645Y-8672086D01*
X19121649Y-8672093D01*
X19207809Y-8787187D01*
X19207812Y-8787190D01*
X19322906Y-8873350D01*
X19322913Y-8873354D01*
X19457620Y-8923596D01*
X19457627Y-8923598D01*
X19517155Y-8929999D01*
X19517172Y-8930000D01*
X19930000Y-8930000D01*
X20430000Y-8930000D01*
X20842828Y-8930000D01*
X20842844Y-8929999D01*
X20902372Y-8923598D01*
X20902379Y-8923596D01*
X21037086Y-8873354D01*
X21037093Y-8873350D01*
X21152187Y-8787190D01*
X21152190Y-8787187D01*
X21238350Y-8672093D01*
X21238354Y-8672086D01*
X21288596Y-8537379D01*
X21288598Y-8537372D01*
X21294999Y-8477844D01*
X21295000Y-8477827D01*
X21295000Y-8000000D01*
X20430000Y-8000000D01*
X20430000Y-8930000D01*
X19930000Y-8930000D01*
X19930000Y-8000000D01*
X19065000Y-8000000D01*
X19065000Y-8477844D01*
X16832915Y-8477844D01*
X16835500Y-8461524D01*
X16835500Y-7948638D01*
X16835499Y-7038477D01*
X16835463Y-7038252D01*
X16835462Y-7038248D01*
X16832913Y-7022155D01*
X19065000Y-7022155D01*
X19065000Y-7500000D01*
X19930000Y-7500000D01*
X20430000Y-7500000D01*
X21295000Y-7500000D01*
X21295000Y-7022172D01*
X21294999Y-7022155D01*
X21288598Y-6962627D01*
X21288596Y-6962620D01*
X21238354Y-6827913D01*
X21238350Y-6827906D01*
X21152190Y-6712812D01*
X21152187Y-6712809D01*
X21037093Y-6626649D01*
X21037086Y-6626645D01*
X20902379Y-6576403D01*
X20902372Y-6576401D01*
X20842844Y-6570000D01*
X20430000Y-6570000D01*
X20430000Y-7500000D01*
X19930000Y-7500000D01*
X19930000Y-6570000D01*
X19517155Y-6570000D01*
X19457627Y-6576401D01*
X19457620Y-6576403D01*
X19322913Y-6626645D01*
X19322906Y-6626649D01*
X19207812Y-6712809D01*
X19207809Y-6712812D01*
X19121649Y-6827906D01*
X19121645Y-6827913D01*
X19071403Y-6962620D01*
X19071401Y-6962627D01*
X19065000Y-7022155D01*
X16832913Y-7022155D01*
X16832127Y-7017192D01*
X16820646Y-6944696D01*
X16763050Y-6831658D01*
X16763046Y-6831654D01*
X16763045Y-6831652D01*
X16673347Y-6741954D01*
X16673344Y-6741952D01*
X16673342Y-6741950D01*
X16582972Y-6695904D01*
X16560301Y-6684352D01*
X16466524Y-6669500D01*
X15207503Y-6669500D01*
X15140464Y-6649815D01*
X15094709Y-6597011D01*
X15084765Y-6527853D01*
X15092941Y-6498050D01*
X15110044Y-6456762D01*
X15125500Y-6339361D01*
X15125499Y-5860640D01*
X15125499Y-5860639D01*
X15125499Y-5860636D01*
X15110046Y-5743246D01*
X15110044Y-5743239D01*
X15110044Y-5743238D01*
X15049536Y-5597159D01*
X14953282Y-5471718D01*
X14827841Y-5375464D01*
X14827840Y-5375463D01*
X14824013Y-5372527D01*
X14821764Y-5369447D01*
X14818297Y-5367864D01*
X14801324Y-5341454D01*
X14782811Y-5316099D01*
X14781985Y-5311361D01*
X14780523Y-5309086D01*
X14775500Y-5274151D01*
X14775500Y-5262015D01*
X14795185Y-5194976D01*
X14796398Y-5193124D01*
X14870771Y-5081817D01*
X14870771Y-5081816D01*
X14870775Y-5081811D01*
X14923580Y-4954328D01*
X14934287Y-4900503D01*
X14950500Y-4818995D01*
X14950500Y-4681004D01*
X14923581Y-4545677D01*
X14923580Y-4545676D01*
X14923580Y-4545672D01*
X14917839Y-4531811D01*
X14870778Y-4418195D01*
X14870771Y-4418182D01*
X14794114Y-4303458D01*
X14794111Y-4303454D01*
X14696545Y-4205888D01*
X14696541Y-4205885D01*
X14581817Y-4129228D01*
X14581804Y-4129221D01*
X14454332Y-4076421D01*
X14454322Y-4076418D01*
X14318995Y-4049500D01*
X14318993Y-4049500D01*
X14181007Y-4049500D01*
X14181005Y-4049500D01*
X14045677Y-4076418D01*
X14045667Y-4076421D01*
X13918195Y-4129221D01*
X13918182Y-4129228D01*
X13803458Y-4205885D01*
X13803454Y-4205888D01*
X13705888Y-4303454D01*
X13705885Y-4303458D01*
X13629228Y-4418182D01*
X13629221Y-4418195D01*
X13576421Y-4545667D01*
X13576418Y-4545677D01*
X13549500Y-4681004D01*
X13549500Y-4681007D01*
X13549500Y-4818993D01*
X13549500Y-4818995D01*
X13549499Y-4818995D01*
X13576418Y-4954322D01*
X13576421Y-4954332D01*
X13629221Y-5081804D01*
X13629228Y-5081817D01*
X13703602Y-5193124D01*
X13709252Y-5211170D01*
X13719477Y-5227080D01*
X13723928Y-5258039D01*
X13724480Y-5259801D01*
X13724500Y-5262015D01*
X13724500Y-5274151D01*
X13704815Y-5341190D01*
X13675987Y-5372527D01*
X13672159Y-5375463D01*
X13672159Y-5375464D01*
X13670327Y-5376870D01*
X13546718Y-5471718D01*
X13450463Y-5597160D01*
X13389956Y-5743237D01*
X13389956Y-5743239D01*
X13375828Y-5850544D01*
X13347561Y-5914441D01*
X13289236Y-5952911D01*
X13219371Y-5953742D01*
X13165208Y-5922039D01*
X12816819Y-5573650D01*
X12783334Y-5512327D01*
X12780500Y-5485969D01*
X12780500Y-2081582D01*
X14025001Y-2081582D01*
X14031408Y-2152102D01*
X14031409Y-2152107D01*
X14081981Y-2314396D01*
X14169927Y-2459877D01*
X14290122Y-2580072D01*
X14435604Y-2668019D01*
X14435603Y-2668019D01*
X14597894Y-2718590D01*
X14597893Y-2718590D01*
X14668408Y-2724998D01*
X14668426Y-2724999D01*
X14674999Y-2724998D01*
X14675000Y-2724998D01*
X14675000Y-2000000D01*
X14025001Y-2000000D01*
X14025001Y-2081582D01*
X12780500Y-2081582D01*
X12780500Y-1971759D01*
X12780500Y-1971147D01*
X12775593Y-1952835D01*
X12760811Y-1897665D01*
X12744688Y-1837494D01*
X12675505Y-1717665D01*
X12577665Y-1619825D01*
X12577664Y-1619824D01*
X12573334Y-1615494D01*
X12573323Y-1615484D01*
X12376266Y-1418427D01*
X14025000Y-1418427D01*
X14025000Y-1500000D01*
X14675000Y-1500000D01*
X14675000Y-250000D01*
X14025001Y-250000D01*
X14025001Y-331582D01*
X14031408Y-402102D01*
X14031409Y-402107D01*
X14081981Y-564396D01*
X14169927Y-709877D01*
X14247369Y-787319D01*
X14280854Y-848642D01*
X14275870Y-918334D01*
X14247369Y-962681D01*
X14169928Y-1040121D01*
X14169927Y-1040122D01*
X14081980Y-1185604D01*
X14031409Y-1347893D01*
X14025000Y-1418427D01*
X12376266Y-1418427D01*
X10626266Y331573D01*
X14025000Y331573D01*
X14025000Y250000D01*
X14801000Y250000D01*
X14868039Y230315D01*
X14913794Y177511D01*
X14925000Y126000D01*
X14925000Y0D01*
X15051000Y0D01*
X15118039Y-19685D01*
X15163794Y-72489D01*
X15175000Y-124000D01*
X15175000Y-2724999D01*
X15181581Y-2724999D01*
X15252102Y-2718591D01*
X15252107Y-2718590D01*
X15414396Y-2668018D01*
X15559877Y-2580072D01*
X15680070Y-2459879D01*
X15705856Y-2417224D01*
X15757383Y-2370036D01*
X15826243Y-2358197D01*
X15890572Y-2385465D01*
X15910349Y-2405886D01*
X15946715Y-2453279D01*
X15946716Y-2453280D01*
X15946718Y-2453282D01*
X16072159Y-2549536D01*
X16218238Y-2610044D01*
X16335639Y-2625500D01*
X16814360Y-2625499D01*
X16814363Y-2625499D01*
X16931753Y-2610046D01*
X16931757Y-2610044D01*
X16931762Y-2610044D01*
X17077841Y-2549536D01*
X17203282Y-2453282D01*
X17287669Y-2343306D01*
X17344096Y-2302104D01*
X17413842Y-2297949D01*
X17433493Y-2304230D01*
X17568238Y-2360044D01*
X17685639Y-2375500D01*
X18314360Y-2375499D01*
X18314363Y-2375499D01*
X18431753Y-2360046D01*
X18431757Y-2360044D01*
X18431762Y-2360044D01*
X18577841Y-2299536D01*
X18703282Y-2203282D01*
X18799536Y-2077841D01*
X18860044Y-1931762D01*
X18875500Y-1814361D01*
X18875499Y-1335640D01*
X18875499Y-1335638D01*
X18875499Y-1335636D01*
X18860046Y-1218246D01*
X18860044Y-1218239D01*
X18860044Y-1218238D01*
X18799536Y-1072159D01*
X18703282Y-946718D01*
X18703280Y-946717D01*
X18703280Y-946716D01*
X18575120Y-848376D01*
X18533917Y-791948D01*
X18529762Y-722202D01*
X18563974Y-661282D01*
X18575120Y-651624D01*
X18597288Y-634614D01*
X18703282Y-553282D01*
X18799536Y-427841D01*
X18860044Y-281762D01*
X18860044Y-281760D01*
X18863154Y-274253D01*
X18865864Y-275375D01*
X18873024Y-263629D01*
X18884593Y-238297D01*
X18890955Y-234208D01*
X18894892Y-227749D01*
X18919943Y-215578D01*
X18943371Y-200523D01*
X18954114Y-198978D01*
X18957738Y-197218D01*
X18978306Y-195500D01*
X19075967Y-195500D01*
X19127780Y-209384D01*
X19128425Y-207829D01*
X19135928Y-210936D01*
X19135935Y-210940D01*
X19283576Y-250500D01*
X19283578Y-250500D01*
X20296422Y-250500D01*
X20296424Y-250500D01*
X20444065Y-210940D01*
X20576435Y-134516D01*
X20684516Y-26435D01*
X20760940Y105935D01*
X20800500Y253576D01*
X20800500Y406424D01*
X20760940Y554065D01*
X20738460Y593002D01*
X20721988Y660899D01*
X20738461Y717001D01*
X20760940Y755935D01*
X20800500Y903576D01*
X20800500Y1056424D01*
X20760940Y1204065D01*
X20684516Y1336435D01*
X20576435Y1444516D01*
X20462108Y1510523D01*
X20444067Y1520939D01*
X20444066Y1520940D01*
X20444065Y1520940D01*
X20296424Y1560500D01*
X19283576Y1560500D01*
X19135935Y1520940D01*
X19128425Y1517829D01*
X19127780Y1519385D01*
X19122481Y1517965D01*
X19110902Y1510523D01*
X19075967Y1505500D01*
X18999499Y1505500D01*
X18932460Y1525185D01*
X18886705Y1577989D01*
X18875499Y1629500D01*
X18875499Y1664364D01*
X18860046Y1781754D01*
X18860044Y1781759D01*
X18860044Y1781762D01*
X18799536Y1927841D01*
X18703282Y2053282D01*
X18703280Y2053283D01*
X18703280Y2053284D01*
X18575120Y2151624D01*
X18533917Y2208052D01*
X18529762Y2277798D01*
X18563974Y2338718D01*
X18575120Y2348376D01*
X18603954Y2370501D01*
X18703282Y2446718D01*
X18799536Y2572159D01*
X18860044Y2718238D01*
X18875500Y2835639D01*
X18875499Y3314360D01*
X18875499Y3314364D01*
X18860046Y3431754D01*
X18860044Y3431759D01*
X18860044Y3431762D01*
X18799536Y3577841D01*
X18703282Y3703282D01*
X18645950Y3747275D01*
X18604749Y3803702D01*
X18600594Y3873448D01*
X18618335Y3914538D01*
X18620775Y3918189D01*
X18673580Y4045672D01*
X18682716Y4091600D01*
X18700500Y4181005D01*
X18700500Y4318996D01*
X18673581Y4454323D01*
X18673580Y4454324D01*
X18673580Y4454328D01*
X18669346Y4464550D01*
X18620778Y4581805D01*
X18620771Y4581818D01*
X18544114Y4696542D01*
X18544111Y4696546D01*
X18446545Y4794112D01*
X18446541Y4794115D01*
X18331817Y4870772D01*
X18331804Y4870779D01*
X18204332Y4923579D01*
X18204322Y4923582D01*
X18068995Y4950500D01*
X18068993Y4950500D01*
X17931007Y4950500D01*
X17931005Y4950500D01*
X17795677Y4923582D01*
X17795667Y4923579D01*
X17668195Y4870779D01*
X17668182Y4870772D01*
X17553458Y4794115D01*
X17553454Y4794112D01*
X17455888Y4696546D01*
X17455885Y4696542D01*
X17379228Y4581818D01*
X17379223Y4581808D01*
X17364561Y4546410D01*
X17320720Y4492006D01*
X17254425Y4469942D01*
X17186726Y4487222D01*
X17139116Y4538359D01*
X17135439Y4546410D01*
X17124414Y4573026D01*
X17120775Y4581811D01*
X17120773Y4581814D01*
X17120771Y4581818D01*
X17044114Y4696542D01*
X17044111Y4696546D01*
X16946545Y4794112D01*
X16946541Y4794115D01*
X16831817Y4870772D01*
X16831804Y4870779D01*
X16704332Y4923579D01*
X16704322Y4923582D01*
X16568995Y4950500D01*
X16568993Y4950500D01*
X16431007Y4950500D01*
X16431005Y4950500D01*
X16295677Y4923582D01*
X16295667Y4923579D01*
X16168195Y4870779D01*
X16168182Y4870772D01*
X16053458Y4794115D01*
X16053454Y4794112D01*
X15962681Y4703338D01*
X15901358Y4669853D01*
X15831666Y4674837D01*
X15787319Y4703338D01*
X15696545Y4794112D01*
X15696541Y4794115D01*
X15581817Y4870772D01*
X15581804Y4870779D01*
X15454332Y4923579D01*
X15454322Y4923582D01*
X15318995Y4950500D01*
X15318993Y4950500D01*
X15181007Y4950500D01*
X15181005Y4950500D01*
X15045677Y4923582D01*
X15045667Y4923579D01*
X14918195Y4870779D01*
X14918182Y4870772D01*
X14803458Y4794115D01*
X14803454Y4794112D01*
X14705888Y4696546D01*
X14705885Y4696542D01*
X14629228Y4581818D01*
X14629221Y4581805D01*
X14576421Y4454333D01*
X14576418Y4454323D01*
X14549500Y4318996D01*
X14549500Y4318995D01*
X14549500Y4318993D01*
X14549500Y4181007D01*
X14549500Y4181005D01*
X14549499Y4181005D01*
X14576418Y4045678D01*
X14576421Y4045668D01*
X14629221Y3918196D01*
X14629228Y3918183D01*
X14703602Y3806876D01*
X14724480Y3740199D01*
X14724500Y3737985D01*
X14724500Y3337421D01*
X14704815Y3270382D01*
X14699304Y3262496D01*
X14604437Y3137395D01*
X14604436Y3137393D01*
X14549930Y2999176D01*
X14547322Y2977461D01*
X14539500Y2912320D01*
X14539500Y2547680D01*
X14548391Y2473640D01*
X14549930Y2460825D01*
X14604436Y2322609D01*
X14608594Y2315214D01*
X14606761Y2314184D01*
X14627502Y2259610D01*
X14613072Y2191247D01*
X14606314Y2180732D01*
X14604436Y2177392D01*
X14549930Y2039176D01*
X14549318Y2034080D01*
X14539500Y1952320D01*
X14539500Y1587680D01*
X14542764Y1560500D01*
X14549930Y1500825D01*
X14604436Y1362608D01*
X14604437Y1362606D01*
X14637510Y1318993D01*
X14694215Y1244215D01*
X14755420Y1197803D01*
X14796942Y1141613D01*
X14801495Y1071892D01*
X14767630Y1010777D01*
X14706101Y977673D01*
X14680502Y975000D01*
X14668418Y975000D01*
X14597897Y968592D01*
X14597892Y968591D01*
X14435603Y918019D01*
X14290122Y830073D01*
X14169927Y709878D01*
X14081980Y564396D01*
X14031409Y402107D01*
X14025000Y331573D01*
X10626266Y331573D01*
X9392245Y1565594D01*
X9392243Y1565597D01*
X9287336Y1670504D01*
X9287331Y1670508D01*
X9167508Y1739687D01*
X9167501Y1739690D01*
X9137736Y1747666D01*
X9137736Y1747665D01*
X9103107Y1756944D01*
X9033853Y1775501D01*
X8895487Y1775501D01*
X8887891Y1775501D01*
X8887875Y1775500D01*
X8017961Y1775500D01*
X7950922Y1795185D01*
X7905167Y1847989D01*
X7895223Y1917147D01*
X7903400Y1946952D01*
X7923578Y1995668D01*
X7923580Y1995672D01*
X7946840Y2112607D01*
X7950500Y2131005D01*
X7950500Y2268996D01*
X7923581Y2404323D01*
X7923580Y2404324D01*
X7923580Y2404328D01*
X7920808Y2411021D01*
X7913339Y2480491D01*
X7944615Y2542970D01*
X7972249Y2565206D01*
X8065377Y2620281D01*
X8065383Y2620286D01*
X8179714Y2734617D01*
X8179721Y2734626D01*
X8262031Y2873805D01*
X8304504Y3020000D01*
X6885068Y3020000D01*
X6881044Y3021182D01*
X6876953Y3020266D01*
X6847807Y3030941D01*
X6818029Y3039685D01*
X6814161Y3043265D01*
X6811345Y3044296D01*
X6788379Y3067126D01*
X6786242Y3069104D01*
X6786006Y3069415D01*
X6714687Y3164687D01*
X6712647Y3166214D01*
X6705910Y3175104D01*
X6696402Y3200142D01*
X6683570Y3223642D01*
X6684189Y3232304D01*
X6681106Y3240423D01*
X6686643Y3266623D01*
X6688554Y3293334D01*
X6694120Y3301995D01*
X6695555Y3308783D01*
X6703927Y3317256D01*
X6710451Y3327406D01*
X6709372Y3328214D01*
X6714685Y3335312D01*
X6714687Y3335313D01*
X6796628Y3444774D01*
X6796629Y3444778D01*
X6800876Y3452554D01*
X6803445Y3451152D01*
X6836467Y3495265D01*
X6901931Y3519684D01*
X6910780Y3520000D01*
X8313237Y3520000D01*
X8349366Y3546966D01*
X8416726Y3552340D01*
X8431002Y3549501D01*
X8431005Y3549500D01*
X8431007Y3549500D01*
X8568995Y3549500D01*
X8668815Y3569356D01*
X8704328Y3576420D01*
X8815305Y3622388D01*
X8831804Y3629222D01*
X8831804Y3629223D01*
X8831811Y3629225D01*
X8946542Y3705886D01*
X9044114Y3803458D01*
X9120775Y3918189D01*
X9173580Y4045672D01*
X9182716Y4091600D01*
X9200500Y4181005D01*
X9200500Y4318996D01*
X9173581Y4454323D01*
X9173580Y4454324D01*
X9173580Y4454328D01*
X9169346Y4464550D01*
X9120778Y4581805D01*
X9120771Y4581818D01*
X9044114Y4696542D01*
X9044111Y4696546D01*
X8946545Y4794112D01*
X8946541Y4794115D01*
X8831817Y4870772D01*
X8831804Y4870779D01*
X8704332Y4923579D01*
X8704322Y4923582D01*
X8568995Y4950500D01*
X8568993Y4950500D01*
X8431007Y4950500D01*
X8431005Y4950500D01*
X8295677Y4923582D01*
X8295667Y4923579D01*
X8168195Y4870779D01*
X8168182Y4870772D01*
X8101264Y4826058D01*
X8034586Y4805180D01*
X7967206Y4823665D01*
X7957449Y4830355D01*
X7937393Y4845564D01*
X7799175Y4900070D01*
X7786766Y4901560D01*
X7712320Y4910500D01*
X7287680Y4910500D01*
X7222539Y4902678D01*
X7200824Y4900070D01*
X7062607Y4845564D01*
X7062605Y4845563D01*
X6977065Y4780696D01*
X6911753Y4755873D01*
X6902140Y4755500D01*
X6231796Y4755500D01*
X6231780Y4755501D01*
X6224184Y4755501D01*
X6085817Y4755501D01*
X5952165Y4719689D01*
X5952163Y4719689D01*
X5952163Y4719688D01*
X5912074Y4696542D01*
X5912073Y4696542D01*
X5832338Y4650508D01*
X5832333Y4650504D01*
X5734493Y4552663D01*
X5518648Y4336819D01*
X5457325Y4303334D01*
X5430967Y4300500D01*
X4929518Y4300500D01*
X4929509Y4300499D01*
X4872885Y4294413D01*
X4744773Y4246628D01*
X4635313Y4164687D01*
X4553373Y4055229D01*
X4549811Y4045678D01*
X4515739Y3954328D01*
X4505587Y3927111D01*
X4499500Y3870502D01*
X4499500Y3691951D01*
X4479815Y3624912D01*
X4473882Y3616472D01*
X4472741Y3614985D01*
X4472737Y3614979D01*
X4414800Y3475106D01*
X4414800Y3475104D01*
X4404911Y3400001D01*
X4404912Y3400000D01*
X4524819Y3400000D01*
X4527753Y3399139D01*
X4530724Y3399859D01*
X4561064Y3389358D01*
X4591858Y3380315D01*
X4594730Y3377705D01*
X4596750Y3377005D01*
X4613605Y3360546D01*
X4622293Y3352648D01*
X4623193Y3351503D01*
X4635313Y3335313D01*
X4636799Y3334201D01*
X4642738Y3326648D01*
X4653087Y3300794D01*
X4666430Y3276358D01*
X4665890Y3268810D01*
X4668703Y3261782D01*
X4663432Y3234443D01*
X4661446Y3206666D01*
X4656634Y3199180D01*
X4655477Y3193176D01*
X4647192Y3184489D01*
X4639547Y3172593D01*
X4640627Y3171785D01*
X4624085Y3149688D01*
X4568151Y3107818D01*
X4524819Y3100000D01*
X4404912Y3100000D01*
X4414800Y3024897D01*
X4414801Y3024892D01*
X4472735Y2885024D01*
X4472738Y2885018D01*
X4473875Y2883537D01*
X4474444Y2882063D01*
X4476800Y2877984D01*
X4476163Y2877617D01*
X4499070Y2818368D01*
X4499500Y2808051D01*
X4499500Y2629520D01*
X4499501Y2629510D01*
X4505587Y2572887D01*
X4505589Y2572882D01*
X4516610Y2543332D01*
X4521594Y2473640D01*
X4516610Y2456668D01*
X4505589Y2427122D01*
X4505587Y2427111D01*
X4499500Y2370501D01*
X4499500Y2129520D01*
X4499501Y2129510D01*
X4505587Y2072887D01*
X4505589Y2072882D01*
X4516610Y2043332D01*
X4521594Y1973640D01*
X4516610Y1956668D01*
X4505589Y1927122D01*
X4505587Y1927111D01*
X4499500Y1870501D01*
X4499500Y1629520D01*
X4499501Y1629510D01*
X4505587Y1572887D01*
X4505589Y1572882D01*
X4516610Y1543332D01*
X4521594Y1473640D01*
X4516610Y1456668D01*
X4505589Y1427122D01*
X4505587Y1427111D01*
X4499500Y1370501D01*
X4499500Y1129520D01*
X4499501Y1129510D01*
X4505587Y1072887D01*
X4505589Y1072882D01*
X4516610Y1043332D01*
X4521594Y973640D01*
X4516610Y956668D01*
X4505589Y927122D01*
X4505587Y927111D01*
X4499500Y870501D01*
X4499500Y629520D01*
X4499501Y629510D01*
X4505587Y572887D01*
X4505589Y572882D01*
X4516610Y543332D01*
X4521594Y473640D01*
X4516610Y456668D01*
X4505589Y427122D01*
X4505587Y427111D01*
X4499500Y370501D01*
X4499500Y129520D01*
X4499501Y129510D01*
X4505587Y72887D01*
X4505589Y72882D01*
X4516610Y43332D01*
X4521594Y-26360D01*
X4516610Y-43332D01*
X4505589Y-72878D01*
X4505587Y-72889D01*
X4499500Y-129499D01*
X4499500Y-370480D01*
X4499501Y-370490D01*
X4505587Y-427113D01*
X4505589Y-427118D01*
X4516610Y-456668D01*
X4521594Y-526360D01*
X4516610Y-543332D01*
X4505589Y-572878D01*
X4505587Y-572889D01*
X4499500Y-629499D01*
X4499500Y-870480D01*
X4499501Y-870490D01*
X4505587Y-927113D01*
X4505589Y-927118D01*
X4516610Y-956668D01*
X4521594Y-1026360D01*
X4516610Y-1043332D01*
X4505589Y-1072878D01*
X4505587Y-1072889D01*
X4499500Y-1129499D01*
X4499500Y-1370480D01*
X4499501Y-1370490D01*
X4505587Y-1427113D01*
X4505589Y-1427118D01*
X4516610Y-1456668D01*
X4521594Y-1526360D01*
X4516610Y-1543332D01*
X4505589Y-1572878D01*
X4505587Y-1572889D01*
X4499500Y-1629499D01*
X4499500Y-1870480D01*
X4499501Y-1870490D01*
X4505587Y-1927113D01*
X4505589Y-1927118D01*
X4516610Y-1956668D01*
X4521594Y-2026360D01*
X4516610Y-2043332D01*
X4505589Y-2072878D01*
X4505587Y-2072889D01*
X4499500Y-2129499D01*
X4499500Y-2370480D01*
X4499501Y-2370490D01*
X4505587Y-2427113D01*
X4505589Y-2427118D01*
X4516610Y-2456668D01*
X4521594Y-2526360D01*
X4516610Y-2543332D01*
X4505589Y-2572878D01*
X4505587Y-2572889D01*
X4499500Y-2629498D01*
X4499500Y-2786788D01*
X4490855Y-2816227D01*
X4484333Y-2846213D01*
X4480577Y-2851229D01*
X4479815Y-2853827D01*
X4463183Y-2874468D01*
X4447884Y-2889766D01*
X4410317Y-2927335D01*
X4410315Y-2927336D01*
X4410314Y-2927337D01*
X4410315Y-2927337D01*
X4153496Y-3184155D01*
X4153492Y-3184160D01*
X4084312Y-3303984D01*
X4081847Y-3313185D01*
X4065418Y-3374500D01*
X4058623Y-3399859D01*
X4048499Y-3437640D01*
X4048499Y-3585994D01*
X4048500Y-3586007D01*
X4048500Y-3916382D01*
X4048499Y-3916400D01*
X4048499Y-3923995D01*
X4048499Y-4062361D01*
X4055286Y-4087692D01*
X4073830Y-4156899D01*
X4084310Y-4196010D01*
X4084313Y-4196017D01*
X4153492Y-4315839D01*
X4153496Y-4315844D01*
X4187709Y-4350057D01*
X4221194Y-4411380D01*
X4216210Y-4481072D01*
X4174338Y-4537005D01*
X4108874Y-4561422D01*
X4056694Y-4553920D01*
X4055227Y-4553372D01*
X4055226Y-4553372D01*
X3927114Y-4505588D01*
X3927112Y-4505587D01*
X3927110Y-4505587D01*
X3870501Y-4499500D01*
X3691950Y-4499500D01*
X3638385Y-4487334D01*
X3559677Y-4449635D01*
X3536083Y-4428423D01*
X3511386Y-4408521D01*
X3510292Y-4405236D01*
X3507718Y-4402922D01*
X3499338Y-4372324D01*
X3489321Y-4342227D01*
X3489724Y-4337218D01*
X3489263Y-4335534D01*
X3490065Y-4332973D01*
X3491625Y-4313608D01*
X3500500Y-4268994D01*
X3500500Y-4131004D01*
X3473581Y-3995677D01*
X3473580Y-3995676D01*
X3473580Y-3995672D01*
X3456408Y-3954215D01*
X3420778Y-3868195D01*
X3420771Y-3868182D01*
X3344114Y-3753458D01*
X3344111Y-3753454D01*
X3246545Y-3655888D01*
X3246541Y-3655885D01*
X3131817Y-3579228D01*
X3131804Y-3579221D01*
X3004332Y-3526421D01*
X3004322Y-3526418D01*
X2868995Y-3499500D01*
X2868993Y-3499500D01*
X2731007Y-3499500D01*
X2731005Y-3499500D01*
X2595677Y-3526418D01*
X2595667Y-3526421D01*
X2468195Y-3579221D01*
X2468182Y-3579228D01*
X2353458Y-3655885D01*
X2353454Y-3655888D01*
X2255888Y-3753454D01*
X2255885Y-3753458D01*
X2179228Y-3868182D01*
X2179223Y-3868192D01*
X2129205Y-3988946D01*
X2085364Y-4043349D01*
X2019069Y-4065414D01*
X1951370Y-4048135D01*
X1903760Y-3996997D01*
X1900083Y-3988945D01*
X1870778Y-3918194D01*
X1870771Y-3918182D01*
X1794114Y-3803458D01*
X1794111Y-3803454D01*
X1696545Y-3705888D01*
X1696541Y-3705885D01*
X1581817Y-3629228D01*
X1581804Y-3629221D01*
X1454332Y-3576421D01*
X1454322Y-3576418D01*
X1318995Y-3549500D01*
X1318993Y-3549500D01*
X1181007Y-3549500D01*
X1181005Y-3549500D01*
X1045677Y-3576418D01*
X1045667Y-3576421D01*
X918195Y-3629221D01*
X918182Y-3629228D01*
X803458Y-3705885D01*
X803454Y-3705888D01*
X705888Y-3803454D01*
X705885Y-3803458D01*
X629228Y-3918182D01*
X629221Y-3918195D01*
X576421Y-4045667D01*
X576418Y-4045677D01*
X549500Y-4181004D01*
X549500Y-4318993D01*
X557177Y-4357592D01*
X550948Y-4427183D01*
X508084Y-4482360D01*
X442194Y-4505603D01*
X422305Y-4505071D01*
X370485Y-4499500D01*
X129519Y-4499500D01*
X129509Y-4499501D01*
X72886Y-4505587D01*
X72881Y-4505589D01*
X43332Y-4516610D01*
X-26360Y-4521594D01*
X-43332Y-4516610D01*
X-72879Y-4505589D01*
X-72890Y-4505587D01*
X-129507Y-4499500D01*
X-370481Y-4499500D01*
X-370491Y-4499501D01*
X-427114Y-4505587D01*
X-427119Y-4505589D01*
X-456668Y-4516610D01*
X-526360Y-4521594D01*
X-543332Y-4516610D01*
X-572879Y-4505589D01*
X-572890Y-4505587D01*
X-629507Y-4499500D01*
X-870481Y-4499500D01*
X-870491Y-4499501D01*
X-927114Y-4505587D01*
X-927119Y-4505589D01*
X-956668Y-4516610D01*
X-1026360Y-4521594D01*
X-1043332Y-4516610D01*
X-1072879Y-4505589D01*
X-1072890Y-4505587D01*
X-1129507Y-4499500D01*
X-1370481Y-4499500D01*
X-1370491Y-4499501D01*
X-1427114Y-4505587D01*
X-1427119Y-4505589D01*
X-1456668Y-4516610D01*
X-1526360Y-4521594D01*
X-1543332Y-4516610D01*
X-1572879Y-4505589D01*
X-1572890Y-4505587D01*
X-1629507Y-4499500D01*
X-1870481Y-4499500D01*
X-1870491Y-4499501D01*
X-1927114Y-4505587D01*
X-1927119Y-4505589D01*
X-1956668Y-4516610D01*
X-2026360Y-4521594D01*
X-2043332Y-4516610D01*
X-2072879Y-4505589D01*
X-2072890Y-4505587D01*
X-2129507Y-4499500D01*
X-2370481Y-4499500D01*
X-2370491Y-4499501D01*
X-2427114Y-4505587D01*
X-2427119Y-4505589D01*
X-2456668Y-4516610D01*
X-2526360Y-4521594D01*
X-2543332Y-4516610D01*
X-2572879Y-4505589D01*
X-2572890Y-4505587D01*
X-2629507Y-4499500D01*
X-2870481Y-4499500D01*
X-2870491Y-4499501D01*
X-2927114Y-4505587D01*
X-2927119Y-4505589D01*
X-2956668Y-4516610D01*
X-3026360Y-4521594D01*
X-3043332Y-4516610D01*
X-3072879Y-4505589D01*
X-3072890Y-4505587D01*
X-3129507Y-4499500D01*
X-3370481Y-4499500D01*
X-3370491Y-4499501D01*
X-3427114Y-4505587D01*
X-3427119Y-4505589D01*
X-3456668Y-4516610D01*
X-3526360Y-4521594D01*
X-3543332Y-4516610D01*
X-3572879Y-4505589D01*
X-3572890Y-4505587D01*
X-3629507Y-4499500D01*
X-3870481Y-4499500D01*
X-3870491Y-4499501D01*
X-3927115Y-4505587D01*
X-4055227Y-4553372D01*
X-4164687Y-4635313D01*
X-4246627Y-4744771D01*
X-4294413Y-4872889D01*
X-4300500Y-4929498D01*
X-4300500Y-6420481D01*
X-4300499Y-6420490D01*
X-4294413Y-6477114D01*
X-4257379Y-6576403D01*
X-4246628Y-6605226D01*
X-4164687Y-6714687D01*
X-4055226Y-6796628D01*
X-3927114Y-6844412D01*
X-3870485Y-6850500D01*
X-3629516Y-6850499D01*
X-3572886Y-6844412D01*
X-3543336Y-6833389D01*
X-3473647Y-6828403D01*
X-3456681Y-6833383D01*
X-3427114Y-6844412D01*
X-3370485Y-6850500D01*
X-3129516Y-6850499D01*
X-3072886Y-6844412D01*
X-3043336Y-6833389D01*
X-2973647Y-6828403D01*
X-2956681Y-6833383D01*
X-2927114Y-6844412D01*
X-2870485Y-6850500D01*
X-2629516Y-6850499D01*
X-2572886Y-6844412D01*
X-2543336Y-6833389D01*
X-2473647Y-6828403D01*
X-2456681Y-6833383D01*
X-2427114Y-6844412D01*
X-2370485Y-6850500D01*
X-2129516Y-6850499D01*
X-2072886Y-6844412D01*
X-2043336Y-6833389D01*
X-1973647Y-6828403D01*
X-1956681Y-6833383D01*
X-1927114Y-6844412D01*
X-1870485Y-6850500D01*
X-1629516Y-6850499D01*
X-1572886Y-6844412D01*
X-1543336Y-6833389D01*
X-1473647Y-6828403D01*
X-1456681Y-6833383D01*
X-1427114Y-6844412D01*
X-1370485Y-6850500D01*
X-1143032Y-6850499D01*
X-1075992Y-6870183D01*
X-1030237Y-6922987D01*
X-1020293Y-6992146D01*
X-1049318Y-7055701D01*
X-1055350Y-7062180D01*
X-1681350Y-7688181D01*
X-1742673Y-7721666D01*
X-1769031Y-7724500D01*
X-2222622Y-7724500D01*
X-2222638Y-7724499D01*
X-2230234Y-7724499D01*
X-2368601Y-7724499D01*
X-2486466Y-7756080D01*
X-2502257Y-7760312D01*
X-2622080Y-7829492D01*
X-2622086Y-7829497D01*
X-4221504Y-9428915D01*
X-4221508Y-9428920D01*
X-4290687Y-9548743D01*
X-4290690Y-9548750D01*
X-4291475Y-9551681D01*
X-4292811Y-9553872D01*
X-4293797Y-9556253D01*
X-4294169Y-9556099D01*
X-4298864Y-9563799D01*
X-4301715Y-9577704D01*
X-4316690Y-9593039D01*
X-4327846Y-9611338D01*
X-4340613Y-9617538D01*
X-4350529Y-9627693D01*
X-4371417Y-9632498D01*
X-4390696Y-9641861D01*
X-4404789Y-9640174D01*
X-4418621Y-9643357D01*
X-4438790Y-9636106D01*
X-4460071Y-9633560D01*
X-4472299Y-9624059D01*
X-4484371Y-9619720D01*
X-4509621Y-9595064D01*
X-4546718Y-9546718D01*
X-4546720Y-9546716D01*
X-4550698Y-9541532D01*
X-4575892Y-9476363D01*
X-4573939Y-9441854D01*
X-4571365Y-9428917D01*
X-4563616Y-9389957D01*
X-4549500Y-9318995D01*
X-4549500Y-9181004D01*
X-4576419Y-9045677D01*
X-4576420Y-9045676D01*
X-4576420Y-9045672D01*
X-4614185Y-8954499D01*
X-4629222Y-8918195D01*
X-4629229Y-8918182D01*
X-4705886Y-8803458D01*
X-4705889Y-8803454D01*
X-4803455Y-8705888D01*
X-4803459Y-8705885D01*
X-4918183Y-8629228D01*
X-4918196Y-8629221D01*
X-5045668Y-8576421D01*
X-5045678Y-8576418D01*
X-5181005Y-8549500D01*
X-5181007Y-8549500D01*
X-5318993Y-8549500D01*
X-5318995Y-8549500D01*
X-5454323Y-8576418D01*
X-5454333Y-8576421D01*
X-5581805Y-8629221D01*
X-5581818Y-8629228D01*
X-5696542Y-8705885D01*
X-5696546Y-8705888D01*
X-5794112Y-8803454D01*
X-5794115Y-8803458D01*
X-5870772Y-8918182D01*
X-5870779Y-8918195D01*
X-5923579Y-9045667D01*
X-5923582Y-9045677D01*
X-5950500Y-9181004D01*
X-5950500Y-9318997D01*
X-5926062Y-9441855D01*
X-5932289Y-9511446D01*
X-5949303Y-9541532D01*
X-6049536Y-9672157D01*
X-6110044Y-9818237D01*
X-6110045Y-9818239D01*
X-6125500Y-9935638D01*
X-6125500Y-10414363D01*
X-6110047Y-10531753D01*
X-6110044Y-10531762D01*
X-6049536Y-10677841D01*
X-5953282Y-10803282D01*
X-5860467Y-10874501D01*
X-5825120Y-10901624D01*
X-5783918Y-10958053D01*
X-5779763Y-11027799D01*
X-5813976Y-11088719D01*
X-5825120Y-11098376D01*
X-5953282Y-11196718D01*
X-6049537Y-11322160D01*
X-6110044Y-11468237D01*
X-6110045Y-11468239D01*
X-6125500Y-11585638D01*
X-6125500Y-12064363D01*
X-6110047Y-12181753D01*
X-6110044Y-12181762D01*
X-6059399Y-12304031D01*
X-6049536Y-12327841D01*
X-5953282Y-12453282D01*
X-5827841Y-12549536D01*
X-5827840Y-12549536D01*
X-5827839Y-12549537D01*
X-5822342Y-12551814D01*
X-5767938Y-12595654D01*
X-5750020Y-12634279D01*
X-5739689Y-12672833D01*
X-5739687Y-12672838D01*
X-5670508Y-12792661D01*
X-5670504Y-12792666D01*
X-5565600Y-12897570D01*
X-5565594Y-12897575D01*
X-5093635Y-13369534D01*
X-5060150Y-13430857D01*
X-5059699Y-13433023D01*
X-5033582Y-13564322D01*
X-5033579Y-13564332D01*
X-4980779Y-13691804D01*
X-4980772Y-13691817D01*
X-4904115Y-13806541D01*
X-4904112Y-13806545D01*
X-4806546Y-13904111D01*
X-4806542Y-13904114D01*
X-4691818Y-13980771D01*
X-4691805Y-13980778D01*
X-4564333Y-14033578D01*
X-4564328Y-14033580D01*
X-4484112Y-14049536D01*
X-4433025Y-14059698D01*
X-4371114Y-14092083D01*
X-4369535Y-14093634D01*
X-2950350Y-15512819D01*
X-2916865Y-15574142D01*
X-2921849Y-15643834D01*
X-2963721Y-15699767D01*
X-3029185Y-15724184D01*
X-3038031Y-15724500D01*
X-3980969Y-15724500D01*
X-4048008Y-15704815D01*
X-4068650Y-15688181D01*
X-9648425Y-10108406D01*
X-9648427Y-10108403D01*
X-9753334Y-10003496D01*
X-9753339Y-10003492D01*
X-9873160Y-9934313D01*
X-9901408Y-9926743D01*
X-9901409Y-9926743D01*
X-10006817Y-9898499D01*
X-10145183Y-9898499D01*
X-10152779Y-9898499D01*
X-10152795Y-9898500D01*
X-11493183Y-9898500D01*
X-11626832Y-9934310D01*
X-11634341Y-9937421D01*
X-11635034Y-9935748D01*
X-11686368Y-9949500D01*
X-11895481Y-9949500D01*
X-11895491Y-9949501D01*
X-11952115Y-9955587D01*
X-11976131Y-9964545D01*
X-11981856Y-9966681D01*
X-12025190Y-9974500D01*
X-12414811Y-9974500D01*
X-12458145Y-9966681D01*
X-12474891Y-9960435D01*
X-12487888Y-9955587D01*
X-12544499Y-9949500D01*
X-12544515Y-9949500D01*
X-12699460Y-9949500D01*
X-12761460Y-9932887D01*
X-12887161Y-9860314D01*
X-12887166Y-9860312D01*
X-12916937Y-9852334D01*
X-12916937Y-9852335D01*
X-13020816Y-9824500D01*
X-13159182Y-9824500D01*
X-13166778Y-9824500D01*
X-13166794Y-9824501D01*
X-16523206Y-9824501D01*
X-16523222Y-9824500D01*
X-16530818Y-9824500D01*
X-16669184Y-9824500D01*
X-16742821Y-9844231D01*
X-16802837Y-9860312D01*
X-16820958Y-9870775D01*
X-16922663Y-9929493D01*
X-16922668Y-9929497D01*
X-18220504Y-11227333D01*
X-18220508Y-11227338D01*
X-18289689Y-11347163D01*
X-18289688Y-11347163D01*
X-18289688Y-11347164D01*
X-18289688Y-11347165D01*
X-18322130Y-11468239D01*
X-18325501Y-11480818D01*
X-18325501Y-11629172D01*
X-18325500Y-11629185D01*
X-18325500Y-16623204D01*
X-18325501Y-16623222D01*
X-18325501Y-16769182D01*
X-18301753Y-16857813D01*
X-18289690Y-16902832D01*
X-18289687Y-16902839D01*
X-18220508Y-17022661D01*
X-18220504Y-17022666D01*
X-18115600Y-17127570D01*
X-18115595Y-17127574D01*
X-16072665Y-19170505D01*
X-16070702Y-19171638D01*
X-16069378Y-19173026D01*
X-16066216Y-19175453D01*
X-16066595Y-19175945D01*
X-16022487Y-19222202D01*
X-16009261Y-19290808D01*
X-16035226Y-19355674D01*
X-16092139Y-19396205D01*
X-16100605Y-19398801D01*
X-16129498Y-19406543D01*
X-16193186Y-19423608D01*
X-16193187Y-19423608D01*
X-16193189Y-19423609D01*
X-16307314Y-19489500D01*
X-16307317Y-19489502D01*
X-16400498Y-19582683D01*
X-16400500Y-19582686D01*
X-16466392Y-19696812D01*
X-16492889Y-19795702D01*
X-16500500Y-19824108D01*
X-16500500Y-19955892D01*
X-16488681Y-20000000D01*
X-16466392Y-20083187D01*
X-16442144Y-20125185D01*
X-16400500Y-20197314D01*
X-16307314Y-20290500D01*
X-16193186Y-20356392D01*
X-16065892Y-20390500D01*
X-16065890Y-20390500D01*
X-15934110Y-20390500D01*
X-15934108Y-20390500D01*
X-15806814Y-20356392D01*
X-15692686Y-20290500D01*
X-15599500Y-20197314D01*
X-15568064Y-20142864D01*
X-15517499Y-20094651D01*
X-15448892Y-20081427D01*
X-15431186Y-20085108D01*
X-15431043Y-20084516D01*
X-15426319Y-20085649D01*
X-15426304Y-20085654D01*
X-15363652Y-20095577D01*
X-15301005Y-20105500D01*
X-15301000Y-20105500D01*
X-11529500Y-20105500D01*
X-11462461Y-20125185D01*
X-11416706Y-20177989D01*
X-11405500Y-20229500D01*
X-11405500Y-22570500D01*
X-11425185Y-22637539D01*
X-11477989Y-22683294D01*
X-11529500Y-22694500D01*
X-13801010Y-22694500D01*
X-13864426Y-22699490D01*
X-13864433Y-22699491D01*
X-13895018Y-22704335D01*
X-13956896Y-22719190D01*
X-13956901Y-22719192D01*
X-14069946Y-22776791D01*
X-14119435Y-22812748D01*
X-14119442Y-22812753D01*
X-14119442Y-22812754D01*
X-14177458Y-22870771D01*
X-14209154Y-22902467D01*
X-14266748Y-23015505D01*
X-14266750Y-23015509D01*
X-14285654Y-23073692D01*
X-14305500Y-23198994D01*
X-14305500Y-24401009D01*
X-14300510Y-24464425D01*
X-14300509Y-24464432D01*
X-14295665Y-24495017D01*
X-14280810Y-24556895D01*
X-14280807Y-24556904D01*
X-14243826Y-24629483D01*
X-14230930Y-24698152D01*
X-14257207Y-24762892D01*
X-14266630Y-24773458D01*
X-14822663Y-25329493D01*
X-14920504Y-25427333D01*
X-14920508Y-25427338D01*
X-14989689Y-25547163D01*
X-14989688Y-25547163D01*
X-14989688Y-25547164D01*
X-14989688Y-25547165D01*
X-15025431Y-25680558D01*
X-15025501Y-25680818D01*
X-15025501Y-25829172D01*
X-15025500Y-25829185D01*
X-15025500Y-26930813D01*
X-15025501Y-26930817D01*
X-15025501Y-27069183D01*
X-15010678Y-27124500D01*
X-15007778Y-27135326D01*
X-15007777Y-27135328D01*
X-14989688Y-27202837D01*
X-14989687Y-27202838D01*
X-14920508Y-27322661D01*
X-14920504Y-27322666D01*
X-14815600Y-27427570D01*
X-14815595Y-27427574D01*
X-14172665Y-28070505D01*
X-14172664Y-28070506D01*
X-14172662Y-28070507D01*
X-14052839Y-28139687D01*
X-14052838Y-28139687D01*
X-14052835Y-28139689D01*
X-13919183Y-28175501D01*
X-13919181Y-28175501D01*
X-13773221Y-28175501D01*
X-13773205Y-28175500D01*
X-13095016Y-28175500D01*
X-13027977Y-28195185D01*
X-13026155Y-28196378D01*
X-12934706Y-28257482D01*
X-12809953Y-28309157D01*
X-12677521Y-28335499D01*
X-12677517Y-28335500D01*
X-12677516Y-28335500D01*
X-12059031Y-28335500D01*
X-12029591Y-28344144D01*
X-11999604Y-28350668D01*
X-11994589Y-28354422D01*
X-11991992Y-28355185D01*
X-11971350Y-28371819D01*
X-11811819Y-28531350D01*
X-11778334Y-28592673D01*
X-11775500Y-28619031D01*
X-11775500Y-29349151D01*
X-11795185Y-29416190D01*
X-11824013Y-29447527D01*
X-11953282Y-29546718D01*
X-12049537Y-29672160D01*
X-12110044Y-29818237D01*
X-12110045Y-29818239D01*
X-12125500Y-29935638D01*
X-12125500Y-30414363D01*
X-12110047Y-30531753D01*
X-12110044Y-30531762D01*
X-12049536Y-30677841D01*
X-11953282Y-30803282D01*
X-11837718Y-30891957D01*
X-11825120Y-30901624D01*
X-11783918Y-30958053D01*
X-11779763Y-31027799D01*
X-11813976Y-31088719D01*
X-11825120Y-31098376D01*
X-11953282Y-31196718D01*
X-12049537Y-31322160D01*
X-12110044Y-31468237D01*
X-12110045Y-31468239D01*
X-12125500Y-31585638D01*
X-12125500Y-32064363D01*
X-12110047Y-32181753D01*
X-12110044Y-32181762D01*
X-12049536Y-32327841D01*
X-11953282Y-32453282D01*
X-11857700Y-32526625D01*
X-11816498Y-32583052D01*
X-11812343Y-32652798D01*
X-11846556Y-32713719D01*
X-11857696Y-32723372D01*
X-11934001Y-32781923D01*
X-11953282Y-32796718D01*
X-12049537Y-32922160D01*
X-12110044Y-33068237D01*
X-12110045Y-33068239D01*
X-12125500Y-33185638D01*
X-12125500Y-33664363D01*
X-12110047Y-33781753D01*
X-12110044Y-33781762D01*
X-12049536Y-33927841D01*
X-11953282Y-34053282D01*
X-11844988Y-34136379D01*
X-11825120Y-34151624D01*
X-11783918Y-34208053D01*
X-11779763Y-34277799D01*
X-11813976Y-34338719D01*
X-11825120Y-34348376D01*
X-11953282Y-34446718D01*
X-12049537Y-34572160D01*
X-12110044Y-34718237D01*
X-12110045Y-34718239D01*
X-12125499Y-34835629D01*
X-12125500Y-34835645D01*
X-12125500Y-34850500D01*
X-12145185Y-34917539D01*
X-12197989Y-34963294D01*
X-12249500Y-34974500D01*
X-13400531Y-34974500D01*
X-13467570Y-34954815D01*
X-13511015Y-34906797D01*
X-13516006Y-34897002D01*
X-13622442Y-34750505D01*
X-13622446Y-34750500D01*
X-13750501Y-34622445D01*
X-13750506Y-34622441D01*
X-13897003Y-34516006D01*
X-13897004Y-34516005D01*
X-13897006Y-34516004D01*
X-13954082Y-34486922D01*
X-14058361Y-34433788D01*
X-14058364Y-34433787D01*
X-14230590Y-34377829D01*
X-14409449Y-34349500D01*
X-14409454Y-34349500D01*
X-14590546Y-34349500D01*
X-14590551Y-34349500D01*
X-14769411Y-34377829D01*
X-14941637Y-34433787D01*
X-14941640Y-34433788D01*
X-15102998Y-34516006D01*
X-15249495Y-34622441D01*
X-15249500Y-34622445D01*
X-15377555Y-34750500D01*
X-15377559Y-34750505D01*
X-15483994Y-34897002D01*
X-15566212Y-35058360D01*
X-15566213Y-35058363D01*
X-15622171Y-35230589D01*
X-15650500Y-35409448D01*
X-15650500Y-35590551D01*
X-15622171Y-35769410D01*
X-15566213Y-35941636D01*
X-15566212Y-35941639D01*
X-15513999Y-36044111D01*
X-15484569Y-36101870D01*
X-15483994Y-36102997D01*
X-15377559Y-36249494D01*
X-15377555Y-36249499D01*
X-15249500Y-36377554D01*
X-15249495Y-36377558D01*
X-15144521Y-36453825D01*
X-15102994Y-36483996D01*
X-14997516Y-36537740D01*
X-14941640Y-36566211D01*
X-14941637Y-36566212D01*
X-14855524Y-36594191D01*
X-14769409Y-36622171D01*
X-14686571Y-36635291D01*
X-14590551Y-36650500D01*
X-14590546Y-36650500D01*
X-14409449Y-36650500D01*
X-14322741Y-36636765D01*
X-14230591Y-36622171D01*
X-14058361Y-36566211D01*
X-13897006Y-36483996D01*
X-13750499Y-36377553D01*
X-13622447Y-36249501D01*
X-13528925Y-36120778D01*
X-13516006Y-36102997D01*
X-13515431Y-36101870D01*
X-13511015Y-36093203D01*
X-13463039Y-36042408D01*
X-13400531Y-36025500D01*
X-11751795Y-36025500D01*
X-11751779Y-36025501D01*
X-11744183Y-36025501D01*
X-11605819Y-36025501D01*
X-11605817Y-36025501D01*
X-11500409Y-35997256D01*
X-11472164Y-35989688D01*
X-11352335Y-35920505D01*
X-11331297Y-35899465D01*
X-11316015Y-35891008D01*
X-11298278Y-35887043D01*
X-11282329Y-35878334D01*
X-11255967Y-35875499D01*
X-10935637Y-35875499D01*
X-10818247Y-35860046D01*
X-10818243Y-35860044D01*
X-10818238Y-35860044D01*
X-10672159Y-35799536D01*
X-10570910Y-35721844D01*
X-10505744Y-35696651D01*
X-10437300Y-35710689D01*
X-10387309Y-35759502D01*
X-10373445Y-35797934D01*
X-10372598Y-35802571D01*
X-10326746Y-35960393D01*
X-10326745Y-35960396D01*
X-10326744Y-35960398D01*
X-10289319Y-36023681D01*
X-10243083Y-36101862D01*
X-10243077Y-36101870D01*
X-10126871Y-36218076D01*
X-10126867Y-36218079D01*
X-10126865Y-36218081D01*
X-9985398Y-36301744D01*
X-9954468Y-36310730D01*
X-9827574Y-36347597D01*
X-9827571Y-36347597D01*
X-9827569Y-36347598D01*
X-9790694Y-36350500D01*
X-9790686Y-36350500D01*
X-8709314Y-36350500D01*
X-8709306Y-36350500D01*
X-8672431Y-36347598D01*
X-8672429Y-36347597D01*
X-8672427Y-36347597D01*
X-8630809Y-36335505D01*
X-8514602Y-36301744D01*
X-8373135Y-36218081D01*
X-8270074Y-36115019D01*
X-8208753Y-36081535D01*
X-8139062Y-36086519D01*
X-8113502Y-36099600D01*
X-8081819Y-36120770D01*
X-8081817Y-36120771D01*
X-8081811Y-36120775D01*
X-8081809Y-36120776D01*
X-8081805Y-36120778D01*
X-7954333Y-36173578D01*
X-7954328Y-36173580D01*
X-7954324Y-36173580D01*
X-7954323Y-36173581D01*
X-7818996Y-36200500D01*
X-7818993Y-36200500D01*
X-7681005Y-36200500D01*
X-7589959Y-36182389D01*
X-7545672Y-36173580D01*
X-7418189Y-36120775D01*
X-7303458Y-36044114D01*
X-7205886Y-35946542D01*
X-7129225Y-35831811D01*
X-7076420Y-35704328D01*
X-7049500Y-35568993D01*
X-7049500Y-35431007D01*
X-7051510Y-35420900D01*
X-7051510Y-35420898D01*
X-7055353Y-35401577D01*
X30249500Y-35401577D01*
X30249500Y-35598422D01*
X30280290Y-35792826D01*
X30341117Y-35980029D01*
X30412829Y-36120771D01*
X30430476Y-36155405D01*
X30546172Y-36314646D01*
X30685354Y-36453828D01*
X30844595Y-36569524D01*
X30927414Y-36611722D01*
X31019970Y-36658882D01*
X31019972Y-36658882D01*
X31019975Y-36658884D01*
X31120317Y-36691487D01*
X31207173Y-36719709D01*
X31401578Y-36750500D01*
X31401583Y-36750500D01*
X31598422Y-36750500D01*
X31792826Y-36719709D01*
X31980025Y-36658884D01*
X32155405Y-36569524D01*
X32314646Y-36453828D01*
X32453828Y-36314646D01*
X32569524Y-36155405D01*
X32658884Y-35980025D01*
X32719709Y-35792826D01*
X32733726Y-35704328D01*
X32750500Y-35598422D01*
X32750500Y-35401577D01*
X32719709Y-35207173D01*
X32658882Y-35019970D01*
X32601217Y-34906797D01*
X32569524Y-34844595D01*
X32453828Y-34685354D01*
X32314646Y-34546172D01*
X32155405Y-34430476D01*
X31980029Y-34341117D01*
X31792826Y-34280290D01*
X31598422Y-34249500D01*
X31598417Y-34249500D01*
X31401583Y-34249500D01*
X31401578Y-34249500D01*
X31207173Y-34280290D01*
X31019970Y-34341117D01*
X30844594Y-34430476D01*
X30817034Y-34450500D01*
X30685354Y-34546172D01*
X30685352Y-34546174D01*
X30685351Y-34546174D01*
X30546174Y-34685351D01*
X30546174Y-34685352D01*
X30546172Y-34685354D01*
X30522280Y-34718239D01*
X30430476Y-34844594D01*
X30341117Y-35019970D01*
X30280290Y-35207173D01*
X30249500Y-35401577D01*
X-7055353Y-35401577D01*
X-7076419Y-35295677D01*
X-7076420Y-35295676D01*
X-7076420Y-35295672D01*
X-7113077Y-35207173D01*
X-7129222Y-35168195D01*
X-7129229Y-35168182D01*
X-7205886Y-35053458D01*
X-7205889Y-35053454D01*
X-7303455Y-34955888D01*
X-7303459Y-34955885D01*
X-7418183Y-34879228D01*
X-7418196Y-34879221D01*
X-7545668Y-34826421D01*
X-7545678Y-34826418D01*
X-7681005Y-34799500D01*
X-7681007Y-34799500D01*
X-7818993Y-34799500D01*
X-7818995Y-34799500D01*
X-7954323Y-34826418D01*
X-7954333Y-34826421D01*
X-8084534Y-34880352D01*
X-8154003Y-34887821D01*
X-8216482Y-34856545D01*
X-8238716Y-34828914D01*
X-8256919Y-34798135D01*
X-8256922Y-34798132D01*
X-8256924Y-34798129D01*
X-8373130Y-34681923D01*
X-8373141Y-34681914D01*
X-8500270Y-34606732D01*
X-8547954Y-34555664D01*
X-8560458Y-34486922D01*
X-8533813Y-34422332D01*
X-8500270Y-34393268D01*
X-8373141Y-34318085D01*
X-8373137Y-34318082D01*
X-8373135Y-34318081D01*
X-8256919Y-34201865D01*
X-8218191Y-34136378D01*
X-8167122Y-34088696D01*
X-8111459Y-34075500D01*
X-5012015Y-34075500D01*
X-4944976Y-34095185D01*
X-4943124Y-34096398D01*
X-4831818Y-34170771D01*
X-4831805Y-34170778D01*
X-4741814Y-34208053D01*
X-4704328Y-34223580D01*
X-4704324Y-34223580D01*
X-4704323Y-34223581D01*
X-4568996Y-34250500D01*
X-4568993Y-34250500D01*
X-4431005Y-34250500D01*
X-4339959Y-34232389D01*
X-4295672Y-34223580D01*
X-4197076Y-34182740D01*
X-4168196Y-34170778D01*
X-4168196Y-34170777D01*
X-4168189Y-34170775D01*
X-4053458Y-34094114D01*
X-3955886Y-33996542D01*
X-3879225Y-33881811D01*
X-3826420Y-33754328D01*
X-3799500Y-33618993D01*
X-3799500Y-33481007D01*
X-3799500Y-33481004D01*
X-3826419Y-33345677D01*
X-3826420Y-33345676D01*
X-3826420Y-33345672D01*
X-3826422Y-33345667D01*
X-3879222Y-33218195D01*
X-3879229Y-33218182D01*
X-3955886Y-33103458D01*
X-3955889Y-33103454D01*
X-4053455Y-33005888D01*
X-4053459Y-33005885D01*
X-4168183Y-32929228D01*
X-4168196Y-32929221D01*
X-4295668Y-32876421D01*
X-4295678Y-32876418D01*
X-4431005Y-32849500D01*
X-4431007Y-32849500D01*
X-4568993Y-32849500D01*
X-4568995Y-32849500D01*
X-4704323Y-32876418D01*
X-4704333Y-32876421D01*
X-4831805Y-32929221D01*
X-4831818Y-32929228D01*
X-4943124Y-33003602D01*
X-5009801Y-33024480D01*
X-5012015Y-33024500D01*
X-8111459Y-33024500D01*
X-8178498Y-33004815D01*
X-8218191Y-32963621D01*
X-8238533Y-32929225D01*
X-8256919Y-32898135D01*
X-8256921Y-32898133D01*
X-8256924Y-32898129D01*
X-8373130Y-32781923D01*
X-8373138Y-32781917D01*
X-8472126Y-32723376D01*
X-8514602Y-32698256D01*
X-8514603Y-32698255D01*
X-8514604Y-32698255D01*
X-8514607Y-32698254D01*
X-8672427Y-32652402D01*
X-8677468Y-32651482D01*
X-8739879Y-32620072D01*
X-8775401Y-32559906D01*
X-8772756Y-32490086D01*
X-8732784Y-32432780D01*
X-8668175Y-32406182D01*
X-8655187Y-32405500D01*
X33475500Y-32405500D01*
X33542539Y-32425185D01*
X33588294Y-32477989D01*
X33599500Y-32529500D01*
X33599500Y-35495948D01*
X33599234Y-35504058D01*
X33582069Y-35765929D01*
X33579952Y-35782010D01*
X33529546Y-36035420D01*
X33525348Y-36051088D01*
X33442298Y-36295745D01*
X33436091Y-36310730D01*
X33321814Y-36542460D01*
X33313704Y-36556506D01*
X33170160Y-36771336D01*
X33160286Y-36784205D01*
X32989929Y-36978460D01*
X32978460Y-36989929D01*
X32784205Y-37160286D01*
X32771336Y-37170160D01*
X32556506Y-37313704D01*
X32542460Y-37321814D01*
X32310730Y-37436091D01*
X32295745Y-37442298D01*
X32051088Y-37525348D01*
X32035420Y-37529546D01*
X31782010Y-37579952D01*
X31765929Y-37582069D01*
X31504058Y-37599234D01*
X31495948Y-37599500D01*
X-19495948Y-37599500D01*
X-19504058Y-37599234D01*
X-19765930Y-37582069D01*
X-19782011Y-37579952D01*
X-20035421Y-37529546D01*
X-20051089Y-37525348D01*
X-20295746Y-37442298D01*
X-20310731Y-37436091D01*
X-20542461Y-37321814D01*
X-20556507Y-37313704D01*
X-20771337Y-37170160D01*
X-20784206Y-37160286D01*
X-20978461Y-36989929D01*
X-20989930Y-36978460D01*
X-21160287Y-36784205D01*
X-21170161Y-36771336D01*
X-21313705Y-36556506D01*
X-21321815Y-36542460D01*
X-21403138Y-36377553D01*
X-21436093Y-36310729D01*
X-21442296Y-36295752D01*
X-21525352Y-36051077D01*
X-21529547Y-36035420D01*
X-21531096Y-36027635D01*
X-21579954Y-35782005D01*
X-21582069Y-35765949D01*
X-21599236Y-35504028D01*
X-21599500Y-35495948D01*
X-21599500Y-35401577D01*
X-20750500Y-35401577D01*
X-20750500Y-35598422D01*
X-20719710Y-35792826D01*
X-20658883Y-35980029D01*
X-20587171Y-36120771D01*
X-20569524Y-36155405D01*
X-20453828Y-36314646D01*
X-20314646Y-36453828D01*
X-20155405Y-36569524D01*
X-20072586Y-36611722D01*
X-19980030Y-36658882D01*
X-19980028Y-36658882D01*
X-19980025Y-36658884D01*
X-19879683Y-36691487D01*
X-19792827Y-36719709D01*
X-19598422Y-36750500D01*
X-19598417Y-36750500D01*
X-19401578Y-36750500D01*
X-19207174Y-36719709D01*
X-19019975Y-36658884D01*
X-18844595Y-36569524D01*
X-18685354Y-36453828D01*
X-18546172Y-36314646D01*
X-18430476Y-36155405D01*
X-18341116Y-35980025D01*
X-18280291Y-35792826D01*
X-18266274Y-35704328D01*
X-18249500Y-35598422D01*
X-18249500Y-35401577D01*
X-18280291Y-35207173D01*
X-18341118Y-35019970D01*
X-18398783Y-34906797D01*
X-18430476Y-34844595D01*
X-18546172Y-34685354D01*
X-18685354Y-34546172D01*
X-18844595Y-34430476D01*
X-19019971Y-34341117D01*
X-19207174Y-34280290D01*
X-19401578Y-34249500D01*
X-19401583Y-34249500D01*
X-19598417Y-34249500D01*
X-19598422Y-34249500D01*
X-19792827Y-34280290D01*
X-19980030Y-34341117D01*
X-20155406Y-34430476D01*
X-20182966Y-34450500D01*
X-20314646Y-34546172D01*
X-20314648Y-34546174D01*
X-20314649Y-34546174D01*
X-20453826Y-34685351D01*
X-20453826Y-34685352D01*
X-20453828Y-34685354D01*
X-20477720Y-34718239D01*
X-20569524Y-34844594D01*
X-20658883Y-35019970D01*
X-20719710Y-35207173D01*
X-20750500Y-35401577D01*
X-21599500Y-35401577D01*
X-21599500Y-5024986D01*
X-11699999Y-5024986D01*
X-11689506Y-5127697D01*
X-11634359Y-5294119D01*
X-11634357Y-5294124D01*
X-11542316Y-5443345D01*
X-11418346Y-5567315D01*
X-11269125Y-5659356D01*
X-11269120Y-5659358D01*
X-11102698Y-5714505D01*
X-11102691Y-5714506D01*
X-10999981Y-5724999D01*
X-10950001Y-5724998D01*
X-10950000Y-5724998D01*
X-10950000Y-4750000D01*
X-11699999Y-4750000D01*
X-11699999Y-5024986D01*
X-21599500Y-5024986D01*
X-21599500Y-3975013D01*
X-11700000Y-3975013D01*
X-11700000Y-4250000D01*
X-10950000Y-4250000D01*
X-10950000Y-3275000D01*
X-10950001Y-3274999D01*
X-10999971Y-3275000D01*
X-10999989Y-3275001D01*
X-11102698Y-3285494D01*
X-11269120Y-3340641D01*
X-11269125Y-3340643D01*
X-11418346Y-3432684D01*
X-11542316Y-3556654D01*
X-11634357Y-3705875D01*
X-11634359Y-3705880D01*
X-11689506Y-3872302D01*
X-11689507Y-3872309D01*
X-11700000Y-3975013D01*
X-21599500Y-3975013D01*
X-21599500Y-1980815D01*
X-14950000Y-1980815D01*
X-14939593Y-2082673D01*
X-14884906Y-2247709D01*
X-14884904Y-2247714D01*
X-14793630Y-2395691D01*
X-14670692Y-2518629D01*
X-14522715Y-2609903D01*
X-14522710Y-2609905D01*
X-14357674Y-2664592D01*
X-14255816Y-2674999D01*
X-14255803Y-2675000D01*
X-14000000Y-2675000D01*
X-13500000Y-2675000D01*
X-13244197Y-2675000D01*
X-13244185Y-2674999D01*
X-13142327Y-2664592D01*
X-12977291Y-2609905D01*
X-12977286Y-2609903D01*
X-12829309Y-2518629D01*
X-12706371Y-2395691D01*
X-12615097Y-2247714D01*
X-12615095Y-2247709D01*
X-12560408Y-2082673D01*
X-12550001Y-1980815D01*
X-12550000Y-1980802D01*
X-12550000Y-1937500D01*
X-13500000Y-1937500D01*
X-13500000Y-2675000D01*
X-14000000Y-2675000D01*
X-14000000Y-1937500D01*
X-14950000Y-1937500D01*
X-14950000Y-1980815D01*
X-21599500Y-1980815D01*
X-21599500Y-1394184D01*
X-14950000Y-1394184D01*
X-14950000Y-1437500D01*
X-12550000Y-1437500D01*
X-12550000Y-1394197D01*
X-12550001Y-1394184D01*
X-12560408Y-1292326D01*
X-12615095Y-1127290D01*
X-12615097Y-1127285D01*
X-12706371Y-979308D01*
X-12829310Y-856369D01*
X-12829314Y-856366D01*
X-12924662Y-797554D01*
X-12971387Y-745606D01*
X-12982608Y-676643D01*
X-12954765Y-612561D01*
X-12922686Y-585284D01*
X-12895747Y-569353D01*
X-12780647Y-454253D01*
X-12747899Y-398878D01*
X-12696830Y-351196D01*
X-12641167Y-338000D01*
X-12169603Y-338000D01*
X-12102564Y-357685D01*
X-12056809Y-410489D01*
X-12055055Y-414517D01*
X-12049536Y-427841D01*
X-11953282Y-553282D01*
X-11847288Y-634614D01*
X-11825120Y-651624D01*
X-11783918Y-708053D01*
X-11779763Y-777799D01*
X-11813976Y-838719D01*
X-11825120Y-848376D01*
X-11953282Y-946718D01*
X-12049537Y-1072160D01*
X-12110044Y-1218237D01*
X-12110045Y-1218239D01*
X-12125500Y-1335638D01*
X-12125500Y-1814363D01*
X-12110047Y-1931753D01*
X-12110044Y-1931762D01*
X-12051589Y-2072886D01*
X-12049536Y-2077841D01*
X-11953282Y-2203282D01*
X-11827841Y-2299536D01*
X-11681762Y-2360044D01*
X-11564361Y-2375500D01*
X-10935640Y-2375499D01*
X-10935637Y-2375499D01*
X-10818247Y-2360046D01*
X-10818243Y-2360044D01*
X-10818238Y-2360044D01*
X-10672159Y-2299536D01*
X-10546718Y-2203282D01*
X-10450464Y-2077841D01*
X-10389956Y-1931762D01*
X-10389956Y-1931761D01*
X-10387589Y-1926047D01*
X-10343748Y-1871644D01*
X-10277454Y-1849579D01*
X-10273028Y-1849500D01*
X-9249500Y-1849500D01*
X-9182461Y-1869185D01*
X-9136706Y-1921989D01*
X-9125500Y-1973500D01*
X-9125500Y-2465701D01*
X-9122599Y-2502567D01*
X-9122598Y-2502573D01*
X-9076746Y-2660393D01*
X-9076745Y-2660396D01*
X-9076744Y-2660398D01*
X-9072237Y-2668019D01*
X-8993083Y-2801862D01*
X-8993077Y-2801870D01*
X-8876871Y-2918076D01*
X-8876867Y-2918079D01*
X-8876865Y-2918081D01*
X-8735398Y-3001744D01*
X-8693776Y-3013836D01*
X-8577574Y-3047597D01*
X-8577571Y-3047597D01*
X-8577569Y-3047598D01*
X-8540694Y-3050500D01*
X-8405887Y-3050500D01*
X-8380995Y-3057809D01*
X-8355285Y-3061295D01*
X-8348014Y-3067493D01*
X-8338848Y-3070185D01*
X-8321862Y-3089788D01*
X-8302114Y-3106623D01*
X-8299349Y-3115770D01*
X-8293093Y-3122989D01*
X-8289402Y-3148665D01*
X-8281891Y-3173502D01*
X-8283822Y-3187468D01*
X-8283149Y-3192147D01*
X-8286633Y-3208477D01*
X-8309500Y-3288738D01*
X-8325077Y-3313409D01*
X-8338194Y-3339465D01*
X-8343506Y-3342600D01*
X-8346800Y-3347818D01*
X-8373245Y-3360152D01*
X-8398364Y-3374979D01*
X-8405549Y-3375220D01*
X-8410120Y-3377353D01*
X-8421814Y-3375767D01*
X-8440998Y-3376412D01*
X-8441114Y-3377899D01*
X-8484299Y-3374500D01*
X-8484306Y-3374500D01*
X-9115694Y-3374500D01*
X-9115702Y-3374500D01*
X-9152568Y-3377401D01*
X-9152574Y-3377402D01*
X-9310394Y-3423254D01*
X-9310397Y-3423255D01*
X-9451863Y-3506917D01*
X-9451871Y-3506923D01*
X-9568077Y-3623129D01*
X-9568084Y-3623138D01*
X-9585266Y-3652193D01*
X-9636335Y-3699876D01*
X-9705077Y-3712380D01*
X-9769666Y-3685735D01*
X-9797537Y-3654169D01*
X-9857685Y-3556654D01*
X-9981655Y-3432684D01*
X-10130876Y-3340643D01*
X-10130881Y-3340641D01*
X-10297303Y-3285494D01*
X-10297310Y-3285493D01*
X-10400014Y-3275000D01*
X-10450000Y-3275000D01*
X-10450000Y-5724999D01*
X-10400028Y-5724999D01*
X-10400014Y-5724998D01*
X-10297303Y-5714505D01*
X-10130881Y-5659358D01*
X-10130876Y-5659356D01*
X-9981655Y-5567315D01*
X-9857683Y-5443343D01*
X-9797537Y-5345831D01*
X-9745589Y-5299106D01*
X-9676627Y-5287883D01*
X-9612545Y-5315726D01*
X-9585268Y-5347803D01*
X-9568081Y-5376865D01*
X-9568079Y-5376867D01*
X-9568077Y-5376870D01*
X-9451871Y-5493076D01*
X-9451868Y-5493078D01*
X-9451865Y-5493081D01*
X-9421088Y-5511282D01*
X-9373405Y-5562350D01*
X-9360900Y-5631091D01*
X-9369648Y-5665466D01*
X-9423579Y-5795667D01*
X-9423582Y-5795677D01*
X-9450500Y-5931004D01*
X-9450500Y-5931007D01*
X-9450500Y-6068993D01*
X-9450500Y-6068995D01*
X-9450501Y-6068995D01*
X-9423582Y-6204322D01*
X-9423579Y-6204332D01*
X-9370779Y-6331804D01*
X-9370772Y-6331817D01*
X-9294115Y-6446541D01*
X-9294112Y-6446545D01*
X-9196546Y-6544111D01*
X-9196542Y-6544114D01*
X-9081818Y-6620771D01*
X-9081805Y-6620778D01*
X-8964178Y-6669500D01*
X-8954328Y-6673580D01*
X-8954324Y-6673580D01*
X-8954323Y-6673581D01*
X-8818996Y-6700500D01*
X-8818993Y-6700500D01*
X-8681005Y-6700500D01*
X-8583236Y-6681052D01*
X-8545672Y-6673580D01*
X-8418189Y-6620775D01*
X-8303458Y-6544114D01*
X-8205886Y-6446542D01*
X-8129225Y-6331811D01*
X-8076420Y-6204328D01*
X-8069258Y-6168321D01*
X-8036874Y-6106412D01*
X-7976159Y-6071838D01*
X-7906389Y-6075577D01*
X-7878750Y-6089412D01*
X-7831818Y-6120771D01*
X-7831805Y-6120778D01*
X-7717017Y-6168324D01*
X-7704328Y-6173580D01*
X-7704324Y-6173580D01*
X-7704323Y-6173581D01*
X-7568996Y-6200500D01*
X-7568993Y-6200500D01*
X-7431005Y-6200500D01*
X-7339959Y-6182389D01*
X-7295672Y-6173580D01*
X-7168189Y-6120775D01*
X-7053458Y-6044114D01*
X-6955886Y-5946542D01*
X-6879225Y-5831811D01*
X-6876991Y-5826419D01*
X-6861200Y-5788294D01*
X-6826420Y-5704328D01*
X-6805103Y-5597160D01*
X-6799500Y-5568995D01*
X-6799500Y-5431004D01*
X-6826419Y-5295677D01*
X-6826420Y-5295676D01*
X-6826420Y-5295672D01*
X-6875596Y-5176952D01*
X-6883064Y-5107483D01*
X-6851789Y-5045004D01*
X-6791700Y-5009352D01*
X-6761034Y-5005500D01*
X-6481795Y-5005500D01*
X-6481779Y-5005501D01*
X-6474183Y-5005501D01*
X-6335819Y-5005501D01*
X-6335817Y-5005501D01*
X-6225702Y-4975995D01*
X-6202164Y-4969688D01*
X-6082335Y-4900505D01*
X-5984495Y-4802665D01*
X-5984495Y-4802663D01*
X-5974291Y-4792460D01*
X-5974287Y-4792455D01*
X-5518650Y-4336818D01*
X-5457327Y-4303333D01*
X-5430969Y-4300499D01*
X-4929519Y-4300499D01*
X-4929516Y-4300499D01*
X-4872886Y-4294412D01*
X-4744774Y-4246628D01*
X-4635313Y-4164687D01*
X-4553372Y-4055226D01*
X-4505588Y-3927114D01*
X-4499695Y-3872302D01*
X-4499501Y-3870500D01*
X-4499501Y-3870494D01*
X-4499500Y-3870485D01*
X-4499501Y-3691951D01*
X-4479817Y-3624912D01*
X-4473875Y-3616462D01*
X-4472737Y-3614978D01*
X-4414802Y-3475108D01*
X-4414801Y-3475103D01*
X-4404912Y-3400000D01*
X-4524819Y-3400000D01*
X-4527754Y-3399138D01*
X-4530724Y-3399859D01*
X-4561065Y-3389357D01*
X-4591858Y-3380315D01*
X-4594731Y-3377704D01*
X-4596750Y-3377005D01*
X-4613606Y-3360545D01*
X-4622293Y-3352648D01*
X-4623194Y-3351502D01*
X-4635313Y-3335313D01*
X-4636800Y-3334200D01*
X-4642738Y-3326648D01*
X-4653088Y-3300793D01*
X-4666430Y-3276358D01*
X-4665891Y-3268809D01*
X-4668703Y-3261782D01*
X-4663433Y-3234442D01*
X-4661446Y-3206666D01*
X-4656635Y-3199179D01*
X-4655477Y-3193176D01*
X-4647193Y-3184488D01*
X-4639548Y-3172592D01*
X-4640627Y-3171785D01*
X-4624085Y-3149688D01*
X-4568151Y-3107818D01*
X-4524819Y-3100000D01*
X-4404912Y-3100000D01*
X-4404912Y-3099999D01*
X-4414801Y-3024896D01*
X-4414802Y-3024891D01*
X-4472738Y-2885019D01*
X-4472741Y-2885014D01*
X-4473879Y-2883530D01*
X-4474451Y-2882052D01*
X-4476802Y-2877979D01*
X-4476167Y-2877612D01*
X-4499071Y-2818360D01*
X-4499501Y-2808064D01*
X-4499501Y-2629516D01*
X-4505588Y-2572886D01*
X-4516611Y-2543335D01*
X-4521597Y-2473645D01*
X-4516615Y-2456675D01*
X-4505588Y-2427114D01*
X-4500039Y-2375499D01*
X-4499501Y-2370500D01*
X-4499501Y-2370490D01*
X-4499500Y-2370485D01*
X-4499501Y-2129516D01*
X-4505588Y-2072886D01*
X-4516611Y-2043335D01*
X-4521597Y-1973645D01*
X-4516615Y-1956675D01*
X-4505588Y-1927114D01*
X-4502422Y-1897665D01*
X-4499501Y-1870500D01*
X-4499501Y-1870490D01*
X-4499500Y-1870485D01*
X-4499501Y-1629516D01*
X-4505588Y-1572886D01*
X-4516611Y-1543335D01*
X-4521597Y-1473645D01*
X-4516615Y-1456675D01*
X-4505588Y-1427114D01*
X-4502048Y-1394184D01*
X-4499501Y-1370500D01*
X-4499501Y-1370490D01*
X-4499500Y-1370485D01*
X-4499501Y-1129516D01*
X-4505588Y-1072886D01*
X-4516611Y-1043335D01*
X-4521597Y-973645D01*
X-4516615Y-956675D01*
X-4505588Y-927114D01*
X-4502253Y-896095D01*
X-4499501Y-870500D01*
X-4499501Y-870490D01*
X-4499500Y-870485D01*
X-4499501Y-629516D01*
X-4505588Y-572886D01*
X-4516611Y-543335D01*
X-4521597Y-473645D01*
X-4516615Y-456675D01*
X-4505588Y-427114D01*
X-4502289Y-396424D01*
X-4499501Y-370500D01*
X-4499501Y-370490D01*
X-4499500Y-370485D01*
X-4499501Y-129516D01*
X-4505588Y-72886D01*
X-4516611Y-43335D01*
X-4521597Y26355D01*
X-4516615Y43325D01*
X-4505588Y72886D01*
X-4502035Y105936D01*
X-4499501Y129500D01*
X-4499501Y129510D01*
X-4499500Y129515D01*
X-4499501Y370484D01*
X-4505588Y427114D01*
X-4516611Y456665D01*
X-4521597Y526355D01*
X-4516615Y543325D01*
X-4505588Y572886D01*
X-4502744Y599349D01*
X-4499501Y629500D01*
X-4499501Y629510D01*
X-4499500Y629515D01*
X-4499501Y870484D01*
X-4505588Y927114D01*
X-4516611Y956665D01*
X-4521597Y1026355D01*
X-4516615Y1043325D01*
X-4505588Y1072886D01*
X-4502681Y1099930D01*
X-4499501Y1129500D01*
X-4499501Y1129510D01*
X-4499500Y1129515D01*
X-4499501Y1370484D01*
X-4505588Y1427114D01*
X-4516611Y1456665D01*
X-4521597Y1526355D01*
X-4516615Y1543325D01*
X-4505588Y1572886D01*
X-4499760Y1627093D01*
X-4499501Y1629500D01*
X-4499501Y1629510D01*
X-4499500Y1629515D01*
X-4499501Y1870484D01*
X-4505588Y1927114D01*
X-4516611Y1956665D01*
X-4521597Y2026355D01*
X-4516615Y2043325D01*
X-4505588Y2072886D01*
X-4501318Y2112605D01*
X-4499501Y2129500D01*
X-4499501Y2129510D01*
X-4499500Y2129515D01*
X-4499501Y2370484D01*
X-4505588Y2427114D01*
X-4516611Y2456665D01*
X-4521597Y2526355D01*
X-4516615Y2543325D01*
X-4505588Y2572886D01*
X-4502744Y2599349D01*
X-4499501Y2629500D01*
X-4499501Y2629510D01*
X-4499500Y2629515D01*
X-4499501Y2808049D01*
X-4479817Y2875088D01*
X-4473875Y2883538D01*
X-4472737Y2885022D01*
X-4414802Y3024892D01*
X-4414801Y3024897D01*
X-4404912Y3100000D01*
X-4524819Y3100000D01*
X-4527754Y3100862D01*
X-4530724Y3100141D01*
X-4561065Y3110643D01*
X-4591858Y3119685D01*
X-4594731Y3122296D01*
X-4596750Y3122995D01*
X-4613606Y3139455D01*
X-4622293Y3147352D01*
X-4623194Y3148498D01*
X-4635313Y3164687D01*
X-4636800Y3165800D01*
X-4642738Y3173352D01*
X-4653088Y3199207D01*
X-4666430Y3223642D01*
X-4665891Y3231191D01*
X-4668703Y3238218D01*
X-4663433Y3265558D01*
X-4661446Y3293334D01*
X-4656635Y3300821D01*
X-4655477Y3306824D01*
X-4647193Y3315512D01*
X-4639548Y3327408D01*
X-4640627Y3328215D01*
X-4624085Y3350312D01*
X-4568151Y3392182D01*
X-4524819Y3400000D01*
X-4404912Y3400000D01*
X-4404912Y3400001D01*
X-4414801Y3475104D01*
X-4414802Y3475109D01*
X-4472738Y3614981D01*
X-4472741Y3614986D01*
X-4473879Y3616470D01*
X-4474451Y3617948D01*
X-4476802Y3622021D01*
X-4476167Y3622388D01*
X-4499071Y3681640D01*
X-4499501Y3691936D01*
X-4499501Y3870484D01*
X-4504629Y3918196D01*
X-4505588Y3927115D01*
X-4549227Y4044112D01*
X-4553372Y4055226D01*
X-4635313Y4164687D01*
X-4702732Y4215156D01*
X-4744772Y4246627D01*
X-4744774Y4246628D01*
X-4872886Y4294412D01*
X-4872888Y4294413D01*
X-4872890Y4294413D01*
X-4929499Y4300500D01*
X-4929515Y4300500D01*
X-5070424Y4300500D01*
X-5137463Y4320185D01*
X-5175490Y4358643D01*
X-5183663Y4371683D01*
X-5185312Y4377836D01*
X-5254495Y4497665D01*
X-5276296Y4519466D01*
X-5283751Y4531360D01*
X-5289566Y4552022D01*
X-5299851Y4570859D01*
X-5300302Y4573026D01*
X-5315714Y4650505D01*
X-5326420Y4704328D01*
X-5364112Y4795323D01*
X-5371580Y4864790D01*
X-5340305Y4927270D01*
X-5318446Y4945873D01*
X-5303458Y4955886D01*
X-5205886Y5053458D01*
X-5187382Y5081151D01*
X-5178535Y5094391D01*
X-5124923Y5139196D01*
X-5075433Y5149500D01*
X-4424499Y5149500D01*
X-4357460Y5129815D01*
X-4311705Y5077011D01*
X-4300499Y5025500D01*
X-4300499Y4929510D01*
X-4294413Y4872886D01*
X-4249272Y4751862D01*
X-4246628Y4744774D01*
X-4164687Y4635313D01*
X-4055226Y4553372D01*
X-3927114Y4505588D01*
X-3870485Y4499500D01*
X-3629516Y4499501D01*
X-3572886Y4505588D01*
X-3543336Y4516611D01*
X-3473647Y4521597D01*
X-3456681Y4516617D01*
X-3427114Y4505588D01*
X-3370485Y4499500D01*
X-3129516Y4499501D01*
X-3072886Y4505588D01*
X-3043336Y4516611D01*
X-2973647Y4521597D01*
X-2956681Y4516617D01*
X-2927114Y4505588D01*
X-2870485Y4499500D01*
X-2629516Y4499501D01*
X-2572886Y4505588D01*
X-2543336Y4516611D01*
X-2473647Y4521597D01*
X-2456681Y4516617D01*
X-2427114Y4505588D01*
X-2370485Y4499500D01*
X-2191953Y4499501D01*
X-2124913Y4479817D01*
X-2116467Y4473878D01*
X-2114981Y4472738D01*
X-2114982Y4472738D01*
X-1975104Y4414800D01*
X-1975099Y4414799D01*
X-1900002Y4404913D01*
X-1900000Y4404914D01*
X-1900000Y4524820D01*
X-1899139Y4527756D01*
X-1899859Y4530728D01*
X-1889358Y4561065D01*
X-1880315Y4591859D01*
X-1877703Y4594734D01*
X-1877003Y4596753D01*
X-1860544Y4613608D01*
X-1852646Y4622295D01*
X-1851513Y4623187D01*
X-1835313Y4635313D01*
X-1834202Y4636799D01*
X-1826646Y4642739D01*
X-1800796Y4653087D01*
X-1776358Y4666430D01*
X-1768807Y4665890D01*
X-1761779Y4668703D01*
X-1734441Y4663433D01*
X-1706666Y4661446D01*
X-1699179Y4656634D01*
X-1693173Y4655476D01*
X-1684485Y4647191D01*
X-1672596Y4639550D01*
X-1671788Y4640629D01*
X-1664688Y4635315D01*
X-1664687Y4635313D01*
X-1649691Y4624087D01*
X-1607819Y4568156D01*
X-1600000Y4524820D01*
X-1600000Y4404914D01*
X-1599999Y4404913D01*
X-1524902Y4414799D01*
X-1524897Y4414800D01*
X-1385026Y4472735D01*
X-1385020Y4472738D01*
X-1383542Y4473872D01*
X-1382070Y4474442D01*
X-1377981Y4476802D01*
X-1377613Y4476165D01*
X-1318375Y4499070D01*
X-1308067Y4499501D01*
X-1129516Y4499501D01*
X-1072886Y4505588D01*
X-1043336Y4516611D01*
X-973647Y4521597D01*
X-956681Y4516617D01*
X-927114Y4505588D01*
X-870485Y4499500D01*
X-629516Y4499501D01*
X-572886Y4505588D01*
X-543336Y4516611D01*
X-473647Y4521597D01*
X-456681Y4516617D01*
X-427114Y4505588D01*
X-370485Y4499500D01*
X-129516Y4499501D01*
X-77692Y4505072D01*
X-8936Y4492665D01*
X42201Y4445055D01*
X59480Y4377355D01*
X57177Y4357593D01*
X49500Y4318995D01*
X49500Y4318993D01*
X49500Y4181007D01*
X49500Y4181005D01*
X49499Y4181005D01*
X76418Y4045678D01*
X76421Y4045668D01*
X129221Y3918196D01*
X129228Y3918183D01*
X205885Y3803459D01*
X205888Y3803455D01*
X303454Y3705889D01*
X303458Y3705886D01*
X418182Y3629229D01*
X418195Y3629222D01*
X542241Y3577841D01*
X545672Y3576420D01*
X545676Y3576420D01*
X545677Y3576419D01*
X681004Y3549500D01*
X681007Y3549500D01*
X818995Y3549500D01*
X918815Y3569356D01*
X954328Y3576420D01*
X1065305Y3622388D01*
X1081804Y3629222D01*
X1081804Y3629223D01*
X1081811Y3629225D01*
X1196542Y3705886D01*
X1294114Y3803458D01*
X1370775Y3918189D01*
X1423580Y4045672D01*
X1432716Y4091600D01*
X1450500Y4181005D01*
X1450500Y4318996D01*
X1450499Y4318998D01*
X1442823Y4357591D01*
X1449050Y4427182D01*
X1491913Y4482360D01*
X1557803Y4505604D01*
X1577694Y4505072D01*
X1629515Y4499500D01*
X1870484Y4499501D01*
X1927114Y4505588D01*
X1956664Y4516611D01*
X2026353Y4521597D01*
X2043319Y4516617D01*
X2072886Y4505588D01*
X2129515Y4499500D01*
X2370484Y4499501D01*
X2427114Y4505588D01*
X2456664Y4516611D01*
X2526353Y4521597D01*
X2543319Y4516617D01*
X2572886Y4505588D01*
X2629515Y4499500D01*
X2870484Y4499501D01*
X2927114Y4505588D01*
X2956664Y4516611D01*
X3026353Y4521597D01*
X3043319Y4516617D01*
X3072886Y4505588D01*
X3129515Y4499500D01*
X3370484Y4499501D01*
X3427114Y4505588D01*
X3456664Y4516611D01*
X3526353Y4521597D01*
X3543319Y4516617D01*
X3572886Y4505588D01*
X3629515Y4499500D01*
X3870484Y4499501D01*
X3927114Y4505588D01*
X4055226Y4553372D01*
X4164687Y4635313D01*
X4246628Y4744774D01*
X4294412Y4872886D01*
X4296687Y4894056D01*
X4300499Y4929499D01*
X4300499Y4929510D01*
X4300500Y4929515D01*
X4300499Y5465970D01*
X4309144Y5495414D01*
X4315666Y5525394D01*
X4319419Y5530409D01*
X4320183Y5533008D01*
X4336817Y5553649D01*
X4352164Y5568996D01*
X4372682Y5589515D01*
X4434002Y5622999D01*
X4503694Y5618015D01*
X4559628Y5576145D01*
X4574923Y5549285D01*
X4629221Y5418196D01*
X4629228Y5418183D01*
X4705885Y5303459D01*
X4705888Y5303455D01*
X4803454Y5205889D01*
X4803458Y5205886D01*
X4918182Y5129229D01*
X4918195Y5129222D01*
X5034250Y5081151D01*
X5045672Y5076420D01*
X5045676Y5076420D01*
X5045677Y5076419D01*
X5181004Y5049500D01*
X5181007Y5049500D01*
X5318995Y5049500D01*
X5435777Y5072730D01*
X5454328Y5076420D01*
X5581811Y5129225D01*
X5696542Y5205886D01*
X5794114Y5303458D01*
X5870775Y5418189D01*
X5923580Y5545672D01*
X5937970Y5618015D01*
X5950500Y5681005D01*
X5950500Y5818996D01*
X5949903Y5825058D01*
X5952679Y5825332D01*
X5957803Y5882972D01*
X6000633Y5938175D01*
X6038626Y5956718D01*
X6146195Y5987969D01*
X6285374Y6070279D01*
X6285383Y6070286D01*
X6399714Y6184617D01*
X6399721Y6184626D01*
X6482031Y6323805D01*
X6482033Y6323810D01*
X6527144Y6479082D01*
X6527145Y6479088D01*
X6528790Y6500000D01*
X5874000Y6500000D01*
X5806961Y6519685D01*
X5761206Y6572489D01*
X5750000Y6624000D01*
X5750000Y6750000D01*
X5624000Y6750000D01*
X5556961Y6769685D01*
X5511206Y6822489D01*
X5500000Y6874000D01*
X5500000Y7554506D01*
X6000000Y7554506D01*
X6000000Y7000000D01*
X6528790Y7000000D01*
X6527145Y7020911D01*
X6482031Y7176196D01*
X6399721Y7315375D01*
X6399714Y7315384D01*
X6285383Y7429715D01*
X6285374Y7429722D01*
X6146193Y7512033D01*
X6146190Y7512035D01*
X6000001Y7554507D01*
X6000000Y7554506D01*
X5500000Y7554506D01*
X5500000Y7554507D01*
X5497422Y7556442D01*
X5455632Y7612436D01*
X5450652Y7674869D01*
X5449903Y7674942D01*
X5450313Y7679113D01*
X5450259Y7679797D01*
X5450500Y7681009D01*
X5450500Y7818990D01*
X5450500Y7818993D01*
X5450260Y7820199D01*
X5450317Y7820844D01*
X5449903Y7825058D01*
X5450701Y7825137D01*
X5456480Y7889788D01*
X5497424Y7943561D01*
X5500000Y7945496D01*
X5500000Y7945497D01*
X6000000Y7945497D01*
X6146195Y7987969D01*
X6285374Y8070279D01*
X6285383Y8070286D01*
X6399714Y8184617D01*
X6399721Y8184626D01*
X6482031Y8323805D01*
X6482033Y8323810D01*
X6527144Y8479082D01*
X6527145Y8479088D01*
X6528790Y8500000D01*
X6000000Y8500000D01*
X6000000Y7945497D01*
X5500000Y7945497D01*
X5500000Y9554506D01*
X6000000Y9554506D01*
X6000000Y9000000D01*
X6528790Y9000000D01*
X6527145Y9020911D01*
X6482031Y9176196D01*
X6399721Y9315375D01*
X6399714Y9315384D01*
X6285383Y9429715D01*
X6285374Y9429722D01*
X6146193Y9512033D01*
X6146190Y9512035D01*
X6000001Y9554507D01*
X6000000Y9554506D01*
X5500000Y9554506D01*
X5499998Y9554507D01*
X5353809Y9512035D01*
X5353806Y9512033D01*
X5225277Y9436021D01*
X5157553Y9418838D01*
X5116667Y9427398D01*
X5082141Y9441013D01*
X5059174Y9450070D01*
X4972320Y9460500D01*
X4607680Y9460500D01*
X4542539Y9452678D01*
X4520824Y9450070D01*
X4382607Y9395564D01*
X4382605Y9395563D01*
X4264215Y9305785D01*
X4174437Y9187395D01*
X4174436Y9187393D01*
X4119930Y9049176D01*
X4119930Y9049174D01*
X4109500Y8962320D01*
X4109500Y8537680D01*
X4114025Y8500000D01*
X4119930Y8450825D01*
X4174436Y8312608D01*
X4174436Y8312607D01*
X4179012Y8306573D01*
X4183266Y8295381D01*
X4191379Y8286575D01*
X4195448Y8263327D01*
X4203835Y8241262D01*
X4201362Y8229546D01*
X4203427Y8217752D01*
X4192662Y8188324D01*
X4189407Y8172898D01*
X4185377Y8168408D01*
X4183311Y8162758D01*
X4129227Y8081816D01*
X4129221Y8081805D01*
X4092626Y7993454D01*
X4048785Y7939050D01*
X3982491Y7916985D01*
X3914792Y7934264D01*
X3885499Y7960126D01*
X3885236Y7959862D01*
X3880997Y7964101D01*
X3880084Y7964907D01*
X3879714Y7965384D01*
X3819759Y8025339D01*
X3810028Y8043160D01*
X3796269Y8058093D01*
X3793624Y8073202D01*
X3786274Y8086662D01*
X3787722Y8106915D01*
X3784221Y8126916D01*
X3790163Y8141056D01*
X3791258Y8156354D01*
X3791260Y8156358D01*
X3793598Y8162627D01*
X3793598Y8162628D01*
X3799999Y8222156D01*
X3800000Y8222173D01*
X3800000Y8620000D01*
X2724000Y8620000D01*
X2656961Y8639685D01*
X2611206Y8692489D01*
X2600000Y8744000D01*
X2600000Y8996000D01*
X2619685Y9063039D01*
X2672489Y9108794D01*
X2724000Y9120000D01*
X3800000Y9120000D01*
X3800000Y9517828D01*
X3799999Y9517845D01*
X3793598Y9577373D01*
X3793596Y9577380D01*
X3743354Y9712087D01*
X3743353Y9712089D01*
X3696894Y9774150D01*
X3672477Y9839614D01*
X3683713Y9895062D01*
X3682630Y9895414D01*
X3685644Y9904693D01*
X3685646Y9904696D01*
X3700500Y9998481D01*
X3700499Y11261518D01*
X3685646Y11355304D01*
X3628050Y11468342D01*
X3628046Y11468346D01*
X3628045Y11468348D01*
X3538347Y11558046D01*
X3538344Y11558048D01*
X3538342Y11558050D01*
X3461517Y11597195D01*
X3425301Y11615648D01*
X3331524Y11630500D01*
X1868482Y11630500D01*
X1787519Y11617677D01*
X1774696Y11615646D01*
X1661658Y11558050D01*
X1661657Y11558049D01*
X1661653Y11558047D01*
X1658384Y11554777D01*
X1597059Y11521295D01*
X1527368Y11526283D01*
X1471441Y11568151D01*
X1457187Y11587191D01*
X1342093Y11673351D01*
X1342086Y11673355D01*
X1207379Y11723597D01*
X1207372Y11723599D01*
X1147844Y11730000D01*
X650000Y11730000D01*
X650000Y10754000D01*
X630315Y10686961D01*
X577511Y10641206D01*
X526000Y10630000D01*
X400000Y10630000D01*
X400000Y10504000D01*
X380315Y10436961D01*
X327511Y10391206D01*
X276000Y10380000D01*
X-800000Y10380000D01*
X-800000Y9982156D01*
X-793599Y9922628D01*
X-793597Y9922621D01*
X-743355Y9787914D01*
X-743354Y9787912D01*
X-696894Y9725850D01*
X-672477Y9660386D01*
X-683713Y9604932D01*
X-682632Y9604580D01*
X-685647Y9595303D01*
X-700500Y9501525D01*
X-700500Y8238478D01*
X-697960Y8222443D01*
X-699858Y8207769D01*
X-696819Y8193286D01*
X-704247Y8173815D01*
X-706918Y8153150D01*
X-716877Y8140706D01*
X-721721Y8128005D01*
X-740216Y8111540D01*
X-746862Y8103234D01*
X-811428Y8055644D01*
X-835841Y8046745D01*
X-858642Y8034294D01*
X-868133Y8034973D01*
X-877072Y8031714D01*
X-902416Y8037425D01*
X-928334Y8039278D01*
X-937886Y8045417D01*
X-945233Y8047072D01*
X-953471Y8055433D01*
X-972681Y8067779D01*
X-984617Y8079715D01*
X-984626Y8079722D01*
X-1123807Y8162033D01*
X-1123810Y8162035D01*
X-1269999Y8204507D01*
X-1270000Y8204506D01*
X-1270000Y7650000D01*
X-374000Y7650000D01*
X-306961Y7630315D01*
X-261206Y7577511D01*
X-250000Y7526000D01*
X-250000Y7274000D01*
X-269685Y7206961D01*
X-322489Y7161206D01*
X-374000Y7150000D01*
X-1396000Y7150000D01*
X-1463039Y7169685D01*
X-1508794Y7222489D01*
X-1520000Y7274000D01*
X-1520000Y7400000D01*
X-1646000Y7400000D01*
X-1713039Y7419685D01*
X-1758794Y7472489D01*
X-1770000Y7524000D01*
X-1770000Y8204506D01*
X-1770002Y8204507D01*
X-1916191Y8162035D01*
X-1916194Y8162033D01*
X-2044723Y8086021D01*
X-2112447Y8068838D01*
X-2153333Y8077398D01*
X-2190735Y8092147D01*
X-2210826Y8100070D01*
X-2297680Y8110500D01*
X-2662320Y8110500D01*
X-2722826Y8103234D01*
X-2749176Y8100070D01*
X-2887393Y8045564D01*
X-2887394Y8045564D01*
X-3003290Y7957678D01*
X-3029162Y7947846D01*
X-3053639Y7934943D01*
X-3063150Y7934928D01*
X-3068601Y7932856D01*
X-3088876Y7932942D01*
X-3095697Y7933531D01*
X-3181007Y7950500D01*
X-3292321Y7950500D01*
X-3297639Y7950959D01*
X-3325421Y7961789D01*
X-3354016Y7970185D01*
X-3357615Y7974338D01*
X-3362738Y7976335D01*
X-3380256Y8000468D01*
X-3399771Y8022989D01*
X-3400554Y8028429D01*
X-3403783Y8032878D01*
X-3405473Y8062643D01*
X-3409715Y8092147D01*
X-3407432Y8097148D01*
X-3407743Y8102635D01*
X-3393074Y8128587D01*
X-3380690Y8155703D01*
X-3374658Y8162181D01*
X-3307685Y8229155D01*
X-3215644Y8378376D01*
X-3215642Y8378381D01*
X-3160495Y8544803D01*
X-3160494Y8544810D01*
X-3150001Y8647514D01*
X-3150000Y8647527D01*
X-3150000Y9547500D01*
X-4000000Y9547500D01*
X-4000000Y7947501D01*
X-3850040Y7947501D01*
X-3848611Y7947574D01*
X-3848306Y7947501D01*
X-3846866Y7947501D01*
X-3846866Y7947158D01*
X-3780654Y7931335D01*
X-3732265Y7880933D01*
X-3718807Y7812372D01*
X-3744552Y7747419D01*
X-3754603Y7736055D01*
X-3794111Y7696547D01*
X-3794115Y7696542D01*
X-3870772Y7581818D01*
X-3870779Y7581805D01*
X-3923579Y7454333D01*
X-3923582Y7454323D01*
X-3950500Y7318996D01*
X-3950500Y7318993D01*
X-3950500Y7181007D01*
X-3950500Y7181005D01*
X-3950501Y7181005D01*
X-3923582Y7045678D01*
X-3923579Y7045668D01*
X-3901022Y6991211D01*
X-3893553Y6921742D01*
X-3924828Y6859263D01*
X-3972248Y6827578D01*
X-4055229Y6796628D01*
X-4055229Y6796627D01*
X-4163630Y6715479D01*
X-4229094Y6691062D01*
X-4297367Y6705914D01*
X-4346772Y6755319D01*
X-4352501Y6767294D01*
X-4379222Y6831805D01*
X-4379229Y6831818D01*
X-4455886Y6946542D01*
X-4455889Y6946546D01*
X-4553455Y7044112D01*
X-4553459Y7044115D01*
X-4668183Y7120772D01*
X-4668196Y7120779D01*
X-4795668Y7173579D01*
X-4795678Y7173582D01*
X-4931005Y7200500D01*
X-4931007Y7200500D01*
X-5068993Y7200500D01*
X-5133271Y7187715D01*
X-5202863Y7193944D01*
X-5258039Y7236807D01*
X-5281283Y7302697D01*
X-5280577Y7324109D01*
X-5279500Y7333073D01*
X-5279501Y7686926D01*
X-5289834Y7772979D01*
X-5343837Y7909922D01*
X-5432784Y8027216D01*
X-5432787Y8027219D01*
X-5432789Y8027221D01*
X-5438181Y8032613D01*
X-5452885Y8059541D01*
X-5469477Y8085359D01*
X-5470369Y8091560D01*
X-5471666Y8093936D01*
X-5474500Y8120294D01*
X-5474500Y8249410D01*
X-5454815Y8316449D01*
X-5402011Y8362204D01*
X-5332853Y8372148D01*
X-5269297Y8343123D01*
X-5244961Y8314506D01*
X-5192318Y8229157D01*
X-5068346Y8105185D01*
X-4919125Y8013144D01*
X-4919120Y8013142D01*
X-4752698Y7957995D01*
X-4752691Y7957994D01*
X-4649981Y7947501D01*
X-4500001Y7947501D01*
X-4500000Y7947502D01*
X-4500000Y9547500D01*
X-5349999Y9547500D01*
X-5349999Y9435441D01*
X-5369684Y9368402D01*
X-5422488Y9322647D01*
X-5491646Y9312703D01*
X-5555202Y9341728D01*
X-5563310Y9349420D01*
X-5573815Y9360327D01*
X-5579495Y9370165D01*
X-5677335Y9468005D01*
X-5677338Y9468007D01*
X-5713181Y9503850D01*
X-5746666Y9565173D01*
X-5749500Y9591531D01*
X-5749500Y10947487D01*
X-5350000Y10947487D01*
X-5350000Y10047500D01*
X-4500000Y10047500D01*
X-4000000Y10047500D01*
X-3150001Y10047500D01*
X-3150001Y10947472D01*
X-3150002Y10947487D01*
X-3160495Y11050198D01*
X-3215642Y11216620D01*
X-3215644Y11216624D01*
X-3253405Y11277845D01*
X-800000Y11277845D01*
X-800000Y10880000D01*
X150000Y10880000D01*
X150000Y11730000D01*
X-347845Y11730000D01*
X-407373Y11723599D01*
X-407380Y11723597D01*
X-542087Y11673355D01*
X-542094Y11673351D01*
X-657188Y11587191D01*
X-657191Y11587188D01*
X-743351Y11472094D01*
X-743355Y11472087D01*
X-793597Y11337380D01*
X-793599Y11337373D01*
X-800000Y11277845D01*
X-3253405Y11277845D01*
X-3307685Y11365846D01*
X-3431655Y11489816D01*
X-3580876Y11581857D01*
X-3580881Y11581859D01*
X-3747303Y11637006D01*
X-3747310Y11637007D01*
X-3850014Y11647500D01*
X-4000000Y11647500D01*
X-4000000Y10047500D01*
X-4500000Y10047500D01*
X-4500000Y11647500D01*
X-4649973Y11647500D01*
X-4649988Y11647499D01*
X-4752698Y11637006D01*
X-4919120Y11581859D01*
X-4919125Y11581857D01*
X-5068346Y11489816D01*
X-5192316Y11365846D01*
X-5284357Y11216625D01*
X-5284359Y11216620D01*
X-5339506Y11050198D01*
X-5339507Y11050191D01*
X-5350000Y10947487D01*
X-5749500Y10947487D01*
X-5749500Y10963187D01*
X-5749501Y10963202D01*
X-5749961Y10969042D01*
X-5752402Y11000069D01*
X-5798256Y11157898D01*
X-5881919Y11299365D01*
X-5881921Y11299367D01*
X-5881924Y11299371D01*
X-5998130Y11415577D01*
X-5998138Y11415583D01*
X-6087351Y11468343D01*
X-6139602Y11499244D01*
X-6139603Y11499245D01*
X-6139604Y11499245D01*
X-6139607Y11499246D01*
X-6297427Y11545098D01*
X-6297433Y11545099D01*
X-6334299Y11548000D01*
X-6334306Y11548000D01*
X-7165694Y11548000D01*
X-7165702Y11548000D01*
X-7202568Y11545099D01*
X-7202574Y11545098D01*
X-7360394Y11499246D01*
X-7360397Y11499245D01*
X-7501863Y11415583D01*
X-7501871Y11415577D01*
X-7618077Y11299371D01*
X-7618083Y11299363D01*
X-7701745Y11157897D01*
X-7701746Y11157894D01*
X-7747598Y11000074D01*
X-7747599Y11000068D01*
X-7750500Y10963202D01*
X-7750500Y8631799D01*
X-7747599Y8594933D01*
X-7747598Y8594927D01*
X-7701746Y8437107D01*
X-7701745Y8437104D01*
X-7618083Y8295638D01*
X-7618077Y8295630D01*
X-7501871Y8179424D01*
X-7501867Y8179421D01*
X-7501865Y8179419D01*
X-7360398Y8095756D01*
X-7326890Y8086021D01*
X-7202574Y8049903D01*
X-7202571Y8049903D01*
X-7202569Y8049902D01*
X-7165694Y8047000D01*
X-6784299Y8047000D01*
X-6717260Y8027315D01*
X-6671505Y7974511D01*
X-6661561Y7905353D01*
X-6668943Y7877515D01*
X-6672103Y7869500D01*
X-6710167Y7772978D01*
X-6720500Y7686928D01*
X-6720500Y7333081D01*
X-6710167Y7247023D01*
X-6656163Y7110078D01*
X-6656162Y7110077D01*
X-6629506Y7074924D01*
X-6604684Y7009612D01*
X-6619113Y6941248D01*
X-6629506Y6925076D01*
X-6656162Y6889925D01*
X-6710167Y6752978D01*
X-6720500Y6666928D01*
X-6720500Y6313081D01*
X-6710167Y6227023D01*
X-6656163Y6090078D01*
X-6656162Y6090076D01*
X-6567217Y5972784D01*
X-6449558Y5883561D01*
X-6408035Y5827369D01*
X-6403483Y5757647D01*
X-6409921Y5737308D01*
X-6423578Y5704337D01*
X-6423582Y5704323D01*
X-6450500Y5568996D01*
X-6450500Y5568993D01*
X-6450500Y5431007D01*
X-6450500Y5431005D01*
X-6450501Y5431005D01*
X-6423582Y5295678D01*
X-6423580Y5295673D01*
X-6385890Y5204678D01*
X-6378422Y5135209D01*
X-6409698Y5072730D01*
X-6431559Y5054126D01*
X-6446544Y5044114D01*
X-6544112Y4946546D01*
X-6544115Y4946542D01*
X-6620772Y4831818D01*
X-6620779Y4831805D01*
X-6673579Y4704333D01*
X-6673582Y4704323D01*
X-6700500Y4568996D01*
X-6700500Y4568993D01*
X-6700500Y4431007D01*
X-6700500Y4431005D01*
X-6700501Y4431005D01*
X-6672392Y4289698D01*
X-6673968Y4289385D01*
X-6673414Y4227311D01*
X-6697547Y4181671D01*
X-6706816Y4170580D01*
X-6714687Y4164687D01*
X-6740025Y4130840D01*
X-6742172Y4128270D01*
X-6768572Y4110630D01*
X-6793992Y4091600D01*
X-6797414Y4091356D01*
X-6800265Y4089450D01*
X-6832005Y4088883D01*
X-6863684Y4086617D01*
X-6866696Y4088262D01*
X-6870124Y4088200D01*
X-6897130Y4104881D01*
X-6925004Y4120102D01*
X-6934617Y4129715D01*
X-6934626Y4129722D01*
X-7073805Y4212032D01*
X-7073810Y4212034D01*
X-7229082Y4257145D01*
X-7229088Y4257146D01*
X-7250000Y4258791D01*
X-7250000Y3604000D01*
X-7269685Y3536961D01*
X-7322489Y3491206D01*
X-7374000Y3480000D01*
X-7626000Y3480000D01*
X-7693039Y3499685D01*
X-7738794Y3552489D01*
X-7750000Y3604000D01*
X-7750000Y4313030D01*
X-7748458Y4313030D01*
X-7747114Y4354841D01*
X-7707470Y4412374D01*
X-7704875Y4414423D01*
X-7639549Y4464549D01*
X-7547302Y4584767D01*
X-7489313Y4724764D01*
X-7474500Y4837280D01*
X-7474500Y5262720D01*
X-7489313Y5375236D01*
X-7547302Y5515233D01*
X-7639549Y5635451D01*
X-7759767Y5727698D01*
X-7759771Y5727700D01*
X-7832070Y5757647D01*
X-7899764Y5785687D01*
X-7913829Y5787539D01*
X-8012273Y5800500D01*
X-8012280Y5800500D01*
X-8987720Y5800500D01*
X-8987728Y5800500D01*
X-9100236Y5785687D01*
X-9100237Y5785687D01*
X-9240231Y5727700D01*
X-9240234Y5727698D01*
X-9275014Y5701010D01*
X-9340183Y5675816D01*
X-9408628Y5689855D01*
X-9458618Y5738669D01*
X-9474500Y5799386D01*
X-9474500Y6083461D01*
X-9454815Y6150500D01*
X-9402011Y6196255D01*
X-9332853Y6206199D01*
X-9286350Y6189578D01*
X-9229064Y6154947D01*
X-9072563Y6106180D01*
X-9004557Y6100001D01*
X-8750001Y6100001D01*
X-8250000Y6100001D01*
X-7995435Y6100001D01*
X-7927439Y6106179D01*
X-7927428Y6106182D01*
X-7770940Y6154945D01*
X-7770936Y6154947D01*
X-7630663Y6239744D01*
X-7630658Y6239748D01*
X-7514748Y6355658D01*
X-7514744Y6355663D01*
X-7429948Y6495935D01*
X-7381179Y6652442D01*
X-7376858Y6700000D01*
X-8250000Y6700000D01*
X-8250000Y6100001D01*
X-8750001Y6100001D01*
X-8750000Y6100002D01*
X-8750000Y6700000D01*
X-9628283Y6700000D01*
X-9676506Y6670759D01*
X-9746352Y6672582D01*
X-9755776Y6676046D01*
X-9899761Y6735686D01*
X-9899763Y6735687D01*
X-9899764Y6735687D01*
X-9913829Y6737539D01*
X-10012273Y6750500D01*
X-10012280Y6750500D01*
X-10987720Y6750500D01*
X-10987728Y6750500D01*
X-11100236Y6735687D01*
X-11100237Y6735687D01*
X-11240230Y6677700D01*
X-11240233Y6677699D01*
X-11240233Y6677698D01*
X-11342142Y6599500D01*
X-11360452Y6585450D01*
X-11369228Y6574012D01*
X-11425657Y6532810D01*
X-11467603Y6525500D01*
X-12506684Y6525500D01*
X-12573511Y6507595D01*
X-12573510Y6507594D01*
X-12640338Y6489688D01*
X-12640339Y6489687D01*
X-12760162Y6420508D01*
X-12760167Y6420504D01*
X-12809895Y6370775D01*
X-12858005Y6322665D01*
X-12858007Y6322663D01*
X-13226341Y5954328D01*
X-13568850Y5611819D01*
X-13630173Y5578334D01*
X-13656531Y5575500D01*
X-14271310Y5575500D01*
X-14307833Y5572626D01*
X-14307839Y5572625D01*
X-14464142Y5527214D01*
X-14464145Y5527213D01*
X-14604250Y5444355D01*
X-14604259Y5444349D01*
X-14719349Y5329259D01*
X-14719355Y5329250D01*
X-14802213Y5189145D01*
X-14802214Y5189142D01*
X-14847625Y5032839D01*
X-14847626Y5032833D01*
X-14850500Y4996310D01*
X-14850500Y4378691D01*
X-14847626Y4342168D01*
X-14847625Y4342162D01*
X-14802214Y4185859D01*
X-14802213Y4185856D01*
X-14802212Y4185854D01*
X-14719353Y4045747D01*
X-14719351Y4045745D01*
X-14719349Y4045742D01*
X-14604259Y3930652D01*
X-14604250Y3930645D01*
X-14479270Y3856732D01*
X-14431586Y3805663D01*
X-14419083Y3736921D01*
X-14445728Y3672332D01*
X-14479270Y3643268D01*
X-14604250Y3569356D01*
X-14604259Y3569349D01*
X-14719349Y3454259D01*
X-14719355Y3454250D01*
X-14802213Y3314145D01*
X-14802214Y3314142D01*
X-14847625Y3157839D01*
X-14847626Y3157833D01*
X-14850500Y3121310D01*
X-14850500Y2503691D01*
X-14847626Y2467168D01*
X-14847625Y2467162D01*
X-14802214Y2310859D01*
X-14802213Y2310856D01*
X-14802212Y2310854D01*
X-14719353Y2170747D01*
X-14719351Y2170745D01*
X-14719349Y2170742D01*
X-14604259Y2055652D01*
X-14604256Y2055650D01*
X-14604253Y2055647D01*
X-14464146Y1972788D01*
X-14422925Y1960812D01*
X-14307839Y1927376D01*
X-14307836Y1927376D01*
X-14307834Y1927375D01*
X-14271304Y1924500D01*
X-14271296Y1924500D01*
X-13228704Y1924500D01*
X-13228696Y1924500D01*
X-13192166Y1927375D01*
X-13192164Y1927376D01*
X-13192162Y1927376D01*
X-13106326Y1952314D01*
X-13035854Y1972788D01*
X-12895747Y2055647D01*
X-12780647Y2170747D01*
X-12747899Y2226122D01*
X-12696830Y2273804D01*
X-12641167Y2287000D01*
X-12054933Y2287000D01*
X-11987894Y2267315D01*
X-11956559Y2238488D01*
X-11953672Y2234726D01*
X-11953282Y2234218D01*
X-11827841Y2137964D01*
X-11681762Y2077456D01*
X-11564361Y2062000D01*
X-10935640Y2062001D01*
X-10935637Y2062001D01*
X-10818247Y2077454D01*
X-10818243Y2077456D01*
X-10818238Y2077456D01*
X-10672159Y2137964D01*
X-10546718Y2234218D01*
X-10450464Y2359659D01*
X-10389956Y2505738D01*
X-10374500Y2623139D01*
X-10374501Y2711331D01*
X-10354817Y2778367D01*
X-10302014Y2824123D01*
X-10232855Y2834067D01*
X-10210253Y2827867D01*
X-10210155Y2828188D01*
X-10204333Y2826422D01*
X-10204328Y2826420D01*
X-10204324Y2826420D01*
X-10204323Y2826419D01*
X-10068996Y2799500D01*
X-10068993Y2799500D01*
X-9931005Y2799500D01*
X-9807220Y2824123D01*
X-9795672Y2826420D01*
X-9681274Y2873805D01*
X-9668196Y2879222D01*
X-9668196Y2879223D01*
X-9668189Y2879225D01*
X-9553458Y2955886D01*
X-9455886Y3053458D01*
X-9379225Y3168189D01*
X-9326420Y3295672D01*
X-9318868Y3333641D01*
X-9286484Y3395549D01*
X-9225769Y3430124D01*
X-9156000Y3426385D01*
X-9099327Y3385520D01*
X-9094149Y3378339D01*
X-9044115Y3303459D01*
X-9044112Y3303455D01*
X-8946546Y3205889D01*
X-8946542Y3205886D01*
X-8831818Y3129229D01*
X-8831805Y3129222D01*
X-8739402Y3090948D01*
X-8704328Y3076420D01*
X-8704324Y3076420D01*
X-8704323Y3076419D01*
X-8568996Y3049500D01*
X-8568993Y3049500D01*
X-8431005Y3049500D01*
X-8358292Y3063964D01*
X-8347856Y3066040D01*
X-8324650Y3063964D01*
X-8301475Y3066422D01*
X-8290498Y3060908D01*
X-8278265Y3059813D01*
X-8259863Y3045519D01*
X-8239040Y3035058D01*
X-8226822Y3019852D01*
X-8223087Y3016951D01*
X-8216933Y3007546D01*
X-8186022Y2955280D01*
X-8168838Y2887556D01*
X-8177398Y2846668D01*
X-8192626Y2808051D01*
X-8200070Y2789174D01*
X-8210500Y2702320D01*
X-8210500Y2337680D01*
X-8204769Y2289956D01*
X-8200070Y2250825D01*
X-8145564Y2112608D01*
X-8145564Y2112607D01*
X-8086016Y2034080D01*
X-8061194Y1968769D01*
X-8075623Y1900405D01*
X-8081718Y1890266D01*
X-8120773Y1831816D01*
X-8120779Y1831805D01*
X-8173579Y1704333D01*
X-8173582Y1704323D01*
X-8200500Y1568996D01*
X-8200500Y1568993D01*
X-8200500Y1431007D01*
X-8200500Y1431005D01*
X-8200501Y1431005D01*
X-8173582Y1295678D01*
X-8173579Y1295668D01*
X-8120779Y1168196D01*
X-8120772Y1168183D01*
X-8044115Y1053459D01*
X-8044112Y1053455D01*
X-7946546Y955889D01*
X-7946542Y955886D01*
X-7831818Y879229D01*
X-7831805Y879222D01*
X-7711163Y829251D01*
X-7704328Y826420D01*
X-7704324Y826420D01*
X-7704323Y826419D01*
X-7568996Y799500D01*
X-7568993Y799500D01*
X-7431005Y799500D01*
X-7339959Y817611D01*
X-7295672Y826420D01*
X-7168189Y879225D01*
X-7053458Y955886D01*
X-7053454Y955891D01*
X-7053164Y956127D01*
X-7052980Y956206D01*
X-7048393Y959270D01*
X-7047812Y958401D01*
X-6988854Y983439D01*
X-6919987Y971648D01*
X-6868427Y924495D01*
X-6850500Y860274D01*
X-6850500Y629520D01*
X-6850499Y629510D01*
X-6844413Y572887D01*
X-6844411Y572882D01*
X-6833390Y543332D01*
X-6828406Y473640D01*
X-6833390Y456668D01*
X-6844411Y427122D01*
X-6844413Y427111D01*
X-6850500Y370501D01*
X-6850500Y129520D01*
X-6850499Y129510D01*
X-6844413Y72887D01*
X-6844411Y72882D01*
X-6833390Y43332D01*
X-6828406Y-26360D01*
X-6833390Y-43332D01*
X-6844411Y-72878D01*
X-6844413Y-72889D01*
X-6850500Y-129498D01*
X-6850500Y-286789D01*
X-6870185Y-353828D01*
X-6886819Y-374470D01*
X-6985993Y-473645D01*
X-7188990Y-676643D01*
X-7274528Y-762181D01*
X-7335851Y-795666D01*
X-7362209Y-798500D01*
X-10501001Y-798500D01*
X-10568040Y-778815D01*
X-10613795Y-726011D01*
X-10623739Y-656853D01*
X-10594714Y-593297D01*
X-10576490Y-576126D01*
X-10546718Y-553282D01*
X-10450464Y-427841D01*
X-10389956Y-281762D01*
X-10374500Y-164361D01*
X-10374501Y314360D01*
X-10374501Y314361D01*
X-10374501Y314364D01*
X-10389954Y431754D01*
X-10389956Y431759D01*
X-10389956Y431762D01*
X-10450464Y577841D01*
X-10546718Y703282D01*
X-10672159Y799536D01*
X-10678733Y802259D01*
X-10818238Y860044D01*
X-10818240Y860045D01*
X-10935639Y875500D01*
X-11564364Y875500D01*
X-11681754Y860047D01*
X-11681766Y860043D01*
X-11827837Y799539D01*
X-11827842Y799536D01*
X-11907223Y738624D01*
X-11972392Y713430D01*
X-11982709Y713000D01*
X-12641167Y713000D01*
X-12708206Y732685D01*
X-12747899Y773879D01*
X-12763051Y799500D01*
X-12780647Y829253D01*
X-12780649Y829255D01*
X-12780652Y829259D01*
X-12895742Y944349D01*
X-12895745Y944351D01*
X-12895747Y944353D01*
X-13035854Y1027212D01*
X-13035855Y1027213D01*
X-13035856Y1027213D01*
X-13035859Y1027214D01*
X-13192162Y1072625D01*
X-13192168Y1072626D01*
X-13228691Y1075500D01*
X-13228696Y1075500D01*
X-14271304Y1075500D01*
X-14271310Y1075500D01*
X-14307833Y1072626D01*
X-14307839Y1072625D01*
X-14464142Y1027214D01*
X-14464145Y1027213D01*
X-14604250Y944355D01*
X-14604259Y944349D01*
X-14719349Y829259D01*
X-14719355Y829250D01*
X-14802213Y689145D01*
X-14802214Y689142D01*
X-14847625Y532839D01*
X-14847626Y532833D01*
X-14850500Y496310D01*
X-14850500Y-121309D01*
X-14847626Y-157832D01*
X-14847625Y-157838D01*
X-14802214Y-314141D01*
X-14802213Y-314144D01*
X-14802212Y-314146D01*
X-14719353Y-454253D01*
X-14719351Y-454255D01*
X-14719349Y-454258D01*
X-14604259Y-569348D01*
X-14604248Y-569357D01*
X-14577316Y-585284D01*
X-14529632Y-636352D01*
X-14517128Y-705094D01*
X-14543773Y-769684D01*
X-14575338Y-797554D01*
X-14670690Y-856368D01*
X-14793630Y-979308D01*
X-14884904Y-1127285D01*
X-14884906Y-1127290D01*
X-14939593Y-1292326D01*
X-14950000Y-1394184D01*
X-21599500Y-1394184D01*
X-21599500Y9031525D01*
X-19190500Y9031525D01*
X-19190500Y6968483D01*
X-19183625Y6925076D01*
X-19175646Y6874696D01*
X-19118050Y6761658D01*
X-19118048Y6761656D01*
X-19118046Y6761653D01*
X-19028348Y6671955D01*
X-19028346Y6671954D01*
X-19028342Y6671950D01*
X-18934235Y6624000D01*
X-18915302Y6614353D01*
X-18821525Y6599501D01*
X-18821519Y6599500D01*
X-16758482Y6599501D01*
X-16664696Y6614354D01*
X-16551658Y6671950D01*
X-16461950Y6761658D01*
X-16404354Y6874696D01*
X-16404354Y6874698D01*
X-16404353Y6874699D01*
X-16404353Y6874700D01*
X-16401535Y6892490D01*
X-16371606Y6955625D01*
X-16312295Y6992557D01*
X-16242432Y6991559D01*
X-16191381Y6960774D01*
X-16162364Y6931757D01*
X-16162359Y6931753D01*
X-16050521Y6850499D01*
X-15984022Y6802185D01*
X-15881604Y6750000D01*
X-15787607Y6702105D01*
X-15787604Y6702104D01*
X-15682779Y6668045D01*
X-15577951Y6633985D01*
X-15360222Y6599500D01*
X-15360221Y6599500D01*
X-15139779Y6599500D01*
X-15139778Y6599500D01*
X-14922049Y6633985D01*
X-14712394Y6702105D01*
X-14515978Y6802185D01*
X-14337635Y6931758D01*
X-14181758Y7087635D01*
X-14100120Y7200001D01*
X-9623143Y7200001D01*
X-9623143Y7200000D01*
X-8750000Y7200000D01*
X-8250000Y7200000D01*
X-7376857Y7200000D01*
X-7376858Y7200001D01*
X-7381179Y7247559D01*
X-7429948Y7404066D01*
X-7514744Y7544338D01*
X-7514748Y7544343D01*
X-7630658Y7660253D01*
X-7630663Y7660257D01*
X-7770935Y7745053D01*
X-7927438Y7793821D01*
X-7995444Y7800000D01*
X-8250000Y7800000D01*
X-8250000Y7200000D01*
X-8750000Y7200000D01*
X-8750000Y7800000D01*
X-8816328Y7800000D01*
X-9015266Y7799027D01*
X-9072562Y7793822D01*
X-9072573Y7793819D01*
X-9229061Y7745056D01*
X-9229065Y7745054D01*
X-9369338Y7660257D01*
X-9369343Y7660253D01*
X-9485253Y7544343D01*
X-9485257Y7544338D01*
X-9570053Y7404066D01*
X-9618822Y7247559D01*
X-9623143Y7200001D01*
X-14100120Y7200001D01*
X-14052185Y7265978D01*
X-13952105Y7462394D01*
X-13883985Y7672049D01*
X-13849500Y7889778D01*
X-13849500Y8110222D01*
X-13883985Y8327951D01*
X-13933090Y8479082D01*
X-13952104Y8537604D01*
X-13952105Y8537607D01*
X-14000107Y8631814D01*
X-14052185Y8734022D01*
X-14102633Y8803458D01*
X-14181753Y8912359D01*
X-14181757Y8912364D01*
X-14337637Y9068244D01*
X-14337642Y9068248D01*
X-14515975Y9197813D01*
X-14515976Y9197814D01*
X-14515978Y9197815D01*
X-14595518Y9238343D01*
X-14712394Y9297896D01*
X-14712397Y9297897D01*
X-14922048Y9366015D01*
X-15045994Y9385646D01*
X-15139778Y9400500D01*
X-15360222Y9400500D01*
X-15391399Y9395562D01*
X-15577953Y9366015D01*
X-15787604Y9297897D01*
X-15787607Y9297896D01*
X-15984026Y9197813D01*
X-16162359Y9068249D01*
X-16191383Y9039224D01*
X-16252707Y9005740D01*
X-16322398Y9010726D01*
X-16378331Y9052598D01*
X-16401537Y9107511D01*
X-16404354Y9125304D01*
X-16461950Y9238342D01*
X-16461954Y9238346D01*
X-16461955Y9238348D01*
X-16551653Y9328046D01*
X-16551656Y9328048D01*
X-16551658Y9328050D01*
X-16634313Y9370165D01*
X-16664699Y9385648D01*
X-16758476Y9400500D01*
X-18821518Y9400500D01*
X-18902481Y9387677D01*
X-18915304Y9385646D01*
X-19028342Y9328050D01*
X-19028343Y9328049D01*
X-19028348Y9328046D01*
X-19118046Y9238348D01*
X-19118049Y9238343D01*
X-19175648Y9125302D01*
X-19190500Y9031525D01*
X-21599500Y9031525D01*
X-21599500Y10181005D01*
X-11200501Y10181005D01*
X-11173582Y10045678D01*
X-11173579Y10045668D01*
X-11120779Y9918196D01*
X-11120772Y9918183D01*
X-11054427Y9818891D01*
X-11033549Y9752213D01*
X-11052034Y9684833D01*
X-11054427Y9681109D01*
X-11120772Y9581818D01*
X-11120779Y9581805D01*
X-11173579Y9454333D01*
X-11173582Y9454323D01*
X-11200500Y9318996D01*
X-11200500Y9318993D01*
X-11200500Y9181007D01*
X-11200500Y9181005D01*
X-11200501Y9181005D01*
X-11173582Y9045678D01*
X-11173579Y9045668D01*
X-11120779Y8918196D01*
X-11120772Y8918183D01*
X-11044115Y8803459D01*
X-11044112Y8803455D01*
X-10946546Y8705889D01*
X-10946542Y8705886D01*
X-10831818Y8629229D01*
X-10831805Y8629222D01*
X-10704333Y8576422D01*
X-10704328Y8576420D01*
X-10704324Y8576420D01*
X-10704323Y8576419D01*
X-10568996Y8549500D01*
X-10568993Y8549500D01*
X-10431006Y8549500D01*
X-10415114Y8552662D01*
X-10356680Y8564285D01*
X-10287090Y8558058D01*
X-10231912Y8515196D01*
X-10213413Y8477264D01*
X-10201746Y8437106D01*
X-10201745Y8437104D01*
X-10118083Y8295638D01*
X-10118077Y8295630D01*
X-10001871Y8179424D01*
X-10001867Y8179421D01*
X-10001865Y8179419D01*
X-9860398Y8095756D01*
X-9826890Y8086021D01*
X-9702574Y8049903D01*
X-9702571Y8049903D01*
X-9702569Y8049902D01*
X-9665694Y8047000D01*
X-9665686Y8047000D01*
X-9021582Y8047000D01*
X-8834306Y8047000D01*
X-8797431Y8049902D01*
X-8797429Y8049903D01*
X-8797427Y8049903D01*
X-8735899Y8067779D01*
X-8639602Y8095756D01*
X-8498135Y8179419D01*
X-8381919Y8295635D01*
X-8298256Y8437102D01*
X-8252402Y8594931D01*
X-8249500Y8631806D01*
X-8249500Y10963194D01*
X-8252402Y11000069D01*
X-8298256Y11157898D01*
X-8381919Y11299365D01*
X-8381921Y11299367D01*
X-8381924Y11299371D01*
X-8498130Y11415577D01*
X-8498138Y11415583D01*
X-8587351Y11468343D01*
X-8639602Y11499244D01*
X-8639603Y11499245D01*
X-8639604Y11499245D01*
X-8639607Y11499246D01*
X-8797427Y11545098D01*
X-8797433Y11545099D01*
X-8834299Y11548000D01*
X-8834306Y11548000D01*
X-9665694Y11548000D01*
X-9665702Y11548000D01*
X-9702568Y11545099D01*
X-9702574Y11545098D01*
X-9860394Y11499246D01*
X-9860397Y11499245D01*
X-10001863Y11415583D01*
X-10001871Y11415577D01*
X-10118077Y11299371D01*
X-10118083Y11299363D01*
X-10201745Y11157897D01*
X-10201747Y11157894D01*
X-10239505Y11027928D01*
X-10277111Y10969042D01*
X-10340584Y10939836D01*
X-10382773Y10940906D01*
X-10431005Y10950500D01*
X-10431007Y10950500D01*
X-10568993Y10950500D01*
X-10568995Y10950500D01*
X-10704323Y10923582D01*
X-10704333Y10923579D01*
X-10831805Y10870779D01*
X-10831818Y10870772D01*
X-10946542Y10794115D01*
X-10946546Y10794112D01*
X-11044112Y10696546D01*
X-11044115Y10696542D01*
X-11120772Y10581818D01*
X-11120779Y10581805D01*
X-11173579Y10454333D01*
X-11173582Y10454323D01*
X-11200500Y10318996D01*
X-11200500Y10318993D01*
X-11200500Y10181007D01*
X-11200500Y10181005D01*
X-11200501Y10181005D01*
X-21599500Y10181005D01*
X-21599500Y12495949D01*
X-21599236Y12504029D01*
X-21593049Y12598423D01*
X-20750500Y12598423D01*
X-20750500Y12401578D01*
X-20719710Y12207174D01*
X-20658883Y12019971D01*
X-20601017Y11906404D01*
X-20569524Y11844595D01*
X-20453828Y11685354D01*
X-20314646Y11546172D01*
X-20155405Y11430476D01*
X-20072545Y11388257D01*
X-19980030Y11341118D01*
X-19980028Y11341118D01*
X-19980025Y11341116D01*
X-19879683Y11308513D01*
X-19792827Y11280291D01*
X-19598422Y11249500D01*
X-19598417Y11249500D01*
X-19401578Y11249500D01*
X-19207174Y11280291D01*
X-19148471Y11299365D01*
X-19019975Y11341116D01*
X-18844595Y11430476D01*
X-18685354Y11546172D01*
X-18546172Y11685354D01*
X-18430476Y11844595D01*
X-18341116Y12019975D01*
X-18280291Y12207174D01*
X-18249500Y12401578D01*
X-18249500Y12598423D01*
X-18280291Y12792827D01*
X-18319106Y12912285D01*
X-18341116Y12980025D01*
X-18341118Y12980028D01*
X-18341118Y12980030D01*
X-18415494Y13126000D01*
X-18421865Y13138505D01*
X-10850501Y13138505D01*
X-10823582Y13003178D01*
X-10823579Y13003168D01*
X-10770779Y12875696D01*
X-10770772Y12875683D01*
X-10694115Y12760959D01*
X-10694112Y12760955D01*
X-10596546Y12663389D01*
X-10596542Y12663386D01*
X-10481818Y12586729D01*
X-10481805Y12586722D01*
X-10354333Y12533922D01*
X-10354328Y12533920D01*
X-10354324Y12533920D01*
X-10354323Y12533919D01*
X-10218996Y12507000D01*
X-10218993Y12507000D01*
X-10081005Y12507000D01*
X-9989959Y12525111D01*
X-9945672Y12533920D01*
X-9818189Y12586725D01*
X-9703458Y12663386D01*
X-9605886Y12760958D01*
X-9529225Y12875689D01*
X-9476420Y13003172D01*
X-9462022Y13075554D01*
X-9449500Y13138505D01*
X-4050501Y13138505D01*
X-4023582Y13003178D01*
X-4023579Y13003168D01*
X-3970779Y12875696D01*
X-3970772Y12875683D01*
X-3894115Y12760959D01*
X-3894112Y12760955D01*
X-3796546Y12663389D01*
X-3796542Y12663386D01*
X-3681818Y12586729D01*
X-3681805Y12586722D01*
X-3554333Y12533922D01*
X-3554328Y12533920D01*
X-3554324Y12533920D01*
X-3554323Y12533919D01*
X-3418996Y12507000D01*
X-3418993Y12507000D01*
X-3281005Y12507000D01*
X-3189959Y12525111D01*
X-3145672Y12533920D01*
X-3018189Y12586725D01*
X-2903458Y12663386D01*
X-2805886Y12760958D01*
X-2729225Y12875689D01*
X-2676420Y13003172D01*
X-2662022Y13075554D01*
X-2649500Y13138505D01*
X-2649500Y13276496D01*
X-2676419Y13411823D01*
X-2676420Y13411824D01*
X-2676420Y13411828D01*
X-2712942Y13500000D01*
X-2729222Y13539305D01*
X-2729229Y13539318D01*
X-2805886Y13654042D01*
X-2805889Y13654046D01*
X-2903455Y13751612D01*
X-2903459Y13751615D01*
X-3018183Y13828272D01*
X-3018196Y13828279D01*
X-3145668Y13881079D01*
X-3145678Y13881082D01*
X-3281005Y13908000D01*
X-3281007Y13908000D01*
X-3418993Y13908000D01*
X-3418995Y13908000D01*
X-3554323Y13881082D01*
X-3554333Y13881079D01*
X-3681805Y13828279D01*
X-3681818Y13828272D01*
X-3796542Y13751615D01*
X-3796546Y13751612D01*
X-3894112Y13654046D01*
X-3894115Y13654042D01*
X-3970772Y13539318D01*
X-3970779Y13539305D01*
X-4023579Y13411833D01*
X-4023582Y13411823D01*
X-4050500Y13276496D01*
X-4050500Y13276493D01*
X-4050500Y13138507D01*
X-4050500Y13138505D01*
X-4050501Y13138505D01*
X-9449500Y13138505D01*
X-9449500Y13276496D01*
X-9476419Y13411823D01*
X-9476420Y13411824D01*
X-9476420Y13411828D01*
X-9512942Y13500000D01*
X-9529222Y13539305D01*
X-9529229Y13539318D01*
X-9605886Y13654042D01*
X-9605889Y13654046D01*
X-9703455Y13751612D01*
X-9703459Y13751615D01*
X-9818183Y13828272D01*
X-9818196Y13828279D01*
X-9945668Y13881079D01*
X-9945678Y13881082D01*
X-10081005Y13908000D01*
X-10081007Y13908000D01*
X-10218993Y13908000D01*
X-10218995Y13908000D01*
X-10354323Y13881082D01*
X-10354333Y13881079D01*
X-10481805Y13828279D01*
X-10481818Y13828272D01*
X-10596542Y13751615D01*
X-10596546Y13751612D01*
X-10694112Y13654046D01*
X-10694115Y13654042D01*
X-10770772Y13539318D01*
X-10770779Y13539305D01*
X-10823579Y13411833D01*
X-10823582Y13411823D01*
X-10850500Y13276496D01*
X-10850500Y13276493D01*
X-10850500Y13138507D01*
X-10850500Y13138505D01*
X-10850501Y13138505D01*
X-18421865Y13138505D01*
X-18430476Y13155405D01*
X-18446594Y13177590D01*
X-18469921Y13209697D01*
X-18469923Y13209699D01*
X-18518452Y13276493D01*
X-18546172Y13314646D01*
X-18685354Y13453828D01*
X-18844595Y13569524D01*
X-18880297Y13587715D01*
X-19019971Y13658883D01*
X-19207174Y13719710D01*
X-19401578Y13750500D01*
X-19401583Y13750500D01*
X-19598417Y13750500D01*
X-19598422Y13750500D01*
X-19792827Y13719710D01*
X-19980030Y13658883D01*
X-20155406Y13569524D01*
X-20196998Y13539305D01*
X-20314646Y13453828D01*
X-20314648Y13453826D01*
X-20314649Y13453826D01*
X-20453826Y13314649D01*
X-20453826Y13314648D01*
X-20453828Y13314646D01*
X-20481546Y13276496D01*
X-20569524Y13155406D01*
X-20658883Y12980030D01*
X-20719710Y12792827D01*
X-20750500Y12598423D01*
X-21593049Y12598423D01*
X-21582070Y12765937D01*
X-21579955Y12782004D01*
X-21529545Y13035431D01*
X-21525354Y13051074D01*
X-21442295Y13295758D01*
X-21436095Y13310724D01*
X-21321812Y13542467D01*
X-21313705Y13556507D01*
X-21276812Y13611722D01*
X-21170158Y13771342D01*
X-21160296Y13784196D01*
X-20989925Y13978467D01*
X-20978467Y13989925D01*
X-20784196Y14160296D01*
X-20771342Y14170158D01*
X-20556507Y14313705D01*
X-20542467Y14321812D01*
X-20310724Y14436095D01*
X-20295758Y14442295D01*
X-20051074Y14525354D01*
X-20035431Y14529545D01*
X-19782004Y14579955D01*
X-19765952Y14582069D01*
X-19504029Y14599236D01*
X-19495948Y14599500D01*
X-19442417Y14599500D01*
X6591623Y14599500D01*
X6658662Y14579815D01*
G37*
%TD.AperFunction*%
%TA.AperFunction,Conductor*%
G36*
X-1237992Y-19520766D02*
G01*
X-1213337Y-19522529D01*
X-1204672Y-19529015D01*
X-1194165Y-19531616D01*
X-1166524Y-19553562D01*
X-1161648Y-19558723D01*
X-1156115Y-19566115D01*
X-1151167Y-19569819D01*
X-1143860Y-19577554D01*
X-1112133Y-19639805D01*
X-1110000Y-19662705D01*
X-1110000Y-19795701D01*
X-1109999Y-19795702D01*
X-1031209Y-19785330D01*
X-1031200Y-19785328D01*
X-892542Y-19727894D01*
X-890234Y-19726124D01*
X-887933Y-19725234D01*
X-885500Y-19723830D01*
X-885282Y-19724209D01*
X-825065Y-19700930D01*
X-814747Y-19700500D01*
X-635010Y-19700500D01*
X-635000Y-19700500D01*
X-578960Y-19694475D01*
X-543334Y-19681187D01*
X-473643Y-19676202D01*
X-456666Y-19681187D01*
X-421040Y-19694475D01*
X-365000Y-19700500D01*
X-364990Y-19700500D01*
X-224500Y-19700500D01*
X-157461Y-19720185D01*
X-111706Y-19772989D01*
X-100500Y-19824500D01*
X-100500Y-20212320D01*
X-91670Y-20285854D01*
X-90070Y-20299175D01*
X-35564Y-20437394D01*
X-34531Y-20439230D01*
X-34098Y-20441111D01*
X-32451Y-20445286D01*
X-33078Y-20445533D01*
X-18835Y-20507314D01*
X-32722Y-20554607D01*
X-32451Y-20554714D01*
X-33633Y-20557710D01*
X-34531Y-20560770D01*
X-35564Y-20562605D01*
X-90070Y-20700824D01*
X-90070Y-20700826D01*
X-100500Y-20787680D01*
X-100500Y-21212320D01*
X-90070Y-21299174D01*
X-85644Y-21310398D01*
X-83579Y-21315634D01*
X-77298Y-21385221D01*
X-109636Y-21447157D01*
X-135812Y-21467855D01*
X-201865Y-21506919D01*
X-201871Y-21506923D01*
X-318077Y-21623129D01*
X-318084Y-21623138D01*
X-335266Y-21652193D01*
X-386335Y-21699876D01*
X-455077Y-21712380D01*
X-519666Y-21685735D01*
X-547537Y-21654169D01*
X-607685Y-21556654D01*
X-731655Y-21432684D01*
X-880876Y-21340643D01*
X-880881Y-21340641D01*
X-1047303Y-21285494D01*
X-1047310Y-21285493D01*
X-1150014Y-21275000D01*
X-1200000Y-21275000D01*
X-1200000Y-23724999D01*
X-1150028Y-23724999D01*
X-1150014Y-23724998D01*
X-1047303Y-23714505D01*
X-880881Y-23659358D01*
X-880876Y-23659356D01*
X-731655Y-23567315D01*
X-607683Y-23443343D01*
X-547537Y-23345831D01*
X-495589Y-23299106D01*
X-426627Y-23287883D01*
X-362545Y-23315726D01*
X-335268Y-23347803D01*
X-318081Y-23376865D01*
X-318079Y-23376867D01*
X-318077Y-23376870D01*
X-201871Y-23493076D01*
X-201867Y-23493079D01*
X-201865Y-23493081D01*
X-60398Y-23576744D01*
X-18776Y-23588836D01*
X97426Y-23622597D01*
X97429Y-23622597D01*
X97431Y-23622598D01*
X134306Y-23625500D01*
X134314Y-23625500D01*
X765686Y-23625500D01*
X765694Y-23625500D01*
X802569Y-23622598D01*
X802571Y-23622597D01*
X802573Y-23622597D01*
X844191Y-23610505D01*
X960398Y-23576744D01*
X1101865Y-23493081D01*
X1101867Y-23493078D01*
X1103079Y-23492139D01*
X1104207Y-23491695D01*
X1108580Y-23489110D01*
X1108996Y-23489814D01*
X1168113Y-23466598D01*
X1236631Y-23480271D01*
X1266769Y-23502430D01*
X1306654Y-23542315D01*
X1455875Y-23634356D01*
X1455880Y-23634358D01*
X1622302Y-23689505D01*
X1622309Y-23689506D01*
X1725019Y-23699999D01*
X1999999Y-23699999D01*
X2500000Y-23699999D01*
X2774972Y-23699999D01*
X2774986Y-23699998D01*
X2877697Y-23689505D01*
X3044119Y-23634358D01*
X3044124Y-23634356D01*
X3193345Y-23542315D01*
X3317315Y-23418345D01*
X3409356Y-23269124D01*
X3409358Y-23269119D01*
X3464505Y-23102697D01*
X3464506Y-23102690D01*
X3474999Y-22999986D01*
X3475000Y-22999973D01*
X3475000Y-22950000D01*
X2500000Y-22950000D01*
X2500000Y-23699999D01*
X1999999Y-23699999D01*
X2000000Y-23699998D01*
X2000000Y-22824000D01*
X2019685Y-22756961D01*
X2072489Y-22711206D01*
X2124000Y-22700000D01*
X2250000Y-22700000D01*
X2250000Y-22574000D01*
X2269685Y-22506961D01*
X2322489Y-22461206D01*
X2374000Y-22450000D01*
X3474999Y-22450000D01*
X3474999Y-22400028D01*
X3474998Y-22400013D01*
X3464505Y-22297302D01*
X3409358Y-22130880D01*
X3409356Y-22130875D01*
X3317315Y-21981654D01*
X3193344Y-21857683D01*
X3193340Y-21857680D01*
X3095830Y-21797535D01*
X3049105Y-21745588D01*
X3037884Y-21676625D01*
X3065727Y-21612543D01*
X3097806Y-21585266D01*
X3126865Y-21568081D01*
X3243081Y-21451865D01*
X3326744Y-21310398D01*
X3372598Y-21152569D01*
X3372598Y-21152566D01*
X3373737Y-21146333D01*
X3375538Y-21146662D01*
X3397295Y-21089561D01*
X3453522Y-21048084D01*
X3523247Y-21043590D01*
X3583718Y-21076887D01*
X4663181Y-22156350D01*
X4696666Y-22217673D01*
X4699500Y-22244031D01*
X4699500Y-22564363D01*
X4714953Y-22681753D01*
X4714956Y-22681762D01*
X4775464Y-22827842D01*
X4849643Y-22924514D01*
X4874837Y-22989683D01*
X4860798Y-23058128D01*
X4849643Y-23075486D01*
X4775464Y-23172157D01*
X4714956Y-23318237D01*
X4714955Y-23318239D01*
X4699500Y-23435638D01*
X4699500Y-24064355D01*
X4712212Y-24160921D01*
X4701444Y-24229956D01*
X4655063Y-24282211D01*
X4587794Y-24301095D01*
X4575090Y-24299767D01*
X4575058Y-24300097D01*
X4568996Y-24299500D01*
X4568993Y-24299500D01*
X4431007Y-24299500D01*
X4431005Y-24299500D01*
X4295677Y-24326418D01*
X4295667Y-24326421D01*
X4168195Y-24379221D01*
X4168182Y-24379228D01*
X4053458Y-24455885D01*
X4053454Y-24455888D01*
X3955888Y-24553454D01*
X3955885Y-24553458D01*
X3879228Y-24668182D01*
X3879221Y-24668195D01*
X3826421Y-24795667D01*
X3826418Y-24795677D01*
X3799500Y-24931004D01*
X3799500Y-24931007D01*
X3799500Y-25068993D01*
X3799500Y-25068995D01*
X3799499Y-25068995D01*
X3826418Y-25204322D01*
X3826421Y-25204332D01*
X3879221Y-25331804D01*
X3879228Y-25331817D01*
X3953602Y-25443124D01*
X3974480Y-25509801D01*
X3974500Y-25512015D01*
X3974500Y-26770500D01*
X3954815Y-26837539D01*
X3902011Y-26883294D01*
X3850500Y-26894500D01*
X-70500Y-26894500D01*
X-137539Y-26874815D01*
X-183294Y-26822011D01*
X-194500Y-26770500D01*
X-194500Y-25999009D01*
X-194501Y-25998990D01*
X-199491Y-25935574D01*
X-199492Y-25935567D01*
X-204336Y-25904982D01*
X-204336Y-25904979D01*
X-219192Y-25843100D01*
X-276789Y-25730059D01*
X-276791Y-25730056D01*
X-276792Y-25730054D01*
X-312753Y-25680559D01*
X-312754Y-25680558D01*
X-402464Y-25590849D01*
X-402467Y-25590847D01*
X-402468Y-25590846D01*
X-515506Y-25533252D01*
X-515510Y-25533250D01*
X-573694Y-25514346D01*
X-573693Y-25514346D01*
X-698995Y-25494500D01*
X-699000Y-25494500D01*
X-2470500Y-25494500D01*
X-2537539Y-25474815D01*
X-2583294Y-25422011D01*
X-2594500Y-25370500D01*
X-2594500Y-23390665D01*
X-2574815Y-23323626D01*
X-2522011Y-23277871D01*
X-2452853Y-23267927D01*
X-2389297Y-23296952D01*
X-2364961Y-23325568D01*
X-2292316Y-23443345D01*
X-2168346Y-23567315D01*
X-2019125Y-23659356D01*
X-2019120Y-23659358D01*
X-1852698Y-23714505D01*
X-1852691Y-23714506D01*
X-1749981Y-23724999D01*
X-1700001Y-23724998D01*
X-1700000Y-23724998D01*
X-1700000Y-21275000D01*
X-1700001Y-21274999D01*
X-1749971Y-21275000D01*
X-1749989Y-21275001D01*
X-1852698Y-21285494D01*
X-2019120Y-21340641D01*
X-2019125Y-21340643D01*
X-2168346Y-21432684D01*
X-2292316Y-21556654D01*
X-2364961Y-21674431D01*
X-2416909Y-21721155D01*
X-2485872Y-21732377D01*
X-2549954Y-21704534D01*
X-2588810Y-21646465D01*
X-2594500Y-21609334D01*
X-2594500Y-19829500D01*
X-2574815Y-19762461D01*
X-2522011Y-19716706D01*
X-2470500Y-19705500D01*
X-1699008Y-19705500D01*
X-1699000Y-19705500D01*
X-1698991Y-19705499D01*
X-1698985Y-19705499D01*
X-1695243Y-19705204D01*
X-1689904Y-19704784D01*
X-1621526Y-19719144D01*
X-1612368Y-19725060D01*
X-1607456Y-19727896D01*
X-1468804Y-19785327D01*
X-1468799Y-19785329D01*
X-1390000Y-19795702D01*
X-1390000Y-19648050D01*
X-1370315Y-19581011D01*
X-1353689Y-19560376D01*
X-1344347Y-19551034D01*
X-1334850Y-19545847D01*
X-1328120Y-19537372D01*
X-1304726Y-19529396D01*
X-1283029Y-19517548D01*
X-1272233Y-19518319D01*
X-1261987Y-19514827D01*
X-1237992Y-19520766D01*
G37*
%TD.AperFunction*%
%TA.AperFunction,Conductor*%
G36*
X8893834Y-22699337D02*
G01*
X8949767Y-22741209D01*
X8974184Y-22806673D01*
X8974500Y-22815519D01*
X8974500Y-24350500D01*
X8954815Y-24417539D01*
X8902011Y-24463294D01*
X8850500Y-24474500D01*
X8111649Y-24474500D01*
X8044610Y-24454815D01*
X7998855Y-24402011D01*
X7988911Y-24332853D01*
X7993264Y-24313610D01*
X8043590Y-24152106D01*
X8050000Y-24081572D01*
X8050000Y-24000000D01*
X7274000Y-24000000D01*
X7206961Y-23980315D01*
X7161206Y-23927511D01*
X7150000Y-23876000D01*
X7150000Y-23624000D01*
X7169685Y-23556961D01*
X7222489Y-23511206D01*
X7274000Y-23500000D01*
X8049999Y-23500000D01*
X8049999Y-23418417D01*
X8043591Y-23347897D01*
X8043590Y-23347892D01*
X7993018Y-23185601D01*
X7951234Y-23116483D01*
X7933397Y-23048928D01*
X7954914Y-22982454D01*
X8008954Y-22938166D01*
X8078360Y-22930125D01*
X8081542Y-22930715D01*
X8181004Y-22950500D01*
X8181007Y-22950500D01*
X8318995Y-22950500D01*
X8449632Y-22924514D01*
X8454328Y-22923580D01*
X8581811Y-22870775D01*
X8696542Y-22794114D01*
X8721101Y-22769555D01*
X8762819Y-22727838D01*
X8824142Y-22694353D01*
X8893834Y-22699337D01*
G37*
%TD.AperFunction*%
%TA.AperFunction,Conductor*%
G36*
X8893834Y-20199337D02*
G01*
X8949767Y-20241209D01*
X8974184Y-20306673D01*
X8974500Y-20315519D01*
X8974500Y-21684481D01*
X8954815Y-21751520D01*
X8902011Y-21797275D01*
X8832853Y-21807219D01*
X8769297Y-21778194D01*
X8762819Y-21772162D01*
X8696545Y-21705888D01*
X8696541Y-21705885D01*
X8581817Y-21629228D01*
X8581804Y-21629221D01*
X8454332Y-21576421D01*
X8454322Y-21576418D01*
X8318995Y-21549500D01*
X8318993Y-21549500D01*
X8181007Y-21549500D01*
X8181002Y-21549500D01*
X8081541Y-21569284D01*
X8011949Y-21563057D01*
X7956772Y-21520193D01*
X7933528Y-21454304D01*
X7949596Y-21386307D01*
X7951234Y-21383516D01*
X7993018Y-21314397D01*
X7993019Y-21314396D01*
X8043590Y-21152106D01*
X8050000Y-21081572D01*
X8050000Y-21000000D01*
X7274000Y-21000000D01*
X7206961Y-20980315D01*
X7161206Y-20927511D01*
X7150000Y-20876000D01*
X7150000Y-20624000D01*
X7169685Y-20556961D01*
X7222489Y-20511206D01*
X7274000Y-20500000D01*
X8049998Y-20500000D01*
X8066154Y-20483844D01*
X8127477Y-20450358D01*
X8174938Y-20449936D01*
X8174942Y-20449903D01*
X8175254Y-20449933D01*
X8178035Y-20449909D01*
X8181007Y-20450500D01*
X8181009Y-20450500D01*
X8318995Y-20450500D01*
X8444454Y-20425544D01*
X8454328Y-20423580D01*
X8581811Y-20370775D01*
X8696542Y-20294114D01*
X8704802Y-20285854D01*
X8762819Y-20227838D01*
X8824142Y-20194353D01*
X8893834Y-20199337D01*
G37*
%TD.AperFunction*%
%TA.AperFunction,Conductor*%
G36*
X8187063Y-14385318D02*
G01*
X8191646Y-14384660D01*
X8200566Y-14387107D01*
X8207609Y-14388040D01*
X8214672Y-14390028D01*
X8295672Y-14423580D01*
X8425605Y-14449425D01*
X8430277Y-14450741D01*
X8455933Y-14466829D01*
X8482770Y-14480867D01*
X8485241Y-14485206D01*
X8489471Y-14487859D01*
X8502354Y-14515259D01*
X8517344Y-14541583D01*
X8517076Y-14546570D01*
X8519201Y-14551089D01*
X8515225Y-14581104D01*
X8513604Y-14611352D01*
X8510682Y-14615403D01*
X8510027Y-14620353D01*
X8484348Y-14657780D01*
X8178447Y-14963681D01*
X8117124Y-14997166D01*
X8090766Y-15000000D01*
X7274000Y-15000000D01*
X7206961Y-14980315D01*
X7161206Y-14927511D01*
X7150000Y-14876000D01*
X7150000Y-14624000D01*
X7169685Y-14556961D01*
X7222489Y-14511206D01*
X7274000Y-14500000D01*
X8049999Y-14500000D01*
X8053074Y-14496924D01*
X8057256Y-14482681D01*
X8060639Y-14457144D01*
X8066938Y-14449708D01*
X8069684Y-14440359D01*
X8089149Y-14423492D01*
X8105804Y-14403834D01*
X8115124Y-14400984D01*
X8122488Y-14394604D01*
X8147984Y-14390937D01*
X8172620Y-14383406D01*
X8187063Y-14385318D01*
G37*
%TD.AperFunction*%
%TA.AperFunction,Conductor*%
G36*
X-11981856Y-12033318D02*
G01*
X-11952114Y-12044412D01*
X-11895485Y-12050500D01*
X-11744035Y-12050499D01*
X-11676995Y-12070183D01*
X-11656353Y-12086817D01*
X-11572665Y-12170505D01*
X-11572663Y-12170506D01*
X-11572662Y-12170507D01*
X-11553162Y-12181765D01*
X-11452836Y-12239688D01*
X-11386010Y-12257594D01*
X-11386011Y-12257594D01*
X-11371889Y-12261377D01*
X-11319184Y-12275500D01*
X-11319183Y-12275500D01*
X-10769032Y-12275500D01*
X-10701993Y-12295185D01*
X-10681351Y-12311819D01*
X-9310351Y-13682819D01*
X-9276866Y-13744142D01*
X-9281850Y-13813834D01*
X-9323722Y-13869767D01*
X-9389186Y-13894184D01*
X-9398032Y-13894500D01*
X-15301010Y-13894500D01*
X-15364426Y-13899490D01*
X-15364433Y-13899491D01*
X-15395015Y-13904334D01*
X-15422148Y-13910848D01*
X-15433029Y-13913460D01*
X-15502811Y-13909970D01*
X-15559628Y-13869306D01*
X-15569362Y-13854887D01*
X-15571895Y-13850499D01*
X-15599500Y-13802686D01*
X-15692686Y-13709500D01*
X-15759907Y-13670690D01*
X-15806813Y-13643608D01*
X-15870461Y-13626554D01*
X-15934108Y-13609500D01*
X-16065892Y-13609500D01*
X-16193186Y-13643608D01*
X-16193187Y-13643608D01*
X-16193189Y-13643609D01*
X-16193190Y-13643609D01*
X-16288500Y-13698637D01*
X-16356400Y-13715110D01*
X-16422427Y-13692257D01*
X-16465618Y-13637336D01*
X-16474500Y-13591250D01*
X-16474500Y-12519031D01*
X-16465856Y-12489590D01*
X-16459332Y-12459604D01*
X-16455578Y-12454588D01*
X-16454815Y-12451992D01*
X-16438186Y-12431355D01*
X-16318648Y-12311817D01*
X-16257326Y-12278334D01*
X-16230968Y-12275500D01*
X-13266795Y-12275500D01*
X-13266779Y-12275501D01*
X-13259183Y-12275501D01*
X-13120819Y-12275501D01*
X-13120817Y-12275501D01*
X-13050545Y-12256671D01*
X-13015408Y-12247256D01*
X-13015407Y-12247255D01*
X-12987164Y-12239688D01*
X-12867335Y-12170505D01*
X-12783648Y-12086818D01*
X-12722325Y-12053333D01*
X-12695967Y-12050499D01*
X-12544519Y-12050499D01*
X-12544516Y-12050499D01*
X-12487886Y-12044412D01*
X-12458145Y-12033318D01*
X-12414810Y-12025500D01*
X-12025189Y-12025500D01*
X-11981856Y-12033318D01*
G37*
%TD.AperFunction*%
%TA.AperFunction,Conductor*%
G36*
X8594834Y-6750849D02*
G01*
X8650767Y-6792721D01*
X8675184Y-6858185D01*
X8675500Y-6867031D01*
X8675500Y-11882968D01*
X8655815Y-11950007D01*
X8603011Y-11995762D01*
X8533853Y-12005706D01*
X8470297Y-11976681D01*
X8463819Y-11970649D01*
X7983551Y-11490381D01*
X7950066Y-11429058D01*
X7948293Y-11418883D01*
X7941877Y-11370148D01*
X7935044Y-11318238D01*
X7874536Y-11172159D01*
X7778282Y-11046718D01*
X7652841Y-10950464D01*
X7637810Y-10944238D01*
X7506762Y-10889956D01*
X7506760Y-10889955D01*
X7389361Y-10874500D01*
X6910636Y-10874500D01*
X6793246Y-10889953D01*
X6793237Y-10889956D01*
X6647160Y-10950463D01*
X6521718Y-11046718D01*
X6423376Y-11174880D01*
X6403183Y-11189623D01*
X6385718Y-11207510D01*
X6375452Y-11209871D01*
X6366947Y-11216082D01*
X6341993Y-11217568D01*
X6317627Y-11223174D01*
X6307714Y-11219610D01*
X6297201Y-11220237D01*
X6275403Y-11207995D01*
X6251877Y-11199538D01*
X6240415Y-11188345D01*
X6236281Y-11186024D01*
X6226625Y-11174880D01*
X6150357Y-11075487D01*
X6125162Y-11010318D01*
X6139200Y-10941873D01*
X6150349Y-10924522D01*
X6224536Y-10827841D01*
X6285044Y-10681762D01*
X6300500Y-10564361D01*
X6300499Y-9935640D01*
X6300499Y-9935638D01*
X6300499Y-9935636D01*
X6285046Y-9818246D01*
X6285044Y-9818239D01*
X6285044Y-9818238D01*
X6224536Y-9672159D01*
X6128282Y-9546718D01*
X6002841Y-9450464D01*
X6002839Y-9450463D01*
X5996392Y-9445516D01*
X5998511Y-9442753D01*
X5961350Y-9403775D01*
X5948131Y-9335168D01*
X5974102Y-9270304D01*
X5983880Y-9259288D01*
X8463819Y-6779350D01*
X8525142Y-6745865D01*
X8594834Y-6750849D01*
G37*
%TD.AperFunction*%
%TA.AperFunction,Conductor*%
G36*
X-13704385Y-10880155D02*
G01*
X-13690510Y-10879494D01*
X-13673814Y-10889132D01*
X-13653197Y-10895186D01*
X-13632555Y-10911820D01*
X-13632056Y-10912319D01*
X-13631324Y-10913660D01*
X-13629999Y-10914425D01*
X-13614627Y-10944238D01*
X-13598571Y-10973642D01*
X-13598680Y-10975165D01*
X-13597979Y-10976525D01*
X-13601164Y-11009890D01*
X-13603555Y-11043334D01*
X-13604495Y-11044796D01*
X-13604617Y-11046079D01*
X-13622262Y-11076646D01*
X-13628205Y-11084202D01*
X-13629687Y-11085313D01*
X-13641794Y-11101486D01*
X-13642706Y-11102646D01*
X-13670025Y-11122102D01*
X-13696849Y-11142182D01*
X-13698372Y-11142290D01*
X-13699617Y-11143178D01*
X-13740181Y-11150000D01*
X-13860089Y-11150000D01*
X-13888379Y-11182259D01*
X-13947381Y-11219683D01*
X-13981607Y-11224500D01*
X-14676000Y-11224500D01*
X-14684686Y-11221949D01*
X-14693647Y-11223238D01*
X-14717688Y-11212259D01*
X-14743039Y-11204815D01*
X-14748967Y-11197974D01*
X-14757203Y-11194213D01*
X-14771493Y-11171978D01*
X-14788794Y-11152011D01*
X-14791082Y-11141496D01*
X-14794977Y-11135435D01*
X-14800000Y-11100500D01*
X-14800000Y-10999501D01*
X-14780315Y-10932462D01*
X-14727511Y-10886707D01*
X-14676000Y-10875501D01*
X-13720236Y-10875501D01*
X-13704385Y-10880155D01*
G37*
%TD.AperFunction*%
%TA.AperFunction,Conductor*%
G36*
X2065166Y-8002145D02*
G01*
X2068878Y-8004531D01*
X2093189Y-8020775D01*
X2093192Y-8020776D01*
X2093193Y-8020777D01*
X2190569Y-8061111D01*
X2220672Y-8073580D01*
X2220676Y-8073580D01*
X2220677Y-8073581D01*
X2356004Y-8100500D01*
X2356007Y-8100500D01*
X2493995Y-8100500D01*
X2563616Y-8086651D01*
X2633207Y-8092878D01*
X2675489Y-8120587D01*
X2734616Y-8179714D01*
X2734625Y-8179721D01*
X2873804Y-8262031D01*
X3028765Y-8307051D01*
X3087651Y-8344658D01*
X3116858Y-8408130D01*
X3107112Y-8477317D01*
X3061509Y-8530251D01*
X3026265Y-8545903D01*
X2938685Y-8569370D01*
X2818862Y-8638550D01*
X2818856Y-8638555D01*
X1613181Y-9844231D01*
X1551858Y-9877716D01*
X1482166Y-9872732D01*
X1426233Y-9830860D01*
X1401816Y-9765396D01*
X1401500Y-9756550D01*
X1401500Y-8319886D01*
X1401500Y-8309887D01*
X1401501Y-8309885D01*
X1401501Y-8224499D01*
X1421186Y-8157459D01*
X1473991Y-8111705D01*
X1474001Y-8111703D01*
X1525501Y-8100500D01*
X1643995Y-8100500D01*
X1735041Y-8082389D01*
X1779328Y-8073580D01*
X1906811Y-8020775D01*
X1931109Y-8004538D01*
X1997786Y-7983661D01*
X2065166Y-8002145D01*
G37*
%TD.AperFunction*%
%TA.AperFunction,Conductor*%
G36*
X-465429Y-8061111D02*
G01*
X-409496Y-8102983D01*
X-385079Y-8168447D01*
X-394202Y-8224745D01*
X-423579Y-8295667D01*
X-423582Y-8295677D01*
X-450500Y-8431004D01*
X-450500Y-8431007D01*
X-450500Y-8568993D01*
X-450500Y-8568995D01*
X-450501Y-8568995D01*
X-423582Y-8704322D01*
X-423579Y-8704332D01*
X-370779Y-8831804D01*
X-370772Y-8831817D01*
X-294115Y-8946541D01*
X-294112Y-8946545D01*
X-196546Y-9044111D01*
X-196541Y-9044115D01*
X-190881Y-9047897D01*
X-146075Y-9101508D01*
X-137366Y-9170833D01*
X-167520Y-9233861D01*
X-226963Y-9270581D01*
X-259768Y-9275000D01*
X-331583Y-9275000D01*
X-402103Y-9281408D01*
X-402108Y-9281409D01*
X-564398Y-9331981D01*
X-709872Y-9419922D01*
X-742431Y-9452481D01*
X-803755Y-9485964D01*
X-873447Y-9480978D01*
X-905596Y-9463173D01*
X-922159Y-9450464D01*
X-922164Y-9450461D01*
X-1068235Y-9389957D01*
X-1068237Y-9389956D01*
X-1068238Y-9389956D01*
X-1082519Y-9388075D01*
X-1103423Y-9378827D01*
X-1125758Y-9373969D01*
X-1142161Y-9361690D01*
X-1146415Y-9359808D01*
X-1154012Y-9352818D01*
X-1266366Y-9240464D01*
X-1299851Y-9179141D01*
X-1300302Y-9176974D01*
X-1313323Y-9111516D01*
X-1326420Y-9045672D01*
X-1364185Y-8954499D01*
X-1381556Y-8912560D01*
X-1380221Y-8912006D01*
X-1392995Y-8850685D01*
X-1368002Y-8785439D01*
X-1311702Y-8744062D01*
X-1301496Y-8740848D01*
X-1297164Y-8739688D01*
X-1177335Y-8670505D01*
X-1079495Y-8572665D01*
X-1079495Y-8572663D01*
X-1069291Y-8562460D01*
X-1069288Y-8562455D01*
X-596443Y-8089611D01*
X-535121Y-8056127D01*
X-465429Y-8061111D01*
G37*
%TD.AperFunction*%
%TA.AperFunction,Conductor*%
G36*
X3266974Y-6686668D02*
G01*
X3293334Y-6688554D01*
X3302387Y-6694372D01*
X3309427Y-6695904D01*
X3327928Y-6709753D01*
X3328214Y-6709372D01*
X3335311Y-6714685D01*
X3335313Y-6714687D01*
X3430308Y-6785799D01*
X3444774Y-6796628D01*
X3452554Y-6800876D01*
X3451151Y-6803445D01*
X3495265Y-6836467D01*
X3519684Y-6901931D01*
X3520000Y-6910780D01*
X3520000Y-7376000D01*
X3517449Y-7384685D01*
X3518738Y-7393647D01*
X3507759Y-7417687D01*
X3500315Y-7443039D01*
X3493474Y-7448966D01*
X3489713Y-7457203D01*
X3467478Y-7471492D01*
X3447511Y-7488794D01*
X3436996Y-7491081D01*
X3430935Y-7494977D01*
X3396000Y-7500000D01*
X3249500Y-7500000D01*
X3182461Y-7480315D01*
X3136706Y-7427511D01*
X3125500Y-7376000D01*
X3125500Y-7331004D01*
X3098581Y-7195677D01*
X3098580Y-7195676D01*
X3098580Y-7195672D01*
X3098578Y-7195667D01*
X3045778Y-7068195D01*
X3045771Y-7068182D01*
X3040898Y-7060889D01*
X3020020Y-6994211D01*
X3020000Y-6991998D01*
X3020000Y-6885067D01*
X3039685Y-6818028D01*
X3069685Y-6785803D01*
X3164687Y-6714687D01*
X3164688Y-6714684D01*
X3171787Y-6709371D01*
X3172277Y-6710026D01*
X3175690Y-6705469D01*
X3200449Y-6696234D01*
X3223642Y-6683570D01*
X3232671Y-6684215D01*
X3241154Y-6681052D01*
X3266974Y-6686668D01*
G37*
%TD.AperFunction*%
%TD*%
%TA.AperFunction,Conductor*%
%TO.N,/LX*%
G36*
X33558691Y981093D02*
G01*
X33594655Y931593D01*
X33599500Y901000D01*
X33599500Y-2901000D01*
X33580593Y-2959191D01*
X33531093Y-2995155D01*
X33500500Y-3000000D01*
X26228571Y-3000000D01*
X26175822Y-2984777D01*
X26135185Y-2959191D01*
X23546251Y-1329121D01*
X23507083Y-1282116D01*
X23500000Y-1245344D01*
X23500000Y-499000D01*
X23518907Y-440809D01*
X23568407Y-404845D01*
X23599000Y-400000D01*
X24899999Y-400000D01*
X24900000Y-400000D01*
X24900000Y901000D01*
X24918907Y959191D01*
X24968407Y995155D01*
X24999000Y1000000D01*
X33500500Y1000000D01*
X33558691Y981093D01*
G37*
%TD.AperFunction*%
%TD*%
%TA.AperFunction,Conductor*%
%TO.N,+3V3_MCU*%
G36*
X31503234Y14599288D02*
G01*
X31767568Y14581963D01*
X31780396Y14580274D01*
X32037040Y14529225D01*
X32049529Y14525878D01*
X32297307Y14441769D01*
X32309255Y14436820D01*
X32511290Y14337186D01*
X32543928Y14321091D01*
X32555142Y14314617D01*
X32772707Y14169245D01*
X32782971Y14161369D01*
X32979692Y13988850D01*
X32988849Y13979693D01*
X33161364Y13782977D01*
X33169248Y13772703D01*
X33314616Y13555143D01*
X33321090Y13543929D01*
X33436815Y13309264D01*
X33441771Y13297299D01*
X33525874Y13049539D01*
X33529226Y13037031D01*
X33580272Y12780402D01*
X33581962Y12767563D01*
X33599288Y12503235D01*
X33599500Y12496760D01*
X33599500Y3599000D01*
X33580593Y3540809D01*
X33531093Y3504845D01*
X33500500Y3500000D01*
X23099000Y3500000D01*
X23040809Y3518907D01*
X23004845Y3568407D01*
X23000000Y3599000D01*
X23000000Y12598421D01*
X30249500Y12598421D01*
X30249500Y12401580D01*
X30280289Y12207179D01*
X30280291Y12207174D01*
X30341116Y12019975D01*
X30430476Y11844595D01*
X30546172Y11685354D01*
X30685354Y11546172D01*
X30844595Y11430476D01*
X31019975Y11341116D01*
X31207174Y11280291D01*
X31207175Y11280291D01*
X31207178Y11280290D01*
X31401580Y11249500D01*
X31401583Y11249500D01*
X31598420Y11249500D01*
X31792821Y11280290D01*
X31792822Y11280291D01*
X31792826Y11280291D01*
X31980025Y11341116D01*
X32155405Y11430476D01*
X32314646Y11546172D01*
X32453828Y11685354D01*
X32569524Y11844595D01*
X32658884Y12019975D01*
X32719709Y12207174D01*
X32750500Y12401583D01*
X32750500Y12598417D01*
X32750500Y12598421D01*
X32719710Y12792822D01*
X32719709Y12792826D01*
X32658884Y12980025D01*
X32569524Y13155405D01*
X32453828Y13314646D01*
X32314646Y13453828D01*
X32155405Y13569524D01*
X32155404Y13569525D01*
X32155402Y13569526D01*
X31980025Y13658884D01*
X31792821Y13719711D01*
X31598420Y13750500D01*
X31598417Y13750500D01*
X31401583Y13750500D01*
X31401580Y13750500D01*
X31207178Y13719711D01*
X31019974Y13658884D01*
X30844597Y13569526D01*
X30685355Y13453829D01*
X30546171Y13314645D01*
X30430474Y13155403D01*
X30341116Y12980026D01*
X30280289Y12792822D01*
X30249500Y12598421D01*
X23000000Y12598421D01*
X23000000Y14500500D01*
X23018907Y14558691D01*
X23068407Y14594655D01*
X23099000Y14599500D01*
X31442417Y14599500D01*
X31496759Y14599500D01*
X31503234Y14599288D01*
G37*
%TD.AperFunction*%
%TD*%
%TA.AperFunction,Conductor*%
%TO.N,/VBUS*%
G36*
X21727247Y-700500D02*
G01*
X21729906Y-700500D01*
X22069597Y-700500D01*
X22095219Y-703873D01*
X22157273Y-720500D01*
X22801000Y-720500D01*
X22859191Y-739407D01*
X22895155Y-788907D01*
X22900000Y-819500D01*
X22900000Y-1500000D01*
X24504535Y-2531487D01*
X24543260Y-2578858D01*
X24550000Y-2614763D01*
X24550000Y-4001000D01*
X24531093Y-4059191D01*
X24481593Y-4095155D01*
X24451000Y-4100000D01*
X21699000Y-4100000D01*
X21640809Y-4081093D01*
X21604845Y-4031593D01*
X21600000Y-4001000D01*
X21600000Y-799000D01*
X21604845Y-784088D01*
X21604845Y-768407D01*
X21614061Y-755721D01*
X21618907Y-740809D01*
X21631592Y-731592D01*
X21640809Y-718907D01*
X21655721Y-714061D01*
X21668407Y-704845D01*
X21699000Y-700000D01*
X21719619Y-700000D01*
X21727247Y-700500D01*
G37*
%TD.AperFunction*%
%TD*%
%TA.AperFunction,Conductor*%
%TO.N,/V_BUS_OUT*%
G36*
X33558691Y-17218907D02*
G01*
X33594655Y-17268407D01*
X33599500Y-17299000D01*
X33599500Y-31901000D01*
X33580593Y-31959191D01*
X33531093Y-31995155D01*
X33500500Y-32000000D01*
X-9101000Y-32000000D01*
X-9159191Y-31981093D01*
X-9195155Y-31931593D01*
X-9200000Y-31901000D01*
X-9200000Y-25999000D01*
X-9181093Y-25940809D01*
X-9131593Y-25904845D01*
X-9101000Y-25900000D01*
X-699000Y-25900000D01*
X-640809Y-25918907D01*
X-604845Y-25968407D01*
X-600000Y-25999000D01*
X-600000Y-27300000D01*
X22999999Y-27300000D01*
X23000000Y-27300000D01*
X23000000Y-17299000D01*
X23018907Y-17240809D01*
X23068407Y-17204845D01*
X23099000Y-17200000D01*
X33500500Y-17200000D01*
X33558691Y-17218907D01*
G37*
%TD.AperFunction*%
%TD*%
%TA.AperFunction,Conductor*%
%TO.N,/LOAD_SOURCE*%
G36*
X-9740809Y-23118907D02*
G01*
X-9704845Y-23168407D01*
X-9700000Y-23199000D01*
X-9700000Y-26901000D01*
X-9718907Y-26959191D01*
X-9768407Y-26995155D01*
X-9799000Y-27000000D01*
X-13801000Y-27000000D01*
X-13859191Y-26981093D01*
X-13895155Y-26931593D01*
X-13900000Y-26901000D01*
X-13900000Y-25899000D01*
X-13881093Y-25840809D01*
X-13831593Y-25804845D01*
X-13801000Y-25800000D01*
X-10700001Y-25800000D01*
X-10700000Y-25800000D01*
X-10700000Y-24500000D01*
X-10700001Y-24500000D01*
X-13801000Y-24500000D01*
X-13859191Y-24481093D01*
X-13895155Y-24431593D01*
X-13900000Y-24401000D01*
X-13900000Y-23199000D01*
X-13881093Y-23140809D01*
X-13831593Y-23104845D01*
X-13801000Y-23100000D01*
X-9799000Y-23100000D01*
X-9740809Y-23118907D01*
G37*
%TD.AperFunction*%
%TD*%
%TA.AperFunction,Conductor*%
%TO.N,/VBUS*%
G36*
X-8583592Y-14318907D02*
G01*
X-8570852Y-14329936D01*
X-4900000Y-18100000D01*
X-1699500Y-18100000D01*
X-1641309Y-18118907D01*
X-1605345Y-18168407D01*
X-1600500Y-18199000D01*
X-1600500Y-18419744D01*
X-1600477Y-18419978D01*
X-1600000Y-18429687D01*
X-1600000Y-19201000D01*
X-1618907Y-19259191D01*
X-1668407Y-19295155D01*
X-1699000Y-19300000D01*
X-3000000Y-19300000D01*
X-3000000Y-19300001D01*
X-3000000Y-25402063D01*
X-3018907Y-25460254D01*
X-3068407Y-25496218D01*
X-3097931Y-25501057D01*
X-9149931Y-25566419D01*
X-9208322Y-25548141D01*
X-9244819Y-25499033D01*
X-9250000Y-25467425D01*
X-9250000Y-22800001D01*
X-9250000Y-22800000D01*
X-9250001Y-22800000D01*
X-10901000Y-22800000D01*
X-10959191Y-22781093D01*
X-10995155Y-22731593D01*
X-11000000Y-22701000D01*
X-11000000Y-19700001D01*
X-11000000Y-19700000D01*
X-11000001Y-19700000D01*
X-15301000Y-19700000D01*
X-15359191Y-19681093D01*
X-15395155Y-19631593D01*
X-15400000Y-19601000D01*
X-15400000Y-19199500D01*
X-15381093Y-19141309D01*
X-15331593Y-19105345D01*
X-15301000Y-19100500D01*
X-14350253Y-19100500D01*
X-14350252Y-19100500D01*
X-14291769Y-19088867D01*
X-14225448Y-19044552D01*
X-14181133Y-18978231D01*
X-14169500Y-18919748D01*
X-14169500Y-18580252D01*
X-14181133Y-18521769D01*
X-14181621Y-18519315D01*
X-14181621Y-18480685D01*
X-14169502Y-18419758D01*
X-14169500Y-18419746D01*
X-14169500Y-18174500D01*
X-14150593Y-18116309D01*
X-14101093Y-18080345D01*
X-14070500Y-18075500D01*
X-13957149Y-18075500D01*
X-13957147Y-18075500D01*
X-13874361Y-18053318D01*
X-13874359Y-18053316D01*
X-13874357Y-18053316D01*
X-13800143Y-18010468D01*
X-13800143Y-18010467D01*
X-13800138Y-18010465D01*
X-13489535Y-17699862D01*
X-13446683Y-17625639D01*
X-13446682Y-17625638D01*
X-13424500Y-17542853D01*
X-13424500Y-17424500D01*
X-13419655Y-17409588D01*
X-13419655Y-17393907D01*
X-13410439Y-17381221D01*
X-13405593Y-17366309D01*
X-13392908Y-17357092D01*
X-13383691Y-17344407D01*
X-13368779Y-17339561D01*
X-13356093Y-17330345D01*
X-13325500Y-17325500D01*
X-13218952Y-17325500D01*
X-13181065Y-17333036D01*
X-13177497Y-17334513D01*
X-13177495Y-17334515D01*
X-13097133Y-17350500D01*
X-12342868Y-17350499D01*
X-12262505Y-17334515D01*
X-12236569Y-17317184D01*
X-12181567Y-17300500D01*
X-11818433Y-17300500D01*
X-11763432Y-17317184D01*
X-11737495Y-17334515D01*
X-11657133Y-17350500D01*
X-10902868Y-17350499D01*
X-10850125Y-17340008D01*
X-10805188Y-17341479D01*
X-10767794Y-17351500D01*
X-10232205Y-17351500D01*
X-10232205Y-17351499D01*
X-10155779Y-17331021D01*
X-10087257Y-17291460D01*
X-10031308Y-17235511D01*
X-9986451Y-17190653D01*
X-9931938Y-17162876D01*
X-9871506Y-17172446D01*
X-9846449Y-17190650D01*
X-9801610Y-17235489D01*
X-9801608Y-17235490D01*
X-9801606Y-17235492D01*
X-9698887Y-17294797D01*
X-9698886Y-17294797D01*
X-9698883Y-17294799D01*
X-9584306Y-17325500D01*
X-9584304Y-17325500D01*
X-9465690Y-17325500D01*
X-9465688Y-17325500D01*
X-9351111Y-17294799D01*
X-9351109Y-17294797D01*
X-9351107Y-17294797D01*
X-9248389Y-17235492D01*
X-9248389Y-17235491D01*
X-9248384Y-17235489D01*
X-9164508Y-17151613D01*
X-9164505Y-17151608D01*
X-9105200Y-17048890D01*
X-9105200Y-17048888D01*
X-9105198Y-17048886D01*
X-9074497Y-16934309D01*
X-9074497Y-16815691D01*
X-9105198Y-16701114D01*
X-9105200Y-16701111D01*
X-9105200Y-16701109D01*
X-9164505Y-16598391D01*
X-9164507Y-16598389D01*
X-9164508Y-16598387D01*
X-9192894Y-16570001D01*
X-9220669Y-16515487D01*
X-9211098Y-16455055D01*
X-9192895Y-16429999D01*
X-9164508Y-16401613D01*
X-9105198Y-16298886D01*
X-9074497Y-16184309D01*
X-9074497Y-16065691D01*
X-9105198Y-15951114D01*
X-9105200Y-15951111D01*
X-9105200Y-15951109D01*
X-9164505Y-15848391D01*
X-9164507Y-15848389D01*
X-9164508Y-15848387D01*
X-9248384Y-15764511D01*
X-9248387Y-15764509D01*
X-9248389Y-15764507D01*
X-9351108Y-15705202D01*
X-9351107Y-15705202D01*
X-9372387Y-15699500D01*
X-9465688Y-15674500D01*
X-9584306Y-15674500D01*
X-9647422Y-15691412D01*
X-9698888Y-15705202D01*
X-9801606Y-15764507D01*
X-9801612Y-15764511D01*
X-9846445Y-15809345D01*
X-9858268Y-15815368D01*
X-9867173Y-15825207D01*
X-9884861Y-15828918D01*
X-9900962Y-15837122D01*
X-9914068Y-15835046D01*
X-9927054Y-15837771D01*
X-9941989Y-15830623D01*
X-9961394Y-15827550D01*
X-9982884Y-15812739D01*
X-9984719Y-15811078D01*
X-10087257Y-15708540D01*
X-10107796Y-15696682D01*
X-10116922Y-15691413D01*
X-10116923Y-15691412D01*
X-10155781Y-15668978D01*
X-10232204Y-15648500D01*
X-10232206Y-15648500D01*
X-10767794Y-15648500D01*
X-10767799Y-15648500D01*
X-10805192Y-15658519D01*
X-10850125Y-15659990D01*
X-10902866Y-15649500D01*
X-11657130Y-15649500D01*
X-11657137Y-15649501D01*
X-11737495Y-15665484D01*
X-11737497Y-15665485D01*
X-11763431Y-15682815D01*
X-11818433Y-15699500D01*
X-12181567Y-15699500D01*
X-12236569Y-15682815D01*
X-12262503Y-15665486D01*
X-12262504Y-15665485D01*
X-12262505Y-15665485D01*
X-12342867Y-15649500D01*
X-12342868Y-15649500D01*
X-13097130Y-15649500D01*
X-13097137Y-15649501D01*
X-13177495Y-15665484D01*
X-13181068Y-15666965D01*
X-13218952Y-15674500D01*
X-13400354Y-15674500D01*
X-13431386Y-15682815D01*
X-13483141Y-15696682D01*
X-13534571Y-15726374D01*
X-13534570Y-15726375D01*
X-13557362Y-15739533D01*
X-13713333Y-15895504D01*
X-13767849Y-15923281D01*
X-13783336Y-15924500D01*
X-14070500Y-15924500D01*
X-14128691Y-15905593D01*
X-14164655Y-15856093D01*
X-14169500Y-15825500D01*
X-14169500Y-15580253D01*
X-14169502Y-15580241D01*
X-14181621Y-15519315D01*
X-14181621Y-15480685D01*
X-14169502Y-15419758D01*
X-14169500Y-15419746D01*
X-14169500Y-15080253D01*
X-14169502Y-15080241D01*
X-14172289Y-15066231D01*
X-14181133Y-15021769D01*
X-14225448Y-14955448D01*
X-14225452Y-14955445D01*
X-14291767Y-14911134D01*
X-14291769Y-14911133D01*
X-14291772Y-14911132D01*
X-14291773Y-14911132D01*
X-14350242Y-14899501D01*
X-14350252Y-14899500D01*
X-15301000Y-14899500D01*
X-15359191Y-14880593D01*
X-15395155Y-14831093D01*
X-15400000Y-14800500D01*
X-15400000Y-14399000D01*
X-15381093Y-14340809D01*
X-15331593Y-14304845D01*
X-15301000Y-14300000D01*
X-8641783Y-14300000D01*
X-8583592Y-14318907D01*
G37*
%TD.AperFunction*%
%TD*%
M02*
