M48
; DRILL file {KiCad 9.0.3-9.0.3-0~ubuntu22.04.1} date 2025-09-08T10:32:46+0800
; FORMAT={-:-/ absolute / inch / decimal}
; #@! TF.CreationDate,2025-09-08T10:32:46+08:00
; #@! TF.GenerationSoftware,Kicad,Pcbnew,9.0.3-9.0.3-0~ubuntu22.04.1
; #@! TF.FileFunction,Plated,1,4,PTH
FMAT,2
INCH
; #@! TA.AperFunction,Plated,PTH,ViaDrill
T1C0.0118
; #@! TA.AperFunction,Plated,PTH,ViaDrill
T2C0.0197
; #@! TA.AperFunction,Plated,PTH,ComponentDrill
T3C0.0236
; #@! TA.AperFunction,Plated,PTH,ComponentDrill
T4C0.0276
; #@! TA.AperFunction,Plated,PTH,ComponentDrill
T5C0.0433
; #@! TA.AperFunction,Plated,PTH,ComponentDrill
T6C0.0472
; #@! TA.AperFunction,Plated,PTH,ComponentDrill
T7C0.0551
%
G90
G05
T1
X-0.8071Y-0.5807
X-0.8071Y-0.6201
X-0.8071Y-0.6594
X-0.8071Y-0.6988
X-0.8071Y-0.7382
X-0.8071Y-0.7776
X-0.7579Y-0.5807
X-0.7579Y-0.6201
X-0.7579Y-0.6594
X-0.7579Y-0.6988
X-0.7579Y-0.7382
X-0.7579Y-0.7776
X-0.7579Y-1.1516
X-0.7579Y-1.2008
X-0.7579Y-1.25
X-0.7087Y-1.1516
X-0.7087Y-1.2008
X-0.7087Y-1.25
X-0.6594Y-1.1516
X-0.6594Y-1.2008
X-0.6594Y-1.25
X-0.5709Y-0.4331
X-0.5413Y-0.1378
X-0.5315Y-0.5118
X-0.5315Y-0.8169
X-0.5315Y-0.8563
X-0.502Y-0.5118
X-0.4724Y-0.1772
X-0.4724Y-0.5118
X-0.4429Y-0.5118
X-0.4232Y-0.4331
X-0.4134Y0.4035
X-0.4134Y0.3642
X-0.4134Y-0.6496
X-0.4035Y-0.5807
X-0.3937Y0.1378
X-0.375Y-0.6348
X-0.375Y-0.6644
X-0.374Y0.0492
X-0.3445Y-0.2362
X-0.3346Y0.1476
X-0.3051Y-1.3976
X-0.2953Y0.0591
X-0.2953Y-0.2165
X-0.2854Y0.2756
X-0.2854Y0.1772
X-0.2362Y0.1772
X-0.2264Y0.2165
X-0.2067Y-0.3642
X-0.1969Y0.2559
X-0.1772Y-1.3209
X-0.1717Y-0.526
X-0.145Y-0.1253
X-0.128Y0.2854
X-0.1181Y0.374
X-0.0886Y0.4035
X-0.0787Y0.0787
X-0.0787Y0.0394
X-0.0787Y0.0
X-0.0787Y-0.0394
X-0.0787Y-0.0787
X-0.0787Y-0.3642
X-0.0591Y0.3248
X-0.0571Y-0.9429
X-0.0492Y0.4724
X-0.0472Y-0.7874
X-0.0472Y-0.8268
X-0.0394Y0.0787
X-0.0394Y0.0394
X-0.0394Y0.0
X-0.0394Y-0.0394
X-0.0394Y-0.0787
X-0.0394Y-0.5217
X-0.0322Y-0.3517
X-0.0295Y-0.6398
X-0.0295Y-0.6693
X-0.0295Y-0.6988
X-0.0197Y-1.3681
X-0.0197Y-1.437
X0.0Y0.0787
X0.0Y0.0394
X0.0Y0.0
X0.0Y-0.0394
X0.0Y-0.0787
X0.0Y-0.6398
X0.0Y-0.6693
X0.0Y-0.6988
X0.0098Y-0.3346
X0.0197Y0.5315
X0.0295Y0.1673
X0.0295Y-0.6398
X0.0295Y-0.6693
X0.0295Y-0.6988
X0.0394Y0.0787
X0.0394Y0.0394
X0.0394Y0.0
X0.0394Y-0.0394
X0.0394Y-0.0787
X0.0492Y-0.1673
X0.0521Y-0.4656
X0.062Y-0.2913
X0.0709Y-0.9803
X0.0787Y0.0787
X0.0787Y0.0394
X0.0787Y0.0
X0.0787Y-0.0394
X0.0787Y-0.0787
X0.0886Y-0.9449
X0.0955Y-0.2913
X0.1102Y-0.1654
X0.1155Y-0.332
X0.1378Y0.5315
X0.1476Y-0.8957
X0.1476Y-1.437
X0.1598Y-0.3763
X0.1772Y0.4035
X0.1772Y-0.9843
X0.187Y0.3051
X0.1969Y-0.2559
X0.2067Y0.2264
X0.2264Y0.3051
X0.2559Y0.2165
X0.2854Y0.0866
X0.3051Y-0.1476
X0.3051Y-0.3445
X0.315Y-1.437
X0.3248Y-0.4035
X0.3248Y-0.5807
X0.3248Y-0.7776
X0.3248Y-0.8169
X0.3248Y-0.876
X0.3248Y-0.935
X0.3346Y0.1673
X0.3346Y-0.502
X0.3346Y-0.5413
X0.3445Y0.0984
X0.3642Y0.3626
X0.3642Y0.2461
X0.4429Y-0.8858
X0.4429Y-1.0531
X0.4626Y0.1673
X0.4626Y0.0591
X0.502Y-1.437
X0.5217Y-1.0236
X0.5413Y0.0
X0.5413Y-0.0689
X0.561Y-0.187
X0.6004Y0.1673
X0.6201Y-0.4134
X0.6496Y0.1673
X0.6693Y0.3642
X0.6693Y0.2461
X0.6791Y-1.3681
X0.6791Y-1.437
X0.7087Y0.1673
X0.748Y-0.128
X0.748Y-0.4528
X0.748Y-0.561
X0.748Y-0.7776
X0.748Y-0.8858
X0.7677Y-0.0787
X0.7972Y-1.0236
X0.8071Y0.3937
X0.8071Y0.2854
X0.8071Y0.2461
X0.8071Y0.1969
X0.8071Y0.1575
X0.8661Y-1.3681
X0.8661Y-1.437
X0.876Y-0.2165
X0.876Y-0.3937
X0.9252Y-0.4823
X0.935Y0.0492
X0.9528Y-0.5866
X0.9803Y-0.5866
X0.9941Y0.4823
X0.9941Y0.4232
X0.9941Y0.3642
X0.9941Y0.3051
X0.9941Y0.2461
X0.9941Y0.187
X1.0335Y-0.2264
X1.0531Y0.4823
X1.0531Y0.4232
X1.0531Y0.3642
X1.0531Y0.3051
X1.063Y-0.5217
X1.063Y-0.6102
X1.1122Y0.4823
X1.1122Y0.4232
X1.1122Y0.3642
X1.1122Y0.3051
X1.1713Y0.3642
X1.1713Y0.3051
X1.2303Y0.3051
X1.2303Y0.2461
X1.2303Y0.187
X1.2598Y-0.1969
X1.2894Y-0.5217
X1.2894Y-0.6102
T2
X-0.1476Y-0.9744
X0.935Y-0.128
T4
X-0.5709Y-1.3976
X1.0433Y-1.3976
X1.2402Y-1.1909
T5
X0.3126Y0.5217
X0.4126Y0.5217
X0.5126Y0.5217
X0.6126Y0.5217
T6
X-0.7004Y0.315
X-0.6004Y0.315
T7
X1.1811Y-0.5709
X1.1811Y-0.7677
T3
G00X-0.763Y-0.4992
M15
G01X-0.7866Y-0.4992
M16
G05
G00X-0.763Y-0.8394
M15
G01X-0.7866Y-0.8394
M16
G05
G00X-0.5913Y-0.4992
M15
G01X-0.6268Y-0.4992
M16
G05
G00X-0.5913Y-0.8394
M15
G01X-0.6268Y-0.8394
M16
G05
M30
