%TF.GenerationSoftware,KiCad,Pcbnew,9.0.3-9.0.3-0~ubuntu22.04.1*%
%TF.CreationDate,2025-09-08T10:32:46+08:00*%
%TF.ProjectId,pdtrigger,70647472-6967-4676-9572-2e6b69636164,rev?*%
%TF.SameCoordinates,Original*%
%TF.FileFunction,Copper,L2,Inr*%
%TF.FilePolarity,Positive*%
%FSLAX46Y46*%
G04 Gerber Fmt 4.6, Leading zero omitted, Abs format (unit mm)*
G04 Created by KiCad (PCBNEW 9.0.3-9.0.3-0~ubuntu22.04.1) date 2025-09-08 10:32:46*
%MOMM*%
%LPD*%
G01*
G04 APERTURE LIST*
%TA.AperFunction,ComponentPad*%
%ADD10C,2.200000*%
%TD*%
%TA.AperFunction,ComponentPad*%
%ADD11O,1.800000X1.200000*%
%TD*%
%TA.AperFunction,ComponentPad*%
%ADD12O,2.000000X1.100000*%
%TD*%
%TA.AperFunction,ComponentPad*%
%ADD13C,1.500000*%
%TD*%
%TA.AperFunction,ComponentPad*%
%ADD14R,2.000000X2.000000*%
%TD*%
%TA.AperFunction,ComponentPad*%
%ADD15C,2.000000*%
%TD*%
%TA.AperFunction,ComponentPad*%
%ADD16R,1.700000X1.700000*%
%TD*%
%TA.AperFunction,ComponentPad*%
%ADD17C,1.700000*%
%TD*%
%TA.AperFunction,ViaPad*%
%ADD18C,0.500000*%
%TD*%
%TA.AperFunction,ViaPad*%
%ADD19C,0.600000*%
%TD*%
%TA.AperFunction,ViaPad*%
%ADD20C,1.000000*%
%TD*%
G04 APERTURE END LIST*
D10*
%TO.N,/V_BUS_OUT*%
%TO.C,U3*%
X30000000Y-19500000D03*
%TO.N,GND*%
X30000000Y-14500000D03*
%TD*%
D11*
%TO.N,GND*%
%TO.C,J2*%
X-19680000Y-21320000D03*
D12*
X-15470000Y-21320000D03*
D11*
X-19680000Y-12680000D03*
D12*
X-15470000Y-12680000D03*
%TD*%
D13*
%TO.N,/VBUS*%
%TO.C,TP3*%
X-14500000Y-35500000D03*
%TD*%
%TO.N,GND*%
%TO.C,TP3*%
X26500000Y-35500000D03*
%TD*%
%TO.N,/V_BUS_OUT*%
%TO.C,TP3*%
X31500000Y-30250000D03*
%TD*%
D14*
%TO.N,/UART_TX*%
%TO.C,J3*%
X-17790000Y8000000D03*
D15*
%TO.N,/UART_RX*%
X-15250000Y8000000D03*
%TD*%
D16*
%TO.N,GND*%
%TO.C,J1*%
X7940000Y13250000D03*
D17*
%TO.N,/SWCLK*%
X10480000Y13250000D03*
%TO.N,/SWDIO*%
X13020000Y13250000D03*
%TO.N,+3V3_MCU*%
X15560000Y13250000D03*
%TD*%
D18*
%TO.N,/VBUS*%
X-10250000Y-14750000D03*
%TO.N,/USB_D-*%
X-9524997Y-16125000D03*
%TO.N,/USB_D+*%
X-9524997Y-16875000D03*
%TO.N,GND*%
X-10500000Y-16500000D03*
X-14500000Y-11000000D03*
%TO.N,/VBUS*%
X-10750000Y-11000000D03*
D19*
%TO.N,GND*%
X750000Y-17750000D03*
X0Y-17750000D03*
X-750000Y-17750000D03*
X-750000Y-17000000D03*
X-750000Y-16250000D03*
X0Y-16250000D03*
X750000Y-16250000D03*
X750000Y-17000000D03*
X0Y-17000000D03*
%TO.N,/UART_TX*%
X-5750000Y5500000D03*
%TO.N,/UART_RX*%
X-6000000Y4500000D03*
%TO.N,GND*%
X22000000Y-34750000D03*
X22000000Y-36500000D03*
X12750000Y-36500000D03*
X3750000Y-36500000D03*
X17250000Y-34750000D03*
X19000000Y-22500000D03*
X19000000Y-19750000D03*
X19000000Y-14250000D03*
X15750000Y-10500000D03*
X22250000Y-5500000D03*
X22250000Y-10000000D03*
X11250000Y-22500000D03*
X13250000Y-26000000D03*
X20250000Y-26000000D03*
X19000000Y-11500000D03*
%TO.N,+3V3_MCU*%
X14250000Y-4750000D03*
%TO.N,GND*%
X-16750000Y-31750000D03*
X-16750000Y-29250000D03*
X-16750000Y-30500000D03*
X-18000000Y-31750000D03*
X-18000000Y-29250000D03*
X-18000000Y-30500000D03*
X-19250000Y-31750000D03*
X-19250000Y-29250000D03*
X-9500000Y1250000D03*
X8750000Y2500000D03*
X6500000Y5500000D03*
X11750000Y1500000D03*
X11750000Y4250000D03*
X1800000Y-24900000D03*
X7750000Y-8750000D03*
X-13500000Y-21750000D03*
X-13500000Y-20750000D03*
X-11250000Y-13000000D03*
X-12000000Y-13000000D03*
X-12750000Y-13000000D03*
X-13500000Y-13000000D03*
X-19250000Y-30500000D03*
X-500000Y-36500000D03*
X-500000Y-34750000D03*
X8000000Y-36500000D03*
X17250000Y-36500000D03*
X32750000Y-15500000D03*
X32750000Y-13250000D03*
X27000000Y-15500000D03*
X27000000Y-13250000D03*
X32000000Y-5000000D03*
X23500000Y-12250000D03*
X26250000Y-5750000D03*
X19000000Y-3250000D03*
X19500000Y-2000000D03*
X20500000Y10000000D03*
X9250000Y6250000D03*
X17000000Y6250000D03*
X17000000Y9250000D03*
X9250000Y9210000D03*
X3500000Y13500000D03*
X500000Y13500000D03*
X-1250000Y12000000D03*
X4500000Y10250000D03*
X-3683058Y-3183058D03*
X-816942Y-8933058D03*
X-2250000Y10250000D03*
X-3000000Y9500000D03*
X-19250000Y-19750000D03*
X-20500000Y-19750000D03*
X-19250000Y-18750000D03*
X-20500000Y-18750000D03*
X-19250000Y-14750000D03*
X-20500000Y-14750000D03*
X-19250000Y-15750000D03*
X-20500000Y-15750000D03*
X-19250000Y-17750000D03*
X-20500000Y-17750000D03*
X-20500000Y-16750000D03*
X-19250000Y-16750000D03*
%TO.N,/V_BUS_OUT*%
X4500000Y-25000000D03*
X-1000000Y-13250000D03*
%TO.N,GND*%
X2933058Y-8433058D03*
X-7250000Y4500000D03*
%TO.N,+3V3_MCU*%
X-8750000Y-6000000D03*
X-2000000Y-9250000D03*
X-5250000Y-9250000D03*
X4058058Y-9558058D03*
X8500000Y-13750000D03*
X8500000Y-12750000D03*
X8250000Y-22250000D03*
X8250000Y-19750000D03*
%TO.N,Net-(C18-Pad2)*%
X-4500000Y-33550000D03*
X11250000Y-26750000D03*
%TO.N,/VBUS*%
X-7750000Y-35500000D03*
%TO.N,+3V3_MCU*%
X25250000Y4750000D03*
X25250000Y6250000D03*
X31250000Y4750000D03*
X31250000Y6250000D03*
X31250000Y7750000D03*
X-10500000Y9250000D03*
X-10500000Y10250000D03*
%TO.N,/PD_FAULT*%
X-8500000Y3750000D03*
X1250000Y-4250000D03*
X1324000Y-11825000D03*
%TO.N,/SWDIO*%
X2800000Y-4200000D03*
%TO.N,/SWCLK*%
X7750000Y-3750000D03*
%TO.N,/BOOT0*%
X-5000000Y6500000D03*
X7250000Y2200000D03*
%TO.N,/NRST*%
X4750000Y7750000D03*
X750000Y4250000D03*
%TO.N,/I2C3_SCL*%
X250000Y-8500000D03*
X-4360000Y-13360000D03*
%TO.N,+3V3_MCU*%
X25250000Y12250000D03*
X26750000Y12250000D03*
X28250000Y12250000D03*
X28250000Y10750000D03*
X26750000Y10750000D03*
X25250000Y10750000D03*
X25250000Y9250000D03*
X26750000Y9250000D03*
X28250000Y9250000D03*
X29750000Y9250000D03*
X29750000Y7750000D03*
X28250000Y7750000D03*
X26750000Y7750000D03*
X25250000Y7750000D03*
%TO.N,GND*%
X20500000Y6250000D03*
X20500000Y7250000D03*
X20500000Y5000000D03*
X20500000Y4000000D03*
%TO.N,/VBUS*%
X23750000Y1250000D03*
%TO.N,+3V3_MCU*%
X18000000Y4250000D03*
X16500000Y4250000D03*
X15250000Y4250000D03*
%TO.N,GND*%
X13750000Y0D03*
X13750000Y-1750000D03*
D20*
%TO.N,/VBUS*%
X23750000Y-3250000D03*
X-3750000Y-24750000D03*
D19*
%TO.N,GND*%
X5750000Y7750000D03*
X-1500000Y8250000D03*
%TO.N,+3V3_MCU*%
X-3250000Y7250000D03*
X5250000Y5750000D03*
X8500000Y4250000D03*
X5000000Y-6500000D03*
X-7500000Y-5500000D03*
X-7500000Y1500000D03*
X-10000000Y3500000D03*
%TO.N,GND*%
X-7250000Y7000000D03*
X-13750000Y-3500000D03*
X-12000000Y-4500000D03*
X0Y-2000000D03*
X1000000Y-2000000D03*
X2000000Y-2000000D03*
X-1000000Y-2000000D03*
X-2000000Y-2000000D03*
X0Y-1000000D03*
X1000000Y-1000000D03*
X2000000Y-1000000D03*
X-1000000Y-1000000D03*
X-2000000Y-1000000D03*
X0Y2000000D03*
X1000000Y2000000D03*
X2000000Y2000000D03*
X-1000000Y2000000D03*
X-2000000Y2000000D03*
X0Y1000000D03*
X1000000Y1000000D03*
X2000000Y1000000D03*
X-1000000Y1000000D03*
X-2000000Y1000000D03*
X-2000000Y0D03*
X-1000000Y0D03*
X2000000Y0D03*
X1000000Y0D03*
X0Y0D03*
X24200000Y-14900000D03*
X24900000Y-14900000D03*
X8250000Y-10250000D03*
X8250000Y-14750000D03*
X8250000Y-20750000D03*
X8250000Y-23750000D03*
X3750000Y-22750000D03*
X2250000Y-24000000D03*
X-1200000Y-20000000D03*
X-1200000Y-21000000D03*
X-1450000Y-23950000D03*
%TO.N,/USB_D-*%
X1575000Y-7400000D03*
%TO.N,/USB_D+*%
X2425000Y-7400000D03*
%TD*%
%TA.AperFunction,Conductor*%
%TO.N,GND*%
G36*
X6699758Y14580593D02*
G01*
X6735722Y14531093D01*
X6735722Y14469907D01*
X6720820Y14441170D01*
X6646645Y14342088D01*
X6596403Y14207382D01*
X6596401Y14207371D01*
X6590000Y14147825D01*
X6590000Y13500001D01*
X6590001Y13500000D01*
X7449238Y13500000D01*
X7427470Y13462297D01*
X7389988Y13322410D01*
X7389988Y13177590D01*
X7427470Y13037703D01*
X7449238Y13000000D01*
X6590001Y13000000D01*
X6590000Y12999999D01*
X6590000Y12352176D01*
X6589999Y12352176D01*
X6596401Y12292630D01*
X6596403Y12292619D01*
X6646646Y12157912D01*
X6646647Y12157910D01*
X6732807Y12042816D01*
X6732815Y12042808D01*
X6847909Y11956648D01*
X6847911Y11956647D01*
X6982618Y11906404D01*
X6982629Y11906402D01*
X7042176Y11900000D01*
X7689999Y11900000D01*
X7690000Y11900001D01*
X7690000Y12759239D01*
X7727703Y12737470D01*
X7867590Y12699988D01*
X8012410Y12699988D01*
X8152297Y12737470D01*
X8190000Y12759239D01*
X8190000Y11900001D01*
X8190001Y11900000D01*
X8837824Y11900000D01*
X8897370Y11906402D01*
X8897381Y11906404D01*
X9032088Y11956647D01*
X9032090Y11956648D01*
X9147184Y12042808D01*
X9147192Y12042816D01*
X9233352Y12157910D01*
X9233353Y12157912D01*
X9283596Y12292619D01*
X9283598Y12292630D01*
X9290000Y12352176D01*
X9290000Y12880119D01*
X9308907Y12938310D01*
X9358407Y12974274D01*
X9419593Y12974274D01*
X9469093Y12938310D01*
X9480462Y12918008D01*
X9497992Y12875689D01*
X9549058Y12752403D01*
X9659757Y12586729D01*
X9664023Y12580345D01*
X9810345Y12434023D01*
X9982402Y12319059D01*
X10173580Y12239870D01*
X10376535Y12199500D01*
X10376536Y12199500D01*
X10583464Y12199500D01*
X10583465Y12199500D01*
X10786420Y12239870D01*
X10977598Y12319059D01*
X11149655Y12434023D01*
X11295977Y12580345D01*
X11410941Y12752402D01*
X11490130Y12943580D01*
X11530500Y13146535D01*
X11530500Y13353465D01*
X11530499Y13353468D01*
X11969500Y13353468D01*
X11969500Y13146533D01*
X12009869Y12943582D01*
X12089058Y12752403D01*
X12199757Y12586729D01*
X12204023Y12580345D01*
X12350345Y12434023D01*
X12522402Y12319059D01*
X12713580Y12239870D01*
X12916535Y12199500D01*
X12916536Y12199500D01*
X13123464Y12199500D01*
X13123465Y12199500D01*
X13326420Y12239870D01*
X13517598Y12319059D01*
X13689655Y12434023D01*
X13835977Y12580345D01*
X13950941Y12752402D01*
X14030130Y12943580D01*
X14070500Y13146535D01*
X14070500Y13353465D01*
X14070499Y13353468D01*
X14509500Y13353468D01*
X14509500Y13146533D01*
X14549869Y12943582D01*
X14629058Y12752403D01*
X14739757Y12586729D01*
X14744023Y12580345D01*
X14890345Y12434023D01*
X15062402Y12319059D01*
X15253580Y12239870D01*
X15456535Y12199500D01*
X15456536Y12199500D01*
X15663464Y12199500D01*
X15663465Y12199500D01*
X15866420Y12239870D01*
X16049952Y12315892D01*
X24749500Y12315892D01*
X24749500Y12184108D01*
X24756520Y12157910D01*
X24783609Y12056810D01*
X24849496Y11942691D01*
X24849498Y11942689D01*
X24849500Y11942686D01*
X24942686Y11849500D01*
X24942688Y11849499D01*
X24942690Y11849497D01*
X25056810Y11783610D01*
X25056808Y11783610D01*
X25056812Y11783609D01*
X25056814Y11783608D01*
X25184108Y11749500D01*
X25184110Y11749500D01*
X25315890Y11749500D01*
X25315892Y11749500D01*
X25443186Y11783608D01*
X25443188Y11783610D01*
X25443190Y11783610D01*
X25557309Y11849497D01*
X25557309Y11849498D01*
X25557314Y11849500D01*
X25650500Y11942686D01*
X25650503Y11942691D01*
X25716390Y12056810D01*
X25716390Y12056812D01*
X25716392Y12056814D01*
X25750500Y12184108D01*
X25750500Y12315892D01*
X26249500Y12315892D01*
X26249500Y12184108D01*
X26256520Y12157910D01*
X26283609Y12056810D01*
X26349496Y11942691D01*
X26349498Y11942689D01*
X26349500Y11942686D01*
X26442686Y11849500D01*
X26442688Y11849499D01*
X26442690Y11849497D01*
X26556810Y11783610D01*
X26556808Y11783610D01*
X26556812Y11783609D01*
X26556814Y11783608D01*
X26684108Y11749500D01*
X26684110Y11749500D01*
X26815890Y11749500D01*
X26815892Y11749500D01*
X26943186Y11783608D01*
X26943188Y11783610D01*
X26943190Y11783610D01*
X27057309Y11849497D01*
X27057309Y11849498D01*
X27057314Y11849500D01*
X27150500Y11942686D01*
X27150503Y11942691D01*
X27216390Y12056810D01*
X27216390Y12056812D01*
X27216392Y12056814D01*
X27250500Y12184108D01*
X27250500Y12315892D01*
X27749500Y12315892D01*
X27749500Y12184108D01*
X27756520Y12157910D01*
X27783609Y12056810D01*
X27849496Y11942691D01*
X27849498Y11942689D01*
X27849500Y11942686D01*
X27942686Y11849500D01*
X27942688Y11849499D01*
X27942690Y11849497D01*
X28056810Y11783610D01*
X28056808Y11783610D01*
X28056812Y11783609D01*
X28056814Y11783608D01*
X28184108Y11749500D01*
X28184110Y11749500D01*
X28315890Y11749500D01*
X28315892Y11749500D01*
X28443186Y11783608D01*
X28443188Y11783610D01*
X28443190Y11783610D01*
X28557309Y11849497D01*
X28557309Y11849498D01*
X28557314Y11849500D01*
X28650500Y11942686D01*
X28650503Y11942691D01*
X28716390Y12056810D01*
X28716390Y12056812D01*
X28716392Y12056814D01*
X28750500Y12184108D01*
X28750500Y12315892D01*
X28716392Y12443186D01*
X28716390Y12443189D01*
X28716390Y12443191D01*
X28653104Y12552805D01*
X28653103Y12552806D01*
X28650501Y12557312D01*
X28650500Y12557314D01*
X28609393Y12598421D01*
X30249500Y12598421D01*
X30249500Y12401580D01*
X30280289Y12207179D01*
X30341116Y12019975D01*
X30427976Y11849500D01*
X30430476Y11844595D01*
X30546172Y11685354D01*
X30685354Y11546172D01*
X30844595Y11430476D01*
X31019975Y11341116D01*
X31207174Y11280291D01*
X31207175Y11280291D01*
X31207178Y11280290D01*
X31401580Y11249500D01*
X31401583Y11249500D01*
X31598420Y11249500D01*
X31792821Y11280290D01*
X31792822Y11280291D01*
X31792826Y11280291D01*
X31980025Y11341116D01*
X32155405Y11430476D01*
X32314646Y11546172D01*
X32453828Y11685354D01*
X32569524Y11844595D01*
X32658884Y12019975D01*
X32719709Y12207174D01*
X32719710Y12207179D01*
X32750500Y12401580D01*
X32750500Y12598421D01*
X32719710Y12792822D01*
X32692783Y12875694D01*
X32658884Y12980025D01*
X32569524Y13155405D01*
X32453828Y13314646D01*
X32314646Y13453828D01*
X32155405Y13569524D01*
X32155404Y13569525D01*
X32155402Y13569526D01*
X31980025Y13658884D01*
X31792821Y13719711D01*
X31598420Y13750500D01*
X31598417Y13750500D01*
X31401583Y13750500D01*
X31401580Y13750500D01*
X31207178Y13719711D01*
X31019974Y13658884D01*
X30844597Y13569526D01*
X30685355Y13453829D01*
X30546171Y13314645D01*
X30430474Y13155403D01*
X30341116Y12980026D01*
X30280289Y12792822D01*
X30249500Y12598421D01*
X28609393Y12598421D01*
X28557314Y12650500D01*
X28557311Y12650502D01*
X28557309Y12650504D01*
X28443189Y12716391D01*
X28443191Y12716391D01*
X28393799Y12729625D01*
X28315892Y12750500D01*
X28184108Y12750500D01*
X28106200Y12729625D01*
X28056809Y12716391D01*
X27942690Y12650504D01*
X27849496Y12557310D01*
X27783609Y12443191D01*
X27772460Y12401580D01*
X27749500Y12315892D01*
X27250500Y12315892D01*
X27216392Y12443186D01*
X27216390Y12443189D01*
X27216390Y12443191D01*
X27150503Y12557310D01*
X27150501Y12557312D01*
X27150500Y12557314D01*
X27057314Y12650500D01*
X27057311Y12650502D01*
X27057309Y12650504D01*
X26943189Y12716391D01*
X26943191Y12716391D01*
X26893799Y12729625D01*
X26815892Y12750500D01*
X26684108Y12750500D01*
X26606200Y12729625D01*
X26556809Y12716391D01*
X26442690Y12650504D01*
X26349496Y12557310D01*
X26283609Y12443191D01*
X26272460Y12401580D01*
X26249500Y12315892D01*
X25750500Y12315892D01*
X25716392Y12443186D01*
X25716390Y12443189D01*
X25716390Y12443191D01*
X25650503Y12557310D01*
X25650501Y12557312D01*
X25650500Y12557314D01*
X25557314Y12650500D01*
X25557311Y12650502D01*
X25557309Y12650504D01*
X25443189Y12716391D01*
X25443191Y12716391D01*
X25393799Y12729625D01*
X25315892Y12750500D01*
X25184108Y12750500D01*
X25106200Y12729625D01*
X25056809Y12716391D01*
X24942690Y12650504D01*
X24849496Y12557310D01*
X24783609Y12443191D01*
X24772460Y12401580D01*
X24749500Y12315892D01*
X16049952Y12315892D01*
X16057598Y12319059D01*
X16229655Y12434023D01*
X16375977Y12580345D01*
X16490941Y12752402D01*
X16570130Y12943580D01*
X16610500Y13146535D01*
X16610500Y13353465D01*
X16570130Y13556420D01*
X16490941Y13747598D01*
X16375977Y13919655D01*
X16229655Y14065977D01*
X16086896Y14161365D01*
X16057597Y14180942D01*
X15866418Y14260131D01*
X15663467Y14300500D01*
X15663465Y14300500D01*
X15456535Y14300500D01*
X15456532Y14300500D01*
X15253581Y14260131D01*
X15062402Y14180942D01*
X14890348Y14065980D01*
X14744020Y13919652D01*
X14629058Y13747598D01*
X14549869Y13556419D01*
X14509500Y13353468D01*
X14070499Y13353468D01*
X14030130Y13556420D01*
X13950941Y13747598D01*
X13835977Y13919655D01*
X13689655Y14065977D01*
X13546896Y14161365D01*
X13517597Y14180942D01*
X13326418Y14260131D01*
X13123467Y14300500D01*
X13123465Y14300500D01*
X12916535Y14300500D01*
X12916532Y14300500D01*
X12713581Y14260131D01*
X12522402Y14180942D01*
X12350348Y14065980D01*
X12204020Y13919652D01*
X12089058Y13747598D01*
X12009869Y13556419D01*
X11969500Y13353468D01*
X11530499Y13353468D01*
X11490130Y13556420D01*
X11410941Y13747598D01*
X11295977Y13919655D01*
X11149655Y14065977D01*
X11006896Y14161365D01*
X10977597Y14180942D01*
X10786418Y14260131D01*
X10583467Y14300500D01*
X10583465Y14300500D01*
X10376535Y14300500D01*
X10376532Y14300500D01*
X10173581Y14260131D01*
X9982402Y14180942D01*
X9810348Y14065980D01*
X9664020Y13919652D01*
X9549058Y13747598D01*
X9480464Y13581996D01*
X9440727Y13535471D01*
X9381232Y13521187D01*
X9324705Y13544602D01*
X9292735Y13596771D01*
X9290000Y13619882D01*
X9290000Y14147825D01*
X9283598Y14207371D01*
X9283596Y14207382D01*
X9233354Y14342088D01*
X9159180Y14441170D01*
X9139443Y14499085D01*
X9157517Y14557540D01*
X9206498Y14594208D01*
X9238433Y14599500D01*
X31442417Y14599500D01*
X31496759Y14599500D01*
X31503234Y14599288D01*
X31767568Y14581963D01*
X31780396Y14580274D01*
X32037040Y14529225D01*
X32049529Y14525878D01*
X32297307Y14441769D01*
X32309255Y14436820D01*
X32501351Y14342088D01*
X32543928Y14321091D01*
X32555142Y14314617D01*
X32772707Y14169245D01*
X32782971Y14161369D01*
X32798415Y14147825D01*
X32979692Y13988850D01*
X32988848Y13979694D01*
X33146424Y13800012D01*
X33161364Y13782977D01*
X33169246Y13772705D01*
X33204656Y13719711D01*
X33314616Y13555143D01*
X33321090Y13543929D01*
X33436815Y13309264D01*
X33441771Y13297299D01*
X33525874Y13049539D01*
X33529226Y13037031D01*
X33580272Y12780402D01*
X33581962Y12767563D01*
X33599288Y12503235D01*
X33599500Y12496760D01*
X33599500Y-35496759D01*
X33599288Y-35503234D01*
X33581962Y-35767562D01*
X33580272Y-35780401D01*
X33529226Y-36037030D01*
X33525874Y-36049538D01*
X33441771Y-36297298D01*
X33436815Y-36309263D01*
X33321090Y-36543928D01*
X33314616Y-36555142D01*
X33169248Y-36772702D01*
X33161364Y-36782976D01*
X32988849Y-36979692D01*
X32979692Y-36988849D01*
X32782976Y-37161364D01*
X32772702Y-37169248D01*
X32555142Y-37314616D01*
X32543928Y-37321090D01*
X32309263Y-37436815D01*
X32297298Y-37441771D01*
X32049538Y-37525874D01*
X32037030Y-37529226D01*
X31780401Y-37580272D01*
X31767562Y-37581962D01*
X31503234Y-37599288D01*
X31496759Y-37599500D01*
X-19496759Y-37599500D01*
X-19503234Y-37599288D01*
X-19767563Y-37581962D01*
X-19780402Y-37580272D01*
X-20037031Y-37529226D01*
X-20049539Y-37525874D01*
X-20297299Y-37441771D01*
X-20309264Y-37436815D01*
X-20311357Y-37435783D01*
X-20346362Y-37418520D01*
X-20543929Y-37321090D01*
X-20555143Y-37314616D01*
X-20715105Y-37207733D01*
X-20772705Y-37169246D01*
X-20782977Y-37161364D01*
X-20979693Y-36988849D01*
X-20988850Y-36979692D01*
X-21054145Y-36905237D01*
X-21161369Y-36782971D01*
X-21169245Y-36772707D01*
X-21314617Y-36555142D01*
X-21321091Y-36543928D01*
X-21385178Y-36413973D01*
X-21436820Y-36309255D01*
X-21441769Y-36297307D01*
X-21525878Y-36049529D01*
X-21529225Y-36037040D01*
X-21580274Y-35780396D01*
X-21581963Y-35767562D01*
X-21586838Y-35693190D01*
X-21599288Y-35503234D01*
X-21599500Y-35496759D01*
X-21599500Y-35401579D01*
X-20750500Y-35401579D01*
X-20750500Y-35598420D01*
X-20719711Y-35792821D01*
X-20658884Y-35980025D01*
X-20594743Y-36105911D01*
X-20569524Y-36155405D01*
X-20453828Y-36314646D01*
X-20314646Y-36453828D01*
X-20155405Y-36569524D01*
X-19980025Y-36658884D01*
X-19792826Y-36719709D01*
X-19792825Y-36719709D01*
X-19792822Y-36719710D01*
X-19598420Y-36750500D01*
X-19598417Y-36750500D01*
X-19401580Y-36750500D01*
X-19207179Y-36719710D01*
X-19207178Y-36719709D01*
X-19207174Y-36719709D01*
X-19019975Y-36658884D01*
X-18844595Y-36569524D01*
X-18685354Y-36453828D01*
X-18546172Y-36314646D01*
X-18430476Y-36155405D01*
X-18341116Y-35980025D01*
X-18280291Y-35792826D01*
X-18277824Y-35777249D01*
X-18249500Y-35598420D01*
X-18249500Y-35406381D01*
X-15450500Y-35406381D01*
X-15450500Y-35593618D01*
X-15413974Y-35777249D01*
X-15342323Y-35950229D01*
X-15342319Y-35950238D01*
X-15284325Y-36037030D01*
X-15238302Y-36105908D01*
X-15105908Y-36238302D01*
X-15039537Y-36282649D01*
X-14950239Y-36342318D01*
X-14950233Y-36342320D01*
X-14950231Y-36342322D01*
X-14777251Y-36413973D01*
X-14593616Y-36450500D01*
X-14593615Y-36450500D01*
X-14406385Y-36450500D01*
X-14406384Y-36450500D01*
X-14222749Y-36413973D01*
X-14049769Y-36342322D01*
X-14049766Y-36342319D01*
X-14049762Y-36342318D01*
X-13982386Y-36297298D01*
X-13894092Y-36238302D01*
X-13761698Y-36105908D01*
X-13681990Y-35986617D01*
X-13657682Y-35950238D01*
X-13657681Y-35950234D01*
X-13657678Y-35950231D01*
X-13586027Y-35777251D01*
X-13549500Y-35593616D01*
X-13549500Y-35434108D01*
X-8250500Y-35434108D01*
X-8250500Y-35565892D01*
X-8243072Y-35593614D01*
X-8216391Y-35693190D01*
X-8150504Y-35807309D01*
X-8150502Y-35807311D01*
X-8150500Y-35807314D01*
X-8057314Y-35900500D01*
X-8057312Y-35900501D01*
X-8057310Y-35900503D01*
X-7943190Y-35966390D01*
X-7943192Y-35966390D01*
X-7943188Y-35966391D01*
X-7943186Y-35966392D01*
X-7815892Y-36000500D01*
X-7815890Y-36000500D01*
X-7684110Y-36000500D01*
X-7684108Y-36000500D01*
X-7556814Y-35966392D01*
X-7556812Y-35966390D01*
X-7556810Y-35966390D01*
X-7442691Y-35900503D01*
X-7442691Y-35900502D01*
X-7442686Y-35900500D01*
X-7349500Y-35807314D01*
X-7283608Y-35693186D01*
X-7249500Y-35565892D01*
X-7249500Y-35434108D01*
X-7258216Y-35401579D01*
X30249500Y-35401579D01*
X30249500Y-35598420D01*
X30280289Y-35792821D01*
X30341116Y-35980025D01*
X30405257Y-36105911D01*
X30430476Y-36155405D01*
X30546172Y-36314646D01*
X30685354Y-36453828D01*
X30844595Y-36569524D01*
X31019975Y-36658884D01*
X31207174Y-36719709D01*
X31207175Y-36719709D01*
X31207178Y-36719710D01*
X31401580Y-36750500D01*
X31401583Y-36750500D01*
X31598420Y-36750500D01*
X31792821Y-36719710D01*
X31792822Y-36719709D01*
X31792826Y-36719709D01*
X31980025Y-36658884D01*
X32155405Y-36569524D01*
X32314646Y-36453828D01*
X32453828Y-36314646D01*
X32569524Y-36155405D01*
X32658884Y-35980025D01*
X32719709Y-35792826D01*
X32722176Y-35777249D01*
X32750500Y-35598420D01*
X32750500Y-35401579D01*
X32719710Y-35207178D01*
X32715003Y-35192690D01*
X32658884Y-35019975D01*
X32569524Y-34844595D01*
X32453828Y-34685354D01*
X32314646Y-34546172D01*
X32155405Y-34430476D01*
X32155404Y-34430475D01*
X32155402Y-34430474D01*
X31980025Y-34341116D01*
X31792821Y-34280289D01*
X31598420Y-34249500D01*
X31598417Y-34249500D01*
X31401583Y-34249500D01*
X31401580Y-34249500D01*
X31207178Y-34280289D01*
X31019974Y-34341116D01*
X30844597Y-34430474D01*
X30685355Y-34546171D01*
X30546171Y-34685355D01*
X30430474Y-34844597D01*
X30341116Y-35019974D01*
X30280289Y-35207178D01*
X30249500Y-35401579D01*
X-7258216Y-35401579D01*
X-7283608Y-35306814D01*
X-7283610Y-35306811D01*
X-7283610Y-35306809D01*
X-7349497Y-35192690D01*
X-7349499Y-35192688D01*
X-7349500Y-35192686D01*
X-7442686Y-35099500D01*
X-7442689Y-35099498D01*
X-7442691Y-35099496D01*
X-7556811Y-35033609D01*
X-7556809Y-35033609D01*
X-7607697Y-35019974D01*
X-7684108Y-34999500D01*
X-7815892Y-34999500D01*
X-7892303Y-35019974D01*
X-7943191Y-35033609D01*
X-8057310Y-35099496D01*
X-8150504Y-35192690D01*
X-8216391Y-35306809D01*
X-8216392Y-35306814D01*
X-8250500Y-35434108D01*
X-13549500Y-35434108D01*
X-13549500Y-35406384D01*
X-13586027Y-35222749D01*
X-13657678Y-35049769D01*
X-13657680Y-35049767D01*
X-13657682Y-35049761D01*
X-13717351Y-34960463D01*
X-13761698Y-34894092D01*
X-13894092Y-34761698D01*
X-13938441Y-34732065D01*
X-14049762Y-34657681D01*
X-14049771Y-34657677D01*
X-14222751Y-34586026D01*
X-14406382Y-34549500D01*
X-14406384Y-34549500D01*
X-14593616Y-34549500D01*
X-14593619Y-34549500D01*
X-14777250Y-34586026D01*
X-14950230Y-34657677D01*
X-14950239Y-34657681D01*
X-15105908Y-34761698D01*
X-15105912Y-34761701D01*
X-15238299Y-34894088D01*
X-15238302Y-34894092D01*
X-15342319Y-35049761D01*
X-15342323Y-35049770D01*
X-15413974Y-35222750D01*
X-15450500Y-35406381D01*
X-18249500Y-35406381D01*
X-18249500Y-35401579D01*
X-18280290Y-35207178D01*
X-18284997Y-35192690D01*
X-18341116Y-35019975D01*
X-18430476Y-34844595D01*
X-18546172Y-34685354D01*
X-18685354Y-34546172D01*
X-18844595Y-34430476D01*
X-18844596Y-34430475D01*
X-18844598Y-34430474D01*
X-19019975Y-34341116D01*
X-19207179Y-34280289D01*
X-19401580Y-34249500D01*
X-19401583Y-34249500D01*
X-19598417Y-34249500D01*
X-19598420Y-34249500D01*
X-19792822Y-34280289D01*
X-19980026Y-34341116D01*
X-20155403Y-34430474D01*
X-20314645Y-34546171D01*
X-20453829Y-34685355D01*
X-20569526Y-34844597D01*
X-20658884Y-35019974D01*
X-20719711Y-35207178D01*
X-20750500Y-35401579D01*
X-21599500Y-35401579D01*
X-21599500Y-33484108D01*
X-5000500Y-33484108D01*
X-5000500Y-33615892D01*
X-4970421Y-33728151D01*
X-4966391Y-33743190D01*
X-4900504Y-33857309D01*
X-4900502Y-33857311D01*
X-4900500Y-33857314D01*
X-4807314Y-33950500D01*
X-4807312Y-33950501D01*
X-4807310Y-33950503D01*
X-4693190Y-34016390D01*
X-4693192Y-34016390D01*
X-4693188Y-34016391D01*
X-4693186Y-34016392D01*
X-4565892Y-34050500D01*
X-4565890Y-34050500D01*
X-4434110Y-34050500D01*
X-4434108Y-34050500D01*
X-4306814Y-34016392D01*
X-4306812Y-34016390D01*
X-4306810Y-34016390D01*
X-4192691Y-33950503D01*
X-4192691Y-33950502D01*
X-4192686Y-33950500D01*
X-4099500Y-33857314D01*
X-4033608Y-33743186D01*
X-3999500Y-33615892D01*
X-3999500Y-33484108D01*
X-4033608Y-33356814D01*
X-4033610Y-33356811D01*
X-4033610Y-33356809D01*
X-4099497Y-33242690D01*
X-4099499Y-33242688D01*
X-4099500Y-33242686D01*
X-4192686Y-33149500D01*
X-4192689Y-33149498D01*
X-4192691Y-33149496D01*
X-4306811Y-33083609D01*
X-4306809Y-33083609D01*
X-4356201Y-33070375D01*
X-4434108Y-33049500D01*
X-4565892Y-33049500D01*
X-4643800Y-33070375D01*
X-4693191Y-33083609D01*
X-4807310Y-33149496D01*
X-4900504Y-33242690D01*
X-4966391Y-33356809D01*
X-4966392Y-33356814D01*
X-5000500Y-33484108D01*
X-21599500Y-33484108D01*
X-21599500Y-30156381D01*
X30549500Y-30156381D01*
X30549500Y-30343618D01*
X30586026Y-30527249D01*
X30657677Y-30700229D01*
X30657681Y-30700238D01*
X30732065Y-30811559D01*
X30761698Y-30855908D01*
X30894092Y-30988302D01*
X30960463Y-31032649D01*
X31049761Y-31092318D01*
X31049767Y-31092320D01*
X31049769Y-31092322D01*
X31222749Y-31163973D01*
X31406384Y-31200500D01*
X31406385Y-31200500D01*
X31593615Y-31200500D01*
X31593616Y-31200500D01*
X31777251Y-31163973D01*
X31950231Y-31092322D01*
X31950234Y-31092319D01*
X31950238Y-31092318D01*
X31995187Y-31062282D01*
X32105908Y-30988302D01*
X32238302Y-30855908D01*
X32312282Y-30745187D01*
X32342318Y-30700238D01*
X32342319Y-30700234D01*
X32342322Y-30700231D01*
X32413973Y-30527251D01*
X32450500Y-30343616D01*
X32450500Y-30156384D01*
X32413973Y-29972749D01*
X32342322Y-29799769D01*
X32342320Y-29799767D01*
X32342318Y-29799761D01*
X32282649Y-29710463D01*
X32238302Y-29644092D01*
X32105908Y-29511698D01*
X32061559Y-29482065D01*
X31950238Y-29407681D01*
X31950229Y-29407677D01*
X31777249Y-29336026D01*
X31593618Y-29299500D01*
X31593616Y-29299500D01*
X31406384Y-29299500D01*
X31406381Y-29299500D01*
X31222750Y-29336026D01*
X31049770Y-29407677D01*
X31049761Y-29407681D01*
X30894092Y-29511698D01*
X30894088Y-29511701D01*
X30761701Y-29644088D01*
X30761698Y-29644092D01*
X30657681Y-29799761D01*
X30657677Y-29799770D01*
X30586026Y-29972750D01*
X30549500Y-30156381D01*
X-21599500Y-30156381D01*
X-21599500Y-26684108D01*
X10749500Y-26684108D01*
X10749500Y-26815892D01*
X10779579Y-26928151D01*
X10783609Y-26943190D01*
X10849496Y-27057309D01*
X10849498Y-27057311D01*
X10849500Y-27057314D01*
X10942686Y-27150500D01*
X10942688Y-27150501D01*
X10942690Y-27150503D01*
X11056810Y-27216390D01*
X11056808Y-27216390D01*
X11056812Y-27216391D01*
X11056814Y-27216392D01*
X11184108Y-27250500D01*
X11184110Y-27250500D01*
X11315890Y-27250500D01*
X11315892Y-27250500D01*
X11443186Y-27216392D01*
X11443188Y-27216390D01*
X11443190Y-27216390D01*
X11557309Y-27150503D01*
X11557309Y-27150502D01*
X11557314Y-27150500D01*
X11650500Y-27057314D01*
X11716392Y-26943186D01*
X11750500Y-26815892D01*
X11750500Y-26684108D01*
X11716392Y-26556814D01*
X11716390Y-26556811D01*
X11716390Y-26556809D01*
X11650503Y-26442690D01*
X11650501Y-26442688D01*
X11650500Y-26442686D01*
X11557314Y-26349500D01*
X11557311Y-26349498D01*
X11557309Y-26349496D01*
X11443189Y-26283609D01*
X11443191Y-26283609D01*
X11393799Y-26270375D01*
X11315892Y-26249500D01*
X11184108Y-26249500D01*
X11106200Y-26270375D01*
X11056809Y-26283609D01*
X10942690Y-26349496D01*
X10849496Y-26442690D01*
X10783609Y-26556809D01*
X10783608Y-26556814D01*
X10749500Y-26684108D01*
X-21599500Y-26684108D01*
X-21599500Y-24681004D01*
X-4450500Y-24681004D01*
X-4450500Y-24818995D01*
X-4423580Y-24954327D01*
X-4423580Y-24954329D01*
X-4370778Y-25081806D01*
X-4370772Y-25081817D01*
X-4294115Y-25196541D01*
X-4196542Y-25294114D01*
X-4081818Y-25370771D01*
X-4081807Y-25370777D01*
X-4034717Y-25390282D01*
X-3954328Y-25423580D01*
X-3818993Y-25450500D01*
X-3818992Y-25450500D01*
X-3681008Y-25450500D01*
X-3681007Y-25450500D01*
X-3545672Y-25423580D01*
X-3418189Y-25370775D01*
X-3303458Y-25294114D01*
X-3205886Y-25196542D01*
X-3129225Y-25081811D01*
X-3076420Y-24954328D01*
X-3072398Y-24934108D01*
X3999500Y-24934108D01*
X3999500Y-25065892D01*
X4029579Y-25178151D01*
X4033609Y-25193190D01*
X4099496Y-25307309D01*
X4099498Y-25307311D01*
X4099500Y-25307314D01*
X4192686Y-25400500D01*
X4192688Y-25400501D01*
X4192690Y-25400503D01*
X4306810Y-25466390D01*
X4306808Y-25466390D01*
X4306812Y-25466391D01*
X4306814Y-25466392D01*
X4434108Y-25500500D01*
X4434110Y-25500500D01*
X4565890Y-25500500D01*
X4565892Y-25500500D01*
X4693186Y-25466392D01*
X4693188Y-25466390D01*
X4693190Y-25466390D01*
X4807309Y-25400503D01*
X4807309Y-25400502D01*
X4807314Y-25400500D01*
X4900500Y-25307314D01*
X4908121Y-25294114D01*
X4966390Y-25193190D01*
X4966390Y-25193188D01*
X4966392Y-25193186D01*
X5000500Y-25065892D01*
X5000500Y-24934108D01*
X4966392Y-24806814D01*
X4966390Y-24806811D01*
X4966390Y-24806809D01*
X4900503Y-24692690D01*
X4900501Y-24692688D01*
X4900500Y-24692686D01*
X4807314Y-24599500D01*
X4807311Y-24599498D01*
X4807309Y-24599496D01*
X4693189Y-24533609D01*
X4693191Y-24533609D01*
X4643799Y-24520375D01*
X4565892Y-24499500D01*
X4434108Y-24499500D01*
X4356200Y-24520375D01*
X4306809Y-24533609D01*
X4192690Y-24599496D01*
X4099496Y-24692690D01*
X4033609Y-24806809D01*
X4030344Y-24818995D01*
X3999500Y-24934108D01*
X-3072398Y-24934108D01*
X-3049500Y-24818993D01*
X-3049500Y-24681007D01*
X-3076420Y-24545672D01*
X-3129225Y-24418189D01*
X-3129226Y-24418187D01*
X-3129229Y-24418182D01*
X-3205886Y-24303458D01*
X-3303459Y-24205885D01*
X-3418183Y-24129228D01*
X-3418194Y-24129222D01*
X-3545672Y-24076420D01*
X-3681005Y-24049500D01*
X-3681007Y-24049500D01*
X-3818993Y-24049500D01*
X-3818996Y-24049500D01*
X-3954328Y-24076420D01*
X-3954330Y-24076420D01*
X-4081807Y-24129222D01*
X-4081818Y-24129228D01*
X-4196542Y-24205885D01*
X-4294115Y-24303458D01*
X-4370772Y-24418182D01*
X-4370778Y-24418193D01*
X-4423580Y-24545670D01*
X-4423580Y-24545672D01*
X-4450500Y-24681004D01*
X-21599500Y-24681004D01*
X-21599500Y-22184108D01*
X7749500Y-22184108D01*
X7749500Y-22315892D01*
X7779579Y-22428151D01*
X7783609Y-22443190D01*
X7849496Y-22557309D01*
X7849498Y-22557311D01*
X7849500Y-22557314D01*
X7942686Y-22650500D01*
X7942688Y-22650501D01*
X7942690Y-22650503D01*
X8056810Y-22716390D01*
X8056808Y-22716390D01*
X8056812Y-22716391D01*
X8056814Y-22716392D01*
X8184108Y-22750500D01*
X8184110Y-22750500D01*
X8315890Y-22750500D01*
X8315892Y-22750500D01*
X8443186Y-22716392D01*
X8443188Y-22716390D01*
X8443190Y-22716390D01*
X8557309Y-22650503D01*
X8557309Y-22650502D01*
X8557314Y-22650500D01*
X8650500Y-22557314D01*
X8716392Y-22443186D01*
X8750500Y-22315892D01*
X8750500Y-22184108D01*
X8716392Y-22056814D01*
X8716390Y-22056811D01*
X8716390Y-22056809D01*
X8650503Y-21942690D01*
X8650501Y-21942688D01*
X8650500Y-21942686D01*
X8557314Y-21849500D01*
X8557311Y-21849498D01*
X8557309Y-21849496D01*
X8443189Y-21783609D01*
X8443191Y-21783609D01*
X8393799Y-21770375D01*
X8315892Y-21749500D01*
X8184108Y-21749500D01*
X8106200Y-21770375D01*
X8056809Y-21783609D01*
X7942690Y-21849496D01*
X7849496Y-21942690D01*
X7783609Y-22056809D01*
X7783608Y-22056814D01*
X7749500Y-22184108D01*
X-21599500Y-22184108D01*
X-21599500Y-19824108D01*
X-16500500Y-19824108D01*
X-16500500Y-19955892D01*
X-16473326Y-20057309D01*
X-16466391Y-20083190D01*
X-16400504Y-20197309D01*
X-16400502Y-20197311D01*
X-16400500Y-20197314D01*
X-16307314Y-20290500D01*
X-16307312Y-20290501D01*
X-16307310Y-20290503D01*
X-16193190Y-20356390D01*
X-16193192Y-20356390D01*
X-16193188Y-20356391D01*
X-16193186Y-20356392D01*
X-16065892Y-20390500D01*
X-16065890Y-20390500D01*
X-15934110Y-20390500D01*
X-15934108Y-20390500D01*
X-15806814Y-20356392D01*
X-15806812Y-20356390D01*
X-15806810Y-20356390D01*
X-15692691Y-20290503D01*
X-15692691Y-20290502D01*
X-15692686Y-20290500D01*
X-15599500Y-20197314D01*
X-15590433Y-20181609D01*
X-15533610Y-20083190D01*
X-15533610Y-20083188D01*
X-15533608Y-20083186D01*
X-15499500Y-19955892D01*
X-15499500Y-19824108D01*
X-15533608Y-19696814D01*
X-15540943Y-19684109D01*
X-15540944Y-19684108D01*
X7749500Y-19684108D01*
X7749500Y-19815892D01*
X7751702Y-19824109D01*
X7783609Y-19943190D01*
X7849496Y-20057309D01*
X7849498Y-20057311D01*
X7849500Y-20057314D01*
X7942686Y-20150500D01*
X7942688Y-20150501D01*
X7942690Y-20150503D01*
X8056810Y-20216390D01*
X8056808Y-20216390D01*
X8056812Y-20216391D01*
X8056814Y-20216392D01*
X8184108Y-20250500D01*
X8184110Y-20250500D01*
X8315890Y-20250500D01*
X8315892Y-20250500D01*
X8443186Y-20216392D01*
X8443188Y-20216390D01*
X8443190Y-20216390D01*
X8557309Y-20150503D01*
X8557309Y-20150502D01*
X8557314Y-20150500D01*
X8650500Y-20057314D01*
X8709056Y-19955892D01*
X8716390Y-19943190D01*
X8716390Y-19943188D01*
X8716392Y-19943186D01*
X8750500Y-19815892D01*
X8750500Y-19684108D01*
X8716392Y-19556814D01*
X8716390Y-19556811D01*
X8716390Y-19556809D01*
X8650831Y-19443258D01*
X8650503Y-19442690D01*
X8650501Y-19442688D01*
X8650500Y-19442686D01*
X8605458Y-19397644D01*
X28699500Y-19397644D01*
X28699500Y-19602355D01*
X28731521Y-19804529D01*
X28794780Y-19999219D01*
X28887712Y-20181609D01*
X28887714Y-20181613D01*
X29008029Y-20347213D01*
X29008031Y-20347215D01*
X29008034Y-20347219D01*
X29152781Y-20491966D01*
X29152784Y-20491968D01*
X29152786Y-20491970D01*
X29318386Y-20612285D01*
X29318390Y-20612287D01*
X29500781Y-20705220D01*
X29695466Y-20768477D01*
X29695467Y-20768477D01*
X29695470Y-20768478D01*
X29897645Y-20800500D01*
X29897648Y-20800500D01*
X30102355Y-20800500D01*
X30304529Y-20768478D01*
X30304530Y-20768477D01*
X30304534Y-20768477D01*
X30499219Y-20705220D01*
X30681610Y-20612287D01*
X30847219Y-20491966D01*
X30991966Y-20347219D01*
X31087018Y-20216390D01*
X31112285Y-20181613D01*
X31112287Y-20181610D01*
X31205220Y-19999219D01*
X31268477Y-19804534D01*
X31268478Y-19804529D01*
X31300500Y-19602355D01*
X31300500Y-19397644D01*
X31268478Y-19195470D01*
X31268477Y-19195466D01*
X31205220Y-19000781D01*
X31112287Y-18818390D01*
X31112285Y-18818386D01*
X30991970Y-18652786D01*
X30991968Y-18652784D01*
X30991966Y-18652781D01*
X30847219Y-18508034D01*
X30847215Y-18508031D01*
X30847213Y-18508029D01*
X30681613Y-18387714D01*
X30681609Y-18387712D01*
X30499219Y-18294780D01*
X30304529Y-18231521D01*
X30102355Y-18199500D01*
X30102352Y-18199500D01*
X29897648Y-18199500D01*
X29897645Y-18199500D01*
X29695470Y-18231521D01*
X29500780Y-18294780D01*
X29318390Y-18387712D01*
X29318386Y-18387714D01*
X29152786Y-18508029D01*
X29008029Y-18652786D01*
X28887714Y-18818386D01*
X28887712Y-18818390D01*
X28794780Y-19000780D01*
X28731521Y-19195470D01*
X28699500Y-19397644D01*
X8605458Y-19397644D01*
X8557314Y-19349500D01*
X8557311Y-19349498D01*
X8557309Y-19349496D01*
X8443189Y-19283609D01*
X8443191Y-19283609D01*
X8393799Y-19270375D01*
X8315892Y-19249500D01*
X8184108Y-19249500D01*
X8106200Y-19270375D01*
X8056809Y-19283609D01*
X7942690Y-19349496D01*
X7849496Y-19442690D01*
X7783609Y-19556809D01*
X7771406Y-19602352D01*
X7749500Y-19684108D01*
X-15540944Y-19684108D01*
X-15599497Y-19582690D01*
X-15599499Y-19582688D01*
X-15599500Y-19582686D01*
X-15692686Y-19489500D01*
X-15692689Y-19489498D01*
X-15692691Y-19489496D01*
X-15806811Y-19423609D01*
X-15806809Y-19423609D01*
X-15856201Y-19410375D01*
X-15934108Y-19389500D01*
X-16065892Y-19389500D01*
X-16143800Y-19410375D01*
X-16193191Y-19423609D01*
X-16307310Y-19489496D01*
X-16400504Y-19582690D01*
X-16466391Y-19696809D01*
X-16485461Y-19767978D01*
X-16500500Y-19824108D01*
X-21599500Y-19824108D01*
X-21599500Y-16065691D01*
X-9975497Y-16065691D01*
X-9975497Y-16184309D01*
X-9948423Y-16285351D01*
X-9944795Y-16298890D01*
X-9885490Y-16401608D01*
X-9885489Y-16401609D01*
X-9885488Y-16401610D01*
X-9885486Y-16401613D01*
X-9857103Y-16429996D01*
X-9857102Y-16429997D01*
X-9829326Y-16484514D01*
X-9838898Y-16544946D01*
X-9857102Y-16570003D01*
X-9885490Y-16598391D01*
X-9944795Y-16701109D01*
X-9944796Y-16701114D01*
X-9975497Y-16815691D01*
X-9975497Y-16934309D01*
X-9948423Y-17035351D01*
X-9944795Y-17048890D01*
X-9885490Y-17151608D01*
X-9885488Y-17151610D01*
X-9885486Y-17151613D01*
X-9801610Y-17235489D01*
X-9801608Y-17235490D01*
X-9801606Y-17235492D01*
X-9698887Y-17294797D01*
X-9698886Y-17294797D01*
X-9698883Y-17294799D01*
X-9584306Y-17325500D01*
X-9584304Y-17325500D01*
X-9465690Y-17325500D01*
X-9465688Y-17325500D01*
X-9351111Y-17294799D01*
X-9351109Y-17294797D01*
X-9351107Y-17294797D01*
X-9248389Y-17235492D01*
X-9248389Y-17235491D01*
X-9248384Y-17235489D01*
X-9164508Y-17151613D01*
X-9105198Y-17048886D01*
X-9074497Y-16934309D01*
X-9074497Y-16815691D01*
X-9105198Y-16701114D01*
X-9105200Y-16701111D01*
X-9105200Y-16701109D01*
X-9164505Y-16598391D01*
X-9164507Y-16598389D01*
X-9164508Y-16598387D01*
X-9192894Y-16570001D01*
X-9220669Y-16515487D01*
X-9211098Y-16455055D01*
X-9192895Y-16429999D01*
X-9164508Y-16401613D01*
X-9105198Y-16298886D01*
X-9074497Y-16184309D01*
X-9074497Y-16065691D01*
X-9105198Y-15951114D01*
X-9105200Y-15951111D01*
X-9105200Y-15951109D01*
X-9164505Y-15848391D01*
X-9164507Y-15848389D01*
X-9164508Y-15848387D01*
X-9248384Y-15764511D01*
X-9248387Y-15764509D01*
X-9248389Y-15764507D01*
X-9351108Y-15705202D01*
X-9351107Y-15705202D01*
X-9364646Y-15701574D01*
X-9465688Y-15674500D01*
X-9584306Y-15674500D01*
X-9654430Y-15693289D01*
X-9698888Y-15705202D01*
X-9801606Y-15764507D01*
X-9885490Y-15848391D01*
X-9944795Y-15951109D01*
X-9944796Y-15951114D01*
X-9975497Y-16065691D01*
X-21599500Y-16065691D01*
X-21599500Y-14690691D01*
X-10700500Y-14690691D01*
X-10700500Y-14809309D01*
X-10673426Y-14910351D01*
X-10669798Y-14923890D01*
X-10610493Y-15026608D01*
X-10610491Y-15026610D01*
X-10610489Y-15026613D01*
X-10526613Y-15110489D01*
X-10526611Y-15110490D01*
X-10526609Y-15110492D01*
X-10423890Y-15169797D01*
X-10423889Y-15169797D01*
X-10423886Y-15169799D01*
X-10309309Y-15200500D01*
X-10309307Y-15200500D01*
X-10190693Y-15200500D01*
X-10190691Y-15200500D01*
X-10076114Y-15169799D01*
X-10076112Y-15169797D01*
X-10076110Y-15169797D01*
X-9973392Y-15110492D01*
X-9973392Y-15110491D01*
X-9973387Y-15110489D01*
X-9889511Y-15026613D01*
X-9830201Y-14923886D01*
X-9799500Y-14809309D01*
X-9799500Y-14690691D01*
X-9830201Y-14576114D01*
X-9830203Y-14576111D01*
X-9830203Y-14576109D01*
X-9889508Y-14473391D01*
X-9889510Y-14473389D01*
X-9889511Y-14473387D01*
X-9973387Y-14389511D01*
X-9973390Y-14389509D01*
X-9973392Y-14389507D01*
X-10076111Y-14330202D01*
X-10076110Y-14330202D01*
X-10089649Y-14326574D01*
X-10190691Y-14299500D01*
X-10309309Y-14299500D01*
X-10379433Y-14318289D01*
X-10423891Y-14330202D01*
X-10526609Y-14389507D01*
X-10610493Y-14473391D01*
X-10669798Y-14576109D01*
X-10673138Y-14588575D01*
X-10700500Y-14690691D01*
X-21599500Y-14690691D01*
X-21599500Y-14044108D01*
X-16500500Y-14044108D01*
X-16500500Y-14175892D01*
X-16489648Y-14216392D01*
X-16466391Y-14303190D01*
X-16400504Y-14417309D01*
X-16400502Y-14417311D01*
X-16400500Y-14417314D01*
X-16307314Y-14510500D01*
X-16307312Y-14510501D01*
X-16307310Y-14510503D01*
X-16193190Y-14576390D01*
X-16193192Y-14576390D01*
X-16193188Y-14576391D01*
X-16193186Y-14576392D01*
X-16065892Y-14610500D01*
X-16065890Y-14610500D01*
X-15934110Y-14610500D01*
X-15934108Y-14610500D01*
X-15806814Y-14576392D01*
X-15806812Y-14576390D01*
X-15806810Y-14576390D01*
X-15692691Y-14510503D01*
X-15692691Y-14510502D01*
X-15692686Y-14510500D01*
X-15599500Y-14417314D01*
X-15583448Y-14389511D01*
X-15533610Y-14303190D01*
X-15533610Y-14303188D01*
X-15533608Y-14303186D01*
X-15499500Y-14175892D01*
X-15499500Y-14044108D01*
X-15533608Y-13916814D01*
X-15533610Y-13916811D01*
X-15533610Y-13916809D01*
X-15599497Y-13802690D01*
X-15599499Y-13802688D01*
X-15599500Y-13802686D01*
X-15692686Y-13709500D01*
X-15692689Y-13709498D01*
X-15692691Y-13709496D01*
X-15806811Y-13643609D01*
X-15806809Y-13643609D01*
X-15856201Y-13630375D01*
X-15934108Y-13609500D01*
X-16065892Y-13609500D01*
X-16143800Y-13630375D01*
X-16193191Y-13643609D01*
X-16307310Y-13709496D01*
X-16400504Y-13802690D01*
X-16466391Y-13916809D01*
X-16485461Y-13987978D01*
X-16500500Y-14044108D01*
X-21599500Y-14044108D01*
X-21599500Y-13294108D01*
X-4860500Y-13294108D01*
X-4860500Y-13425892D01*
X-4856000Y-13442686D01*
X-4826391Y-13553190D01*
X-4760504Y-13667309D01*
X-4760502Y-13667311D01*
X-4760500Y-13667314D01*
X-4667314Y-13760500D01*
X-4667312Y-13760501D01*
X-4667310Y-13760503D01*
X-4553190Y-13826390D01*
X-4553192Y-13826390D01*
X-4553188Y-13826391D01*
X-4553186Y-13826392D01*
X-4425892Y-13860500D01*
X-4425890Y-13860500D01*
X-4294110Y-13860500D01*
X-4294108Y-13860500D01*
X-4166814Y-13826392D01*
X-4166812Y-13826390D01*
X-4166810Y-13826390D01*
X-4052691Y-13760503D01*
X-4052691Y-13760502D01*
X-4052686Y-13760500D01*
X-3959500Y-13667314D01*
X-3895988Y-13557309D01*
X-3893610Y-13553190D01*
X-3893610Y-13553188D01*
X-3893608Y-13553186D01*
X-3859500Y-13425892D01*
X-3859500Y-13294108D01*
X-3888974Y-13184108D01*
X-1500500Y-13184108D01*
X-1500500Y-13315892D01*
X-1471026Y-13425890D01*
X-1466391Y-13443190D01*
X-1400504Y-13557309D01*
X-1400502Y-13557311D01*
X-1400500Y-13557314D01*
X-1307314Y-13650500D01*
X-1307312Y-13650501D01*
X-1307310Y-13650503D01*
X-1193190Y-13716390D01*
X-1193192Y-13716390D01*
X-1193188Y-13716391D01*
X-1193186Y-13716392D01*
X-1065892Y-13750500D01*
X-1065890Y-13750500D01*
X-934110Y-13750500D01*
X-934108Y-13750500D01*
X-806814Y-13716392D01*
X-806812Y-13716390D01*
X-806810Y-13716390D01*
X-692691Y-13650503D01*
X-692691Y-13650502D01*
X-692686Y-13650500D01*
X-599500Y-13557314D01*
X-533608Y-13443186D01*
X-499500Y-13315892D01*
X-499500Y-13184108D01*
X-533608Y-13056814D01*
X-533610Y-13056811D01*
X-533610Y-13056809D01*
X-599497Y-12942690D01*
X-599499Y-12942688D01*
X-599500Y-12942686D01*
X-692686Y-12849500D01*
X-692689Y-12849498D01*
X-692691Y-12849496D01*
X-806811Y-12783609D01*
X-806809Y-12783609D01*
X-821278Y-12779732D01*
X-934108Y-12749500D01*
X-1065892Y-12749500D01*
X-1143800Y-12770375D01*
X-1193191Y-12783609D01*
X-1307310Y-12849496D01*
X-1400504Y-12942690D01*
X-1466391Y-13056809D01*
X-1466392Y-13056814D01*
X-1500500Y-13184108D01*
X-3888974Y-13184108D01*
X-3893608Y-13166814D01*
X-3903027Y-13150500D01*
X-3959497Y-13052690D01*
X-3959499Y-13052688D01*
X-3959500Y-13052686D01*
X-4052686Y-12959500D01*
X-4052689Y-12959498D01*
X-4052691Y-12959496D01*
X-4166811Y-12893609D01*
X-4166809Y-12893609D01*
X-4216201Y-12880375D01*
X-4294108Y-12859500D01*
X-4425892Y-12859500D01*
X-4503800Y-12880375D01*
X-4553191Y-12893609D01*
X-4667310Y-12959496D01*
X-4760504Y-13052690D01*
X-4826391Y-13166809D01*
X-4836153Y-13203242D01*
X-4860500Y-13294108D01*
X-21599500Y-13294108D01*
X-21599500Y-12684108D01*
X7999500Y-12684108D01*
X7999500Y-12815892D01*
X8011185Y-12859500D01*
X8033609Y-12943190D01*
X8099496Y-13057309D01*
X8099498Y-13057311D01*
X8099500Y-13057314D01*
X8192686Y-13150500D01*
X8192688Y-13150501D01*
X8216525Y-13164264D01*
X8257465Y-13209734D01*
X8263860Y-13270584D01*
X8233267Y-13323572D01*
X8216525Y-13335736D01*
X8192688Y-13349498D01*
X8099496Y-13442690D01*
X8033609Y-13556809D01*
X8033608Y-13556814D01*
X7999500Y-13684108D01*
X7999500Y-13815892D01*
X8011453Y-13860500D01*
X8033609Y-13943190D01*
X8099496Y-14057309D01*
X8099498Y-14057311D01*
X8099500Y-14057314D01*
X8192686Y-14150500D01*
X8192688Y-14150501D01*
X8192690Y-14150503D01*
X8306810Y-14216390D01*
X8306808Y-14216390D01*
X8306812Y-14216391D01*
X8306814Y-14216392D01*
X8434108Y-14250500D01*
X8434110Y-14250500D01*
X8565890Y-14250500D01*
X8565892Y-14250500D01*
X8693186Y-14216392D01*
X8693188Y-14216390D01*
X8693190Y-14216390D01*
X8807309Y-14150503D01*
X8807309Y-14150502D01*
X8807314Y-14150500D01*
X8900500Y-14057314D01*
X8966392Y-13943186D01*
X9000500Y-13815892D01*
X9000500Y-13684108D01*
X8966392Y-13556814D01*
X8966390Y-13556811D01*
X8966390Y-13556809D01*
X8900503Y-13442690D01*
X8900501Y-13442688D01*
X8900500Y-13442686D01*
X8807314Y-13349500D01*
X8783474Y-13335735D01*
X8742534Y-13290267D01*
X8736138Y-13229417D01*
X8766731Y-13176429D01*
X8783474Y-13164264D01*
X8807314Y-13150500D01*
X8900500Y-13057314D01*
X8956973Y-12959500D01*
X8966390Y-12943190D01*
X8966390Y-12943188D01*
X8966392Y-12943186D01*
X9000500Y-12815892D01*
X9000500Y-12684108D01*
X8966392Y-12556814D01*
X8966390Y-12556811D01*
X8966390Y-12556809D01*
X8900503Y-12442690D01*
X8900501Y-12442688D01*
X8900500Y-12442686D01*
X8807314Y-12349500D01*
X8807311Y-12349498D01*
X8807309Y-12349496D01*
X8693189Y-12283609D01*
X8693191Y-12283609D01*
X8643799Y-12270375D01*
X8565892Y-12249500D01*
X8434108Y-12249500D01*
X8356200Y-12270375D01*
X8306809Y-12283609D01*
X8192690Y-12349496D01*
X8099496Y-12442690D01*
X8033609Y-12556809D01*
X8033608Y-12556814D01*
X7999500Y-12684108D01*
X-21599500Y-12684108D01*
X-21599500Y-11759108D01*
X823500Y-11759108D01*
X823500Y-11890892D01*
X853579Y-12003151D01*
X857609Y-12018190D01*
X923496Y-12132309D01*
X923498Y-12132311D01*
X923500Y-12132314D01*
X1016686Y-12225500D01*
X1016688Y-12225501D01*
X1016690Y-12225503D01*
X1130810Y-12291390D01*
X1130808Y-12291390D01*
X1130812Y-12291391D01*
X1130814Y-12291392D01*
X1258108Y-12325500D01*
X1258110Y-12325500D01*
X1389890Y-12325500D01*
X1389892Y-12325500D01*
X1517186Y-12291392D01*
X1517188Y-12291390D01*
X1517190Y-12291390D01*
X1631309Y-12225503D01*
X1631309Y-12225502D01*
X1631314Y-12225500D01*
X1724500Y-12132314D01*
X1790392Y-12018186D01*
X1824500Y-11890892D01*
X1824500Y-11759108D01*
X1790392Y-11631814D01*
X1790390Y-11631811D01*
X1790390Y-11631809D01*
X1724503Y-11517690D01*
X1724501Y-11517688D01*
X1724500Y-11517686D01*
X1631314Y-11424500D01*
X1631311Y-11424498D01*
X1631309Y-11424496D01*
X1517189Y-11358609D01*
X1517191Y-11358609D01*
X1467799Y-11345375D01*
X1389892Y-11324500D01*
X1258108Y-11324500D01*
X1180200Y-11345375D01*
X1130809Y-11358609D01*
X1016690Y-11424496D01*
X923496Y-11517690D01*
X857609Y-11631809D01*
X857608Y-11631814D01*
X823500Y-11759108D01*
X-21599500Y-11759108D01*
X-21599500Y-10940691D01*
X-11200500Y-10940691D01*
X-11200500Y-11059309D01*
X-11173426Y-11160351D01*
X-11169798Y-11173890D01*
X-11110493Y-11276608D01*
X-11110491Y-11276610D01*
X-11110489Y-11276613D01*
X-11026613Y-11360489D01*
X-11026611Y-11360490D01*
X-11026609Y-11360492D01*
X-10923890Y-11419797D01*
X-10923889Y-11419797D01*
X-10923886Y-11419799D01*
X-10809309Y-11450500D01*
X-10809307Y-11450500D01*
X-10690693Y-11450500D01*
X-10690691Y-11450500D01*
X-10576114Y-11419799D01*
X-10576112Y-11419797D01*
X-10576110Y-11419797D01*
X-10473392Y-11360492D01*
X-10473392Y-11360491D01*
X-10473387Y-11360489D01*
X-10389511Y-11276613D01*
X-10330201Y-11173886D01*
X-10299500Y-11059309D01*
X-10299500Y-10940691D01*
X-10330201Y-10826114D01*
X-10330203Y-10826111D01*
X-10330203Y-10826109D01*
X-10389508Y-10723391D01*
X-10389510Y-10723389D01*
X-10389511Y-10723387D01*
X-10473387Y-10639511D01*
X-10473390Y-10639509D01*
X-10473392Y-10639507D01*
X-10576111Y-10580202D01*
X-10576110Y-10580202D01*
X-10589649Y-10576574D01*
X-10690691Y-10549500D01*
X-10809309Y-10549500D01*
X-10879433Y-10568289D01*
X-10923891Y-10580202D01*
X-11026609Y-10639507D01*
X-11110493Y-10723391D01*
X-11169798Y-10826109D01*
X-11169799Y-10826114D01*
X-11200500Y-10940691D01*
X-21599500Y-10940691D01*
X-21599500Y-9184108D01*
X-5750500Y-9184108D01*
X-5750500Y-9315892D01*
X-5737377Y-9364867D01*
X-5716391Y-9443190D01*
X-5650504Y-9557309D01*
X-5650502Y-9557311D01*
X-5650500Y-9557314D01*
X-5557314Y-9650500D01*
X-5557312Y-9650501D01*
X-5557310Y-9650503D01*
X-5443190Y-9716390D01*
X-5443192Y-9716390D01*
X-5443188Y-9716391D01*
X-5443186Y-9716392D01*
X-5315892Y-9750500D01*
X-5315890Y-9750500D01*
X-5184110Y-9750500D01*
X-5184108Y-9750500D01*
X-5056814Y-9716392D01*
X-5056812Y-9716390D01*
X-5056810Y-9716390D01*
X-4942691Y-9650503D01*
X-4942691Y-9650502D01*
X-4942686Y-9650500D01*
X-4849500Y-9557314D01*
X-4811887Y-9492167D01*
X-4783610Y-9443190D01*
X-4783610Y-9443188D01*
X-4783608Y-9443186D01*
X-4749500Y-9315892D01*
X-4749500Y-9184108D01*
X-2500500Y-9184108D01*
X-2500500Y-9315892D01*
X-2487377Y-9364867D01*
X-2466391Y-9443190D01*
X-2400504Y-9557309D01*
X-2400502Y-9557311D01*
X-2400500Y-9557314D01*
X-2307314Y-9650500D01*
X-2307312Y-9650501D01*
X-2307310Y-9650503D01*
X-2193190Y-9716390D01*
X-2193192Y-9716390D01*
X-2193188Y-9716391D01*
X-2193186Y-9716392D01*
X-2065892Y-9750500D01*
X-2065890Y-9750500D01*
X-1934110Y-9750500D01*
X-1934108Y-9750500D01*
X-1806814Y-9716392D01*
X-1806812Y-9716390D01*
X-1806810Y-9716390D01*
X-1692691Y-9650503D01*
X-1692691Y-9650502D01*
X-1692686Y-9650500D01*
X-1599500Y-9557314D01*
X-1561887Y-9492167D01*
X-1561886Y-9492166D01*
X3557558Y-9492166D01*
X3557558Y-9623950D01*
X3564672Y-9650500D01*
X3591667Y-9751248D01*
X3657554Y-9865367D01*
X3657556Y-9865369D01*
X3657558Y-9865372D01*
X3750744Y-9958558D01*
X3750746Y-9958559D01*
X3750748Y-9958561D01*
X3864868Y-10024448D01*
X3864866Y-10024448D01*
X3864870Y-10024449D01*
X3864872Y-10024450D01*
X3992166Y-10058558D01*
X3992168Y-10058558D01*
X4123948Y-10058558D01*
X4123950Y-10058558D01*
X4251244Y-10024450D01*
X4251246Y-10024448D01*
X4251248Y-10024448D01*
X4365367Y-9958561D01*
X4365367Y-9958560D01*
X4365372Y-9958558D01*
X4458558Y-9865372D01*
X4524450Y-9751244D01*
X4558558Y-9623950D01*
X4558558Y-9492166D01*
X4524450Y-9364872D01*
X4524448Y-9364869D01*
X4524448Y-9364867D01*
X4458561Y-9250748D01*
X4458559Y-9250746D01*
X4458558Y-9250744D01*
X4365372Y-9157558D01*
X4365369Y-9157556D01*
X4365367Y-9157554D01*
X4251247Y-9091667D01*
X4251249Y-9091667D01*
X4201857Y-9078433D01*
X4123950Y-9057558D01*
X3992166Y-9057558D01*
X3914258Y-9078433D01*
X3864867Y-9091667D01*
X3750748Y-9157554D01*
X3657554Y-9250748D01*
X3591667Y-9364867D01*
X3591666Y-9364872D01*
X3557558Y-9492166D01*
X-1561886Y-9492166D01*
X-1533610Y-9443190D01*
X-1533610Y-9443188D01*
X-1533608Y-9443186D01*
X-1499500Y-9315892D01*
X-1499500Y-9184108D01*
X-1533608Y-9056814D01*
X-1533610Y-9056811D01*
X-1533610Y-9056809D01*
X-1599497Y-8942690D01*
X-1599499Y-8942688D01*
X-1599500Y-8942686D01*
X-1692686Y-8849500D01*
X-1692689Y-8849498D01*
X-1692691Y-8849496D01*
X-1806811Y-8783609D01*
X-1806809Y-8783609D01*
X-1856201Y-8770375D01*
X-1934108Y-8749500D01*
X-2065892Y-8749500D01*
X-2143800Y-8770375D01*
X-2193191Y-8783609D01*
X-2307310Y-8849496D01*
X-2400504Y-8942690D01*
X-2466391Y-9056809D01*
X-2475731Y-9091667D01*
X-2500500Y-9184108D01*
X-4749500Y-9184108D01*
X-4783608Y-9056814D01*
X-4783610Y-9056811D01*
X-4783610Y-9056809D01*
X-4849497Y-8942690D01*
X-4849499Y-8942688D01*
X-4849500Y-8942686D01*
X-4942686Y-8849500D01*
X-4942689Y-8849498D01*
X-4942691Y-8849496D01*
X-5056811Y-8783609D01*
X-5056809Y-8783609D01*
X-5106201Y-8770375D01*
X-5184108Y-8749500D01*
X-5315892Y-8749500D01*
X-5393800Y-8770375D01*
X-5443191Y-8783609D01*
X-5557310Y-8849496D01*
X-5650504Y-8942690D01*
X-5716391Y-9056809D01*
X-5725731Y-9091667D01*
X-5750500Y-9184108D01*
X-21599500Y-9184108D01*
X-21599500Y-8434108D01*
X-250500Y-8434108D01*
X-250500Y-8565892D01*
X-220421Y-8678151D01*
X-216391Y-8693190D01*
X-150504Y-8807309D01*
X-150502Y-8807311D01*
X-150500Y-8807314D01*
X-57314Y-8900500D01*
X-57312Y-8900501D01*
X-57310Y-8900503D01*
X56810Y-8966390D01*
X56808Y-8966390D01*
X56812Y-8966391D01*
X56814Y-8966392D01*
X184108Y-9000500D01*
X184110Y-9000500D01*
X315890Y-9000500D01*
X315892Y-9000500D01*
X443186Y-8966392D01*
X443188Y-8966390D01*
X443190Y-8966390D01*
X557309Y-8900503D01*
X557309Y-8900502D01*
X557314Y-8900500D01*
X650500Y-8807314D01*
X716392Y-8693186D01*
X750500Y-8565892D01*
X750500Y-8434108D01*
X716392Y-8306814D01*
X716390Y-8306811D01*
X716390Y-8306809D01*
X650503Y-8192690D01*
X650501Y-8192688D01*
X650500Y-8192686D01*
X557314Y-8099500D01*
X557311Y-8099498D01*
X557309Y-8099496D01*
X443189Y-8033609D01*
X443191Y-8033609D01*
X393799Y-8020375D01*
X315892Y-7999500D01*
X184108Y-7999500D01*
X106200Y-8020375D01*
X56809Y-8033609D01*
X-57310Y-8099496D01*
X-150504Y-8192690D01*
X-216391Y-8306809D01*
X-216392Y-8306814D01*
X-250500Y-8434108D01*
X-21599500Y-8434108D01*
X-21599500Y-7334108D01*
X1074500Y-7334108D01*
X1074500Y-7465892D01*
X1104579Y-7578151D01*
X1108609Y-7593190D01*
X1174496Y-7707309D01*
X1174498Y-7707311D01*
X1174500Y-7707314D01*
X1267686Y-7800500D01*
X1267688Y-7800501D01*
X1267690Y-7800503D01*
X1381810Y-7866390D01*
X1381808Y-7866390D01*
X1381812Y-7866391D01*
X1381814Y-7866392D01*
X1509108Y-7900500D01*
X1509110Y-7900500D01*
X1640890Y-7900500D01*
X1640892Y-7900500D01*
X1768186Y-7866392D01*
X1768188Y-7866390D01*
X1768190Y-7866390D01*
X1882309Y-7800503D01*
X1882309Y-7800502D01*
X1882314Y-7800500D01*
X1929998Y-7752815D01*
X1984513Y-7725040D01*
X2044945Y-7734611D01*
X2070000Y-7752814D01*
X2117686Y-7800500D01*
X2117688Y-7800501D01*
X2117690Y-7800503D01*
X2231810Y-7866390D01*
X2231808Y-7866390D01*
X2231812Y-7866391D01*
X2231814Y-7866392D01*
X2359108Y-7900500D01*
X2359110Y-7900500D01*
X2490890Y-7900500D01*
X2490892Y-7900500D01*
X2618186Y-7866392D01*
X2618188Y-7866390D01*
X2618190Y-7866390D01*
X2732309Y-7800503D01*
X2732309Y-7800502D01*
X2732314Y-7800500D01*
X2825500Y-7707314D01*
X2825503Y-7707309D01*
X2891390Y-7593190D01*
X2891390Y-7593188D01*
X2891392Y-7593186D01*
X2925500Y-7465892D01*
X2925500Y-7334108D01*
X2891392Y-7206814D01*
X2891390Y-7206811D01*
X2891390Y-7206809D01*
X2825503Y-7092690D01*
X2825501Y-7092688D01*
X2825500Y-7092686D01*
X2732314Y-6999500D01*
X2732311Y-6999498D01*
X2732309Y-6999496D01*
X2618189Y-6933609D01*
X2618191Y-6933609D01*
X2568799Y-6920375D01*
X2490892Y-6899500D01*
X2359108Y-6899500D01*
X2281200Y-6920375D01*
X2231809Y-6933609D01*
X2117690Y-6999496D01*
X2117689Y-6999497D01*
X2117686Y-6999499D01*
X2117686Y-6999500D01*
X2070001Y-7047184D01*
X2015487Y-7074960D01*
X1955055Y-7065389D01*
X1929999Y-7047185D01*
X1882314Y-6999500D01*
X1882311Y-6999498D01*
X1882309Y-6999496D01*
X1768189Y-6933609D01*
X1768191Y-6933609D01*
X1718799Y-6920375D01*
X1640892Y-6899500D01*
X1509108Y-6899500D01*
X1431200Y-6920375D01*
X1381809Y-6933609D01*
X1267690Y-6999496D01*
X1174496Y-7092690D01*
X1108609Y-7206809D01*
X1108608Y-7206814D01*
X1074500Y-7334108D01*
X-21599500Y-7334108D01*
X-21599500Y-5934108D01*
X-9250500Y-5934108D01*
X-9250500Y-6065892D01*
X-9220421Y-6178151D01*
X-9216391Y-6193190D01*
X-9150504Y-6307309D01*
X-9150502Y-6307311D01*
X-9150500Y-6307314D01*
X-9057314Y-6400500D01*
X-9057312Y-6400501D01*
X-9057310Y-6400503D01*
X-8943190Y-6466390D01*
X-8943192Y-6466390D01*
X-8943188Y-6466391D01*
X-8943186Y-6466392D01*
X-8815892Y-6500500D01*
X-8815890Y-6500500D01*
X-8684110Y-6500500D01*
X-8684108Y-6500500D01*
X-8556814Y-6466392D01*
X-8556812Y-6466390D01*
X-8556810Y-6466390D01*
X-8500896Y-6434108D01*
X4499500Y-6434108D01*
X4499500Y-6565892D01*
X4529579Y-6678151D01*
X4533609Y-6693190D01*
X4599496Y-6807309D01*
X4599498Y-6807311D01*
X4599500Y-6807314D01*
X4692686Y-6900500D01*
X4692688Y-6900501D01*
X4692690Y-6900503D01*
X4806810Y-6966390D01*
X4806808Y-6966390D01*
X4806812Y-6966391D01*
X4806814Y-6966392D01*
X4934108Y-7000500D01*
X4934110Y-7000500D01*
X5065890Y-7000500D01*
X5065892Y-7000500D01*
X5193186Y-6966392D01*
X5193188Y-6966390D01*
X5193190Y-6966390D01*
X5307309Y-6900503D01*
X5307309Y-6900502D01*
X5307314Y-6900500D01*
X5400500Y-6807314D01*
X5466392Y-6693186D01*
X5500500Y-6565892D01*
X5500500Y-6434108D01*
X5466392Y-6306814D01*
X5466390Y-6306811D01*
X5466390Y-6306809D01*
X5400503Y-6192690D01*
X5400501Y-6192688D01*
X5400500Y-6192686D01*
X5307314Y-6099500D01*
X5307311Y-6099498D01*
X5307309Y-6099496D01*
X5193189Y-6033609D01*
X5193191Y-6033609D01*
X5143799Y-6020375D01*
X5065892Y-5999500D01*
X4934108Y-5999500D01*
X4856200Y-6020375D01*
X4806809Y-6033609D01*
X4692690Y-6099496D01*
X4599496Y-6192690D01*
X4533609Y-6306809D01*
X4533608Y-6306814D01*
X4499500Y-6434108D01*
X-8500896Y-6434108D01*
X-8442691Y-6400503D01*
X-8442691Y-6400502D01*
X-8442686Y-6400500D01*
X-8349500Y-6307314D01*
X-8283608Y-6193186D01*
X-8249500Y-6065892D01*
X-8249500Y-5934108D01*
X-8283608Y-5806814D01*
X-8283610Y-5806811D01*
X-8283610Y-5806809D01*
X-8349497Y-5692690D01*
X-8349499Y-5692688D01*
X-8349500Y-5692686D01*
X-8442686Y-5599500D01*
X-8442689Y-5599498D01*
X-8442691Y-5599496D01*
X-8556811Y-5533609D01*
X-8556809Y-5533609D01*
X-8571278Y-5529732D01*
X-8684108Y-5499500D01*
X-8815892Y-5499500D01*
X-8893800Y-5520375D01*
X-8943191Y-5533609D01*
X-9057310Y-5599496D01*
X-9150504Y-5692690D01*
X-9216391Y-5806809D01*
X-9216392Y-5806814D01*
X-9250500Y-5934108D01*
X-21599500Y-5934108D01*
X-21599500Y-5434108D01*
X-8000500Y-5434108D01*
X-8000500Y-5565892D01*
X-7970421Y-5678151D01*
X-7966391Y-5693190D01*
X-7900504Y-5807309D01*
X-7900502Y-5807311D01*
X-7900500Y-5807314D01*
X-7807314Y-5900500D01*
X-7807312Y-5900501D01*
X-7807310Y-5900503D01*
X-7693190Y-5966390D01*
X-7693192Y-5966390D01*
X-7693188Y-5966391D01*
X-7693186Y-5966392D01*
X-7565892Y-6000500D01*
X-7565890Y-6000500D01*
X-7434110Y-6000500D01*
X-7434108Y-6000500D01*
X-7306814Y-5966392D01*
X-7306812Y-5966390D01*
X-7306810Y-5966390D01*
X-7192691Y-5900503D01*
X-7192691Y-5900502D01*
X-7192686Y-5900500D01*
X-7099500Y-5807314D01*
X-7033608Y-5693186D01*
X-6999500Y-5565892D01*
X-6999500Y-5434108D01*
X-7033608Y-5306814D01*
X-7033610Y-5306811D01*
X-7033610Y-5306809D01*
X-7099497Y-5192690D01*
X-7099499Y-5192688D01*
X-7099500Y-5192686D01*
X-7192686Y-5099500D01*
X-7192689Y-5099498D01*
X-7192691Y-5099496D01*
X-7306811Y-5033609D01*
X-7306809Y-5033609D01*
X-7356201Y-5020375D01*
X-7434108Y-4999500D01*
X-7565892Y-4999500D01*
X-7643800Y-5020375D01*
X-7693191Y-5033609D01*
X-7807310Y-5099496D01*
X-7900504Y-5192690D01*
X-7966391Y-5306809D01*
X-7966392Y-5306814D01*
X-8000500Y-5434108D01*
X-21599500Y-5434108D01*
X-21599500Y-4184108D01*
X749500Y-4184108D01*
X749500Y-4315892D01*
X770211Y-4393186D01*
X783609Y-4443190D01*
X849496Y-4557309D01*
X849498Y-4557311D01*
X849500Y-4557314D01*
X942686Y-4650500D01*
X942688Y-4650501D01*
X942690Y-4650503D01*
X1056810Y-4716390D01*
X1056808Y-4716390D01*
X1056812Y-4716391D01*
X1056814Y-4716392D01*
X1184108Y-4750500D01*
X1184110Y-4750500D01*
X1315890Y-4750500D01*
X1315892Y-4750500D01*
X1443186Y-4716392D01*
X1443188Y-4716390D01*
X1443190Y-4716390D01*
X1557309Y-4650503D01*
X1557309Y-4650502D01*
X1557314Y-4650500D01*
X1650500Y-4557314D01*
X1679368Y-4507314D01*
X1716390Y-4443190D01*
X1716390Y-4443188D01*
X1716392Y-4443186D01*
X1750500Y-4315892D01*
X1750500Y-4184108D01*
X1737103Y-4134108D01*
X2299500Y-4134108D01*
X2299500Y-4265892D01*
X2329579Y-4378151D01*
X2333609Y-4393190D01*
X2399496Y-4507309D01*
X2399498Y-4507311D01*
X2399500Y-4507314D01*
X2492686Y-4600500D01*
X2492688Y-4600501D01*
X2492690Y-4600503D01*
X2606810Y-4666390D01*
X2606808Y-4666390D01*
X2606812Y-4666391D01*
X2606814Y-4666392D01*
X2734108Y-4700500D01*
X2734110Y-4700500D01*
X2865890Y-4700500D01*
X2865892Y-4700500D01*
X2927068Y-4684108D01*
X13749500Y-4684108D01*
X13749500Y-4815892D01*
X13779579Y-4928151D01*
X13783609Y-4943190D01*
X13849496Y-5057309D01*
X13849498Y-5057311D01*
X13849500Y-5057314D01*
X13942686Y-5150500D01*
X13942688Y-5150501D01*
X13942690Y-5150503D01*
X14056810Y-5216390D01*
X14056808Y-5216390D01*
X14056812Y-5216391D01*
X14056814Y-5216392D01*
X14184108Y-5250500D01*
X14184110Y-5250500D01*
X14315890Y-5250500D01*
X14315892Y-5250500D01*
X14443186Y-5216392D01*
X14443188Y-5216390D01*
X14443190Y-5216390D01*
X14557309Y-5150503D01*
X14557309Y-5150502D01*
X14557314Y-5150500D01*
X14650500Y-5057314D01*
X14716392Y-4943186D01*
X14750500Y-4815892D01*
X14750500Y-4684108D01*
X14716392Y-4556814D01*
X14716390Y-4556811D01*
X14716390Y-4556809D01*
X14650503Y-4442690D01*
X14650501Y-4442688D01*
X14650500Y-4442686D01*
X14557314Y-4349500D01*
X14557311Y-4349498D01*
X14557309Y-4349496D01*
X14443189Y-4283609D01*
X14443191Y-4283609D01*
X14377068Y-4265892D01*
X14315892Y-4249500D01*
X14184108Y-4249500D01*
X14122932Y-4265892D01*
X14056809Y-4283609D01*
X13942690Y-4349496D01*
X13849496Y-4442690D01*
X13783609Y-4556809D01*
X13783608Y-4556814D01*
X13749500Y-4684108D01*
X2927068Y-4684108D01*
X2993186Y-4666392D01*
X2993188Y-4666390D01*
X2993190Y-4666390D01*
X3107309Y-4600503D01*
X3107309Y-4600502D01*
X3107314Y-4600500D01*
X3200500Y-4507314D01*
X3237522Y-4443190D01*
X3266390Y-4393190D01*
X3266390Y-4393188D01*
X3266392Y-4393186D01*
X3300500Y-4265892D01*
X3300500Y-4134108D01*
X3266392Y-4006814D01*
X3266390Y-4006811D01*
X3266390Y-4006809D01*
X3200503Y-3892690D01*
X3200501Y-3892688D01*
X3200500Y-3892686D01*
X3107314Y-3799500D01*
X3107311Y-3799498D01*
X3107309Y-3799496D01*
X3044714Y-3763356D01*
X3044711Y-3763356D01*
X2993187Y-3733608D01*
X2950754Y-3722238D01*
X2865892Y-3699500D01*
X2734108Y-3699500D01*
X2656200Y-3720375D01*
X2606809Y-3733609D01*
X2492690Y-3799496D01*
X2399496Y-3892690D01*
X2333609Y-4006809D01*
X2333608Y-4006814D01*
X2299500Y-4134108D01*
X1737103Y-4134108D01*
X1716392Y-4056814D01*
X1716390Y-4056811D01*
X1716390Y-4056809D01*
X1650503Y-3942690D01*
X1650501Y-3942688D01*
X1650500Y-3942686D01*
X1557314Y-3849500D01*
X1557311Y-3849498D01*
X1557309Y-3849496D01*
X1443189Y-3783609D01*
X1443191Y-3783609D01*
X1393799Y-3770375D01*
X1315892Y-3749500D01*
X1184108Y-3749500D01*
X1106200Y-3770375D01*
X1056809Y-3783609D01*
X942690Y-3849496D01*
X849496Y-3942690D01*
X783609Y-4056809D01*
X783608Y-4056814D01*
X749500Y-4184108D01*
X-21599500Y-4184108D01*
X-21599500Y-3684108D01*
X7249500Y-3684108D01*
X7249500Y-3815892D01*
X7270077Y-3892686D01*
X7283609Y-3943190D01*
X7349496Y-4057309D01*
X7349498Y-4057311D01*
X7349500Y-4057314D01*
X7442686Y-4150500D01*
X7442688Y-4150501D01*
X7442690Y-4150503D01*
X7556810Y-4216390D01*
X7556808Y-4216390D01*
X7556812Y-4216391D01*
X7556814Y-4216392D01*
X7684108Y-4250500D01*
X7684110Y-4250500D01*
X7815890Y-4250500D01*
X7815892Y-4250500D01*
X7943186Y-4216392D01*
X7943188Y-4216390D01*
X7943190Y-4216390D01*
X8057309Y-4150503D01*
X8057309Y-4150502D01*
X8057314Y-4150500D01*
X8150500Y-4057314D01*
X8179659Y-4006809D01*
X8216390Y-3943190D01*
X8216390Y-3943188D01*
X8216392Y-3943186D01*
X8250500Y-3815892D01*
X8250500Y-3684108D01*
X8216392Y-3556814D01*
X8216390Y-3556811D01*
X8216390Y-3556809D01*
X8150503Y-3442690D01*
X8150501Y-3442688D01*
X8150500Y-3442686D01*
X8057314Y-3349500D01*
X8057311Y-3349498D01*
X8057309Y-3349496D01*
X7943189Y-3283609D01*
X7943191Y-3283609D01*
X7923394Y-3278305D01*
X7815892Y-3249500D01*
X7684108Y-3249500D01*
X7606200Y-3270375D01*
X7556809Y-3283609D01*
X7442690Y-3349496D01*
X7349496Y-3442690D01*
X7283609Y-3556809D01*
X7264539Y-3627978D01*
X7249500Y-3684108D01*
X-21599500Y-3684108D01*
X-21599500Y-3181004D01*
X23049500Y-3181004D01*
X23049500Y-3318995D01*
X23076420Y-3454327D01*
X23076420Y-3454329D01*
X23129222Y-3581806D01*
X23129228Y-3581817D01*
X23205885Y-3696541D01*
X23303458Y-3794114D01*
X23418182Y-3870771D01*
X23418193Y-3870777D01*
X23465283Y-3890282D01*
X23545672Y-3923580D01*
X23681007Y-3950500D01*
X23681008Y-3950500D01*
X23818992Y-3950500D01*
X23818993Y-3950500D01*
X23954328Y-3923580D01*
X24081811Y-3870775D01*
X24196542Y-3794114D01*
X24294114Y-3696542D01*
X24370775Y-3581811D01*
X24423580Y-3454328D01*
X24450500Y-3318993D01*
X24450500Y-3181007D01*
X24423580Y-3045672D01*
X24370775Y-2918189D01*
X24370774Y-2918187D01*
X24370771Y-2918182D01*
X24294114Y-2803458D01*
X24196541Y-2705885D01*
X24081817Y-2629228D01*
X24081806Y-2629222D01*
X23954328Y-2576420D01*
X23818995Y-2549500D01*
X23818993Y-2549500D01*
X23681007Y-2549500D01*
X23681004Y-2549500D01*
X23545672Y-2576420D01*
X23545670Y-2576420D01*
X23418193Y-2629222D01*
X23418182Y-2629228D01*
X23303458Y-2705885D01*
X23205885Y-2803458D01*
X23129228Y-2918182D01*
X23129222Y-2918193D01*
X23076420Y-3045670D01*
X23076420Y-3045672D01*
X23049500Y-3181004D01*
X-21599500Y-3181004D01*
X-21599500Y1565892D01*
X-8000500Y1565892D01*
X-8000500Y1434108D01*
X-7977429Y1348004D01*
X-7966391Y1306810D01*
X-7900504Y1192691D01*
X-7900502Y1192689D01*
X-7900500Y1192686D01*
X-7807314Y1099500D01*
X-7807312Y1099499D01*
X-7807310Y1099497D01*
X-7693190Y1033610D01*
X-7693192Y1033610D01*
X-7693188Y1033609D01*
X-7693186Y1033608D01*
X-7565892Y999500D01*
X-7565890Y999500D01*
X-7434110Y999500D01*
X-7434108Y999500D01*
X-7306814Y1033608D01*
X-7306812Y1033610D01*
X-7306810Y1033610D01*
X-7192691Y1099497D01*
X-7192691Y1099498D01*
X-7192686Y1099500D01*
X-7099500Y1192686D01*
X-7033608Y1306814D01*
X-7031176Y1315892D01*
X23249500Y1315892D01*
X23249500Y1184108D01*
X23272171Y1099497D01*
X23283609Y1056810D01*
X23349496Y942691D01*
X23349498Y942689D01*
X23349500Y942686D01*
X23442686Y849500D01*
X23442688Y849499D01*
X23442690Y849497D01*
X23556810Y783610D01*
X23556808Y783610D01*
X23556812Y783609D01*
X23556814Y783608D01*
X23684108Y749500D01*
X23684110Y749500D01*
X23815890Y749500D01*
X23815892Y749500D01*
X23943186Y783608D01*
X23943188Y783610D01*
X23943190Y783610D01*
X24057309Y849497D01*
X24057309Y849498D01*
X24057314Y849500D01*
X24150500Y942686D01*
X24216392Y1056814D01*
X24250500Y1184108D01*
X24250500Y1315892D01*
X24216392Y1443186D01*
X24216390Y1443189D01*
X24216390Y1443191D01*
X24150503Y1557310D01*
X24150501Y1557312D01*
X24150500Y1557314D01*
X24057314Y1650500D01*
X24057311Y1650502D01*
X24057309Y1650504D01*
X23943189Y1716391D01*
X23943191Y1716391D01*
X23878927Y1733610D01*
X23815892Y1750500D01*
X23684108Y1750500D01*
X23621073Y1733610D01*
X23556809Y1716391D01*
X23442690Y1650504D01*
X23349496Y1557310D01*
X23283609Y1443191D01*
X23264539Y1372022D01*
X23249500Y1315892D01*
X-7031176Y1315892D01*
X-6999500Y1434108D01*
X-6999500Y1565892D01*
X-7033608Y1693186D01*
X-7033610Y1693189D01*
X-7033610Y1693191D01*
X-7099497Y1807310D01*
X-7099499Y1807312D01*
X-7099500Y1807314D01*
X-7192686Y1900500D01*
X-7192689Y1900502D01*
X-7192691Y1900504D01*
X-7306811Y1966391D01*
X-7306809Y1966391D01*
X-7356201Y1979625D01*
X-7434108Y2000500D01*
X-7565892Y2000500D01*
X-7643800Y1979625D01*
X-7693191Y1966391D01*
X-7807310Y1900504D01*
X-7900504Y1807310D01*
X-7966391Y1693191D01*
X-7977830Y1650500D01*
X-8000500Y1565892D01*
X-21599500Y1565892D01*
X-21599500Y2265892D01*
X6749500Y2265892D01*
X6749500Y2134108D01*
X6779579Y2021849D01*
X6783609Y2006810D01*
X6849496Y1892691D01*
X6849498Y1892689D01*
X6849500Y1892686D01*
X6942686Y1799500D01*
X6942688Y1799499D01*
X6942690Y1799497D01*
X7056810Y1733610D01*
X7056808Y1733610D01*
X7056812Y1733609D01*
X7056814Y1733608D01*
X7184108Y1699500D01*
X7184110Y1699500D01*
X7315890Y1699500D01*
X7315892Y1699500D01*
X7443186Y1733608D01*
X7443188Y1733610D01*
X7443190Y1733610D01*
X7557309Y1799497D01*
X7557309Y1799498D01*
X7557314Y1799500D01*
X7650500Y1892686D01*
X7650503Y1892691D01*
X7716390Y2006810D01*
X7716390Y2006812D01*
X7716392Y2006814D01*
X7750500Y2134108D01*
X7750500Y2265892D01*
X7716392Y2393186D01*
X7716390Y2393189D01*
X7716390Y2393191D01*
X7650503Y2507310D01*
X7650501Y2507312D01*
X7650500Y2507314D01*
X7557314Y2600500D01*
X7557311Y2600502D01*
X7557309Y2600504D01*
X7443189Y2666391D01*
X7443191Y2666391D01*
X7393799Y2679625D01*
X7315892Y2700500D01*
X7184108Y2700500D01*
X7106200Y2679625D01*
X7056809Y2666391D01*
X6942690Y2600504D01*
X6849496Y2507310D01*
X6783609Y2393191D01*
X6783608Y2393186D01*
X6749500Y2265892D01*
X-21599500Y2265892D01*
X-21599500Y3565892D01*
X-10500500Y3565892D01*
X-10500500Y3434108D01*
X-10477829Y3349497D01*
X-10466391Y3306810D01*
X-10400504Y3192691D01*
X-10400502Y3192689D01*
X-10400500Y3192686D01*
X-10307314Y3099500D01*
X-10307312Y3099499D01*
X-10307310Y3099497D01*
X-10193190Y3033610D01*
X-10193192Y3033610D01*
X-10193188Y3033609D01*
X-10193186Y3033608D01*
X-10065892Y2999500D01*
X-10065890Y2999500D01*
X-9934110Y2999500D01*
X-9934108Y2999500D01*
X-9806814Y3033608D01*
X-9806812Y3033610D01*
X-9806810Y3033610D01*
X-9692691Y3099497D01*
X-9692691Y3099498D01*
X-9692686Y3099500D01*
X-9599500Y3192686D01*
X-9533608Y3306814D01*
X-9499500Y3434108D01*
X-9499500Y3565892D01*
X-9533608Y3693186D01*
X-9599500Y3807314D01*
X-9608078Y3815892D01*
X-9000500Y3815892D01*
X-9000500Y3684108D01*
X-8970421Y3571849D01*
X-8966391Y3556810D01*
X-8900504Y3442691D01*
X-8900502Y3442689D01*
X-8900500Y3442686D01*
X-8807314Y3349500D01*
X-8807312Y3349499D01*
X-8807310Y3349497D01*
X-8693190Y3283610D01*
X-8693192Y3283610D01*
X-8693188Y3283609D01*
X-8693186Y3283608D01*
X-8565892Y3249500D01*
X-8565890Y3249500D01*
X-8434110Y3249500D01*
X-8434108Y3249500D01*
X-8306814Y3283608D01*
X-8306812Y3283610D01*
X-8306810Y3283610D01*
X-8192691Y3349497D01*
X-8192691Y3349498D01*
X-8192686Y3349500D01*
X-8099500Y3442686D01*
X-8033608Y3556814D01*
X-7999500Y3684108D01*
X-7999500Y3815892D01*
X-8033608Y3943186D01*
X-8033610Y3943189D01*
X-8033610Y3943191D01*
X-8099497Y4057310D01*
X-8099499Y4057312D01*
X-8099500Y4057314D01*
X-8192686Y4150500D01*
X-8192689Y4150502D01*
X-8192691Y4150504D01*
X-8306811Y4216391D01*
X-8306809Y4216391D01*
X-8356201Y4229625D01*
X-8434108Y4250500D01*
X-8565892Y4250500D01*
X-8643800Y4229625D01*
X-8693191Y4216391D01*
X-8807310Y4150504D01*
X-8900504Y4057310D01*
X-8966391Y3943191D01*
X-8977830Y3900500D01*
X-9000500Y3815892D01*
X-9608078Y3815892D01*
X-9692686Y3900500D01*
X-9692689Y3900502D01*
X-9692691Y3900504D01*
X-9806811Y3966391D01*
X-9806809Y3966391D01*
X-9856201Y3979625D01*
X-9934108Y4000500D01*
X-10065892Y4000500D01*
X-10143800Y3979625D01*
X-10193191Y3966391D01*
X-10307310Y3900504D01*
X-10400504Y3807310D01*
X-10466391Y3693191D01*
X-10485461Y3622022D01*
X-10500500Y3565892D01*
X-21599500Y3565892D01*
X-21599500Y4565892D01*
X-6500500Y4565892D01*
X-6500500Y4434108D01*
X-6477829Y4349497D01*
X-6466391Y4306810D01*
X-6400504Y4192691D01*
X-6400502Y4192689D01*
X-6400500Y4192686D01*
X-6307314Y4099500D01*
X-6307312Y4099499D01*
X-6307310Y4099497D01*
X-6193190Y4033610D01*
X-6193192Y4033610D01*
X-6193188Y4033609D01*
X-6193186Y4033608D01*
X-6065892Y3999500D01*
X-6065890Y3999500D01*
X-5934110Y3999500D01*
X-5934108Y3999500D01*
X-5806814Y4033608D01*
X-5806812Y4033610D01*
X-5806810Y4033610D01*
X-5692691Y4099497D01*
X-5692691Y4099498D01*
X-5692686Y4099500D01*
X-5599500Y4192686D01*
X-5533608Y4306814D01*
X-5531176Y4315892D01*
X249500Y4315892D01*
X249500Y4184108D01*
X272171Y4099497D01*
X283609Y4056810D01*
X349496Y3942691D01*
X349498Y3942689D01*
X349500Y3942686D01*
X442686Y3849500D01*
X442688Y3849499D01*
X442690Y3849497D01*
X556810Y3783610D01*
X556808Y3783610D01*
X556812Y3783609D01*
X556814Y3783608D01*
X684108Y3749500D01*
X684110Y3749500D01*
X815890Y3749500D01*
X815892Y3749500D01*
X943186Y3783608D01*
X943188Y3783610D01*
X943190Y3783610D01*
X1057309Y3849497D01*
X1057309Y3849498D01*
X1057314Y3849500D01*
X1150500Y3942686D01*
X1216392Y4056814D01*
X1250500Y4184108D01*
X1250500Y4315892D01*
X7999500Y4315892D01*
X7999500Y4184108D01*
X8022171Y4099497D01*
X8033609Y4056810D01*
X8099496Y3942691D01*
X8099498Y3942689D01*
X8099500Y3942686D01*
X8192686Y3849500D01*
X8192688Y3849499D01*
X8192690Y3849497D01*
X8306810Y3783610D01*
X8306808Y3783610D01*
X8306812Y3783609D01*
X8306814Y3783608D01*
X8434108Y3749500D01*
X8434110Y3749500D01*
X8565890Y3749500D01*
X8565892Y3749500D01*
X8693186Y3783608D01*
X8693188Y3783610D01*
X8693190Y3783610D01*
X8807309Y3849497D01*
X8807309Y3849498D01*
X8807314Y3849500D01*
X8900500Y3942686D01*
X8966392Y4056814D01*
X9000500Y4184108D01*
X9000500Y4315892D01*
X14749500Y4315892D01*
X14749500Y4184108D01*
X14772171Y4099497D01*
X14783609Y4056810D01*
X14849496Y3942691D01*
X14849498Y3942689D01*
X14849500Y3942686D01*
X14942686Y3849500D01*
X14942688Y3849499D01*
X14942690Y3849497D01*
X15056810Y3783610D01*
X15056808Y3783610D01*
X15056812Y3783609D01*
X15056814Y3783608D01*
X15184108Y3749500D01*
X15184110Y3749500D01*
X15315890Y3749500D01*
X15315892Y3749500D01*
X15443186Y3783608D01*
X15443188Y3783610D01*
X15443190Y3783610D01*
X15557309Y3849497D01*
X15557309Y3849498D01*
X15557314Y3849500D01*
X15650500Y3942686D01*
X15716392Y4056814D01*
X15750500Y4184108D01*
X15750500Y4315892D01*
X15999500Y4315892D01*
X15999500Y4184108D01*
X16022171Y4099497D01*
X16033609Y4056810D01*
X16099496Y3942691D01*
X16099498Y3942689D01*
X16099500Y3942686D01*
X16192686Y3849500D01*
X16192688Y3849499D01*
X16192690Y3849497D01*
X16306810Y3783610D01*
X16306808Y3783610D01*
X16306812Y3783609D01*
X16306814Y3783608D01*
X16434108Y3749500D01*
X16434110Y3749500D01*
X16565890Y3749500D01*
X16565892Y3749500D01*
X16693186Y3783608D01*
X16693188Y3783610D01*
X16693190Y3783610D01*
X16807309Y3849497D01*
X16807309Y3849498D01*
X16807314Y3849500D01*
X16900500Y3942686D01*
X16966392Y4056814D01*
X17000500Y4184108D01*
X17000500Y4315892D01*
X17499500Y4315892D01*
X17499500Y4184108D01*
X17522171Y4099497D01*
X17533609Y4056810D01*
X17599496Y3942691D01*
X17599498Y3942689D01*
X17599500Y3942686D01*
X17692686Y3849500D01*
X17692688Y3849499D01*
X17692690Y3849497D01*
X17806810Y3783610D01*
X17806808Y3783610D01*
X17806812Y3783609D01*
X17806814Y3783608D01*
X17934108Y3749500D01*
X17934110Y3749500D01*
X18065890Y3749500D01*
X18065892Y3749500D01*
X18193186Y3783608D01*
X18193188Y3783610D01*
X18193190Y3783610D01*
X18307309Y3849497D01*
X18307309Y3849498D01*
X18307314Y3849500D01*
X18400500Y3942686D01*
X18466392Y4056814D01*
X18500500Y4184108D01*
X18500500Y4315892D01*
X18466392Y4443186D01*
X18466390Y4443189D01*
X18466390Y4443191D01*
X18400503Y4557310D01*
X18400501Y4557312D01*
X18400500Y4557314D01*
X18307314Y4650500D01*
X18307311Y4650502D01*
X18307309Y4650504D01*
X18193189Y4716391D01*
X18193191Y4716391D01*
X18178722Y4720268D01*
X18065892Y4750500D01*
X17934108Y4750500D01*
X17856200Y4729625D01*
X17806809Y4716391D01*
X17692690Y4650504D01*
X17599496Y4557310D01*
X17533609Y4443191D01*
X17514539Y4372022D01*
X17499500Y4315892D01*
X17000500Y4315892D01*
X16966392Y4443186D01*
X16966390Y4443189D01*
X16966390Y4443191D01*
X16900503Y4557310D01*
X16900501Y4557312D01*
X16900500Y4557314D01*
X16807314Y4650500D01*
X16807311Y4650502D01*
X16807309Y4650504D01*
X16693189Y4716391D01*
X16693191Y4716391D01*
X16643799Y4729625D01*
X16565892Y4750500D01*
X16434108Y4750500D01*
X16356200Y4729625D01*
X16306809Y4716391D01*
X16192690Y4650504D01*
X16099496Y4557310D01*
X16033609Y4443191D01*
X16014539Y4372022D01*
X15999500Y4315892D01*
X15750500Y4315892D01*
X15716392Y4443186D01*
X15716390Y4443189D01*
X15716390Y4443191D01*
X15650503Y4557310D01*
X15650501Y4557312D01*
X15650500Y4557314D01*
X15557314Y4650500D01*
X15557311Y4650502D01*
X15557309Y4650504D01*
X15443189Y4716391D01*
X15443191Y4716391D01*
X15393799Y4729625D01*
X15315892Y4750500D01*
X15184108Y4750500D01*
X15106200Y4729625D01*
X15056809Y4716391D01*
X14942690Y4650504D01*
X14849496Y4557310D01*
X14783609Y4443191D01*
X14764539Y4372022D01*
X14749500Y4315892D01*
X9000500Y4315892D01*
X8966392Y4443186D01*
X8966390Y4443189D01*
X8966390Y4443191D01*
X8900503Y4557310D01*
X8900501Y4557312D01*
X8900500Y4557314D01*
X8807314Y4650500D01*
X8807311Y4650502D01*
X8807309Y4650504D01*
X8693189Y4716391D01*
X8693191Y4716391D01*
X8643799Y4729625D01*
X8565892Y4750500D01*
X8434108Y4750500D01*
X8356200Y4729625D01*
X8306809Y4716391D01*
X8192690Y4650504D01*
X8099496Y4557310D01*
X8033609Y4443191D01*
X8014539Y4372022D01*
X7999500Y4315892D01*
X1250500Y4315892D01*
X1216392Y4443186D01*
X1216390Y4443189D01*
X1216390Y4443191D01*
X1150503Y4557310D01*
X1150501Y4557312D01*
X1150500Y4557314D01*
X1057314Y4650500D01*
X1057311Y4650502D01*
X1057309Y4650504D01*
X943189Y4716391D01*
X943191Y4716391D01*
X893799Y4729625D01*
X815892Y4750500D01*
X684108Y4750500D01*
X606200Y4729625D01*
X556809Y4716391D01*
X442690Y4650504D01*
X349496Y4557310D01*
X283609Y4443191D01*
X264539Y4372022D01*
X249500Y4315892D01*
X-5531176Y4315892D01*
X-5499500Y4434108D01*
X-5499500Y4565892D01*
X-5533608Y4693186D01*
X-5533610Y4693189D01*
X-5533610Y4693191D01*
X-5599497Y4807310D01*
X-5599499Y4807312D01*
X-5599500Y4807314D01*
X-5608078Y4815892D01*
X24749500Y4815892D01*
X24749500Y4684108D01*
X24779579Y4571849D01*
X24783609Y4556810D01*
X24849496Y4442691D01*
X24849498Y4442689D01*
X24849500Y4442686D01*
X24942686Y4349500D01*
X24942688Y4349499D01*
X24942690Y4349497D01*
X25056810Y4283610D01*
X25056808Y4283610D01*
X25056812Y4283609D01*
X25056814Y4283608D01*
X25184108Y4249500D01*
X25184110Y4249500D01*
X25315890Y4249500D01*
X25315892Y4249500D01*
X25443186Y4283608D01*
X25443188Y4283610D01*
X25443190Y4283610D01*
X25557309Y4349497D01*
X25557309Y4349498D01*
X25557314Y4349500D01*
X25650500Y4442686D01*
X25716392Y4556814D01*
X25750500Y4684108D01*
X25750500Y4815892D01*
X30749500Y4815892D01*
X30749500Y4684108D01*
X30779579Y4571849D01*
X30783609Y4556810D01*
X30849496Y4442691D01*
X30849498Y4442689D01*
X30849500Y4442686D01*
X30942686Y4349500D01*
X30942688Y4349499D01*
X30942690Y4349497D01*
X31056810Y4283610D01*
X31056808Y4283610D01*
X31056812Y4283609D01*
X31056814Y4283608D01*
X31184108Y4249500D01*
X31184110Y4249500D01*
X31315890Y4249500D01*
X31315892Y4249500D01*
X31443186Y4283608D01*
X31443188Y4283610D01*
X31443190Y4283610D01*
X31557309Y4349497D01*
X31557309Y4349498D01*
X31557314Y4349500D01*
X31650500Y4442686D01*
X31716392Y4556814D01*
X31750500Y4684108D01*
X31750500Y4815892D01*
X31716392Y4943186D01*
X31716390Y4943189D01*
X31716390Y4943191D01*
X31650503Y5057310D01*
X31650501Y5057312D01*
X31650500Y5057314D01*
X31557314Y5150500D01*
X31557311Y5150502D01*
X31557309Y5150504D01*
X31443189Y5216391D01*
X31443191Y5216391D01*
X31393799Y5229625D01*
X31315892Y5250500D01*
X31184108Y5250500D01*
X31106200Y5229625D01*
X31056809Y5216391D01*
X30942690Y5150504D01*
X30849496Y5057310D01*
X30783609Y4943191D01*
X30772170Y4900500D01*
X30749500Y4815892D01*
X25750500Y4815892D01*
X25716392Y4943186D01*
X25716390Y4943189D01*
X25716390Y4943191D01*
X25650503Y5057310D01*
X25650501Y5057312D01*
X25650500Y5057314D01*
X25557314Y5150500D01*
X25557311Y5150502D01*
X25557309Y5150504D01*
X25443189Y5216391D01*
X25443191Y5216391D01*
X25393799Y5229625D01*
X25315892Y5250500D01*
X25184108Y5250500D01*
X25106200Y5229625D01*
X25056809Y5216391D01*
X24942690Y5150504D01*
X24849496Y5057310D01*
X24783609Y4943191D01*
X24772170Y4900500D01*
X24749500Y4815892D01*
X-5608078Y4815892D01*
X-5647705Y4855519D01*
X-5675480Y4910033D01*
X-5665909Y4970465D01*
X-5622644Y5013730D01*
X-5603328Y5021145D01*
X-5556814Y5033608D01*
X-5556812Y5033610D01*
X-5556810Y5033610D01*
X-5442691Y5099497D01*
X-5442691Y5099498D01*
X-5442686Y5099500D01*
X-5349500Y5192686D01*
X-5283608Y5306814D01*
X-5249500Y5434108D01*
X-5249500Y5565892D01*
X-5283608Y5693186D01*
X-5349500Y5807314D01*
X-5358078Y5815892D01*
X4749500Y5815892D01*
X4749500Y5684108D01*
X4779579Y5571849D01*
X4783609Y5556810D01*
X4849496Y5442691D01*
X4849498Y5442689D01*
X4849500Y5442686D01*
X4942686Y5349500D01*
X4942688Y5349499D01*
X4942690Y5349497D01*
X5056810Y5283610D01*
X5056808Y5283610D01*
X5056812Y5283609D01*
X5056814Y5283608D01*
X5184108Y5249500D01*
X5184110Y5249500D01*
X5315890Y5249500D01*
X5315892Y5249500D01*
X5443186Y5283608D01*
X5443188Y5283610D01*
X5443190Y5283610D01*
X5557309Y5349497D01*
X5557309Y5349498D01*
X5557314Y5349500D01*
X5650500Y5442686D01*
X5716392Y5556814D01*
X5750500Y5684108D01*
X5750500Y5815892D01*
X5716392Y5943186D01*
X5716390Y5943189D01*
X5716390Y5943191D01*
X5650503Y6057310D01*
X5650501Y6057312D01*
X5650500Y6057314D01*
X5557314Y6150500D01*
X5557311Y6150502D01*
X5557309Y6150504D01*
X5443189Y6216391D01*
X5443191Y6216391D01*
X5428722Y6220268D01*
X5315892Y6250500D01*
X5184108Y6250500D01*
X5106200Y6229625D01*
X5056809Y6216391D01*
X4942690Y6150504D01*
X4849496Y6057310D01*
X4783609Y5943191D01*
X4772170Y5900500D01*
X4749500Y5815892D01*
X-5358078Y5815892D01*
X-5442686Y5900500D01*
X-5442689Y5900502D01*
X-5442691Y5900504D01*
X-5556811Y5966391D01*
X-5556809Y5966391D01*
X-5606201Y5979625D01*
X-5684108Y6000500D01*
X-5815892Y6000500D01*
X-5893800Y5979625D01*
X-5943191Y5966391D01*
X-6057310Y5900504D01*
X-6150504Y5807310D01*
X-6216391Y5693191D01*
X-6235461Y5622022D01*
X-6250500Y5565892D01*
X-6250500Y5434108D01*
X-6227829Y5349497D01*
X-6216391Y5306810D01*
X-6150504Y5192691D01*
X-6150502Y5192689D01*
X-6150500Y5192686D01*
X-6102297Y5144483D01*
X-6074521Y5089968D01*
X-6084092Y5029536D01*
X-6127357Y4986271D01*
X-6146677Y4978855D01*
X-6193188Y4966392D01*
X-6193190Y4966391D01*
X-6307310Y4900504D01*
X-6400504Y4807310D01*
X-6466391Y4693191D01*
X-6477830Y4650500D01*
X-6500500Y4565892D01*
X-21599500Y4565892D01*
X-21599500Y6565892D01*
X-5500500Y6565892D01*
X-5500500Y6434108D01*
X-5470421Y6321849D01*
X-5466391Y6306810D01*
X-5400504Y6192691D01*
X-5400502Y6192689D01*
X-5400500Y6192686D01*
X-5307314Y6099500D01*
X-5307312Y6099499D01*
X-5307310Y6099497D01*
X-5193190Y6033610D01*
X-5193192Y6033610D01*
X-5193188Y6033609D01*
X-5193186Y6033608D01*
X-5065892Y5999500D01*
X-5065890Y5999500D01*
X-4934110Y5999500D01*
X-4934108Y5999500D01*
X-4806814Y6033608D01*
X-4806812Y6033610D01*
X-4806810Y6033610D01*
X-4692691Y6099497D01*
X-4692691Y6099498D01*
X-4692686Y6099500D01*
X-4599500Y6192686D01*
X-4533608Y6306814D01*
X-4531176Y6315892D01*
X24749500Y6315892D01*
X24749500Y6184108D01*
X24772171Y6099497D01*
X24783609Y6056810D01*
X24849496Y5942691D01*
X24849498Y5942689D01*
X24849500Y5942686D01*
X24942686Y5849500D01*
X24942688Y5849499D01*
X24942690Y5849497D01*
X25056810Y5783610D01*
X25056808Y5783610D01*
X25056812Y5783609D01*
X25056814Y5783608D01*
X25184108Y5749500D01*
X25184110Y5749500D01*
X25315890Y5749500D01*
X25315892Y5749500D01*
X25443186Y5783608D01*
X25443188Y5783610D01*
X25443190Y5783610D01*
X25557309Y5849497D01*
X25557309Y5849498D01*
X25557314Y5849500D01*
X25650500Y5942686D01*
X25716392Y6056814D01*
X25750500Y6184108D01*
X25750500Y6315892D01*
X30749500Y6315892D01*
X30749500Y6184108D01*
X30772171Y6099497D01*
X30783609Y6056810D01*
X30849496Y5942691D01*
X30849498Y5942689D01*
X30849500Y5942686D01*
X30942686Y5849500D01*
X30942688Y5849499D01*
X30942690Y5849497D01*
X31056810Y5783610D01*
X31056808Y5783610D01*
X31056812Y5783609D01*
X31056814Y5783608D01*
X31184108Y5749500D01*
X31184110Y5749500D01*
X31315890Y5749500D01*
X31315892Y5749500D01*
X31443186Y5783608D01*
X31443188Y5783610D01*
X31443190Y5783610D01*
X31557309Y5849497D01*
X31557309Y5849498D01*
X31557314Y5849500D01*
X31650500Y5942686D01*
X31716392Y6056814D01*
X31750500Y6184108D01*
X31750500Y6315892D01*
X31716392Y6443186D01*
X31716390Y6443189D01*
X31716390Y6443191D01*
X31650503Y6557310D01*
X31650501Y6557312D01*
X31650500Y6557314D01*
X31557314Y6650500D01*
X31557311Y6650502D01*
X31557309Y6650504D01*
X31443189Y6716391D01*
X31443191Y6716391D01*
X31393799Y6729625D01*
X31315892Y6750500D01*
X31184108Y6750500D01*
X31106200Y6729625D01*
X31056809Y6716391D01*
X30942690Y6650504D01*
X30849496Y6557310D01*
X30783609Y6443191D01*
X30764539Y6372022D01*
X30749500Y6315892D01*
X25750500Y6315892D01*
X25716392Y6443186D01*
X25716390Y6443189D01*
X25716390Y6443191D01*
X25650503Y6557310D01*
X25650501Y6557312D01*
X25650500Y6557314D01*
X25557314Y6650500D01*
X25557311Y6650502D01*
X25557309Y6650504D01*
X25443189Y6716391D01*
X25443191Y6716391D01*
X25393799Y6729625D01*
X25315892Y6750500D01*
X25184108Y6750500D01*
X25106200Y6729625D01*
X25056809Y6716391D01*
X24942690Y6650504D01*
X24849496Y6557310D01*
X24783609Y6443191D01*
X24764539Y6372022D01*
X24749500Y6315892D01*
X-4531176Y6315892D01*
X-4499500Y6434108D01*
X-4499500Y6565892D01*
X-4533608Y6693186D01*
X-4533610Y6693189D01*
X-4533610Y6693191D01*
X-4599497Y6807310D01*
X-4599499Y6807312D01*
X-4599500Y6807314D01*
X-4692686Y6900500D01*
X-4692689Y6900502D01*
X-4692691Y6900504D01*
X-4806811Y6966391D01*
X-4806809Y6966391D01*
X-4858548Y6980254D01*
X-4934108Y7000500D01*
X-5065892Y7000500D01*
X-5141452Y6980254D01*
X-5193191Y6966391D01*
X-5307310Y6900504D01*
X-5400504Y6807310D01*
X-5466391Y6693191D01*
X-5477830Y6650500D01*
X-5500500Y6565892D01*
X-21599500Y6565892D01*
X-21599500Y9019747D01*
X-18990500Y9019747D01*
X-18990500Y6980254D01*
X-18990499Y6980242D01*
X-18978868Y6921773D01*
X-18978866Y6921767D01*
X-18934555Y6855452D01*
X-18934552Y6855448D01*
X-18868231Y6811133D01*
X-18823769Y6802289D01*
X-18809759Y6799502D01*
X-18809754Y6799502D01*
X-18809748Y6799500D01*
X-18809747Y6799500D01*
X-16770253Y6799500D01*
X-16770252Y6799500D01*
X-16711769Y6811133D01*
X-16645448Y6855448D01*
X-16601133Y6921769D01*
X-16589500Y6980252D01*
X-16589500Y7612595D01*
X-16570593Y7670786D01*
X-16521093Y7706750D01*
X-16459907Y7706750D01*
X-16410407Y7670786D01*
X-16396345Y7643188D01*
X-16362547Y7539168D01*
X-16313645Y7443191D01*
X-16276760Y7370801D01*
X-16165690Y7217927D01*
X-16032073Y7084310D01*
X-15879199Y6973240D01*
X-15710832Y6887453D01*
X-15531118Y6829060D01*
X-15531117Y6829060D01*
X-15531114Y6829059D01*
X-15344484Y6799500D01*
X-15344481Y6799500D01*
X-15155516Y6799500D01*
X-14968887Y6829059D01*
X-14968886Y6829060D01*
X-14968882Y6829060D01*
X-14789168Y6887453D01*
X-14620801Y6973240D01*
X-14467927Y7084310D01*
X-14334310Y7217927D01*
X-14263134Y7315892D01*
X-3750500Y7315892D01*
X-3750500Y7184108D01*
X-3723759Y7084310D01*
X-3716391Y7056810D01*
X-3650504Y6942691D01*
X-3650502Y6942689D01*
X-3650500Y6942686D01*
X-3557314Y6849500D01*
X-3557312Y6849499D01*
X-3557310Y6849497D01*
X-3443190Y6783610D01*
X-3443192Y6783610D01*
X-3443188Y6783609D01*
X-3443186Y6783608D01*
X-3315892Y6749500D01*
X-3315890Y6749500D01*
X-3184110Y6749500D01*
X-3184108Y6749500D01*
X-3056814Y6783608D01*
X-3056812Y6783610D01*
X-3056810Y6783610D01*
X-2942691Y6849497D01*
X-2942691Y6849498D01*
X-2942686Y6849500D01*
X-2849500Y6942686D01*
X-2831860Y6973239D01*
X-2783610Y7056810D01*
X-2783610Y7056812D01*
X-2783608Y7056814D01*
X-2749500Y7184108D01*
X-2749500Y7315892D01*
X-2783608Y7443186D01*
X-2783610Y7443189D01*
X-2783610Y7443191D01*
X-2849497Y7557310D01*
X-2849499Y7557312D01*
X-2849500Y7557314D01*
X-2942686Y7650500D01*
X-2942689Y7650502D01*
X-2942691Y7650504D01*
X-3056811Y7716391D01*
X-3056809Y7716391D01*
X-3071278Y7720268D01*
X-3184108Y7750500D01*
X-3315892Y7750500D01*
X-3393800Y7729625D01*
X-3443191Y7716391D01*
X-3557310Y7650504D01*
X-3650504Y7557310D01*
X-3716391Y7443191D01*
X-3716392Y7443186D01*
X-3750500Y7315892D01*
X-14263134Y7315892D01*
X-14223240Y7370801D01*
X-14137453Y7539168D01*
X-14079060Y7718882D01*
X-14063695Y7815892D01*
X4249500Y7815892D01*
X4249500Y7684108D01*
X4268662Y7612595D01*
X4283609Y7556810D01*
X4349496Y7442691D01*
X4349498Y7442689D01*
X4349500Y7442686D01*
X4442686Y7349500D01*
X4442688Y7349499D01*
X4442690Y7349497D01*
X4556810Y7283610D01*
X4556808Y7283610D01*
X4556812Y7283609D01*
X4556814Y7283608D01*
X4684108Y7249500D01*
X4684110Y7249500D01*
X4815890Y7249500D01*
X4815892Y7249500D01*
X4943186Y7283608D01*
X4943188Y7283610D01*
X4943190Y7283610D01*
X5057309Y7349497D01*
X5057309Y7349498D01*
X5057314Y7349500D01*
X5150500Y7442686D01*
X5216392Y7556814D01*
X5250500Y7684108D01*
X5250500Y7815892D01*
X24749500Y7815892D01*
X24749500Y7684108D01*
X24768662Y7612595D01*
X24783609Y7556810D01*
X24849496Y7442691D01*
X24849498Y7442689D01*
X24849500Y7442686D01*
X24942686Y7349500D01*
X24942688Y7349499D01*
X24942690Y7349497D01*
X25056810Y7283610D01*
X25056808Y7283610D01*
X25056812Y7283609D01*
X25056814Y7283608D01*
X25184108Y7249500D01*
X25184110Y7249500D01*
X25315890Y7249500D01*
X25315892Y7249500D01*
X25443186Y7283608D01*
X25443188Y7283610D01*
X25443190Y7283610D01*
X25557309Y7349497D01*
X25557309Y7349498D01*
X25557314Y7349500D01*
X25650500Y7442686D01*
X25716392Y7556814D01*
X25750500Y7684108D01*
X25750500Y7815892D01*
X26249500Y7815892D01*
X26249500Y7684108D01*
X26268662Y7612595D01*
X26283609Y7556810D01*
X26349496Y7442691D01*
X26349498Y7442689D01*
X26349500Y7442686D01*
X26442686Y7349500D01*
X26442688Y7349499D01*
X26442690Y7349497D01*
X26556810Y7283610D01*
X26556808Y7283610D01*
X26556812Y7283609D01*
X26556814Y7283608D01*
X26684108Y7249500D01*
X26684110Y7249500D01*
X26815890Y7249500D01*
X26815892Y7249500D01*
X26943186Y7283608D01*
X26943188Y7283610D01*
X26943190Y7283610D01*
X27057309Y7349497D01*
X27057309Y7349498D01*
X27057314Y7349500D01*
X27150500Y7442686D01*
X27216392Y7556814D01*
X27250500Y7684108D01*
X27250500Y7815892D01*
X27749500Y7815892D01*
X27749500Y7684108D01*
X27768662Y7612595D01*
X27783609Y7556810D01*
X27849496Y7442691D01*
X27849498Y7442689D01*
X27849500Y7442686D01*
X27942686Y7349500D01*
X27942688Y7349499D01*
X27942690Y7349497D01*
X28056810Y7283610D01*
X28056808Y7283610D01*
X28056812Y7283609D01*
X28056814Y7283608D01*
X28184108Y7249500D01*
X28184110Y7249500D01*
X28315890Y7249500D01*
X28315892Y7249500D01*
X28443186Y7283608D01*
X28443188Y7283610D01*
X28443190Y7283610D01*
X28557309Y7349497D01*
X28557309Y7349498D01*
X28557314Y7349500D01*
X28650500Y7442686D01*
X28716392Y7556814D01*
X28750500Y7684108D01*
X28750500Y7815892D01*
X29249500Y7815892D01*
X29249500Y7684108D01*
X29268662Y7612595D01*
X29283609Y7556810D01*
X29349496Y7442691D01*
X29349498Y7442689D01*
X29349500Y7442686D01*
X29442686Y7349500D01*
X29442688Y7349499D01*
X29442690Y7349497D01*
X29556810Y7283610D01*
X29556808Y7283610D01*
X29556812Y7283609D01*
X29556814Y7283608D01*
X29684108Y7249500D01*
X29684110Y7249500D01*
X29815890Y7249500D01*
X29815892Y7249500D01*
X29943186Y7283608D01*
X29943188Y7283610D01*
X29943190Y7283610D01*
X30057309Y7349497D01*
X30057309Y7349498D01*
X30057314Y7349500D01*
X30150500Y7442686D01*
X30216392Y7556814D01*
X30250500Y7684108D01*
X30250500Y7815892D01*
X30749500Y7815892D01*
X30749500Y7684108D01*
X30768662Y7612595D01*
X30783609Y7556810D01*
X30849496Y7442691D01*
X30849498Y7442689D01*
X30849500Y7442686D01*
X30942686Y7349500D01*
X30942688Y7349499D01*
X30942690Y7349497D01*
X31056810Y7283610D01*
X31056808Y7283610D01*
X31056812Y7283609D01*
X31056814Y7283608D01*
X31184108Y7249500D01*
X31184110Y7249500D01*
X31315890Y7249500D01*
X31315892Y7249500D01*
X31443186Y7283608D01*
X31443188Y7283610D01*
X31443190Y7283610D01*
X31557309Y7349497D01*
X31557309Y7349498D01*
X31557314Y7349500D01*
X31650500Y7442686D01*
X31716392Y7556814D01*
X31750500Y7684108D01*
X31750500Y7815892D01*
X31716392Y7943186D01*
X31716390Y7943189D01*
X31716390Y7943191D01*
X31650503Y8057310D01*
X31650501Y8057312D01*
X31650500Y8057314D01*
X31557314Y8150500D01*
X31557311Y8150502D01*
X31557309Y8150504D01*
X31443189Y8216391D01*
X31443191Y8216391D01*
X31393799Y8229625D01*
X31315892Y8250500D01*
X31184108Y8250500D01*
X31106200Y8229625D01*
X31056809Y8216391D01*
X30942690Y8150504D01*
X30849496Y8057310D01*
X30783609Y7943191D01*
X30783608Y7943186D01*
X30749500Y7815892D01*
X30250500Y7815892D01*
X30216392Y7943186D01*
X30216390Y7943189D01*
X30216390Y7943191D01*
X30150503Y8057310D01*
X30150501Y8057312D01*
X30150500Y8057314D01*
X30057314Y8150500D01*
X30057311Y8150502D01*
X30057309Y8150504D01*
X29943189Y8216391D01*
X29943191Y8216391D01*
X29893799Y8229625D01*
X29815892Y8250500D01*
X29684108Y8250500D01*
X29606200Y8229625D01*
X29556809Y8216391D01*
X29442690Y8150504D01*
X29349496Y8057310D01*
X29283609Y7943191D01*
X29283608Y7943186D01*
X29249500Y7815892D01*
X28750500Y7815892D01*
X28716392Y7943186D01*
X28716390Y7943189D01*
X28716390Y7943191D01*
X28650503Y8057310D01*
X28650501Y8057312D01*
X28650500Y8057314D01*
X28557314Y8150500D01*
X28557311Y8150502D01*
X28557309Y8150504D01*
X28443189Y8216391D01*
X28443191Y8216391D01*
X28393799Y8229625D01*
X28315892Y8250500D01*
X28184108Y8250500D01*
X28106200Y8229625D01*
X28056809Y8216391D01*
X27942690Y8150504D01*
X27849496Y8057310D01*
X27783609Y7943191D01*
X27783608Y7943186D01*
X27749500Y7815892D01*
X27250500Y7815892D01*
X27216392Y7943186D01*
X27216390Y7943189D01*
X27216390Y7943191D01*
X27150503Y8057310D01*
X27150501Y8057312D01*
X27150500Y8057314D01*
X27057314Y8150500D01*
X27057311Y8150502D01*
X27057309Y8150504D01*
X26943189Y8216391D01*
X26943191Y8216391D01*
X26893799Y8229625D01*
X26815892Y8250500D01*
X26684108Y8250500D01*
X26606200Y8229625D01*
X26556809Y8216391D01*
X26442690Y8150504D01*
X26349496Y8057310D01*
X26283609Y7943191D01*
X26283608Y7943186D01*
X26249500Y7815892D01*
X25750500Y7815892D01*
X25716392Y7943186D01*
X25716390Y7943189D01*
X25716390Y7943191D01*
X25650503Y8057310D01*
X25650501Y8057312D01*
X25650500Y8057314D01*
X25557314Y8150500D01*
X25557311Y8150502D01*
X25557309Y8150504D01*
X25443189Y8216391D01*
X25443191Y8216391D01*
X25393799Y8229625D01*
X25315892Y8250500D01*
X25184108Y8250500D01*
X25106200Y8229625D01*
X25056809Y8216391D01*
X24942690Y8150504D01*
X24849496Y8057310D01*
X24783609Y7943191D01*
X24783608Y7943186D01*
X24749500Y7815892D01*
X5250500Y7815892D01*
X5216392Y7943186D01*
X5216390Y7943189D01*
X5216390Y7943191D01*
X5150503Y8057310D01*
X5150501Y8057312D01*
X5150500Y8057314D01*
X5057314Y8150500D01*
X5057311Y8150502D01*
X5057309Y8150504D01*
X4943189Y8216391D01*
X4943191Y8216391D01*
X4893799Y8229625D01*
X4815892Y8250500D01*
X4684108Y8250500D01*
X4606200Y8229625D01*
X4556809Y8216391D01*
X4442690Y8150504D01*
X4349496Y8057310D01*
X4283609Y7943191D01*
X4283608Y7943186D01*
X4249500Y7815892D01*
X-14063695Y7815892D01*
X-14049500Y7905519D01*
X-14049500Y8094481D01*
X-14049500Y8094485D01*
X-14079059Y8281114D01*
X-14081428Y8288406D01*
X-14137453Y8460832D01*
X-14223240Y8629199D01*
X-14334310Y8782073D01*
X-14467927Y8915690D01*
X-14620801Y9026760D01*
X-14620802Y9026761D01*
X-14620804Y9026762D01*
X-14789168Y9112547D01*
X-14968887Y9170942D01*
X-15155516Y9200500D01*
X-15155519Y9200500D01*
X-15344481Y9200500D01*
X-15344484Y9200500D01*
X-15531114Y9170942D01*
X-15710833Y9112547D01*
X-15879197Y9026762D01*
X-16032072Y8915691D01*
X-16165691Y8782072D01*
X-16276762Y8629197D01*
X-16362547Y8460833D01*
X-16396345Y8356813D01*
X-16432309Y8307313D01*
X-16490500Y8288406D01*
X-16548691Y8307313D01*
X-16584655Y8356814D01*
X-16589500Y8387406D01*
X-16589500Y9019747D01*
X-16589502Y9019759D01*
X-16596873Y9056814D01*
X-16601133Y9078231D01*
X-16645448Y9144552D01*
X-16645452Y9144555D01*
X-16711767Y9188866D01*
X-16711769Y9188867D01*
X-16711772Y9188868D01*
X-16711773Y9188868D01*
X-16770242Y9200499D01*
X-16770252Y9200500D01*
X-18809748Y9200500D01*
X-18809749Y9200500D01*
X-18809759Y9200499D01*
X-18868228Y9188868D01*
X-18868234Y9188866D01*
X-18934549Y9144555D01*
X-18934555Y9144549D01*
X-18978866Y9078234D01*
X-18978868Y9078228D01*
X-18990499Y9019759D01*
X-18990500Y9019747D01*
X-21599500Y9019747D01*
X-21599500Y10315892D01*
X-11000500Y10315892D01*
X-11000500Y10184108D01*
X-10970421Y10071849D01*
X-10966391Y10056810D01*
X-10900504Y9942691D01*
X-10900502Y9942689D01*
X-10900500Y9942686D01*
X-10807314Y9849500D01*
X-10807312Y9849499D01*
X-10783475Y9835736D01*
X-10742535Y9790266D01*
X-10736140Y9729416D01*
X-10766733Y9676428D01*
X-10783475Y9664264D01*
X-10807312Y9650502D01*
X-10900504Y9557310D01*
X-10966391Y9443191D01*
X-10966392Y9443186D01*
X-11000500Y9315892D01*
X-11000500Y9184108D01*
X-10989902Y9144555D01*
X-10966391Y9056810D01*
X-10900504Y8942691D01*
X-10900502Y8942689D01*
X-10900500Y8942686D01*
X-10807314Y8849500D01*
X-10807312Y8849499D01*
X-10807310Y8849497D01*
X-10693190Y8783610D01*
X-10693192Y8783610D01*
X-10693188Y8783609D01*
X-10693186Y8783608D01*
X-10565892Y8749500D01*
X-10565890Y8749500D01*
X-10434110Y8749500D01*
X-10434108Y8749500D01*
X-10306814Y8783608D01*
X-10306812Y8783610D01*
X-10306810Y8783610D01*
X-10192691Y8849497D01*
X-10192691Y8849498D01*
X-10192686Y8849500D01*
X-10099500Y8942686D01*
X-10099497Y8942691D01*
X-10033610Y9056810D01*
X-10033610Y9056812D01*
X-10033608Y9056814D01*
X-9999500Y9184108D01*
X-9999500Y9315892D01*
X24749500Y9315892D01*
X24749500Y9184108D01*
X24760098Y9144555D01*
X24783609Y9056810D01*
X24849496Y8942691D01*
X24849498Y8942689D01*
X24849500Y8942686D01*
X24942686Y8849500D01*
X24942688Y8849499D01*
X24942690Y8849497D01*
X25056810Y8783610D01*
X25056808Y8783610D01*
X25056812Y8783609D01*
X25056814Y8783608D01*
X25184108Y8749500D01*
X25184110Y8749500D01*
X25315890Y8749500D01*
X25315892Y8749500D01*
X25443186Y8783608D01*
X25443188Y8783610D01*
X25443190Y8783610D01*
X25557309Y8849497D01*
X25557309Y8849498D01*
X25557314Y8849500D01*
X25650500Y8942686D01*
X25650503Y8942691D01*
X25716390Y9056810D01*
X25716390Y9056812D01*
X25716392Y9056814D01*
X25750500Y9184108D01*
X25750500Y9315892D01*
X26249500Y9315892D01*
X26249500Y9184108D01*
X26260098Y9144555D01*
X26283609Y9056810D01*
X26349496Y8942691D01*
X26349498Y8942689D01*
X26349500Y8942686D01*
X26442686Y8849500D01*
X26442688Y8849499D01*
X26442690Y8849497D01*
X26556810Y8783610D01*
X26556808Y8783610D01*
X26556812Y8783609D01*
X26556814Y8783608D01*
X26684108Y8749500D01*
X26684110Y8749500D01*
X26815890Y8749500D01*
X26815892Y8749500D01*
X26943186Y8783608D01*
X26943188Y8783610D01*
X26943190Y8783610D01*
X27057309Y8849497D01*
X27057309Y8849498D01*
X27057314Y8849500D01*
X27150500Y8942686D01*
X27150503Y8942691D01*
X27216390Y9056810D01*
X27216390Y9056812D01*
X27216392Y9056814D01*
X27250500Y9184108D01*
X27250500Y9315892D01*
X27749500Y9315892D01*
X27749500Y9184108D01*
X27760098Y9144555D01*
X27783609Y9056810D01*
X27849496Y8942691D01*
X27849498Y8942689D01*
X27849500Y8942686D01*
X27942686Y8849500D01*
X27942688Y8849499D01*
X27942690Y8849497D01*
X28056810Y8783610D01*
X28056808Y8783610D01*
X28056812Y8783609D01*
X28056814Y8783608D01*
X28184108Y8749500D01*
X28184110Y8749500D01*
X28315890Y8749500D01*
X28315892Y8749500D01*
X28443186Y8783608D01*
X28443188Y8783610D01*
X28443190Y8783610D01*
X28557309Y8849497D01*
X28557309Y8849498D01*
X28557314Y8849500D01*
X28650500Y8942686D01*
X28650503Y8942691D01*
X28716390Y9056810D01*
X28716390Y9056812D01*
X28716392Y9056814D01*
X28750500Y9184108D01*
X28750500Y9315892D01*
X29249500Y9315892D01*
X29249500Y9184108D01*
X29260098Y9144555D01*
X29283609Y9056810D01*
X29349496Y8942691D01*
X29349498Y8942689D01*
X29349500Y8942686D01*
X29442686Y8849500D01*
X29442688Y8849499D01*
X29442690Y8849497D01*
X29556810Y8783610D01*
X29556808Y8783610D01*
X29556812Y8783609D01*
X29556814Y8783608D01*
X29684108Y8749500D01*
X29684110Y8749500D01*
X29815890Y8749500D01*
X29815892Y8749500D01*
X29943186Y8783608D01*
X29943188Y8783610D01*
X29943190Y8783610D01*
X30057309Y8849497D01*
X30057309Y8849498D01*
X30057314Y8849500D01*
X30150500Y8942686D01*
X30150503Y8942691D01*
X30216390Y9056810D01*
X30216390Y9056812D01*
X30216392Y9056814D01*
X30250500Y9184108D01*
X30250500Y9315892D01*
X30216392Y9443186D01*
X30216390Y9443189D01*
X30216390Y9443191D01*
X30150503Y9557310D01*
X30150501Y9557312D01*
X30150500Y9557314D01*
X30057314Y9650500D01*
X30057311Y9650502D01*
X30057309Y9650504D01*
X29943189Y9716391D01*
X29943191Y9716391D01*
X29893799Y9729625D01*
X29815892Y9750500D01*
X29684108Y9750500D01*
X29606200Y9729625D01*
X29556809Y9716391D01*
X29442690Y9650504D01*
X29349496Y9557310D01*
X29283609Y9443191D01*
X29283608Y9443186D01*
X29249500Y9315892D01*
X28750500Y9315892D01*
X28716392Y9443186D01*
X28716390Y9443189D01*
X28716390Y9443191D01*
X28650503Y9557310D01*
X28650501Y9557312D01*
X28650500Y9557314D01*
X28557314Y9650500D01*
X28557311Y9650502D01*
X28557309Y9650504D01*
X28443189Y9716391D01*
X28443191Y9716391D01*
X28393799Y9729625D01*
X28315892Y9750500D01*
X28184108Y9750500D01*
X28106200Y9729625D01*
X28056809Y9716391D01*
X27942690Y9650504D01*
X27849496Y9557310D01*
X27783609Y9443191D01*
X27783608Y9443186D01*
X27749500Y9315892D01*
X27250500Y9315892D01*
X27216392Y9443186D01*
X27216390Y9443189D01*
X27216390Y9443191D01*
X27150503Y9557310D01*
X27150501Y9557312D01*
X27150500Y9557314D01*
X27057314Y9650500D01*
X27057311Y9650502D01*
X27057309Y9650504D01*
X26943189Y9716391D01*
X26943191Y9716391D01*
X26893799Y9729625D01*
X26815892Y9750500D01*
X26684108Y9750500D01*
X26606200Y9729625D01*
X26556809Y9716391D01*
X26442690Y9650504D01*
X26349496Y9557310D01*
X26283609Y9443191D01*
X26283608Y9443186D01*
X26249500Y9315892D01*
X25750500Y9315892D01*
X25716392Y9443186D01*
X25716390Y9443189D01*
X25716390Y9443191D01*
X25650503Y9557310D01*
X25650501Y9557312D01*
X25650500Y9557314D01*
X25557314Y9650500D01*
X25557311Y9650502D01*
X25557309Y9650504D01*
X25443189Y9716391D01*
X25443191Y9716391D01*
X25393799Y9729625D01*
X25315892Y9750500D01*
X25184108Y9750500D01*
X25106200Y9729625D01*
X25056809Y9716391D01*
X24942690Y9650504D01*
X24849496Y9557310D01*
X24783609Y9443191D01*
X24783608Y9443186D01*
X24749500Y9315892D01*
X-9999500Y9315892D01*
X-10033608Y9443186D01*
X-10033610Y9443189D01*
X-10033610Y9443191D01*
X-10099497Y9557310D01*
X-10099499Y9557312D01*
X-10099500Y9557314D01*
X-10192686Y9650500D01*
X-10216526Y9664265D01*
X-10257466Y9709733D01*
X-10263862Y9770583D01*
X-10233269Y9823571D01*
X-10216526Y9835736D01*
X-10192686Y9849500D01*
X-10099500Y9942686D01*
X-10033608Y10056814D01*
X-9999500Y10184108D01*
X-9999500Y10315892D01*
X-10033608Y10443186D01*
X-10033610Y10443189D01*
X-10033610Y10443191D01*
X-10099497Y10557310D01*
X-10099499Y10557312D01*
X-10099500Y10557314D01*
X-10192686Y10650500D01*
X-10192689Y10650502D01*
X-10192691Y10650504D01*
X-10306811Y10716391D01*
X-10306809Y10716391D01*
X-10321278Y10720268D01*
X-10434108Y10750500D01*
X-10565892Y10750500D01*
X-10643800Y10729625D01*
X-10693191Y10716391D01*
X-10807310Y10650504D01*
X-10900504Y10557310D01*
X-10966391Y10443191D01*
X-10966392Y10443186D01*
X-11000500Y10315892D01*
X-21599500Y10315892D01*
X-21599500Y10815892D01*
X24749500Y10815892D01*
X24749500Y10684108D01*
X24779579Y10571849D01*
X24783609Y10556810D01*
X24849496Y10442691D01*
X24849498Y10442689D01*
X24849500Y10442686D01*
X24942686Y10349500D01*
X24942688Y10349499D01*
X24942690Y10349497D01*
X25056810Y10283610D01*
X25056808Y10283610D01*
X25056812Y10283609D01*
X25056814Y10283608D01*
X25184108Y10249500D01*
X25184110Y10249500D01*
X25315890Y10249500D01*
X25315892Y10249500D01*
X25443186Y10283608D01*
X25443188Y10283610D01*
X25443190Y10283610D01*
X25557309Y10349497D01*
X25557309Y10349498D01*
X25557314Y10349500D01*
X25650500Y10442686D01*
X25716392Y10556814D01*
X25750500Y10684108D01*
X25750500Y10815892D01*
X26249500Y10815892D01*
X26249500Y10684108D01*
X26279579Y10571849D01*
X26283609Y10556810D01*
X26349496Y10442691D01*
X26349498Y10442689D01*
X26349500Y10442686D01*
X26442686Y10349500D01*
X26442688Y10349499D01*
X26442690Y10349497D01*
X26556810Y10283610D01*
X26556808Y10283610D01*
X26556812Y10283609D01*
X26556814Y10283608D01*
X26684108Y10249500D01*
X26684110Y10249500D01*
X26815890Y10249500D01*
X26815892Y10249500D01*
X26943186Y10283608D01*
X26943188Y10283610D01*
X26943190Y10283610D01*
X27057309Y10349497D01*
X27057309Y10349498D01*
X27057314Y10349500D01*
X27150500Y10442686D01*
X27216392Y10556814D01*
X27250500Y10684108D01*
X27250500Y10815892D01*
X27749500Y10815892D01*
X27749500Y10684108D01*
X27779579Y10571849D01*
X27783609Y10556810D01*
X27849496Y10442691D01*
X27849498Y10442689D01*
X27849500Y10442686D01*
X27942686Y10349500D01*
X27942688Y10349499D01*
X27942690Y10349497D01*
X28056810Y10283610D01*
X28056808Y10283610D01*
X28056812Y10283609D01*
X28056814Y10283608D01*
X28184108Y10249500D01*
X28184110Y10249500D01*
X28315890Y10249500D01*
X28315892Y10249500D01*
X28443186Y10283608D01*
X28443188Y10283610D01*
X28443190Y10283610D01*
X28557309Y10349497D01*
X28557309Y10349498D01*
X28557314Y10349500D01*
X28650500Y10442686D01*
X28716392Y10556814D01*
X28750500Y10684108D01*
X28750500Y10815892D01*
X28716392Y10943186D01*
X28716390Y10943189D01*
X28716390Y10943191D01*
X28650503Y11057310D01*
X28650501Y11057312D01*
X28650500Y11057314D01*
X28557314Y11150500D01*
X28557311Y11150502D01*
X28557309Y11150504D01*
X28443189Y11216391D01*
X28443191Y11216391D01*
X28393799Y11229625D01*
X28315892Y11250500D01*
X28184108Y11250500D01*
X28106200Y11229625D01*
X28056809Y11216391D01*
X27942690Y11150504D01*
X27849496Y11057310D01*
X27783609Y10943191D01*
X27783608Y10943186D01*
X27749500Y10815892D01*
X27250500Y10815892D01*
X27216392Y10943186D01*
X27216390Y10943189D01*
X27216390Y10943191D01*
X27150503Y11057310D01*
X27150501Y11057312D01*
X27150500Y11057314D01*
X27057314Y11150500D01*
X27057311Y11150502D01*
X27057309Y11150504D01*
X26943189Y11216391D01*
X26943191Y11216391D01*
X26893799Y11229625D01*
X26815892Y11250500D01*
X26684108Y11250500D01*
X26606200Y11229625D01*
X26556809Y11216391D01*
X26442690Y11150504D01*
X26349496Y11057310D01*
X26283609Y10943191D01*
X26283608Y10943186D01*
X26249500Y10815892D01*
X25750500Y10815892D01*
X25716392Y10943186D01*
X25716390Y10943189D01*
X25716390Y10943191D01*
X25650503Y11057310D01*
X25650501Y11057312D01*
X25650500Y11057314D01*
X25557314Y11150500D01*
X25557311Y11150502D01*
X25557309Y11150504D01*
X25443189Y11216391D01*
X25443191Y11216391D01*
X25393799Y11229625D01*
X25315892Y11250500D01*
X25184108Y11250500D01*
X25106200Y11229625D01*
X25056809Y11216391D01*
X24942690Y11150504D01*
X24849496Y11057310D01*
X24783609Y10943191D01*
X24783608Y10943186D01*
X24749500Y10815892D01*
X-21599500Y10815892D01*
X-21599500Y12496760D01*
X-21599288Y12503235D01*
X-21595744Y12557310D01*
X-21593049Y12598421D01*
X-20750500Y12598421D01*
X-20750500Y12401580D01*
X-20719711Y12207179D01*
X-20658884Y12019975D01*
X-20572024Y11849500D01*
X-20569524Y11844595D01*
X-20453828Y11685354D01*
X-20314646Y11546172D01*
X-20155405Y11430476D01*
X-19980025Y11341116D01*
X-19792826Y11280291D01*
X-19792825Y11280291D01*
X-19792822Y11280290D01*
X-19598420Y11249500D01*
X-19598417Y11249500D01*
X-19401580Y11249500D01*
X-19207179Y11280290D01*
X-19207178Y11280291D01*
X-19207174Y11280291D01*
X-19019975Y11341116D01*
X-18844595Y11430476D01*
X-18685354Y11546172D01*
X-18546172Y11685354D01*
X-18430476Y11844595D01*
X-18341116Y12019975D01*
X-18280291Y12207174D01*
X-18280290Y12207179D01*
X-18249500Y12401580D01*
X-18249500Y12598421D01*
X-18280290Y12792822D01*
X-18307217Y12875694D01*
X-18341116Y12980025D01*
X-18430476Y13155405D01*
X-18479709Y13223168D01*
X-18479709Y13223169D01*
X-18518454Y13276496D01*
X-10850500Y13276496D01*
X-10850500Y13138505D01*
X-10823580Y13003173D01*
X-10823580Y13003171D01*
X-10770778Y12875694D01*
X-10770772Y12875683D01*
X-10694115Y12760959D01*
X-10596542Y12663386D01*
X-10481818Y12586729D01*
X-10481807Y12586723D01*
X-10434717Y12567218D01*
X-10354328Y12533920D01*
X-10218993Y12507000D01*
X-10218992Y12507000D01*
X-10081008Y12507000D01*
X-10081007Y12507000D01*
X-9945672Y12533920D01*
X-9818189Y12586725D01*
X-9703458Y12663386D01*
X-9605886Y12760958D01*
X-9529225Y12875689D01*
X-9476420Y13003172D01*
X-9449500Y13138507D01*
X-9449500Y13276493D01*
X-9449501Y13276496D01*
X-4050500Y13276496D01*
X-4050500Y13138505D01*
X-4023580Y13003173D01*
X-4023580Y13003171D01*
X-3970778Y12875694D01*
X-3970772Y12875683D01*
X-3894115Y12760959D01*
X-3796542Y12663386D01*
X-3681818Y12586729D01*
X-3681807Y12586723D01*
X-3634717Y12567218D01*
X-3554328Y12533920D01*
X-3418993Y12507000D01*
X-3418992Y12507000D01*
X-3281008Y12507000D01*
X-3281007Y12507000D01*
X-3145672Y12533920D01*
X-3018189Y12586725D01*
X-2903458Y12663386D01*
X-2805886Y12760958D01*
X-2729225Y12875689D01*
X-2676420Y13003172D01*
X-2649500Y13138507D01*
X-2649500Y13276493D01*
X-2676420Y13411828D01*
X-2729225Y13539311D01*
X-2729226Y13539313D01*
X-2729229Y13539318D01*
X-2805886Y13654042D01*
X-2903459Y13751615D01*
X-3018183Y13828272D01*
X-3018194Y13828278D01*
X-3145672Y13881080D01*
X-3281005Y13908000D01*
X-3281007Y13908000D01*
X-3418993Y13908000D01*
X-3418996Y13908000D01*
X-3554328Y13881080D01*
X-3554330Y13881080D01*
X-3681807Y13828278D01*
X-3681818Y13828272D01*
X-3796542Y13751615D01*
X-3894115Y13654042D01*
X-3970772Y13539318D01*
X-3970778Y13539307D01*
X-4023580Y13411830D01*
X-4023580Y13411828D01*
X-4050500Y13276496D01*
X-9449501Y13276496D01*
X-9476420Y13411828D01*
X-9529225Y13539311D01*
X-9529226Y13539313D01*
X-9529229Y13539318D01*
X-9605886Y13654042D01*
X-9703459Y13751615D01*
X-9818183Y13828272D01*
X-9818194Y13828278D01*
X-9945672Y13881080D01*
X-10081005Y13908000D01*
X-10081007Y13908000D01*
X-10218993Y13908000D01*
X-10218996Y13908000D01*
X-10354328Y13881080D01*
X-10354330Y13881080D01*
X-10481807Y13828278D01*
X-10481818Y13828272D01*
X-10596542Y13751615D01*
X-10694115Y13654042D01*
X-10770772Y13539318D01*
X-10770778Y13539307D01*
X-10823580Y13411830D01*
X-10823580Y13411828D01*
X-10850500Y13276496D01*
X-18518454Y13276496D01*
X-18546168Y13314641D01*
X-18546170Y13314643D01*
X-18546172Y13314646D01*
X-18685354Y13453828D01*
X-18844595Y13569524D01*
X-18844596Y13569525D01*
X-18844598Y13569526D01*
X-19019975Y13658884D01*
X-19207179Y13719711D01*
X-19401580Y13750500D01*
X-19401583Y13750500D01*
X-19598417Y13750500D01*
X-19598420Y13750500D01*
X-19792822Y13719711D01*
X-19980026Y13658884D01*
X-20155403Y13569526D01*
X-20314645Y13453829D01*
X-20453829Y13314645D01*
X-20569526Y13155403D01*
X-20658884Y12980026D01*
X-20719711Y12792822D01*
X-20750500Y12598421D01*
X-21593049Y12598421D01*
X-21581963Y12767571D01*
X-21580273Y12780402D01*
X-21529224Y13037045D01*
X-21525879Y13049526D01*
X-21441767Y13297314D01*
X-21436822Y13309250D01*
X-21321089Y13543934D01*
X-21314617Y13555143D01*
X-21313764Y13556419D01*
X-21169240Y13772715D01*
X-21161375Y13782965D01*
X-20988841Y13979703D01*
X-20979703Y13988841D01*
X-20782965Y14161375D01*
X-20772715Y14169240D01*
X-20555138Y14314621D01*
X-20543934Y14321089D01*
X-20309250Y14436822D01*
X-20297314Y14441767D01*
X-20049526Y14525879D01*
X-20037045Y14529224D01*
X-19780395Y14580274D01*
X-19767571Y14581963D01*
X-19503234Y14599288D01*
X-19496759Y14599500D01*
X-19442417Y14599500D01*
X6641567Y14599500D01*
X6699758Y14580593D01*
G37*
%TD.AperFunction*%
%TD*%
M02*
