%TF.GenerationSoftware,KiCad,Pcbnew,9.0.3-9.0.3-0~ubuntu22.04.1*%
%TF.CreationDate,2025-09-04T15:57:16+08:00*%
%TF.ProjectId,pdtrigger,70647472-6967-4676-9572-2e6b69636164,rev?*%
%TF.SameCoordinates,Original*%
%TF.FileFunction,Legend,Top*%
%TF.FilePolarity,Positive*%
%FSLAX46Y46*%
G04 Gerber Fmt 4.6, Leading zero omitted, Abs format (unit mm)*
G04 Created by KiCad (PCBNEW 9.0.3-9.0.3-0~ubuntu22.04.1) date 2025-09-04 15:57:16*
%MOMM*%
%LPD*%
G01*
G04 APERTURE LIST*
G04 Aperture macros list*
%AMRoundRect*
0 Rectangle with rounded corners*
0 $1 Rounding radius*
0 $2 $3 $4 $5 $6 $7 $8 $9 X,Y pos of 4 corners*
0 Add a 4 corners polygon primitive as box body*
4,1,4,$2,$3,$4,$5,$6,$7,$8,$9,$2,$3,0*
0 Add four circle primitives for the rounded corners*
1,1,$1+$1,$2,$3*
1,1,$1+$1,$4,$5*
1,1,$1+$1,$6,$7*
1,1,$1+$1,$8,$9*
0 Add four rect primitives between the rounded corners*
20,1,$1+$1,$2,$3,$4,$5,0*
20,1,$1+$1,$4,$5,$6,$7,0*
20,1,$1+$1,$6,$7,$8,$9,0*
20,1,$1+$1,$8,$9,$2,$3,0*%
G04 Aperture macros list end*
%ADD10C,0.250000*%
%ADD11C,0.200000*%
%ADD12C,0.150000*%
%ADD13C,0.280000*%
%ADD14C,0.120000*%
%ADD15C,0.400000*%
%ADD16C,0.100000*%
%ADD17C,0.087500*%
%ADD18C,0.000000*%
%ADD19C,0.300000*%
%ADD20R,2.000000X2.000000*%
%ADD21C,2.000000*%
%ADD22C,0.700000*%
%ADD23R,1.100000X0.550000*%
%ADD24R,1.100000X0.300000*%
%ADD25O,2.000000X1.100000*%
%ADD26O,1.800000X1.200000*%
%ADD27C,1.500000*%
%ADD28RoundRect,0.250000X1.000000X-0.900000X1.000000X0.900000X-1.000000X0.900000X-1.000000X-0.900000X0*%
%ADD29C,1.100000*%
%ADD30RoundRect,0.250000X0.350000X-1.100000X0.350000X1.100000X-0.350000X1.100000X-0.350000X-1.100000X0*%
%ADD31R,1.230000X1.360000*%
%ADD32RoundRect,0.135000X-0.185000X0.135000X-0.185000X-0.135000X0.185000X-0.135000X0.185000X0.135000X0*%
%ADD33RoundRect,0.200000X-0.275000X0.200000X-0.275000X-0.200000X0.275000X-0.200000X0.275000X0.200000X0*%
%ADD34RoundRect,0.243750X0.243750X0.456250X-0.243750X0.456250X-0.243750X-0.456250X0.243750X-0.456250X0*%
%ADD35RoundRect,0.140000X-0.170000X0.140000X-0.170000X-0.140000X0.170000X-0.140000X0.170000X0.140000X0*%
%ADD36R,1.700000X1.700000*%
%ADD37C,1.700000*%
%ADD38O,1.890000X0.570000*%
%ADD39RoundRect,0.200000X0.275000X-0.200000X0.275000X0.200000X-0.275000X0.200000X-0.275000X-0.200000X0*%
%ADD40RoundRect,0.175000X-0.450000X-0.175000X0.450000X-0.175000X0.450000X0.175000X-0.450000X0.175000X0*%
%ADD41C,2.200000*%
%ADD42RoundRect,0.070000X0.260000X0.070000X-0.260000X0.070000X-0.260000X-0.070000X0.260000X-0.070000X0*%
%ADD43RoundRect,0.070000X0.070000X0.260000X-0.070000X0.260000X-0.070000X-0.260000X0.070000X-0.260000X0*%
%ADD44R,2.800000X2.800000*%
%ADD45RoundRect,0.140000X-0.140000X-0.170000X0.140000X-0.170000X0.140000X0.170000X-0.140000X0.170000X0*%
%ADD46O,1.220000X0.360000*%
%ADD47RoundRect,0.075000X-0.700000X0.075000X-0.700000X-0.075000X0.700000X-0.075000X0.700000X0.075000X0*%
%ADD48RoundRect,0.075000X-0.075000X0.700000X-0.075000X-0.700000X0.075000X-0.700000X0.075000X0.700000X0*%
%ADD49RoundRect,0.243750X0.456250X-0.243750X0.456250X0.243750X-0.456250X0.243750X-0.456250X-0.243750X0*%
%ADD50RoundRect,0.250000X0.475000X-0.250000X0.475000X0.250000X-0.475000X0.250000X-0.475000X-0.250000X0*%
%ADD51RoundRect,0.140000X0.170000X-0.140000X0.170000X0.140000X-0.170000X0.140000X-0.170000X-0.140000X0*%
%ADD52RoundRect,0.250000X0.250000X0.475000X-0.250000X0.475000X-0.250000X-0.475000X0.250000X-0.475000X0*%
%ADD53RoundRect,0.200000X0.200000X0.275000X-0.200000X0.275000X-0.200000X-0.275000X0.200000X-0.275000X0*%
%ADD54RoundRect,0.200000X-0.200000X-0.275000X0.200000X-0.275000X0.200000X0.275000X-0.200000X0.275000X0*%
%ADD55RoundRect,0.250000X-0.475000X0.250000X-0.475000X-0.250000X0.475000X-0.250000X0.475000X0.250000X0*%
%ADD56RoundRect,0.140000X0.140000X0.170000X-0.140000X0.170000X-0.140000X-0.170000X0.140000X-0.170000X0*%
%ADD57RoundRect,0.243750X-0.456250X0.243750X-0.456250X-0.243750X0.456250X-0.243750X0.456250X0.243750X0*%
%ADD58R,1.400000X1.200000*%
G04 APERTURE END LIST*
D10*
X-21750000Y8250000D02*
G75*
G02*
X-20750000Y9250000I1000000J0D01*
G01*
X-20750000Y6750000D02*
G75*
G02*
X-21750000Y7750000I0J1000000D01*
G01*
X-11250000Y7750000D02*
G75*
G02*
X-12250000Y6750000I-1000000J0D01*
G01*
X-12250000Y9250000D02*
G75*
G02*
X-11250000Y8250000I0J-1000000D01*
G01*
X-19060000Y9250000D02*
X-13980000Y9250000D01*
X-19080000Y6730000D02*
X-14000000Y6730000D01*
X-11250000Y8250000D02*
X-11250000Y7750000D01*
X-21750000Y8250000D02*
X-21750000Y7750000D01*
X-19060000Y9250000D02*
X-20750000Y9250000D01*
X-13980000Y9250000D02*
X-12250000Y9250000D01*
X-13910000Y6750000D02*
X-12250000Y6750000D01*
X-20750000Y6750000D02*
X-19090000Y6750000D01*
D11*
X-21011905Y8547781D02*
X-20440477Y8547781D01*
X-20726191Y7547781D02*
X-20726191Y8547781D01*
X-20202381Y8547781D02*
X-19535715Y7547781D01*
X-19535715Y8547781D02*
X-20202381Y7547781D01*
X-12916667Y7547781D02*
X-13250000Y8023972D01*
X-13488095Y7547781D02*
X-13488095Y8547781D01*
X-13488095Y8547781D02*
X-13107143Y8547781D01*
X-13107143Y8547781D02*
X-13011905Y8500162D01*
X-13011905Y8500162D02*
X-12964286Y8452543D01*
X-12964286Y8452543D02*
X-12916667Y8357305D01*
X-12916667Y8357305D02*
X-12916667Y8214448D01*
X-12916667Y8214448D02*
X-12964286Y8119210D01*
X-12964286Y8119210D02*
X-13011905Y8071591D01*
X-13011905Y8071591D02*
X-13107143Y8023972D01*
X-13107143Y8023972D02*
X-13488095Y8023972D01*
X-12583333Y8547781D02*
X-11916667Y7547781D01*
X-11916667Y8547781D02*
X-12583333Y7547781D01*
D12*
X-15266667Y-33116033D02*
X-15033333Y-33816033D01*
X-15033333Y-33816033D02*
X-14800000Y-33116033D01*
X-14566667Y-33816033D02*
X-14566667Y-33116033D01*
X-14233334Y-33816033D02*
X-14233334Y-33116033D01*
X-14233334Y-33116033D02*
X-13833334Y-33816033D01*
X-13833334Y-33816033D02*
X-13833334Y-33116033D01*
X27516667Y-29866033D02*
X27750001Y-30566033D01*
X27750001Y-30566033D02*
X27983334Y-29866033D01*
X28350001Y-29866033D02*
X28483334Y-29866033D01*
X28483334Y-29866033D02*
X28550001Y-29899366D01*
X28550001Y-29899366D02*
X28616667Y-29966033D01*
X28616667Y-29966033D02*
X28650001Y-30099366D01*
X28650001Y-30099366D02*
X28650001Y-30332700D01*
X28650001Y-30332700D02*
X28616667Y-30466033D01*
X28616667Y-30466033D02*
X28550001Y-30532700D01*
X28550001Y-30532700D02*
X28483334Y-30566033D01*
X28483334Y-30566033D02*
X28350001Y-30566033D01*
X28350001Y-30566033D02*
X28283334Y-30532700D01*
X28283334Y-30532700D02*
X28216667Y-30466033D01*
X28216667Y-30466033D02*
X28183334Y-30332700D01*
X28183334Y-30332700D02*
X28183334Y-30099366D01*
X28183334Y-30099366D02*
X28216667Y-29966033D01*
X28216667Y-29966033D02*
X28283334Y-29899366D01*
X28283334Y-29899366D02*
X28350001Y-29866033D01*
X28950000Y-29866033D02*
X28950000Y-30432700D01*
X28950000Y-30432700D02*
X28983334Y-30499366D01*
X28983334Y-30499366D02*
X29016667Y-30532700D01*
X29016667Y-30532700D02*
X29083334Y-30566033D01*
X29083334Y-30566033D02*
X29216667Y-30566033D01*
X29216667Y-30566033D02*
X29283334Y-30532700D01*
X29283334Y-30532700D02*
X29316667Y-30499366D01*
X29316667Y-30499366D02*
X29350000Y-30432700D01*
X29350000Y-30432700D02*
X29350000Y-29866033D01*
X29583333Y-29866033D02*
X29983333Y-29866033D01*
X29783333Y-30566033D02*
X29783333Y-29866033D01*
X23466667Y-35149366D02*
X23400000Y-35116033D01*
X23400000Y-35116033D02*
X23300000Y-35116033D01*
X23300000Y-35116033D02*
X23200000Y-35149366D01*
X23200000Y-35149366D02*
X23133334Y-35216033D01*
X23133334Y-35216033D02*
X23100000Y-35282700D01*
X23100000Y-35282700D02*
X23066667Y-35416033D01*
X23066667Y-35416033D02*
X23066667Y-35516033D01*
X23066667Y-35516033D02*
X23100000Y-35649366D01*
X23100000Y-35649366D02*
X23133334Y-35716033D01*
X23133334Y-35716033D02*
X23200000Y-35782700D01*
X23200000Y-35782700D02*
X23300000Y-35816033D01*
X23300000Y-35816033D02*
X23366667Y-35816033D01*
X23366667Y-35816033D02*
X23466667Y-35782700D01*
X23466667Y-35782700D02*
X23500000Y-35749366D01*
X23500000Y-35749366D02*
X23500000Y-35516033D01*
X23500000Y-35516033D02*
X23366667Y-35516033D01*
X23800000Y-35816033D02*
X23800000Y-35116033D01*
X23800000Y-35116033D02*
X24200000Y-35816033D01*
X24200000Y-35816033D02*
X24200000Y-35116033D01*
X24533333Y-35816033D02*
X24533333Y-35116033D01*
X24533333Y-35116033D02*
X24700000Y-35116033D01*
X24700000Y-35116033D02*
X24800000Y-35149366D01*
X24800000Y-35149366D02*
X24866667Y-35216033D01*
X24866667Y-35216033D02*
X24900000Y-35282700D01*
X24900000Y-35282700D02*
X24933333Y-35416033D01*
X24933333Y-35416033D02*
X24933333Y-35516033D01*
X24933333Y-35516033D02*
X24900000Y-35649366D01*
X24900000Y-35649366D02*
X24866667Y-35716033D01*
X24866667Y-35716033D02*
X24800000Y-35782700D01*
X24800000Y-35782700D02*
X24700000Y-35816033D01*
X24700000Y-35816033D02*
X24533333Y-35816033D01*
D11*
X19597619Y-12309695D02*
X19216667Y-12309695D01*
X19216667Y-12309695D02*
X19178571Y-12690647D01*
X19178571Y-12690647D02*
X19216667Y-12652552D01*
X19216667Y-12652552D02*
X19292857Y-12614457D01*
X19292857Y-12614457D02*
X19483333Y-12614457D01*
X19483333Y-12614457D02*
X19559524Y-12652552D01*
X19559524Y-12652552D02*
X19597619Y-12690647D01*
X19597619Y-12690647D02*
X19635714Y-12766838D01*
X19635714Y-12766838D02*
X19635714Y-12957314D01*
X19635714Y-12957314D02*
X19597619Y-13033504D01*
X19597619Y-13033504D02*
X19559524Y-13071600D01*
X19559524Y-13071600D02*
X19483333Y-13109695D01*
X19483333Y-13109695D02*
X19292857Y-13109695D01*
X19292857Y-13109695D02*
X19216667Y-13071600D01*
X19216667Y-13071600D02*
X19178571Y-13033504D01*
X19864286Y-12309695D02*
X20130953Y-13109695D01*
X20130953Y-13109695D02*
X20397619Y-12309695D01*
X19254762Y-15859695D02*
X19407143Y-15859695D01*
X19407143Y-15859695D02*
X19483333Y-15821600D01*
X19483333Y-15821600D02*
X19521429Y-15783504D01*
X19521429Y-15783504D02*
X19597619Y-15669219D01*
X19597619Y-15669219D02*
X19635714Y-15516838D01*
X19635714Y-15516838D02*
X19635714Y-15212076D01*
X19635714Y-15212076D02*
X19597619Y-15135885D01*
X19597619Y-15135885D02*
X19559524Y-15097790D01*
X19559524Y-15097790D02*
X19483333Y-15059695D01*
X19483333Y-15059695D02*
X19330952Y-15059695D01*
X19330952Y-15059695D02*
X19254762Y-15097790D01*
X19254762Y-15097790D02*
X19216667Y-15135885D01*
X19216667Y-15135885D02*
X19178571Y-15212076D01*
X19178571Y-15212076D02*
X19178571Y-15402552D01*
X19178571Y-15402552D02*
X19216667Y-15478742D01*
X19216667Y-15478742D02*
X19254762Y-15516838D01*
X19254762Y-15516838D02*
X19330952Y-15554933D01*
X19330952Y-15554933D02*
X19483333Y-15554933D01*
X19483333Y-15554933D02*
X19559524Y-15516838D01*
X19559524Y-15516838D02*
X19597619Y-15478742D01*
X19597619Y-15478742D02*
X19635714Y-15402552D01*
X19864286Y-15059695D02*
X20130953Y-15859695D01*
X20130953Y-15859695D02*
X20397619Y-15059695D01*
X19254761Y-18609695D02*
X18797618Y-18609695D01*
X19026190Y-18609695D02*
X19026190Y-17809695D01*
X19026190Y-17809695D02*
X18949999Y-17923980D01*
X18949999Y-17923980D02*
X18873809Y-18000171D01*
X18873809Y-18000171D02*
X18797618Y-18038266D01*
X19559523Y-17885885D02*
X19597619Y-17847790D01*
X19597619Y-17847790D02*
X19673809Y-17809695D01*
X19673809Y-17809695D02*
X19864285Y-17809695D01*
X19864285Y-17809695D02*
X19940476Y-17847790D01*
X19940476Y-17847790D02*
X19978571Y-17885885D01*
X19978571Y-17885885D02*
X20016666Y-17962076D01*
X20016666Y-17962076D02*
X20016666Y-18038266D01*
X20016666Y-18038266D02*
X19978571Y-18152552D01*
X19978571Y-18152552D02*
X19521428Y-18609695D01*
X19521428Y-18609695D02*
X20016666Y-18609695D01*
X20245238Y-17809695D02*
X20511905Y-18609695D01*
X20511905Y-18609695D02*
X20778571Y-17809695D01*
X19254761Y-21359695D02*
X18797618Y-21359695D01*
X19026190Y-21359695D02*
X19026190Y-20559695D01*
X19026190Y-20559695D02*
X18949999Y-20673980D01*
X18949999Y-20673980D02*
X18873809Y-20750171D01*
X18873809Y-20750171D02*
X18797618Y-20788266D01*
X19978571Y-20559695D02*
X19597619Y-20559695D01*
X19597619Y-20559695D02*
X19559523Y-20940647D01*
X19559523Y-20940647D02*
X19597619Y-20902552D01*
X19597619Y-20902552D02*
X19673809Y-20864457D01*
X19673809Y-20864457D02*
X19864285Y-20864457D01*
X19864285Y-20864457D02*
X19940476Y-20902552D01*
X19940476Y-20902552D02*
X19978571Y-20940647D01*
X19978571Y-20940647D02*
X20016666Y-21016838D01*
X20016666Y-21016838D02*
X20016666Y-21207314D01*
X20016666Y-21207314D02*
X19978571Y-21283504D01*
X19978571Y-21283504D02*
X19940476Y-21321600D01*
X19940476Y-21321600D02*
X19864285Y-21359695D01*
X19864285Y-21359695D02*
X19673809Y-21359695D01*
X19673809Y-21359695D02*
X19597619Y-21321600D01*
X19597619Y-21321600D02*
X19559523Y-21283504D01*
X20245238Y-20559695D02*
X20511905Y-21359695D01*
X20511905Y-21359695D02*
X20778571Y-20559695D01*
D10*
X14500000Y-25250000D02*
G75*
G02*
X13500000Y-24250000I0J1000000D01*
G01*
X13500000Y-12000000D02*
G75*
G02*
X14500000Y-11000000I1000000J0D01*
G01*
X21250000Y-24250000D02*
G75*
G02*
X20250000Y-25250000I-1000000J0D01*
G01*
X20250000Y-11000000D02*
G75*
G02*
X21250000Y-12000000I0J-1000000D01*
G01*
X14500000Y-11000000D02*
X20250000Y-11000000D01*
X14500000Y-25250000D02*
X20250000Y-25250000D01*
X21250000Y-12000000D02*
X21250000Y-24250000D01*
X13500000Y-12000000D02*
X13500000Y-24250000D01*
D11*
X16971429Y-5609695D02*
X16971429Y-4809695D01*
X16971429Y-4809695D02*
X17276191Y-4809695D01*
X17276191Y-4809695D02*
X17352381Y-4847790D01*
X17352381Y-4847790D02*
X17390476Y-4885885D01*
X17390476Y-4885885D02*
X17428572Y-4962076D01*
X17428572Y-4962076D02*
X17428572Y-5076361D01*
X17428572Y-5076361D02*
X17390476Y-5152552D01*
X17390476Y-5152552D02*
X17352381Y-5190647D01*
X17352381Y-5190647D02*
X17276191Y-5228742D01*
X17276191Y-5228742D02*
X16971429Y-5228742D01*
X17771429Y-5609695D02*
X17771429Y-4809695D01*
X17771429Y-4809695D02*
X17961905Y-4809695D01*
X17961905Y-4809695D02*
X18076191Y-4847790D01*
X18076191Y-4847790D02*
X18152381Y-4923980D01*
X18152381Y-4923980D02*
X18190476Y-5000171D01*
X18190476Y-5000171D02*
X18228572Y-5152552D01*
X18228572Y-5152552D02*
X18228572Y-5266838D01*
X18228572Y-5266838D02*
X18190476Y-5419219D01*
X18190476Y-5419219D02*
X18152381Y-5495409D01*
X18152381Y-5495409D02*
X18076191Y-5571600D01*
X18076191Y-5571600D02*
X17961905Y-5609695D01*
X17961905Y-5609695D02*
X17771429Y-5609695D01*
X18723810Y-4809695D02*
X18876191Y-4809695D01*
X18876191Y-4809695D02*
X18952381Y-4847790D01*
X18952381Y-4847790D02*
X19028572Y-4923980D01*
X19028572Y-4923980D02*
X19066667Y-5076361D01*
X19066667Y-5076361D02*
X19066667Y-5343028D01*
X19066667Y-5343028D02*
X19028572Y-5495409D01*
X19028572Y-5495409D02*
X18952381Y-5571600D01*
X18952381Y-5571600D02*
X18876191Y-5609695D01*
X18876191Y-5609695D02*
X18723810Y-5609695D01*
X18723810Y-5609695D02*
X18647619Y-5571600D01*
X18647619Y-5571600D02*
X18571429Y-5495409D01*
X18571429Y-5495409D02*
X18533333Y-5343028D01*
X18533333Y-5343028D02*
X18533333Y-5076361D01*
X18533333Y-5076361D02*
X18571429Y-4923980D01*
X18571429Y-4923980D02*
X18647619Y-4847790D01*
X18647619Y-4847790D02*
X18723810Y-4809695D01*
X18797618Y-23385885D02*
X18835714Y-23347790D01*
X18835714Y-23347790D02*
X18911904Y-23309695D01*
X18911904Y-23309695D02*
X19102380Y-23309695D01*
X19102380Y-23309695D02*
X19178571Y-23347790D01*
X19178571Y-23347790D02*
X19216666Y-23385885D01*
X19216666Y-23385885D02*
X19254761Y-23462076D01*
X19254761Y-23462076D02*
X19254761Y-23538266D01*
X19254761Y-23538266D02*
X19216666Y-23652552D01*
X19216666Y-23652552D02*
X18759523Y-24109695D01*
X18759523Y-24109695D02*
X19254761Y-24109695D01*
X19750000Y-23309695D02*
X19826190Y-23309695D01*
X19826190Y-23309695D02*
X19902381Y-23347790D01*
X19902381Y-23347790D02*
X19940476Y-23385885D01*
X19940476Y-23385885D02*
X19978571Y-23462076D01*
X19978571Y-23462076D02*
X20016666Y-23614457D01*
X20016666Y-23614457D02*
X20016666Y-23804933D01*
X20016666Y-23804933D02*
X19978571Y-23957314D01*
X19978571Y-23957314D02*
X19940476Y-24033504D01*
X19940476Y-24033504D02*
X19902381Y-24071600D01*
X19902381Y-24071600D02*
X19826190Y-24109695D01*
X19826190Y-24109695D02*
X19750000Y-24109695D01*
X19750000Y-24109695D02*
X19673809Y-24071600D01*
X19673809Y-24071600D02*
X19635714Y-24033504D01*
X19635714Y-24033504D02*
X19597619Y-23957314D01*
X19597619Y-23957314D02*
X19559523Y-23804933D01*
X19559523Y-23804933D02*
X19559523Y-23614457D01*
X19559523Y-23614457D02*
X19597619Y-23462076D01*
X19597619Y-23462076D02*
X19635714Y-23385885D01*
X19635714Y-23385885D02*
X19673809Y-23347790D01*
X19673809Y-23347790D02*
X19750000Y-23309695D01*
X20245238Y-23309695D02*
X20511905Y-24109695D01*
X20511905Y-24109695D02*
X20778571Y-23309695D01*
D10*
X5670000Y13520000D02*
X5670000Y12980000D01*
X5670000Y13520000D02*
G75*
G02*
X6670000Y14520000I1000000J0D01*
G01*
X6670000Y11980000D02*
G75*
G02*
X5670000Y12980000I0J1000000D01*
G01*
D13*
X6817543Y-29814106D02*
X6817543Y-30947440D01*
X6817543Y-30947440D02*
X6884210Y-31080773D01*
X6884210Y-31080773D02*
X6950876Y-31147440D01*
X6950876Y-31147440D02*
X7084210Y-31214106D01*
X7084210Y-31214106D02*
X7350876Y-31214106D01*
X7350876Y-31214106D02*
X7484210Y-31147440D01*
X7484210Y-31147440D02*
X7550876Y-31080773D01*
X7550876Y-31080773D02*
X7617543Y-30947440D01*
X7617543Y-30947440D02*
X7617543Y-29814106D01*
X8217543Y-31147440D02*
X8417543Y-31214106D01*
X8417543Y-31214106D02*
X8750877Y-31214106D01*
X8750877Y-31214106D02*
X8884210Y-31147440D01*
X8884210Y-31147440D02*
X8950877Y-31080773D01*
X8950877Y-31080773D02*
X9017543Y-30947440D01*
X9017543Y-30947440D02*
X9017543Y-30814106D01*
X9017543Y-30814106D02*
X8950877Y-30680773D01*
X8950877Y-30680773D02*
X8884210Y-30614106D01*
X8884210Y-30614106D02*
X8750877Y-30547440D01*
X8750877Y-30547440D02*
X8484210Y-30480773D01*
X8484210Y-30480773D02*
X8350877Y-30414106D01*
X8350877Y-30414106D02*
X8284210Y-30347440D01*
X8284210Y-30347440D02*
X8217543Y-30214106D01*
X8217543Y-30214106D02*
X8217543Y-30080773D01*
X8217543Y-30080773D02*
X8284210Y-29947440D01*
X8284210Y-29947440D02*
X8350877Y-29880773D01*
X8350877Y-29880773D02*
X8484210Y-29814106D01*
X8484210Y-29814106D02*
X8817543Y-29814106D01*
X8817543Y-29814106D02*
X9017543Y-29880773D01*
X10084210Y-30480773D02*
X10284210Y-30547440D01*
X10284210Y-30547440D02*
X10350876Y-30614106D01*
X10350876Y-30614106D02*
X10417543Y-30747440D01*
X10417543Y-30747440D02*
X10417543Y-30947440D01*
X10417543Y-30947440D02*
X10350876Y-31080773D01*
X10350876Y-31080773D02*
X10284210Y-31147440D01*
X10284210Y-31147440D02*
X10150876Y-31214106D01*
X10150876Y-31214106D02*
X9617543Y-31214106D01*
X9617543Y-31214106D02*
X9617543Y-29814106D01*
X9617543Y-29814106D02*
X10084210Y-29814106D01*
X10084210Y-29814106D02*
X10217543Y-29880773D01*
X10217543Y-29880773D02*
X10284210Y-29947440D01*
X10284210Y-29947440D02*
X10350876Y-30080773D01*
X10350876Y-30080773D02*
X10350876Y-30214106D01*
X10350876Y-30214106D02*
X10284210Y-30347440D01*
X10284210Y-30347440D02*
X10217543Y-30414106D01*
X10217543Y-30414106D02*
X10084210Y-30480773D01*
X10084210Y-30480773D02*
X9617543Y-30480773D01*
X11017543Y-30680773D02*
X12084210Y-30680773D01*
X13550876Y-31080773D02*
X13484209Y-31147440D01*
X13484209Y-31147440D02*
X13284209Y-31214106D01*
X13284209Y-31214106D02*
X13150876Y-31214106D01*
X13150876Y-31214106D02*
X12950876Y-31147440D01*
X12950876Y-31147440D02*
X12817543Y-31014106D01*
X12817543Y-31014106D02*
X12750876Y-30880773D01*
X12750876Y-30880773D02*
X12684209Y-30614106D01*
X12684209Y-30614106D02*
X12684209Y-30414106D01*
X12684209Y-30414106D02*
X12750876Y-30147440D01*
X12750876Y-30147440D02*
X12817543Y-30014106D01*
X12817543Y-30014106D02*
X12950876Y-29880773D01*
X12950876Y-29880773D02*
X13150876Y-29814106D01*
X13150876Y-29814106D02*
X13284209Y-29814106D01*
X13284209Y-29814106D02*
X13484209Y-29880773D01*
X13484209Y-29880773D02*
X13550876Y-29947440D01*
X15217543Y-31214106D02*
X15217543Y-29814106D01*
X15217543Y-29814106D02*
X15750876Y-29814106D01*
X15750876Y-29814106D02*
X15884210Y-29880773D01*
X15884210Y-29880773D02*
X15950876Y-29947440D01*
X15950876Y-29947440D02*
X16017543Y-30080773D01*
X16017543Y-30080773D02*
X16017543Y-30280773D01*
X16017543Y-30280773D02*
X15950876Y-30414106D01*
X15950876Y-30414106D02*
X15884210Y-30480773D01*
X15884210Y-30480773D02*
X15750876Y-30547440D01*
X15750876Y-30547440D02*
X15217543Y-30547440D01*
X16617543Y-31214106D02*
X16617543Y-29814106D01*
X16617543Y-29814106D02*
X16950876Y-29814106D01*
X16950876Y-29814106D02*
X17150876Y-29880773D01*
X17150876Y-29880773D02*
X17284210Y-30014106D01*
X17284210Y-30014106D02*
X17350876Y-30147440D01*
X17350876Y-30147440D02*
X17417543Y-30414106D01*
X17417543Y-30414106D02*
X17417543Y-30614106D01*
X17417543Y-30614106D02*
X17350876Y-30880773D01*
X17350876Y-30880773D02*
X17284210Y-31014106D01*
X17284210Y-31014106D02*
X17150876Y-31147440D01*
X17150876Y-31147440D02*
X16950876Y-31214106D01*
X16950876Y-31214106D02*
X16617543Y-31214106D01*
X18884210Y-29814106D02*
X19684210Y-29814106D01*
X19284210Y-31214106D02*
X19284210Y-29814106D01*
X20150877Y-31214106D02*
X20150877Y-30280773D01*
X20150877Y-30547440D02*
X20217544Y-30414106D01*
X20217544Y-30414106D02*
X20284210Y-30347440D01*
X20284210Y-30347440D02*
X20417544Y-30280773D01*
X20417544Y-30280773D02*
X20550877Y-30280773D01*
X21017544Y-31214106D02*
X21017544Y-30280773D01*
X21017544Y-29814106D02*
X20950877Y-29880773D01*
X20950877Y-29880773D02*
X21017544Y-29947440D01*
X21017544Y-29947440D02*
X21084211Y-29880773D01*
X21084211Y-29880773D02*
X21017544Y-29814106D01*
X21017544Y-29814106D02*
X21017544Y-29947440D01*
X22284211Y-30280773D02*
X22284211Y-31414106D01*
X22284211Y-31414106D02*
X22217544Y-31547440D01*
X22217544Y-31547440D02*
X22150878Y-31614106D01*
X22150878Y-31614106D02*
X22017544Y-31680773D01*
X22017544Y-31680773D02*
X21817544Y-31680773D01*
X21817544Y-31680773D02*
X21684211Y-31614106D01*
X22284211Y-31147440D02*
X22150878Y-31214106D01*
X22150878Y-31214106D02*
X21884211Y-31214106D01*
X21884211Y-31214106D02*
X21750878Y-31147440D01*
X21750878Y-31147440D02*
X21684211Y-31080773D01*
X21684211Y-31080773D02*
X21617544Y-30947440D01*
X21617544Y-30947440D02*
X21617544Y-30547440D01*
X21617544Y-30547440D02*
X21684211Y-30414106D01*
X21684211Y-30414106D02*
X21750878Y-30347440D01*
X21750878Y-30347440D02*
X21884211Y-30280773D01*
X21884211Y-30280773D02*
X22150878Y-30280773D01*
X22150878Y-30280773D02*
X22284211Y-30347440D01*
X23550878Y-30280773D02*
X23550878Y-31414106D01*
X23550878Y-31414106D02*
X23484211Y-31547440D01*
X23484211Y-31547440D02*
X23417545Y-31614106D01*
X23417545Y-31614106D02*
X23284211Y-31680773D01*
X23284211Y-31680773D02*
X23084211Y-31680773D01*
X23084211Y-31680773D02*
X22950878Y-31614106D01*
X23550878Y-31147440D02*
X23417545Y-31214106D01*
X23417545Y-31214106D02*
X23150878Y-31214106D01*
X23150878Y-31214106D02*
X23017545Y-31147440D01*
X23017545Y-31147440D02*
X22950878Y-31080773D01*
X22950878Y-31080773D02*
X22884211Y-30947440D01*
X22884211Y-30947440D02*
X22884211Y-30547440D01*
X22884211Y-30547440D02*
X22950878Y-30414106D01*
X22950878Y-30414106D02*
X23017545Y-30347440D01*
X23017545Y-30347440D02*
X23150878Y-30280773D01*
X23150878Y-30280773D02*
X23417545Y-30280773D01*
X23417545Y-30280773D02*
X23550878Y-30347440D01*
X24750878Y-31147440D02*
X24617545Y-31214106D01*
X24617545Y-31214106D02*
X24350878Y-31214106D01*
X24350878Y-31214106D02*
X24217545Y-31147440D01*
X24217545Y-31147440D02*
X24150878Y-31014106D01*
X24150878Y-31014106D02*
X24150878Y-30480773D01*
X24150878Y-30480773D02*
X24217545Y-30347440D01*
X24217545Y-30347440D02*
X24350878Y-30280773D01*
X24350878Y-30280773D02*
X24617545Y-30280773D01*
X24617545Y-30280773D02*
X24750878Y-30347440D01*
X24750878Y-30347440D02*
X24817545Y-30480773D01*
X24817545Y-30480773D02*
X24817545Y-30614106D01*
X24817545Y-30614106D02*
X24150878Y-30747440D01*
X25417545Y-31214106D02*
X25417545Y-30280773D01*
X25417545Y-30547440D02*
X25484212Y-30414106D01*
X25484212Y-30414106D02*
X25550878Y-30347440D01*
X25550878Y-30347440D02*
X25684212Y-30280773D01*
X25684212Y-30280773D02*
X25817545Y-30280773D01*
D14*
X-9723811Y-7825760D02*
X-9609525Y-7863855D01*
X-9609525Y-7863855D02*
X-9419049Y-7863855D01*
X-9419049Y-7863855D02*
X-9342858Y-7825760D01*
X-9342858Y-7825760D02*
X-9304763Y-7787664D01*
X-9304763Y-7787664D02*
X-9266668Y-7711474D01*
X-9266668Y-7711474D02*
X-9266668Y-7635283D01*
X-9266668Y-7635283D02*
X-9304763Y-7559093D01*
X-9304763Y-7559093D02*
X-9342858Y-7520998D01*
X-9342858Y-7520998D02*
X-9419049Y-7482902D01*
X-9419049Y-7482902D02*
X-9571430Y-7444807D01*
X-9571430Y-7444807D02*
X-9647620Y-7406712D01*
X-9647620Y-7406712D02*
X-9685715Y-7368617D01*
X-9685715Y-7368617D02*
X-9723811Y-7292426D01*
X-9723811Y-7292426D02*
X-9723811Y-7216236D01*
X-9723811Y-7216236D02*
X-9685715Y-7140045D01*
X-9685715Y-7140045D02*
X-9647620Y-7101950D01*
X-9647620Y-7101950D02*
X-9571430Y-7063855D01*
X-9571430Y-7063855D02*
X-9380953Y-7063855D01*
X-9380953Y-7063855D02*
X-9266668Y-7101950D01*
X-9038096Y-7063855D02*
X-8580953Y-7063855D01*
X-8809525Y-7863855D02*
X-8809525Y-7063855D01*
X-8314286Y-7863855D02*
X-8314286Y-7063855D01*
X-8314286Y-7063855D02*
X-8047620Y-7635283D01*
X-8047620Y-7635283D02*
X-7780953Y-7063855D01*
X-7780953Y-7063855D02*
X-7780953Y-7863855D01*
X-7476191Y-7063855D02*
X-6980953Y-7063855D01*
X-6980953Y-7063855D02*
X-7247619Y-7368617D01*
X-7247619Y-7368617D02*
X-7133334Y-7368617D01*
X-7133334Y-7368617D02*
X-7057143Y-7406712D01*
X-7057143Y-7406712D02*
X-7019048Y-7444807D01*
X-7019048Y-7444807D02*
X-6980953Y-7520998D01*
X-6980953Y-7520998D02*
X-6980953Y-7711474D01*
X-6980953Y-7711474D02*
X-7019048Y-7787664D01*
X-7019048Y-7787664D02*
X-7057143Y-7825760D01*
X-7057143Y-7825760D02*
X-7133334Y-7863855D01*
X-7133334Y-7863855D02*
X-7361905Y-7863855D01*
X-7361905Y-7863855D02*
X-7438096Y-7825760D01*
X-7438096Y-7825760D02*
X-7476191Y-7787664D01*
X-6676191Y-7140045D02*
X-6638095Y-7101950D01*
X-6638095Y-7101950D02*
X-6561905Y-7063855D01*
X-6561905Y-7063855D02*
X-6371429Y-7063855D01*
X-6371429Y-7063855D02*
X-6295238Y-7101950D01*
X-6295238Y-7101950D02*
X-6257143Y-7140045D01*
X-6257143Y-7140045D02*
X-6219048Y-7216236D01*
X-6219048Y-7216236D02*
X-6219048Y-7292426D01*
X-6219048Y-7292426D02*
X-6257143Y-7406712D01*
X-6257143Y-7406712D02*
X-6714286Y-7863855D01*
X-6714286Y-7863855D02*
X-6219048Y-7863855D01*
X-5609524Y-7444807D02*
X-5876190Y-7444807D01*
X-5876190Y-7863855D02*
X-5876190Y-7063855D01*
X-5876190Y-7063855D02*
X-5495238Y-7063855D01*
X-4847619Y-7330521D02*
X-4847619Y-7863855D01*
X-5038095Y-7025760D02*
X-5228572Y-7597188D01*
X-5228572Y-7597188D02*
X-4733333Y-7597188D01*
X-4276190Y-7063855D02*
X-4200000Y-7063855D01*
X-4200000Y-7063855D02*
X-4123809Y-7101950D01*
X-4123809Y-7101950D02*
X-4085714Y-7140045D01*
X-4085714Y-7140045D02*
X-4047619Y-7216236D01*
X-4047619Y-7216236D02*
X-4009524Y-7368617D01*
X-4009524Y-7368617D02*
X-4009524Y-7559093D01*
X-4009524Y-7559093D02*
X-4047619Y-7711474D01*
X-4047619Y-7711474D02*
X-4085714Y-7787664D01*
X-4085714Y-7787664D02*
X-4123809Y-7825760D01*
X-4123809Y-7825760D02*
X-4200000Y-7863855D01*
X-4200000Y-7863855D02*
X-4276190Y-7863855D01*
X-4276190Y-7863855D02*
X-4352381Y-7825760D01*
X-4352381Y-7825760D02*
X-4390476Y-7787664D01*
X-4390476Y-7787664D02*
X-4428571Y-7711474D01*
X-4428571Y-7711474D02*
X-4466667Y-7559093D01*
X-4466667Y-7559093D02*
X-4466667Y-7368617D01*
X-4466667Y-7368617D02*
X-4428571Y-7216236D01*
X-4428571Y-7216236D02*
X-4390476Y-7140045D01*
X-4390476Y-7140045D02*
X-4352381Y-7101950D01*
X-4352381Y-7101950D02*
X-4276190Y-7063855D01*
X-3247619Y-7863855D02*
X-3704762Y-7863855D01*
X-3476190Y-7863855D02*
X-3476190Y-7063855D01*
X-3476190Y-7063855D02*
X-3552381Y-7178140D01*
X-3552381Y-7178140D02*
X-3628571Y-7254331D01*
X-3628571Y-7254331D02*
X-3704762Y-7292426D01*
X-2447618Y-7863855D02*
X-2714285Y-7482902D01*
X-2904761Y-7863855D02*
X-2904761Y-7063855D01*
X-2904761Y-7063855D02*
X-2599999Y-7063855D01*
X-2599999Y-7063855D02*
X-2523809Y-7101950D01*
X-2523809Y-7101950D02*
X-2485714Y-7140045D01*
X-2485714Y-7140045D02*
X-2447618Y-7216236D01*
X-2447618Y-7216236D02*
X-2447618Y-7330521D01*
X-2447618Y-7330521D02*
X-2485714Y-7406712D01*
X-2485714Y-7406712D02*
X-2523809Y-7444807D01*
X-2523809Y-7444807D02*
X-2599999Y-7482902D01*
X-2599999Y-7482902D02*
X-2904761Y-7482902D01*
X-1838095Y-7444807D02*
X-1723809Y-7482902D01*
X-1723809Y-7482902D02*
X-1685714Y-7520998D01*
X-1685714Y-7520998D02*
X-1647618Y-7597188D01*
X-1647618Y-7597188D02*
X-1647618Y-7711474D01*
X-1647618Y-7711474D02*
X-1685714Y-7787664D01*
X-1685714Y-7787664D02*
X-1723809Y-7825760D01*
X-1723809Y-7825760D02*
X-1799999Y-7863855D01*
X-1799999Y-7863855D02*
X-2104761Y-7863855D01*
X-2104761Y-7863855D02*
X-2104761Y-7063855D01*
X-2104761Y-7063855D02*
X-1838095Y-7063855D01*
X-1838095Y-7063855D02*
X-1761904Y-7101950D01*
X-1761904Y-7101950D02*
X-1723809Y-7140045D01*
X-1723809Y-7140045D02*
X-1685714Y-7216236D01*
X-1685714Y-7216236D02*
X-1685714Y-7292426D01*
X-1685714Y-7292426D02*
X-1723809Y-7368617D01*
X-1723809Y-7368617D02*
X-1761904Y-7406712D01*
X-1761904Y-7406712D02*
X-1838095Y-7444807D01*
X-1838095Y-7444807D02*
X-2104761Y-7444807D01*
X-1419047Y-7063855D02*
X-961904Y-7063855D01*
X-1190476Y-7863855D02*
X-1190476Y-7063855D01*
X-352380Y-7063855D02*
X-504761Y-7063855D01*
X-504761Y-7063855D02*
X-580952Y-7101950D01*
X-580952Y-7101950D02*
X-619047Y-7140045D01*
X-619047Y-7140045D02*
X-695237Y-7254331D01*
X-695237Y-7254331D02*
X-733333Y-7406712D01*
X-733333Y-7406712D02*
X-733333Y-7711474D01*
X-733333Y-7711474D02*
X-695237Y-7787664D01*
X-695237Y-7787664D02*
X-657142Y-7825760D01*
X-657142Y-7825760D02*
X-580952Y-7863855D01*
X-580952Y-7863855D02*
X-428571Y-7863855D01*
X-428571Y-7863855D02*
X-352380Y-7825760D01*
X-352380Y-7825760D02*
X-314285Y-7787664D01*
X-314285Y-7787664D02*
X-276190Y-7711474D01*
X-276190Y-7711474D02*
X-276190Y-7520998D01*
X-276190Y-7520998D02*
X-314285Y-7444807D01*
X-314285Y-7444807D02*
X-352380Y-7406712D01*
X-352380Y-7406712D02*
X-428571Y-7368617D01*
X-428571Y-7368617D02*
X-580952Y-7368617D01*
X-580952Y-7368617D02*
X-657142Y-7406712D01*
X-657142Y-7406712D02*
X-695237Y-7444807D01*
X-695237Y-7444807D02*
X-733333Y-7520998D01*
D10*
X-13250000Y6000000D02*
G75*
G02*
X-12250000Y5000000I0J-1000000D01*
G01*
X-12250000Y-2000000D02*
G75*
G02*
X-13250000Y-3000000I-1000000J0D01*
G01*
D15*
X28754438Y-26504761D02*
X30754438Y-25838095D01*
X30754438Y-25838095D02*
X28754438Y-25171428D01*
X29992533Y-24504761D02*
X29992533Y-22980952D01*
X30754438Y-23742856D02*
X29230628Y-23742856D01*
D10*
X-21000000Y5000000D02*
G75*
G02*
X-20000000Y6000000I1000000J0D01*
G01*
X-20000000Y-3000000D02*
G75*
G02*
X-21000000Y-2000000I0J1000000D01*
G01*
X-17750000Y-3975000D02*
G75*
G02*
X-13900000Y-7825000I0J-3850000D01*
G01*
X-21600000Y-12500000D02*
X-21600000Y-7825000D01*
X-13900000Y-9975000D02*
X-13900000Y-7825000D01*
X-21600000Y-7825000D02*
G75*
G02*
X-17750000Y-3975000I3850000J0D01*
G01*
X-13900000Y-23775000D02*
G75*
G02*
X-17750000Y-27625002I-3850001J-1D01*
G01*
X-17750000Y-27625000D02*
G75*
G02*
X-21600000Y-23775000I-1J3849999D01*
G01*
X-21600000Y-21625000D02*
X-21600000Y-23775000D01*
X-13900000Y-9975000D02*
X-13900000Y-23775000D01*
X26000000Y-9850000D02*
G75*
G02*
X29850000Y-6000000I3850000J0D01*
G01*
X29850000Y-6000000D02*
G75*
G02*
X33700000Y-9850000I0J-3850000D01*
G01*
X29850000Y-28000000D02*
G75*
G02*
X26000000Y-24150000I0J3850000D01*
G01*
X33700000Y-24150000D02*
G75*
G02*
X29850000Y-28000000I-3850000J0D01*
G01*
X33700000Y-22000000D02*
X33700000Y-24150000D01*
X26000000Y-22000000D02*
X26000000Y-24150000D01*
X33700000Y-12000000D02*
X33700000Y-9850000D01*
X26000000Y-12000000D02*
X26000000Y-9850000D01*
D16*
X-17500000Y12500000D02*
G75*
G02*
X-21500000Y12500000I-2000000J0D01*
G01*
X-21500000Y12500000D02*
G75*
G02*
X-17500000Y12500000I2000000J0D01*
G01*
X33500000Y12500000D02*
G75*
G02*
X29500000Y12500000I-2000000J0D01*
G01*
X29500000Y12500000D02*
G75*
G02*
X33500000Y12500000I2000000J0D01*
G01*
X33500000Y-35500000D02*
G75*
G02*
X29500000Y-35500000I-2000000J0D01*
G01*
X29500000Y-35500000D02*
G75*
G02*
X33500000Y-35500000I2000000J0D01*
G01*
X-17500000Y-35500000D02*
G75*
G02*
X-21500000Y-35500000I-2000000J0D01*
G01*
X-21500000Y-35500000D02*
G75*
G02*
X-17500000Y-35500000I2000000J0D01*
G01*
D10*
X16830000Y11980000D02*
X19750000Y11980000D01*
X19750000Y14520000D02*
G75*
G02*
X20750000Y13520000I0J-1000000D01*
G01*
D16*
X8183333Y11348034D02*
X8116666Y11381367D01*
X8116666Y11381367D02*
X8016666Y11381367D01*
X8016666Y11381367D02*
X7916666Y11348034D01*
X7916666Y11348034D02*
X7850000Y11281367D01*
X7850000Y11281367D02*
X7816666Y11214700D01*
X7816666Y11214700D02*
X7783333Y11081367D01*
X7783333Y11081367D02*
X7783333Y10981367D01*
X7783333Y10981367D02*
X7816666Y10848034D01*
X7816666Y10848034D02*
X7850000Y10781367D01*
X7850000Y10781367D02*
X7916666Y10714700D01*
X7916666Y10714700D02*
X8016666Y10681367D01*
X8016666Y10681367D02*
X8083333Y10681367D01*
X8083333Y10681367D02*
X8183333Y10714700D01*
X8183333Y10714700D02*
X8216666Y10748034D01*
X8216666Y10748034D02*
X8216666Y10981367D01*
X8216666Y10981367D02*
X8083333Y10981367D01*
X9550000Y10714700D02*
X9650000Y10681367D01*
X9650000Y10681367D02*
X9816667Y10681367D01*
X9816667Y10681367D02*
X9883333Y10714700D01*
X9883333Y10714700D02*
X9916667Y10748034D01*
X9916667Y10748034D02*
X9950000Y10814700D01*
X9950000Y10814700D02*
X9950000Y10881367D01*
X9950000Y10881367D02*
X9916667Y10948034D01*
X9916667Y10948034D02*
X9883333Y10981367D01*
X9883333Y10981367D02*
X9816667Y11014700D01*
X9816667Y11014700D02*
X9683333Y11048034D01*
X9683333Y11048034D02*
X9616667Y11081367D01*
X9616667Y11081367D02*
X9583333Y11114700D01*
X9583333Y11114700D02*
X9550000Y11181367D01*
X9550000Y11181367D02*
X9550000Y11248034D01*
X9550000Y11248034D02*
X9583333Y11314700D01*
X9583333Y11314700D02*
X9616667Y11348034D01*
X9616667Y11348034D02*
X9683333Y11381367D01*
X9683333Y11381367D02*
X9850000Y11381367D01*
X9850000Y11381367D02*
X9950000Y11348034D01*
X10183334Y11381367D02*
X10350000Y10681367D01*
X10350000Y10681367D02*
X10483334Y11181367D01*
X10483334Y11181367D02*
X10616667Y10681367D01*
X10616667Y10681367D02*
X10783334Y11381367D01*
X11450000Y10748034D02*
X11416667Y10714700D01*
X11416667Y10714700D02*
X11316667Y10681367D01*
X11316667Y10681367D02*
X11250000Y10681367D01*
X11250000Y10681367D02*
X11150000Y10714700D01*
X11150000Y10714700D02*
X11083334Y10781367D01*
X11083334Y10781367D02*
X11050000Y10848034D01*
X11050000Y10848034D02*
X11016667Y10981367D01*
X11016667Y10981367D02*
X11016667Y11081367D01*
X11016667Y11081367D02*
X11050000Y11214700D01*
X11050000Y11214700D02*
X11083334Y11281367D01*
X11083334Y11281367D02*
X11150000Y11348034D01*
X11150000Y11348034D02*
X11250000Y11381367D01*
X11250000Y11381367D02*
X11316667Y11381367D01*
X11316667Y11381367D02*
X11416667Y11348034D01*
X11416667Y11348034D02*
X11450000Y11314700D01*
D11*
X17392857Y12845400D02*
X17535714Y12797781D01*
X17535714Y12797781D02*
X17773809Y12797781D01*
X17773809Y12797781D02*
X17869047Y12845400D01*
X17869047Y12845400D02*
X17916666Y12893020D01*
X17916666Y12893020D02*
X17964285Y12988258D01*
X17964285Y12988258D02*
X17964285Y13083496D01*
X17964285Y13083496D02*
X17916666Y13178734D01*
X17916666Y13178734D02*
X17869047Y13226353D01*
X17869047Y13226353D02*
X17773809Y13273972D01*
X17773809Y13273972D02*
X17583333Y13321591D01*
X17583333Y13321591D02*
X17488095Y13369210D01*
X17488095Y13369210D02*
X17440476Y13416829D01*
X17440476Y13416829D02*
X17392857Y13512067D01*
X17392857Y13512067D02*
X17392857Y13607305D01*
X17392857Y13607305D02*
X17440476Y13702543D01*
X17440476Y13702543D02*
X17488095Y13750162D01*
X17488095Y13750162D02*
X17583333Y13797781D01*
X17583333Y13797781D02*
X17821428Y13797781D01*
X17821428Y13797781D02*
X17964285Y13750162D01*
X18297619Y13797781D02*
X18535714Y12797781D01*
X18535714Y12797781D02*
X18726190Y13512067D01*
X18726190Y13512067D02*
X18916666Y12797781D01*
X18916666Y12797781D02*
X19154762Y13797781D01*
X19535714Y12797781D02*
X19535714Y13797781D01*
X19535714Y13797781D02*
X19773809Y13797781D01*
X19773809Y13797781D02*
X19916666Y13750162D01*
X19916666Y13750162D02*
X20011904Y13654924D01*
X20011904Y13654924D02*
X20059523Y13559686D01*
X20059523Y13559686D02*
X20107142Y13369210D01*
X20107142Y13369210D02*
X20107142Y13226353D01*
X20107142Y13226353D02*
X20059523Y13035877D01*
X20059523Y13035877D02*
X20011904Y12940639D01*
X20011904Y12940639D02*
X19916666Y12845400D01*
X19916666Y12845400D02*
X19773809Y12797781D01*
X19773809Y12797781D02*
X19535714Y12797781D01*
D16*
X12050000Y10714700D02*
X12150000Y10681367D01*
X12150000Y10681367D02*
X12316667Y10681367D01*
X12316667Y10681367D02*
X12383333Y10714700D01*
X12383333Y10714700D02*
X12416667Y10748034D01*
X12416667Y10748034D02*
X12450000Y10814700D01*
X12450000Y10814700D02*
X12450000Y10881367D01*
X12450000Y10881367D02*
X12416667Y10948034D01*
X12416667Y10948034D02*
X12383333Y10981367D01*
X12383333Y10981367D02*
X12316667Y11014700D01*
X12316667Y11014700D02*
X12183333Y11048034D01*
X12183333Y11048034D02*
X12116667Y11081367D01*
X12116667Y11081367D02*
X12083333Y11114700D01*
X12083333Y11114700D02*
X12050000Y11181367D01*
X12050000Y11181367D02*
X12050000Y11248034D01*
X12050000Y11248034D02*
X12083333Y11314700D01*
X12083333Y11314700D02*
X12116667Y11348034D01*
X12116667Y11348034D02*
X12183333Y11381367D01*
X12183333Y11381367D02*
X12350000Y11381367D01*
X12350000Y11381367D02*
X12450000Y11348034D01*
X12683334Y11381367D02*
X12850000Y10681367D01*
X12850000Y10681367D02*
X12983334Y11181367D01*
X12983334Y11181367D02*
X13116667Y10681367D01*
X13116667Y10681367D02*
X13283334Y11381367D01*
X13550000Y10681367D02*
X13550000Y11381367D01*
X13550000Y11381367D02*
X13716667Y11381367D01*
X13716667Y11381367D02*
X13816667Y11348034D01*
X13816667Y11348034D02*
X13883334Y11281367D01*
X13883334Y11281367D02*
X13916667Y11214700D01*
X13916667Y11214700D02*
X13950000Y11081367D01*
X13950000Y11081367D02*
X13950000Y10981367D01*
X13950000Y10981367D02*
X13916667Y10848034D01*
X13916667Y10848034D02*
X13883334Y10781367D01*
X13883334Y10781367D02*
X13816667Y10714700D01*
X13816667Y10714700D02*
X13716667Y10681367D01*
X13716667Y10681367D02*
X13550000Y10681367D01*
X14633333Y11381367D02*
X15066666Y11381367D01*
X15066666Y11381367D02*
X14833333Y11114700D01*
X14833333Y11114700D02*
X14933333Y11114700D01*
X14933333Y11114700D02*
X14999999Y11081367D01*
X14999999Y11081367D02*
X15033333Y11048034D01*
X15033333Y11048034D02*
X15066666Y10981367D01*
X15066666Y10981367D02*
X15066666Y10814700D01*
X15066666Y10814700D02*
X15033333Y10748034D01*
X15033333Y10748034D02*
X14999999Y10714700D01*
X14999999Y10714700D02*
X14933333Y10681367D01*
X14933333Y10681367D02*
X14733333Y10681367D01*
X14733333Y10681367D02*
X14666666Y10714700D01*
X14666666Y10714700D02*
X14633333Y10748034D01*
X15266666Y11381367D02*
X15500000Y10681367D01*
X15500000Y10681367D02*
X15733333Y11381367D01*
X15900000Y11381367D02*
X16333333Y11381367D01*
X16333333Y11381367D02*
X16100000Y11114700D01*
X16100000Y11114700D02*
X16200000Y11114700D01*
X16200000Y11114700D02*
X16266666Y11081367D01*
X16266666Y11081367D02*
X16300000Y11048034D01*
X16300000Y11048034D02*
X16333333Y10981367D01*
X16333333Y10981367D02*
X16333333Y10814700D01*
X16333333Y10814700D02*
X16300000Y10748034D01*
X16300000Y10748034D02*
X16266666Y10714700D01*
X16266666Y10714700D02*
X16200000Y10681367D01*
X16200000Y10681367D02*
X16000000Y10681367D01*
X16000000Y10681367D02*
X15933333Y10714700D01*
X15933333Y10714700D02*
X15900000Y10748034D01*
D10*
X20750000Y12980000D02*
G75*
G02*
X19750000Y11980000I-1000000J0D01*
G01*
X20750000Y12980000D02*
X20750000Y13520000D01*
D12*
X-15449367Y13949999D02*
X-15482700Y13849999D01*
X-15482700Y13849999D02*
X-15516034Y13816666D01*
X-15516034Y13816666D02*
X-15582700Y13783333D01*
X-15582700Y13783333D02*
X-15682700Y13783333D01*
X-15682700Y13783333D02*
X-15749367Y13816666D01*
X-15749367Y13816666D02*
X-15782700Y13849999D01*
X-15782700Y13849999D02*
X-15816034Y13916666D01*
X-15816034Y13916666D02*
X-15816034Y14183333D01*
X-15816034Y14183333D02*
X-15116034Y14183333D01*
X-15116034Y14183333D02*
X-15116034Y13949999D01*
X-15116034Y13949999D02*
X-15149367Y13883333D01*
X-15149367Y13883333D02*
X-15182700Y13849999D01*
X-15182700Y13849999D02*
X-15249367Y13816666D01*
X-15249367Y13816666D02*
X-15316034Y13816666D01*
X-15316034Y13816666D02*
X-15382700Y13849999D01*
X-15382700Y13849999D02*
X-15416034Y13883333D01*
X-15416034Y13883333D02*
X-15449367Y13949999D01*
X-15449367Y13949999D02*
X-15449367Y14183333D01*
X-15116034Y13349999D02*
X-15116034Y13216666D01*
X-15116034Y13216666D02*
X-15149367Y13149999D01*
X-15149367Y13149999D02*
X-15216034Y13083333D01*
X-15216034Y13083333D02*
X-15349367Y13049999D01*
X-15349367Y13049999D02*
X-15582700Y13049999D01*
X-15582700Y13049999D02*
X-15716034Y13083333D01*
X-15716034Y13083333D02*
X-15782700Y13149999D01*
X-15782700Y13149999D02*
X-15816034Y13216666D01*
X-15816034Y13216666D02*
X-15816034Y13349999D01*
X-15816034Y13349999D02*
X-15782700Y13416666D01*
X-15782700Y13416666D02*
X-15716034Y13483333D01*
X-15716034Y13483333D02*
X-15582700Y13516666D01*
X-15582700Y13516666D02*
X-15349367Y13516666D01*
X-15349367Y13516666D02*
X-15216034Y13483333D01*
X-15216034Y13483333D02*
X-15149367Y13416666D01*
X-15149367Y13416666D02*
X-15116034Y13349999D01*
X-15116034Y12616666D02*
X-15116034Y12483333D01*
X-15116034Y12483333D02*
X-15149367Y12416666D01*
X-15149367Y12416666D02*
X-15216034Y12350000D01*
X-15216034Y12350000D02*
X-15349367Y12316666D01*
X-15349367Y12316666D02*
X-15582700Y12316666D01*
X-15582700Y12316666D02*
X-15716034Y12350000D01*
X-15716034Y12350000D02*
X-15782700Y12416666D01*
X-15782700Y12416666D02*
X-15816034Y12483333D01*
X-15816034Y12483333D02*
X-15816034Y12616666D01*
X-15816034Y12616666D02*
X-15782700Y12683333D01*
X-15782700Y12683333D02*
X-15716034Y12750000D01*
X-15716034Y12750000D02*
X-15582700Y12783333D01*
X-15582700Y12783333D02*
X-15349367Y12783333D01*
X-15349367Y12783333D02*
X-15216034Y12750000D01*
X-15216034Y12750000D02*
X-15149367Y12683333D01*
X-15149367Y12683333D02*
X-15116034Y12616666D01*
X-15116034Y12116667D02*
X-15116034Y11716667D01*
X-15816034Y11916667D02*
X-15116034Y11916667D01*
X-15866034Y-5766666D02*
X-16432700Y-5766666D01*
X-16432700Y-5766666D02*
X-16499367Y-5800000D01*
X-16499367Y-5800000D02*
X-16532700Y-5833333D01*
X-16532700Y-5833333D02*
X-16566034Y-5900000D01*
X-16566034Y-5900000D02*
X-16566034Y-6033333D01*
X-16566034Y-6033333D02*
X-16532700Y-6100000D01*
X-16532700Y-6100000D02*
X-16499367Y-6133333D01*
X-16499367Y-6133333D02*
X-16432700Y-6166666D01*
X-16432700Y-6166666D02*
X-15866034Y-6166666D01*
X-16532700Y-6466666D02*
X-16566034Y-6566666D01*
X-16566034Y-6566666D02*
X-16566034Y-6733333D01*
X-16566034Y-6733333D02*
X-16532700Y-6799999D01*
X-16532700Y-6799999D02*
X-16499367Y-6833333D01*
X-16499367Y-6833333D02*
X-16432700Y-6866666D01*
X-16432700Y-6866666D02*
X-16366034Y-6866666D01*
X-16366034Y-6866666D02*
X-16299367Y-6833333D01*
X-16299367Y-6833333D02*
X-16266034Y-6799999D01*
X-16266034Y-6799999D02*
X-16232700Y-6733333D01*
X-16232700Y-6733333D02*
X-16199367Y-6599999D01*
X-16199367Y-6599999D02*
X-16166034Y-6533333D01*
X-16166034Y-6533333D02*
X-16132700Y-6499999D01*
X-16132700Y-6499999D02*
X-16066034Y-6466666D01*
X-16066034Y-6466666D02*
X-15999367Y-6466666D01*
X-15999367Y-6466666D02*
X-15932700Y-6499999D01*
X-15932700Y-6499999D02*
X-15899367Y-6533333D01*
X-15899367Y-6533333D02*
X-15866034Y-6599999D01*
X-15866034Y-6599999D02*
X-15866034Y-6766666D01*
X-15866034Y-6766666D02*
X-15899367Y-6866666D01*
X-16199367Y-7400000D02*
X-16232700Y-7500000D01*
X-16232700Y-7500000D02*
X-16266034Y-7533333D01*
X-16266034Y-7533333D02*
X-16332700Y-7566666D01*
X-16332700Y-7566666D02*
X-16432700Y-7566666D01*
X-16432700Y-7566666D02*
X-16499367Y-7533333D01*
X-16499367Y-7533333D02*
X-16532700Y-7500000D01*
X-16532700Y-7500000D02*
X-16566034Y-7433333D01*
X-16566034Y-7433333D02*
X-16566034Y-7166666D01*
X-16566034Y-7166666D02*
X-15866034Y-7166666D01*
X-15866034Y-7166666D02*
X-15866034Y-7400000D01*
X-15866034Y-7400000D02*
X-15899367Y-7466666D01*
X-15899367Y-7466666D02*
X-15932700Y-7500000D01*
X-15932700Y-7500000D02*
X-15999367Y-7533333D01*
X-15999367Y-7533333D02*
X-16066034Y-7533333D01*
X-16066034Y-7533333D02*
X-16132700Y-7500000D01*
X-16132700Y-7500000D02*
X-16166034Y-7466666D01*
X-16166034Y-7466666D02*
X-16199367Y-7400000D01*
X-16199367Y-7400000D02*
X-16199367Y-7166666D01*
X-16299367Y-7866666D02*
X-16299367Y-8400000D01*
X-16499367Y-9133333D02*
X-16532700Y-9100000D01*
X-16532700Y-9100000D02*
X-16566034Y-9000000D01*
X-16566034Y-9000000D02*
X-16566034Y-8933333D01*
X-16566034Y-8933333D02*
X-16532700Y-8833333D01*
X-16532700Y-8833333D02*
X-16466034Y-8766667D01*
X-16466034Y-8766667D02*
X-16399367Y-8733333D01*
X-16399367Y-8733333D02*
X-16266034Y-8700000D01*
X-16266034Y-8700000D02*
X-16166034Y-8700000D01*
X-16166034Y-8700000D02*
X-16032700Y-8733333D01*
X-16032700Y-8733333D02*
X-15966034Y-8766667D01*
X-15966034Y-8766667D02*
X-15899367Y-8833333D01*
X-15899367Y-8833333D02*
X-15866034Y-8933333D01*
X-15866034Y-8933333D02*
X-15866034Y-9000000D01*
X-15866034Y-9000000D02*
X-15899367Y-9100000D01*
X-15899367Y-9100000D02*
X-15932700Y-9133333D01*
X-16566034Y-9966666D02*
X-15866034Y-9966666D01*
X-15866034Y-9966666D02*
X-15866034Y-10233333D01*
X-15866034Y-10233333D02*
X-15899367Y-10300000D01*
X-15899367Y-10300000D02*
X-15932700Y-10333333D01*
X-15932700Y-10333333D02*
X-15999367Y-10366666D01*
X-15999367Y-10366666D02*
X-16099367Y-10366666D01*
X-16099367Y-10366666D02*
X-16166034Y-10333333D01*
X-16166034Y-10333333D02*
X-16199367Y-10300000D01*
X-16199367Y-10300000D02*
X-16232700Y-10233333D01*
X-16232700Y-10233333D02*
X-16232700Y-9966666D01*
X-16566034Y-10666666D02*
X-15866034Y-10666666D01*
X-15866034Y-10666666D02*
X-15866034Y-10833333D01*
X-15866034Y-10833333D02*
X-15899367Y-10933333D01*
X-15899367Y-10933333D02*
X-15966034Y-11000000D01*
X-15966034Y-11000000D02*
X-16032700Y-11033333D01*
X-16032700Y-11033333D02*
X-16166034Y-11066666D01*
X-16166034Y-11066666D02*
X-16266034Y-11066666D01*
X-16266034Y-11066666D02*
X-16399367Y-11033333D01*
X-16399367Y-11033333D02*
X-16466034Y-11000000D01*
X-16466034Y-11000000D02*
X-16532700Y-10933333D01*
X-16532700Y-10933333D02*
X-16566034Y-10833333D01*
X-16566034Y-10833333D02*
X-16566034Y-10666666D01*
D16*
X-2116668Y-14351966D02*
X-2150001Y-14385300D01*
X-2150001Y-14385300D02*
X-2250001Y-14418633D01*
X-2250001Y-14418633D02*
X-2316668Y-14418633D01*
X-2316668Y-14418633D02*
X-2416668Y-14385300D01*
X-2416668Y-14385300D02*
X-2483334Y-14318633D01*
X-2483334Y-14318633D02*
X-2516668Y-14251966D01*
X-2516668Y-14251966D02*
X-2550001Y-14118633D01*
X-2550001Y-14118633D02*
X-2550001Y-14018633D01*
X-2550001Y-14018633D02*
X-2516668Y-13885300D01*
X-2516668Y-13885300D02*
X-2483334Y-13818633D01*
X-2483334Y-13818633D02*
X-2416668Y-13751966D01*
X-2416668Y-13751966D02*
X-2316668Y-13718633D01*
X-2316668Y-13718633D02*
X-2250001Y-13718633D01*
X-2250001Y-13718633D02*
X-2150001Y-13751966D01*
X-2150001Y-13751966D02*
X-2116668Y-13785300D01*
X-1683334Y-14085300D02*
X-1683334Y-14418633D01*
X-1916668Y-13718633D02*
X-1683334Y-14085300D01*
X-1683334Y-14085300D02*
X-1450001Y-13718633D01*
X-1216668Y-14418633D02*
X-1216668Y-13718633D01*
X-1216668Y-13718633D02*
X-950001Y-13718633D01*
X-950001Y-13718633D02*
X-883334Y-13751966D01*
X-883334Y-13751966D02*
X-850001Y-13785300D01*
X-850001Y-13785300D02*
X-816668Y-13851966D01*
X-816668Y-13851966D02*
X-816668Y-13951966D01*
X-816668Y-13951966D02*
X-850001Y-14018633D01*
X-850001Y-14018633D02*
X-883334Y-14051966D01*
X-883334Y-14051966D02*
X-950001Y-14085300D01*
X-950001Y-14085300D02*
X-1216668Y-14085300D01*
X-516668Y-14418633D02*
X-516668Y-13718633D01*
X-516668Y-13718633D02*
X-350001Y-13718633D01*
X-350001Y-13718633D02*
X-250001Y-13751966D01*
X-250001Y-13751966D02*
X-183334Y-13818633D01*
X-183334Y-13818633D02*
X-150001Y-13885300D01*
X-150001Y-13885300D02*
X-116668Y-14018633D01*
X-116668Y-14018633D02*
X-116668Y-14118633D01*
X-116668Y-14118633D02*
X-150001Y-14251966D01*
X-150001Y-14251966D02*
X-183334Y-14318633D01*
X-183334Y-14318633D02*
X-250001Y-14385300D01*
X-250001Y-14385300D02*
X-350001Y-14418633D01*
X-350001Y-14418633D02*
X-516668Y-14418633D01*
X116666Y-13718633D02*
X549999Y-13718633D01*
X549999Y-13718633D02*
X316666Y-13985300D01*
X316666Y-13985300D02*
X416666Y-13985300D01*
X416666Y-13985300D02*
X483332Y-14018633D01*
X483332Y-14018633D02*
X516666Y-14051966D01*
X516666Y-14051966D02*
X549999Y-14118633D01*
X549999Y-14118633D02*
X549999Y-14285300D01*
X549999Y-14285300D02*
X516666Y-14351966D01*
X516666Y-14351966D02*
X483332Y-14385300D01*
X483332Y-14385300D02*
X416666Y-14418633D01*
X416666Y-14418633D02*
X216666Y-14418633D01*
X216666Y-14418633D02*
X149999Y-14385300D01*
X149999Y-14385300D02*
X116666Y-14351966D01*
X1216666Y-14418633D02*
X816666Y-14418633D01*
X1016666Y-14418633D02*
X1016666Y-13718633D01*
X1016666Y-13718633D02*
X949999Y-13818633D01*
X949999Y-13818633D02*
X883333Y-13885300D01*
X883333Y-13885300D02*
X816666Y-13918633D01*
X1450000Y-13718633D02*
X1916666Y-13718633D01*
X1916666Y-13718633D02*
X1616666Y-14418633D01*
X2116667Y-13718633D02*
X2583333Y-13718633D01*
X2583333Y-13718633D02*
X2283333Y-14418633D01*
D14*
X-157144Y11886145D02*
X-614287Y11886145D01*
X-385715Y11886145D02*
X-385715Y12686145D01*
X-385715Y12686145D02*
X-461906Y12571860D01*
X-461906Y12571860D02*
X-538096Y12495669D01*
X-538096Y12495669D02*
X-614287Y12457574D01*
X528571Y12686145D02*
X376190Y12686145D01*
X376190Y12686145D02*
X299999Y12648050D01*
X299999Y12648050D02*
X261904Y12609955D01*
X261904Y12609955D02*
X185714Y12495669D01*
X185714Y12495669D02*
X147618Y12343288D01*
X147618Y12343288D02*
X147618Y12038526D01*
X147618Y12038526D02*
X185714Y11962336D01*
X185714Y11962336D02*
X223809Y11924240D01*
X223809Y11924240D02*
X299999Y11886145D01*
X299999Y11886145D02*
X452380Y11886145D01*
X452380Y11886145D02*
X528571Y11924240D01*
X528571Y11924240D02*
X566666Y11962336D01*
X566666Y11962336D02*
X604761Y12038526D01*
X604761Y12038526D02*
X604761Y12229002D01*
X604761Y12229002D02*
X566666Y12305193D01*
X566666Y12305193D02*
X528571Y12343288D01*
X528571Y12343288D02*
X452380Y12381383D01*
X452380Y12381383D02*
X299999Y12381383D01*
X299999Y12381383D02*
X223809Y12343288D01*
X223809Y12343288D02*
X185714Y12305193D01*
X185714Y12305193D02*
X147618Y12229002D01*
X1557143Y11886145D02*
X1557143Y12686145D01*
X1557143Y12686145D02*
X1823809Y12114717D01*
X1823809Y12114717D02*
X2090476Y12686145D01*
X2090476Y12686145D02*
X2090476Y11886145D01*
X2471429Y11886145D02*
X2471429Y12686145D01*
X2471429Y12305193D02*
X2928572Y12305193D01*
X2928572Y11886145D02*
X2928572Y12686145D01*
X3233333Y12419479D02*
X3652381Y12419479D01*
X3652381Y12419479D02*
X3233333Y11886145D01*
X3233333Y11886145D02*
X3652381Y11886145D01*
D10*
X16830000Y14520000D02*
X19750000Y14520000D01*
X-21000000Y5000000D02*
X-21000000Y-2000000D01*
X-12250000Y5000000D02*
X-12250000Y-2000000D01*
X-13250000Y6000000D02*
X-20000000Y6000000D01*
X-13250000Y-3000000D02*
X-20000000Y-3000000D01*
D11*
X-19345239Y3821591D02*
X-19678572Y3821591D01*
X-19678572Y3297781D02*
X-19678572Y4297781D01*
X-19678572Y4297781D02*
X-19202382Y4297781D01*
X-18869048Y3583496D02*
X-18392858Y3583496D01*
X-18964286Y3297781D02*
X-18630953Y4297781D01*
X-18630953Y4297781D02*
X-18297620Y3297781D01*
X-17964286Y4297781D02*
X-17964286Y3488258D01*
X-17964286Y3488258D02*
X-17916667Y3393020D01*
X-17916667Y3393020D02*
X-17869048Y3345400D01*
X-17869048Y3345400D02*
X-17773810Y3297781D01*
X-17773810Y3297781D02*
X-17583334Y3297781D01*
X-17583334Y3297781D02*
X-17488096Y3345400D01*
X-17488096Y3345400D02*
X-17440477Y3393020D01*
X-17440477Y3393020D02*
X-17392858Y3488258D01*
X-17392858Y3488258D02*
X-17392858Y4297781D01*
X-16440477Y3297781D02*
X-16916667Y3297781D01*
X-16916667Y3297781D02*
X-16916667Y4297781D01*
X-16250000Y4297781D02*
X-15678572Y4297781D01*
X-15964286Y3297781D02*
X-15964286Y4297781D01*
X-20226191Y-1154600D02*
X-20083334Y-1202219D01*
X-20083334Y-1202219D02*
X-19845239Y-1202219D01*
X-19845239Y-1202219D02*
X-19750001Y-1154600D01*
X-19750001Y-1154600D02*
X-19702382Y-1106980D01*
X-19702382Y-1106980D02*
X-19654763Y-1011742D01*
X-19654763Y-1011742D02*
X-19654763Y-916504D01*
X-19654763Y-916504D02*
X-19702382Y-821266D01*
X-19702382Y-821266D02*
X-19750001Y-773647D01*
X-19750001Y-773647D02*
X-19845239Y-726028D01*
X-19845239Y-726028D02*
X-20035715Y-678409D01*
X-20035715Y-678409D02*
X-20130953Y-630790D01*
X-20130953Y-630790D02*
X-20178572Y-583171D01*
X-20178572Y-583171D02*
X-20226191Y-487933D01*
X-20226191Y-487933D02*
X-20226191Y-392695D01*
X-20226191Y-392695D02*
X-20178572Y-297457D01*
X-20178572Y-297457D02*
X-20130953Y-249838D01*
X-20130953Y-249838D02*
X-20035715Y-202219D01*
X-20035715Y-202219D02*
X-19797620Y-202219D01*
X-19797620Y-202219D02*
X-19654763Y-249838D01*
X-19369048Y-202219D02*
X-18797620Y-202219D01*
X-19083334Y-1202219D02*
X-19083334Y-202219D01*
X-18511905Y-916504D02*
X-18035715Y-916504D01*
X-18607143Y-1202219D02*
X-18273810Y-202219D01*
X-18273810Y-202219D02*
X-17940477Y-1202219D01*
X-17750000Y-202219D02*
X-17178572Y-202219D01*
X-17464286Y-1202219D02*
X-17464286Y-202219D01*
X-16845238Y-202219D02*
X-16845238Y-1011742D01*
X-16845238Y-1011742D02*
X-16797619Y-1106980D01*
X-16797619Y-1106980D02*
X-16750000Y-1154600D01*
X-16750000Y-1154600D02*
X-16654762Y-1202219D01*
X-16654762Y-1202219D02*
X-16464286Y-1202219D01*
X-16464286Y-1202219D02*
X-16369048Y-1154600D01*
X-16369048Y-1154600D02*
X-16321429Y-1106980D01*
X-16321429Y-1106980D02*
X-16273810Y-1011742D01*
X-16273810Y-1011742D02*
X-16273810Y-202219D01*
X-15845238Y-1154600D02*
X-15702381Y-1202219D01*
X-15702381Y-1202219D02*
X-15464286Y-1202219D01*
X-15464286Y-1202219D02*
X-15369048Y-1154600D01*
X-15369048Y-1154600D02*
X-15321429Y-1106980D01*
X-15321429Y-1106980D02*
X-15273810Y-1011742D01*
X-15273810Y-1011742D02*
X-15273810Y-916504D01*
X-15273810Y-916504D02*
X-15321429Y-821266D01*
X-15321429Y-821266D02*
X-15369048Y-773647D01*
X-15369048Y-773647D02*
X-15464286Y-726028D01*
X-15464286Y-726028D02*
X-15654762Y-678409D01*
X-15654762Y-678409D02*
X-15750000Y-630790D01*
X-15750000Y-630790D02*
X-15797619Y-583171D01*
X-15797619Y-583171D02*
X-15845238Y-487933D01*
X-15845238Y-487933D02*
X-15845238Y-392695D01*
X-15845238Y-392695D02*
X-15797619Y-297457D01*
X-15797619Y-297457D02*
X-15750000Y-249838D01*
X-15750000Y-249838D02*
X-15654762Y-202219D01*
X-15654762Y-202219D02*
X-15416667Y-202219D01*
X-15416667Y-202219D02*
X-15273810Y-249838D01*
D10*
X-12250000Y1500000D02*
X-21000000Y1500000D01*
D17*
X7157565Y-33182822D02*
X6824231Y-33182822D01*
X6824231Y-33182822D02*
X6824231Y-32482822D01*
X7790898Y-33116155D02*
X7757565Y-33149489D01*
X7757565Y-33149489D02*
X7657565Y-33182822D01*
X7657565Y-33182822D02*
X7590898Y-33182822D01*
X7590898Y-33182822D02*
X7490898Y-33149489D01*
X7490898Y-33149489D02*
X7424232Y-33082822D01*
X7424232Y-33082822D02*
X7390898Y-33016155D01*
X7390898Y-33016155D02*
X7357565Y-32882822D01*
X7357565Y-32882822D02*
X7357565Y-32782822D01*
X7357565Y-32782822D02*
X7390898Y-32649489D01*
X7390898Y-32649489D02*
X7424232Y-32582822D01*
X7424232Y-32582822D02*
X7490898Y-32516155D01*
X7490898Y-32516155D02*
X7590898Y-32482822D01*
X7590898Y-32482822D02*
X7657565Y-32482822D01*
X7657565Y-32482822D02*
X7757565Y-32516155D01*
X7757565Y-32516155D02*
X7790898Y-32549489D01*
X6757565Y-33609783D02*
X7190898Y-33609783D01*
X7190898Y-33609783D02*
X6957565Y-33876450D01*
X6957565Y-33876450D02*
X7057565Y-33876450D01*
X7057565Y-33876450D02*
X7124231Y-33909783D01*
X7124231Y-33909783D02*
X7157565Y-33943116D01*
X7157565Y-33943116D02*
X7190898Y-34009783D01*
X7190898Y-34009783D02*
X7190898Y-34176450D01*
X7190898Y-34176450D02*
X7157565Y-34243116D01*
X7157565Y-34243116D02*
X7124231Y-34276450D01*
X7124231Y-34276450D02*
X7057565Y-34309783D01*
X7057565Y-34309783D02*
X6857565Y-34309783D01*
X6857565Y-34309783D02*
X6790898Y-34276450D01*
X6790898Y-34276450D02*
X6757565Y-34243116D01*
X7990898Y-34276450D02*
X8090898Y-34309783D01*
X8090898Y-34309783D02*
X8257565Y-34309783D01*
X8257565Y-34309783D02*
X8324231Y-34276450D01*
X8324231Y-34276450D02*
X8357565Y-34243116D01*
X8357565Y-34243116D02*
X8390898Y-34176450D01*
X8390898Y-34176450D02*
X8390898Y-34109783D01*
X8390898Y-34109783D02*
X8357565Y-34043116D01*
X8357565Y-34043116D02*
X8324231Y-34009783D01*
X8324231Y-34009783D02*
X8257565Y-33976450D01*
X8257565Y-33976450D02*
X8124231Y-33943116D01*
X8124231Y-33943116D02*
X8057565Y-33909783D01*
X8057565Y-33909783D02*
X8024231Y-33876450D01*
X8024231Y-33876450D02*
X7990898Y-33809783D01*
X7990898Y-33809783D02*
X7990898Y-33743116D01*
X7990898Y-33743116D02*
X8024231Y-33676450D01*
X8024231Y-33676450D02*
X8057565Y-33643116D01*
X8057565Y-33643116D02*
X8124231Y-33609783D01*
X8124231Y-33609783D02*
X8290898Y-33609783D01*
X8290898Y-33609783D02*
X8390898Y-33643116D01*
X8957565Y-34276450D02*
X8890898Y-34309783D01*
X8890898Y-34309783D02*
X8757565Y-34309783D01*
X8757565Y-34309783D02*
X8690898Y-34276450D01*
X8690898Y-34276450D02*
X8657565Y-34209783D01*
X8657565Y-34209783D02*
X8657565Y-33943116D01*
X8657565Y-33943116D02*
X8690898Y-33876450D01*
X8690898Y-33876450D02*
X8757565Y-33843116D01*
X8757565Y-33843116D02*
X8890898Y-33843116D01*
X8890898Y-33843116D02*
X8957565Y-33876450D01*
X8957565Y-33876450D02*
X8990898Y-33943116D01*
X8990898Y-33943116D02*
X8990898Y-34009783D01*
X8990898Y-34009783D02*
X8657565Y-34076450D01*
X9290898Y-33843116D02*
X9290898Y-34543116D01*
X9290898Y-33876450D02*
X9357565Y-33843116D01*
X9357565Y-33843116D02*
X9490898Y-33843116D01*
X9490898Y-33843116D02*
X9557565Y-33876450D01*
X9557565Y-33876450D02*
X9590898Y-33909783D01*
X9590898Y-33909783D02*
X9624232Y-33976450D01*
X9624232Y-33976450D02*
X9624232Y-34176450D01*
X9624232Y-34176450D02*
X9590898Y-34243116D01*
X9590898Y-34243116D02*
X9557565Y-34276450D01*
X9557565Y-34276450D02*
X9490898Y-34309783D01*
X9490898Y-34309783D02*
X9357565Y-34309783D01*
X9357565Y-34309783D02*
X9290898Y-34276450D01*
X10424231Y-33676450D02*
X10457564Y-33643116D01*
X10457564Y-33643116D02*
X10524231Y-33609783D01*
X10524231Y-33609783D02*
X10690898Y-33609783D01*
X10690898Y-33609783D02*
X10757564Y-33643116D01*
X10757564Y-33643116D02*
X10790898Y-33676450D01*
X10790898Y-33676450D02*
X10824231Y-33743116D01*
X10824231Y-33743116D02*
X10824231Y-33809783D01*
X10824231Y-33809783D02*
X10790898Y-33909783D01*
X10790898Y-33909783D02*
X10390898Y-34309783D01*
X10390898Y-34309783D02*
X10824231Y-34309783D01*
X11257565Y-33609783D02*
X11324231Y-33609783D01*
X11324231Y-33609783D02*
X11390898Y-33643116D01*
X11390898Y-33643116D02*
X11424231Y-33676450D01*
X11424231Y-33676450D02*
X11457565Y-33743116D01*
X11457565Y-33743116D02*
X11490898Y-33876450D01*
X11490898Y-33876450D02*
X11490898Y-34043116D01*
X11490898Y-34043116D02*
X11457565Y-34176450D01*
X11457565Y-34176450D02*
X11424231Y-34243116D01*
X11424231Y-34243116D02*
X11390898Y-34276450D01*
X11390898Y-34276450D02*
X11324231Y-34309783D01*
X11324231Y-34309783D02*
X11257565Y-34309783D01*
X11257565Y-34309783D02*
X11190898Y-34276450D01*
X11190898Y-34276450D02*
X11157565Y-34243116D01*
X11157565Y-34243116D02*
X11124231Y-34176450D01*
X11124231Y-34176450D02*
X11090898Y-34043116D01*
X11090898Y-34043116D02*
X11090898Y-33876450D01*
X11090898Y-33876450D02*
X11124231Y-33743116D01*
X11124231Y-33743116D02*
X11157565Y-33676450D01*
X11157565Y-33676450D02*
X11190898Y-33643116D01*
X11190898Y-33643116D02*
X11257565Y-33609783D01*
X11757565Y-33676450D02*
X11790898Y-33643116D01*
X11790898Y-33643116D02*
X11857565Y-33609783D01*
X11857565Y-33609783D02*
X12024232Y-33609783D01*
X12024232Y-33609783D02*
X12090898Y-33643116D01*
X12090898Y-33643116D02*
X12124232Y-33676450D01*
X12124232Y-33676450D02*
X12157565Y-33743116D01*
X12157565Y-33743116D02*
X12157565Y-33809783D01*
X12157565Y-33809783D02*
X12124232Y-33909783D01*
X12124232Y-33909783D02*
X11724232Y-34309783D01*
X11724232Y-34309783D02*
X12157565Y-34309783D01*
X12790899Y-33609783D02*
X12457565Y-33609783D01*
X12457565Y-33609783D02*
X12424232Y-33943116D01*
X12424232Y-33943116D02*
X12457565Y-33909783D01*
X12457565Y-33909783D02*
X12524232Y-33876450D01*
X12524232Y-33876450D02*
X12690899Y-33876450D01*
X12690899Y-33876450D02*
X12757565Y-33909783D01*
X12757565Y-33909783D02*
X12790899Y-33943116D01*
X12790899Y-33943116D02*
X12824232Y-34009783D01*
X12824232Y-34009783D02*
X12824232Y-34176450D01*
X12824232Y-34176450D02*
X12790899Y-34243116D01*
X12790899Y-34243116D02*
X12757565Y-34276450D01*
X12757565Y-34276450D02*
X12690899Y-34309783D01*
X12690899Y-34309783D02*
X12524232Y-34309783D01*
X12524232Y-34309783D02*
X12457565Y-34276450D01*
X12457565Y-34276450D02*
X12424232Y-34243116D01*
D11*
%TO.C,J3*%
X-19060000Y9270000D02*
X-17160000Y9270000D01*
X-19060000Y6730000D02*
X-19060000Y9270000D01*
X-13980000Y9270000D02*
X-17160000Y9270000D01*
X-13980000Y9270000D02*
X-13980000Y6730000D01*
X-13980000Y6730000D02*
X-19060000Y6730000D01*
D10*
%TO.C,J2*%
X-18600000Y-12500000D02*
X-16700000Y-12500000D01*
X-22270000Y-12500000D02*
X-20800000Y-12500000D01*
X-18600000Y-21500000D02*
X-16700000Y-21500000D01*
X-22270000Y-21500000D02*
X-22270000Y-12500000D01*
X-22270000Y-21500000D02*
X-20800000Y-21500000D01*
D14*
%TO.C,TP3*%
X-13550000Y-35500000D02*
G75*
G02*
X-15450000Y-35500000I-950000J0D01*
G01*
X-15450000Y-35500000D02*
G75*
G02*
X-13550000Y-35500000I950000J0D01*
G01*
%TO.C,TP2*%
X27450000Y-35500000D02*
G75*
G02*
X25550000Y-35500000I-950000J0D01*
G01*
X25550000Y-35500000D02*
G75*
G02*
X27450000Y-35500000I950000J0D01*
G01*
%TO.C,TP1*%
X32450000Y-30250000D02*
G75*
G02*
X30550000Y-30250000I-950000J0D01*
G01*
X30550000Y-30250000D02*
G75*
G02*
X32450000Y-30250000I950000J0D01*
G01*
D10*
%TO.C,L1*%
X24850000Y-1400000D02*
X24850000Y5900000D01*
X27000000Y-1400000D02*
X24850000Y-1400000D01*
X32150000Y-1400000D02*
X30000000Y-1400000D01*
X24850000Y5900000D02*
X27000000Y5900000D01*
X30000000Y5900000D02*
X32150000Y5900000D01*
X32150000Y5900000D02*
X32150000Y-1400000D01*
%TO.C,SW1*%
X-11300000Y11427500D02*
X-10080000Y11427500D01*
X-11300000Y11427500D02*
X-11300000Y14927500D01*
X-8500000Y11427500D02*
X-7540000Y11427500D01*
X-5960000Y11427500D02*
X-5000000Y11427500D01*
X-3420000Y11427500D02*
X-2200000Y11427500D01*
X-11300000Y14927500D02*
X-2200000Y14927500D01*
X-8500000Y14927500D02*
X-8490000Y14927500D01*
X-7000000Y14927500D02*
X-6980000Y14927500D01*
X-2200000Y14927500D02*
X-2200000Y11427500D01*
D18*
%TO.C,G\u002A\u002A\u002A*%
G36*
X22515109Y-7012094D02*
G01*
X22525916Y-7014533D01*
X22554554Y-7025348D01*
X22579239Y-7041125D01*
X22599652Y-7061511D01*
X22615471Y-7086150D01*
X22626375Y-7114687D01*
X22629677Y-7129161D01*
X22631613Y-7142206D01*
X22631855Y-7153392D01*
X22630328Y-7165805D01*
X22628542Y-7175073D01*
X22625088Y-7189986D01*
X22621010Y-7202966D01*
X22615711Y-7214814D01*
X22608593Y-7226331D01*
X22599061Y-7238320D01*
X22586519Y-7251581D01*
X22570369Y-7266917D01*
X22550016Y-7285130D01*
X22540409Y-7293534D01*
X22524174Y-7307689D01*
X22509457Y-7320539D01*
X22496990Y-7331444D01*
X22487505Y-7339765D01*
X22481731Y-7344860D01*
X22480386Y-7346072D01*
X22477221Y-7348884D01*
X22469766Y-7355426D01*
X22458588Y-7365204D01*
X22444255Y-7377720D01*
X22427335Y-7392480D01*
X22408394Y-7408988D01*
X22388340Y-7426454D01*
X22368061Y-7444121D01*
X22349329Y-7460463D01*
X22332697Y-7474998D01*
X22318716Y-7487241D01*
X22307938Y-7496710D01*
X22300916Y-7502921D01*
X22298200Y-7505390D01*
X22295397Y-7507973D01*
X22288476Y-7514137D01*
X22278171Y-7523234D01*
X22265220Y-7534613D01*
X22250356Y-7547627D01*
X22245158Y-7552169D01*
X22193725Y-7597086D01*
X23225424Y-7598720D01*
X23322291Y-7598875D01*
X23412928Y-7599024D01*
X23497545Y-7599167D01*
X23576352Y-7599307D01*
X23649559Y-7599444D01*
X23717374Y-7599582D01*
X23780006Y-7599719D01*
X23837666Y-7599859D01*
X23890563Y-7600003D01*
X23938906Y-7600152D01*
X23982904Y-7600308D01*
X24022767Y-7600471D01*
X24058705Y-7600644D01*
X24090926Y-7600829D01*
X24119640Y-7601025D01*
X24145057Y-7601236D01*
X24167386Y-7601461D01*
X24186836Y-7601704D01*
X24203617Y-7601965D01*
X24217938Y-7602245D01*
X24230009Y-7602547D01*
X24240038Y-7602871D01*
X24248236Y-7603219D01*
X24254812Y-7603593D01*
X24259975Y-7603994D01*
X24263934Y-7604423D01*
X24266900Y-7604882D01*
X24269080Y-7605373D01*
X24270686Y-7605896D01*
X24270890Y-7605977D01*
X24298570Y-7620508D01*
X24321724Y-7639361D01*
X24340025Y-7661974D01*
X24353142Y-7687789D01*
X24360748Y-7716242D01*
X24362514Y-7746774D01*
X24361396Y-7760404D01*
X24355000Y-7786821D01*
X24342975Y-7811522D01*
X24326076Y-7833632D01*
X24305057Y-7852276D01*
X24280672Y-7866580D01*
X24264415Y-7872816D01*
X24262458Y-7873376D01*
X24260159Y-7873900D01*
X24257309Y-7874388D01*
X24253694Y-7874843D01*
X24249102Y-7875265D01*
X24243323Y-7875656D01*
X24236144Y-7876017D01*
X24227354Y-7876349D01*
X24216740Y-7876653D01*
X24204091Y-7876930D01*
X24189196Y-7877183D01*
X24171841Y-7877411D01*
X24151816Y-7877616D01*
X24128909Y-7877800D01*
X24102908Y-7877963D01*
X24073601Y-7878107D01*
X24040776Y-7878233D01*
X24004222Y-7878341D01*
X23963727Y-7878435D01*
X23919079Y-7878513D01*
X23870065Y-7878579D01*
X23816476Y-7878632D01*
X23758098Y-7878675D01*
X23694720Y-7878708D01*
X23626130Y-7878733D01*
X23552116Y-7878750D01*
X23472467Y-7878761D01*
X23386970Y-7878768D01*
X23295414Y-7878771D01*
X23218507Y-7878771D01*
X22191731Y-7878771D01*
X22243966Y-7924646D01*
X22260271Y-7938946D01*
X22280233Y-7956421D01*
X22302651Y-7976022D01*
X22326324Y-7996700D01*
X22350051Y-8017404D01*
X22372629Y-8037085D01*
X22375268Y-8039383D01*
X22395631Y-8057132D01*
X22415513Y-8074486D01*
X22434103Y-8090738D01*
X22450595Y-8105180D01*
X22464181Y-8117105D01*
X22474052Y-8125807D01*
X22476870Y-8128306D01*
X22486968Y-8137237D01*
X22500581Y-8149193D01*
X22516351Y-8162986D01*
X22532922Y-8177430D01*
X22544474Y-8187467D01*
X22566341Y-8206768D01*
X22583719Y-8223044D01*
X22597248Y-8237167D01*
X22607567Y-8250005D01*
X22615313Y-8262430D01*
X22621127Y-8275312D01*
X22625648Y-8289520D01*
X22628707Y-8302173D01*
X22631452Y-8316172D01*
X22632445Y-8326929D01*
X22631764Y-8337374D01*
X22629924Y-8348204D01*
X22621084Y-8378846D01*
X22607327Y-8405427D01*
X22588822Y-8427753D01*
X22565739Y-8445630D01*
X22538248Y-8458867D01*
X22530453Y-8461507D01*
X22501781Y-8467316D01*
X22473552Y-8466708D01*
X22445800Y-8459692D01*
X22418558Y-8446275D01*
X22391858Y-8426467D01*
X22391559Y-8426206D01*
X22385434Y-8420857D01*
X22374941Y-8411697D01*
X22360564Y-8399147D01*
X22342787Y-8383631D01*
X22322094Y-8365569D01*
X22298967Y-8345385D01*
X22273891Y-8323499D01*
X22247349Y-8300336D01*
X22219825Y-8276315D01*
X22216109Y-8273072D01*
X22189164Y-8249550D01*
X22163662Y-8227275D01*
X22140015Y-8206607D01*
X22118637Y-8187909D01*
X22099939Y-8171541D01*
X22084336Y-8157864D01*
X22072239Y-8147241D01*
X22064061Y-8140032D01*
X22060215Y-8136599D01*
X22059975Y-8136368D01*
X22057257Y-8133901D01*
X22050232Y-8127694D01*
X22039450Y-8118230D01*
X22025465Y-8105993D01*
X22008829Y-8091465D01*
X21990093Y-8075131D01*
X21969835Y-8057494D01*
X21949457Y-8039757D01*
X21930541Y-8023277D01*
X21913655Y-8008550D01*
X21899367Y-7996072D01*
X21888244Y-7986339D01*
X21880855Y-7979847D01*
X21877781Y-7977105D01*
X21874535Y-7974201D01*
X21867072Y-7967625D01*
X21856026Y-7957935D01*
X21842034Y-7945688D01*
X21825732Y-7931440D01*
X21807758Y-7915751D01*
X21802269Y-7910964D01*
X21777794Y-7889570D01*
X21757690Y-7871836D01*
X21741436Y-7857231D01*
X21728513Y-7845224D01*
X21718403Y-7835287D01*
X21710585Y-7826890D01*
X21704541Y-7819501D01*
X21699751Y-7812593D01*
X21695696Y-7805633D01*
X21692059Y-7798509D01*
X21687647Y-7789153D01*
X21684708Y-7781380D01*
X21682943Y-7773471D01*
X21682054Y-7763703D01*
X21681744Y-7750356D01*
X21681711Y-7738733D01*
X21681803Y-7722074D01*
X21682276Y-7710132D01*
X21683429Y-7701187D01*
X21685558Y-7693519D01*
X21688962Y-7685408D01*
X21692039Y-7678999D01*
X21699858Y-7665608D01*
X21710866Y-7651248D01*
X21725655Y-7635269D01*
X21744817Y-7617022D01*
X21763802Y-7600259D01*
X21775381Y-7590286D01*
X21784693Y-7582253D01*
X21792969Y-7575089D01*
X21801442Y-7567726D01*
X21811343Y-7559091D01*
X21823904Y-7548116D01*
X21836236Y-7537335D01*
X21850958Y-7524462D01*
X21865386Y-7511845D01*
X21878190Y-7500650D01*
X21888036Y-7492041D01*
X21890963Y-7489481D01*
X21927556Y-7457479D01*
X21959858Y-7429214D01*
X21987792Y-7404753D01*
X22011285Y-7384162D01*
X22030259Y-7367508D01*
X22044639Y-7354857D01*
X22054349Y-7346276D01*
X22059315Y-7341830D01*
X22059975Y-7341204D01*
X22062867Y-7338561D01*
X22069731Y-7332517D01*
X22079655Y-7323868D01*
X22091727Y-7313411D01*
X22096965Y-7308889D01*
X22110894Y-7296840D01*
X22124249Y-7285221D01*
X22135700Y-7275192D01*
X22143916Y-7267918D01*
X22145254Y-7266714D01*
X22151381Y-7261250D01*
X22161481Y-7252324D01*
X22174680Y-7240706D01*
X22190100Y-7227169D01*
X22206864Y-7212482D01*
X22216109Y-7204397D01*
X22252482Y-7172598D01*
X22284351Y-7144753D01*
X22312066Y-7120585D01*
X22335977Y-7099817D01*
X22356436Y-7082175D01*
X22373793Y-7067381D01*
X22388399Y-7055161D01*
X22400604Y-7045239D01*
X22410759Y-7037338D01*
X22419215Y-7031182D01*
X22426322Y-7026497D01*
X22432431Y-7023005D01*
X22437894Y-7020432D01*
X22443059Y-7018501D01*
X22448279Y-7016936D01*
X22453904Y-7015462D01*
X22457425Y-7014556D01*
X22486514Y-7010122D01*
X22515109Y-7012094D01*
G37*
D12*
%TO.C,SW2*%
X20030000Y-9290000D02*
X20030000Y-8630000D01*
X20030000Y-6210000D02*
X20030000Y-6870000D01*
X15970000Y-9290000D02*
X20030000Y-9290000D01*
X15970000Y-9290000D02*
X15970000Y-8630000D01*
X15970000Y-6210000D02*
X20030000Y-6210000D01*
X15970000Y-6210000D02*
X15970000Y-6870000D01*
D10*
X18900000Y-7750000D02*
G75*
G02*
X17100000Y-7750000I-900000J0D01*
G01*
X17100000Y-7750000D02*
G75*
G02*
X18900000Y-7750000I900000J0D01*
G01*
D14*
%TO.C,R32*%
X14880000Y-23606359D02*
X14880000Y-23913641D01*
X14120000Y-23606359D02*
X14120000Y-23913641D01*
%TO.C,R31*%
X14880000Y-20846359D02*
X14880000Y-21153641D01*
X14120000Y-20846359D02*
X14120000Y-21153641D01*
%TO.C,R30*%
X14880000Y-18106359D02*
X14880000Y-18413641D01*
X14120000Y-18106359D02*
X14120000Y-18413641D01*
%TO.C,R29*%
X14880000Y-15346359D02*
X14880000Y-15653641D01*
X14120000Y-15346359D02*
X14120000Y-15653641D01*
%TO.C,R28*%
X14880000Y-12586359D02*
X14880000Y-12893641D01*
X14120000Y-12586359D02*
X14120000Y-12893641D01*
%TO.C,R27*%
X14772500Y-6687742D02*
X14772500Y-7162258D01*
X13727500Y-6687742D02*
X13727500Y-7162258D01*
%TO.C,D7*%
X18435000Y-24710000D02*
X18435000Y-22790000D01*
X18435000Y-22790000D02*
X15750000Y-22790000D01*
X15750000Y-24710000D02*
X18435000Y-24710000D01*
%TO.C,D6*%
X18435000Y-21960000D02*
X18435000Y-20040000D01*
X18435000Y-20040000D02*
X15750000Y-20040000D01*
X15750000Y-21960000D02*
X18435000Y-21960000D01*
%TO.C,D5*%
X18435000Y-19210000D02*
X18435000Y-17290000D01*
X18435000Y-17290000D02*
X15750000Y-17290000D01*
X15750000Y-19210000D02*
X18435000Y-19210000D01*
%TO.C,D4*%
X18435000Y-16460000D02*
X18435000Y-14540000D01*
X18435000Y-14540000D02*
X15750000Y-14540000D01*
X15750000Y-16460000D02*
X18435000Y-16460000D01*
%TO.C,D3*%
X18435000Y-13710000D02*
X18435000Y-11790000D01*
X18435000Y-11790000D02*
X15750000Y-11790000D01*
X15750000Y-13710000D02*
X18435000Y-13710000D01*
%TO.C,C26*%
X14860000Y-9412164D02*
X14860000Y-9627836D01*
X14140000Y-9412164D02*
X14140000Y-9627836D01*
D10*
%TO.C,J1*%
X9230000Y14520000D02*
X16830000Y14520000D01*
X16830000Y14520000D02*
X16830000Y11980000D01*
X16830000Y11980000D02*
X6670000Y11980000D01*
X6670000Y11980000D02*
X6670000Y14520000D01*
X6670000Y14520000D02*
X9230000Y14520000D01*
X9230000Y14520000D02*
X9230000Y11980000D01*
D14*
%TO.C,R13*%
X-5772500Y-10762742D02*
X-5772500Y-11237258D01*
X-4727500Y-10762742D02*
X-4727500Y-11237258D01*
D18*
%TO.C,G\u002A\u002A\u002A*%
G36*
X2486541Y-32247765D02*
G01*
X2494768Y-32300911D01*
X2513108Y-32368793D01*
X2539467Y-32446133D01*
X2571753Y-32527653D01*
X2607870Y-32608076D01*
X2645727Y-32682122D01*
X2683229Y-32744515D01*
X2684059Y-32745754D01*
X2708314Y-32782092D01*
X2727811Y-32811746D01*
X2738412Y-32828422D01*
X2738522Y-32828610D01*
X2734114Y-32831238D01*
X2714239Y-32823547D01*
X2691539Y-32811760D01*
X2627096Y-32787800D01*
X2555487Y-32780932D01*
X2483477Y-32790410D01*
X2417826Y-32815489D01*
X2373823Y-32846847D01*
X2361036Y-32857935D01*
X2356477Y-32857828D01*
X2360648Y-32843628D01*
X2374053Y-32812435D01*
X2383403Y-32791706D01*
X2420809Y-32696259D01*
X2447911Y-32595563D01*
X2466049Y-32483553D01*
X2475408Y-32375080D01*
X2478889Y-32320473D01*
X2482039Y-32278452D01*
X2484576Y-32252233D01*
X2486220Y-32245034D01*
X2486541Y-32247765D01*
G37*
G36*
X1528006Y-31929400D02*
G01*
X1614778Y-31946958D01*
X1697142Y-31981745D01*
X1772184Y-32033771D01*
X1836993Y-32103050D01*
X1885026Y-32181935D01*
X1901556Y-32218841D01*
X1911735Y-32251426D01*
X1917085Y-32287734D01*
X1919129Y-32335805D01*
X1919376Y-32363359D01*
X1917679Y-32431574D01*
X1911479Y-32482746D01*
X1900001Y-32522973D01*
X1898728Y-32526153D01*
X1849144Y-32618479D01*
X1783896Y-32694404D01*
X1705274Y-32752604D01*
X1615567Y-32791752D01*
X1517066Y-32810522D01*
X1412592Y-32807659D01*
X1322242Y-32784332D01*
X1238419Y-32740376D01*
X1164554Y-32678400D01*
X1104078Y-32601012D01*
X1077967Y-32553252D01*
X1059469Y-32511496D01*
X1048338Y-32476582D01*
X1042759Y-32439518D01*
X1040916Y-32391313D01*
X1040818Y-32369220D01*
X1041750Y-32314721D01*
X1045758Y-32274639D01*
X1054656Y-32239983D01*
X1070260Y-32201761D01*
X1077967Y-32185187D01*
X1130003Y-32099622D01*
X1195111Y-32031215D01*
X1270379Y-31979978D01*
X1352893Y-31945922D01*
X1439740Y-31929058D01*
X1528006Y-31929400D01*
G37*
G36*
X2807577Y-29013540D02*
G01*
X3060066Y-29050085D01*
X3309278Y-29108175D01*
X3553651Y-29187889D01*
X3791626Y-29289309D01*
X3877249Y-29332094D01*
X4106331Y-29464098D01*
X4320166Y-29613159D01*
X4518180Y-29778065D01*
X4699802Y-29957603D01*
X4864458Y-30150562D01*
X5011575Y-30355730D01*
X5140581Y-30571894D01*
X5250900Y-30797843D01*
X5341962Y-31032365D01*
X5413193Y-31274248D01*
X5464019Y-31522280D01*
X5493868Y-31775248D01*
X5502167Y-32031941D01*
X5488342Y-32291147D01*
X5451821Y-32551654D01*
X5436396Y-32629678D01*
X5371838Y-32879746D01*
X5286134Y-33121327D01*
X5180381Y-33353328D01*
X5055678Y-33574657D01*
X4913125Y-33784220D01*
X4753820Y-33980924D01*
X4578862Y-34163677D01*
X4389351Y-34331385D01*
X4186384Y-34482956D01*
X3971061Y-34617296D01*
X3744480Y-34733312D01*
X3507742Y-34829912D01*
X3261943Y-34906002D01*
X3112785Y-34940901D01*
X2958423Y-34967227D01*
X2790502Y-34986092D01*
X2616269Y-34997176D01*
X2442972Y-35000164D01*
X2277860Y-34994737D01*
X2148361Y-34983149D01*
X1888092Y-34940017D01*
X1635420Y-34875301D01*
X1391423Y-34789893D01*
X1157182Y-34684687D01*
X933774Y-34560579D01*
X722278Y-34418460D01*
X523774Y-34259226D01*
X339340Y-34083770D01*
X170054Y-33892985D01*
X16996Y-33687766D01*
X-118755Y-33469006D01*
X-236121Y-33237600D01*
X-334023Y-32994440D01*
X-365488Y-32900437D01*
X-430261Y-32658058D01*
X-474124Y-32408026D01*
X-479841Y-32344576D01*
X484532Y-32344576D01*
X491028Y-32485636D01*
X517479Y-32624733D01*
X563884Y-32759489D01*
X630243Y-32887527D01*
X716557Y-33006469D01*
X751365Y-33045386D01*
X865147Y-33149924D01*
X989620Y-33234635D01*
X1122829Y-33298935D01*
X1262818Y-33342239D01*
X1407634Y-33363964D01*
X1555320Y-33363526D01*
X1703921Y-33340341D01*
X1723141Y-33335642D01*
X1866184Y-33287233D01*
X1999890Y-33217429D01*
X2123669Y-33126582D01*
X2211489Y-33042888D01*
X2248553Y-33005095D01*
X2272542Y-32984041D01*
X2282769Y-32980278D01*
X2282230Y-32985924D01*
X2274066Y-33033280D01*
X2274834Y-33090960D01*
X2283660Y-33147996D01*
X2298628Y-33191434D01*
X2345183Y-33259684D01*
X2404344Y-33310729D01*
X2472506Y-33343655D01*
X2546064Y-33357545D01*
X2621415Y-33351481D01*
X2694953Y-33324548D01*
X2731835Y-33301590D01*
X2787133Y-33247894D01*
X2826001Y-33181457D01*
X2846777Y-33107432D01*
X2847803Y-33030970D01*
X2835872Y-32978734D01*
X2817076Y-32923572D01*
X2903196Y-33005377D01*
X3036765Y-33116869D01*
X3181213Y-33208578D01*
X3334694Y-33279730D01*
X3495359Y-33329552D01*
X3661363Y-33357268D01*
X3756331Y-33362853D01*
X3888970Y-33365528D01*
X3888970Y-33095939D01*
X3888970Y-33088124D01*
X3929995Y-33088124D01*
X3930323Y-33165075D01*
X3931244Y-33234058D01*
X3932659Y-33291661D01*
X3934473Y-33334471D01*
X3936589Y-33359074D01*
X3937809Y-33363574D01*
X3952581Y-33367382D01*
X3984275Y-33370163D01*
X4026374Y-33371374D01*
X4031579Y-33371389D01*
X4117535Y-33371389D01*
X4117535Y-33095939D01*
X4117535Y-33088124D01*
X4164420Y-33088124D01*
X4164772Y-33165114D01*
X4165756Y-33234174D01*
X4167270Y-33291880D01*
X4169211Y-33334811D01*
X4171473Y-33359546D01*
X4172775Y-33364115D01*
X4188602Y-33368441D01*
X4218826Y-33369640D01*
X4234312Y-33368999D01*
X4287494Y-33365528D01*
X4290597Y-33096717D01*
X4340240Y-33096717D01*
X4340240Y-33372946D01*
X4372473Y-33369237D01*
X4404707Y-33365528D01*
X4407853Y-33093008D01*
X4407909Y-33088124D01*
X4407973Y-33082619D01*
X4457452Y-33082619D01*
X4457452Y-33088124D01*
X4457791Y-33165093D01*
X4458740Y-33234110D01*
X4460200Y-33291760D01*
X4462072Y-33334625D01*
X4464254Y-33359287D01*
X4465511Y-33363819D01*
X4475499Y-33370768D01*
X4483382Y-33367924D01*
X4489441Y-33353155D01*
X4493960Y-33324331D01*
X4497222Y-33279321D01*
X4499511Y-33215994D01*
X4501108Y-33132218D01*
X4501623Y-33092038D01*
X4502561Y-33005553D01*
X4502968Y-32939698D01*
X4502633Y-32891665D01*
X4501342Y-32858644D01*
X4498884Y-32837827D01*
X4495047Y-32826402D01*
X4489618Y-32821562D01*
X4482386Y-32820497D01*
X4481111Y-32820489D01*
X4473527Y-32821284D01*
X4467765Y-32825555D01*
X4463575Y-32836132D01*
X4460707Y-32855843D01*
X4458910Y-32887518D01*
X4457936Y-32933986D01*
X4457533Y-32998077D01*
X4457452Y-33082619D01*
X4407973Y-33082619D01*
X4410999Y-32820489D01*
X4375619Y-32820489D01*
X4340240Y-32820489D01*
X4340240Y-33096717D01*
X4290597Y-33096717D01*
X4290640Y-33093008D01*
X4293786Y-32820489D01*
X4229103Y-32820489D01*
X4164420Y-32820489D01*
X4164420Y-33088124D01*
X4117535Y-33088124D01*
X4117535Y-32820489D01*
X4023765Y-32820489D01*
X3929995Y-32820489D01*
X3929995Y-33088124D01*
X3888970Y-33088124D01*
X3888970Y-32826349D01*
X3804024Y-32820489D01*
X3789340Y-32819476D01*
X3695911Y-32810051D01*
X3616373Y-32794491D01*
X3541487Y-32770463D01*
X3467005Y-32738035D01*
X3349683Y-32669307D01*
X3247704Y-32583006D01*
X3161492Y-32479641D01*
X3091472Y-32359721D01*
X3038066Y-32223756D01*
X3037609Y-32222291D01*
X3017773Y-32131814D01*
X3009064Y-32029703D01*
X3011484Y-31924960D01*
X3025033Y-31826584D01*
X3037584Y-31777295D01*
X3076579Y-31670726D01*
X3124601Y-31578937D01*
X3186368Y-31494098D01*
X3249945Y-31424865D01*
X3340985Y-31343171D01*
X3434546Y-31280343D01*
X3535058Y-31234416D01*
X3646955Y-31203423D01*
X3774668Y-31185399D01*
X3793108Y-31183871D01*
X3894831Y-31176052D01*
X3894831Y-30908192D01*
X3894831Y-30907968D01*
X3929995Y-30907968D01*
X3930323Y-30984918D01*
X3931244Y-31053902D01*
X3932659Y-31111504D01*
X3934473Y-31154314D01*
X3936589Y-31178917D01*
X3937809Y-31183417D01*
X3952581Y-31187225D01*
X3984275Y-31190006D01*
X4026374Y-31191217D01*
X4031579Y-31191232D01*
X4117535Y-31191232D01*
X4117535Y-30916394D01*
X4164420Y-30916394D01*
X4164420Y-31192457D01*
X4225957Y-31188914D01*
X4287494Y-31185371D01*
X4290606Y-30915782D01*
X4340240Y-30915782D01*
X4340240Y-31191232D01*
X4375403Y-31191232D01*
X4410567Y-31191232D01*
X4410567Y-30916641D01*
X4457452Y-30916641D01*
X4457558Y-31004169D01*
X4458010Y-31070971D01*
X4459014Y-31119764D01*
X4460775Y-31153266D01*
X4463497Y-31174191D01*
X4467384Y-31185258D01*
X4472641Y-31189183D01*
X4477964Y-31189007D01*
X4484545Y-31186044D01*
X4489626Y-31178133D01*
X4493449Y-31162464D01*
X4496254Y-31136225D01*
X4498282Y-31096607D01*
X4499773Y-31040800D01*
X4500969Y-30965993D01*
X4501623Y-30912697D01*
X4502560Y-30826066D01*
X4502968Y-30760070D01*
X4502637Y-30711903D01*
X4501355Y-30678762D01*
X4498910Y-30657840D01*
X4495091Y-30646333D01*
X4489688Y-30641435D01*
X4482489Y-30640341D01*
X4481111Y-30640332D01*
X4473632Y-30641107D01*
X4467922Y-30645291D01*
X4463742Y-30655667D01*
X4460854Y-30675020D01*
X4459020Y-30706135D01*
X4458001Y-30751796D01*
X4457558Y-30814789D01*
X4457454Y-30897898D01*
X4457452Y-30916641D01*
X4410567Y-30916641D01*
X4410567Y-30915782D01*
X4410567Y-30640332D01*
X4375403Y-30640332D01*
X4340240Y-30640332D01*
X4340240Y-30915782D01*
X4290606Y-30915782D01*
X4290640Y-30912851D01*
X4293786Y-30640332D01*
X4229103Y-30640332D01*
X4164420Y-30640332D01*
X4164420Y-30916394D01*
X4117535Y-30916394D01*
X4117535Y-30915782D01*
X4117535Y-30640332D01*
X4023765Y-30640332D01*
X3929995Y-30640332D01*
X3929995Y-30907968D01*
X3894831Y-30907968D01*
X3894831Y-30640332D01*
X3790875Y-30640332D01*
X3630527Y-30651537D01*
X3469058Y-30684269D01*
X3310567Y-30737198D01*
X3159154Y-30808997D01*
X3039178Y-30883802D01*
X2967513Y-30940239D01*
X2890813Y-31011045D01*
X2815130Y-31089935D01*
X2746517Y-31170625D01*
X2694150Y-31242085D01*
X2625995Y-31356198D01*
X2569924Y-31476397D01*
X2523686Y-31608238D01*
X2485031Y-31757274D01*
X2484488Y-31759713D01*
X2483433Y-31753093D01*
X2482395Y-31725156D01*
X2481400Y-31678029D01*
X2480474Y-31613838D01*
X2479641Y-31534709D01*
X2478927Y-31442769D01*
X2478358Y-31340143D01*
X2477960Y-31228958D01*
X2477917Y-31211744D01*
X2476557Y-30640332D01*
X2201107Y-30640332D01*
X1925657Y-30640332D01*
X1925657Y-31054867D01*
X1925657Y-31469401D01*
X1811375Y-31430443D01*
X1662903Y-31389969D01*
X1520659Y-31371950D01*
X1384284Y-31376343D01*
X1375352Y-31377436D01*
X1221087Y-31407644D01*
X1079430Y-31457396D01*
X949142Y-31527318D01*
X828985Y-31618035D01*
X751365Y-31693053D01*
X658090Y-31808262D01*
X584769Y-31933396D01*
X531402Y-32066078D01*
X497990Y-32203931D01*
X484532Y-32344576D01*
X-479841Y-32344576D01*
X-497077Y-32153288D01*
X-499120Y-31896789D01*
X-480253Y-31641475D01*
X-440476Y-31390292D01*
X-379790Y-31146187D01*
X-365488Y-31099562D01*
X-274847Y-30851740D01*
X-163400Y-30613979D01*
X-32028Y-30387443D01*
X118386Y-30173295D01*
X286960Y-29972699D01*
X472812Y-29786818D01*
X675061Y-29616815D01*
X856933Y-29487163D01*
X1079463Y-29354237D01*
X1311200Y-29242215D01*
X1550584Y-29151176D01*
X1796053Y-29081201D01*
X2046048Y-29032370D01*
X2299007Y-29004762D01*
X2553370Y-28998460D01*
X2807577Y-29013540D01*
G37*
D19*
%TO.C,Q1*%
X-10370000Y-23840000D02*
G75*
G02*
X-10670000Y-23840000I-150000J0D01*
G01*
X-10670000Y-23840000D02*
G75*
G02*
X-10370000Y-23840000I150000J0D01*
G01*
X-11640000Y-22960000D02*
G75*
G02*
X-11940000Y-22960000I-150000J0D01*
G01*
X-11940000Y-22960000D02*
G75*
G02*
X-11640000Y-22960000I150000J0D01*
G01*
D10*
X-8620000Y-23250000D02*
G75*
G02*
X-9879073Y-23255182I-630000J109999D01*
G01*
X-7250000Y-28250000D02*
X-11250000Y-28250000D01*
X-11250000Y-28170000D02*
X-11250000Y-28250000D01*
X-7250000Y-28170000D02*
X-7250000Y-28250000D01*
X-11250000Y-26900000D02*
X-11250000Y-27140000D01*
X-7250000Y-26900000D02*
X-7250000Y-27140000D01*
X-11250000Y-25630000D02*
X-11250000Y-25870000D01*
X-7250000Y-25630000D02*
X-7250000Y-25870000D01*
X-11250000Y-24360000D02*
X-11250000Y-24600000D01*
X-7250000Y-24360000D02*
X-7250000Y-24600000D01*
X-11250000Y-23250000D02*
X-11250000Y-23330000D01*
X-11250000Y-23250000D02*
X-9880000Y-23250000D01*
X-7250000Y-23250000D02*
X-7250000Y-23330000D01*
X-7250000Y-23250000D02*
X-8620000Y-23250000D01*
D14*
%TO.C,R1*%
X-10727500Y-987258D02*
X-10727500Y-512742D01*
X-11772500Y-987258D02*
X-11772500Y-512742D01*
%TO.C,R12*%
X-11772500Y3924758D02*
X-11772500Y3450242D01*
X-10727500Y3924758D02*
X-10727500Y3450242D01*
D12*
%TO.C,Q3*%
X-10230000Y7530000D02*
X-10230000Y6490000D01*
X-10230000Y4470000D02*
X-10230000Y5510000D01*
X-8770000Y7530000D02*
X-10230000Y7530000D01*
X-8770000Y6460000D02*
X-8770000Y5540000D01*
X-8770000Y4470000D02*
X-10230000Y4470000D01*
D18*
%TO.C,G\u002A\u002A\u002A*%
G36*
X31002919Y-8979956D02*
G01*
X31040000Y-9010000D01*
X31058875Y-9034015D01*
X31070773Y-9066298D01*
X31077219Y-9115827D01*
X31079737Y-9191580D01*
X31080000Y-9245550D01*
X31077878Y-9350176D01*
X31070886Y-9422227D01*
X31058088Y-9468934D01*
X31048865Y-9485550D01*
X31003068Y-9523494D01*
X30950646Y-9524135D01*
X30911428Y-9498572D01*
X30896636Y-9474782D01*
X30887087Y-9434034D01*
X30881861Y-9369099D01*
X30880037Y-9272751D01*
X30880000Y-9251672D01*
X30880941Y-9152942D01*
X30884551Y-9086173D01*
X30892010Y-9043353D01*
X30904494Y-9016471D01*
X30916574Y-9003100D01*
X30961903Y-8973946D01*
X31002919Y-8979956D01*
G37*
G36*
X30659244Y-8749596D02*
G01*
X30672079Y-8758049D01*
X30681894Y-8771206D01*
X30689093Y-8794015D01*
X30694080Y-8831425D01*
X30697259Y-8888382D01*
X30699036Y-8969837D01*
X30699814Y-9080735D01*
X30699998Y-9226026D01*
X30700000Y-9248255D01*
X30699679Y-9401653D01*
X30698520Y-9519841D01*
X30696225Y-9607607D01*
X30692498Y-9669737D01*
X30687040Y-9711017D01*
X30679556Y-9736236D01*
X30669748Y-9750179D01*
X30668805Y-9750992D01*
X30627116Y-9766725D01*
X30583805Y-9757972D01*
X30530000Y-9739062D01*
X30524353Y-9289531D01*
X30523175Y-9157037D01*
X30523019Y-9036057D01*
X30523818Y-8932991D01*
X30525506Y-8854242D01*
X30528020Y-8806210D01*
X30529399Y-8796334D01*
X30557407Y-8753376D01*
X30605962Y-8736714D01*
X30659244Y-8749596D01*
G37*
G36*
X30295865Y-8493500D02*
G01*
X30310629Y-8511180D01*
X30321667Y-8544931D01*
X30329522Y-8598240D01*
X30334735Y-8674593D01*
X30337848Y-8777477D01*
X30339402Y-8910379D01*
X30339938Y-9076785D01*
X30340000Y-9250000D01*
X30339821Y-9440716D01*
X30339176Y-9595309D01*
X30337903Y-9717657D01*
X30335837Y-9811637D01*
X30332815Y-9881125D01*
X30328675Y-9930000D01*
X30323252Y-9962136D01*
X30316385Y-9981412D01*
X30308805Y-9990992D01*
X30267092Y-10006725D01*
X30223805Y-9997982D01*
X30170000Y-9979082D01*
X30164492Y-9664541D01*
X30158984Y-9350000D01*
X29588177Y-9350000D01*
X29409150Y-9349258D01*
X29257209Y-9347095D01*
X29135183Y-9343606D01*
X29045899Y-9338889D01*
X28992187Y-9333040D01*
X28978685Y-9329297D01*
X28947801Y-9293198D01*
X28939804Y-9242031D01*
X28954694Y-9193536D01*
X28978685Y-9170704D01*
X29011194Y-9164261D01*
X29080863Y-9158897D01*
X29184862Y-9154707D01*
X29320363Y-9151788D01*
X29484537Y-9150237D01*
X29588177Y-9150000D01*
X30158984Y-9150000D01*
X30164492Y-8835460D01*
X30170000Y-8520919D01*
X30223805Y-8502019D01*
X30252994Y-8492406D01*
X30276834Y-8488404D01*
X30295865Y-8493500D01*
G37*
G36*
X30237335Y-7670068D02*
G01*
X30391136Y-7696342D01*
X30428868Y-7706245D01*
X30663631Y-7793933D01*
X30879649Y-7914833D01*
X31073657Y-8065702D01*
X31242388Y-8243295D01*
X31382577Y-8444368D01*
X31490959Y-8665677D01*
X31540439Y-8810548D01*
X31558472Y-8893013D01*
X31573828Y-9000147D01*
X31585722Y-9120574D01*
X31593367Y-9242919D01*
X31595977Y-9355807D01*
X31592766Y-9447864D01*
X31587409Y-9490000D01*
X31518968Y-9748341D01*
X31418654Y-9984834D01*
X31288187Y-10197546D01*
X31129284Y-10384544D01*
X30943663Y-10543893D01*
X30733044Y-10673661D01*
X30499144Y-10771912D01*
X30428868Y-10793756D01*
X30305647Y-10819606D01*
X30157678Y-10835718D01*
X30007799Y-10841541D01*
X29998111Y-10841917D01*
X29840099Y-10838032D01*
X29696794Y-10823889D01*
X29600000Y-10804654D01*
X29394105Y-10732128D01*
X29191341Y-10627829D01*
X29001854Y-10498278D01*
X28835789Y-10349996D01*
X28759482Y-10264499D01*
X28678858Y-10151438D01*
X28598473Y-10013986D01*
X28525924Y-9867007D01*
X28468811Y-9725366D01*
X28445346Y-9650000D01*
X28422715Y-9528410D01*
X28410482Y-9381393D01*
X28409379Y-9293863D01*
X28592565Y-9293863D01*
X28599935Y-9428838D01*
X28614713Y-9547594D01*
X28627842Y-9608269D01*
X28692044Y-9787950D01*
X28783623Y-9965794D01*
X28895742Y-10131127D01*
X29021564Y-10273280D01*
X29096182Y-10339356D01*
X29223140Y-10428602D01*
X29368230Y-10511250D01*
X29516070Y-10579311D01*
X29640000Y-10621826D01*
X29742667Y-10641477D01*
X29869854Y-10653707D01*
X30007799Y-10658301D01*
X30142741Y-10655042D01*
X30260916Y-10643715D01*
X30320000Y-10632480D01*
X30495289Y-10574417D01*
X30671976Y-10489190D01*
X30839367Y-10383443D01*
X30986768Y-10263822D01*
X31090278Y-10153818D01*
X31156421Y-10060362D01*
X31223537Y-9946189D01*
X31285696Y-9823320D01*
X31336968Y-9703777D01*
X31371425Y-9599583D01*
X31378216Y-9570000D01*
X31391893Y-9500991D01*
X31403806Y-9443134D01*
X31408859Y-9420000D01*
X31413879Y-9367949D01*
X31413669Y-9287799D01*
X31409046Y-9190991D01*
X31400828Y-9088967D01*
X31389831Y-8993169D01*
X31376875Y-8915037D01*
X31370981Y-8890000D01*
X31330726Y-8773525D01*
X31271266Y-8642054D01*
X31200194Y-8510286D01*
X31125107Y-8392919D01*
X31090003Y-8346183D01*
X30969504Y-8220499D01*
X30819726Y-8102730D01*
X30651369Y-7999527D01*
X30475133Y-7917538D01*
X30320000Y-7867716D01*
X30228300Y-7852683D01*
X30110920Y-7844020D01*
X29981668Y-7841729D01*
X29854353Y-7845808D01*
X29742785Y-7856258D01*
X29680000Y-7867716D01*
X29505347Y-7925347D01*
X29329013Y-8010256D01*
X29161741Y-8115771D01*
X29014276Y-8235217D01*
X28909721Y-8346183D01*
X28843433Y-8440357D01*
X28774661Y-8557964D01*
X28710060Y-8685730D01*
X28656284Y-8810380D01*
X28619987Y-8918638D01*
X28617096Y-8930000D01*
X28600926Y-9030606D01*
X28592822Y-9156506D01*
X28592565Y-9293863D01*
X28409379Y-9293863D01*
X28408475Y-9222103D01*
X28416520Y-9063690D01*
X28434446Y-8919306D01*
X28456244Y-8821132D01*
X28544958Y-8583147D01*
X28666837Y-8365461D01*
X28819076Y-8170883D01*
X28998866Y-8002217D01*
X29203401Y-7862271D01*
X29429875Y-7753852D01*
X29571131Y-7706245D01*
X29716984Y-7676010D01*
X29886085Y-7659903D01*
X30064260Y-7657922D01*
X30237335Y-7670068D01*
G37*
D14*
%TO.C,R19*%
X-2022500Y-10762742D02*
X-2022500Y-11237258D01*
X-977500Y-10762742D02*
X-977500Y-11237258D01*
%TO.C,R14*%
X-3522500Y-10762742D02*
X-3522500Y-11237258D01*
X-2477500Y-10762742D02*
X-2477500Y-11237258D01*
%TO.C,R2*%
X-5620000Y7153641D02*
X-5620000Y6846359D01*
X-6380000Y7153641D02*
X-6380000Y6846359D01*
D18*
%TO.C,G\u002A\u002A\u002A*%
G36*
X-13734891Y13737906D02*
G01*
X-13724084Y13735467D01*
X-13695446Y13724652D01*
X-13670761Y13708875D01*
X-13650348Y13688489D01*
X-13634529Y13663850D01*
X-13623625Y13635313D01*
X-13620323Y13620839D01*
X-13618387Y13607794D01*
X-13618145Y13596608D01*
X-13619672Y13584195D01*
X-13621458Y13574927D01*
X-13624912Y13560014D01*
X-13628990Y13547034D01*
X-13634289Y13535186D01*
X-13641407Y13523669D01*
X-13650939Y13511680D01*
X-13663481Y13498419D01*
X-13679631Y13483083D01*
X-13699984Y13464870D01*
X-13709591Y13456466D01*
X-13725826Y13442311D01*
X-13740543Y13429461D01*
X-13753010Y13418556D01*
X-13762495Y13410235D01*
X-13768269Y13405140D01*
X-13769614Y13403928D01*
X-13772779Y13401116D01*
X-13780234Y13394574D01*
X-13791412Y13384796D01*
X-13805745Y13372280D01*
X-13822665Y13357520D01*
X-13841606Y13341012D01*
X-13861660Y13323546D01*
X-13881939Y13305879D01*
X-13900671Y13289537D01*
X-13917303Y13275002D01*
X-13931284Y13262759D01*
X-13942062Y13253290D01*
X-13949084Y13247079D01*
X-13951800Y13244610D01*
X-13954603Y13242027D01*
X-13961524Y13235863D01*
X-13971829Y13226766D01*
X-13984780Y13215387D01*
X-13999644Y13202373D01*
X-14004842Y13197831D01*
X-14056275Y13152914D01*
X-13024576Y13151280D01*
X-12927709Y13151125D01*
X-12837072Y13150976D01*
X-12752455Y13150833D01*
X-12673648Y13150693D01*
X-12600441Y13150556D01*
X-12532626Y13150418D01*
X-12469994Y13150281D01*
X-12412334Y13150141D01*
X-12359437Y13149997D01*
X-12311094Y13149848D01*
X-12267096Y13149692D01*
X-12227233Y13149529D01*
X-12191295Y13149356D01*
X-12159074Y13149171D01*
X-12130360Y13148975D01*
X-12104943Y13148764D01*
X-12082614Y13148539D01*
X-12063164Y13148296D01*
X-12046383Y13148035D01*
X-12032062Y13147755D01*
X-12019991Y13147453D01*
X-12009962Y13147129D01*
X-12001764Y13146781D01*
X-11995188Y13146407D01*
X-11990025Y13146006D01*
X-11986066Y13145577D01*
X-11983100Y13145118D01*
X-11980920Y13144627D01*
X-11979314Y13144104D01*
X-11979110Y13144023D01*
X-11951430Y13129492D01*
X-11928276Y13110639D01*
X-11909975Y13088026D01*
X-11896858Y13062211D01*
X-11889252Y13033758D01*
X-11887486Y13003226D01*
X-11888604Y12989596D01*
X-11895000Y12963179D01*
X-11907025Y12938478D01*
X-11923924Y12916368D01*
X-11944943Y12897724D01*
X-11969328Y12883420D01*
X-11985585Y12877184D01*
X-11987542Y12876624D01*
X-11989841Y12876100D01*
X-11992691Y12875612D01*
X-11996306Y12875157D01*
X-12000898Y12874735D01*
X-12006677Y12874344D01*
X-12013856Y12873983D01*
X-12022646Y12873651D01*
X-12033260Y12873347D01*
X-12045909Y12873070D01*
X-12060804Y12872817D01*
X-12078159Y12872589D01*
X-12098184Y12872384D01*
X-12121091Y12872200D01*
X-12147092Y12872037D01*
X-12176399Y12871893D01*
X-12209224Y12871767D01*
X-12245778Y12871659D01*
X-12286273Y12871565D01*
X-12330921Y12871487D01*
X-12379935Y12871421D01*
X-12433524Y12871368D01*
X-12491902Y12871325D01*
X-12555280Y12871292D01*
X-12623870Y12871267D01*
X-12697884Y12871250D01*
X-12777533Y12871239D01*
X-12863030Y12871232D01*
X-12954586Y12871229D01*
X-13031493Y12871229D01*
X-14058269Y12871229D01*
X-14006034Y12825354D01*
X-13989729Y12811054D01*
X-13969767Y12793579D01*
X-13947349Y12773978D01*
X-13923676Y12753300D01*
X-13899949Y12732596D01*
X-13877371Y12712915D01*
X-13874732Y12710617D01*
X-13854369Y12692868D01*
X-13834487Y12675514D01*
X-13815897Y12659262D01*
X-13799405Y12644820D01*
X-13785819Y12632895D01*
X-13775948Y12624193D01*
X-13773130Y12621694D01*
X-13763032Y12612763D01*
X-13749419Y12600807D01*
X-13733649Y12587014D01*
X-13717078Y12572570D01*
X-13705526Y12562533D01*
X-13683659Y12543232D01*
X-13666281Y12526956D01*
X-13652752Y12512833D01*
X-13642433Y12499995D01*
X-13634687Y12487570D01*
X-13628873Y12474688D01*
X-13624352Y12460480D01*
X-13621293Y12447827D01*
X-13618548Y12433828D01*
X-13617555Y12423071D01*
X-13618236Y12412626D01*
X-13620076Y12401796D01*
X-13628916Y12371154D01*
X-13642673Y12344573D01*
X-13661178Y12322247D01*
X-13684261Y12304370D01*
X-13711752Y12291133D01*
X-13719547Y12288493D01*
X-13748219Y12282684D01*
X-13776448Y12283292D01*
X-13804200Y12290308D01*
X-13831442Y12303725D01*
X-13858142Y12323533D01*
X-13858441Y12323794D01*
X-13864566Y12329143D01*
X-13875059Y12338303D01*
X-13889436Y12350853D01*
X-13907213Y12366369D01*
X-13927906Y12384431D01*
X-13951033Y12404615D01*
X-13976109Y12426501D01*
X-14002651Y12449664D01*
X-14030175Y12473685D01*
X-14033891Y12476928D01*
X-14060836Y12500450D01*
X-14086338Y12522725D01*
X-14109985Y12543393D01*
X-14131363Y12562091D01*
X-14150061Y12578459D01*
X-14165664Y12592136D01*
X-14177761Y12602759D01*
X-14185939Y12609968D01*
X-14189785Y12613401D01*
X-14190025Y12613632D01*
X-14192743Y12616099D01*
X-14199768Y12622306D01*
X-14210550Y12631770D01*
X-14224535Y12644007D01*
X-14241171Y12658535D01*
X-14259907Y12674869D01*
X-14280165Y12692506D01*
X-14300543Y12710243D01*
X-14319459Y12726723D01*
X-14336345Y12741450D01*
X-14350633Y12753928D01*
X-14361756Y12763661D01*
X-14369145Y12770153D01*
X-14372219Y12772895D01*
X-14375465Y12775799D01*
X-14382928Y12782375D01*
X-14393974Y12792065D01*
X-14407966Y12804312D01*
X-14424268Y12818560D01*
X-14442242Y12834249D01*
X-14447731Y12839036D01*
X-14472206Y12860430D01*
X-14492310Y12878164D01*
X-14508564Y12892769D01*
X-14521487Y12904776D01*
X-14531597Y12914713D01*
X-14539415Y12923110D01*
X-14545459Y12930499D01*
X-14550249Y12937407D01*
X-14554304Y12944367D01*
X-14557941Y12951491D01*
X-14562353Y12960847D01*
X-14565292Y12968620D01*
X-14567057Y12976529D01*
X-14567946Y12986297D01*
X-14568256Y12999644D01*
X-14568289Y13011267D01*
X-14568197Y13027926D01*
X-14567724Y13039868D01*
X-14566571Y13048813D01*
X-14564442Y13056481D01*
X-14561038Y13064592D01*
X-14557961Y13071001D01*
X-14550142Y13084392D01*
X-14539134Y13098752D01*
X-14524345Y13114731D01*
X-14505183Y13132978D01*
X-14486198Y13149741D01*
X-14474619Y13159714D01*
X-14465307Y13167747D01*
X-14457031Y13174911D01*
X-14448558Y13182274D01*
X-14438657Y13190909D01*
X-14426096Y13201884D01*
X-14413764Y13212665D01*
X-14399042Y13225538D01*
X-14384614Y13238155D01*
X-14371810Y13249350D01*
X-14361964Y13257959D01*
X-14359037Y13260519D01*
X-14322444Y13292521D01*
X-14290142Y13320786D01*
X-14262208Y13345247D01*
X-14238715Y13365838D01*
X-14219741Y13382492D01*
X-14205361Y13395143D01*
X-14195651Y13403724D01*
X-14190685Y13408170D01*
X-14190025Y13408796D01*
X-14187133Y13411439D01*
X-14180269Y13417483D01*
X-14170345Y13426132D01*
X-14158273Y13436589D01*
X-14153035Y13441111D01*
X-14139106Y13453160D01*
X-14125751Y13464779D01*
X-14114300Y13474808D01*
X-14106084Y13482082D01*
X-14104746Y13483286D01*
X-14098619Y13488750D01*
X-14088519Y13497676D01*
X-14075320Y13509294D01*
X-14059900Y13522831D01*
X-14043136Y13537518D01*
X-14033891Y13545603D01*
X-13997518Y13577402D01*
X-13965649Y13605247D01*
X-13937934Y13629415D01*
X-13914023Y13650183D01*
X-13893564Y13667825D01*
X-13876207Y13682619D01*
X-13861601Y13694839D01*
X-13849396Y13704761D01*
X-13839241Y13712662D01*
X-13830785Y13718818D01*
X-13823678Y13723503D01*
X-13817569Y13726995D01*
X-13812106Y13729568D01*
X-13806941Y13731499D01*
X-13801721Y13733064D01*
X-13796096Y13734538D01*
X-13792575Y13735444D01*
X-13763486Y13739878D01*
X-13734891Y13737906D01*
G37*
G36*
X-16987006Y-22358485D02*
G01*
X-16923077Y-22377867D01*
X-16865119Y-22408116D01*
X-16814221Y-22447893D01*
X-16771473Y-22495858D01*
X-16737965Y-22550671D01*
X-16714785Y-22610994D01*
X-16703024Y-22675486D01*
X-16703770Y-22742808D01*
X-16709240Y-22777427D01*
X-16729761Y-22842071D01*
X-16762511Y-22901461D01*
X-16806006Y-22953905D01*
X-16858762Y-22997717D01*
X-16919294Y-23031206D01*
X-16939332Y-23039201D01*
X-16981916Y-23049978D01*
X-17031831Y-23055210D01*
X-17083923Y-23054916D01*
X-17133040Y-23049112D01*
X-17172568Y-23038391D01*
X-17237710Y-23006599D01*
X-17292608Y-22965225D01*
X-17338096Y-22913522D01*
X-17369210Y-22862409D01*
X-17392205Y-22817739D01*
X-17711034Y-22820131D01*
X-17786607Y-22820715D01*
X-17849418Y-22821276D01*
X-17900875Y-22821890D01*
X-17942386Y-22822629D01*
X-17975358Y-22823567D01*
X-18001201Y-22824778D01*
X-18021321Y-22826336D01*
X-18037126Y-22828314D01*
X-18050025Y-22830786D01*
X-18061425Y-22833826D01*
X-18072734Y-22837506D01*
X-18077974Y-22839323D01*
X-18108726Y-22851568D01*
X-18139874Y-22866358D01*
X-18160647Y-22878058D01*
X-18172640Y-22887799D01*
X-18193716Y-22907429D01*
X-18223352Y-22936416D01*
X-18261027Y-22974229D01*
X-18306221Y-23020338D01*
X-18358410Y-23074212D01*
X-18417075Y-23135318D01*
X-18481693Y-23203127D01*
X-18534097Y-23258429D01*
X-18591007Y-23318636D01*
X-18645302Y-23376105D01*
X-18696158Y-23429961D01*
X-18742751Y-23479331D01*
X-18784259Y-23523342D01*
X-18819857Y-23561121D01*
X-18848723Y-23591794D01*
X-18870032Y-23614488D01*
X-18882962Y-23628330D01*
X-18886483Y-23632167D01*
X-18899980Y-23647469D01*
X-17092188Y-23647469D01*
X-15284395Y-23647469D01*
X-15284395Y-23505009D01*
X-15284309Y-23456625D01*
X-15283953Y-23420679D01*
X-15283177Y-23395442D01*
X-15281834Y-23379182D01*
X-15279774Y-23370169D01*
X-15276850Y-23366672D01*
X-15272912Y-23366961D01*
X-15272557Y-23367092D01*
X-15262847Y-23371988D01*
X-15242630Y-23383077D01*
X-15213248Y-23399581D01*
X-15176038Y-23420722D01*
X-15132339Y-23445722D01*
X-15083490Y-23473802D01*
X-15030830Y-23504186D01*
X-14975699Y-23536094D01*
X-14919434Y-23568748D01*
X-14863375Y-23601371D01*
X-14808860Y-23633184D01*
X-14757229Y-23663409D01*
X-14709821Y-23691268D01*
X-14667974Y-23715982D01*
X-14633027Y-23736775D01*
X-14606319Y-23752867D01*
X-14589189Y-23763480D01*
X-14582976Y-23767837D01*
X-14582972Y-23767859D01*
X-14588893Y-23772047D01*
X-14605765Y-23782513D01*
X-14632247Y-23798479D01*
X-14667002Y-23819166D01*
X-14708690Y-23843795D01*
X-14755974Y-23871590D01*
X-14807515Y-23901771D01*
X-14861973Y-23933561D01*
X-14918011Y-23966181D01*
X-14974289Y-23998853D01*
X-15029469Y-24030800D01*
X-15082212Y-24061242D01*
X-15131179Y-24089401D01*
X-15175033Y-24114500D01*
X-15212433Y-24135761D01*
X-15242042Y-24152404D01*
X-15262521Y-24163652D01*
X-15272531Y-24168727D01*
X-15272647Y-24168773D01*
X-15276599Y-24169234D01*
X-15279556Y-24166027D01*
X-15281661Y-24157444D01*
X-15283055Y-24141773D01*
X-15283881Y-24117307D01*
X-15284279Y-24082335D01*
X-15284394Y-24035148D01*
X-15284395Y-24027279D01*
X-15284395Y-23881277D01*
X-16648272Y-23881277D01*
X-16786181Y-23881305D01*
X-16920257Y-23881389D01*
X-17049817Y-23881526D01*
X-17174177Y-23881713D01*
X-17292654Y-23881947D01*
X-17404563Y-23882225D01*
X-17509221Y-23882545D01*
X-17605945Y-23882903D01*
X-17694050Y-23883297D01*
X-17772853Y-23883724D01*
X-17841671Y-23884181D01*
X-17899820Y-23884666D01*
X-17946615Y-23885175D01*
X-17981374Y-23885705D01*
X-18003412Y-23886255D01*
X-18012047Y-23886821D01*
X-18012149Y-23886890D01*
X-18007418Y-23892777D01*
X-17993845Y-23907933D01*
X-17972368Y-23931368D01*
X-17943920Y-23962092D01*
X-17909436Y-23999116D01*
X-17869851Y-24041451D01*
X-17826100Y-24088105D01*
X-17779118Y-24138091D01*
X-17729840Y-24190418D01*
X-17679200Y-24244096D01*
X-17628134Y-24298136D01*
X-17577576Y-24351548D01*
X-17528462Y-24403342D01*
X-17481726Y-24452529D01*
X-17438303Y-24498119D01*
X-17399127Y-24539122D01*
X-17365135Y-24574549D01*
X-17337260Y-24603410D01*
X-17316438Y-24624715D01*
X-17303603Y-24637475D01*
X-17300256Y-24640517D01*
X-17277403Y-24655461D01*
X-17246462Y-24671846D01*
X-17212934Y-24687083D01*
X-17182315Y-24698584D01*
X-17169025Y-24702307D01*
X-17154990Y-24703959D01*
X-17128349Y-24705604D01*
X-17090669Y-24707196D01*
X-17043515Y-24708687D01*
X-16988453Y-24710032D01*
X-16927047Y-24711183D01*
X-16860862Y-24712094D01*
X-16830713Y-24712405D01*
X-16524283Y-24715255D01*
X-16524283Y-24595839D01*
X-16524283Y-24476423D01*
X-16170029Y-24476423D01*
X-15815776Y-24476423D01*
X-15815776Y-24830677D01*
X-15815776Y-25184931D01*
X-16170029Y-25184931D01*
X-16524283Y-25184931D01*
X-16524283Y-25068649D01*
X-16524283Y-24952366D01*
X-16841341Y-24949405D01*
X-16917362Y-24948660D01*
X-16980663Y-24947927D01*
X-17032694Y-24947134D01*
X-17074905Y-24946212D01*
X-17108746Y-24945092D01*
X-17135667Y-24943702D01*
X-17157118Y-24941973D01*
X-17174549Y-24939836D01*
X-17189409Y-24937219D01*
X-17203149Y-24934053D01*
X-17212942Y-24931454D01*
X-17290277Y-24904501D01*
X-17367833Y-24866950D01*
X-17441030Y-24821354D01*
X-17505290Y-24770266D01*
X-17510190Y-24765755D01*
X-17520329Y-24755692D01*
X-17539347Y-24736192D01*
X-17566408Y-24708133D01*
X-17600675Y-24672391D01*
X-17641311Y-24629845D01*
X-17687480Y-24581372D01*
X-17738345Y-24527849D01*
X-17793068Y-24470153D01*
X-17850814Y-24409163D01*
X-17910746Y-24345755D01*
X-17912899Y-24343475D01*
X-18282643Y-23951922D01*
X-18340933Y-23923708D01*
X-18388162Y-23903774D01*
X-18432909Y-23891746D01*
X-18455435Y-23888140D01*
X-18474056Y-23886721D01*
X-18506527Y-23885499D01*
X-18552529Y-23884476D01*
X-18611743Y-23883654D01*
X-18683851Y-23883037D01*
X-18768533Y-23882626D01*
X-18865471Y-23882424D01*
X-18974346Y-23882433D01*
X-19094839Y-23882656D01*
X-19145027Y-23882802D01*
X-19778406Y-23884819D01*
X-19797268Y-23941500D01*
X-19833593Y-24029972D01*
X-19880441Y-24109167D01*
X-19937453Y-24178706D01*
X-20004269Y-24238210D01*
X-20080528Y-24287300D01*
X-20159585Y-24323265D01*
X-20211848Y-24339952D01*
X-20265497Y-24350528D01*
X-20325096Y-24355715D01*
X-20370124Y-24356536D01*
X-20458615Y-24349542D01*
X-20542938Y-24329736D01*
X-20622109Y-24298113D01*
X-20695141Y-24255668D01*
X-20761051Y-24203398D01*
X-20818853Y-24142297D01*
X-20867562Y-24073362D01*
X-20906194Y-23997588D01*
X-20933763Y-23915971D01*
X-20949285Y-23829505D01*
X-20952456Y-23767915D01*
X-20945666Y-23677837D01*
X-20925849Y-23591776D01*
X-20893839Y-23510794D01*
X-20850468Y-23435955D01*
X-20796571Y-23368321D01*
X-20732978Y-23308955D01*
X-20660524Y-23258922D01*
X-20580041Y-23219283D01*
X-20502554Y-23193666D01*
X-20446889Y-23183400D01*
X-20383695Y-23178666D01*
X-20318490Y-23179468D01*
X-20256791Y-23185812D01*
X-20219151Y-23193422D01*
X-20140517Y-23220186D01*
X-20064103Y-23258847D01*
X-19993087Y-23307385D01*
X-19930645Y-23363780D01*
X-19903995Y-23393848D01*
X-19881994Y-23424316D01*
X-19858335Y-23462942D01*
X-19835112Y-23505687D01*
X-19814417Y-23548511D01*
X-19798345Y-23587373D01*
X-19789995Y-23613815D01*
X-19781736Y-23647469D01*
X-19553598Y-23647469D01*
X-19484730Y-23647367D01*
X-19428234Y-23646903D01*
X-19382313Y-23645837D01*
X-19345171Y-23643931D01*
X-19315009Y-23640945D01*
X-19290031Y-23636641D01*
X-19268440Y-23630780D01*
X-19248438Y-23623122D01*
X-19228229Y-23613430D01*
X-19206014Y-23601463D01*
X-19205527Y-23601194D01*
X-19196295Y-23595473D01*
X-19185274Y-23587345D01*
X-19171794Y-23576133D01*
X-19155181Y-23561161D01*
X-19134761Y-23541750D01*
X-19109864Y-23517225D01*
X-19079814Y-23486908D01*
X-19043940Y-23450122D01*
X-19001569Y-23406190D01*
X-18952028Y-23354436D01*
X-18894644Y-23294181D01*
X-18828745Y-23224750D01*
X-18774838Y-23167843D01*
X-18713134Y-23102832D01*
X-18653353Y-23040167D01*
X-18596335Y-22980713D01*
X-18542923Y-22925329D01*
X-18493955Y-22874879D01*
X-18450273Y-22830225D01*
X-18412718Y-22792229D01*
X-18382131Y-22761753D01*
X-18359352Y-22739659D01*
X-18345221Y-22726809D01*
X-18343105Y-22725117D01*
X-18284239Y-22685814D01*
X-18217759Y-22649899D01*
X-18149920Y-22620565D01*
X-18114883Y-22608573D01*
X-18051117Y-22589073D01*
X-17719714Y-22586339D01*
X-17388310Y-22583605D01*
X-17367647Y-22542672D01*
X-17331500Y-22486149D01*
X-17285211Y-22437851D01*
X-17230816Y-22399026D01*
X-17170351Y-22370925D01*
X-17105851Y-22354795D01*
X-17055817Y-22351308D01*
X-16987006Y-22358485D01*
G37*
G36*
X-18421502Y-5436532D02*
G01*
X-18363485Y-5440103D01*
X-18311752Y-5445498D01*
X-18269006Y-5452717D01*
X-18237954Y-5461763D01*
X-18237108Y-5462114D01*
X-18218721Y-5468072D01*
X-18195523Y-5473519D01*
X-18194581Y-5473698D01*
X-18146934Y-5485791D01*
X-18089127Y-5505798D01*
X-18023668Y-5532759D01*
X-17953064Y-5565718D01*
X-17951020Y-5566727D01*
X-17828110Y-5635735D01*
X-17715669Y-5716109D01*
X-17613759Y-5807795D01*
X-17522441Y-5910739D01*
X-17466803Y-5986590D01*
X-17441275Y-6026548D01*
X-17414021Y-6073143D01*
X-17387197Y-6122311D01*
X-17362963Y-6169989D01*
X-17343476Y-6212112D01*
X-17332827Y-6238874D01*
X-17323733Y-6264166D01*
X-17315752Y-6285462D01*
X-17312753Y-6292999D01*
X-17306794Y-6311375D01*
X-17301267Y-6334562D01*
X-17301080Y-6335526D01*
X-17296006Y-6355861D01*
X-17290548Y-6369520D01*
X-17290002Y-6370320D01*
X-17286747Y-6376192D01*
X-17283452Y-6386309D01*
X-17279711Y-6402752D01*
X-17275117Y-6427602D01*
X-17269260Y-6462941D01*
X-17261735Y-6510851D01*
X-17258961Y-6528829D01*
X-17257324Y-6539863D01*
X-17255812Y-6551268D01*
X-17254419Y-6563666D01*
X-17253140Y-6577677D01*
X-17251970Y-6593924D01*
X-17250905Y-6613026D01*
X-17249940Y-6635606D01*
X-17249068Y-6662284D01*
X-17248286Y-6693683D01*
X-17247588Y-6730421D01*
X-17246970Y-6773122D01*
X-17246425Y-6822407D01*
X-17245950Y-6878895D01*
X-17245539Y-6943210D01*
X-17245187Y-7015971D01*
X-17244890Y-7097800D01*
X-17244641Y-7189319D01*
X-17244437Y-7291148D01*
X-17244272Y-7403908D01*
X-17244141Y-7528221D01*
X-17244039Y-7664709D01*
X-17243961Y-7813991D01*
X-17243902Y-7976690D01*
X-17243857Y-8153426D01*
X-17243821Y-8344821D01*
X-17243811Y-8404511D01*
X-17243799Y-8569281D01*
X-17243813Y-8729956D01*
X-17243852Y-8885854D01*
X-17243916Y-9036290D01*
X-17244003Y-9180579D01*
X-17244112Y-9318038D01*
X-17244242Y-9447982D01*
X-17244393Y-9569728D01*
X-17244562Y-9682591D01*
X-17244749Y-9785887D01*
X-17244953Y-9878932D01*
X-17245172Y-9961042D01*
X-17245406Y-10031534D01*
X-17245654Y-10089722D01*
X-17245914Y-10134922D01*
X-17246185Y-10166451D01*
X-17246466Y-10183625D01*
X-17246646Y-10186764D01*
X-17248868Y-10195356D01*
X-17252257Y-10215750D01*
X-17256251Y-10244382D01*
X-17258454Y-10261938D01*
X-17262783Y-10295246D01*
X-17267461Y-10324120D01*
X-17273443Y-10353006D01*
X-17281681Y-10386348D01*
X-17293128Y-10428589D01*
X-17297746Y-10445145D01*
X-17340369Y-10569170D01*
X-17396965Y-10688625D01*
X-17466371Y-10802115D01*
X-17547426Y-10908243D01*
X-17638966Y-11005612D01*
X-17739831Y-11092827D01*
X-17848856Y-11168492D01*
X-17943614Y-11220979D01*
X-17989593Y-11243395D01*
X-18024420Y-11259614D01*
X-18050581Y-11270723D01*
X-18070566Y-11277814D01*
X-18078600Y-11280085D01*
X-18100283Y-11286694D01*
X-18113394Y-11291605D01*
X-18132894Y-11298586D01*
X-18166407Y-11309015D01*
X-18212943Y-11322592D01*
X-18240974Y-11330519D01*
X-18265525Y-11335834D01*
X-18301411Y-11341638D01*
X-18344531Y-11347459D01*
X-18390785Y-11352819D01*
X-18436073Y-11357247D01*
X-18476297Y-11360265D01*
X-18507354Y-11361401D01*
X-18507732Y-11361401D01*
X-18538262Y-11360296D01*
X-18578356Y-11357301D01*
X-18623814Y-11352894D01*
X-18670440Y-11347556D01*
X-18714033Y-11341764D01*
X-18750395Y-11335998D01*
X-18774490Y-11330962D01*
X-18823676Y-11317817D01*
X-18859819Y-11307753D01*
X-18884900Y-11300181D01*
X-18900900Y-11294513D01*
X-18907764Y-11291359D01*
X-18922753Y-11285205D01*
X-18928974Y-11284080D01*
X-18944918Y-11280331D01*
X-18971504Y-11269977D01*
X-19006105Y-11254354D01*
X-19046094Y-11234798D01*
X-19088846Y-11212645D01*
X-19131732Y-11189232D01*
X-19172126Y-11165895D01*
X-19207402Y-11143971D01*
X-19217293Y-11137396D01*
X-19322033Y-11057368D01*
X-19419139Y-10965233D01*
X-19506911Y-10863063D01*
X-19583648Y-10752928D01*
X-19647648Y-10636900D01*
X-19671416Y-10584323D01*
X-19682063Y-10559326D01*
X-19691257Y-10538148D01*
X-19694808Y-10530198D01*
X-19705439Y-10502078D01*
X-19717354Y-10462539D01*
X-19729611Y-10415468D01*
X-19741265Y-10364749D01*
X-19751372Y-10314267D01*
X-19758990Y-10267907D01*
X-19759607Y-10263440D01*
X-19761036Y-10252005D01*
X-19762356Y-10239295D01*
X-19763567Y-10224701D01*
X-19764675Y-10207611D01*
X-19765683Y-10187415D01*
X-19766593Y-10163502D01*
X-19767409Y-10135261D01*
X-19768135Y-10102081D01*
X-19768774Y-10063351D01*
X-19769329Y-10018461D01*
X-19769803Y-9966800D01*
X-19770201Y-9907758D01*
X-19770525Y-9840722D01*
X-19770778Y-9765083D01*
X-19770965Y-9680229D01*
X-19771088Y-9585550D01*
X-19771151Y-9480436D01*
X-19771157Y-9364274D01*
X-19771110Y-9236455D01*
X-19771012Y-9096368D01*
X-19770868Y-8943402D01*
X-19770680Y-8776945D01*
X-19770452Y-8596388D01*
X-19770187Y-8401119D01*
X-19770121Y-8353608D01*
X-19769836Y-8154806D01*
X-19769556Y-7970873D01*
X-19769276Y-7801210D01*
X-19769247Y-7785160D01*
X-19354428Y-7785160D01*
X-19354426Y-7949807D01*
X-19354412Y-8128475D01*
X-19354400Y-8321779D01*
X-19354399Y-8392437D01*
X-19354391Y-8590183D01*
X-19354364Y-8773063D01*
X-19354314Y-8941674D01*
X-19354237Y-9096615D01*
X-19354129Y-9238484D01*
X-19353987Y-9367879D01*
X-19353807Y-9485398D01*
X-19353583Y-9591639D01*
X-19353314Y-9687200D01*
X-19352994Y-9772680D01*
X-19352620Y-9848675D01*
X-19352187Y-9915784D01*
X-19351693Y-9974606D01*
X-19351132Y-10025738D01*
X-19350501Y-10069778D01*
X-19349797Y-10107325D01*
X-19349015Y-10138975D01*
X-19348151Y-10165328D01*
X-19347201Y-10186982D01*
X-19346161Y-10204534D01*
X-19345029Y-10218582D01*
X-19343798Y-10229725D01*
X-19342467Y-10238561D01*
X-19342273Y-10239642D01*
X-19314929Y-10350517D01*
X-19274682Y-10453328D01*
X-19221008Y-10549070D01*
X-19153380Y-10638740D01*
X-19103261Y-10692674D01*
X-19019918Y-10766861D01*
X-18931648Y-10827254D01*
X-18836836Y-10874671D01*
X-18733865Y-10909932D01*
X-18629181Y-10932560D01*
X-18589783Y-10937902D01*
X-18547901Y-10941822D01*
X-18511791Y-10943568D01*
X-18507732Y-10943597D01*
X-18441723Y-10939810D01*
X-18370113Y-10929178D01*
X-18297051Y-10912794D01*
X-18226685Y-10891750D01*
X-18163165Y-10867139D01*
X-18110638Y-10840053D01*
X-18107749Y-10838261D01*
X-18089284Y-10827246D01*
X-18076741Y-10820825D01*
X-18074476Y-10820153D01*
X-18066711Y-10815829D01*
X-18049670Y-10804257D01*
X-18026395Y-10787538D01*
X-18014398Y-10778672D01*
X-17961857Y-10735579D01*
X-17909192Y-10685307D01*
X-17859640Y-10631418D01*
X-17816437Y-10577472D01*
X-17782821Y-10527031D01*
X-17778038Y-10518600D01*
X-17727164Y-10413226D01*
X-17691187Y-10309012D01*
X-17673273Y-10228204D01*
X-17672095Y-10218760D01*
X-17671003Y-10204603D01*
X-17669993Y-10185185D01*
X-17669062Y-10159957D01*
X-17668207Y-10128369D01*
X-17667425Y-10089872D01*
X-17666712Y-10043917D01*
X-17666064Y-9989954D01*
X-17665479Y-9927435D01*
X-17664953Y-9855809D01*
X-17664483Y-9774528D01*
X-17664065Y-9683042D01*
X-17663696Y-9580803D01*
X-17663373Y-9467260D01*
X-17663093Y-9341865D01*
X-17662851Y-9204068D01*
X-17662645Y-9053320D01*
X-17662472Y-8889072D01*
X-17662327Y-8710774D01*
X-17662209Y-8517878D01*
X-17662151Y-8400001D01*
X-17662071Y-8201969D01*
X-17662020Y-8018812D01*
X-17662002Y-7849937D01*
X-17662020Y-7694756D01*
X-17662078Y-7552676D01*
X-17662178Y-7423109D01*
X-17662325Y-7305463D01*
X-17662521Y-7199148D01*
X-17662771Y-7103573D01*
X-17663077Y-7018148D01*
X-17663444Y-6942283D01*
X-17663873Y-6875387D01*
X-17664370Y-6816869D01*
X-17664937Y-6766140D01*
X-17665578Y-6722608D01*
X-17666296Y-6685683D01*
X-17667095Y-6654775D01*
X-17667977Y-6629293D01*
X-17668948Y-6608647D01*
X-17670009Y-6592246D01*
X-17671164Y-6579500D01*
X-17672418Y-6569819D01*
X-17672802Y-6567489D01*
X-17700222Y-6452795D01*
X-17740977Y-6345192D01*
X-17794473Y-6245487D01*
X-17860116Y-6154491D01*
X-17937313Y-6073012D01*
X-18025470Y-6001861D01*
X-18123994Y-5941845D01*
X-18136591Y-5935377D01*
X-18220006Y-5898808D01*
X-18304374Y-5873356D01*
X-18393498Y-5858170D01*
X-18491180Y-5852397D01*
X-18507732Y-5852290D01*
X-18581898Y-5854206D01*
X-18646184Y-5860467D01*
X-18705754Y-5871841D01*
X-18765772Y-5889098D01*
X-18774490Y-5892022D01*
X-18878538Y-5935432D01*
X-18975357Y-5991792D01*
X-19063770Y-6059925D01*
X-19142600Y-6138654D01*
X-19210670Y-6226800D01*
X-19266805Y-6323187D01*
X-19309826Y-6426636D01*
X-19310391Y-6428311D01*
X-19315158Y-6442163D01*
X-19319568Y-6454671D01*
X-19323636Y-6466451D01*
X-19327376Y-6478116D01*
X-19330802Y-6490282D01*
X-19333926Y-6503563D01*
X-19336763Y-6518573D01*
X-19339327Y-6535927D01*
X-19341631Y-6556240D01*
X-19343689Y-6580127D01*
X-19345516Y-6608202D01*
X-19347124Y-6641079D01*
X-19348527Y-6679373D01*
X-19349740Y-6723699D01*
X-19350775Y-6774672D01*
X-19351648Y-6832905D01*
X-19352371Y-6899014D01*
X-19352958Y-6973614D01*
X-19353424Y-7057318D01*
X-19353781Y-7150741D01*
X-19354044Y-7254499D01*
X-19354227Y-7369205D01*
X-19354342Y-7495474D01*
X-19354405Y-7633921D01*
X-19354428Y-7785160D01*
X-19769247Y-7785160D01*
X-19768991Y-7645223D01*
X-19768697Y-7502314D01*
X-19768388Y-7371887D01*
X-19768060Y-7253346D01*
X-19767707Y-7146094D01*
X-19767326Y-7049535D01*
X-19766910Y-6963072D01*
X-19766456Y-6886109D01*
X-19765957Y-6818050D01*
X-19765410Y-6758297D01*
X-19764810Y-6706255D01*
X-19764150Y-6661328D01*
X-19763428Y-6622918D01*
X-19762637Y-6590430D01*
X-19761773Y-6563266D01*
X-19760831Y-6540831D01*
X-19759806Y-6522528D01*
X-19758693Y-6507760D01*
X-19757488Y-6495932D01*
X-19756185Y-6486447D01*
X-19754779Y-6478707D01*
X-19754751Y-6478570D01*
X-19740057Y-6412876D01*
X-19724567Y-6352911D01*
X-19709166Y-6301856D01*
X-19694741Y-6262889D01*
X-19694389Y-6262071D01*
X-19687815Y-6246538D01*
X-19677904Y-6222777D01*
X-19670164Y-6204080D01*
X-19654647Y-6169103D01*
X-19635046Y-6128673D01*
X-19613877Y-6087661D01*
X-19593658Y-6050938D01*
X-19576906Y-6023376D01*
X-19576368Y-6022569D01*
X-19545357Y-5976972D01*
X-19519231Y-5940510D01*
X-19494800Y-5909132D01*
X-19468872Y-5878786D01*
X-19438257Y-5845418D01*
X-19429883Y-5836537D01*
X-19353256Y-5760487D01*
X-19277082Y-5695689D01*
X-19196825Y-5638757D01*
X-19107951Y-5586306D01*
X-19063460Y-5563021D01*
X-19031875Y-5547283D01*
X-19005364Y-5534539D01*
X-18986945Y-5526207D01*
X-18979836Y-5523654D01*
X-18969402Y-5520760D01*
X-18951731Y-5513701D01*
X-18949631Y-5512772D01*
X-18926621Y-5503711D01*
X-18896840Y-5493598D01*
X-18864875Y-5483795D01*
X-18835310Y-5475665D01*
X-18812733Y-5470569D01*
X-18804012Y-5469529D01*
X-18784714Y-5465904D01*
X-18776318Y-5462438D01*
X-18750063Y-5453294D01*
X-18711155Y-5445962D01*
X-18662299Y-5440443D01*
X-18606201Y-5436739D01*
X-18545565Y-5434851D01*
X-18483097Y-5434782D01*
X-18421502Y-5436532D01*
G37*
G36*
X-18471148Y-6406897D02*
G01*
X-18425835Y-6413384D01*
X-18408667Y-6417952D01*
X-18349338Y-6444117D01*
X-18296562Y-6481440D01*
X-18252232Y-6527664D01*
X-18218237Y-6580529D01*
X-18196471Y-6637779D01*
X-18189496Y-6679605D01*
X-18189053Y-6693034D01*
X-18188626Y-6720989D01*
X-18188218Y-6762600D01*
X-18187827Y-6816999D01*
X-18187454Y-6883315D01*
X-18187100Y-6960679D01*
X-18186766Y-7048222D01*
X-18186452Y-7145074D01*
X-18186158Y-7250366D01*
X-18185885Y-7363228D01*
X-18185634Y-7482791D01*
X-18185404Y-7608185D01*
X-18185197Y-7738541D01*
X-18185013Y-7872989D01*
X-18184852Y-8010660D01*
X-18184715Y-8150685D01*
X-18184603Y-8292194D01*
X-18184515Y-8434318D01*
X-18184453Y-8576186D01*
X-18184417Y-8716930D01*
X-18184407Y-8855681D01*
X-18184424Y-8991568D01*
X-18184468Y-9123722D01*
X-18184541Y-9251274D01*
X-18184641Y-9373355D01*
X-18184771Y-9489094D01*
X-18184930Y-9597623D01*
X-18185119Y-9698072D01*
X-18185338Y-9789572D01*
X-18185588Y-9871252D01*
X-18185870Y-9942244D01*
X-18186183Y-10001678D01*
X-18186529Y-10048685D01*
X-18186908Y-10082395D01*
X-18187320Y-10101939D01*
X-18187535Y-10106093D01*
X-18191967Y-10137481D01*
X-18199888Y-10167031D01*
X-18213028Y-10200136D01*
X-18227659Y-10231177D01*
X-18237192Y-10244511D01*
X-18255017Y-10264593D01*
X-18277901Y-10287863D01*
X-18287357Y-10296900D01*
X-18343287Y-10339813D01*
X-18403378Y-10368911D01*
X-18465850Y-10384658D01*
X-18528920Y-10387516D01*
X-18590809Y-10377946D01*
X-18649733Y-10356413D01*
X-18703913Y-10323378D01*
X-18751566Y-10279303D01*
X-18790911Y-10224652D01*
X-18820168Y-10159886D01*
X-18820655Y-10158439D01*
X-18822367Y-10153097D01*
X-18823947Y-10147307D01*
X-18825400Y-10140453D01*
X-18826731Y-10131920D01*
X-18827945Y-10121093D01*
X-18829048Y-10107356D01*
X-18830046Y-10090093D01*
X-18830943Y-10068691D01*
X-18831746Y-10042532D01*
X-18832458Y-10011002D01*
X-18833087Y-9973486D01*
X-18833637Y-9929368D01*
X-18834114Y-9878032D01*
X-18834522Y-9818864D01*
X-18834868Y-9751248D01*
X-18835157Y-9674568D01*
X-18835394Y-9588210D01*
X-18835584Y-9491557D01*
X-18835733Y-9383995D01*
X-18835847Y-9264908D01*
X-18835930Y-9133680D01*
X-18835989Y-8989697D01*
X-18836028Y-8832344D01*
X-18836052Y-8661003D01*
X-18836068Y-8475061D01*
X-18836073Y-8396135D01*
X-18836096Y-8201998D01*
X-18836128Y-8022713D01*
X-18836154Y-7857665D01*
X-18836159Y-7706241D01*
X-18836129Y-7567828D01*
X-18836046Y-7441812D01*
X-18835898Y-7327580D01*
X-18835667Y-7224519D01*
X-18835339Y-7132015D01*
X-18834899Y-7049455D01*
X-18834332Y-6976225D01*
X-18833622Y-6911712D01*
X-18832753Y-6855303D01*
X-18831711Y-6806385D01*
X-18830481Y-6764343D01*
X-18829047Y-6728565D01*
X-18827394Y-6698437D01*
X-18825507Y-6673346D01*
X-18823370Y-6652678D01*
X-18820969Y-6635820D01*
X-18818288Y-6622160D01*
X-18815311Y-6611082D01*
X-18812024Y-6601974D01*
X-18808412Y-6594223D01*
X-18804458Y-6587215D01*
X-18800149Y-6580337D01*
X-18795468Y-6572975D01*
X-18790578Y-6564827D01*
X-18750326Y-6509859D01*
X-18698742Y-6464108D01*
X-18638068Y-6429387D01*
X-18608805Y-6417982D01*
X-18569014Y-6409197D01*
X-18521002Y-6405501D01*
X-18471148Y-6406897D01*
G37*
D12*
%TO.C,U2*%
X2080000Y-19080000D02*
X2080000Y-18580000D01*
X2080000Y-14920000D02*
X2080000Y-15420000D01*
X1580000Y-19080000D02*
X2080000Y-19080000D01*
X1580000Y-14920000D02*
X2080000Y-14920000D01*
X-1580000Y-19080000D02*
X-2080000Y-19080000D01*
X-1580000Y-14920000D02*
X-2080000Y-14920000D01*
X-2080000Y-19080000D02*
X-2080000Y-18580000D01*
X-2080000Y-14920000D02*
X-2080000Y-15420000D01*
X2610000Y-18250000D02*
G75*
G02*
X2470000Y-18250000I-70000J0D01*
G01*
X2470000Y-18250000D02*
G75*
G02*
X2610000Y-18250000I70000J0D01*
G01*
D14*
%TO.C,C3*%
X-2107836Y7040000D02*
X-1892164Y7040000D01*
X-2107836Y7760000D02*
X-1892164Y7760000D01*
%TO.C,C10*%
X2642164Y7040000D02*
X2857836Y7040000D01*
X2642164Y7760000D02*
X2857836Y7760000D01*
D12*
%TO.C,U4*%
X21370000Y-1200000D02*
X20630000Y-1200000D01*
X21370000Y1200000D02*
X21370000Y-1200000D01*
X20630000Y-1200000D02*
X20630000Y1200000D01*
X20630000Y1200000D02*
X21370000Y1200000D01*
D19*
X19940000Y1610000D02*
G75*
G02*
X19640000Y1610000I-150000J0D01*
G01*
X19640000Y1610000D02*
G75*
G02*
X19940000Y1610000I150000J0D01*
G01*
D14*
%TO.C,U1*%
X4630000Y5385000D02*
X4160000Y5725000D01*
X4630000Y6065000D01*
X4630000Y5385000D01*
G36*
X4630000Y5385000D02*
G01*
X4160000Y5725000D01*
X4630000Y6065000D01*
X4630000Y5385000D01*
G37*
X-5110000Y-5110000D02*
X-4160000Y-5110000D01*
X5110000Y-5110000D02*
X4160000Y-5110000D01*
X-5110000Y-4160000D02*
X-5110000Y-5110000D01*
X5110000Y-4160000D02*
X5110000Y-5110000D01*
X-5110000Y4160000D02*
X-5110000Y5110000D01*
X5110000Y4160000D02*
X5110000Y5110000D01*
X-5110000Y5110000D02*
X-4160000Y5110000D01*
X5110000Y5110000D02*
X4160000Y5110000D01*
%TO.C,R17*%
X-11772500Y-34487258D02*
X-11772500Y-34012742D01*
X-10727500Y-34487258D02*
X-10727500Y-34012742D01*
%TO.C,D1*%
X-14710000Y-2435000D02*
X-12790000Y-2435000D01*
X-12790000Y-2435000D02*
X-12790000Y250000D01*
X-14710000Y250000D02*
X-14710000Y-2435000D01*
%TO.C,C2*%
X-8735000Y-1461252D02*
X-8735000Y-938748D01*
X-7265000Y-1461252D02*
X-7265000Y-938748D01*
%TO.C,C13*%
X-3007836Y-19640000D02*
X-2792164Y-19640000D01*
X-3007836Y-20360000D02*
X-2792164Y-20360000D01*
%TO.C,C7*%
X-7860000Y2892164D02*
X-7860000Y3107836D01*
X-7140000Y2892164D02*
X-7140000Y3107836D01*
%TO.C,C8*%
X5162164Y7110000D02*
X5377836Y7110000D01*
X5162164Y6390000D02*
X5377836Y6390000D01*
%TO.C,C21*%
X21761252Y-3735000D02*
X21238748Y-3735000D01*
X21761252Y-2265000D02*
X21238748Y-2265000D01*
%TO.C,C20*%
X23765000Y-17261252D02*
X23765000Y-16738748D01*
X25235000Y-17261252D02*
X25235000Y-16738748D01*
%TO.C,R3*%
X6562258Y-19772500D02*
X6087742Y-19772500D01*
X6562258Y-18727500D02*
X6087742Y-18727500D01*
%TO.C,R21*%
X22987258Y1727500D02*
X22512742Y1727500D01*
X22987258Y2772500D02*
X22512742Y2772500D01*
%TO.C,C19*%
X-9985000Y-34761252D02*
X-9985000Y-34238748D01*
X-8515000Y-34761252D02*
X-8515000Y-34238748D01*
%TO.C,R6*%
X6087742Y-23227500D02*
X6562258Y-23227500D01*
X6087742Y-24272500D02*
X6562258Y-24272500D01*
%TO.C,C12*%
X-10988748Y-22135000D02*
X-11511252Y-22135000D01*
X-10988748Y-20665000D02*
X-11511252Y-20665000D01*
%TO.C,R18*%
X3772500Y-10762742D02*
X3772500Y-11237258D01*
X2727500Y-10762742D02*
X2727500Y-11237258D01*
%TO.C,C25*%
X15610000Y2357836D02*
X15610000Y2142164D01*
X14890000Y2357836D02*
X14890000Y2142164D01*
%TO.C,R7*%
X6562258Y-13772500D02*
X6087742Y-13772500D01*
X6562258Y-12727500D02*
X6087742Y-12727500D01*
%TO.C,C23*%
X23011252Y4055000D02*
X22488748Y4055000D01*
X23011252Y5525000D02*
X22488748Y5525000D01*
%TO.C,R22*%
X18522500Y-512742D02*
X18522500Y-987258D01*
X17477500Y-512742D02*
X17477500Y-987258D01*
%TO.C,R11*%
X-522500Y-11237258D02*
X-522500Y-10762742D01*
X522500Y-11237258D02*
X522500Y-10762742D01*
%TO.C,C17*%
X2985000Y-21488748D02*
X2985000Y-22011252D01*
X1515000Y-21488748D02*
X1515000Y-22011252D01*
%TO.C,R9*%
X6087742Y-9727500D02*
X6562258Y-9727500D01*
X6087742Y-10772500D02*
X6562258Y-10772500D01*
%TO.C,C15*%
X207836Y-20360000D02*
X-7836Y-20360000D01*
X207836Y-19640000D02*
X-7836Y-19640000D01*
%TO.C,R25*%
X18522500Y2487258D02*
X18522500Y2012742D01*
X17477500Y2487258D02*
X17477500Y2012742D01*
%TO.C,C9*%
X-9488748Y-5235000D02*
X-10011252Y-5235000D01*
X-9488748Y-3765000D02*
X-10011252Y-3765000D01*
%TO.C,R8*%
X6087742Y-14227500D02*
X6562258Y-14227500D01*
X6087742Y-15272500D02*
X6562258Y-15272500D01*
%TO.C,C14*%
X-238748Y-23235000D02*
X-761252Y-23235000D01*
X-238748Y-21765000D02*
X-761252Y-21765000D01*
%TO.C,R4*%
X6087742Y-20227500D02*
X6562258Y-20227500D01*
X6087742Y-21272500D02*
X6562258Y-21272500D01*
%TO.C,R10*%
X6562258Y-12272500D02*
X6087742Y-12272500D01*
X6562258Y-11227500D02*
X6087742Y-11227500D01*
%TO.C,C1*%
X5162164Y9110000D02*
X5377836Y9110000D01*
X5162164Y8390000D02*
X5377836Y8390000D01*
%TO.C,C5*%
X3857836Y-7860000D02*
X3642164Y-7860000D01*
X3857836Y-7140000D02*
X3642164Y-7140000D01*
%TO.C,R20*%
X6562258Y-16772500D02*
X6087742Y-16772500D01*
X6562258Y-15727500D02*
X6087742Y-15727500D01*
%TO.C,R16*%
X6562258Y-18272500D02*
X6087742Y-18272500D01*
X6562258Y-17227500D02*
X6087742Y-17227500D01*
%TO.C,D2*%
X-12790000Y5435000D02*
X-14710000Y5435000D01*
X-14710000Y5435000D02*
X-14710000Y2750000D01*
X-12790000Y2750000D02*
X-12790000Y5435000D01*
%TO.C,R5*%
X6562258Y-22772500D02*
X6087742Y-22772500D01*
X6562258Y-21727500D02*
X6087742Y-21727500D01*
%TO.C,R15*%
X-10727500Y-30762742D02*
X-10727500Y-31237258D01*
X-11772500Y-30762742D02*
X-11772500Y-31237258D01*
D12*
%TO.C,Y1*%
X3530000Y8030000D02*
X3530000Y11430000D01*
X3530000Y11430000D02*
X-570000Y11430000D01*
X-570000Y11430000D02*
X-570000Y8030000D01*
X-570000Y8030000D02*
X3530000Y8030000D01*
X3790000Y11150000D02*
X3790000Y11660000D01*
X3790000Y11660000D02*
X3280000Y11660000D01*
D14*
%TO.C,C18*%
X5892164Y-24640000D02*
X6107836Y-24640000D01*
X5892164Y-25360000D02*
X6107836Y-25360000D01*
%TO.C,C4*%
X-7860000Y-4107836D02*
X-7860000Y-3892164D01*
X-7140000Y-4107836D02*
X-7140000Y-3892164D01*
%TO.C,C16*%
X207836Y-21360000D02*
X-7836Y-21360000D01*
X207836Y-20640000D02*
X-7836Y-20640000D01*
%TO.C,R26*%
X15987258Y-522500D02*
X15512742Y-522500D01*
X15987258Y522500D02*
X15512742Y522500D01*
%TO.C,R24*%
X17022500Y2487258D02*
X17022500Y2012742D01*
X15977500Y2487258D02*
X15977500Y2012742D01*
%TO.C,R23*%
X15987258Y-2272500D02*
X15512742Y-2272500D01*
X15987258Y-1227500D02*
X15512742Y-1227500D01*
%TO.C,C11*%
X337836Y7040000D02*
X122164Y7040000D01*
X337836Y7760000D02*
X122164Y7760000D01*
%TO.C,C22*%
X24360000Y-142164D02*
X24360000Y-357836D01*
X23640000Y-142164D02*
X23640000Y-357836D01*
%TO.C,C24*%
X23011252Y6305000D02*
X22488748Y6305000D01*
X23011252Y7775000D02*
X22488748Y7775000D01*
%TO.C,C6*%
X7860000Y3857836D02*
X7860000Y3642164D01*
X7140000Y3857836D02*
X7140000Y3642164D01*
D10*
%TO.C,U3*%
X28370000Y-11290000D02*
X28370000Y-11920000D01*
X27330000Y-11290000D02*
X28370000Y-11290000D01*
X27330000Y-11920000D02*
X27330000Y-11290000D01*
X31840000Y-22000000D02*
X31840000Y-12000000D01*
X27800000Y-22000000D02*
X27800000Y-12000000D01*
X33700000Y-22000000D02*
X33700000Y-12000000D01*
X26000000Y-22000000D02*
X33700000Y-22000000D01*
X26000000Y-12000000D02*
X33700000Y-12000000D01*
X26000000Y-22000000D02*
X26000000Y-12000000D01*
%TD*%
%LPC*%
D20*
%TO.C,J3*%
X-17790000Y8000000D03*
D21*
X-15250000Y8000000D03*
%TD*%
D22*
%TO.C,J2*%
X-16000000Y-14110000D03*
X-16000000Y-19890000D03*
D23*
X-14920000Y-13800000D03*
X-14920000Y-14600000D03*
D24*
X-14920000Y-15750000D03*
X-14920000Y-16750000D03*
X-14920000Y-16250000D03*
X-14920000Y-18250000D03*
D23*
X-14920000Y-14600000D03*
X-14920000Y-13800000D03*
X-14920000Y-20200000D03*
X-14920000Y-19400000D03*
D24*
X-14920000Y-18750000D03*
X-14920000Y-17750000D03*
X-14920000Y-17250000D03*
X-14920000Y-15250000D03*
D23*
X-14920000Y-19400000D03*
X-14920000Y-20200000D03*
D25*
X-15470000Y-12680000D03*
D26*
X-19680000Y-12680000D03*
D25*
X-15470000Y-21320000D03*
D26*
X-19680000Y-21320000D03*
%TD*%
D27*
%TO.C,TP3*%
X-14500000Y-35500000D03*
%TD*%
%TO.C,TP2*%
X26500000Y-35500000D03*
%TD*%
%TO.C,TP1*%
X31500000Y-30250000D03*
%TD*%
D28*
%TO.C,L1*%
X28500000Y-1200000D03*
X28500000Y5700000D03*
%TD*%
D29*
%TO.C,SW1*%
X-10150000Y13207500D03*
X-3350000Y13207500D03*
D30*
X-9250000Y9797500D03*
X-6750000Y9797500D03*
X-4250000Y9797500D03*
%TD*%
D31*
%TO.C,SW2*%
X20180000Y-7750000D03*
X15820000Y-7750000D03*
%TD*%
D32*
%TO.C,R32*%
X14500000Y-23250000D03*
X14500000Y-24270000D03*
%TD*%
%TO.C,R31*%
X14500000Y-20490000D03*
X14500000Y-21510000D03*
%TD*%
%TO.C,R30*%
X14500000Y-17750000D03*
X14500000Y-18770000D03*
%TD*%
%TO.C,R29*%
X14500000Y-14990000D03*
X14500000Y-16010000D03*
%TD*%
%TO.C,R28*%
X14500000Y-12230000D03*
X14500000Y-13250000D03*
%TD*%
D33*
%TO.C,R27*%
X14250000Y-6100000D03*
X14250000Y-7750000D03*
%TD*%
D34*
%TO.C,D7*%
X17687500Y-23750000D03*
X15812500Y-23750000D03*
%TD*%
%TO.C,D6*%
X17687500Y-21000000D03*
X15812500Y-21000000D03*
%TD*%
%TO.C,D5*%
X17687500Y-18250000D03*
X15812500Y-18250000D03*
%TD*%
%TO.C,D4*%
X17687500Y-15500000D03*
X15812500Y-15500000D03*
%TD*%
%TO.C,D3*%
X17687500Y-12750000D03*
X15812500Y-12750000D03*
%TD*%
D35*
%TO.C,C26*%
X14500000Y-9040000D03*
X14500000Y-10000000D03*
%TD*%
D36*
%TO.C,J1*%
X7940000Y13250000D03*
D37*
X10480000Y13250000D03*
X13020000Y13250000D03*
X15560000Y13250000D03*
%TD*%
D33*
%TO.C,R13*%
X-5250000Y-11825000D03*
X-5250000Y-10175000D03*
%TD*%
D38*
%TO.C,Q1*%
X-6550000Y-23840000D03*
X-6550000Y-25120000D03*
X-6550000Y-26380000D03*
X-6550000Y-27650000D03*
X-11950000Y-27650000D03*
X-11950000Y-26380000D03*
X-11950000Y-25120000D03*
X-11950000Y-23840000D03*
%TD*%
D39*
%TO.C,R1*%
X-11250000Y75000D03*
X-11250000Y-1575000D03*
%TD*%
D33*
%TO.C,R12*%
X-11250000Y2862500D03*
X-11250000Y4512500D03*
%TD*%
D40*
%TO.C,Q3*%
X-10500000Y6000000D03*
X-8500000Y5050000D03*
X-8500000Y6950000D03*
%TD*%
D41*
%TO.C,H4*%
X-19500000Y-35500000D03*
%TD*%
D33*
%TO.C,R19*%
X-1500000Y-11825000D03*
X-1500000Y-10175000D03*
%TD*%
%TO.C,R14*%
X-3000000Y-11825000D03*
X-3000000Y-10175000D03*
%TD*%
D32*
%TO.C,R2*%
X-6000000Y7510000D03*
X-6000000Y6490000D03*
%TD*%
D42*
%TO.C,U2*%
X1970000Y-18250000D03*
X1970000Y-17750000D03*
X1970000Y-17250000D03*
X1970000Y-16750000D03*
X1970000Y-16250000D03*
X1970000Y-15750000D03*
D43*
X1250000Y-15030000D03*
X750000Y-15030000D03*
X250000Y-15030000D03*
X-250000Y-15030000D03*
X-750000Y-15030000D03*
X-1250000Y-15030000D03*
D42*
X-1970000Y-15750000D03*
X-1970000Y-16250000D03*
X-1970000Y-16750000D03*
X-1970000Y-17250000D03*
X-1970000Y-17750000D03*
X-1970000Y-18250000D03*
D43*
X-1250000Y-18970000D03*
X-750000Y-18970000D03*
X-250000Y-18970000D03*
X250000Y-18970000D03*
X750000Y-18970000D03*
X1250000Y-18970000D03*
D44*
X0Y-17000000D03*
%TD*%
D41*
%TO.C,H3*%
X31500000Y-35500000D03*
%TD*%
%TO.C,H2*%
X31500000Y12500000D03*
%TD*%
%TO.C,H1*%
X-19500000Y12500000D03*
%TD*%
D45*
%TO.C,C3*%
X-1520000Y7400000D03*
X-2480000Y7400000D03*
%TD*%
%TO.C,C10*%
X3230000Y7400000D03*
X2270000Y7400000D03*
%TD*%
D46*
%TO.C,U4*%
X19790000Y980000D03*
X19790000Y330000D03*
X19790000Y-320000D03*
X19790000Y-980000D03*
X22210000Y-980000D03*
X22210000Y-320000D03*
X22210000Y330000D03*
X22210000Y980000D03*
%TD*%
D47*
%TO.C,U1*%
X5675000Y3750000D03*
X5675000Y3250000D03*
X5675000Y2750000D03*
X5675000Y2250000D03*
X5675000Y1750000D03*
X5675000Y1250000D03*
X5675000Y750000D03*
X5675000Y250000D03*
X5675000Y-250000D03*
X5675000Y-750000D03*
X5675000Y-1250000D03*
X5675000Y-1750000D03*
X5675000Y-2250000D03*
X5675000Y-2750000D03*
X5675000Y-3250000D03*
X5675000Y-3750000D03*
D48*
X3750000Y-5675000D03*
X3250000Y-5675000D03*
X2750000Y-5675000D03*
X2250000Y-5675000D03*
X1750000Y-5675000D03*
X1250000Y-5675000D03*
X750000Y-5675000D03*
X250000Y-5675000D03*
X-250000Y-5675000D03*
X-750000Y-5675000D03*
X-1250000Y-5675000D03*
X-1750000Y-5675000D03*
X-2250000Y-5675000D03*
X-2750000Y-5675000D03*
X-3250000Y-5675000D03*
X-3750000Y-5675000D03*
D47*
X-5675000Y-3750000D03*
X-5675000Y-3250000D03*
X-5675000Y-2750000D03*
X-5675000Y-2250000D03*
X-5675000Y-1750000D03*
X-5675000Y-1250000D03*
X-5675000Y-750000D03*
X-5675000Y-250000D03*
X-5675000Y250000D03*
X-5675000Y750000D03*
X-5675000Y1250000D03*
X-5675000Y1750000D03*
X-5675000Y2250000D03*
X-5675000Y2750000D03*
X-5675000Y3250000D03*
X-5675000Y3750000D03*
D48*
X-3750000Y5675000D03*
X-3250000Y5675000D03*
X-2750000Y5675000D03*
X-2250000Y5675000D03*
X-1750000Y5675000D03*
X-1250000Y5675000D03*
X-750000Y5675000D03*
X-250000Y5675000D03*
X250000Y5675000D03*
X750000Y5675000D03*
X1250000Y5675000D03*
X1750000Y5675000D03*
X2250000Y5675000D03*
X2750000Y5675000D03*
X3250000Y5675000D03*
X3750000Y5675000D03*
%TD*%
D39*
%TO.C,R17*%
X-11250000Y-35075000D03*
X-11250000Y-33425000D03*
%TD*%
D49*
%TO.C,D1*%
X-13750000Y-1687500D03*
X-13750000Y187500D03*
%TD*%
D50*
%TO.C,C2*%
X-8000000Y-2150000D03*
X-8000000Y-250000D03*
%TD*%
D45*
%TO.C,C13*%
X-3380000Y-20000000D03*
X-2420000Y-20000000D03*
%TD*%
D51*
%TO.C,C7*%
X-7500000Y2520000D03*
X-7500000Y3480000D03*
%TD*%
D45*
%TO.C,C8*%
X4790000Y6750000D03*
X5750000Y6750000D03*
%TD*%
D52*
%TO.C,C21*%
X22450000Y-3000000D03*
X20550000Y-3000000D03*
%TD*%
D50*
%TO.C,C20*%
X24500000Y-17950000D03*
X24500000Y-16050000D03*
%TD*%
D53*
%TO.C,R3*%
X7150000Y-19250000D03*
X5500000Y-19250000D03*
%TD*%
%TO.C,R21*%
X23575000Y2250000D03*
X21925000Y2250000D03*
%TD*%
D50*
%TO.C,C19*%
X-9250000Y-35450000D03*
X-9250000Y-33550000D03*
%TD*%
D54*
%TO.C,R6*%
X5500000Y-23750000D03*
X7150000Y-23750000D03*
%TD*%
D52*
%TO.C,C12*%
X-10300000Y-21400000D03*
X-12200000Y-21400000D03*
%TD*%
D33*
%TO.C,R18*%
X3250000Y-10175000D03*
X3250000Y-11825000D03*
%TD*%
D35*
%TO.C,C25*%
X15250000Y2730000D03*
X15250000Y1770000D03*
%TD*%
D53*
%TO.C,R7*%
X7150000Y-13250000D03*
X5500000Y-13250000D03*
%TD*%
D52*
%TO.C,C23*%
X23700000Y4790000D03*
X21800000Y4790000D03*
%TD*%
D33*
%TO.C,R22*%
X18000000Y75000D03*
X18000000Y-1575000D03*
%TD*%
D39*
%TO.C,R11*%
X0Y-11825000D03*
X0Y-10175000D03*
%TD*%
D55*
%TO.C,C17*%
X2250000Y-20800000D03*
X2250000Y-22700000D03*
%TD*%
D54*
%TO.C,R9*%
X5500000Y-10250000D03*
X7150000Y-10250000D03*
%TD*%
D56*
%TO.C,C15*%
X580000Y-20000000D03*
X-380000Y-20000000D03*
%TD*%
D33*
%TO.C,R25*%
X18000000Y3075000D03*
X18000000Y1425000D03*
%TD*%
D52*
%TO.C,C9*%
X-8800000Y-4500000D03*
X-10700000Y-4500000D03*
%TD*%
D54*
%TO.C,R8*%
X5500000Y-14750000D03*
X7150000Y-14750000D03*
%TD*%
D52*
%TO.C,C14*%
X450000Y-22500000D03*
X-1450000Y-22500000D03*
%TD*%
D54*
%TO.C,R4*%
X5500000Y-20750000D03*
X7150000Y-20750000D03*
%TD*%
D53*
%TO.C,R10*%
X7150000Y-11750000D03*
X5500000Y-11750000D03*
%TD*%
D45*
%TO.C,C1*%
X4790000Y8750000D03*
X5750000Y8750000D03*
%TD*%
D56*
%TO.C,C5*%
X4230000Y-7500000D03*
X3270000Y-7500000D03*
%TD*%
D53*
%TO.C,R20*%
X7150000Y-16250000D03*
X5500000Y-16250000D03*
%TD*%
%TO.C,R16*%
X7150000Y-17750000D03*
X5500000Y-17750000D03*
%TD*%
D57*
%TO.C,D2*%
X-13750000Y4687500D03*
X-13750000Y2812500D03*
%TD*%
D53*
%TO.C,R5*%
X7150000Y-22250000D03*
X5500000Y-22250000D03*
%TD*%
D33*
%TO.C,R15*%
X-11250000Y-30175000D03*
X-11250000Y-31825000D03*
%TD*%
D58*
%TO.C,Y1*%
X2600000Y10630000D03*
X400000Y10630000D03*
X400000Y8870000D03*
X2600000Y8870000D03*
%TD*%
D45*
%TO.C,C18*%
X5520000Y-25000000D03*
X6480000Y-25000000D03*
%TD*%
D51*
%TO.C,C4*%
X-7500000Y-4480000D03*
X-7500000Y-3520000D03*
%TD*%
D56*
%TO.C,C16*%
X580000Y-21000000D03*
X-380000Y-21000000D03*
%TD*%
D53*
%TO.C,R26*%
X16575000Y0D03*
X14925000Y0D03*
%TD*%
D33*
%TO.C,R24*%
X16500000Y3075000D03*
X16500000Y1425000D03*
%TD*%
D53*
%TO.C,R23*%
X16575000Y-1750000D03*
X14925000Y-1750000D03*
%TD*%
D56*
%TO.C,C11*%
X710000Y7400000D03*
X-250000Y7400000D03*
%TD*%
D35*
%TO.C,C22*%
X24000000Y230000D03*
X24000000Y-730000D03*
%TD*%
D52*
%TO.C,C24*%
X23700000Y7040000D03*
X21800000Y7040000D03*
%TD*%
D35*
%TO.C,C6*%
X7500000Y4230000D03*
X7500000Y3270000D03*
%TD*%
D41*
%TO.C,U3*%
X30000000Y-14500000D03*
X30000000Y-19500000D03*
%TD*%
%LPD*%
M02*
