%TF.GenerationSoftware,KiCad,Pcbnew,9.0.3-9.0.3-0~ubuntu22.04.1*%
%TF.CreationDate,2025-09-08T10:32:46+08:00*%
%TF.ProjectId,pdtrigger,70647472-6967-4676-9572-2e6b69636164,rev?*%
%TF.SameCoordinates,Original*%
%TF.FileFunction,Copper,L4,Bot*%
%TF.FilePolarity,Positive*%
%FSLAX46Y46*%
G04 Gerber Fmt 4.6, Leading zero omitted, Abs format (unit mm)*
G04 Created by KiCad (PCBNEW 9.0.3-9.0.3-0~ubuntu22.04.1) date 2025-09-08 10:32:46*
%MOMM*%
%LPD*%
G01*
G04 APERTURE LIST*
%TA.AperFunction,ComponentPad*%
%ADD10C,2.200000*%
%TD*%
%TA.AperFunction,ComponentPad*%
%ADD11O,1.800000X1.200000*%
%TD*%
%TA.AperFunction,ComponentPad*%
%ADD12O,2.000000X1.100000*%
%TD*%
%TA.AperFunction,ComponentPad*%
%ADD13C,1.500000*%
%TD*%
%TA.AperFunction,ComponentPad*%
%ADD14R,2.000000X2.000000*%
%TD*%
%TA.AperFunction,ComponentPad*%
%ADD15C,2.000000*%
%TD*%
%TA.AperFunction,ComponentPad*%
%ADD16R,1.700000X1.700000*%
%TD*%
%TA.AperFunction,ComponentPad*%
%ADD17C,1.700000*%
%TD*%
%TA.AperFunction,ViaPad*%
%ADD18C,0.500000*%
%TD*%
%TA.AperFunction,ViaPad*%
%ADD19C,0.600000*%
%TD*%
%TA.AperFunction,ViaPad*%
%ADD20C,1.000000*%
%TD*%
%TA.AperFunction,Conductor*%
%ADD21C,0.250000*%
%TD*%
%TA.AperFunction,Conductor*%
%ADD22C,0.200000*%
%TD*%
%TA.AperFunction,Conductor*%
%ADD23C,1.000000*%
%TD*%
G04 APERTURE END LIST*
D10*
%TO.P,U3,1,1*%
%TO.N,/V_BUS_OUT*%
X30000000Y-19500000D03*
%TO.P,U3,2,2*%
%TO.N,GND*%
X30000000Y-14500000D03*
%TD*%
D11*
%TO.P,J2,S1,SHIELD*%
%TO.N,GND*%
X-19680000Y-21320000D03*
D12*
X-15470000Y-21320000D03*
D11*
X-19680000Y-12680000D03*
D12*
X-15470000Y-12680000D03*
%TD*%
D13*
%TO.P,TP3,1,1*%
%TO.N,/VBUS*%
X-14500000Y-35500000D03*
%TD*%
%TO.P,TP3,1,1*%
%TO.N,GND*%
X26500000Y-35500000D03*
%TD*%
%TO.P,TP3,1,1*%
%TO.N,/V_BUS_OUT*%
X31500000Y-30250000D03*
%TD*%
D14*
%TO.P,J3,1,Pin_1*%
%TO.N,/UART_TX*%
X-17790000Y8000000D03*
D15*
%TO.P,J3,2,Pin_2*%
%TO.N,/UART_RX*%
X-15250000Y8000000D03*
%TD*%
D16*
%TO.P,J1,1,Pin_1*%
%TO.N,GND*%
X7940000Y13250000D03*
D17*
%TO.P,J1,2,Pin_2*%
%TO.N,/SWCLK*%
X10480000Y13250000D03*
%TO.P,J1,3,Pin_3*%
%TO.N,/SWDIO*%
X13020000Y13250000D03*
%TO.P,J1,4,Pin_4*%
%TO.N,+3V3_MCU*%
X15560000Y13250000D03*
%TD*%
D18*
%TO.N,/VBUS*%
X-10250000Y-14750000D03*
%TO.N,/USB_D-*%
X-9524997Y-16125000D03*
%TO.N,/USB_D+*%
X-9524997Y-16875000D03*
%TO.N,GND*%
X-10500000Y-16500000D03*
X-14500000Y-11000000D03*
%TO.N,/VBUS*%
X-10750000Y-11000000D03*
D19*
%TO.N,GND*%
X750000Y-17750000D03*
X0Y-17750000D03*
X-750000Y-17750000D03*
X-750000Y-17000000D03*
X-750000Y-16250000D03*
X0Y-16250000D03*
X750000Y-16250000D03*
X750000Y-17000000D03*
X0Y-17000000D03*
%TO.N,/UART_TX*%
X-5750000Y5500000D03*
%TO.N,/UART_RX*%
X-6000000Y4500000D03*
%TO.N,GND*%
X22000000Y-34750000D03*
X22000000Y-36500000D03*
X12750000Y-36500000D03*
X3750000Y-36500000D03*
X17250000Y-34750000D03*
X19000000Y-22500000D03*
X19000000Y-19750000D03*
X19000000Y-14250000D03*
X15750000Y-10500000D03*
X22250000Y-5500000D03*
X22250000Y-10000000D03*
X11250000Y-22500000D03*
X13250000Y-26000000D03*
X20250000Y-26000000D03*
X19000000Y-11500000D03*
%TO.N,+3V3_MCU*%
X14250000Y-4750000D03*
%TO.N,GND*%
X-16750000Y-31750000D03*
X-16750000Y-29250000D03*
X-16750000Y-30500000D03*
X-18000000Y-31750000D03*
X-18000000Y-29250000D03*
X-18000000Y-30500000D03*
X-19250000Y-31750000D03*
X-19250000Y-29250000D03*
X-9500000Y1250000D03*
X8750000Y2500000D03*
X6500000Y5500000D03*
X11750000Y1500000D03*
X11750000Y4250000D03*
X1800000Y-24900000D03*
X7750000Y-8750000D03*
X-13500000Y-21750000D03*
X-13500000Y-20750000D03*
X-11250000Y-13000000D03*
X-12000000Y-13000000D03*
X-12750000Y-13000000D03*
X-13500000Y-13000000D03*
X-19250000Y-30500000D03*
X-500000Y-36500000D03*
X-500000Y-34750000D03*
X8000000Y-36500000D03*
X17250000Y-36500000D03*
X32750000Y-15500000D03*
X32750000Y-13250000D03*
X27000000Y-15500000D03*
X27000000Y-13250000D03*
X32000000Y-5000000D03*
X23500000Y-12250000D03*
X26250000Y-5750000D03*
X19000000Y-3250000D03*
X19500000Y-2000000D03*
X20500000Y10000000D03*
X9250000Y6250000D03*
X17000000Y6250000D03*
X17000000Y9250000D03*
X9250000Y9210000D03*
X3500000Y13500000D03*
X500000Y13500000D03*
X-1250000Y12000000D03*
X4500000Y10250000D03*
X-3683058Y-3183058D03*
X-816942Y-8933058D03*
X-2250000Y10250000D03*
X-3000000Y9500000D03*
X-19250000Y-19750000D03*
X-20500000Y-19750000D03*
X-19250000Y-18750000D03*
X-20500000Y-18750000D03*
X-19250000Y-14750000D03*
X-20500000Y-14750000D03*
X-19250000Y-15750000D03*
X-20500000Y-15750000D03*
X-19250000Y-17750000D03*
X-20500000Y-17750000D03*
X-20500000Y-16750000D03*
X-19250000Y-16750000D03*
%TO.N,/V_BUS_OUT*%
X4500000Y-25000000D03*
X-1000000Y-13250000D03*
%TO.N,GND*%
X2933058Y-8433058D03*
X-7250000Y4500000D03*
%TO.N,+3V3_MCU*%
X-8750000Y-6000000D03*
X-2000000Y-9250000D03*
X-5250000Y-9250000D03*
X4058058Y-9558058D03*
X8500000Y-13750000D03*
X8500000Y-12750000D03*
X8250000Y-22250000D03*
X8250000Y-19750000D03*
%TO.N,Net-(C18-Pad2)*%
X-4500000Y-33550000D03*
X11250000Y-26750000D03*
%TO.N,/VBUS*%
X-7750000Y-35500000D03*
%TO.N,+3V3_MCU*%
X25250000Y4750000D03*
X25250000Y6250000D03*
X31250000Y4750000D03*
X31250000Y6250000D03*
X31250000Y7750000D03*
X-10500000Y9250000D03*
X-10500000Y10250000D03*
%TO.N,/PD_FAULT*%
X-8500000Y3750000D03*
X1250000Y-4250000D03*
X1324000Y-11825000D03*
%TO.N,/SWDIO*%
X2800000Y-4200000D03*
%TO.N,/SWCLK*%
X7750000Y-3750000D03*
%TO.N,/BOOT0*%
X-5000000Y6500000D03*
X7250000Y2200000D03*
%TO.N,/NRST*%
X4750000Y7750000D03*
X750000Y4250000D03*
%TO.N,/I2C3_SCL*%
X250000Y-8500000D03*
X-4360000Y-13360000D03*
%TO.N,+3V3_MCU*%
X25250000Y12250000D03*
X26750000Y12250000D03*
X28250000Y12250000D03*
X28250000Y10750000D03*
X26750000Y10750000D03*
X25250000Y10750000D03*
X25250000Y9250000D03*
X26750000Y9250000D03*
X28250000Y9250000D03*
X29750000Y9250000D03*
X29750000Y7750000D03*
X28250000Y7750000D03*
X26750000Y7750000D03*
X25250000Y7750000D03*
%TO.N,GND*%
X20500000Y6250000D03*
X20500000Y7250000D03*
X20500000Y5000000D03*
X20500000Y4000000D03*
%TO.N,/VBUS*%
X23750000Y1250000D03*
%TO.N,+3V3_MCU*%
X18000000Y4250000D03*
X16500000Y4250000D03*
X15250000Y4250000D03*
%TO.N,GND*%
X13750000Y0D03*
X13750000Y-1750000D03*
D20*
%TO.N,/VBUS*%
X23750000Y-3250000D03*
X-3750000Y-24750000D03*
D19*
%TO.N,GND*%
X5750000Y7750000D03*
X-1500000Y8250000D03*
%TO.N,+3V3_MCU*%
X-3250000Y7250000D03*
X5250000Y5750000D03*
X8500000Y4250000D03*
X5000000Y-6500000D03*
X-7500000Y-5500000D03*
X-7500000Y1500000D03*
X-10000000Y3500000D03*
%TO.N,GND*%
X-7250000Y7000000D03*
X-13750000Y-3500000D03*
X-12000000Y-4500000D03*
X0Y-2000000D03*
X1000000Y-2000000D03*
X2000000Y-2000000D03*
X-1000000Y-2000000D03*
X-2000000Y-2000000D03*
X0Y-1000000D03*
X1000000Y-1000000D03*
X2000000Y-1000000D03*
X-1000000Y-1000000D03*
X-2000000Y-1000000D03*
X0Y2000000D03*
X1000000Y2000000D03*
X2000000Y2000000D03*
X-1000000Y2000000D03*
X-2000000Y2000000D03*
X0Y1000000D03*
X1000000Y1000000D03*
X2000000Y1000000D03*
X-1000000Y1000000D03*
X-2000000Y1000000D03*
X-2000000Y0D03*
X-1000000Y0D03*
X2000000Y0D03*
X1000000Y0D03*
X0Y0D03*
X24200000Y-14900000D03*
X24900000Y-14900000D03*
X8250000Y-10250000D03*
X8250000Y-14750000D03*
X8250000Y-20750000D03*
X8250000Y-23750000D03*
X3750000Y-22750000D03*
X2250000Y-24000000D03*
X-1200000Y-20000000D03*
X-1200000Y-21000000D03*
X-1450000Y-23950000D03*
%TO.N,/USB_D-*%
X1575000Y-7400000D03*
%TO.N,/USB_D+*%
X2425000Y-7400000D03*
%TD*%
D21*
%TO.N,/V_BUS_OUT*%
X-1000000Y-13250000D02*
X4500000Y-18750000D01*
X4500000Y-18750000D02*
X4500000Y-25000000D01*
%TO.N,/VBUS*%
X-10250000Y-11500000D02*
X-10250000Y-14750000D01*
X-10750000Y-11000000D02*
X-10250000Y-11500000D01*
D22*
%TO.N,/USB_D+*%
X-9524997Y-16875000D02*
X-9374998Y-16725001D01*
%TO.N,/USB_D-*%
X-9374998Y-16274999D02*
X-5993197Y-16274999D01*
%TO.N,/USB_D+*%
X-9374998Y-16725001D02*
X-5806803Y-16725001D01*
%TO.N,/USB_D-*%
X-9524997Y-16125000D02*
X-9374998Y-16274999D01*
X1774999Y-8506803D02*
X1774999Y-7599999D01*
X-5993197Y-16274999D02*
X1774999Y-8506803D01*
X1774999Y-7599999D02*
X1575000Y-7400000D01*
D21*
%TO.N,/UART_TX*%
X-5750000Y5500000D02*
X-5827000Y5577000D01*
X-16750000Y10000000D02*
X-17790000Y8960000D01*
X-5827000Y5577000D02*
X-9077000Y5577000D01*
X-9077000Y5577000D02*
X-13500000Y10000000D01*
X-13500000Y10000000D02*
X-16750000Y10000000D01*
X-17790000Y8960000D02*
X-17790000Y8000000D01*
%TO.N,/UART_RX*%
X-6626000Y5126000D02*
X-12376000Y5126000D01*
X-6000000Y4500000D02*
X-6626000Y5126000D01*
X-12376000Y5126000D02*
X-15250000Y8000000D01*
%TO.N,/BOOT0*%
X7250000Y2200000D02*
X7250000Y7135298D01*
X7250000Y7135298D02*
X5135298Y9250000D01*
X5135298Y9250000D02*
X-2250000Y9250000D01*
X-2250000Y9250000D02*
X-5000000Y6500000D01*
%TO.N,/PD_FAULT*%
X1324000Y-11825000D02*
X1324000Y-11061298D01*
X1324000Y-11061298D02*
X3559058Y-8826240D01*
X3559058Y-8826240D02*
X3559058Y-6559058D01*
X3559058Y-6559058D02*
X1250000Y-4250000D01*
%TO.N,Net-(C18-Pad2)*%
X-4450000Y-33500000D02*
X8000000Y-33500000D01*
X8000000Y-33500000D02*
X11250000Y-30250000D01*
X11250000Y-30250000D02*
X11250000Y-26750000D01*
X-4500000Y-33550000D02*
X-4450000Y-33500000D01*
%TO.N,/VBUS*%
X-7750000Y-35500000D02*
X-3750000Y-31500000D01*
X-3750000Y-31500000D02*
X-3750000Y-24750000D01*
D23*
X-3750000Y-24750000D02*
X-2250000Y-26250000D01*
X-250000Y-26250000D02*
X10000000Y-26250000D01*
X10000000Y-26250000D02*
X20250000Y-16000000D01*
X20250000Y-9250000D02*
X23750000Y-5750000D01*
X20250000Y-16000000D02*
X20250000Y-9250000D01*
X23750000Y-5750000D02*
X23750000Y-3250000D01*
X-2250000Y-26250000D02*
X-250000Y-26250000D01*
D21*
%TO.N,/PD_FAULT*%
X-8500000Y750000D02*
X-8500000Y3750000D01*
X-7000000Y-750000D02*
X-8500000Y750000D01*
X1250000Y-4250000D02*
X-3500000Y-4250000D01*
X-3500000Y-4250000D02*
X-7000000Y-750000D01*
%TO.N,/SWDIO*%
X7885298Y-4500000D02*
X13020000Y634702D01*
X2800000Y-4200000D02*
X3100000Y-4500000D01*
X3100000Y-4500000D02*
X7885298Y-4500000D01*
X13020000Y634702D02*
X13020000Y13250000D01*
%TO.N,/I2C3_SCL*%
X-4360000Y-13360000D02*
X250000Y-8750000D01*
X250000Y-8750000D02*
X250000Y-8500000D01*
%TO.N,/SWCLK*%
X7750000Y-3750000D02*
X10480000Y-1020000D01*
X10480000Y-1020000D02*
X10480000Y13250000D01*
%TO.N,/NRST*%
X1250000Y4250000D02*
X4750000Y7750000D01*
X750000Y4250000D02*
X1250000Y4250000D01*
%TO.N,/VBUS*%
X23750000Y-3250000D02*
X23750000Y1250000D01*
D22*
%TO.N,/USB_D+*%
X-5806803Y-16725001D02*
X2225001Y-8693197D01*
X2225001Y-8693197D02*
X2225001Y-7599999D01*
X2225001Y-7599999D02*
X2425000Y-7400000D01*
%TD*%
%TA.AperFunction,Conductor*%
%TO.N,GND*%
G36*
X6658662Y14579815D02*
G01*
X6704417Y14527011D01*
X6714361Y14457853D01*
X6690889Y14401188D01*
X6646647Y14342090D01*
X6646645Y14342087D01*
X6596403Y14207380D01*
X6596401Y14207373D01*
X6590000Y14147845D01*
X6590000Y13500000D01*
X7449238Y13500000D01*
X7427470Y13462297D01*
X7389988Y13322410D01*
X7389988Y13177590D01*
X7427470Y13037703D01*
X7449238Y13000000D01*
X6590000Y13000000D01*
X6590000Y12352156D01*
X6596401Y12292628D01*
X6596403Y12292621D01*
X6646645Y12157914D01*
X6646649Y12157907D01*
X6732809Y12042813D01*
X6732812Y12042810D01*
X6847906Y11956650D01*
X6847913Y11956646D01*
X6982620Y11906404D01*
X6982627Y11906402D01*
X7042155Y11900001D01*
X7042172Y11900000D01*
X7690000Y11900000D01*
X7690000Y12759239D01*
X7727703Y12737470D01*
X7867590Y12699988D01*
X8012410Y12699988D01*
X8152297Y12737470D01*
X8190000Y12759239D01*
X8190000Y11900000D01*
X8837828Y11900000D01*
X8837844Y11900001D01*
X8897372Y11906402D01*
X8897379Y11906404D01*
X9032086Y11956646D01*
X9032093Y11956650D01*
X9147187Y12042810D01*
X9147190Y12042813D01*
X9233350Y12157907D01*
X9233354Y12157914D01*
X9283596Y12292621D01*
X9283598Y12292628D01*
X9289999Y12352156D01*
X9290000Y12352173D01*
X9290000Y12378785D01*
X9309685Y12445824D01*
X9362489Y12491579D01*
X9431647Y12501523D01*
X9495203Y12472498D01*
X9514316Y12451673D01*
X9526172Y12435354D01*
X9665354Y12296172D01*
X9755251Y12230858D01*
X9824590Y12180479D01*
X9824592Y12180478D01*
X9824595Y12180476D01*
X9886795Y12148784D01*
X9937590Y12100812D01*
X9954500Y12038300D01*
X9954500Y-750969D01*
X9934815Y-818008D01*
X9918181Y-838650D01*
X7740465Y-3016365D01*
X7679142Y-3049850D01*
X7676976Y-3050301D01*
X7545677Y-3076418D01*
X7545667Y-3076421D01*
X7418195Y-3129221D01*
X7418182Y-3129228D01*
X7303458Y-3205885D01*
X7303454Y-3205888D01*
X7205888Y-3303454D01*
X7205885Y-3303458D01*
X7129228Y-3418182D01*
X7129221Y-3418195D01*
X7076421Y-3545667D01*
X7076418Y-3545677D01*
X7049500Y-3681004D01*
X7049500Y-3681007D01*
X7049500Y-3818993D01*
X7050954Y-3826306D01*
X7044729Y-3895897D01*
X7001868Y-3951075D01*
X6935979Y-3974322D01*
X6929338Y-3974500D01*
X3547664Y-3974500D01*
X3480625Y-3954815D01*
X3434870Y-3902011D01*
X3433124Y-3898003D01*
X3420775Y-3868189D01*
X3420772Y-3868184D01*
X3420771Y-3868182D01*
X3344114Y-3753458D01*
X3344111Y-3753454D01*
X3246545Y-3655888D01*
X3246541Y-3655885D01*
X3131817Y-3579228D01*
X3131804Y-3579221D01*
X3004332Y-3526421D01*
X3004322Y-3526418D01*
X2868995Y-3499500D01*
X2868993Y-3499500D01*
X2731007Y-3499500D01*
X2731005Y-3499500D01*
X2595677Y-3526418D01*
X2595667Y-3526421D01*
X2468195Y-3579221D01*
X2468182Y-3579228D01*
X2353458Y-3655885D01*
X2353454Y-3655888D01*
X2255888Y-3753454D01*
X2255885Y-3753458D01*
X2179228Y-3868182D01*
X2179223Y-3868192D01*
X2129205Y-3988946D01*
X2085364Y-4043349D01*
X2019069Y-4065414D01*
X1951370Y-4048135D01*
X1903760Y-3996997D01*
X1900083Y-3988945D01*
X1870778Y-3918194D01*
X1870771Y-3918182D01*
X1794114Y-3803458D01*
X1794111Y-3803454D01*
X1696545Y-3705888D01*
X1696541Y-3705885D01*
X1581817Y-3629228D01*
X1581804Y-3629221D01*
X1454332Y-3576421D01*
X1454322Y-3576418D01*
X1318995Y-3549500D01*
X1318993Y-3549500D01*
X1181007Y-3549500D01*
X1181005Y-3549500D01*
X1045677Y-3576418D01*
X1045667Y-3576421D01*
X918195Y-3629221D01*
X918182Y-3629228D01*
X806876Y-3703602D01*
X740199Y-3724480D01*
X737985Y-3724500D01*
X-3230969Y-3724500D01*
X-3298008Y-3704815D01*
X-3318650Y-3688181D01*
X-7594650Y587819D01*
X-7628135Y649142D01*
X-7623151Y718834D01*
X-7581279Y774767D01*
X-7515815Y799184D01*
X-7506969Y799500D01*
X-7431005Y799500D01*
X-7332055Y819183D01*
X-7295672Y826420D01*
X-7168189Y879225D01*
X-7053458Y955886D01*
X-6955886Y1053458D01*
X-6879225Y1168189D01*
X-6826420Y1295672D01*
X-6799500Y1431007D01*
X-6799500Y1568993D01*
X-6799500Y1568996D01*
X-6826419Y1704323D01*
X-6826420Y1704324D01*
X-6826420Y1704328D01*
X-6846770Y1753458D01*
X-6879222Y1831805D01*
X-6879229Y1831818D01*
X-6955886Y1946542D01*
X-6955889Y1946546D01*
X-7053455Y2044112D01*
X-7053459Y2044115D01*
X-7168183Y2120772D01*
X-7168196Y2120779D01*
X-7295668Y2173579D01*
X-7295678Y2173582D01*
X-7431005Y2200500D01*
X-7431007Y2200500D01*
X-7568993Y2200500D01*
X-7568995Y2200500D01*
X-7704323Y2173582D01*
X-7704333Y2173579D01*
X-7803048Y2132690D01*
X-7872518Y2125221D01*
X-7934997Y2156497D01*
X-7970648Y2216586D01*
X-7974500Y2247251D01*
X-7974500Y3237985D01*
X-7954815Y3305024D01*
X-7953602Y3306876D01*
X-7879229Y3418183D01*
X-7879229Y3418184D01*
X-7879225Y3418189D01*
X-7826420Y3545672D01*
X-7799500Y3681007D01*
X-7799500Y3818993D01*
X-7799500Y3818996D01*
X-7826419Y3954323D01*
X-7826420Y3954324D01*
X-7826420Y3954328D01*
X-7848649Y4007994D01*
X-7879222Y4081805D01*
X-7879229Y4081818D01*
X-7955886Y4196542D01*
X-7955889Y4196546D01*
X-8053455Y4294112D01*
X-8053459Y4294115D01*
X-8172114Y4373398D01*
X-8216919Y4427010D01*
X-8225626Y4496335D01*
X-8195472Y4559363D01*
X-8136028Y4596082D01*
X-8103223Y4600500D01*
X-6895031Y4600500D01*
X-6865591Y4591856D01*
X-6835604Y4585332D01*
X-6830589Y4581578D01*
X-6827992Y4580815D01*
X-6807350Y4564181D01*
X-6733635Y4490466D01*
X-6700150Y4429143D01*
X-6699699Y4426977D01*
X-6673582Y4295678D01*
X-6673579Y4295668D01*
X-6620779Y4168196D01*
X-6620772Y4168183D01*
X-6544115Y4053459D01*
X-6544112Y4053455D01*
X-6446546Y3955889D01*
X-6446542Y3955886D01*
X-6331818Y3879229D01*
X-6331805Y3879222D01*
X-6271999Y3854450D01*
X-6204328Y3826420D01*
X-6204324Y3826420D01*
X-6204323Y3826419D01*
X-6068996Y3799500D01*
X-6068993Y3799500D01*
X-5931005Y3799500D01*
X-5809764Y3823617D01*
X-5795672Y3826420D01*
X-5668189Y3879225D01*
X-5553458Y3955886D01*
X-5455886Y4053458D01*
X-5379225Y4168189D01*
X-5326420Y4295672D01*
X-5302051Y4418183D01*
X-5299500Y4431005D01*
X-5299500Y4568996D01*
X-5326419Y4704323D01*
X-5326420Y4704324D01*
X-5326420Y4704328D01*
X-5364112Y4795323D01*
X-5371580Y4864790D01*
X-5340305Y4927270D01*
X-5318446Y4945873D01*
X-5303458Y4955886D01*
X-5205886Y5053458D01*
X-5129225Y5168189D01*
X-5076420Y5295672D01*
X-5067611Y5339959D01*
X-5049500Y5431005D01*
X-5049500Y5568996D01*
X-5049501Y5568998D01*
X-5065873Y5651309D01*
X-5059646Y5720900D01*
X-5016783Y5776078D01*
X-4950893Y5799322D01*
X-4944256Y5799500D01*
X-4931005Y5799500D01*
X-4832995Y5818996D01*
X-4795672Y5826420D01*
X-4668189Y5879225D01*
X-4553458Y5955886D01*
X-4455886Y6053458D01*
X-4379225Y6168189D01*
X-4326420Y6295672D01*
X-4300302Y6426977D01*
X-4267918Y6488887D01*
X-4266420Y6490412D01*
X-3961424Y6795409D01*
X-3900103Y6828892D01*
X-3830412Y6823908D01*
X-3786064Y6795407D01*
X-3696546Y6705889D01*
X-3696542Y6705886D01*
X-3581818Y6629229D01*
X-3581805Y6629222D01*
X-3467360Y6581818D01*
X-3454328Y6576420D01*
X-3454324Y6576420D01*
X-3454323Y6576419D01*
X-3318996Y6549500D01*
X-3318993Y6549500D01*
X-3181005Y6549500D01*
X-3082995Y6568996D01*
X-3045672Y6576420D01*
X-2918189Y6629225D01*
X-2803458Y6705886D01*
X-2705886Y6803458D01*
X-2629225Y6918189D01*
X-2576420Y7045672D01*
X-2562717Y7114561D01*
X-2549500Y7181005D01*
X-2549500Y7318996D01*
X-2576419Y7454323D01*
X-2576420Y7454324D01*
X-2576420Y7454328D01*
X-2598649Y7507994D01*
X-2629222Y7581805D01*
X-2629229Y7581818D01*
X-2705886Y7696542D01*
X-2705889Y7696546D01*
X-2795407Y7786064D01*
X-2828892Y7847387D01*
X-2823908Y7917079D01*
X-2795410Y7961423D01*
X-2068650Y8688181D01*
X-2007327Y8721666D01*
X-1980969Y8724500D01*
X4866267Y8724500D01*
X4933306Y8704815D01*
X4953948Y8688181D01*
X4995109Y8647020D01*
X5028594Y8585697D01*
X5023610Y8516005D01*
X4981738Y8460072D01*
X4916274Y8435655D01*
X4883237Y8437722D01*
X4818997Y8450500D01*
X4818993Y8450500D01*
X4681007Y8450500D01*
X4681005Y8450500D01*
X4545677Y8423582D01*
X4545667Y8423579D01*
X4418195Y8370779D01*
X4418182Y8370772D01*
X4303458Y8294115D01*
X4303454Y8294112D01*
X4205888Y8196546D01*
X4205885Y8196542D01*
X4129228Y8081818D01*
X4129221Y8081805D01*
X4076421Y7954333D01*
X4076418Y7954323D01*
X4050301Y7823024D01*
X4017916Y7761113D01*
X4016365Y7759535D01*
X1172778Y4915949D01*
X1111455Y4882464D01*
X1041763Y4887448D01*
X1037668Y4889060D01*
X954328Y4923580D01*
X954322Y4923582D01*
X818995Y4950500D01*
X818993Y4950500D01*
X681007Y4950500D01*
X681005Y4950500D01*
X545677Y4923582D01*
X545667Y4923579D01*
X418195Y4870779D01*
X418182Y4870772D01*
X303458Y4794115D01*
X303454Y4794112D01*
X205888Y4696546D01*
X205885Y4696542D01*
X129228Y4581818D01*
X129221Y4581805D01*
X76421Y4454333D01*
X76418Y4454323D01*
X49500Y4318996D01*
X49500Y4318993D01*
X49500Y4181007D01*
X49500Y4181005D01*
X49499Y4181005D01*
X76418Y4045678D01*
X76421Y4045668D01*
X129221Y3918196D01*
X129228Y3918183D01*
X205885Y3803459D01*
X205888Y3803455D01*
X303454Y3705889D01*
X303458Y3705886D01*
X418182Y3629229D01*
X418195Y3629222D01*
X545667Y3576422D01*
X545672Y3576420D01*
X545676Y3576420D01*
X545677Y3576419D01*
X681004Y3549500D01*
X681007Y3549500D01*
X818995Y3549500D01*
X917005Y3568996D01*
X954328Y3576420D01*
X1081811Y3629225D01*
X1081817Y3629229D01*
X1193123Y3703601D01*
X1241613Y3722809D01*
X1251745Y3724499D01*
X1319183Y3724499D01*
X1424591Y3752744D01*
X1452836Y3760312D01*
X1572665Y3829495D01*
X1670505Y3927335D01*
X1670505Y3927337D01*
X1680709Y3937540D01*
X1680712Y3937545D01*
X3424173Y5681005D01*
X4549499Y5681005D01*
X4576418Y5545678D01*
X4576421Y5545668D01*
X4629221Y5418196D01*
X4629228Y5418183D01*
X4705885Y5303459D01*
X4705888Y5303455D01*
X4803454Y5205889D01*
X4803458Y5205886D01*
X4918182Y5129229D01*
X4918195Y5129222D01*
X5032640Y5081818D01*
X5045672Y5076420D01*
X5045676Y5076420D01*
X5045677Y5076419D01*
X5181004Y5049500D01*
X5181007Y5049500D01*
X5318995Y5049500D01*
X5410041Y5067611D01*
X5454328Y5076420D01*
X5581811Y5129225D01*
X5696542Y5205886D01*
X5794114Y5303458D01*
X5870775Y5418189D01*
X5923580Y5545672D01*
X5944694Y5651816D01*
X5950500Y5681005D01*
X5950500Y5818996D01*
X5923581Y5954323D01*
X5923580Y5954324D01*
X5923580Y5954328D01*
X5885746Y6045668D01*
X5870778Y6081805D01*
X5870771Y6081818D01*
X5794114Y6196542D01*
X5794111Y6196546D01*
X5696545Y6294112D01*
X5696541Y6294115D01*
X5581817Y6370772D01*
X5581804Y6370779D01*
X5454332Y6423579D01*
X5454322Y6423582D01*
X5318995Y6450500D01*
X5318993Y6450500D01*
X5181007Y6450500D01*
X5181005Y6450500D01*
X5045677Y6423582D01*
X5045667Y6423579D01*
X4918195Y6370779D01*
X4918182Y6370772D01*
X4803458Y6294115D01*
X4803454Y6294112D01*
X4705888Y6196546D01*
X4705885Y6196542D01*
X4629228Y6081818D01*
X4629221Y6081805D01*
X4576421Y5954333D01*
X4576418Y5954323D01*
X4549500Y5818996D01*
X4549500Y5818993D01*
X4549500Y5681007D01*
X4549500Y5681005D01*
X4549499Y5681005D01*
X3424173Y5681005D01*
X4759536Y7016368D01*
X4820857Y7049851D01*
X4823004Y7050298D01*
X4954328Y7076420D01*
X5061411Y7120775D01*
X5081804Y7129222D01*
X5081804Y7129223D01*
X5081811Y7129225D01*
X5196542Y7205886D01*
X5294114Y7303458D01*
X5370775Y7418189D01*
X5423580Y7545672D01*
X5450500Y7681007D01*
X5450500Y7818993D01*
X5450500Y7818996D01*
X5437721Y7883237D01*
X5443948Y7952828D01*
X5486810Y8008006D01*
X5552700Y8031251D01*
X5620697Y8015184D01*
X5647019Y7995110D01*
X6688181Y6953948D01*
X6721666Y6892625D01*
X6724500Y6866267D01*
X6724500Y2712016D01*
X6704815Y2644977D01*
X6703602Y2643125D01*
X6629228Y2531818D01*
X6629221Y2531805D01*
X6576421Y2404333D01*
X6576418Y2404323D01*
X6549500Y2268996D01*
X6549500Y2268993D01*
X6549500Y2131007D01*
X6549500Y2131005D01*
X6549499Y2131005D01*
X6576418Y1995678D01*
X6576421Y1995668D01*
X6629221Y1868196D01*
X6629228Y1868183D01*
X6705885Y1753459D01*
X6705888Y1753455D01*
X6803454Y1655889D01*
X6803458Y1655886D01*
X6918182Y1579229D01*
X6918195Y1579222D01*
X7045667Y1526422D01*
X7045672Y1526420D01*
X7045676Y1526420D01*
X7045677Y1526419D01*
X7181004Y1499500D01*
X7181007Y1499500D01*
X7318995Y1499500D01*
X7410041Y1517611D01*
X7454328Y1526420D01*
X7581811Y1579225D01*
X7696542Y1655886D01*
X7794114Y1753458D01*
X7870775Y1868189D01*
X7923580Y1995672D01*
X7950500Y2131007D01*
X7950500Y2268993D01*
X7950500Y2268996D01*
X7923581Y2404323D01*
X7923580Y2404324D01*
X7923580Y2404328D01*
X7923578Y2404333D01*
X7870778Y2531805D01*
X7870771Y2531818D01*
X7796398Y2643125D01*
X7775520Y2709803D01*
X7775500Y2712016D01*
X7775500Y3684481D01*
X7795185Y3751520D01*
X7847989Y3797275D01*
X7917147Y3807219D01*
X7980703Y3778194D01*
X7987181Y3772162D01*
X8053454Y3705889D01*
X8053458Y3705886D01*
X8168182Y3629229D01*
X8168195Y3629222D01*
X8295667Y3576422D01*
X8295672Y3576420D01*
X8295676Y3576420D01*
X8295677Y3576419D01*
X8431004Y3549500D01*
X8431007Y3549500D01*
X8568995Y3549500D01*
X8667005Y3568996D01*
X8704328Y3576420D01*
X8831811Y3629225D01*
X8946542Y3705886D01*
X9044114Y3803458D01*
X9120775Y3918189D01*
X9173580Y4045672D01*
X9182389Y4089959D01*
X9200500Y4181005D01*
X9200500Y4318996D01*
X9173581Y4454323D01*
X9173580Y4454324D01*
X9173580Y4454328D01*
X9171706Y4458853D01*
X9120778Y4581805D01*
X9120771Y4581818D01*
X9044114Y4696542D01*
X9044111Y4696546D01*
X8946545Y4794112D01*
X8946541Y4794115D01*
X8831817Y4870772D01*
X8831804Y4870779D01*
X8704332Y4923579D01*
X8704322Y4923582D01*
X8568995Y4950500D01*
X8568993Y4950500D01*
X8431007Y4950500D01*
X8431005Y4950500D01*
X8295677Y4923582D01*
X8295667Y4923579D01*
X8168195Y4870779D01*
X8168182Y4870772D01*
X8053458Y4794115D01*
X8053454Y4794112D01*
X7987181Y4727838D01*
X7925858Y4694353D01*
X7856166Y4699337D01*
X7800233Y4741209D01*
X7775816Y4806673D01*
X7775500Y4815519D01*
X7775500Y7204479D01*
X7775500Y7204481D01*
X7739688Y7338134D01*
X7693472Y7418183D01*
X7670507Y7457960D01*
X7670506Y7457961D01*
X7670505Y7457963D01*
X7572665Y7555803D01*
X7572664Y7555804D01*
X7568334Y7560134D01*
X7568323Y7560144D01*
X5562873Y9565594D01*
X5562871Y9565597D01*
X5457964Y9670504D01*
X5457959Y9670508D01*
X5338138Y9739687D01*
X5309890Y9747257D01*
X5309889Y9747257D01*
X5204481Y9775501D01*
X5066115Y9775501D01*
X5058519Y9775501D01*
X5058503Y9775500D01*
X-2319186Y9775500D01*
X-2365895Y9762985D01*
X-2365894Y9762984D01*
X-2452838Y9739688D01*
X-2452839Y9739687D01*
X-2572662Y9670508D01*
X-2572667Y9670504D01*
X-5009535Y7233635D01*
X-5070858Y7200150D01*
X-5073024Y7199699D01*
X-5204323Y7173582D01*
X-5204333Y7173579D01*
X-5331805Y7120779D01*
X-5331818Y7120772D01*
X-5446542Y7044115D01*
X-5446546Y7044112D01*
X-5544112Y6946546D01*
X-5544115Y6946542D01*
X-5620772Y6831818D01*
X-5620779Y6831805D01*
X-5673579Y6704333D01*
X-5673582Y6704323D01*
X-5700500Y6568996D01*
X-5700500Y6431003D01*
X-5684127Y6348691D01*
X-5690354Y6279100D01*
X-5733217Y6223922D01*
X-5799107Y6200678D01*
X-5805744Y6200500D01*
X-5818995Y6200500D01*
X-5954323Y6173582D01*
X-5954333Y6173579D01*
X-6081807Y6120778D01*
X-6087178Y6117906D01*
X-6088360Y6120117D01*
X-6144567Y6102520D01*
X-6146776Y6102500D01*
X-8807968Y6102500D01*
X-8875007Y6122185D01*
X-8895649Y6138819D01*
X-10867052Y8110222D01*
X-12937836Y10181005D01*
X-11200501Y10181005D01*
X-11173582Y10045678D01*
X-11173579Y10045668D01*
X-11120779Y9918196D01*
X-11120772Y9918183D01*
X-11054427Y9818891D01*
X-11033549Y9752213D01*
X-11052034Y9684833D01*
X-11054427Y9681109D01*
X-11120772Y9581818D01*
X-11120779Y9581805D01*
X-11173579Y9454333D01*
X-11173582Y9454323D01*
X-11200500Y9318996D01*
X-11200500Y9318993D01*
X-11200500Y9181007D01*
X-11200500Y9181005D01*
X-11200501Y9181005D01*
X-11173582Y9045678D01*
X-11173579Y9045668D01*
X-11120779Y8918196D01*
X-11120772Y8918183D01*
X-11044115Y8803459D01*
X-11044112Y8803455D01*
X-10946546Y8705889D01*
X-10946542Y8705886D01*
X-10831818Y8629229D01*
X-10831805Y8629222D01*
X-10726725Y8585697D01*
X-10704328Y8576420D01*
X-10704324Y8576420D01*
X-10704323Y8576419D01*
X-10568996Y8549500D01*
X-10568993Y8549500D01*
X-10431005Y8549500D01*
X-10324328Y8570720D01*
X-10295672Y8576420D01*
X-10168189Y8629225D01*
X-10053458Y8705886D01*
X-9955886Y8803458D01*
X-9879225Y8918189D01*
X-9826420Y9045672D01*
X-9799500Y9181007D01*
X-9799500Y9318993D01*
X-9799500Y9318996D01*
X-9826419Y9454323D01*
X-9826420Y9454324D01*
X-9826420Y9454328D01*
X-9831005Y9465397D01*
X-9879222Y9581805D01*
X-9879224Y9581809D01*
X-9879225Y9581811D01*
X-9945575Y9681110D01*
X-9966452Y9747786D01*
X-9947968Y9815166D01*
X-9945574Y9818891D01*
X-9910905Y9870777D01*
X-9879225Y9918189D01*
X-9826420Y10045672D01*
X-9799500Y10181007D01*
X-9799500Y10318993D01*
X-9799500Y10318996D01*
X-9826419Y10454323D01*
X-9826420Y10454324D01*
X-9826420Y10454328D01*
X-9841066Y10489687D01*
X-9879222Y10581805D01*
X-9879229Y10581818D01*
X-9955886Y10696542D01*
X-9955889Y10696546D01*
X-10053455Y10794112D01*
X-10053459Y10794115D01*
X-10168183Y10870772D01*
X-10168196Y10870779D01*
X-10295668Y10923579D01*
X-10295678Y10923582D01*
X-10431005Y10950500D01*
X-10431007Y10950500D01*
X-10568993Y10950500D01*
X-10568995Y10950500D01*
X-10704323Y10923582D01*
X-10704333Y10923579D01*
X-10831805Y10870779D01*
X-10831818Y10870772D01*
X-10946542Y10794115D01*
X-10946546Y10794112D01*
X-11044112Y10696546D01*
X-11044115Y10696542D01*
X-11120772Y10581818D01*
X-11120779Y10581805D01*
X-11173579Y10454333D01*
X-11173582Y10454323D01*
X-11200500Y10318996D01*
X-11200500Y10318993D01*
X-11200500Y10181007D01*
X-11200500Y10181005D01*
X-11200501Y10181005D01*
X-12937836Y10181005D01*
X-13072426Y10315595D01*
X-13072427Y10315597D01*
X-13177334Y10420504D01*
X-13177339Y10420508D01*
X-13297160Y10489687D01*
X-13325408Y10497257D01*
X-13325409Y10497257D01*
X-13430817Y10525501D01*
X-13569183Y10525501D01*
X-13576779Y10525501D01*
X-13576795Y10525500D01*
X-16819183Y10525500D01*
X-16952836Y10489688D01*
X-16952839Y10489687D01*
X-17072662Y10420508D01*
X-17072667Y10420504D01*
X-17170507Y10322663D01*
X-18056352Y9436819D01*
X-18117675Y9403334D01*
X-18144033Y9400500D01*
X-18821518Y9400500D01*
X-18902481Y9387677D01*
X-18915304Y9385646D01*
X-19028342Y9328050D01*
X-19028343Y9328049D01*
X-19028348Y9328046D01*
X-19118046Y9238348D01*
X-19118049Y9238343D01*
X-19175648Y9125302D01*
X-19190500Y9031525D01*
X-19190500Y6968483D01*
X-19179708Y6900343D01*
X-19175646Y6874696D01*
X-19118050Y6761658D01*
X-19118048Y6761656D01*
X-19118046Y6761653D01*
X-19028348Y6671955D01*
X-19028346Y6671954D01*
X-19028342Y6671950D01*
X-18915306Y6614355D01*
X-18915302Y6614353D01*
X-18821525Y6599501D01*
X-18821519Y6599500D01*
X-16758482Y6599501D01*
X-16664696Y6614354D01*
X-16551658Y6671950D01*
X-16461950Y6761658D01*
X-16404354Y6874696D01*
X-16404354Y6874698D01*
X-16404353Y6874699D01*
X-16404353Y6874700D01*
X-16401535Y6892490D01*
X-16371606Y6955625D01*
X-16312295Y6992557D01*
X-16242432Y6991559D01*
X-16191381Y6960774D01*
X-16162364Y6931757D01*
X-16162359Y6931753D01*
X-16072224Y6866267D01*
X-15984022Y6802185D01*
X-15904474Y6761653D01*
X-15787607Y6702105D01*
X-15787604Y6702104D01*
X-15694803Y6671952D01*
X-15577951Y6633985D01*
X-15360222Y6599500D01*
X-15360221Y6599500D01*
X-15139779Y6599500D01*
X-15139778Y6599500D01*
X-14922049Y6633985D01*
X-14771739Y6682824D01*
X-14701900Y6684818D01*
X-14645743Y6652574D01*
X-12698665Y4705495D01*
X-12698664Y4705494D01*
X-12698662Y4705493D01*
X-12578839Y4636313D01*
X-12578838Y4636313D01*
X-12578835Y4636311D01*
X-12445183Y4600499D01*
X-12445181Y4600499D01*
X-12299221Y4600499D01*
X-12299205Y4600500D01*
X-8896777Y4600500D01*
X-8829738Y4580815D01*
X-8783983Y4528011D01*
X-8774039Y4458853D01*
X-8803064Y4395297D01*
X-8827886Y4373398D01*
X-8946542Y4294115D01*
X-8946546Y4294112D01*
X-9044112Y4196546D01*
X-9044115Y4196542D01*
X-9120772Y4081818D01*
X-9120779Y4081805D01*
X-9173579Y3954333D01*
X-9173582Y3954324D01*
X-9181133Y3916360D01*
X-9213519Y3854450D01*
X-9274235Y3819876D01*
X-9344004Y3823617D01*
X-9400676Y3864484D01*
X-9405852Y3871662D01*
X-9455886Y3946542D01*
X-9455889Y3946546D01*
X-9553455Y4044112D01*
X-9553459Y4044115D01*
X-9668183Y4120772D01*
X-9668196Y4120779D01*
X-9795668Y4173579D01*
X-9795678Y4173582D01*
X-9931005Y4200500D01*
X-9931007Y4200500D01*
X-10068993Y4200500D01*
X-10068995Y4200500D01*
X-10204323Y4173582D01*
X-10204333Y4173579D01*
X-10331805Y4120779D01*
X-10331818Y4120772D01*
X-10446542Y4044115D01*
X-10446546Y4044112D01*
X-10544112Y3946546D01*
X-10544115Y3946542D01*
X-10620772Y3831818D01*
X-10620779Y3831805D01*
X-10673579Y3704333D01*
X-10673582Y3704323D01*
X-10700500Y3568996D01*
X-10700500Y3568993D01*
X-10700500Y3431007D01*
X-10700500Y3431005D01*
X-10700501Y3431005D01*
X-10673582Y3295678D01*
X-10673579Y3295668D01*
X-10620779Y3168196D01*
X-10620772Y3168183D01*
X-10544115Y3053459D01*
X-10544112Y3053455D01*
X-10446546Y2955889D01*
X-10446542Y2955886D01*
X-10331818Y2879229D01*
X-10331805Y2879222D01*
X-10204333Y2826422D01*
X-10204328Y2826420D01*
X-10204324Y2826420D01*
X-10204323Y2826419D01*
X-10068996Y2799500D01*
X-10068993Y2799500D01*
X-9931005Y2799500D01*
X-9839959Y2817611D01*
X-9795672Y2826420D01*
X-9668189Y2879225D01*
X-9553458Y2955886D01*
X-9455886Y3053458D01*
X-9379225Y3168189D01*
X-9326420Y3295672D01*
X-9318868Y3333641D01*
X-9308605Y3353261D01*
X-9302747Y3374614D01*
X-9292727Y3383616D01*
X-9286484Y3395549D01*
X-9267243Y3406507D01*
X-9250769Y3421304D01*
X-9237474Y3423459D01*
X-9225769Y3430124D01*
X-9203657Y3428939D01*
X-9181799Y3432481D01*
X-9169450Y3427106D01*
X-9156000Y3426385D01*
X-9138039Y3413434D01*
X-9117735Y3404596D01*
X-9102938Y3388124D01*
X-9099327Y3385520D01*
X-9094149Y3378340D01*
X-9046398Y3306876D01*
X-9025520Y3240199D01*
X-9025500Y3237985D01*
X-9025500Y826796D01*
X-9025501Y826778D01*
X-9025501Y819183D01*
X-9025501Y680817D01*
X-9017013Y649142D01*
X-8997528Y576421D01*
X-8989690Y547169D01*
X-8989687Y547162D01*
X-8920508Y427339D01*
X-8920504Y427334D01*
X-8815600Y322430D01*
X-8815594Y322425D01*
X-3924846Y-4568323D01*
X-3924836Y-4568334D01*
X-3920506Y-4572664D01*
X-3920505Y-4572665D01*
X-3822665Y-4670505D01*
X-3702836Y-4739688D01*
X-3636010Y-4757594D01*
X-3636011Y-4757594D01*
X-3621889Y-4761377D01*
X-3569184Y-4775500D01*
X-3569183Y-4775500D01*
X737985Y-4775500D01*
X805024Y-4795185D01*
X806876Y-4796398D01*
X918182Y-4870771D01*
X918195Y-4870778D01*
X1038243Y-4920503D01*
X1045672Y-4923580D01*
X1170466Y-4948403D01*
X1176975Y-4949698D01*
X1238886Y-4982083D01*
X1240465Y-4983634D01*
X2792709Y-6535878D01*
X2826194Y-6597201D01*
X2821210Y-6666893D01*
X2779338Y-6722826D01*
X2713874Y-6747243D01*
X2657577Y-6738121D01*
X2653131Y-6736279D01*
X2629328Y-6726420D01*
X2629326Y-6726419D01*
X2629322Y-6726418D01*
X2493995Y-6699500D01*
X2493993Y-6699500D01*
X2356007Y-6699500D01*
X2356005Y-6699500D01*
X2220677Y-6726418D01*
X2220667Y-6726421D01*
X2093195Y-6779221D01*
X2093179Y-6779230D01*
X2068889Y-6795460D01*
X2002211Y-6816337D01*
X1934831Y-6797851D01*
X1931111Y-6795460D01*
X1906820Y-6779230D01*
X1906804Y-6779221D01*
X1779332Y-6726421D01*
X1779322Y-6726418D01*
X1643995Y-6699500D01*
X1643993Y-6699500D01*
X1506007Y-6699500D01*
X1506005Y-6699500D01*
X1370677Y-6726418D01*
X1370667Y-6726421D01*
X1243195Y-6779221D01*
X1243182Y-6779228D01*
X1128458Y-6855885D01*
X1128454Y-6855888D01*
X1030888Y-6953454D01*
X1030885Y-6953458D01*
X954228Y-7068182D01*
X954221Y-7068195D01*
X901421Y-7195667D01*
X901418Y-7195677D01*
X874500Y-7331004D01*
X874500Y-7331007D01*
X874500Y-7468993D01*
X874500Y-7468995D01*
X874499Y-7468995D01*
X901418Y-7604322D01*
X901421Y-7604332D01*
X954221Y-7731804D01*
X954228Y-7731817D01*
X1030885Y-7846541D01*
X1030888Y-7846545D01*
X1128457Y-7944114D01*
X1219390Y-8004873D01*
X1224480Y-8010964D01*
X1231702Y-8014262D01*
X1246565Y-8037389D01*
X1264195Y-8058485D01*
X1266146Y-8067859D01*
X1269476Y-8073040D01*
X1274499Y-8107975D01*
X1274499Y-8248126D01*
X1254814Y-8315165D01*
X1238180Y-8335807D01*
X1146474Y-8427513D01*
X1085151Y-8460998D01*
X1015459Y-8456014D01*
X959526Y-8414142D01*
X937176Y-8364023D01*
X923581Y-8295678D01*
X923581Y-8295677D01*
X923580Y-8295672D01*
X903886Y-8248126D01*
X870778Y-8168195D01*
X870771Y-8168182D01*
X794114Y-8053458D01*
X794111Y-8053454D01*
X696545Y-7955888D01*
X696541Y-7955885D01*
X581817Y-7879228D01*
X581804Y-7879221D01*
X454332Y-7826421D01*
X454322Y-7826418D01*
X318995Y-7799500D01*
X318993Y-7799500D01*
X181007Y-7799500D01*
X181005Y-7799500D01*
X45677Y-7826418D01*
X45667Y-7826421D01*
X-81805Y-7879221D01*
X-81818Y-7879228D01*
X-196542Y-7955885D01*
X-196546Y-7955888D01*
X-294112Y-8053454D01*
X-294115Y-8053458D01*
X-370772Y-8168182D01*
X-370779Y-8168195D01*
X-423579Y-8295667D01*
X-423582Y-8295677D01*
X-450500Y-8431004D01*
X-450500Y-8431007D01*
X-450500Y-8568993D01*
X-446988Y-8586648D01*
X-440479Y-8619373D01*
X-446708Y-8688964D01*
X-474416Y-8731244D01*
X-1087819Y-9344648D01*
X-1149142Y-9378133D01*
X-1218833Y-9373149D01*
X-1274767Y-9331278D01*
X-1299184Y-9265813D01*
X-1299500Y-9256967D01*
X-1299500Y-9181004D01*
X-1326419Y-9045677D01*
X-1326420Y-9045676D01*
X-1326420Y-9045672D01*
X-1339562Y-9013944D01*
X-1379222Y-8918195D01*
X-1379229Y-8918182D01*
X-1455886Y-8803458D01*
X-1455889Y-8803454D01*
X-1553455Y-8705888D01*
X-1553459Y-8705885D01*
X-1668183Y-8629228D01*
X-1668196Y-8629221D01*
X-1795668Y-8576421D01*
X-1795678Y-8576418D01*
X-1931005Y-8549500D01*
X-1931007Y-8549500D01*
X-2068993Y-8549500D01*
X-2068995Y-8549500D01*
X-2204323Y-8576418D01*
X-2204333Y-8576421D01*
X-2331805Y-8629221D01*
X-2331818Y-8629228D01*
X-2446542Y-8705885D01*
X-2446546Y-8705888D01*
X-2544112Y-8803454D01*
X-2544115Y-8803458D01*
X-2620772Y-8918182D01*
X-2620779Y-8918195D01*
X-2673579Y-9045667D01*
X-2673582Y-9045677D01*
X-2700500Y-9181004D01*
X-2700500Y-9181007D01*
X-2700500Y-9318993D01*
X-2700500Y-9318995D01*
X-2700501Y-9318995D01*
X-2673582Y-9454322D01*
X-2673579Y-9454332D01*
X-2620779Y-9581804D01*
X-2620772Y-9581817D01*
X-2544115Y-9696541D01*
X-2544112Y-9696545D01*
X-2446546Y-9794111D01*
X-2446542Y-9794114D01*
X-2331818Y-9870771D01*
X-2331805Y-9870778D01*
X-2269959Y-9896395D01*
X-2204328Y-9923580D01*
X-2204324Y-9923580D01*
X-2204323Y-9923581D01*
X-2068996Y-9950500D01*
X-1993032Y-9950500D01*
X-1925993Y-9970185D01*
X-1880238Y-10022989D01*
X-1870294Y-10092147D01*
X-1899319Y-10155703D01*
X-1905351Y-10162181D01*
X-4369535Y-12626365D01*
X-4430858Y-12659850D01*
X-4433024Y-12660301D01*
X-4564323Y-12686418D01*
X-4564333Y-12686421D01*
X-4691805Y-12739221D01*
X-4691818Y-12739228D01*
X-4806542Y-12815885D01*
X-4806546Y-12815888D01*
X-4904112Y-12913454D01*
X-4904115Y-12913458D01*
X-4980772Y-13028182D01*
X-4980779Y-13028195D01*
X-5033579Y-13155667D01*
X-5033582Y-13155677D01*
X-5060500Y-13291004D01*
X-5060500Y-13291007D01*
X-5060500Y-13428993D01*
X-5060500Y-13428995D01*
X-5060501Y-13428995D01*
X-5033582Y-13564322D01*
X-5033579Y-13564332D01*
X-4980779Y-13691804D01*
X-4980772Y-13691817D01*
X-4904115Y-13806541D01*
X-4904112Y-13806545D01*
X-4806546Y-13904111D01*
X-4806542Y-13904114D01*
X-4691818Y-13980771D01*
X-4691811Y-13980775D01*
X-4661723Y-13993237D01*
X-4607320Y-14037078D01*
X-4585254Y-14103372D01*
X-4602533Y-14171071D01*
X-4621494Y-14195480D01*
X-6164192Y-15738180D01*
X-6225515Y-15771665D01*
X-6251873Y-15774499D01*
X-8910566Y-15774499D01*
X-8977605Y-15754814D01*
X-9013669Y-15719388D01*
X-9019720Y-15710332D01*
X-9019724Y-15710327D01*
X-9110325Y-15619726D01*
X-9110329Y-15619723D01*
X-9216864Y-15548538D01*
X-9216873Y-15548533D01*
X-9335253Y-15499499D01*
X-9335259Y-15499497D01*
X-9460926Y-15474500D01*
X-9460928Y-15474500D01*
X-9589066Y-15474500D01*
X-9589068Y-15474500D01*
X-9714736Y-15499497D01*
X-9714746Y-15499500D01*
X-9827198Y-15546079D01*
X-9827218Y-15546088D01*
X-9833124Y-15548535D01*
X-9835326Y-15550005D01*
X-9835336Y-15550011D01*
X-9939666Y-15619723D01*
X-9939670Y-15619726D01*
X-10030271Y-15710327D01*
X-10030274Y-15710331D01*
X-10101459Y-15816866D01*
X-10101464Y-15816875D01*
X-10150498Y-15935255D01*
X-10150500Y-15935261D01*
X-10175497Y-16060928D01*
X-10175497Y-16060931D01*
X-10175497Y-16189069D01*
X-10175497Y-16189071D01*
X-10175498Y-16189071D01*
X-10150500Y-16314738D01*
X-10150498Y-16314744D01*
X-10101464Y-16433124D01*
X-10098589Y-16438502D01*
X-10100219Y-16439372D01*
X-10081933Y-16497813D01*
X-10099313Y-16561111D01*
X-10098589Y-16561498D01*
X-10100295Y-16564689D01*
X-10100432Y-16565189D01*
X-10101203Y-16566388D01*
X-10101464Y-16566875D01*
X-10150498Y-16685255D01*
X-10150500Y-16685261D01*
X-10175497Y-16810928D01*
X-10175497Y-16810931D01*
X-10175497Y-16939069D01*
X-10175497Y-16939071D01*
X-10175498Y-16939071D01*
X-10150500Y-17064738D01*
X-10150498Y-17064744D01*
X-10101464Y-17183124D01*
X-10101459Y-17183133D01*
X-10030274Y-17289668D01*
X-10030271Y-17289672D01*
X-9939670Y-17380273D01*
X-9939666Y-17380276D01*
X-9833131Y-17451461D01*
X-9833125Y-17451464D01*
X-9833124Y-17451465D01*
X-9714741Y-17500501D01*
X-9714737Y-17500501D01*
X-9714736Y-17500502D01*
X-9589069Y-17525500D01*
X-9589066Y-17525500D01*
X-9460926Y-17525500D01*
X-9376382Y-17508682D01*
X-9335253Y-17500501D01*
X-9216870Y-17451465D01*
X-9110328Y-17380276D01*
X-9019721Y-17289669D01*
X-9013669Y-17280612D01*
X-8960058Y-17235806D01*
X-8910566Y-17225501D01*
X-5740913Y-17225501D01*
X-5740911Y-17225501D01*
X-5613617Y-17191393D01*
X-5499489Y-17125501D01*
X-1850124Y-13476134D01*
X-1788803Y-13442651D01*
X-1719111Y-13447635D01*
X-1663178Y-13489507D01*
X-1647884Y-13516365D01*
X-1620779Y-13581804D01*
X-1620772Y-13581817D01*
X-1544115Y-13696541D01*
X-1544112Y-13696545D01*
X-1446546Y-13794111D01*
X-1446542Y-13794114D01*
X-1331818Y-13870771D01*
X-1331805Y-13870778D01*
X-1220663Y-13916814D01*
X-1204328Y-13923580D01*
X-1079534Y-13948403D01*
X-1073025Y-13949698D01*
X-1011114Y-13982083D01*
X-1009535Y-13983634D01*
X3938181Y-18931350D01*
X3971666Y-18992673D01*
X3974500Y-19019031D01*
X3974500Y-24487984D01*
X3954815Y-24555023D01*
X3953602Y-24556875D01*
X3879228Y-24668182D01*
X3879221Y-24668195D01*
X3826421Y-24795667D01*
X3826418Y-24795677D01*
X3799500Y-24931004D01*
X3799500Y-24931007D01*
X3799500Y-25068993D01*
X3799500Y-25068995D01*
X3799499Y-25068995D01*
X3825819Y-25201308D01*
X3819592Y-25270900D01*
X3776729Y-25326077D01*
X3710839Y-25349322D01*
X3704202Y-25349500D01*
X-1825639Y-25349500D01*
X-1892678Y-25329815D01*
X-1913320Y-25313181D01*
X-3175959Y-24050540D01*
X-3175960Y-24050539D01*
X-3175964Y-24050536D01*
X-3235041Y-24011063D01*
X-3323453Y-23951987D01*
X-3405394Y-23918046D01*
X-3487334Y-23884105D01*
X-3487342Y-23884103D01*
X-3661304Y-23849500D01*
X-3661308Y-23849500D01*
X-3838692Y-23849500D01*
X-3838697Y-23849500D01*
X-4012659Y-23884103D01*
X-4012671Y-23884106D01*
X-4094608Y-23918045D01*
X-4094607Y-23918046D01*
X-4176545Y-23951985D01*
X-4264960Y-24011063D01*
X-4264961Y-24011064D01*
X-4324039Y-24050537D01*
X-4449461Y-24175959D01*
X-4449464Y-24175964D01*
X-4481894Y-24224500D01*
X-4548013Y-24323453D01*
X-4571114Y-24379225D01*
X-4574119Y-24386477D01*
X-4574119Y-24386479D01*
X-4615895Y-24487333D01*
X-4615897Y-24487341D01*
X-4650500Y-24661303D01*
X-4650500Y-24838696D01*
X-4615897Y-25012658D01*
X-4615894Y-25012670D01*
X-4597064Y-25058128D01*
X-4548015Y-25176544D01*
X-4488937Y-25264960D01*
X-4456717Y-25313181D01*
X-4449464Y-25324036D01*
X-4311818Y-25461681D01*
X-4278334Y-25523002D01*
X-4275500Y-25549361D01*
X-4275500Y-31230969D01*
X-4295185Y-31298008D01*
X-4311819Y-31318650D01*
X-7759535Y-34766365D01*
X-7820858Y-34799850D01*
X-7823024Y-34800301D01*
X-7954323Y-34826418D01*
X-7954333Y-34826421D01*
X-8081805Y-34879221D01*
X-8081818Y-34879228D01*
X-8196542Y-34955885D01*
X-8196546Y-34955888D01*
X-8294112Y-35053454D01*
X-8294115Y-35053458D01*
X-8370772Y-35168182D01*
X-8370779Y-35168195D01*
X-8423579Y-35295667D01*
X-8423582Y-35295677D01*
X-8450500Y-35431004D01*
X-8450500Y-35431007D01*
X-8450500Y-35568993D01*
X-8450500Y-35568995D01*
X-8450501Y-35568995D01*
X-8423582Y-35704322D01*
X-8423579Y-35704332D01*
X-8370779Y-35831804D01*
X-8370772Y-35831817D01*
X-8294115Y-35946541D01*
X-8294112Y-35946545D01*
X-8196546Y-36044111D01*
X-8196542Y-36044114D01*
X-8081818Y-36120771D01*
X-8081805Y-36120778D01*
X-7954333Y-36173578D01*
X-7954328Y-36173580D01*
X-7954324Y-36173580D01*
X-7954323Y-36173581D01*
X-7818996Y-36200500D01*
X-7818993Y-36200500D01*
X-7681005Y-36200500D01*
X-7589959Y-36182389D01*
X-7545672Y-36173580D01*
X-7418189Y-36120775D01*
X-7303458Y-36044114D01*
X-7205886Y-35946542D01*
X-7129225Y-35831811D01*
X-7076420Y-35704328D01*
X-7050302Y-35573023D01*
X-7017918Y-35511113D01*
X-7016423Y-35509591D01*
X-6908409Y-35401577D01*
X30249500Y-35401577D01*
X30249500Y-35598422D01*
X30280290Y-35792826D01*
X30341117Y-35980029D01*
X30377324Y-36051088D01*
X30430476Y-36155405D01*
X30546172Y-36314646D01*
X30685354Y-36453828D01*
X30844595Y-36569524D01*
X30927414Y-36611722D01*
X31019970Y-36658882D01*
X31019972Y-36658882D01*
X31019975Y-36658884D01*
X31120317Y-36691487D01*
X31207173Y-36719709D01*
X31401578Y-36750500D01*
X31401583Y-36750500D01*
X31598422Y-36750500D01*
X31792826Y-36719709D01*
X31980025Y-36658884D01*
X32155405Y-36569524D01*
X32314646Y-36453828D01*
X32453828Y-36314646D01*
X32569524Y-36155405D01*
X32658884Y-35980025D01*
X32719709Y-35792826D01*
X32733726Y-35704328D01*
X32750500Y-35598422D01*
X32750500Y-35401577D01*
X32719709Y-35207173D01*
X32658882Y-35019970D01*
X32611743Y-34927455D01*
X32569524Y-34844595D01*
X32453828Y-34685354D01*
X32314646Y-34546172D01*
X32155405Y-34430476D01*
X31980029Y-34341117D01*
X31792826Y-34280290D01*
X31598422Y-34249500D01*
X31598417Y-34249500D01*
X31401583Y-34249500D01*
X31401578Y-34249500D01*
X31207173Y-34280290D01*
X31019970Y-34341117D01*
X30844594Y-34430476D01*
X30753741Y-34496485D01*
X30685354Y-34546172D01*
X30685352Y-34546174D01*
X30685351Y-34546174D01*
X30546174Y-34685351D01*
X30546174Y-34685352D01*
X30546172Y-34685354D01*
X30498841Y-34750499D01*
X30430476Y-34844594D01*
X30341117Y-35019970D01*
X30280290Y-35207173D01*
X30249500Y-35401577D01*
X-6908409Y-35401577D01*
X-5330456Y-33823623D01*
X-5269133Y-33790139D01*
X-5199441Y-33795123D01*
X-5143508Y-33836995D01*
X-5128214Y-33863852D01*
X-5120777Y-33881808D01*
X-5120772Y-33881817D01*
X-5044115Y-33996541D01*
X-5044112Y-33996545D01*
X-4946546Y-34094111D01*
X-4946542Y-34094114D01*
X-4831818Y-34170771D01*
X-4831805Y-34170778D01*
X-4704333Y-34223578D01*
X-4704328Y-34223580D01*
X-4704324Y-34223580D01*
X-4704323Y-34223581D01*
X-4568996Y-34250500D01*
X-4568993Y-34250500D01*
X-4431005Y-34250500D01*
X-4339959Y-34232389D01*
X-4295672Y-34223580D01*
X-4168189Y-34170775D01*
X-4053458Y-34094114D01*
X-4021164Y-34061820D01*
X-3959842Y-34028334D01*
X-3933482Y-34025500D01*
X7923205Y-34025500D01*
X7923221Y-34025501D01*
X7930817Y-34025501D01*
X8069181Y-34025501D01*
X8069183Y-34025501D01*
X8177256Y-33996542D01*
X8202836Y-33989688D01*
X8322665Y-33920505D01*
X8420505Y-33822665D01*
X8420505Y-33822663D01*
X8430709Y-33812460D01*
X8430713Y-33812455D01*
X11562455Y-30680713D01*
X11562460Y-30680709D01*
X11572663Y-30670505D01*
X11572665Y-30670505D01*
X11670505Y-30572665D01*
X11739688Y-30452836D01*
X11775500Y-30319183D01*
X11775500Y-30159448D01*
X30349500Y-30159448D01*
X30349500Y-30340551D01*
X30377829Y-30519410D01*
X30433787Y-30691636D01*
X30433788Y-30691639D01*
X30516006Y-30852997D01*
X30622441Y-30999494D01*
X30622445Y-30999499D01*
X30750500Y-31127554D01*
X30750505Y-31127558D01*
X30878287Y-31220396D01*
X30897006Y-31233996D01*
X30991868Y-31282331D01*
X31058360Y-31316211D01*
X31058363Y-31316212D01*
X31144476Y-31344191D01*
X31230591Y-31372171D01*
X31313429Y-31385291D01*
X31409449Y-31400500D01*
X31409454Y-31400500D01*
X31590551Y-31400500D01*
X31677259Y-31386765D01*
X31769409Y-31372171D01*
X31941639Y-31316211D01*
X32102994Y-31233996D01*
X32249501Y-31127553D01*
X32377553Y-30999501D01*
X32483996Y-30852994D01*
X32566211Y-30691639D01*
X32622171Y-30519409D01*
X32636765Y-30427259D01*
X32650500Y-30340551D01*
X32650500Y-30159448D01*
X32630366Y-30032331D01*
X32622171Y-29980591D01*
X32566211Y-29808361D01*
X32566211Y-29808360D01*
X32537740Y-29752484D01*
X32483996Y-29647006D01*
X32470396Y-29628287D01*
X32377558Y-29500505D01*
X32377554Y-29500500D01*
X32249499Y-29372445D01*
X32249494Y-29372441D01*
X32102997Y-29266006D01*
X32102996Y-29266005D01*
X32102994Y-29266004D01*
X32051300Y-29239664D01*
X31941639Y-29183788D01*
X31941636Y-29183787D01*
X31769410Y-29127829D01*
X31590551Y-29099500D01*
X31590546Y-29099500D01*
X31409454Y-29099500D01*
X31409449Y-29099500D01*
X31230589Y-29127829D01*
X31058363Y-29183787D01*
X31058360Y-29183788D01*
X30897002Y-29266006D01*
X30750505Y-29372441D01*
X30750500Y-29372445D01*
X30622445Y-29500500D01*
X30622441Y-29500505D01*
X30516006Y-29647002D01*
X30433788Y-29808360D01*
X30433787Y-29808363D01*
X30377829Y-29980589D01*
X30349500Y-30159448D01*
X11775500Y-30159448D01*
X11775500Y-27262015D01*
X11795185Y-27194976D01*
X11796398Y-27193124D01*
X11870771Y-27081817D01*
X11870774Y-27081812D01*
X11870775Y-27081811D01*
X11923580Y-26954328D01*
X11932389Y-26910041D01*
X11950500Y-26818995D01*
X11950500Y-26681004D01*
X11923581Y-26545677D01*
X11923580Y-26545676D01*
X11923580Y-26545672D01*
X11923578Y-26545667D01*
X11870778Y-26418195D01*
X11870771Y-26418182D01*
X11794114Y-26303458D01*
X11794111Y-26303454D01*
X11696542Y-26205885D01*
X11595020Y-26138051D01*
X11550215Y-26084439D01*
X11541508Y-26015114D01*
X11571662Y-25952087D01*
X11576211Y-25947287D01*
X18141597Y-19381902D01*
X28499500Y-19381902D01*
X28499500Y-19618097D01*
X28536446Y-19851368D01*
X28609433Y-20075996D01*
X28716657Y-20286433D01*
X28855483Y-20477510D01*
X29022490Y-20644517D01*
X29213567Y-20783343D01*
X29312991Y-20834002D01*
X29424003Y-20890566D01*
X29424005Y-20890566D01*
X29424008Y-20890568D01*
X29544412Y-20929689D01*
X29648631Y-20963553D01*
X29881903Y-21000500D01*
X29881908Y-21000500D01*
X30118097Y-21000500D01*
X30351368Y-20963553D01*
X30575992Y-20890568D01*
X30786433Y-20783343D01*
X30977510Y-20644517D01*
X31144517Y-20477510D01*
X31283343Y-20286433D01*
X31390568Y-20075992D01*
X31463553Y-19851368D01*
X31488032Y-19696814D01*
X31500500Y-19618097D01*
X31500500Y-19381902D01*
X31463553Y-19148631D01*
X31404754Y-18967669D01*
X31390568Y-18924008D01*
X31390566Y-18924005D01*
X31390566Y-18924003D01*
X31283342Y-18713566D01*
X31259550Y-18680819D01*
X31144517Y-18522490D01*
X30977510Y-18355483D01*
X30786433Y-18216657D01*
X30575996Y-18109433D01*
X30351368Y-18036446D01*
X30118097Y-17999500D01*
X30118092Y-17999500D01*
X29881908Y-17999500D01*
X29881903Y-17999500D01*
X29648631Y-18036446D01*
X29424003Y-18109433D01*
X29213566Y-18216657D01*
X29104550Y-18295862D01*
X29022490Y-18355483D01*
X29022488Y-18355485D01*
X29022487Y-18355485D01*
X28855485Y-18522487D01*
X28855485Y-18522488D01*
X28855483Y-18522490D01*
X28837556Y-18547165D01*
X28716657Y-18713566D01*
X28609433Y-18924003D01*
X28536446Y-19148631D01*
X28499500Y-19381902D01*
X18141597Y-19381902D01*
X20949464Y-16574036D01*
X21020191Y-16468185D01*
X21048013Y-16426547D01*
X21083492Y-16340892D01*
X21115895Y-16262666D01*
X21150500Y-16088692D01*
X21150500Y-15911308D01*
X21150500Y-9674361D01*
X21170185Y-9607322D01*
X21186819Y-9586680D01*
X24449463Y-6324036D01*
X24449465Y-6324033D01*
X24468416Y-6295672D01*
X24548013Y-6176547D01*
X24551473Y-6168195D01*
X24565544Y-6134222D01*
X24615894Y-6012666D01*
X24627189Y-5955886D01*
X24650499Y-5838695D01*
X24650500Y-5838693D01*
X24650500Y-3161306D01*
X24650499Y-3161304D01*
X24615896Y-2987341D01*
X24615893Y-2987332D01*
X24548016Y-2823459D01*
X24548009Y-2823446D01*
X24449465Y-2675966D01*
X24449464Y-2675965D01*
X24324035Y-2550536D01*
X24324031Y-2550533D01*
X24324029Y-2550531D01*
X24320826Y-2547902D01*
X24281497Y-2490152D01*
X24275500Y-2452056D01*
X24275500Y737985D01*
X24295185Y805024D01*
X24296398Y806876D01*
X24370771Y918183D01*
X24370771Y918184D01*
X24370775Y918189D01*
X24423580Y1045672D01*
X24447949Y1168183D01*
X24450500Y1181005D01*
X24450500Y1318996D01*
X24423581Y1454323D01*
X24423580Y1454324D01*
X24423580Y1454328D01*
X24393718Y1526422D01*
X24370778Y1581805D01*
X24370771Y1581818D01*
X24294114Y1696542D01*
X24294111Y1696546D01*
X24196545Y1794112D01*
X24196541Y1794115D01*
X24081817Y1870772D01*
X24081804Y1870779D01*
X23954332Y1923579D01*
X23954322Y1923582D01*
X23818995Y1950500D01*
X23818993Y1950500D01*
X23681007Y1950500D01*
X23681005Y1950500D01*
X23545677Y1923582D01*
X23545667Y1923579D01*
X23418195Y1870779D01*
X23418182Y1870772D01*
X23303458Y1794115D01*
X23303454Y1794112D01*
X23205888Y1696546D01*
X23205885Y1696542D01*
X23129228Y1581818D01*
X23129221Y1581805D01*
X23076421Y1454333D01*
X23076418Y1454323D01*
X23049500Y1318996D01*
X23049500Y1318993D01*
X23049500Y1181007D01*
X23049500Y1181005D01*
X23049499Y1181005D01*
X23076418Y1045678D01*
X23076421Y1045668D01*
X23129221Y918196D01*
X23129228Y918183D01*
X23203602Y806876D01*
X23224480Y740199D01*
X23224500Y737985D01*
X23224500Y-2452056D01*
X23204815Y-2519095D01*
X23179174Y-2547902D01*
X23175970Y-2550531D01*
X23050534Y-2675966D01*
X22951990Y-2823446D01*
X22951983Y-2823459D01*
X22884106Y-2987332D01*
X22884103Y-2987341D01*
X22849500Y-3161304D01*
X22849500Y-5325637D01*
X22829815Y-5392676D01*
X22813181Y-5413318D01*
X19550540Y-8675958D01*
X19550537Y-8675961D01*
X19533847Y-8700940D01*
X19533842Y-8700948D01*
X19531584Y-8704328D01*
X19451987Y-8823453D01*
X19426710Y-8884478D01*
X19423606Y-8891971D01*
X19423604Y-8891975D01*
X19384105Y-8987333D01*
X19384103Y-8987341D01*
X19351967Y-9148899D01*
X19351968Y-9148900D01*
X19349500Y-9161310D01*
X19349500Y-15575638D01*
X19329815Y-15642677D01*
X19313181Y-15663319D01*
X9663319Y-25313181D01*
X9601996Y-25346666D01*
X9575638Y-25349500D01*
X5295798Y-25349500D01*
X5228759Y-25329815D01*
X5183004Y-25277011D01*
X5173060Y-25207853D01*
X5174181Y-25201308D01*
X5200500Y-25068995D01*
X5200500Y-24931004D01*
X5173581Y-24795677D01*
X5173580Y-24795676D01*
X5173580Y-24795672D01*
X5173578Y-24795667D01*
X5120778Y-24668195D01*
X5120771Y-24668182D01*
X5046398Y-24556875D01*
X5025520Y-24490197D01*
X5025500Y-24487984D01*
X5025500Y-22318995D01*
X7549499Y-22318995D01*
X7576418Y-22454322D01*
X7576421Y-22454332D01*
X7629221Y-22581804D01*
X7629228Y-22581817D01*
X7705885Y-22696541D01*
X7705888Y-22696545D01*
X7803454Y-22794111D01*
X7803458Y-22794114D01*
X7918182Y-22870771D01*
X7918195Y-22870778D01*
X8045667Y-22923578D01*
X8045672Y-22923580D01*
X8045676Y-22923580D01*
X8045677Y-22923581D01*
X8181004Y-22950500D01*
X8181007Y-22950500D01*
X8318995Y-22950500D01*
X8410041Y-22932389D01*
X8454328Y-22923580D01*
X8581811Y-22870775D01*
X8696542Y-22794114D01*
X8794114Y-22696542D01*
X8870775Y-22581811D01*
X8923580Y-22454328D01*
X8950500Y-22318993D01*
X8950500Y-22181007D01*
X8950500Y-22181004D01*
X8923581Y-22045677D01*
X8923580Y-22045676D01*
X8923580Y-22045672D01*
X8923578Y-22045667D01*
X8870778Y-21918195D01*
X8870771Y-21918182D01*
X8794114Y-21803458D01*
X8794111Y-21803454D01*
X8696545Y-21705888D01*
X8696541Y-21705885D01*
X8581817Y-21629228D01*
X8581804Y-21629221D01*
X8454332Y-21576421D01*
X8454322Y-21576418D01*
X8318995Y-21549500D01*
X8318993Y-21549500D01*
X8181007Y-21549500D01*
X8181005Y-21549500D01*
X8045677Y-21576418D01*
X8045667Y-21576421D01*
X7918195Y-21629221D01*
X7918182Y-21629228D01*
X7803458Y-21705885D01*
X7803454Y-21705888D01*
X7705888Y-21803454D01*
X7705885Y-21803458D01*
X7629228Y-21918182D01*
X7629221Y-21918195D01*
X7576421Y-22045667D01*
X7576418Y-22045677D01*
X7549500Y-22181004D01*
X7549500Y-22181007D01*
X7549500Y-22318993D01*
X7549500Y-22318995D01*
X7549499Y-22318995D01*
X5025500Y-22318995D01*
X5025500Y-19818995D01*
X7549499Y-19818995D01*
X7576418Y-19954322D01*
X7576421Y-19954332D01*
X7629221Y-20081804D01*
X7629228Y-20081817D01*
X7705885Y-20196541D01*
X7705888Y-20196545D01*
X7803454Y-20294111D01*
X7803458Y-20294114D01*
X7918182Y-20370771D01*
X7918195Y-20370778D01*
X8045667Y-20423578D01*
X8045672Y-20423580D01*
X8045676Y-20423580D01*
X8045677Y-20423581D01*
X8181004Y-20450500D01*
X8181007Y-20450500D01*
X8318995Y-20450500D01*
X8410041Y-20432389D01*
X8454328Y-20423580D01*
X8581811Y-20370775D01*
X8696542Y-20294114D01*
X8794114Y-20196542D01*
X8870775Y-20081811D01*
X8923580Y-19954328D01*
X8944060Y-19851368D01*
X8950500Y-19818995D01*
X8950500Y-19681004D01*
X8923581Y-19545677D01*
X8923580Y-19545676D01*
X8923580Y-19545672D01*
X8873020Y-19423608D01*
X8870778Y-19418195D01*
X8870771Y-19418182D01*
X8794114Y-19303458D01*
X8794111Y-19303454D01*
X8696545Y-19205888D01*
X8696541Y-19205885D01*
X8581817Y-19129228D01*
X8581804Y-19129221D01*
X8454332Y-19076421D01*
X8454322Y-19076418D01*
X8318995Y-19049500D01*
X8318993Y-19049500D01*
X8181007Y-19049500D01*
X8181005Y-19049500D01*
X8045677Y-19076418D01*
X8045667Y-19076421D01*
X7918195Y-19129221D01*
X7918182Y-19129228D01*
X7803458Y-19205885D01*
X7803454Y-19205888D01*
X7705888Y-19303454D01*
X7705885Y-19303458D01*
X7629228Y-19418182D01*
X7629221Y-19418195D01*
X7576421Y-19545667D01*
X7576418Y-19545677D01*
X7549500Y-19681004D01*
X7549500Y-19681007D01*
X7549500Y-19818993D01*
X7549500Y-19818995D01*
X7549499Y-19818995D01*
X5025500Y-19818995D01*
X5025500Y-18829186D01*
X5025501Y-18829173D01*
X5025501Y-18680819D01*
X5025501Y-18680817D01*
X4989689Y-18547165D01*
X4920505Y-18427335D01*
X-266366Y-13240464D01*
X-299851Y-13179141D01*
X-300302Y-13176974D01*
X-319230Y-13081817D01*
X-326420Y-13045672D01*
X-333662Y-13028189D01*
X-379222Y-12918195D01*
X-379229Y-12918182D01*
X-445504Y-12818995D01*
X7799499Y-12818995D01*
X7826418Y-12954322D01*
X7826421Y-12954332D01*
X7879221Y-13081804D01*
X7879228Y-13081817D01*
X7945573Y-13181109D01*
X7966451Y-13247787D01*
X7947966Y-13315167D01*
X7945573Y-13318891D01*
X7879228Y-13418182D01*
X7879221Y-13418195D01*
X7826421Y-13545667D01*
X7826418Y-13545677D01*
X7799500Y-13681004D01*
X7799500Y-13681007D01*
X7799500Y-13818993D01*
X7799500Y-13818995D01*
X7799499Y-13818995D01*
X7826418Y-13954322D01*
X7826421Y-13954332D01*
X7879221Y-14081804D01*
X7879228Y-14081817D01*
X7955885Y-14196541D01*
X7955888Y-14196545D01*
X8053454Y-14294111D01*
X8053458Y-14294114D01*
X8168182Y-14370771D01*
X8168195Y-14370778D01*
X8231195Y-14396873D01*
X8295672Y-14423580D01*
X8295676Y-14423580D01*
X8295677Y-14423581D01*
X8431004Y-14450500D01*
X8431007Y-14450500D01*
X8568995Y-14450500D01*
X8660041Y-14432389D01*
X8704328Y-14423580D01*
X8831811Y-14370775D01*
X8946542Y-14294114D01*
X9044114Y-14196542D01*
X9120775Y-14081811D01*
X9173580Y-13954328D01*
X9200500Y-13818993D01*
X9200500Y-13681007D01*
X9200500Y-13681004D01*
X9173581Y-13545677D01*
X9173580Y-13545676D01*
X9173580Y-13545672D01*
X9150316Y-13489507D01*
X9120778Y-13418195D01*
X9120776Y-13418191D01*
X9120775Y-13418189D01*
X9054425Y-13318890D01*
X9033548Y-13252214D01*
X9052032Y-13184834D01*
X9054426Y-13181109D01*
X9071419Y-13155677D01*
X9120775Y-13081811D01*
X9173580Y-12954328D01*
X9200500Y-12818993D01*
X9200500Y-12681007D01*
X9200500Y-12681004D01*
X9173581Y-12545677D01*
X9173580Y-12545676D01*
X9173580Y-12545672D01*
X9165225Y-12525500D01*
X9120778Y-12418195D01*
X9120771Y-12418182D01*
X9044114Y-12303458D01*
X9044111Y-12303454D01*
X8946545Y-12205888D01*
X8946541Y-12205885D01*
X8831817Y-12129228D01*
X8831804Y-12129221D01*
X8704332Y-12076421D01*
X8704322Y-12076418D01*
X8568995Y-12049500D01*
X8568993Y-12049500D01*
X8431007Y-12049500D01*
X8431005Y-12049500D01*
X8295677Y-12076418D01*
X8295667Y-12076421D01*
X8168195Y-12129221D01*
X8168182Y-12129228D01*
X8053458Y-12205885D01*
X8053454Y-12205888D01*
X7955888Y-12303454D01*
X7955885Y-12303458D01*
X7879228Y-12418182D01*
X7879221Y-12418195D01*
X7826421Y-12545667D01*
X7826418Y-12545677D01*
X7799500Y-12681004D01*
X7799500Y-12681007D01*
X7799500Y-12818993D01*
X7799500Y-12818995D01*
X7799499Y-12818995D01*
X-445504Y-12818995D01*
X-455886Y-12803458D01*
X-455889Y-12803454D01*
X-553455Y-12705888D01*
X-553459Y-12705885D01*
X-668183Y-12629228D01*
X-668196Y-12629221D01*
X-733635Y-12602116D01*
X-788039Y-12558275D01*
X-810104Y-12491981D01*
X-792825Y-12424282D01*
X-773868Y-12399878D01*
X586818Y-11039192D01*
X606246Y-11028584D01*
X622979Y-11014083D01*
X636317Y-11012164D01*
X648141Y-11005708D01*
X670223Y-11007287D01*
X692137Y-11004135D01*
X704392Y-11009730D01*
X717833Y-11010692D01*
X735556Y-11023959D01*
X755695Y-11033155D01*
X762980Y-11044490D01*
X773766Y-11052564D01*
X781501Y-11073303D01*
X793474Y-11091930D01*
X796627Y-11113856D01*
X798183Y-11118028D01*
X798499Y-11126865D01*
X798500Y-11140474D01*
X798499Y-11140475D01*
X798500Y-11140483D01*
X798500Y-11312984D01*
X778815Y-11380023D01*
X777602Y-11381875D01*
X703228Y-11493182D01*
X703221Y-11493195D01*
X650421Y-11620667D01*
X650418Y-11620677D01*
X623500Y-11756004D01*
X623500Y-11756007D01*
X623500Y-11893993D01*
X623500Y-11893995D01*
X623499Y-11893995D01*
X650418Y-12029322D01*
X650421Y-12029332D01*
X703221Y-12156804D01*
X703228Y-12156817D01*
X779885Y-12271541D01*
X779888Y-12271545D01*
X877454Y-12369111D01*
X877458Y-12369114D01*
X992182Y-12445771D01*
X992195Y-12445778D01*
X1119667Y-12498578D01*
X1119672Y-12498580D01*
X1119676Y-12498580D01*
X1119677Y-12498581D01*
X1255004Y-12525500D01*
X1255007Y-12525500D01*
X1392995Y-12525500D01*
X1484041Y-12507389D01*
X1528328Y-12498580D01*
X1655811Y-12445775D01*
X1770542Y-12369114D01*
X1868114Y-12271542D01*
X1944775Y-12156811D01*
X1997580Y-12029328D01*
X2024500Y-11893993D01*
X2024500Y-11756007D01*
X2024500Y-11756004D01*
X1997581Y-11620677D01*
X1997580Y-11620676D01*
X1997580Y-11620672D01*
X1980390Y-11579172D01*
X1944778Y-11493195D01*
X1944771Y-11493182D01*
X1877345Y-11392272D01*
X1856467Y-11325594D01*
X1874952Y-11258214D01*
X1892762Y-11235704D01*
X3250862Y-9877603D01*
X3312183Y-9844120D01*
X3381875Y-9849104D01*
X3437808Y-9890976D01*
X3441643Y-9896395D01*
X3513943Y-10004599D01*
X3513946Y-10004603D01*
X3611512Y-10102169D01*
X3611516Y-10102172D01*
X3726240Y-10178829D01*
X3726253Y-10178836D01*
X3853725Y-10231636D01*
X3853730Y-10231638D01*
X3853734Y-10231638D01*
X3853735Y-10231639D01*
X3989062Y-10258558D01*
X3989065Y-10258558D01*
X4127053Y-10258558D01*
X4218099Y-10240447D01*
X4262386Y-10231638D01*
X4389869Y-10178833D01*
X4504600Y-10102172D01*
X4602172Y-10004600D01*
X4678833Y-9889869D01*
X4731638Y-9762386D01*
X4744735Y-9696542D01*
X4758558Y-9627053D01*
X4758558Y-9489062D01*
X4731639Y-9353735D01*
X4731638Y-9353734D01*
X4731638Y-9353730D01*
X4722338Y-9331278D01*
X4678836Y-9226253D01*
X4678829Y-9226240D01*
X4602172Y-9111516D01*
X4602169Y-9111512D01*
X4504603Y-9013946D01*
X4504599Y-9013943D01*
X4389875Y-8937286D01*
X4389862Y-8937279D01*
X4262390Y-8884479D01*
X4262380Y-8884476D01*
X4184366Y-8868958D01*
X4122455Y-8836573D01*
X4087881Y-8775857D01*
X4084558Y-8747341D01*
X4084558Y-6742955D01*
X4104243Y-6675916D01*
X4157047Y-6630161D01*
X4226205Y-6620217D01*
X4289761Y-6649242D01*
X4322330Y-6699429D01*
X4324089Y-6698701D01*
X4379221Y-6831804D01*
X4379228Y-6831817D01*
X4455885Y-6946541D01*
X4455888Y-6946545D01*
X4553454Y-7044111D01*
X4553458Y-7044114D01*
X4668182Y-7120771D01*
X4668195Y-7120778D01*
X4795667Y-7173578D01*
X4795672Y-7173580D01*
X4795676Y-7173580D01*
X4795677Y-7173581D01*
X4931004Y-7200500D01*
X4931007Y-7200500D01*
X5068995Y-7200500D01*
X5160041Y-7182389D01*
X5204328Y-7173580D01*
X5331811Y-7120775D01*
X5446542Y-7044114D01*
X5544114Y-6946542D01*
X5620775Y-6831811D01*
X5673580Y-6704328D01*
X5700500Y-6568993D01*
X5700500Y-6431007D01*
X5700500Y-6431004D01*
X5673581Y-6295677D01*
X5673580Y-6295676D01*
X5673580Y-6295672D01*
X5635746Y-6204332D01*
X5620778Y-6168195D01*
X5620771Y-6168182D01*
X5544114Y-6053458D01*
X5544111Y-6053454D01*
X5446545Y-5955888D01*
X5446541Y-5955885D01*
X5331817Y-5879228D01*
X5331804Y-5879221D01*
X5204332Y-5826421D01*
X5204322Y-5826418D01*
X5068995Y-5799500D01*
X5068993Y-5799500D01*
X4931007Y-5799500D01*
X4931005Y-5799500D01*
X4795677Y-5826418D01*
X4795667Y-5826421D01*
X4668195Y-5879221D01*
X4668182Y-5879228D01*
X4553458Y-5955885D01*
X4553454Y-5955888D01*
X4455888Y-6053454D01*
X4455885Y-6053458D01*
X4379228Y-6168182D01*
X4379221Y-6168195D01*
X4326421Y-6295667D01*
X4326418Y-6295677D01*
X4304950Y-6403603D01*
X4272565Y-6465514D01*
X4211849Y-6500088D01*
X4142079Y-6496347D01*
X4085407Y-6455481D01*
X4063559Y-6411506D01*
X4048746Y-6356222D01*
X3979563Y-6236393D01*
X3881723Y-6138553D01*
X3881722Y-6138552D01*
X3877392Y-6134222D01*
X3877381Y-6134212D01*
X2980350Y-5237181D01*
X2946865Y-5175858D01*
X2951849Y-5106166D01*
X2993721Y-5050233D01*
X3059185Y-5025816D01*
X3068031Y-5025500D01*
X7808503Y-5025500D01*
X7808519Y-5025501D01*
X7816115Y-5025501D01*
X7954479Y-5025501D01*
X7954481Y-5025501D01*
X8024753Y-5006671D01*
X8059890Y-4997256D01*
X8059891Y-4997255D01*
X8088134Y-4989688D01*
X8207963Y-4920505D01*
X8305803Y-4822665D01*
X8305803Y-4822663D01*
X8309471Y-4818995D01*
X13549499Y-4818995D01*
X13576418Y-4954322D01*
X13576421Y-4954332D01*
X13629221Y-5081804D01*
X13629228Y-5081817D01*
X13705885Y-5196541D01*
X13705888Y-5196545D01*
X13803454Y-5294111D01*
X13803458Y-5294114D01*
X13918182Y-5370771D01*
X13918195Y-5370778D01*
X14014306Y-5410588D01*
X14045672Y-5423580D01*
X14045676Y-5423580D01*
X14045677Y-5423581D01*
X14181004Y-5450500D01*
X14181007Y-5450500D01*
X14318995Y-5450500D01*
X14417005Y-5431004D01*
X14454328Y-5423580D01*
X14561411Y-5379225D01*
X14581804Y-5370778D01*
X14581804Y-5370777D01*
X14581811Y-5370775D01*
X14696542Y-5294114D01*
X14794114Y-5196542D01*
X14870775Y-5081811D01*
X14923580Y-4954328D01*
X14934287Y-4900500D01*
X14950500Y-4818995D01*
X14950500Y-4681004D01*
X14923581Y-4545677D01*
X14923580Y-4545676D01*
X14923580Y-4545672D01*
X14923578Y-4545667D01*
X14870778Y-4418195D01*
X14870771Y-4418182D01*
X14794114Y-4303458D01*
X14794111Y-4303454D01*
X14696545Y-4205888D01*
X14696541Y-4205885D01*
X14581817Y-4129228D01*
X14581804Y-4129221D01*
X14454332Y-4076421D01*
X14454322Y-4076418D01*
X14318995Y-4049500D01*
X14318993Y-4049500D01*
X14181007Y-4049500D01*
X14181005Y-4049500D01*
X14045677Y-4076418D01*
X14045667Y-4076421D01*
X13918195Y-4129221D01*
X13918182Y-4129228D01*
X13803458Y-4205885D01*
X13803454Y-4205888D01*
X13705888Y-4303454D01*
X13705885Y-4303458D01*
X13629228Y-4418182D01*
X13629221Y-4418195D01*
X13576421Y-4545667D01*
X13576418Y-4545677D01*
X13549500Y-4681004D01*
X13549500Y-4681007D01*
X13549500Y-4818993D01*
X13549500Y-4818995D01*
X13549499Y-4818995D01*
X8309471Y-4818995D01*
X8316007Y-4812460D01*
X8316011Y-4812455D01*
X13332455Y203989D01*
X13332460Y203993D01*
X13342663Y214197D01*
X13342665Y214197D01*
X13440505Y312037D01*
X13509688Y431866D01*
X13545500Y565519D01*
X13545500Y4181005D01*
X14549499Y4181005D01*
X14576418Y4045678D01*
X14576421Y4045668D01*
X14629221Y3918196D01*
X14629228Y3918183D01*
X14705885Y3803459D01*
X14705888Y3803455D01*
X14803454Y3705889D01*
X14803458Y3705886D01*
X14918182Y3629229D01*
X14918195Y3629222D01*
X15045667Y3576422D01*
X15045672Y3576420D01*
X15045676Y3576420D01*
X15045677Y3576419D01*
X15181004Y3549500D01*
X15181007Y3549500D01*
X15318995Y3549500D01*
X15417005Y3568996D01*
X15454328Y3576420D01*
X15581811Y3629225D01*
X15696542Y3705886D01*
X15715155Y3724499D01*
X15787319Y3796662D01*
X15848642Y3830147D01*
X15918334Y3825163D01*
X15962681Y3796662D01*
X16053454Y3705889D01*
X16053458Y3705886D01*
X16168182Y3629229D01*
X16168195Y3629222D01*
X16295667Y3576422D01*
X16295672Y3576420D01*
X16295676Y3576420D01*
X16295677Y3576419D01*
X16431004Y3549500D01*
X16431007Y3549500D01*
X16568995Y3549500D01*
X16667005Y3568996D01*
X16704328Y3576420D01*
X16831811Y3629225D01*
X16946542Y3705886D01*
X17044114Y3803458D01*
X17120775Y3918189D01*
X17120778Y3918196D01*
X17135439Y3953590D01*
X17179280Y4007994D01*
X17245574Y4030059D01*
X17313273Y4012780D01*
X17360884Y3961643D01*
X17364561Y3953590D01*
X17379221Y3918196D01*
X17379228Y3918183D01*
X17455885Y3803459D01*
X17455888Y3803455D01*
X17553454Y3705889D01*
X17553458Y3705886D01*
X17668182Y3629229D01*
X17668195Y3629222D01*
X17795667Y3576422D01*
X17795672Y3576420D01*
X17795676Y3576420D01*
X17795677Y3576419D01*
X17931004Y3549500D01*
X17931007Y3549500D01*
X18068995Y3549500D01*
X18167005Y3568996D01*
X18204328Y3576420D01*
X18331811Y3629225D01*
X18446542Y3705886D01*
X18544114Y3803458D01*
X18620775Y3918189D01*
X18673580Y4045672D01*
X18682389Y4089959D01*
X18700500Y4181005D01*
X18700500Y4318996D01*
X18673581Y4454323D01*
X18673580Y4454324D01*
X18673580Y4454328D01*
X18671706Y4458853D01*
X18620778Y4581805D01*
X18620771Y4581818D01*
X18544114Y4696542D01*
X18544111Y4696546D01*
X18446545Y4794112D01*
X18446541Y4794115D01*
X18331817Y4870772D01*
X18331804Y4870779D01*
X18204332Y4923579D01*
X18204322Y4923582D01*
X18068995Y4950500D01*
X18068993Y4950500D01*
X17931007Y4950500D01*
X17931005Y4950500D01*
X17795677Y4923582D01*
X17795667Y4923579D01*
X17668195Y4870779D01*
X17668182Y4870772D01*
X17553458Y4794115D01*
X17553454Y4794112D01*
X17455888Y4696546D01*
X17455885Y4696542D01*
X17379228Y4581818D01*
X17379223Y4581808D01*
X17364561Y4546410D01*
X17320720Y4492006D01*
X17254425Y4469942D01*
X17186726Y4487222D01*
X17139116Y4538359D01*
X17135439Y4546410D01*
X17125000Y4571611D01*
X17120775Y4581811D01*
X17120773Y4581814D01*
X17120771Y4581818D01*
X17044114Y4696542D01*
X17044111Y4696546D01*
X16946545Y4794112D01*
X16946541Y4794115D01*
X16831817Y4870772D01*
X16831804Y4870779D01*
X16704332Y4923579D01*
X16704322Y4923582D01*
X16568995Y4950500D01*
X16568993Y4950500D01*
X16431007Y4950500D01*
X16431005Y4950500D01*
X16295677Y4923582D01*
X16295667Y4923579D01*
X16168195Y4870779D01*
X16168182Y4870772D01*
X16053458Y4794115D01*
X16053454Y4794112D01*
X15962681Y4703338D01*
X15901358Y4669853D01*
X15831666Y4674837D01*
X15787319Y4703338D01*
X15696545Y4794112D01*
X15696541Y4794115D01*
X15581817Y4870772D01*
X15581804Y4870779D01*
X15454332Y4923579D01*
X15454322Y4923582D01*
X15318995Y4950500D01*
X15318993Y4950500D01*
X15181007Y4950500D01*
X15181005Y4950500D01*
X15045677Y4923582D01*
X15045667Y4923579D01*
X14918195Y4870779D01*
X14918182Y4870772D01*
X14803458Y4794115D01*
X14803454Y4794112D01*
X14705888Y4696546D01*
X14705885Y4696542D01*
X14629228Y4581818D01*
X14629221Y4581805D01*
X14576421Y4454333D01*
X14576418Y4454323D01*
X14549500Y4318996D01*
X14549500Y4318993D01*
X14549500Y4181007D01*
X14549500Y4181005D01*
X14549499Y4181005D01*
X13545500Y4181005D01*
X13545500Y12038300D01*
X13565185Y12105339D01*
X13613204Y12148784D01*
X13675405Y12180476D01*
X13834646Y12296172D01*
X13973828Y12435354D01*
X14089524Y12594595D01*
X14178884Y12769975D01*
X14179515Y12771213D01*
X14227489Y12822010D01*
X14295310Y12838805D01*
X14361445Y12816268D01*
X14400485Y12771213D01*
X14490474Y12594597D01*
X14518635Y12555837D01*
X14606172Y12435354D01*
X14745354Y12296172D01*
X14904595Y12180476D01*
X14987455Y12138257D01*
X15079970Y12091118D01*
X15079972Y12091118D01*
X15079975Y12091116D01*
X15180317Y12058513D01*
X15267173Y12030291D01*
X15461578Y11999500D01*
X15461583Y11999500D01*
X15658422Y11999500D01*
X15852826Y12030291D01*
X15891355Y12042810D01*
X16040025Y12091116D01*
X16215405Y12180476D01*
X16216133Y12181005D01*
X24549499Y12181005D01*
X24576418Y12045678D01*
X24576421Y12045668D01*
X24629221Y11918196D01*
X24629228Y11918183D01*
X24705885Y11803459D01*
X24705888Y11803455D01*
X24803454Y11705889D01*
X24803458Y11705886D01*
X24918182Y11629229D01*
X24918186Y11629227D01*
X24918189Y11629225D01*
X24930114Y11624286D01*
X24953590Y11614561D01*
X25007994Y11570720D01*
X25030058Y11504425D01*
X25012778Y11436726D01*
X24961641Y11389116D01*
X24953590Y11385439D01*
X24918192Y11370777D01*
X24918182Y11370772D01*
X24803458Y11294115D01*
X24803454Y11294112D01*
X24705888Y11196546D01*
X24705885Y11196542D01*
X24629228Y11081818D01*
X24629221Y11081805D01*
X24576421Y10954333D01*
X24576418Y10954323D01*
X24549500Y10818996D01*
X24549500Y10818993D01*
X24549500Y10681007D01*
X24549500Y10681005D01*
X24549499Y10681005D01*
X24576418Y10545678D01*
X24576421Y10545668D01*
X24629221Y10418196D01*
X24629228Y10418183D01*
X24705885Y10303459D01*
X24705888Y10303455D01*
X24803454Y10205889D01*
X24803458Y10205886D01*
X24918182Y10129229D01*
X24918186Y10129227D01*
X24918189Y10129225D01*
X24930114Y10124286D01*
X24953590Y10114561D01*
X25007994Y10070720D01*
X25030058Y10004425D01*
X25012778Y9936726D01*
X24961641Y9889116D01*
X24953590Y9885439D01*
X24918192Y9870777D01*
X24918182Y9870772D01*
X24803458Y9794115D01*
X24803454Y9794112D01*
X24705888Y9696546D01*
X24705885Y9696542D01*
X24629228Y9581818D01*
X24629221Y9581805D01*
X24576421Y9454333D01*
X24576418Y9454323D01*
X24549500Y9318996D01*
X24549500Y9318993D01*
X24549500Y9181007D01*
X24549500Y9181005D01*
X24549499Y9181005D01*
X24576418Y9045678D01*
X24576421Y9045668D01*
X24629221Y8918196D01*
X24629228Y8918183D01*
X24705885Y8803459D01*
X24705888Y8803455D01*
X24803454Y8705889D01*
X24803458Y8705886D01*
X24918182Y8629229D01*
X24918186Y8629227D01*
X24918189Y8629225D01*
X24930114Y8624286D01*
X24953590Y8614561D01*
X25007994Y8570720D01*
X25030058Y8504425D01*
X25012778Y8436726D01*
X24961641Y8389116D01*
X24953590Y8385439D01*
X24918192Y8370777D01*
X24918182Y8370772D01*
X24803458Y8294115D01*
X24803454Y8294112D01*
X24705888Y8196546D01*
X24705885Y8196542D01*
X24629228Y8081818D01*
X24629221Y8081805D01*
X24576421Y7954333D01*
X24576418Y7954323D01*
X24549500Y7818996D01*
X24549500Y7818993D01*
X24549500Y7681007D01*
X24549500Y7681005D01*
X24549499Y7681005D01*
X24576418Y7545678D01*
X24576421Y7545668D01*
X24629221Y7418196D01*
X24629228Y7418183D01*
X24705885Y7303459D01*
X24705888Y7303455D01*
X24803454Y7205889D01*
X24803458Y7205886D01*
X24918182Y7129229D01*
X24918186Y7129227D01*
X24918189Y7129225D01*
X24930114Y7124286D01*
X24953590Y7114561D01*
X25007994Y7070720D01*
X25030058Y7004425D01*
X25012778Y6936726D01*
X24961641Y6889116D01*
X24953590Y6885439D01*
X24918192Y6870777D01*
X24918182Y6870772D01*
X24803458Y6794115D01*
X24803454Y6794112D01*
X24705888Y6696546D01*
X24705885Y6696542D01*
X24629228Y6581818D01*
X24629221Y6581805D01*
X24576421Y6454333D01*
X24576418Y6454323D01*
X24549500Y6318996D01*
X24549500Y6318993D01*
X24549500Y6181007D01*
X24549500Y6181005D01*
X24549499Y6181005D01*
X24576418Y6045678D01*
X24576421Y6045668D01*
X24629221Y5918196D01*
X24629228Y5918183D01*
X24705885Y5803459D01*
X24705888Y5803455D01*
X24803454Y5705889D01*
X24803458Y5705886D01*
X24918182Y5629229D01*
X24918186Y5629227D01*
X24918189Y5629225D01*
X24930114Y5624286D01*
X24953590Y5614561D01*
X25007994Y5570720D01*
X25030058Y5504425D01*
X25012778Y5436726D01*
X24961641Y5389116D01*
X24953590Y5385439D01*
X24918192Y5370777D01*
X24918182Y5370772D01*
X24803458Y5294115D01*
X24803454Y5294112D01*
X24705888Y5196546D01*
X24705885Y5196542D01*
X24629228Y5081818D01*
X24629221Y5081805D01*
X24576421Y4954333D01*
X24576418Y4954323D01*
X24549500Y4818996D01*
X24549500Y4818993D01*
X24549500Y4681007D01*
X24549500Y4681005D01*
X24549499Y4681005D01*
X24576418Y4545678D01*
X24576421Y4545668D01*
X24629221Y4418196D01*
X24629228Y4418183D01*
X24705885Y4303459D01*
X24705888Y4303455D01*
X24803454Y4205889D01*
X24803458Y4205886D01*
X24918182Y4129229D01*
X24918195Y4129222D01*
X25032640Y4081818D01*
X25045672Y4076420D01*
X25045676Y4076420D01*
X25045677Y4076419D01*
X25181004Y4049500D01*
X25181007Y4049500D01*
X25318995Y4049500D01*
X25410041Y4067611D01*
X25454328Y4076420D01*
X25561411Y4120775D01*
X25581804Y4129222D01*
X25581804Y4129223D01*
X25581811Y4129225D01*
X25696542Y4205886D01*
X25794114Y4303458D01*
X25870775Y4418189D01*
X25923580Y4545672D01*
X25934486Y4600500D01*
X25950500Y4681005D01*
X25950500Y4818996D01*
X25923581Y4954323D01*
X25923580Y4954324D01*
X25923580Y4954328D01*
X25884159Y5049500D01*
X25870778Y5081805D01*
X25870771Y5081818D01*
X25794114Y5196542D01*
X25794111Y5196546D01*
X25696545Y5294112D01*
X25696541Y5294115D01*
X25581817Y5370772D01*
X25581804Y5370779D01*
X25546410Y5385439D01*
X25492006Y5429280D01*
X25469941Y5495574D01*
X25487220Y5563273D01*
X25538357Y5610884D01*
X25546410Y5614561D01*
X25581804Y5629222D01*
X25581804Y5629223D01*
X25581811Y5629225D01*
X25696542Y5705886D01*
X25794114Y5803458D01*
X25870775Y5918189D01*
X25923580Y6045672D01*
X25938520Y6120778D01*
X25950500Y6181005D01*
X25950500Y6318996D01*
X25923581Y6454323D01*
X25923580Y6454324D01*
X25923580Y6454328D01*
X25884159Y6549500D01*
X25870778Y6581805D01*
X25870771Y6581818D01*
X25794114Y6696542D01*
X25794111Y6696546D01*
X25696545Y6794112D01*
X25696541Y6794115D01*
X25581817Y6870772D01*
X25581804Y6870779D01*
X25546410Y6885439D01*
X25492006Y6929280D01*
X25469941Y6995574D01*
X25487220Y7063273D01*
X25538357Y7110884D01*
X25546410Y7114561D01*
X25581804Y7129222D01*
X25581804Y7129223D01*
X25581811Y7129225D01*
X25696542Y7205886D01*
X25794114Y7303458D01*
X25870775Y7418189D01*
X25885439Y7453590D01*
X25929280Y7507994D01*
X25995574Y7530059D01*
X26063273Y7512780D01*
X26110884Y7461643D01*
X26114561Y7453590D01*
X26129221Y7418196D01*
X26129228Y7418183D01*
X26205885Y7303459D01*
X26205888Y7303455D01*
X26303454Y7205889D01*
X26303458Y7205886D01*
X26418182Y7129229D01*
X26418195Y7129222D01*
X26518596Y7087635D01*
X26545672Y7076420D01*
X26545676Y7076420D01*
X26545677Y7076419D01*
X26681004Y7049500D01*
X26681007Y7049500D01*
X26818995Y7049500D01*
X26925672Y7070720D01*
X26954328Y7076420D01*
X27061411Y7120775D01*
X27081804Y7129222D01*
X27081804Y7129223D01*
X27081811Y7129225D01*
X27196542Y7205886D01*
X27294114Y7303458D01*
X27370775Y7418189D01*
X27385439Y7453590D01*
X27429280Y7507994D01*
X27495574Y7530059D01*
X27563273Y7512780D01*
X27610884Y7461643D01*
X27614561Y7453590D01*
X27629221Y7418196D01*
X27629228Y7418183D01*
X27705885Y7303459D01*
X27705888Y7303455D01*
X27803454Y7205889D01*
X27803458Y7205886D01*
X27918182Y7129229D01*
X27918195Y7129222D01*
X28018596Y7087635D01*
X28045672Y7076420D01*
X28045676Y7076420D01*
X28045677Y7076419D01*
X28181004Y7049500D01*
X28181007Y7049500D01*
X28318995Y7049500D01*
X28425672Y7070720D01*
X28454328Y7076420D01*
X28561411Y7120775D01*
X28581804Y7129222D01*
X28581804Y7129223D01*
X28581811Y7129225D01*
X28696542Y7205886D01*
X28794114Y7303458D01*
X28870775Y7418189D01*
X28885439Y7453590D01*
X28929280Y7507994D01*
X28995574Y7530059D01*
X29063273Y7512780D01*
X29110884Y7461643D01*
X29114561Y7453590D01*
X29129221Y7418196D01*
X29129228Y7418183D01*
X29205885Y7303459D01*
X29205888Y7303455D01*
X29303454Y7205889D01*
X29303458Y7205886D01*
X29418182Y7129229D01*
X29418195Y7129222D01*
X29518596Y7087635D01*
X29545672Y7076420D01*
X29545676Y7076420D01*
X29545677Y7076419D01*
X29681004Y7049500D01*
X29681007Y7049500D01*
X29818995Y7049500D01*
X29925672Y7070720D01*
X29954328Y7076420D01*
X30061411Y7120775D01*
X30081804Y7129222D01*
X30081804Y7129223D01*
X30081811Y7129225D01*
X30196542Y7205886D01*
X30294114Y7303458D01*
X30370775Y7418189D01*
X30385439Y7453590D01*
X30429280Y7507994D01*
X30495574Y7530059D01*
X30563273Y7512780D01*
X30610884Y7461643D01*
X30614561Y7453590D01*
X30629221Y7418196D01*
X30629228Y7418183D01*
X30705885Y7303459D01*
X30705888Y7303455D01*
X30803454Y7205889D01*
X30803458Y7205886D01*
X30918182Y7129229D01*
X30918186Y7129227D01*
X30918189Y7129225D01*
X30930114Y7124286D01*
X30953590Y7114561D01*
X31007994Y7070720D01*
X31030058Y7004425D01*
X31012778Y6936726D01*
X30961641Y6889116D01*
X30953590Y6885439D01*
X30918192Y6870777D01*
X30918182Y6870772D01*
X30803458Y6794115D01*
X30803454Y6794112D01*
X30705888Y6696546D01*
X30705885Y6696542D01*
X30629228Y6581818D01*
X30629221Y6581805D01*
X30576421Y6454333D01*
X30576418Y6454323D01*
X30549500Y6318996D01*
X30549500Y6318993D01*
X30549500Y6181007D01*
X30549500Y6181005D01*
X30549499Y6181005D01*
X30576418Y6045678D01*
X30576421Y6045668D01*
X30629221Y5918196D01*
X30629228Y5918183D01*
X30705885Y5803459D01*
X30705888Y5803455D01*
X30803454Y5705889D01*
X30803458Y5705886D01*
X30918182Y5629229D01*
X30918186Y5629227D01*
X30918189Y5629225D01*
X30930114Y5624286D01*
X30953590Y5614561D01*
X31007994Y5570720D01*
X31030058Y5504425D01*
X31012778Y5436726D01*
X30961641Y5389116D01*
X30953590Y5385439D01*
X30918192Y5370777D01*
X30918182Y5370772D01*
X30803458Y5294115D01*
X30803454Y5294112D01*
X30705888Y5196546D01*
X30705885Y5196542D01*
X30629228Y5081818D01*
X30629221Y5081805D01*
X30576421Y4954333D01*
X30576418Y4954323D01*
X30549500Y4818996D01*
X30549500Y4818993D01*
X30549500Y4681007D01*
X30549500Y4681005D01*
X30549499Y4681005D01*
X30576418Y4545678D01*
X30576421Y4545668D01*
X30629221Y4418196D01*
X30629228Y4418183D01*
X30705885Y4303459D01*
X30705888Y4303455D01*
X30803454Y4205889D01*
X30803458Y4205886D01*
X30918182Y4129229D01*
X30918195Y4129222D01*
X31032640Y4081818D01*
X31045672Y4076420D01*
X31045676Y4076420D01*
X31045677Y4076419D01*
X31181004Y4049500D01*
X31181007Y4049500D01*
X31318995Y4049500D01*
X31410041Y4067611D01*
X31454328Y4076420D01*
X31561411Y4120775D01*
X31581804Y4129222D01*
X31581804Y4129223D01*
X31581811Y4129225D01*
X31696542Y4205886D01*
X31794114Y4303458D01*
X31870775Y4418189D01*
X31923580Y4545672D01*
X31934486Y4600500D01*
X31950500Y4681005D01*
X31950500Y4818996D01*
X31923581Y4954323D01*
X31923580Y4954324D01*
X31923580Y4954328D01*
X31884159Y5049500D01*
X31870778Y5081805D01*
X31870771Y5081818D01*
X31794114Y5196542D01*
X31794111Y5196546D01*
X31696545Y5294112D01*
X31696541Y5294115D01*
X31581817Y5370772D01*
X31581804Y5370779D01*
X31546410Y5385439D01*
X31492006Y5429280D01*
X31469941Y5495574D01*
X31487220Y5563273D01*
X31538357Y5610884D01*
X31546410Y5614561D01*
X31581804Y5629222D01*
X31581804Y5629223D01*
X31581811Y5629225D01*
X31696542Y5705886D01*
X31794114Y5803458D01*
X31870775Y5918189D01*
X31923580Y6045672D01*
X31938520Y6120778D01*
X31950500Y6181005D01*
X31950500Y6318996D01*
X31923581Y6454323D01*
X31923580Y6454324D01*
X31923580Y6454328D01*
X31884159Y6549500D01*
X31870778Y6581805D01*
X31870771Y6581818D01*
X31794114Y6696542D01*
X31794111Y6696546D01*
X31696545Y6794112D01*
X31696541Y6794115D01*
X31581817Y6870772D01*
X31581804Y6870779D01*
X31546410Y6885439D01*
X31492006Y6929280D01*
X31469941Y6995574D01*
X31487220Y7063273D01*
X31538357Y7110884D01*
X31546410Y7114561D01*
X31581804Y7129222D01*
X31581804Y7129223D01*
X31581811Y7129225D01*
X31696542Y7205886D01*
X31794114Y7303458D01*
X31870775Y7418189D01*
X31923580Y7545672D01*
X31950500Y7681007D01*
X31950500Y7818993D01*
X31950500Y7818996D01*
X31923581Y7954323D01*
X31923580Y7954324D01*
X31923580Y7954328D01*
X31920640Y7961426D01*
X31870778Y8081805D01*
X31870771Y8081818D01*
X31794114Y8196542D01*
X31794111Y8196546D01*
X31696545Y8294112D01*
X31696541Y8294115D01*
X31581817Y8370772D01*
X31581804Y8370779D01*
X31454332Y8423579D01*
X31454322Y8423582D01*
X31318995Y8450500D01*
X31318993Y8450500D01*
X31181007Y8450500D01*
X31181005Y8450500D01*
X31045677Y8423582D01*
X31045667Y8423579D01*
X30918195Y8370779D01*
X30918182Y8370772D01*
X30803458Y8294115D01*
X30803454Y8294112D01*
X30705888Y8196546D01*
X30705885Y8196542D01*
X30629228Y8081818D01*
X30629223Y8081808D01*
X30614561Y8046410D01*
X30570720Y7992006D01*
X30504425Y7969942D01*
X30436726Y7987222D01*
X30389116Y8038359D01*
X30385439Y8046410D01*
X30370776Y8081808D01*
X30370775Y8081811D01*
X30370773Y8081814D01*
X30370771Y8081818D01*
X30294114Y8196542D01*
X30294111Y8196546D01*
X30196545Y8294112D01*
X30196541Y8294115D01*
X30081817Y8370772D01*
X30081804Y8370779D01*
X30046410Y8385439D01*
X29992006Y8429280D01*
X29969941Y8495574D01*
X29987220Y8563273D01*
X30038357Y8610884D01*
X30046410Y8614561D01*
X30081804Y8629222D01*
X30081804Y8629223D01*
X30081811Y8629225D01*
X30196542Y8705886D01*
X30294114Y8803458D01*
X30370775Y8918189D01*
X30423580Y9045672D01*
X30450500Y9181007D01*
X30450500Y9318993D01*
X30450500Y9318996D01*
X30423581Y9454323D01*
X30423580Y9454324D01*
X30423580Y9454328D01*
X30418995Y9465397D01*
X30370778Y9581805D01*
X30370771Y9581818D01*
X30294114Y9696542D01*
X30294111Y9696546D01*
X30196545Y9794112D01*
X30196541Y9794115D01*
X30081817Y9870772D01*
X30081804Y9870779D01*
X29954332Y9923579D01*
X29954322Y9923582D01*
X29818995Y9950500D01*
X29818993Y9950500D01*
X29681007Y9950500D01*
X29681005Y9950500D01*
X29545677Y9923582D01*
X29545667Y9923579D01*
X29418195Y9870779D01*
X29418182Y9870772D01*
X29303458Y9794115D01*
X29303454Y9794112D01*
X29205888Y9696546D01*
X29205885Y9696542D01*
X29129228Y9581818D01*
X29129223Y9581808D01*
X29114561Y9546410D01*
X29070720Y9492006D01*
X29004425Y9469942D01*
X28936726Y9487222D01*
X28889116Y9538359D01*
X28885439Y9546410D01*
X28870776Y9581808D01*
X28870775Y9581811D01*
X28870773Y9581814D01*
X28870771Y9581818D01*
X28794114Y9696542D01*
X28794111Y9696546D01*
X28696545Y9794112D01*
X28696541Y9794115D01*
X28581817Y9870772D01*
X28581804Y9870779D01*
X28546410Y9885439D01*
X28492006Y9929280D01*
X28469941Y9995574D01*
X28487220Y10063273D01*
X28538357Y10110884D01*
X28546410Y10114561D01*
X28581804Y10129222D01*
X28581804Y10129223D01*
X28581811Y10129225D01*
X28696542Y10205886D01*
X28794114Y10303458D01*
X28870775Y10418189D01*
X28923580Y10545672D01*
X28950500Y10681007D01*
X28950500Y10818993D01*
X28950500Y10818996D01*
X28923581Y10954323D01*
X28923580Y10954324D01*
X28923580Y10954328D01*
X28923578Y10954333D01*
X28870778Y11081805D01*
X28870771Y11081818D01*
X28794114Y11196542D01*
X28794111Y11196546D01*
X28696545Y11294112D01*
X28696541Y11294115D01*
X28581817Y11370772D01*
X28581804Y11370779D01*
X28546410Y11385439D01*
X28492006Y11429280D01*
X28469941Y11495574D01*
X28487220Y11563273D01*
X28538357Y11610884D01*
X28546410Y11614561D01*
X28581804Y11629222D01*
X28581804Y11629223D01*
X28581811Y11629225D01*
X28696542Y11705886D01*
X28794114Y11803458D01*
X28870775Y11918189D01*
X28923580Y12045672D01*
X28935449Y12105339D01*
X28950500Y12181005D01*
X28950500Y12318996D01*
X28923581Y12454323D01*
X28923580Y12454324D01*
X28923580Y12454328D01*
X28870775Y12581811D01*
X28870773Y12581814D01*
X28870771Y12581818D01*
X28859676Y12598423D01*
X30249500Y12598423D01*
X30249500Y12401578D01*
X30280290Y12207174D01*
X30341117Y12019971D01*
X30392978Y11918189D01*
X30430476Y11844595D01*
X30546172Y11685354D01*
X30685354Y11546172D01*
X30844595Y11430476D01*
X30925769Y11389116D01*
X31019970Y11341118D01*
X31019972Y11341118D01*
X31019975Y11341116D01*
X31120317Y11308513D01*
X31207173Y11280291D01*
X31401578Y11249500D01*
X31401583Y11249500D01*
X31598422Y11249500D01*
X31792826Y11280291D01*
X31835362Y11294112D01*
X31980025Y11341116D01*
X32155405Y11430476D01*
X32314646Y11546172D01*
X32453828Y11685354D01*
X32569524Y11844595D01*
X32658884Y12019975D01*
X32719709Y12207174D01*
X32750500Y12401578D01*
X32750500Y12598423D01*
X32719709Y12792827D01*
X32680894Y12912285D01*
X32658884Y12980025D01*
X32658882Y12980028D01*
X32658882Y12980030D01*
X32578134Y13138507D01*
X32569524Y13155405D01*
X32453828Y13314646D01*
X32314646Y13453828D01*
X32155405Y13569524D01*
X32119703Y13587715D01*
X31980029Y13658883D01*
X31792826Y13719710D01*
X31598422Y13750500D01*
X31598417Y13750500D01*
X31401583Y13750500D01*
X31401578Y13750500D01*
X31207173Y13719710D01*
X31019970Y13658883D01*
X30844594Y13569524D01*
X30803002Y13539305D01*
X30685354Y13453828D01*
X30685352Y13453826D01*
X30685351Y13453826D01*
X30546174Y13314649D01*
X30546174Y13314648D01*
X30546172Y13314646D01*
X30518454Y13276496D01*
X30430476Y13155406D01*
X30341117Y12980030D01*
X30280290Y12792827D01*
X30249500Y12598423D01*
X28859676Y12598423D01*
X28794114Y12696542D01*
X28794111Y12696546D01*
X28696545Y12794112D01*
X28696541Y12794115D01*
X28581817Y12870772D01*
X28581804Y12870779D01*
X28454332Y12923579D01*
X28454322Y12923582D01*
X28318995Y12950500D01*
X28318993Y12950500D01*
X28181007Y12950500D01*
X28181005Y12950500D01*
X28045677Y12923582D01*
X28045667Y12923579D01*
X27918195Y12870779D01*
X27918182Y12870772D01*
X27803458Y12794115D01*
X27803454Y12794112D01*
X27705888Y12696546D01*
X27705885Y12696542D01*
X27629228Y12581818D01*
X27629223Y12581808D01*
X27614561Y12546410D01*
X27570720Y12492006D01*
X27504425Y12469942D01*
X27436726Y12487222D01*
X27389116Y12538359D01*
X27385439Y12546410D01*
X27370776Y12581808D01*
X27370775Y12581811D01*
X27370773Y12581814D01*
X27370771Y12581818D01*
X27294114Y12696542D01*
X27294111Y12696546D01*
X27196545Y12794112D01*
X27196541Y12794115D01*
X27081817Y12870772D01*
X27081804Y12870779D01*
X26954332Y12923579D01*
X26954322Y12923582D01*
X26818995Y12950500D01*
X26818993Y12950500D01*
X26681007Y12950500D01*
X26681005Y12950500D01*
X26545677Y12923582D01*
X26545667Y12923579D01*
X26418195Y12870779D01*
X26418182Y12870772D01*
X26303458Y12794115D01*
X26303454Y12794112D01*
X26205888Y12696546D01*
X26205885Y12696542D01*
X26129228Y12581818D01*
X26129223Y12581808D01*
X26114561Y12546410D01*
X26070720Y12492006D01*
X26004425Y12469942D01*
X25936726Y12487222D01*
X25889116Y12538359D01*
X25885439Y12546410D01*
X25870776Y12581808D01*
X25870775Y12581811D01*
X25870773Y12581814D01*
X25870771Y12581818D01*
X25794114Y12696542D01*
X25794111Y12696546D01*
X25696545Y12794112D01*
X25696541Y12794115D01*
X25581817Y12870772D01*
X25581804Y12870779D01*
X25454332Y12923579D01*
X25454322Y12923582D01*
X25318995Y12950500D01*
X25318993Y12950500D01*
X25181007Y12950500D01*
X25181005Y12950500D01*
X25045677Y12923582D01*
X25045667Y12923579D01*
X24918195Y12870779D01*
X24918182Y12870772D01*
X24803458Y12794115D01*
X24803454Y12794112D01*
X24705888Y12696546D01*
X24705885Y12696542D01*
X24629228Y12581818D01*
X24629221Y12581805D01*
X24576421Y12454333D01*
X24576418Y12454323D01*
X24549500Y12318996D01*
X24549500Y12318993D01*
X24549500Y12181007D01*
X24549500Y12181005D01*
X24549499Y12181005D01*
X16216133Y12181005D01*
X16374646Y12296172D01*
X16513828Y12435354D01*
X16629524Y12594595D01*
X16718884Y12769975D01*
X16779709Y12957174D01*
X16792102Y13035421D01*
X16810500Y13151578D01*
X16810500Y13348423D01*
X16779709Y13542827D01*
X16751487Y13629683D01*
X16718884Y13730025D01*
X16718882Y13730028D01*
X16718882Y13730030D01*
X16668821Y13828279D01*
X16629524Y13905405D01*
X16513828Y14064646D01*
X16374646Y14203828D01*
X16215405Y14319524D01*
X16126122Y14365016D01*
X16075327Y14412989D01*
X16058532Y14480810D01*
X16081069Y14546945D01*
X16135784Y14590397D01*
X16182418Y14599500D01*
X31442417Y14599500D01*
X31495948Y14599500D01*
X31504028Y14599236D01*
X31765949Y14582069D01*
X31782005Y14579954D01*
X32035426Y14529546D01*
X32051077Y14525352D01*
X32295752Y14442296D01*
X32310729Y14436093D01*
X32342017Y14420663D01*
X32542460Y14321815D01*
X32556506Y14313705D01*
X32771336Y14170161D01*
X32784202Y14160290D01*
X32893259Y14064649D01*
X32978460Y13989930D01*
X32989929Y13978461D01*
X33053997Y13905405D01*
X33146424Y13800012D01*
X33160286Y13784206D01*
X33170160Y13771337D01*
X33313704Y13556507D01*
X33321814Y13542461D01*
X33436091Y13310731D01*
X33442298Y13295746D01*
X33517043Y13075553D01*
X33525348Y13051089D01*
X33529546Y13035421D01*
X33579952Y12782011D01*
X33582069Y12765930D01*
X33599234Y12504059D01*
X33599500Y12495949D01*
X33599500Y-35495948D01*
X33599234Y-35504058D01*
X33582069Y-35765929D01*
X33579952Y-35782010D01*
X33529546Y-36035420D01*
X33525348Y-36051088D01*
X33442298Y-36295745D01*
X33436091Y-36310730D01*
X33321814Y-36542460D01*
X33313704Y-36556506D01*
X33170160Y-36771336D01*
X33160286Y-36784205D01*
X32989929Y-36978460D01*
X32978460Y-36989929D01*
X32784205Y-37160286D01*
X32771336Y-37170160D01*
X32556506Y-37313704D01*
X32542460Y-37321814D01*
X32310730Y-37436091D01*
X32295745Y-37442298D01*
X32051088Y-37525348D01*
X32035420Y-37529546D01*
X31782010Y-37579952D01*
X31765929Y-37582069D01*
X31504058Y-37599234D01*
X31495948Y-37599500D01*
X-19495948Y-37599500D01*
X-19504058Y-37599234D01*
X-19765930Y-37582069D01*
X-19782011Y-37579952D01*
X-20035421Y-37529546D01*
X-20051089Y-37525348D01*
X-20295746Y-37442298D01*
X-20310731Y-37436091D01*
X-20542461Y-37321814D01*
X-20556507Y-37313704D01*
X-20771337Y-37170160D01*
X-20784206Y-37160286D01*
X-20978461Y-36989929D01*
X-20989930Y-36978460D01*
X-21160287Y-36784205D01*
X-21170161Y-36771336D01*
X-21313705Y-36556506D01*
X-21321815Y-36542460D01*
X-21436092Y-36310730D01*
X-21442296Y-36295752D01*
X-21525352Y-36051077D01*
X-21529547Y-36035420D01*
X-21540565Y-35980029D01*
X-21579954Y-35782005D01*
X-21582069Y-35765949D01*
X-21599236Y-35504028D01*
X-21599500Y-35495948D01*
X-21599500Y-35401577D01*
X-20750500Y-35401577D01*
X-20750500Y-35598422D01*
X-20719710Y-35792826D01*
X-20658883Y-35980029D01*
X-20622676Y-36051088D01*
X-20569524Y-36155405D01*
X-20453828Y-36314646D01*
X-20314646Y-36453828D01*
X-20155405Y-36569524D01*
X-20072586Y-36611722D01*
X-19980030Y-36658882D01*
X-19980028Y-36658882D01*
X-19980025Y-36658884D01*
X-19879683Y-36691487D01*
X-19792827Y-36719709D01*
X-19598422Y-36750500D01*
X-19598417Y-36750500D01*
X-19401578Y-36750500D01*
X-19207174Y-36719709D01*
X-19019975Y-36658884D01*
X-18844595Y-36569524D01*
X-18685354Y-36453828D01*
X-18546172Y-36314646D01*
X-18430476Y-36155405D01*
X-18341116Y-35980025D01*
X-18280291Y-35792826D01*
X-18266274Y-35704328D01*
X-18249500Y-35598422D01*
X-18249500Y-35409448D01*
X-15650500Y-35409448D01*
X-15650500Y-35590551D01*
X-15622171Y-35769410D01*
X-15566213Y-35941636D01*
X-15566212Y-35941639D01*
X-15483994Y-36102997D01*
X-15377559Y-36249494D01*
X-15377555Y-36249499D01*
X-15249500Y-36377554D01*
X-15249495Y-36377558D01*
X-15144521Y-36453825D01*
X-15102994Y-36483996D01*
X-14997516Y-36537740D01*
X-14941640Y-36566211D01*
X-14941637Y-36566212D01*
X-14855524Y-36594191D01*
X-14769409Y-36622171D01*
X-14686571Y-36635291D01*
X-14590551Y-36650500D01*
X-14590546Y-36650500D01*
X-14409449Y-36650500D01*
X-14322741Y-36636765D01*
X-14230591Y-36622171D01*
X-14058361Y-36566211D01*
X-13897006Y-36483996D01*
X-13750499Y-36377553D01*
X-13622447Y-36249501D01*
X-13516004Y-36102994D01*
X-13433789Y-35941639D01*
X-13377829Y-35769409D01*
X-13350747Y-35598422D01*
X-13349500Y-35590551D01*
X-13349500Y-35409448D01*
X-13365981Y-35305397D01*
X-13377829Y-35230591D01*
X-13433789Y-35058361D01*
X-13433789Y-35058360D01*
X-13486003Y-34955886D01*
X-13516004Y-34897006D01*
X-13529604Y-34878287D01*
X-13622442Y-34750505D01*
X-13622446Y-34750500D01*
X-13750501Y-34622445D01*
X-13750506Y-34622441D01*
X-13897003Y-34516006D01*
X-13897004Y-34516005D01*
X-13897006Y-34516004D01*
X-13948700Y-34489664D01*
X-14058361Y-34433788D01*
X-14058364Y-34433787D01*
X-14230590Y-34377829D01*
X-14409449Y-34349500D01*
X-14409454Y-34349500D01*
X-14590546Y-34349500D01*
X-14590551Y-34349500D01*
X-14769411Y-34377829D01*
X-14941637Y-34433787D01*
X-14941640Y-34433788D01*
X-15102998Y-34516006D01*
X-15249495Y-34622441D01*
X-15249500Y-34622445D01*
X-15377555Y-34750500D01*
X-15377559Y-34750505D01*
X-15483994Y-34897002D01*
X-15566212Y-35058360D01*
X-15566213Y-35058363D01*
X-15622171Y-35230589D01*
X-15650500Y-35409448D01*
X-18249500Y-35409448D01*
X-18249500Y-35401577D01*
X-18280291Y-35207173D01*
X-18341118Y-35019970D01*
X-18388257Y-34927455D01*
X-18430476Y-34844595D01*
X-18546172Y-34685354D01*
X-18685354Y-34546172D01*
X-18844595Y-34430476D01*
X-19019971Y-34341117D01*
X-19207174Y-34280290D01*
X-19401578Y-34249500D01*
X-19401583Y-34249500D01*
X-19598417Y-34249500D01*
X-19598422Y-34249500D01*
X-19792827Y-34280290D01*
X-19980030Y-34341117D01*
X-20155406Y-34430476D01*
X-20246259Y-34496485D01*
X-20314646Y-34546172D01*
X-20314648Y-34546174D01*
X-20314649Y-34546174D01*
X-20453826Y-34685351D01*
X-20453826Y-34685352D01*
X-20453828Y-34685354D01*
X-20501159Y-34750499D01*
X-20569524Y-34844594D01*
X-20658883Y-35019970D01*
X-20719710Y-35207173D01*
X-20750500Y-35401577D01*
X-21599500Y-35401577D01*
X-21599500Y-19824108D01*
X-16500500Y-19824108D01*
X-16500500Y-19955891D01*
X-16466392Y-20083187D01*
X-16433446Y-20140250D01*
X-16400500Y-20197314D01*
X-16307314Y-20290500D01*
X-16193186Y-20356392D01*
X-16065892Y-20390500D01*
X-16065890Y-20390500D01*
X-15934110Y-20390500D01*
X-15934108Y-20390500D01*
X-15806814Y-20356392D01*
X-15692686Y-20290500D01*
X-15599500Y-20197314D01*
X-15533608Y-20083186D01*
X-15499500Y-19955892D01*
X-15499500Y-19824108D01*
X-15533608Y-19696814D01*
X-15599500Y-19582686D01*
X-15692686Y-19489500D01*
X-15749750Y-19456554D01*
X-15806813Y-19423608D01*
X-15870461Y-19406554D01*
X-15934108Y-19389500D01*
X-16065892Y-19389500D01*
X-16193188Y-19423608D01*
X-16307314Y-19489500D01*
X-16307317Y-19489502D01*
X-16400498Y-19582683D01*
X-16400500Y-19582686D01*
X-16466392Y-19696812D01*
X-16500500Y-19824108D01*
X-21599500Y-19824108D01*
X-21599500Y-14044108D01*
X-16500500Y-14044108D01*
X-16500500Y-14175891D01*
X-16466392Y-14303187D01*
X-16450798Y-14330196D01*
X-16400500Y-14417314D01*
X-16307314Y-14510500D01*
X-16193186Y-14576392D01*
X-16065892Y-14610500D01*
X-16065890Y-14610500D01*
X-15934110Y-14610500D01*
X-15934108Y-14610500D01*
X-15806814Y-14576392D01*
X-15692686Y-14510500D01*
X-15599500Y-14417314D01*
X-15533608Y-14303186D01*
X-15499500Y-14175892D01*
X-15499500Y-14044108D01*
X-15533608Y-13916814D01*
X-15599500Y-13802686D01*
X-15692686Y-13709500D01*
X-15749750Y-13676554D01*
X-15806813Y-13643608D01*
X-15870461Y-13626554D01*
X-15934108Y-13609500D01*
X-16065892Y-13609500D01*
X-16193188Y-13643608D01*
X-16307314Y-13709500D01*
X-16307317Y-13709502D01*
X-16400498Y-13802683D01*
X-16400500Y-13802686D01*
X-16466392Y-13916812D01*
X-16500500Y-14044108D01*
X-21599500Y-14044108D01*
X-21599500Y-11064071D01*
X-11400501Y-11064071D01*
X-11375503Y-11189738D01*
X-11375501Y-11189744D01*
X-11326467Y-11308124D01*
X-11326462Y-11308133D01*
X-11255277Y-11414668D01*
X-11255274Y-11414672D01*
X-11164673Y-11505273D01*
X-11164669Y-11505276D01*
X-11058134Y-11576461D01*
X-11058125Y-11576466D01*
X-11031308Y-11587574D01*
X-10939744Y-11625501D01*
X-10886663Y-11636059D01*
X-10869908Y-11644824D01*
X-10851429Y-11648844D01*
X-10826393Y-11667586D01*
X-10824755Y-11668443D01*
X-10823175Y-11669995D01*
X-10811819Y-11681351D01*
X-10778334Y-11742674D01*
X-10775500Y-11769032D01*
X-10775500Y-14327983D01*
X-10795185Y-14395022D01*
X-10796397Y-14396873D01*
X-10826466Y-14441874D01*
X-10875501Y-14560255D01*
X-10875503Y-14560261D01*
X-10900500Y-14685928D01*
X-10900500Y-14685931D01*
X-10900500Y-14814069D01*
X-10900500Y-14814071D01*
X-10900501Y-14814071D01*
X-10875503Y-14939738D01*
X-10875501Y-14939744D01*
X-10826467Y-15058124D01*
X-10826462Y-15058133D01*
X-10755277Y-15164668D01*
X-10755274Y-15164672D01*
X-10664673Y-15255273D01*
X-10664669Y-15255276D01*
X-10558134Y-15326461D01*
X-10558125Y-15326466D01*
X-10531308Y-15337574D01*
X-10439744Y-15375501D01*
X-10439740Y-15375501D01*
X-10439739Y-15375502D01*
X-10314072Y-15400500D01*
X-10314069Y-15400500D01*
X-10185929Y-15400500D01*
X-10101385Y-15383682D01*
X-10060256Y-15375501D01*
X-9941873Y-15326465D01*
X-9835331Y-15255276D01*
X-9744724Y-15164669D01*
X-9673535Y-15058127D01*
X-9624499Y-14939744D01*
X-9599500Y-14814069D01*
X-9599500Y-14685931D01*
X-9599500Y-14685928D01*
X-9624498Y-14560261D01*
X-9624499Y-14560260D01*
X-9624499Y-14560256D01*
X-9673535Y-14441873D01*
X-9703604Y-14396872D01*
X-9724480Y-14330196D01*
X-9724500Y-14327983D01*
X-9724500Y-11579185D01*
X-9724499Y-11579172D01*
X-9724499Y-11430819D01*
X-9724499Y-11430817D01*
X-9760311Y-11297165D01*
X-9770818Y-11278967D01*
X-9829493Y-11177338D01*
X-9829498Y-11177332D01*
X-10080005Y-10926825D01*
X-10113490Y-10865502D01*
X-10113918Y-10863453D01*
X-10124499Y-10810256D01*
X-10173535Y-10691873D01*
X-10173536Y-10691872D01*
X-10173539Y-10691866D01*
X-10244724Y-10585331D01*
X-10244727Y-10585327D01*
X-10335328Y-10494726D01*
X-10335332Y-10494723D01*
X-10441867Y-10423538D01*
X-10441876Y-10423533D01*
X-10560256Y-10374499D01*
X-10560262Y-10374497D01*
X-10685929Y-10349500D01*
X-10685931Y-10349500D01*
X-10814069Y-10349500D01*
X-10814071Y-10349500D01*
X-10939739Y-10374497D01*
X-10939745Y-10374499D01*
X-11058125Y-10423533D01*
X-11058134Y-10423538D01*
X-11164669Y-10494723D01*
X-11164673Y-10494726D01*
X-11255274Y-10585327D01*
X-11255277Y-10585331D01*
X-11326462Y-10691866D01*
X-11326467Y-10691875D01*
X-11375501Y-10810255D01*
X-11375503Y-10810261D01*
X-11400500Y-10935928D01*
X-11400500Y-10935931D01*
X-11400500Y-11064069D01*
X-11400500Y-11064071D01*
X-11400501Y-11064071D01*
X-21599500Y-11064071D01*
X-21599500Y-9318995D01*
X-5950501Y-9318995D01*
X-5923582Y-9454322D01*
X-5923579Y-9454332D01*
X-5870779Y-9581804D01*
X-5870772Y-9581817D01*
X-5794115Y-9696541D01*
X-5794112Y-9696545D01*
X-5696546Y-9794111D01*
X-5696542Y-9794114D01*
X-5581818Y-9870771D01*
X-5581805Y-9870778D01*
X-5519959Y-9896395D01*
X-5454328Y-9923580D01*
X-5454324Y-9923580D01*
X-5454323Y-9923581D01*
X-5318996Y-9950500D01*
X-5318993Y-9950500D01*
X-5181005Y-9950500D01*
X-5089959Y-9932389D01*
X-5045672Y-9923580D01*
X-4918189Y-9870775D01*
X-4803458Y-9794114D01*
X-4705886Y-9696542D01*
X-4629225Y-9581811D01*
X-4576420Y-9454328D01*
X-4560272Y-9373149D01*
X-4549500Y-9318995D01*
X-4549500Y-9181004D01*
X-4576419Y-9045677D01*
X-4576420Y-9045676D01*
X-4576420Y-9045672D01*
X-4589562Y-9013944D01*
X-4629222Y-8918195D01*
X-4629229Y-8918182D01*
X-4705886Y-8803458D01*
X-4705889Y-8803454D01*
X-4803455Y-8705888D01*
X-4803459Y-8705885D01*
X-4918183Y-8629228D01*
X-4918196Y-8629221D01*
X-5045668Y-8576421D01*
X-5045678Y-8576418D01*
X-5181005Y-8549500D01*
X-5181007Y-8549500D01*
X-5318993Y-8549500D01*
X-5318995Y-8549500D01*
X-5454323Y-8576418D01*
X-5454333Y-8576421D01*
X-5581805Y-8629221D01*
X-5581818Y-8629228D01*
X-5696542Y-8705885D01*
X-5696546Y-8705888D01*
X-5794112Y-8803454D01*
X-5794115Y-8803458D01*
X-5870772Y-8918182D01*
X-5870779Y-8918195D01*
X-5923579Y-9045667D01*
X-5923582Y-9045677D01*
X-5950500Y-9181004D01*
X-5950500Y-9181007D01*
X-5950500Y-9318993D01*
X-5950500Y-9318995D01*
X-5950501Y-9318995D01*
X-21599500Y-9318995D01*
X-21599500Y-6068995D01*
X-9450501Y-6068995D01*
X-9423582Y-6204322D01*
X-9423579Y-6204332D01*
X-9370779Y-6331804D01*
X-9370772Y-6331817D01*
X-9294115Y-6446541D01*
X-9294112Y-6446545D01*
X-9196546Y-6544111D01*
X-9196542Y-6544114D01*
X-9081818Y-6620771D01*
X-9081805Y-6620778D01*
X-8970472Y-6666893D01*
X-8954328Y-6673580D01*
X-8954324Y-6673580D01*
X-8954323Y-6673581D01*
X-8818996Y-6700500D01*
X-8818993Y-6700500D01*
X-8681005Y-6700500D01*
X-8557416Y-6675916D01*
X-8545672Y-6673580D01*
X-8418189Y-6620775D01*
X-8303458Y-6544114D01*
X-8205886Y-6446542D01*
X-8129225Y-6331811D01*
X-8126004Y-6324036D01*
X-8076422Y-6204332D01*
X-8076420Y-6204328D01*
X-8069258Y-6168321D01*
X-8036874Y-6106412D01*
X-7976159Y-6071838D01*
X-7906389Y-6075577D01*
X-7878750Y-6089412D01*
X-7831818Y-6120771D01*
X-7831805Y-6120778D01*
X-7717360Y-6168182D01*
X-7704328Y-6173580D01*
X-7704324Y-6173580D01*
X-7704323Y-6173581D01*
X-7568996Y-6200500D01*
X-7568993Y-6200500D01*
X-7431005Y-6200500D01*
X-7339959Y-6182389D01*
X-7295672Y-6173580D01*
X-7168189Y-6120775D01*
X-7053458Y-6044114D01*
X-6955886Y-5946542D01*
X-6879225Y-5831811D01*
X-6826420Y-5704328D01*
X-6799500Y-5568993D01*
X-6799500Y-5431007D01*
X-6799500Y-5431004D01*
X-6826419Y-5295677D01*
X-6826420Y-5295674D01*
X-6826420Y-5295672D01*
X-6827067Y-5294111D01*
X-6879222Y-5168195D01*
X-6879229Y-5168182D01*
X-6955886Y-5053458D01*
X-6955889Y-5053454D01*
X-7053455Y-4955888D01*
X-7053459Y-4955885D01*
X-7168183Y-4879228D01*
X-7168196Y-4879221D01*
X-7295668Y-4826421D01*
X-7295678Y-4826418D01*
X-7431005Y-4799500D01*
X-7431007Y-4799500D01*
X-7568993Y-4799500D01*
X-7568995Y-4799500D01*
X-7704323Y-4826418D01*
X-7704333Y-4826421D01*
X-7831805Y-4879221D01*
X-7831818Y-4879228D01*
X-7946542Y-4955885D01*
X-7946546Y-4955888D01*
X-8044112Y-5053454D01*
X-8044115Y-5053458D01*
X-8120772Y-5168182D01*
X-8120779Y-5168195D01*
X-8173579Y-5295667D01*
X-8173581Y-5295674D01*
X-8180743Y-5331679D01*
X-8213129Y-5393589D01*
X-8273846Y-5428162D01*
X-8343615Y-5424421D01*
X-8371250Y-5410588D01*
X-8418185Y-5379227D01*
X-8418196Y-5379221D01*
X-8545668Y-5326421D01*
X-8545678Y-5326418D01*
X-8681005Y-5299500D01*
X-8681007Y-5299500D01*
X-8818993Y-5299500D01*
X-8818995Y-5299500D01*
X-8954323Y-5326418D01*
X-8954333Y-5326421D01*
X-9081805Y-5379221D01*
X-9081818Y-5379228D01*
X-9196542Y-5455885D01*
X-9196546Y-5455888D01*
X-9294112Y-5553454D01*
X-9294115Y-5553458D01*
X-9370772Y-5668182D01*
X-9370779Y-5668195D01*
X-9423579Y-5795667D01*
X-9423582Y-5795677D01*
X-9450500Y-5931004D01*
X-9450500Y-5931007D01*
X-9450500Y-6068993D01*
X-9450500Y-6068995D01*
X-9450501Y-6068995D01*
X-21599500Y-6068995D01*
X-21599500Y12495949D01*
X-21599236Y12504029D01*
X-21593049Y12598423D01*
X-20750500Y12598423D01*
X-20750500Y12401578D01*
X-20719710Y12207174D01*
X-20658883Y12019971D01*
X-20607022Y11918189D01*
X-20569524Y11844595D01*
X-20453828Y11685354D01*
X-20314646Y11546172D01*
X-20155405Y11430476D01*
X-20074231Y11389116D01*
X-19980030Y11341118D01*
X-19980028Y11341118D01*
X-19980025Y11341116D01*
X-19879683Y11308513D01*
X-19792827Y11280291D01*
X-19598422Y11249500D01*
X-19598417Y11249500D01*
X-19401578Y11249500D01*
X-19207174Y11280291D01*
X-19164638Y11294112D01*
X-19019975Y11341116D01*
X-18844595Y11430476D01*
X-18685354Y11546172D01*
X-18546172Y11685354D01*
X-18430476Y11844595D01*
X-18341116Y12019975D01*
X-18280291Y12207174D01*
X-18249500Y12401578D01*
X-18249500Y12598423D01*
X-18280291Y12792827D01*
X-18319106Y12912285D01*
X-18341116Y12980025D01*
X-18341118Y12980028D01*
X-18341118Y12980030D01*
X-18415494Y13126000D01*
X-18421865Y13138505D01*
X-10850501Y13138505D01*
X-10823582Y13003178D01*
X-10823579Y13003168D01*
X-10770779Y12875696D01*
X-10770772Y12875683D01*
X-10694115Y12760959D01*
X-10694112Y12760955D01*
X-10596546Y12663389D01*
X-10596542Y12663386D01*
X-10481818Y12586729D01*
X-10481805Y12586722D01*
X-10384482Y12546410D01*
X-10354328Y12533920D01*
X-10354324Y12533920D01*
X-10354323Y12533919D01*
X-10218996Y12507000D01*
X-10218993Y12507000D01*
X-10081005Y12507000D01*
X-9989959Y12525111D01*
X-9945672Y12533920D01*
X-9830045Y12581814D01*
X-9818196Y12586722D01*
X-9818196Y12586723D01*
X-9818189Y12586725D01*
X-9703458Y12663386D01*
X-9605886Y12760958D01*
X-9529225Y12875689D01*
X-9476420Y13003172D01*
X-9462022Y13075554D01*
X-9449500Y13138505D01*
X-4050501Y13138505D01*
X-4023582Y13003178D01*
X-4023579Y13003168D01*
X-3970779Y12875696D01*
X-3970772Y12875683D01*
X-3894115Y12760959D01*
X-3894112Y12760955D01*
X-3796546Y12663389D01*
X-3796542Y12663386D01*
X-3681818Y12586729D01*
X-3681805Y12586722D01*
X-3584482Y12546410D01*
X-3554328Y12533920D01*
X-3554324Y12533920D01*
X-3554323Y12533919D01*
X-3418996Y12507000D01*
X-3418993Y12507000D01*
X-3281005Y12507000D01*
X-3189959Y12525111D01*
X-3145672Y12533920D01*
X-3030045Y12581814D01*
X-3018196Y12586722D01*
X-3018196Y12586723D01*
X-3018189Y12586725D01*
X-2903458Y12663386D01*
X-2805886Y12760958D01*
X-2729225Y12875689D01*
X-2676420Y13003172D01*
X-2662022Y13075554D01*
X-2649500Y13138505D01*
X-2649500Y13276496D01*
X-2676419Y13411823D01*
X-2676420Y13411824D01*
X-2676420Y13411828D01*
X-2712942Y13500000D01*
X-2729222Y13539305D01*
X-2729229Y13539318D01*
X-2805886Y13654042D01*
X-2805889Y13654046D01*
X-2903455Y13751612D01*
X-2903459Y13751615D01*
X-3018183Y13828272D01*
X-3018196Y13828279D01*
X-3145668Y13881079D01*
X-3145678Y13881082D01*
X-3281005Y13908000D01*
X-3281007Y13908000D01*
X-3418993Y13908000D01*
X-3418995Y13908000D01*
X-3554323Y13881082D01*
X-3554333Y13881079D01*
X-3681805Y13828279D01*
X-3681818Y13828272D01*
X-3796542Y13751615D01*
X-3796546Y13751612D01*
X-3894112Y13654046D01*
X-3894115Y13654042D01*
X-3970772Y13539318D01*
X-3970779Y13539305D01*
X-4023579Y13411833D01*
X-4023582Y13411823D01*
X-4050500Y13276496D01*
X-4050500Y13276493D01*
X-4050500Y13138507D01*
X-4050500Y13138505D01*
X-4050501Y13138505D01*
X-9449500Y13138505D01*
X-9449500Y13276496D01*
X-9476419Y13411823D01*
X-9476420Y13411824D01*
X-9476420Y13411828D01*
X-9512942Y13500000D01*
X-9529222Y13539305D01*
X-9529229Y13539318D01*
X-9605886Y13654042D01*
X-9605889Y13654046D01*
X-9703455Y13751612D01*
X-9703459Y13751615D01*
X-9818183Y13828272D01*
X-9818196Y13828279D01*
X-9945668Y13881079D01*
X-9945678Y13881082D01*
X-10081005Y13908000D01*
X-10081007Y13908000D01*
X-10218993Y13908000D01*
X-10218995Y13908000D01*
X-10354323Y13881082D01*
X-10354333Y13881079D01*
X-10481805Y13828279D01*
X-10481818Y13828272D01*
X-10596542Y13751615D01*
X-10596546Y13751612D01*
X-10694112Y13654046D01*
X-10694115Y13654042D01*
X-10770772Y13539318D01*
X-10770779Y13539305D01*
X-10823579Y13411833D01*
X-10823582Y13411823D01*
X-10850500Y13276496D01*
X-10850500Y13276493D01*
X-10850500Y13138507D01*
X-10850500Y13138505D01*
X-10850501Y13138505D01*
X-18421865Y13138505D01*
X-18430476Y13155405D01*
X-18446594Y13177590D01*
X-18469921Y13209697D01*
X-18469923Y13209699D01*
X-18518452Y13276493D01*
X-18546172Y13314646D01*
X-18685354Y13453828D01*
X-18844595Y13569524D01*
X-18880297Y13587715D01*
X-19019971Y13658883D01*
X-19207174Y13719710D01*
X-19401578Y13750500D01*
X-19401583Y13750500D01*
X-19598417Y13750500D01*
X-19598422Y13750500D01*
X-19792827Y13719710D01*
X-19980030Y13658883D01*
X-20155406Y13569524D01*
X-20196998Y13539305D01*
X-20314646Y13453828D01*
X-20314648Y13453826D01*
X-20314649Y13453826D01*
X-20453826Y13314649D01*
X-20453826Y13314648D01*
X-20453828Y13314646D01*
X-20481546Y13276496D01*
X-20569524Y13155406D01*
X-20658883Y12980030D01*
X-20719710Y12792827D01*
X-20750500Y12598423D01*
X-21593049Y12598423D01*
X-21582070Y12765937D01*
X-21579955Y12782004D01*
X-21529545Y13035431D01*
X-21525354Y13051074D01*
X-21442295Y13295758D01*
X-21436095Y13310724D01*
X-21321812Y13542467D01*
X-21313705Y13556507D01*
X-21276812Y13611722D01*
X-21170158Y13771342D01*
X-21160296Y13784196D01*
X-20989925Y13978467D01*
X-20978467Y13989925D01*
X-20784196Y14160296D01*
X-20771342Y14170158D01*
X-20556507Y14313705D01*
X-20542467Y14321812D01*
X-20310724Y14436095D01*
X-20295758Y14442295D01*
X-20051074Y14525354D01*
X-20035431Y14529545D01*
X-19782004Y14579955D01*
X-19765952Y14582069D01*
X-19504029Y14599236D01*
X-19495948Y14599500D01*
X-19442417Y14599500D01*
X6591623Y14599500D01*
X6658662Y14579815D01*
G37*
%TD.AperFunction*%
%TA.AperFunction,Conductor*%
G36*
X2974725Y-7962350D02*
G01*
X3021415Y-8014329D01*
X3033558Y-8067846D01*
X3033558Y-8557208D01*
X3024913Y-8586648D01*
X3018390Y-8616635D01*
X3014635Y-8621650D01*
X3013873Y-8624247D01*
X2997239Y-8644889D01*
X2937182Y-8704946D01*
X2875859Y-8738431D01*
X2806167Y-8733447D01*
X2750234Y-8691575D01*
X2725817Y-8626111D01*
X2725501Y-8617265D01*
X2725501Y-8107975D01*
X2745186Y-8040936D01*
X2780610Y-8004873D01*
X2840667Y-7964744D01*
X2907344Y-7943866D01*
X2974725Y-7962350D01*
G37*
%TD.AperFunction*%
%TA.AperFunction,Conductor*%
G36*
X11767227Y12834744D02*
G01*
X11779808Y12835283D01*
X11799673Y12823688D01*
X11821445Y12816268D01*
X11830719Y12805566D01*
X11840150Y12800060D01*
X11860485Y12771213D01*
X11950474Y12594597D01*
X11978635Y12555837D01*
X12066172Y12435354D01*
X12205354Y12296172D01*
X12295251Y12230858D01*
X12364590Y12180479D01*
X12364592Y12180478D01*
X12364595Y12180476D01*
X12426795Y12148784D01*
X12477590Y12100812D01*
X12494500Y12038300D01*
X12494500Y903733D01*
X12474815Y836694D01*
X12458181Y816052D01*
X11217181Y-424948D01*
X11155858Y-458433D01*
X11086166Y-453449D01*
X11030233Y-411577D01*
X11005816Y-346113D01*
X11005500Y-337267D01*
X11005500Y12038300D01*
X11025185Y12105339D01*
X11073204Y12148784D01*
X11135405Y12180476D01*
X11294646Y12296172D01*
X11433828Y12435354D01*
X11549524Y12594595D01*
X11638884Y12769975D01*
X11639515Y12771213D01*
X11648160Y12780368D01*
X11652896Y12792034D01*
X11671694Y12805286D01*
X11687489Y12822010D01*
X11699711Y12825037D01*
X11710002Y12832291D01*
X11732982Y12833277D01*
X11755310Y12838805D01*
X11767227Y12834744D01*
G37*
%TD.AperFunction*%
%TD*%
M02*
